<svg id="Слой_1" xmlns="http://www.w3.org/2000/svg" viewBox="0 0 136 9.9"><style>.st0{fill:#ffcd00}</style><path class="st0" d="M61.3 4.6c-19.5.2-39.1.1-58.6-1.5-.4 0-.8 0-1.1-.1C.9 3 0 3.1 0 2.2s.9-.8 1.5-.8h3C36 1.3 67.5-.5 99.1.1c3.1-.1 6.2.1 9.3.5.9.2 2 .1 2.3 1.2.3.9 1.3.5 2 .5 7.4.1 14.7-.9 21.9-2.2.5-.1 1-.1 1.4-.1-.4.2-.9.4-1.3.5-5.1 1.2-10.3 1.9-15.6 2.1-.3 0-.6.1-.9.2.3.1.6.2.8.2 4.8.3 9.6.3 14.3 1.1.8.1 2 0 1.8 1s-1.3.7-2.1.7c-31 0-61.8 1.9-92.6 4-1.4.1-2.8.1-4.1.1-.5 0-1.2 0-1.3-.6-.1-.7.6-.9 1.2-.9 6.1-.1 12-1.5 18-1.4 11 .1 21.7-1 32.4-1.4l30.6-1.1c.6 0 1.1-.1 1.7-.1-.5 0-1.1-.1-1.6-.1-18.6-.2-37.3.2-56 .3zm10.4-1.8c10.5.1 21-.5 31.5-1 .6 0 1.8.1 1.8-.2-.1-.6-1.2-.3-1.8-.4-.8-.1-1.5-.1-2.3 0-12.8 0-25.6 0-38.3.1-7.6.1-15.2.1-22.8.6-.3 0-.6.1-.9.2.3.1.6.2.9.2 10.6.5 21.2.4 31.9.5z"/></svg>