<svg id="Слой_1" xmlns="http://www.w3.org/2000/svg" viewBox="0 0 117.3 9.5"><style>.st0{fill:#ffcd00}</style><path class="st0" d="M50.8 3.1c18.7-.9 37.3-1.9 56-2.8 2.9-.1 5.8-.2 8.6-.2.7 0 1.9-.4 1.8.9 0 1-1.1.6-1.8.6-6.8.2-13.6.3-20.4 1-1.1.1-2.2.4-3.3.6 1.1 0 2.1.2 3.2.2l16.6-.3c1.2 0 2.4.2 3.6.4.3.1.5.3.6.6.1.5-.2.7-.6.8s-1 .1-1.5.1c-5.7.2-11.4.4-17 .4-18.9 0-37.7 1.3-56.5 3.8-1.2.2-2.4.2-3.5.2-.7 0-1.9.5-2-.6-.1-1.3 1.1-.9 1.8-1C41.2 7.1 46 6.6 50.9 6c1.6-.2 3.2-.3 4.8-.5.5-.1 1.1.1 1.5-.4-.5-.1-.9-.3-1.4-.3-3.8-.2-7.6-.4-11.4-.1-11.1.7-22.2 1.5-33.2 1.4-3.2 0-6.5-.2-9.7-.8-.6-.1-1.5-.1-1.5-1s1-.8 1.5-.8c11.4-1.4 22.9-1 34.3-.7 5.1.1 10 .2 15 .3zm-34 .9H9.2c-.6 0-1.5-.4-1.8.5 0 .2 1.1.2 1.7.3 5.3.4 10.7-.4 16-.6.2 0 .5-.1.7-.2-.3 0-.6 0-.8-.1l-8.2.1z"/></svg>