<svg id="Слой_1" xmlns="http://www.w3.org/2000/svg" viewBox="0 0 188.7 8.8"><style>.st0{fill:#ffcd00}</style><path class="st0" d="M70.4 1.2C101 .8 124.1.7 147.1 0c2.5-.1 5 .2 7.4.3.3 0 .6.1.9.2-.3 0-.6.1-.9.1-3 0-6 0-9 .1l-22.5.6c-.3 0-.7.1-1 .2l1 .4c6.8 2.4 13.8 1.7 20.8 2.3 13 1.1 26.1.4 39.2.5 1.5 0 3.1.2 4.6.3.5 0 1.1.2 1 1-.1.6-.6.7-1 .7-1.2 0-2.5.1-3.7.1-37.7-.8-75.4-.2-113.1-1.9-16.4-.7-32.6 1.7-48.9 3-4.8.4-9.6.9-14.4.8-.7 0-1.6.3-1.6-.7s1-.8 1.6-.9L26 4.8l.9-.3H26L2.7 3.6h-.9c-.7-.1-1.9.3-1.8-.7s1.2-.5 1.8-.6c25.4-1 50.8-1 68.6-1.1zM43.7 3.1v.3l23.2-.9c.4 0 .7-.1 1.1-.1-.4-.1-.8-.2-1.2-.2-7.2 0-14.3 0-21.5.1-8.2.1-16.5.3-24.7.4-.3 0-.7.1-1 .2.3.1.6.1.9.1l23.2.1z"/></svg>