<svg id="Слой_1" xmlns="http://www.w3.org/2000/svg" viewBox="0 0 60.7 5.8"><style>.st0{fill:#ffcd00}</style><path class="st0" d="M12.2 5.8C8.6 5.2 5 4.1 1.4 4 .9 4 0 4.2 0 3.3c-.1-1 .8-.8 1.4-.9 8.3-1.3 16.7-.9 25-.8 1 0 2 .5 2.7-1.1.4-.8 1.4-.4 2.1-.4C36.7.1 42 1.4 47.5 2c3 .3 6.1.2 9.1-.3.6-.1 1.1-.2 1.7-.2.8-.1 1.6.1 2.4.5-.7.7-1.5.3-2.2.4-.4.1-.8.1-1.2.2-.2 0-.3.3-.4.5.1.1.3.2.5.3l2.7.3c.3 0 .5.3.5.6 0 .4-.3.6-.5.6l-2.7.3c-8.9.1-17.6.2-26.4.3-.8-.1-1.5 0-2.2.3H12.2zM21.4 3c-5-.5-9.9-.6-14.9-.2-.3.1-.6.2-.9.4.3.1.6.1.8.2 9.8.6 19.5.6 29.2-.1.3 0 .6-.1.8-.2-.2-.1-.5-.1-.8-.1H21.4z"/></svg>