<svg viewBox="0 0 150.45 7.47" xmlns="http://www.w3.org/2000/svg"><path d="M85.64 7.16C64.75 6.49 46.9 5.26 29 5.53c-2.8 0-5.6.24-8.4.23-1.76 0-3.74.89-5.15-1.14-.23-.33-1.25-.14-1.91-.15a87.36 87.36 0 0 0-11.81 1C1.14 5.54.15 5.89 0 5.1c-.17-1 .94-.93 1.59-1A321 321 0 0 1 36 .61c15.66-.55 31.31-1 47 0 1.56.1 3.12.31 4.67.51.56.07 1.28.16 1.34.86.08.92-.75.92-1.37 1.07-.4.09-.82.11-1.21.23a2.19 2.19 0 0 0-.56.39 2.42 2.42 0 0 0 .61.19c1.07 0 2.14.1 3.21.1h38.09a3.05 3.05 0 0 0 .74 0c6.8-1.74 13.34 1.15 20 1.16.73 0 2-.06 1.92 1s-1.3.78-2 .83c-13.67.81-27.36.38-41 .48-8.33.07-16.57.02-21.8-.27zM51.36 3.32v.25c9.64 0 19.27 0 28.91-.05 1.17 0 3.37 1.05 3.4-.8 0-1.69-2.28-1-3.51-1.06-14.41-.74-28.82-.55-43.23.11C31.43 2 25.9 2 20.45 3a7.59 7.59 0 0 0-.91.28c.31 0 .62.06.94.06zM90.41 5c-8.9-.12-17.78-.8-26.68-.52a8.22 8.22 0 0 0-1.19.21 8.93 8.93 0 0 0 1.2.19c11.53.31 23 1.08 34.57 1 6.26 0 12.52.24 18.76-.48.42 0 .91.16 1.24-.31A11.32 11.32 0 0 0 117.1 5zm42.33 1.38V6.1h8.61a2.36 2.36 0 0 0 .8-.34 2.93 2.93 0 0 0-.69-.19c-5.56-.12-11.14-1-16.67.4-.3.08-.59.21-.88.31a7 7 0 0 0 .94.13z" fill="#ffcd00"/></svg>