<svg viewBox="0 0 213.25 8.78" xmlns="http://www.w3.org/2000/svg"><path d="M79.58 1.22C114.19.81 140.25.72 166.3 0c2.79-.08 5.6.17 8.4.29a7 7 0 0 1 1 .2c-.33 0-.65.06-1 .07-3.38 0-6.76 0-10.14.12q-12.73.29-25.47.63a8.85 8.85 0 0 0-1.12.17l1.14.35c7.66 2.38 15.62 1.68 23.46 2.25 14.74 1.09 29.51.42 44.27.52 1.73 0 3.46.15 5.18.3.54 0 1.26.24 1.15 1-.08.55-.67.67-1.18.69-1.4 0-2.8.12-4.2.09-42.56-.73-85.2-.09-127.79-1.78-18.52-.73-36.88 1.71-55.29 3-5.43.39-10.85.87-16.3.81-.68 0-1.77.32-1.78-.73s1.08-.79 1.78-.87l20.85-2.35a4.49 4.49 0 0 0 1-.34h-1L3 3.64a6.5 6.5 0 0 1-1 0c-.75-.14-2.07.24-2-.78s1.33-.55 2.06-.58c28.69-.95 57.38-.96 77.52-1.06zM49.4 3.14v.35l26.2-.86c.41 0 .81-.09 1.22-.13a8 8 0 0 0-1.3-.21c-8.08 0-16.16 0-24.24.12-9.31.1-18.63.25-27.94.4a7.47 7.47 0 0 0-1.12.19 7 7 0 0 0 1 .13z" fill="#ffcd00"/></svg>