<svg viewBox="0 0 480.7 60.23" xmlns="http://www.w3.org/2000/svg"><g fill="#ffc700"><path d="M474.16 27c.53.6.54 1 0 1.1a3.75 3.75 0 0 1-1.68.27c-1-.24-1.91.31-2.87.34a.26.26 0 0 0-.26.3c0 .07.16.12.26.15l1.51.4c.26.07.52.2.49.51s-.29.4-.56.45l-.46.1a1.53 1.53 0 0 0 .37.25c.35.11.71.18 1.06.26s.71.05.69.46-.38.52-.68.57c-.48.08-1 0-1 .75 0 .12-.62.29-1 .38-.61.14-1.23.23-1.85.33-.46.08-1.1 0-.66.82 0 .09-.3.39-.45.6s-.1.26-.08.28a.65.65 0 0 0 .4.15c.25-.05.47-.23.72-.26a5.88 5.88 0 0 1 2 1.07 2.19 2.19 0 0 1-1.8.74c-1.23-.25-1.84.73-2.75 1.06-.27.1-.3.39-.28.66 0 .47-.19.66-.66.62-.15 0-.47-.14-.41.22a.43.43 0 0 0 .36.22c.51-.14.84.13 1.26.37 1.25.75 1.81.85 4 1h.63s.77.16.76.42-.45.32-.77.34c-.83.06-1.65.15-2.47.23a2.4 2.4 0 0 0-1.65.68 2.11 2.11 0 0 1-1.91.49c-.23-.38-.46-.42-.69 0a3.51 3.51 0 0 0-2 0 36.33 36.33 0 0 0-3.75.79c-2.43.72-5 .39-7.42.8-.51.09-1 .21-1.52.33-.13 0-.33.06-.26.28a.37.37 0 0 0 .33.29 15.7 15.7 0 0 0 5.12.16 18.92 18.92 0 0 1 3.13-.11 1.18 1.18 0 0 1 .4.15c-.08.13-.17.26-.25.39s-.2.38-.44.41c-.71.08-.2.29-.05.47.4.47 1 .24 1.47.39.24.07.74-.33.68.23 0 .38 0 1-.74 1h-.31c-1.18 0-2.35.26-3.53.15a1.75 1.75 0 0 0-1.07.12c-1.07.74-2.31.33-3.46.61a19 19 0 0 1-3.74.18 2.67 2.67 0 0 0-1.63.36 3.36 3.36 0 0 1-1.84.27 1.36 1.36 0 0 1-1.32-.9c-.24-.46-.71-.35-1.13-.36a67.58 67.58 0 0 1-7-.08c-4.39-.49-8.77-.14-13.15-.21-1.59 0-3.19.06-4.78 0a4.28 4.28 0 0 1-1.55-.18.93.93 0 0 0-.6-.12c-1.59.65-3.16 0-4.73 0-.6 0-1.14.5-1.67.3-1.21-.47-2.45.32-3.69-.23a1.68 1.68 0 0 0-1.9.3c-.61-.09-1.24-.69-1.78.2-.14.24-.57 0-.86-.17a5.39 5.39 0 0 0-2.27-.48.42.42 0 0 0-.26.15c-.18.18 0 .29.13.36.31.19.71.57.94.49 1.38-.49 2.38 1.09 3.7.62.37-.13.66-.25 1 0a3.76 3.76 0 0 0 2.71 1 .31.31 0 0 1 .34.25c.06.33-.26.34-.4.31-1.21-.28-2.45 0-3.66-.24a2.72 2.72 0 0 0-1.24 0 8.58 8.58 0 0 1-4 0c-.1 0-.23-.11-.3-.07-1.2.65-2.47-.49-3.67.15-2.33-.57-4.68-.15-7-.11-3.34.05-6.67-.05-10 0-2.6.07-5.23-.09-7.85-.08-3.29 0-6.58-.11-9.87.12-1.2.08-2.51-.13-3.69 0-2.39.31-4.79-.09-7.17.39a21.13 21.13 0 0 1-3.91.09c-5.08 0-10.17 0-15.25.08-3.81 0-7.61.31-11.43.28-2.69 0-5.39.21-8.09.31s-5.48.13-8.2.36c-3 .25-6.09.18-9.12.19s-6 .17-9 0a48.16 48.16 0 0 0-6.41-.15c-1.29.09-2.58.24-3.88.34-1.1.08-2.19.22-3.3.28a19.51 19.51 0 0 0-4 .23 1.84 1.84 0 0 1-.62 0c-2.38-.25-4.76.18-7.13.08-1.45-.06-2.89.11-4.34.09h-4.85c-3.34 0-6.68.13-10 .17-2 0-3.94-.08-5.91 0-2.82.08-5.6-.43-8.41-.33a37.6 37.6 0 0 1-4-.07c-1.48-.11-3 .34-4.45-.2a1.19 1.19 0 0 0-1.06.12 1 1 0 0 1-.75.17 29.44 29.44 0 0 0-6.32-.26c-2.27.12-4.53-.57-6.8 0a1.83 1.83 0 0 1-.89-.23c-.35-.13-.78-.28-1.07-.11a1.61 1.61 0 0 1-1.87-.19c-.37-.23-.75-.17-1 .33-.19.34-.67.23-1 0a.82.82 0 0 0-1.14.12c-.55.65-1.42.89-1.92 1.53a.88.88 0 0 1-1.07.38 2.85 2.85 0 0 0-2.52.16c-.59.27-1.14-.79-1.53.12-1-.08-1.53.63-2.22 1.12a1 1 0 0 1-.59.18c-2.6-.15-5.16.51-7.74.49-1.82 0-3.65.51-5.42.12-1.48-.33-2.94 0-4.42-.17-2-.22-4.14-.08-6.22-.11-1.55 0-3.1-.21-4.65-.27-.84 0-1.68.09-2.51 0-2-.12-3.95-.41-5.92-.43-1.3 0-2.56-.28-3.85-.31s-2.66-.36-4-.49c-1.66-.15-3.33-.27-5-.43-2.07-.2-4.13-.42-6.19-.7-1.54-.21-3.08-.37-4.62-.55-1.19-.14-2.37-.31-3.56-.42s-2.55-.25-3.83-.27c-1.13 0-2.26-.24-3.4-.26-2.66-.05-5.31.14-8 .24a25.89 25.89 0 0 0-5.13.35 5.34 5.34 0 0 1-1.4-.1c-.52 0-1.09-.43-1.48.36-.16.32-.75.22-1 0a1.59 1.59 0 0 0-1.88-.09.81.81 0 0 1-1.08-.16 1.31 1.31 0 0 0-1.32-.3 28.06 28.06 0 0 1-7 .25 39.35 39.35 0 0 1-4.13 0c-.21 0-.53-.13-.58 0-.45 1.22-.93.24-1.51.14a7.45 7.45 0 0 0-4 .22 4.3 4.3 0 0 1-1.66.34 9.27 9.27 0 0 0-1.68.22c-1.78.31-3.59.44-5.38.66a11.44 11.44 0 0 0-2.47.28 10.36 10.36 0 0 1-2.44 0 19.24 19.24 0 0 1-4 .11 13 13 0 0 0-2 0 24.35 24.35 0 0 1-5.87-.56 6.29 6.29 0 0 0-1.09-.06 3.18 3.18 0 0 1-.94 0 35.85 35.85 0 0 0-3.79-.72 11.45 11.45 0 0 0-3.52-.24c-2.3.13-4.61-.13-6.9.16a2.73 2.73 0 0 1-1.2-.27 3.41 3.41 0 0 0-2-.22 4.15 4.15 0 0 1-2-.26c-1.68-.38-3.42-.26-5.11-.6a63.56 63.56 0 0 0-6.47-1 3.3 3.3 0 0 1-1-.37c-.12-.05-.17-.24-.26-.36.08 0 .17-.14.24-.13a17.78 17.78 0 0 0 2.47-.36c.2 0 .53.16.59-.18 0-.07-.31-.23-.5-.31a1.22 1.22 0 0 0-.6-.12c-1.73.31-3.1-.61-4.55-1.29a.63.63 0 0 0 .37-.62c0-.29-.41-.56-.08-.85a.89.89 0 0 1 .9-.1c1.35.45 2.77-.23 4.11.27a.39.39 0 0 0 .51-.22c.07-.28-.14-.48-.37-.63s-.61-.06-.91-.08c-.94-.08-2 0-2.55-1-.18-.32-.56-.2-.86-.25L4 44.39a5.29 5.29 0 0 1-.76-.18c-.08 0-.14-.14-.18-.23s.09-.27.23-.32a5.26 5.26 0 0 1 2.31-.27c2.16.24 4.32.5 6.48.75a.27.27 0 0 0 .33-.23c0-.22-.15-.28-.28-.26-1.74.28-3.4-.36-5.1-.54A27.1 27.1 0 0 1 .37 41.6c-.29-.11-.58-.34-.17-.68 0 0 .12 0 .13-.08.59-1.37.59-1.39 2-1 1.2.37 2.46.26 3.68.58a16.26 16.26 0 0 1 2.46.32 2.36 2.36 0 0 0 1.09 0c.34 0 .84-.1.84-.47a1 1 0 0 0-.7-.7c-1 0-1.77-.71-2.71-.68-1.17 0-2.06-.66-3.1-.93-.28-.07-.32-.22-.1-.42 0 0 .09-.08.09-.12.05-.54 1-.51.8-1-.08-.21-.8-.34-1.21-.56A8.74 8.74 0 0 0 2 35.38c-.12 0-.19-.1-.12-.22S2 35 2.11 35c.46.07.92.17 1.38.26.14 0 .31.16.42 0a.32.32 0 0 0-.09-.41c-.19-.18-.34-.51-.55-.54-1.21-.17-1.74-1.07-2.32-2-.2-.31-.32-.47 0-.74a5 5 0 0 1 1.87-.92 5.5 5.5 0 0 0 2.86-1.11c.08-.08.36-.1.13-.3-.06-.05-.2 0-.3 0-.74.21-1.12.13-.53-.67.21-.3.14-.47-.15-.6a1.58 1.58 0 0 0-.46-.08c-.39 0-1 .13-1-.45 0-.8.64 0 .93-.19.53-.27 1.25.19 1.71-.5.21-.31.68-.15 1-.13a4.53 4.53 0 0 0 1.09 0 .87.87 0 0 0 .58-.45c.11-.34-.9-1.13.48-1 .46.05.91-.45 1.56-.19a2.34 2.34 0 0 0 1.84-.09c.13-.07.33-.2.33-.3a.47.47 0 0 0-.4-.41 8.85 8.85 0 0 0-1.7-.2c-1.41-.11-2.7-.74-4.11-.79-.12 0-.23-.12-.35-.19a2.38 2.38 0 0 1 .4-.2 3.21 3.21 0 0 1 1.52-.29.51.51 0 0 0 .75-.29 1.65 1.65 0 0 0 .43.06 1 1 0 0 0 .32-.17.31.31 0 0 0-.39-.1 1.52 1.52 0 0 0-.32.25h-.79c-.27 0-.44-.21-.23-.36.79-.6-.25-1.11 0-1.69.12-.31-.22-.22-.39-.29a5.37 5.37 0 0 0-2.43-.51 1.44 1.44 0 0 1-1.2-.33c.33-.59 1-.41 1.49-.72a.59.59 0 0 0 .3-.36c0-.16-.19-.16-.34-.2a3.22 3.22 0 0 1-.73-.24c-.4-.21-.81.53-1.18 0 .65-.17.73-1.13 1.31-1.17.78-.06 1.39-.59 2.17-.61.51 0 1-.24 1-1s.29-1.3-.67-1.48a.52.52 0 0 1-.48-.54.73.73 0 0 1 .55-.68 9.78 9.78 0 0 1 1.05-.28c.25-.05.6 0 .77-.09 1.59-1.24 3.48-1 5.29-1.23.79-.11 1.77-.07 2.35-.88.74.23.8-.87 1.5-.75.11 0 .16-.14.08-.18a.68.68 0 0 0-.3-.07H16.9c-1.39 0-2.77-.29-4.17-.25A14.54 14.54 0 0 1 9.32 8a3 3 0 0 0-2 0c-.11 0-.29 0-.44-.07a2 2 0 0 1 .17-.26c.33-.38.41-.83 1.1-1.08a19.26 19.26 0 0 1 2.71-.41c.36-.08 1 0 .37-.65-.1-.1-.14-.18 0-.21a.83.83 0 0 1 .45-.05 6.45 6.45 0 0 0 4 0c1 .87 1.72-.07 2.52-.36.38-.14 0-.23-.15-.29s-.33 0-.33-.2c0 0 .14-.11.22-.11a3.37 3.37 0 0 1 1.23.14c.61.31 1-.06 1.44-.3s.24-.4 0-.51c-1-.37-.33-.54.07-.79.1-.07.11-.28.17-.43.15 0 .33.12.46.08.76-.25-.28 1.76.93.77.6-.49 1.27 0 1.78-.38a1.5 1.5 0 0 1 1.74-.07 3.25 3.25 0 0 0 .91.18c.6.09.08-.49.33-.57a.8.8 0 0 1 1 .34c.29.39.59.62.95 0 .11-.18.38-.15.58-.09 1.66.5 3.4.26 5.09.62a7.52 7.52 0 0 0 3.72-.67c.13 0 .17-.13.11-.23s-.12-.21-.2-.22a8 8 0 0 0-.93-.12c-.28 0-.56-.07-.36-.43s-.4-.6 0-.79a.67.67 0 0 1 .83.28 2.68 2.68 0 0 0 1.73.94c.22.05.53.08.68-.16l-.4-.43c-.14-.15-.21-.25-.1-.39s.19-.06.28 0a4.53 4.53 0 0 1 1.48.45c.53.26 1.17.61 1.61-.21.11-.2.34-.2.56-.19 1.27 0 2.54.26 3.74-.5a1.49 1.49 0 0 1 1.5.13 3.87 3.87 0 0 0 3.34.24C54 .33 55.67.79 57.39 1c.26 0 .55.19.76.12 1.27-.47 2.43 0 3.62.34a9.32 9.32 0 0 0 3.11.31 5.71 5.71 0 0 1 1.82.31c1.07.29 2.18.35 3.27.6 1.45.33 2.91.66 4.4.89.78.12 1.48-.42 2.11-.12a6.28 6.28 0 0 0 2 .72c.3 0 .51-.18.18-.46-.16-.13-.39-.17-.21-.43a.54.54 0 0 1 .55-.2c.1 0 .24.06.27.14.45 1.14 1.47.79 2.28.82 1.56 0 3.13 0 4.69-.05a2.5 2.5 0 0 0 .56-.14c-.19-.08-.38-.16-.57-.23-.49-.16-1.07-.06-1.47-.45a.74.74 0 0 1-.24-.55c0-.22.32-.18.52-.2s.54 0 .67.27c.25.56.6.57.95.15.52-.63.93-.36 1.55-.09 1 .42 2 1 3.17.59.15-.06.32-.16.45-.12 1.64.52 3.21-.32 4.84-.2 1.85.14 3.71-.24 5.55-.22 2.17 0 4.37-.43 6.52.21 1.25-.33 2.49.35 3.63.24s2.34.4 3.49-.13a3.65 3.65 0 0 1 1.56-.07 62 62 0 0 0 7-.58c1.51-.11 3-.94 4.54-.4.29.1.89.33 1.17-.36.14-.34.66-.1 1 0a4.49 4.49 0 0 0 2.63-.07c.63-.26 1.22.07 1.86 0 1.23-.22 2.49-.28 3.74-.41a6.44 6.44 0 0 1 2 .06 22.28 22.28 0 0 0 5.16.28c.66 0 1.21.28 1.84.29a10.54 10.54 0 0 0 4.6-.73 3.7 3.7 0 0 1 1.93-.53c.21 0 .42 0 .52.26s-.14.35-.28.47a3.76 3.76 0 0 1-.39.25c-.14.09-.24.21-.15.37a.37.37 0 0 0 .24.17 3.22 3.22 0 0 0 1.7-.07 4.6 4.6 0 0 1 1.85-.21c.45 0 1.24-.29 1 .79 0 .24.61.43 1.05.49a78.33 78.33 0 0 0 10.6.32c.85 0 1.54-.46 2.41-.5 2.43-.09 4.86-.43 7.3-.46a4 4 0 0 0 1.53-.21 3.79 3.79 0 0 1 1.39-.08c.28 0 .58.15.63.39s-.29.36-.51.48a1.52 1.52 0 0 1-.3.09.33.33 0 0 0-.24.36c0 .19.19.22.34.21a11.51 11.51 0 0 0 2-.15 4 4 0 0 1 2 0 13.46 13.46 0 0 0 3.28.14c3.35 0 6.71.18 10-.06a19.88 19.88 0 0 0 4.13-.29c-.06 0 .13.2 0 0 .19-.61.68-.28 1.05-.33.78-.1 1.7.58 2.34-.41 0 0 .29.07.44.08a8.72 8.72 0 0 0 2.44-.21 19.1 19.1 0 0 1 3.58-.2c3-.13 5.93-.13 8.89-.16a8 8 0 0 0 1.05-.27c.53-.07 1-.29 1.62.1.45.29 1.3.59 1.59-.46.11-.41.49-.35.77-.18a1.86 1.86 0 0 0 2.19.15c.14-.09.41 0 .61 0s.39.22.58.21c2.1-.06 4.15.55 6.26.41a1.07 1.07 0 0 0 .72-.26c.15-.15.31-.34.53-.2a3.13 3.13 0 0 0 3 .18c1.09.85 2.45-.25 3.57.48a1 1 0 0 0 .76 0 1.49 1.49 0 0 1 1.35 0 1.53 1.53 0 0 0 1.37 0c.19-.09.41-.24.58-.12a1.89 1.89 0 0 0 2.3 0c.29-.17.59.14.86.28.5.26 1 .4 1.43-.07s.7-.15 1 0a1.87 1.87 0 0 0 1.51.23 2.42 2.42 0 0 1 1.8.17c.17.09.48.19.58.11.74-.6 1.41-.27 2.13 0a1.44 1.44 0 0 0 1.22-.1.79.79 0 0 1 .89 0 1.71 1.71 0 0 0 2 .31.79.79 0 0 1 .75 0c.24.11.54.34.72.27 1.11-.45 2.11.2 3.16.26s2.18 0 3.27 0a9.8 9.8 0 0 1 1.26 0c1.42.19 1.42.2 3.41-.35a.52.52 0 0 1 .28 0 4.41 4.41 0 0 0 2.49.24c.92-.07 1.85.2 2.79 0 .74-.12 1.53.27 2.26-.3.15-.12.64.31 1 .29 1.39-.11 2.81.3 4.16-.27a.81.81 0 0 1 .76 0c.47.33.9.08 1.34 0 .2 0 .45-.18.61-.11 1.21.54 2.43 0 3.63 0 1.43 0 2.87 0 4.31-.07 1-.08 2.13 0 3.21 0a3.92 3.92 0 0 0 2-.11c.32-.17.6 0 .89.12a1.55 1.55 0 0 0 1.37 0 1.16 1.16 0 0 1 1 0 2.08 2.08 0 0 0 1.68 0 1.12 1.12 0 0 1 1.05 0 1.88 1.88 0 0 0 1.52 0 1.68 1.68 0 0 1 .76-.12 50.69 50.69 0 0 0 9.15.19c1.24 0 2.58.54 3.78-.22 1.31.79 2.76-.38 4.09.28 2.07-.41 4.13.06 6.2.06a27.31 27.31 0 0 1 4.37.05 28.16 28.16 0 0 0 3.4 0 8.16 8.16 0 0 1 2.62.18 1.72 1.72 0 0 0 .92-.09 1.76 1.76 0 0 1 .92-.11 3.55 3.55 0 0 0 2.45.07c1.37.66 2.83 0 4.22.27.78.17 1.5-.22 2.32-.11a24.33 24.33 0 0 0 5.41.28c1.43-.13 2.84.06 4.28-.11a20 20 0 0 1 3 .06c.26 0 .52.08.69-.21a10.08 10.08 0 0 0 4.34.07 1.2 1.2 0 0 1 .77 0 2.53 2.53 0 0 0 2.13-.06c1.62-.57 3.3-.18 4.94-.33 1.12-.1 2.23-.34 3.36-.42a32.73 32.73 0 0 1 5.62-.08 14.25 14.25 0 0 0 2.95-.21c.72-.09 1.38-.15 1.69.69.11.29.47.48.6.34.61-.66 1.17-.16 1.77 0a1.32 1.32 0 0 0 1.07-.14.8.8 0 0 1 1.22.25c.51.67 1.35.77 2 1.22.16.12.31 0 .39-.11s-.11-.22-.2-.27.07-.52-.3-.62-.53-.44-.37-.56.67 0 .91.25.35.94 1.06 1 1.37.59 2-.18a.82.82 0 0 1 .74-.09c1.26.53 2.32-.23 3.43-.53.34-.09.55-.27.93-.08a2.78 2.78 0 0 0 2.24.2c.48-.17 1.37 0 1.42-.37s-.72-.5-1.19-.62a.31.31 0 0 1-.19-.19c0-.21.13-.26.28-.29a1.33 1.33 0 0 1 1.16.34 7.07 7.07 0 0 0 1 .65.62.62 0 0 0 .72-.18c.31-.38-.23-.24-.33-.41s-.26-.34-.13-.55.29-.05.41 0c1.86.91 3.77.68 5.73.4 1.64-.23 3.31-.22 5-.33a10.81 10.81 0 0 0 1.08-.13c.26 0 .52-.21.75-.17 3.43.63 6.89.13 10.33.28a5.62 5.62 0 0 1 1.21.25c2.74.72 5.5 1.21 8.25 0 .34-.15.79-.32 1.05-.08.59.54 1.23.24 1.76.1 2.74-.72 5.51-.27 8.27-.31a17.1 17.1 0 0 0 3.11-.2c.84-.16 2-.57 2.36.91a9.25 9.25 0 0 0 2.22.68 2.67 2.67 0 0 1 1.23.16c.37.21.83.08 1.12.68s1.16.56 1.82.62a14 14 0 0 0 1.41 0c.47 0 1 .12 1.11.55 0 .26-.59.39-.94.36-.62-.06-.81.65-1.36.68.05-.15.19-.37.14-.42-.45-.49-1.09-.45-1.68-.53-.15 0-.22.24-.08.33.5.34.93.91 1.66.59.11.31.37.35.63.33a2.22 2.22 0 0 1 2 .68 1.59 1.59 0 0 0 1.33.35 2.1 2.1 0 0 1 1.08.06c.19.09.35.41.1.44-.64.08-.85.27-.5.87.13.22 0 .39-.25.43a2 2 0 0 1-1.08-.07 20.48 20.48 0 0 0-4.65-1.24c-1.17-.2-2.21-.89-3.42-1a10.27 10.27 0 0 1-2.6-.45 1 1 0 0 0-.76.08c-.25.14-.59.36-.51.7a.67.67 0 0 0 .62.42 7.6 7.6 0 0 0 1.09 0c.35 0 .58 0 .68.44a1.24 1.24 0 0 0 1.31.91c2.18.1 4 1.43 6.08 1.84.31.06.27.18.15.41a1.78 1.78 0 0 1-.74.79c-.22.12-.33.42-.14.48.78.25.69.69.43 1.29-.13.3.66 1.21 1.05 1.3.15 0 .35-.06.46 0 .33.21 1 .07 1 .62s-.63.36-1 .43c-.19 0-.51 0-.52.18s.31.4.57.41h1.24s.57.31.32.52a3.83 3.83 0 0 0-1 1.13.4.4 0 0 1-.27.16c-.31.06-.62-.31-.89-.1s.25.48.16.75a.37.37 0 0 1-.51.22A6.14 6.14 0 0 0 475 20c-.21 0-.55.15-.43.26.42.37.12 1.14.8 1.32.4.11.81.23 1.2.36.15.05.28.22.21.37a.45.45 0 0 1-.38.17c-1-.09-2.09-.2-3.13-.33-.17 0-.31 0-.42.08s0 .25.1.37.24.47.42.63c.66.56.95 1.08 0 1.69a.35.35 0 0 0 .08.63c.79.22.66.84.7 1.39-.11.08-.38-.13-.33.18.05.08.29-.01.34-.12zm-1.58-7.19l-.11-.09.15.05a4.22 4.22 0 0 0 .33.5.28.28 0 0 0 .27.06c.22-.14 0-.29-.06-.34a2.8 2.8 0 0 0-.58-.23zm-287 33.69l-.05-.05c-.16.32-.43.64.11.9a2.38 2.38 0 0 0 2.59-.89c.14-.32.17-.79-.32-.9a10 10 0 0 0-1.69-.32c-1.09-.06-2.2 0-3.27-.11a15.61 15.61 0 0 0-2.15-.2 2.39 2.39 0 0 0-1.84.46c-.47.41-1.32-.27-2.1-.1-1.72.37-3.48 0-5.23.11a9.17 9.17 0 0 0-1.36 0 2.05 2.05 0 0 1-1.08 0 1.71 1.71 0 0 0-1.5 0 1.4 1.4 0 0 1-1.07 0c-1.1-.5-2.15.12-3.22.07a.44.44 0 0 0-.34.24c-.09.3.19.35.37.33 1.88-.22 3.72.41 5.6.3 1.56-.09 3.14 0 4.71.06a43.07 43.07 0 0 0 5-.15 19.58 19.58 0 0 1 6.87.2zm286.29-28.93a1.61 1.61 0 0 1 .92-.13.45.45 0 0 0 .52-.26c.15-.47-.29-.73-.47-1.08a.33.33 0 0 0-.54-.06 1.85 1.85 0 0 1-1.2.65c-.27 0-.21.31-.06.49a1.13 1.13 0 0 0 .83.39zM190.78 53.15c.25-.21.24-.26.1-.29a10.21 10.21 0 0 0-1.53-.24c-.19 0 0 .24.1.31a.53.53 0 0 1 .13.69.28.28 0 0 0 .26.43.57.57 0 0 0 .42-.13 7.87 7.87 0 0 0 .52-.77zM179.52 55a1.3 1.3 0 0 0-.28 0c-.12 0-.31-.05-.31.16 0 .05.15.11.24.16a2.79 2.79 0 0 0 .43.18c.55.16.92-.43 1.46-.34l-1.2-.16zM9.94 15.05c.16-.11.54 0 .55-.31s-.28-.44-.55-.36-.89-.1-.92.23.53.39.92.44zm-.41 5.39c-.29 0-.64-.16-.77.25-.06.19.11.26.25.3a.85.85 0 0 0 .9-.43c.09-.15-.26-.03-.38-.11zm1-6.63c0-.23-.1-.35-.34-.38s-.61-.09-.71.12.19.43.42.51a.44.44 0 0 0 .66-.24zm385 34.91c-.1-.09-.19-.23-.32-.27s-.62-.15-.7 0 .25.32.46.38a.46.46 0 0 0 .61-.1zm-212.28 6.7a.75.75 0 0 0-.78-.39.34.34 0 0 0-.18.15.73.73 0 0 0 .76.41c.07-.01.13-.11.2-.17zm288.31-29.71c-.15-.36-.49-.25-.76-.28-.06 0-.12.08-.19.12a1.24 1.24 0 0 0 .79.36s.1-.13.16-.2zm-14.28 22.45c0-.17-.09-.3-.26-.28a.57.57 0 0 0-.35.2c-.1.14 0 .27.16.31a.35.35 0 0 0 .45-.23zM2.91 32.49a1.53 1.53 0 0 0-.39-.16.61.61 0 0 0-.58.15 1.22 1.22 0 0 0 .36.19.59.59 0 0 0 .61-.18zm181.49 22a.69.69 0 0 0-.61-.07c-.17 0-.19.13 0 .18a1.25 1.25 0 0 0 .46 0c.04.01.09-.07.15-.12zm291.91-37.54c0-.08-.09-.21-.14-.21a.37.37 0 0 0-.25.12c-.09.09-.07.2 0 .23s.32.03.39-.14zm-72.47-12.1v-.11a.17.17 0 0 0-.13 0c-.12.05-.11.12 0 .16s.09-.04.13-.05zM20 6.78l.27-.11s-.07-.1-.11-.1a1.51 1.51 0 0 0-.28 0zM17.19 7h.14a.36.36 0 0 0-.12-.06.4.4 0 0 0-.14 0zm457 12.51h-.12v.07a.43.43 0 0 0 .12 0zM7.56 29s-.06-.05-.09-.06a.28.28 0 0 0-.11 0s.06.06.09.06a.29.29 0 0 0 .11 0zm458.8 6.33v-.1c0-.02-.11-.05-.14 0s-.12.14 0 .18.09-.07.14-.08zm6.13-29.59l-.09-.06v.08z"/><path d="M35.23 2.1c-.9 0-1.29-.65-1.93-.81-.19 0-.18-.31.09-.44.91-.44 1.4.19 1.94.72.14.14.4.27.3.45s-.38.07-.4.08zm41.58-.75c-.57 0-.65.63-1 .78a1.17 1.17 0 0 1-1.13-.36c-.12-.1-.12-.12 0-.24a2.16 2.16 0 0 1 2-.41 1.33 1.33 0 0 1 .13.23zM18.32 2.81c-.1.07-.2.18-.25.16-.71-.32-1.55-.05-2.23-.5a.3.3 0 0 1-.14-.39A.29.29 0 0 1 16 2a5.8 5.8 0 0 1 2 .46 1.49 1.49 0 0 1 .32.35zm401.5 48.4a1 1 0 0 1-.73-.22.65.65 0 0 1-.2-.38c0-.27.26-.32.46-.28a2.85 2.85 0 0 1 .72.29c.18.1.41.26.32.46s-.39.15-.57.13zm-13.22.2a8 8 0 0 1 .92.23c.11 0 .18.21.27.33a1 1 0 0 1-.29.07 5.43 5.43 0 0 1-.9-.12 2.23 2.23 0 0 1-.52-.29zm2.18-47.25c-.37.05-.39-.26-.48-.47-.2-.45.25-.29.41-.36a.36.36 0 0 1 .54.3c0 .24-.25.43-.47.53zM436.6 49.7a1 1 0 0 1 .71.25c.12.1.14.16 0 .21a1.06 1.06 0 0 1-.89-.1c-.23-.11-.48-.19-.72-.28zm23.96-1.59c.17.06.47-.07.48.21a.4.4 0 0 1-.46.47c-.2 0-.46-.05-.51-.28s.24-.36.49-.4zM79.23 1.72A.3.3 0 0 1 79 2c-.37.06-1-.38-.91-.66a.29.29 0 0 1 .19-.18.9.9 0 0 1 .95.56zm-5.13.12a.35.35 0 0 1-.52.08c-.25-.14-.64-.14-.6-.57 0-.06.27-.16.39-.13.38.08.78.45.73.62zM7 24.81l.52.11a1 1 0 0 1-.8.36c-.12 0-.33-.19-.32-.26.1-.38.42-.09.6-.21zM82.13 1.82c.31 0 .54 0 .62.35s-.15.24-.29.23a.75.75 0 0 1-.59-.46zM477.49 14.1a1.5 1.5 0 0 1 .89.23c.11.09.1.23 0 .23a6.85 6.85 0 0 1-.9-.1c-.14 0-.29-.08-.28-.25s.19-.08.29-.11zM81.43 3a.44.44 0 0 1 .47.28.21.21 0 0 1-.22.3.47.47 0 0 1-.48-.29c-.08-.22.09-.29.23-.29zM15.66 5.28c0-.19-.06-.46.16-.54s.5.11.48.26c-.06.44-.46.12-.69.23zm8.89-3.67a1.33 1.33 0 0 1-.24 0s-.05-.07-.05-.11.06-.17.15-.09a1.19 1.19 0 0 1 .14.2zM52.6.33c-.11.07-.18.15-.23.15A2.19 2.19 0 0 1 52 .35s.09-.08.13-.08.28.03.47.06zM21.52 1.74c0 .12 0 .18-.14.16a.21.21 0 0 1-.11-.07c-.08-.1-.07-.19 0-.21s.18.08.25.12zM28 1.31h-.15a.16.16 0 0 1-.11-.24.12.12 0 0 1 .1 0 2.33 2.33 0 0 1 .16.24zM38.7.05a.32.32 0 0 1-.11 0s-.07 0-.1-.06a.32.32 0 0 1 .11 0 .32.32 0 0 1 .1.06zm-6.95 1.28a.54.54 0 0 1-.14 0v-.09s.15-.02.14.09zM19 2.29s0-.07.05-.07a.61.61 0 0 1 .14 0s0 .07-.05.07a.58.58 0 0 1-.14 0zm1.72.09l-.39-.08s.09-.06.11 0a2.29 2.29 0 0 1 .24.17zM6.12 12.66v-.06s.16 0 .08.08-.04-.01-.08-.02zM4 19.08l-.34.2c0-.23.26-.08.38-.16zM401.42 49h.43c-.2.3-.27 0-.39-.08zm28.71 2.69l-.1-.03h.1zm-126.48 4.1l-.15.01.02-.08zm-189.62-.69l.14-.01-.01.07zm95.41 0l.13.04-.14.02zm91.15.68l-.15.02.01-.07zM10 49h-.1zM276.08.92l.03.09-.09-.01zm97.4 2.76l-.13-.06.08.1zm-20.32 50.88l-.05-.09.11.01zm-266.38.38l-.16-.09h.07a.54.54 0 0 1 .05.11zM32.03.53l.05.06-.02-.08zM86.74 55c.13.1.06 0 0 0z"/><path d="M32.06.51l-.1-.03.07.05zm134.1 59.68l.08-.03-.01.07zm19.45-6.74c.45-1 .45-1 1.53-.43.16.09.48.08.43.33s-.39.3-.63.24a4.12 4.12 0 0 0-1.38-.19z"/></g></svg>