<svg viewBox="0 0 151.58 43.17" xmlns="http://www.w3.org/2000/svg"><path d="M148.83 21.06a2.38 2.38 0 0 0 .36 1.88c1 1.49.56 3.13.38 4.73-2.28-.59-2.58 2.79-4.76 2.37s-1.91 1-2 2.38c-.1 1.18.67 1.84 1.06 2.71 1.07 2.44 1.12 2.45-1.36 3-.62.14-1.47-.09-1.61.73-.26 1.47-1.31 1.18-2.27 1.24-2.06.14-2.12.18-1.25 2 .3.63.1.84-.39 1a1.42 1.42 0 0 1-1 0c-3.13-1.81-6.76-.69-10.1-1.76-2.59-.83-5.62-.38-8.44-.3a39 39 0 0 1-11.66-1.46c-.46-.13-1-.44-1.38-.3-4 1.51-8.2 1-12.28.78-17.29-.95-50.32-.08-65.47.26-4.74.11-9.49 1.09-14.28.8a29.79 29.79 0 0 1-11.71-3 3.5 3.5 0 0 1-.67-.6c.28-.14.56-.4.85-.41 1.66-.05 3.33 0 5-.08.27 0 .53-.29.8-.45-.29-.15-.59-.44-.85-.41-1.11.13-1.87-.56-2.7-1.07-2.33-1.42-2.71-3.3-1.23-5.56a13.33 13.33 0 0 1 1.19-2.11c1.19-1.22 1.9-2 1-4.12a5.69 5.69 0 0 1 1.63-6.8c3.12-2.51 4.42-6.78 8.42-8.43 1.08-.44-.16-1.08 0-1.41a1.59 1.59 0 0 1 1.7-1.18c3.35 0 6.71-1 10 .44.3.13 1.1 0 .55-.75-1.12-1.59-.31-2 1.22-2 5 0 14-.06 19 0 1.51 0 3 .15 4-1.32.56-.78 1.32-.59 2.2-.26A22.55 22.55 0 0 0 64.4 3c4.94-.84 26 0 30.75-1.07C99.51.9 104 2 108.24.29c2.2-.87 5 .81 7.18.31a16.19 16.19 0 0 1 6.84-.38A28.22 28.22 0 0 0 129 1c2.07-.06 2.86 2 4.59 2.62.48.16.07 1.2-.52 1.62-1.22.87-.87 1.52-.18 2.74 1.17 2.08 2.72 2.63 4.89 3.4 4.11 1.45 7.87 3.95 11.68 6.16.77.45 1.16 1.56 1.71 2.37 1 1.41-.22 1.15-1 1.21h-1.49c-.02-.23-.09-.12.15-.06z" fill="#ffc800"/></svg>