<svg viewBox="0 0 73.81 43.17" xmlns="http://www.w3.org/2000/svg"><path d="M72.27 21.06a4 4 0 0 0 .2 1.88c.57 1.49.32 3.13.21 4.73-1.27-.58-1.44 2.79-2.68 2.33s-1.07 1-1.14 2.38a7.77 7.77 0 0 0 .59 2.71c.6 2.44.63 2.45-.76 3-.35.14-.82-.09-.9.73-.14 1.47-.74 1.18-1.27 1.24-1.16.14-1.19.18-.7 2 .17.63.05.84-.22 1a.48.48 0 0 1-.55 0c-1.76-1.81-3.79-.69-5.67-1.76-1.45-.83-3.15-.38-4.74-.3a13 13 0 0 1-6.54-1.46c-.26-.13-.57-.44-.77-.3-2.26 1.51-4.6.75-6.89.78-8.5.14-17-.08-25.51.26-2.66.11-5.32 1.09-8 .8a11.53 11.53 0 0 1-6.57-3 2.91 2.91 0 0 1-.36-.56c.16-.14.32-.4.48-.41.93-.05 1.87 0 2.8-.08.15 0 .3-.29.45-.45-.16-.15-.33-.44-.48-.41-.62.13-1.05-.56-1.52-1.07-1.3-1.42-1.52-3.3-.68-5.56a18.06 18.06 0 0 1 .67-2.11 4.56 4.56 0 0 0 .54-4.12c-.5-2-.4-5 .91-6.8C4.94 14 5.67 9.73 7.91 8.08c.6-.44-.09-1.08 0-1.41.09-.67.31-1.17.94-1.18 1.88 0 3.77-1 5.62.44.17.13.62 0 .31-.75-.63-1.59-.17-2 .68-2 2.8 0 5.61-.06 8.41 0 .85 0 1.67.15 2.26-1.32.31-.78.74-.59 1.24-.26 2.1 1.4 4.34 2 6.52 1.39 2.77-.84 5.63 0 8.27-1.07C44.61.9 47.11 2 49.5.29c1.23-.87 2.79.81 4 .31a5.27 5.27 0 0 1 3.87-.38 9.31 9.31 0 0 0 3.8.78c1.16-.06 1.61 2 2.58 2.62.27.16 0 1.2-.29 1.62-.68.87-.49 1.52-.1 2.74a5.21 5.21 0 0 0 2.75 3.4c2.31 1.45 4.41 3.95 6.55 6.16a8.69 8.69 0 0 1 1 2.37c.54 1.41-.13 1.15-.54 1.21a8.18 8.18 0 0 1-.84 0c-.1-.23-.14-.12-.01-.06z" fill="#ffc800"/></svg>