<svg width="168" height="121" viewBox="0 0 168 121" xmlns="http://www.w3.org/2000/svg" xmlns:xlink="http://www.w3.org/1999/xlink"><svg viewBox="0 0 33.57 60.73" width="33.57" height="60.73" x="71.72" y="60.07" xmlns="http://www.w3.org/2000/svg"><path d="M33.24.18a28.73 28.73 0 0 1-.06 9c-2.13 1.24-4.25.67-6.28.74-4.38.15-5.37 1-5.37 5.4 0 1.7-.33 3.45.53 5.29 3.48 1.1 7.3-.22 11 .86a21.5 21.5 0 0 1 .15 8.53c-3.73 1.24-7.56-.16-11.46 1.09-.62 9.59.09 19.23-.41 29a29.32 29.32 0 0 1-10.81.12v-29c-3.48-1.39-6.81 0-10-1.18-.8-2.78-.39-5.56-.28-8.4 3.26-1.37 6.6 0 9.66-1.12.92-1.75.51-3.59.54-5.37a16.13 16.13 0 0 1 4.08-10.86A11.36 11.36 0 0 1 22.39.22 75.06 75.06 0 0 1 33.24.18z" fill="#fff"/></svg><svg viewBox="0 0 105.29 60.07" width="105.29" height="60.07" xmlns="http://www.w3.org/2000/svg"><path d="M34.94 4.14a1.94 1.94 0 0 1 .74-1.38A7.22 7.22 0 0 1 40 .64 63.28 63.28 0 0 1 56.09.39a12.58 12.58 0 0 1 2 .35c2.6.69 3.07 1.62 3.58 4.25a23.14 23.14 0 0 1 .08 5.08c-.13 4.29-.28 8.57-.27 12.86a11.24 11.24 0 0 0 .66 4.41 4 4 0 0 0 .41.75c1 1.39 2.19 1.51 3.51.44 3-2.42 4.94-5.65 7-8.83a86.62 86.62 0 0 0 7.11-14.3c.75-1.86 1.52-2.56 3.93-2.54 5.64 0 11.28-.09 16.92-.17a7.06 7.06 0 0 1 2.54.39A2.25 2.25 0 0 1 105.22 6a19.8 19.8 0 0 1-2.88 6.6 154.56 154.56 0 0 1-9.33 13 53.13 53.13 0 0 0-4.13 5.84 4.42 4.42 0 0 0 .7 5.75c2.41 2.64 5.13 5 7.63 7.51a48.92 48.92 0 0 1 6.79 8.24 7.26 7.26 0 0 1 1.16 3.12 2.78 2.78 0 0 1-2.16 3.35 9.84 9.84 0 0 1-3.07.38c-4.17.08-8.35 0-12.51.25S80 58.66 77.15 55.9c-2.29-2.2-4.24-4.7-6.42-7A14.58 14.58 0 0 0 68 46.64a2.77 2.77 0 0 0-4 .44 8.78 8.78 0 0 0-2.13 4.62 40.23 40.23 0 0 0-.41 4.72 3.28 3.28 0 0 1-3 3.26 3.91 3.91 0 0 1-.69.08c-2.88 0-5.76.1-8.63 0a27.93 27.93 0 0 1-12.56-3.63 43.56 43.56 0 0 1-12.78-10 129.28 129.28 0 0 1-8.8-11.9A182.24 182.24 0 0 1 1 8a14.92 14.92 0 0 1-.87-2.11 2.13 2.13 0 0 1 1.75-2.94 9.79 9.79 0 0 1 2.06-.19l13.72-.09a4.61 4.61 0 0 1 4.75 3.13 156.94 156.94 0 0 0 8.47 16.85 19.09 19.09 0 0 0 4.7 5.79 3.56 3.56 0 0 0 2.85.95 1.75 1.75 0 0 0 1.34-.93A11.81 11.81 0 0 0 41 24.11a47.94 47.94 0 0 0 .25-11.88 30 30 0 0 0-.65-3.65 5.34 5.34 0 0 0-4.3-4.06 4.77 4.77 0 0 1-1.36-.38z" fill="#fff"/></svg><svg viewBox="0 0 71.72 60.92" width="71.72" height="60.92" y="60.07" xmlns="http://www.w3.org/2000/svg"><path d="M1.42 22.64c2-.61 3.29.73 5.32.08-2.34-2.77-4.45-5.5-5.17-9A14 14 0 0 1 3 3.85C5 4 5.8 5.55 6.84 6.6a39.36 39.36 0 0 0 22.63 11.71 6.54 6.54 0 0 0 4.53-.45c.95-.89.81-2.08.89-3.21C35.67 3 47.52-3.73 57.65 2.19c3.68 2.15 6.59 2.43 10.09.57a2.19 2.19 0 0 1 2-.24c.28 2.91-2.75 4-3.83 6.27 2.09.76 3.71-1.1 5.81-.48-.59 2.21-2.32 3.46-3.83 4.74a6.81 6.81 0 0 0-2.56 5.38C64.45 43.18 44.8 61.61 20.14 60.9 12.45 60.67 4.6 58.3 0 54.56c3.8-.57 7.33-.3 10.66-1.38a28 28 0 0 0 9.67-5.3c-6.16-1.43-11-3.77-12.86-9.45 1-1.7 2.83-.53 4.06-2.08-5.75-2.75-9.65-6.93-10.11-13.71z" fill="#fff"/></svg><svg viewBox="0 0 62.34 62.14" width="62.34" height="62.14" x="105.29" xmlns="http://www.w3.org/2000/svg"><g fill="#fff"><path d="M50.57 28.44c3-.95 8.62-.89 11 0 .86.88.74 2 .75 3.13 0 6.67.07 13.34 0 20-.09 7.09-3.57 10.51-10.71 10.53q-20.29.06-40.59 0C4.16 62.09.27 58.3.17 51.49S.13 38 .13 31.2a4.11 4.11 0 0 1 .81-3 28.83 28.83 0 0 1 10.76 0c.88 13.57 6.88 22.8 21.45 21.66 12.29-.93 17.37-9.57 17.42-21.42zm11.07-8.88a65.23 65.23 0 0 1-14.35 0c-.94-.12-1.51-1-2.17-1.67-8.21-8-20-7.93-28 .27-.58.6-1.1 1.4-2 1.48a77.48 77.48 0 0 1-14.87-.12C.32 14.17-1 9 1.92 4.23A8.81 8.81 0 0 1 9.69.06C24.06 0 38.42 0 52.79.08c5.63 0 9.29 3.9 9.48 9.54.09 2.68 0 5.37-.06 8.06a9.54 9.54 0 0 1-.57 1.88zM49.18 5.24a14.68 14.68 0 0 0 .07 7.85 9.46 9.46 0 0 0 8.09-.1c.64-2.74 1-5.31-.46-7.87a14.81 14.81 0 0 0-7.7.12z"/><path d="M42.65 31a11.3 11.3 0 1 1-22.59 0 11.3 11.3 0 0 1 22.59 0z"/></g></svg></svg>