<svg viewBox="0 0 263.12 11.48" xmlns="http://www.w3.org/2000/svg"><path d="M29.51 11.33C22.24 12 15 10.44 7.76 9.28 5.41 8.9 3.2 11.16.88 11.06c-.32 0-.86.56-.88-1 0-.21.55-.57.85-.69 4.72-1.93 9.44-1.3 14.2-.86 12.53 1.15 25.08 2.29 37.58-1.8a13.76 13.76 0 0 1 3.75-.63c5.35-.22 10.69 0 16-.62 4.8-.54 9.64 1 14.44.45a109.07 109.07 0 0 1 16.43-.44c14 .51 28 2.49 42 1.58 10-.65 20.08.35 30.07-1.31a255.75 255.75 0 0 1 47.11-3.64c1.89 0 3.78-1.28 5.67-1.92 2.81-1 5.49 2 8.24 2 8.12-.06 16.22 1.42 24.34 2a7.58 7.58 0 0 1 1.39.11c.53.13 1.18.33 1 2.19s-.64 1.32-1.24 1.1a17.89 17.89 0 0 0-4.72-1C251.54 6 245.93 5 240.33 5.35c-4.07.24-8-3.56-12-2.2-10.79 3.67-21.63.64-32.42 2.11-9.42 1.28-18.84 4-28.27 3-8.81-.93-17.54 2.31-26.31 1.62C125.1 8.6 108.86 7.4 92.62 7.54c-12.21.12-24.42.13-36.62.76-5.27.27-10.52 2.24-15.79 2.95-3.56.47-7.13.08-10.7.08z"/></svg>