<svg id="Слой_1" xmlns="http://www.w3.org/2000/svg" viewBox="0 0 1920 76.9"><style>.st0{fill:#fff}</style><path class="st0" d="M.1 17.3c4.7-1 9.4-2.1 14.1-3 2.2-.6 4.4.1 5.9 1.8 2.3 2.6 3.6 1.7 5.2-.9 3.6-5.8 10.2-5.9 14.3-.4 2 2.7 3.5 2.6 5.3-.1.8-1.2 1.5-3.6 2.8-3.1 3.7 1.4 6-1.3 8.8-2.2 5.7-1.8 10.8-.5 15.6 2.7 2.9 1.9 5.7 4.1 8.8 5.7 5.4 2.9 11.3 4.9 17.3 2.5 8.9-3.6 17.9-4.7 27.3-4.2 1.1.1 2.9.4 3-.9.4-5 4.2-3.8 7-3.9s5.8.3 7.5-1.8c3.2-3.9 7.1-3.6 11.3-3.3 7.5.6 14.9 1.3 22.4 1.9 1.7.1 3.2.8 4.5 1.9 7.6 6.6 17.3 8.3 26.5 10.8 4.1 1.1 14-.9 18.4-2.2 5.6-1.6 11.5-2.2 17-4 16.9-5.6 34.4-5 51.8-5.2 6.8-.1 13.6.7 20.4-.2 14.4-2 28 .3 41.5 5.8 9.6 3.8 19.9 5.6 30.3 5.3 16.2-.4 32.3 1.7 48.5.7 5.8-.3 11.7.6 17.2 2.6 2.8 1 7 .3 7.3-.9.7-2.9 3-2.8 4.4-3.1 5.8-1.3 11.6-.1 18-.2-1.9 3.7-4.7 4.4-7.7 5.7 4.2.7 7-1.3 9.3-3.5.8-.7 1.3-1.3 2.3-1.3 4.8 0 9.6-.5 14.3 1.5 3.8 1.6 8 2.1 12.1 2.6 7.8 1 15.9 1.1 23.4 3.9h18c1.1-1 2.5-.9 3.8-.9 7.4.3 14.5-1.2 21.6-3.3 8.7-2.5 17.8-2.3 26.8-2.6 7.9-.3 7.9.4 11-7.1 1.8-4.3 4.4-6.8 9.5-6.3 3 .3 6.1.7 8.9 0 2.7-.8 5.6-.2 7.7 1.7 4.5 3.4 9.1 3.7 13.8.2 3.3-2.5 6.7-2.6 10.3-.8 5.1 2.7 11 3.3 16.5 1.6 4-1.2 8.1-1.7 12.3-1.6 5.2-.1 10.3-.4 15.5-.6 11.7-.4 23.3-1 34.9.5 7.1.9 13.8 4.3 21 4 13.4-.5 26.6 1.1 40 .5 31.3-1.5 62.6-2.4 93.8-4.5 4.3-.4 8.6-.5 12.9-.3 14 1.4 28.2 2.7 42.2-.9 4.2-1.2 8.6-1.3 12.8-.3 5.6 1.6 11.1 1.6 16.8 1.6 4.3 0 8.8-1.1 12.9.6 7.4 3 15.1 3.2 22.6 2 39.6-6.3 79.4-5.4 119.2-4.1 28 1 55.9 2.2 83.9 2.3 2.3 0 4.7-.2 6.9-.6 21.9-4.2 44-7 66.3-8.4 17.8-1 35.6-.6 53.4 0 23.3.8 46.6 2.4 69.8 3.6 12.3.6 24.2 3.6 36.7 4 10.5.3 21.2 1 31.8 1.6 3.3.3 6.6.7 9.9 1.4 8.5 1.6 17.2 2.9 25.8 2.2 24.6-2 49.2-1.8 73.9-.8 3.7.1 6.8 1 9.2 3.9 1.6 2 3.9 3 6.2 1.5 3.5-2.2 6.1-1 8.9 1.5 3.1 2.6 6.6 4.5 10.4 5.7 2.6.9 5.8 1.8 7.7.1 4.2-3.7 8.3-2.2 12.6-1.3 9.8 2.1 18.9 1.3 25.9-7.1 1.9-2.2 4.5-4 7.3-4 9.2.1 17.6-3.5 26.3-5.4 11.2-2.4 22.7-1.3 34.1-4.6 11.9-3.5 25.1-2.4 37.7-3.5 2.6-.3 5.2.4 7.3 2 8.2 5.6 17.6 8.5 27.2 10.9 2.8.7 6.5 1.3 7.7-2.5 1.3-4 3.8-3.6 6.6-2.8 2.6.6 5.1 1.4 7.6 2.4 3.9 1.7 7.4 2.6 11.1-.5 1.5-1.3 3.7-1.2 5.8-.9 9.2 1.3 18.5 2.2 27.7 3.6 11.1 1.8 22.5 2.1 33.3 6 0-33.3.1 58.9.1 58.9H.3V17.3H.1z"/></svg>