<svg viewBox="0 0 946.88 162.26" xmlns="http://www.w3.org/2000/svg"><path d="M.13 76V7C.1 1 1.16-.56 6.06 1.66 13.8 5.17 21.64 4 29.41 3.31 47 1.72 64.69-.75 82.36 1a244.53 244.53 0 0 0 38.49.62 359.66 359.66 0 0 1 53 .61c15.73 1.42 31.49-.87 47.23-.57 49.74 1 99.48.2 149.22.35S469.76 1 519.49.68c28.8-.19 57.65 2.85 86.53 2 31.9-1 63.81-2 95.72-2.57 27.21-.5 54.37 1.72 81.55 2.75 31.46 1.19 63 3 94.46.08 17.61-1.63 35 .34 52.55 1.15a130.13 130.13 0 0 0 13.23-.55c2-.11 4.32-.3 2.31 3.58a6.18 6.18 0 0 0-.17 2.46c-.26 33.65-1.09 67.32-.5 101 .24 13.72 1.95 27.47 1.69 41.31-.13 7.32 0 7.3-5.88 7.28a155.71 155.71 0 0 0-23.16 1.68c-19.35 2.84-38.59 1.2-57.87-1.13-14.15-1.71-28.33-3.32-42.54-4-33.39-1.54-66.83-3-100.21-1.18-22.21 1.23-44.42 4-66.62 3-22.39-1.08-44.81-2-67.1-.25-30.42 2.44-60.76-.36-91.14-.2-16.59.09-33.32-1.5-50-2-18.5-.51-37-.05-55.53.32-36.46.73-72.92 2-109.39 2.42-17.39.19-34.79-1.13-52.18-1.76-22.53-.81-45 .73-67.51 1.93-27.32 1.46-54.69 2.55-82 .83a529 529 0 0 0-59.23-.1c-4.55.22-9 1.92-13.61 1.11-1.91-.34-3.16-.66-2.83-3.94 2-20.76.74-41.58.46-62.38C.44 87.63.5 81.8.5 76zm341.51 77c15.06 0 30.11.05 45.17 0 18.65-.08 37.3-.63 55.95-.31 19.43.33 38.85 1.74 58.28 2.15 12.29.26 24.58 0 36.88.66 10.76.55 21.58 1 32.32.18a540.67 540.67 0 0 1 72.47-.91c8.15.5 16.28.54 24.44.31 17.68-.5 35.31-2.8 52.94-3.16q36.61-.75 73.28.54c25.44.9 50.76 2.82 76 6 24.25 3.08 48.28-.73 72.39-2.11 1.85-.11 2.82-.84 2.78-3.23-.2-10.32 1.09-20.72-.47-30.93-1.24-8.14-1.07-16.22-1-24.38.39-29.32.64-58.64 1-88 0-3.36-1-4.35-3.7-4.06a114.74 114.74 0 0 1-27.7-.74 106.46 106.46 0 0 0-23.18-.55c-19.31 1.6-38.64 2.07-58 1.74-30.51-.52-61-2-91.48-3.69C706 .69 671.85 3.1 637.73 3.78c-29.43.58-58.89 2.42-88.26.52-19.61-1.3-39.14-2.82-58.76-1.5-34.1 2.31-68.24.88-102.35.82-50.29-.08-100.58 1.08-150.88-.3-20.29-.56-40.65 1.53-60.91.55-20.73-1-41.4-1.49-62.13-.44-9.08.47-18.24.77-27.33-.43-15.06-2-30.05-.67-45.11.54-12.28 1-24.65 4.53-36.89-.87-2.33-1-4.05.11-3.73 3.77.31 3.48.56 7 .59 10.47Q2.57 81.37 3 145.84a39.39 39.39 0 0 1-.26 5c-.89 7.41-.52 8 5.48 6.92 19.53-3.4 39.22-2.95 58.76-1.79 36 2.13 71.82.86 107.69-1.37 21.55-1.34 43.08-1.13 64.63-.44 18.91.6 37.84 2.51 56.74 1.37 15.23-.95 30.41-1.21 45.6-2.53z"/></svg>