<svg viewBox="0 0 380.55 217.52" xmlns="http://www.w3.org/2000/svg"><path d="M275.55 118.92c-3.07-1.37-3.17-4.12-3.42-6.69-1.87-18.95-7.29-37.25-10.09-56-.29-2-.53-4-.76-5.95a2.74 2.74 0 0 1 .18-1.55c-.14-.9-.27-1.81-.38-2.72a26 26 0 0 1-.46-4 .41.41 0 0 1 0-.17c0-7.25-1-14.69.35-21.67 1-5.24 1.51-10 .23-15.08-1.39-5.52-2.81-6.53-7.41-3.29-11.21 7.9-23.75 11.73-37.13 13.46-2 .26-3.94.67-5.9 1.09C147.9 30 84.91 42.84 20.78 49.2c-6.09.6-12.35 0-18.26 2.26-1.09.42-2.58.43-2.52 1.89S1.53 55 2.69 54.86c5.75-.55 11.21 1.55 16.85 1.76 3.88.15 5.6 1.94 6.17 5.67A131.44 131.44 0 0 0 33.2 89.2a37.71 37.71 0 0 1 2.21 10.23c1.88 21.27 1.39 42.62 2.5 63.91.12 2.25-.93 3.19-2.79 4.1-4.74 2.31-9.93 2.73-14.92 4-1.41.36-4.15-.27-3.6 2.1.47 2 2.83.83 4.37.54 3.76-.71 7.49-1.58 11.27-2.22 1.31-.22 3.16-1.22 3.82 1 1.16 3.79 4.11 3.08 6.94 3.14 3.35.07 5.87-2.18 9-2.8 20.42-4.11 40.56-9.41 60.64-14.92a9.68 9.68 0 0 1 2.35-.39c2.86-1.19 5.9-1.85 8.84-2.86a.44.44 0 0 1 .52.19l.45-.11c12.36-2.74 24.68-5.62 37-8.39 4.57-1 9.31-.66 13.88-.71 23-.24 44.73-6.58 66.6-12.48 4.66-1.26 9.39-2.27 14.05-3.53s9-2 12.88 2.17c1.84 2 3.61.64 4.33-1.81.78-2.66.84-5.53 2.73-7.89a2.3 2.3 0 0 0-.72-3.55zM133.2 36.17l-.32.15-.07-.26zM42.35 53c30.28-.8 59.86-6.54 89.44-12.44 15.67-3.12 31.51-5.4 46.91-9.76 1.65-.47 6 .61 3.72-4.16-.69-1.42 1.48-1.25 2.33-1.42 13.05-2.67 26.12-5.25 39.19-7.83a4.89 4.89 0 0 1 1.85-.07c.25 1-.79 1.25-1.39 1.67-24.34 16.93-48.94 33.46-74.15 49.01a10.67 10.67 0 0 1-6.64 1.6c-4.82-.34-9.64-.62-14.46-.93-19.68-1-39.09-3.56-58-9.47-9.38-2.93-19.2-4-28.83-5.84-.62-.12-1.25-.18-1.88-.26.64 0 1.28-.1 1.91-.1zm96.34 22.44c-1.66 1.06-3.19 2.39-5.44 2.08-15.52-2.15-31-4.68-46-9.25-.26-.08-.45-.35-.67-.56 17 3 34.13 5.34 51.47 5.43.61 0 1.56.14 1.78.53.59 1.02-.52 1.33-1.14 1.77zm-52.44-7.81a6.33 6.33 0 0 1-3.51-.89zm-4.07-1.1l-.85-.22c.12 0 .25-.06.34 0s.33.13.52.21zM45 162.39c-2.61.61-3.41-.67-3.44-3.47-.12-9.64-.49-19.27-.72-28.91 0-.71-.44-1.57.39-2.15a6.59 6.59 0 0 1 .9 1.68q3 15.15 6 30.32c.46 2.35-.73 2.99-3.13 2.53zm26.45 5c-2.51.7-5.06 1.31-7.61 1.88a6.09 6.09 0 0 1-1.77-.14 6.56 6.56 0 0 1 1.54-1.06c2.47-.8 5-1.51 7.22-2.18l2.65.33a9.34 9.34 0 0 1-2.02 1.2zm17.33-12.1L89 155l.22.26zm23.35-5.16c-5.78 1.51-11.57 3-17.64 4.51l-1.65-.07c.07-1.17 1.12-1 1.76-1.12q8.67-2.27 17.39-4.38a6.11 6.11 0 0 1 1.86.14 8 8 0 0 1-1.71.94zm6.15-1.75l-.24-.56 1.18-.11zM259.37 121c-19.81 6.62-40.65 8.76-60.68 14.34-7.68 2.14-15.24 4.82-23.24 5.61-.79.08-1.59.1-2.38.15.35-1.16 1.45-1.19 2.33-1.49 4.88-1.69 9.8-3.25 14.64-5 1.53-.56 4.39-.58 3.62-3.11-.7-2.31-3.18-1.11-4.84-.85a61.73 61.73 0 0 0-9.28 1.93c-21.4 6.74-44 7.18-65.71 12.14C94 149.24 74.37 154.38 55 160.59c-3.38 1.08-4.54.67-4.91-3.24C47.4 129 42.94 100.88 38.23 72.8a65 65 0 0 1-1-8.91c-.06-2-.18-3.65 2.46-2.05 1.07.39 2.52.49 2.75-.46 1.25-5.17 4.84-2.49 7.49-2.22a22 22 0 0 1 7.19 1.94c21.66 10.49 44.63 16.39 68.33 19.82 2.3.33 4.63.46 5.91 3a2.07 2.07 0 0 0 3.08.65c2.88-1.84 6-1.56 9.18-1.48 4 .1 8.21.31 8.93-5.37.1-.82 1.08-1.67 1.85-2.23 27.75-20.15 55-41 84-59.38.28-.18.58-.33.87-.49 8.68-4.9 10.92-3.93 12.44 5.53 1 6.08 1.91 12.16 3.85 18 .67 2 1.2 4.21-.49 6.15-.29.34-.67 1-.55 1.24 4.75 11.07 3.52 23.08 5.32 34.61 1.72 11 2.36 22.18 3.82 33.24.52 3.89-.38 5.32-4.29 6.61zm19.16 75.84c-1.72-.13-3.74-.18-3.54-2.48.33-3.76-1.83-7.45-1-11.18a42.47 42.47 0 0 0-5 .69c.48 1.47.69 4.06 1.55 8.41.73 3.64-.45 4.74-3.86 5-29.64 2.37-58.63 8.84-87.8 14.1-3.77.68-7.51 1.5-11.24 2.38-.7.17-1.83 1-1.79 1.41.12 1.28 1.35 1.23 2.34 1.12 1.49-.18 3-.48 4.44-.71q40.73-6.4 81.47-12.79c8.07-1.25 16.17-2.28 24.24-3.5 1-.15 2.74 0 2.68-1.54-.02-1.21-1.57-.84-2.49-.91z" fill="#fff"/><path d="M375.69 162.79c-9-.38-18 .83-26.88 2-1.13.15-3 1.17-3.35-.53-.21-1 1.84-.88 2.88-1.23s2.75-.22 2.5-1.77-1.89-1.14-3-1.05c-2.82.24-4.75-.27-5.35-3.62-1.44-8-3.43-15.95-4.76-24-3.54-21.41-5-43-5.54-64.7-.24-9.4-.59-18.77-1.57-28.12-.11-1.09.1-2.92-1.21-2.9-1.9 0-1.2 2-1.24 3.14-.11 3.83-.06 7.66 0 11.5 0 2.19-.86 3.58-3.14 3.61s-5.42 1.15-6.19-1.61c-1.15-4.11-3.55-8.64.15-12.73 1.66-1.83.89-1.87-.93-2.19-3.33-.57-6 1.37-9 1.84-12.64 2-25.25 4.62-38.17 4-.76 0-2.29.8-2.09-1 .12-1.08 1.84-2.78-.74-2.59-1.73.13-4.14-1.93-5.43.44v.15a47.12 47.12 0 0 1 .87 6.57h.07c15 2.59 29.46-1.81 44.11-3.56 3.94-.47 5.27.28 6.08 4.49 6 30.59 6.73 61.92 13.37 92.4.43 2 .72 3.94 1.2 5.88.67 2.7 1.54 5.24-2.71 5.83-1.52.21-2.11 2.18-2.3 3.62-.63 4.93-3.83 5.75-8.11 6-22.78 1.42-45.54 3.07-68.31 4.63v.09c-4.49.33-9 .68-13.46 1a12.27 12.27 0 0 1-2.25-.26c.79-.2 1.57-.43 2.37-.58 3.27-.65 6.58-1.13 9.8-2 1.61-.41 4.44 0 4.36-2.06 0-1.17-3-.4-4.52-.17-10.22 1.49-20.45 3-30.63 4.66a336.48 336.48 0 0 1-48.57 4.76c-11 .23-22 1.91-33.06 2-4.24 0-6.45-1.3-7.07-5.6a39.17 39.17 0 0 0-2.32-8.67 8.79 8.79 0 0 1-.37-1.13c-1.07.19-2.16.3-3.25.41a9.14 9.14 0 0 1 .55 1.9c1.47 7.68 3.36 15.28 5.13 22.9a4.77 4.77 0 0 0 1.08 2c1.32-.4.65-1.58.63-2.43-.14-7.16-.16-7.16 7-7.08h4v.31h8.49c.61 0 1.5-.12 1.56.71s-.88.86-1.48 1c-3.78.63-7.57 1.2-11.35 1.8-.64.1-1.51.13-1.51.91s.93.78 1.52.75a59.11 59.11 0 0 0 9-.61c4.58-.93 6.2.81 6.69 5.26.75 6.78 2 13.51 3.28 20.22.3 1.6.38 4.47 2.56 4.16 1.95-.28 1-2.89.77-4.38-.87-7.1-1.78-14.21-3-21.26-.67-3.77.23-5.39 4.2-6 4.38-.69 4.67 1.8 4.91 4.83a19.34 19.34 0 0 0 .53 4.46c1.35 4.1-3.38 3.7-4.31 6.07 2.63.67 5.39.75 5.88 4.64.37 2.9.18 7.93 3.14 7.85 2-.06 1.16-5.58.86-8.63s.52-4.64 3.74-5.07c4.62-.61 9.19-1.57 13.79-2.34 24-4 48.3-5.76 72.46-8.54 5.49-.63 8.13-1.27 9.56-.88l3.26-.36a39.25 39.25 0 0 1 5.51-1.44.52.52 0 0 1 .52.21q30.19-5 60.38-9.92c2.67-.44 4.11.48 4.52 3.2s1 5.58 1.59 8.34a1.88 1.88 0 0 0 2.09 1.72c1.27-.16 1.52-1.23 1.48-2.24a43 43 0 0 0-.53-5c-1.22-7.39-1.24-7.44 6.37-8.48s15.21-1.87 22.8-2.94c1.81-.26 4.9.33 5-1.7.02-1.44-3.19-.82-4.91-.89zM154 177.81c-.82-.12-1.56.27-1.86-.6a5.27 5.27 0 0 1 1.39-.37 11.74 11.74 0 0 1 1.89.31zm170.8-17.92c.15-.89.11-2.37 1.48-2 .72.19 1.26 1.44 1.66 2.31.59 1.29-.51 1.26-1.17 1.4-1.26-.02-2.18-.34-1.95-1.71zm10.71 6.93c-38.79 7.38-77.94 12.29-117.13 16.95-15.19 1.8-30.25 4.81-45.36 7.28-2.81.46-5.52 1.49-6.23-3-1.38-8.76-1.37-9.24 4-10.21 22-4 44.4-4.16 66.61-6 31.85-2.64 63.82-3.63 95.62-7 .83-.09 1.66-.12 2.55-.19 1.11.26 3.16-.78 3.25.87s-2.09 1.07-3.29 1.3zm1.61-6.21c-3 .67-4.14-1-4.62-3.73-3.83-21.49-7.55-43-9.84-64.72-1-9.78-2.18-19.54-3.39-30.29-.85-2.91 1.26-3.3 4.48-3.59s4.4.47 4.41 3.86c.11 31.59 2.86 62.89 10.25 93.69.42 1.64 2.1 4.05-1.27 4.78z" fill="#fec604"/><path d="M119.83 147.64a.68.68 0 0 1-.26 0l.52-.28c-.09.11-.16.24-.26.28zM159.72 216c0 1.05-.81 1.37-1.64 1.49-1.17.16-2.56.23-2.74-1.29-.1-.89 1-1.19 1.87-1.26.98-.12 2.03-.19 2.51 1.06zM224 156.47h-10c-1.08 0-2.88.53-3-.75-.19-1.61 1.69-1.15 2.69-1.21 19.52-1 38.53-5.36 57.65-8.88 9.16-1.68 18.15-4.27 27.42-5.38a4.3 4.3 0 0 0 4-3.1 2.49 2.49 0 0 1 3.69-1.44c1.83.92.87 2.15.45 3.7-1.19 4.4-4 5.12-8 5.16-12.26.12-23.85 4.32-35.8 6.35-12.97 2.18-25.83 4.99-39.1 5.55zm-85.45 6.94c-.31 0-1.31.05-2.3 0-.78-.05-2.06.13-2-.84s1.28-.67 2-.67c10.44 0 20.13-4 30.24-5.72 6-1 12.32.16 18.18-2.14 1.31-.51 3.8.06 2.8-2.83-.44-1.27-.25-2.37 1.29-2.64 1.18-.2 2.89 0 3.13 1 .86 3.63 3.32 2.59 5.64 2.39a19.69 19.69 0 0 1 3.47.04c.83.08 1.89.33 1.95 1.23.1 1.36-1.18 1.37-2.13 1.43-15.1 1-29.67 5.85-44.9 6.1-5.63.11-10.92 3.05-17.37 2.65zM295.23 62c-4.57.56-10.32 1.47-16.11 1.86-2.25.15-6.3 1-6.43-1.73s3.82-1.38 5.94-1.64c6.27-.75 12.44-2.39 18.79-2.23 1.93 0 5.2-1.06 5.13 2.12s-3.09 1.94-5.1 1.76zm1.08 31.54l-1.88-.41c.4-.9 1.28-.95 2.06-1.1 2.41-.48 4.84-.9 7.26-1.3.65-.11 1.4 0 1.54.77s-.6 1.11-1.24 1.19c-2.44.31-4.89.54-7.74.85zm-9.38-21.86a2.7 2.7 0 0 1-3.31 1.77c-1.09-.16-1.91-.85-1.51-2s1.72-1.37 2.89-1.34a1.84 1.84 0 0 1 1.93 1.57zm9.81 58.43a2 2 0 0 1-2.46 2c-1.11-.11-2.61-.3-2.61-1.61 0-1.51 1.51-1.9 2.81-2a2 2 0 0 1 2.26 1.61zm-5.94-21.63l-.59.5a5.29 5.29 0 0 1-.36-.67s.26-.26.33-.23a3.55 3.55 0 0 1 .62.4z" fill="#fff"/></svg>