<svg xmlns="http://www.w3.org/2000/svg" viewBox="0 0 543 7.5"><path d="M60.9 6.1c-15 .5-29.9-1-44.9-2.2-4.8-.4-9.4 1.6-14.2 1.4-.7 0-1.8.5-1.8-.9 0-.1 1.1-.4 1.8-.5 9.8-1.6 19.5-1 29.3-.5 25.8 1.3 51.7 2.5 77.6-.9 2.5-.3 5.1-.5 7.7-.5 11-.1 22.1.2 33-.2 9.9-.4 19.9 1.1 29.8.7 11.3-.4 22.6-.4 33.9-.1 28.9.7 57.8 2.7 86.7 2.2 20.6-.4 41.4.7 62.1-.6 32.1-2 64.7-2.8 97.3-2.3 3.9 0 7.8-1.1 11.7-1.6 5.8-.8 11.3 1.9 17 1.9 16.8.1 33.5 1.6 50.2 2.2 1 0 1.9 0 2.9.1 1.1.1 2.4.3 2 1.9-.4 1.6-1.3 1.1-2.6.9-3.1-.5-6.4-.8-9.7-1-11.5-.6-23.1-1.6-34.6-1.4-8.4.1-16.5-3.3-24.7-2.2-22.3 3-44.6.1-66.9 1.2-19.5.9-38.9 3.2-58.4 2.1-18.2-1-36.2 1.7-54.3.9-33.5-1.4-67-2.8-100.5-3-25.2-.1-50.4-.4-75.6 0-11 .4-21.8 2-32.7 2.6-7.4.3-14.7-.1-22.1-.2z"/></svg>