<svg viewBox="0 0 173.84 109.12" xmlns="http://www.w3.org/2000/svg"><path d="M70.59 104.51A183 183 0 0 0 147.94 87a61.55 61.55 0 0 0 9.06-5.24c11.68-8.15 14.77-20.53 8.26-33.3-5.8-11.39-15.54-18.91-25.85-25.86C117.55 7.84 93 5.37 67.57 6.63 60.09 7 52.65 8 45.18 8.57c-1.6.11-4.24 1.21-4.66-1.1C40.25 6 42.86 5.41 44.42 5a129.84 129.84 0 0 1 39.51-5c27.71.55 52.36 9.1 72.89 28.1 9.48 8.78 17.07 18.73 17 32.64 0 9.69-3.77 17.43-11.48 23.26-12.2 9.23-26.46 13.87-40.88 18.06-26 7.56-52.41 9.36-79 3.77a64.7 64.7 0 0 1-35-20C-.63 77.07-2 66.9 2.74 56.65c10-21.49 26.3-35.3 50.62-38.1a27.26 27.26 0 0 1 3.49-.25c1.12 0 2.77-.27 2.95 1.09.11.82-1.56.94-2.54 1.07-20.71 2.74-36.13 13.48-47.17 31-8.7 13.78-7.24 25.06 5 35.91C26.5 97.5 40.28 102 55.16 103.53c5.84.6 11.64.75 15.43.98z" fill="#ffcd00"/></svg>