<svg xmlns="http://www.w3.org/2000/svg" viewBox="0 0 567.82 173.5"><defs><style>.cls-1{fill:#aeb3ba}.cls-1,.cls-2,.cls-4,.cls-5{fill-rule:evenodd}.cls-2{fill:#313131}.cls-3{fill:none;stroke:#fff;stroke-miterlimit:10}.cls-4{fill:#00e5b7}.cls-5,.cls-6{fill:#fff}</style></defs><title>colours-code</title><g id="Слой_2" data-name="Слой 2"><g id="Слой_1-2" data-name="Слой 1"><path class="cls-1" d="M405.31 105.5a34 34 0 1 1-34 34 34 34 0 0 1 34-34z"/><path class="cls-2" d="M405.31.5a34 34 0 1 1-34 34 34 34 0 0 1 34-34z"/><path class="cls-3" d="M405.31.5a34 34 0 1 1-34 34 34 34 0 0 1 34-34z"/><path class="cls-4" d="M34 105.5a34 34 0 1 1-34 34 34 34 0 0 1 34-34z"/><path class="cls-5" d="M34 .5a34 34 0 1 1-34 34 34 34 0 0 1 34-34z"/><path class="cls-6" d="M103.83 144.24l1.37-4.09h2.55l.26-.9h-2.53l1.59-4.69h2.49l.24-.9h-2.44l1.39-4.09h-1.06l-1.34 4.09h-2.58l1.34-4.09h-1l-1.34 4.09h-2.57l-.26.9h2.49l-1.56 4.69h-2.48l-.29.9h2.42l-1.37 4.09h1l1.39-4.09h2.6l-1.41 4.09zm.62-5h-2.55l1.56-4.69H106zm13.69 5.26c3.92 0 5.42-4.11 5.42-7.59s-1.5-7.57-5.42-7.57-5.44 4.07-5.44 7.57 1.48 7.59 5.44 7.59zm0-1.14c-3.1 0-4.12-3.43-4.12-6.45s1-6.42 4.12-6.42 4.07 3.39 4.07 6.42-1.01 6.45-4.07 6.45zm14.49 1.14c3.92 0 5.42-4.11 5.42-7.59s-1.5-7.57-5.42-7.57-5.44 4.07-5.44 7.57 1.48 7.59 5.44 7.59zm0-1.14c-3.1 0-4.12-3.43-4.12-6.45s1-6.42 4.12-6.42 4.07 3.39 4.07 6.42-1.01 6.45-4.07 6.45zm18.91.88v-1.14h-8.06v-5.81h7.91v-1.14h-7.91v-5.43h8.06v-1.14h-9.31v14.68zm8.96.26a4.67 4.67 0 0 0 5-4.73 4.48 4.48 0 0 0-4.69-4.69 5.12 5.12 0 0 0-3.5 1.36v-5.74h7.22v-1.14H156v7.7l.95.4a5 5 0 0 1 3.57-1.43 3.43 3.43 0 0 1 3.66 3.59 3.53 3.53 0 0 1-3.68 3.54 4.67 4.67 0 0 1-4.12-2.09l-.84.84a5.56 5.56 0 0 0 4.96 2.39zm15.33-.26c2.62 0 4.21-1.52 4.21-4a3.68 3.68 0 0 0-2.86-3.61 3.34 3.34 0 0 0 2.58-3.37c0-2.31-1.59-3.74-4.05-3.74h-6v14.68zm-.29-8.1h-4.62v-5.43h4.62a2.64 2.64 0 0 1 2.88 2.73 2.61 2.61 0 0 1-2.88 2.7zm.09 7h-4.71v-5.81h4.71a2.85 2.85 0 0 1 3.08 2.9 2.77 2.77 0 0 1-3.08 2.86zm10.9 1.1l6.28-13.8v-.88h-9.62v1.14h8.13l-6.17 13.53zm-82.7-105l1.37-4.09h2.55l.26-.9h-2.53l1.59-4.69h2.49l.24-.9h-2.44l1.39-4.09h-1.06l-1.34 4.09h-2.58l1.34-4.09h-1l-1.34 4.09h-2.57l-.26.9h2.49l-1.56 4.69h-2.48l-.29.9h2.42l-1.37 4.09h1l1.39-4.09h2.6l-1.41 4.09zm.62-5h-2.55l1.56-4.69H106zm10.06 5v-7h7.91v-1.1h-7.91v-5.43h8.06v-1.15h-9.31v14.68zm13.03 0v-7h7.91v-1.1h-7.91v-5.43h8.06v-1.15h-9.31v14.68zm13.04 0v-7h7.91v-1.1h-7.91v-5.43h8.06v-1.15h-9.31v14.68zm13.03 0v-7h7.91v-1.1h-7.91v-5.43h8.06v-1.15h-9.31v14.68zm13.04 0v-7h7.91v-1.1h-7.91v-5.43h8.06v-1.15h-9.31v14.68zm13.03 0v-7h7.91v-1.1h-7.91v-5.43h8.06v-1.15h-9.31v14.68zm295.44 105l1.37-4.09H479l.26-.9h-2.53l1.59-4.69h2.49l.24-.9h-2.44l1.39-4.09h-1l-1.34 4.09h-2.58l1.34-4.09h-1l-1.42 4.08h-2.53l-.26.9h2.49l-1.56 4.69h-2.47l-.29.9h2.42l-1.37 4.09h1l1.39-4.09h2.6l-1.41 4.09zm.62-5h-2.55l1.56-4.69h2.58zm20.9 5l-6-14.68h-1.56l-6 14.68h1.45l1.45-3.61h7.77l1.45 3.61zm-3.33-4.75h-6.94l3.46-8.58zm15.9 4.75v-1.14h-8.06v-5.81h7.91v-1.14h-7.91v-5.43h8.06v-1.14h-9.31v14.68zm10.37 0c2.62 0 4.21-1.52 4.21-4a3.68 3.68 0 0 0-2.86-3.61 3.34 3.34 0 0 0 2.58-3.37c0-2.31-1.59-3.74-4.05-3.74h-6v14.68zm-.29-8.1h-4.62v-5.43h4.62a2.64 2.64 0 0 1 2.88 2.73 2.61 2.61 0 0 1-2.88 2.7zm.09 7h-4.71v-5.81h4.71a2.85 2.85 0 0 1 3.08 2.9 2.77 2.77 0 0 1-3.08 2.86zm12.53 1.36c3.13 0 5-1.78 5-4.2a3.73 3.73 0 0 0-3.37-3.65 3.56 3.56 0 0 0 3.15-3.43c0-2.49-2.18-3.87-4.73-3.87a6.1 6.1 0 0 0-4.8 2.22l.79.79a5 5 0 0 1 3.94-1.87c1.89 0 3.52 1 3.52 2.84s-1.78 2.79-3.72 2.79h-1.37v1.19h1.37c2.2 0 3.94.86 3.94 3 0 1.94-1.43 3.12-3.7 3.12a4.92 4.92 0 0 1-4.12-2l-.86.75a5.8 5.8 0 0 0 4.96 2.32zm15.36-.26c2.62 0 4.21-1.52 4.21-4a3.68 3.68 0 0 0-2.86-3.61 3.34 3.34 0 0 0 2.58-3.37c0-2.31-1.59-3.74-4.05-3.74h-6v14.68zm-.29-8.1h-4.62v-5.43H547a2.64 2.64 0 0 1 2.88 2.73 2.61 2.61 0 0 1-2.88 2.7zm.09 7h-4.71v-5.81h4.71a2.85 2.85 0 0 1 3.08 2.9 2.77 2.77 0 0 1-3.07 2.86zm20.75 1.1l-6-14.68h-1.56l-6 14.68h1.45l1.45-3.61h7.77l1.45 3.61zm-3.33-4.75h-6.94l3.45-8.59zM475.12 39.24l1.37-4.09H479l.26-.9h-2.53l1.59-4.69h2.49l.24-.9h-2.44l1.39-4.1h-1l-1.34 4.09h-2.58l1.34-4.09h-1L474 28.65h-2.53l-.26.9h2.49l-1.56 4.69h-2.47l-.29.9h2.42l-1.37 4.09h1l1.39-4.09h2.6l-1.41 4.09zm.62-5h-2.55l1.56-4.69h2.58zm12.68 5.26c3.13 0 5-1.78 5-4.2a3.73 3.73 0 0 0-3.42-3.65 3.56 3.56 0 0 0 3.15-3.43c0-2.49-2.18-3.87-4.73-3.87a6.1 6.1 0 0 0-4.8 2.22l.79.79a5 5 0 0 1 3.94-1.87c1.89 0 3.52 1 3.52 2.84s-1.78 2.79-3.72 2.79h-1.37v1.19h1.37c2.2 0 3.94.86 3.94 3 0 1.94-1.43 3.12-3.7 3.12a4.92 4.92 0 0 1-4.12-2l-.86.75a5.8 5.8 0 0 0 5.01 2.32zm12.33-.26V24.56h-1.15L496.37 28l.77.81 2.36-2.51v13zm8.63.26c3.13 0 5-1.78 5-4.2a3.73 3.73 0 0 0-3.38-3.65 3.56 3.56 0 0 0 3.15-3.43c0-2.49-2.18-3.87-4.73-3.87a6.1 6.1 0 0 0-4.8 2.22l.79.79a5 5 0 0 1 3.94-1.87c1.89 0 3.52 1 3.52 2.84s-1.78 2.79-3.72 2.79h-1.37v1.19h1.37c2.2 0 3.94.86 3.94 3 0 1.94-1.43 3.12-3.7 3.12a4.92 4.92 0 0 1-4.12-2l-.86.75a5.8 5.8 0 0 0 4.97 2.32zm12.33-.26V24.56h-1.14L517.33 28l.77.81 2.36-2.51v13zm8.63.26c3.13 0 5-1.78 5-4.2a3.73 3.73 0 0 0-3.37-3.65 3.56 3.56 0 0 0 3.15-3.43c0-2.49-2.18-3.87-4.73-3.87a6.1 6.1 0 0 0-4.8 2.22l.79.79a5 5 0 0 1 3.94-1.87c1.89 0 3.52 1 3.52 2.84s-1.78 2.79-3.72 2.79h-1.37v1.19h1.37c2.2 0 3.94.86 3.94 3 0 1.94-1.43 3.12-3.7 3.12a4.92 4.92 0 0 1-4.12-2l-.86.75a5.8 5.8 0 0 0 4.96 2.32zm12.33-.26V24.56h-1.14L538.29 28l.77.81 2.36-2.51v13z"/></g></g></svg>