<svg xmlns="http://www.w3.org/2000/svg" width="468.159" height="71.19" viewBox="0 0 468.159 71.19"><defs><style>.cls-1{fill:#313131;fill-rule:evenodd}</style></defs><path id="Gotham_pro" data-name="Gotham pro" class="cls-1" d="M755 9394.36a33.938 33.938 0 0 0 22.481-8.56v-22.32h-23.118v5.68H771.4v13.92a26.37 26.37 0 0 1-16.16 5.6c-13.6 0-22.16-9.92-22.16-23.28 0-12.64 8.88-23.12 21.28-23.12a23.823 23.823 0 0 1 17.04 6.4l4.081-4.8c-5.6-4.72-11.441-7.44-20.881-7.44-16.8 0-28.081 13.6-28.081 28.96.003 16.16 10.881 28.96 28.481 28.96zm54.56 0a21.6 21.6 0 1 0-21.441-21.6 21.225 21.225 0 0 0 21.444 21.6zm.16-5.52c-8.721 0-15.281-7.2-15.281-16.08s6.16-16.16 15.121-16.16c8.72 0 15.36 7.28 15.36 16.16s-6.237 16.08-15.197 16.08zm46.479 5.28a15.493 15.493 0 0 0 7.44-1.76v-5.28a12.953 12.953 0 0 1-6 1.44c-4.16 0-6.96-1.84-6.96-6.88v-24.16H863.8v-5.44h-13.12v-12.48h-6.16v12.48h-5.76v5.44h5.76v24.96c.002 8.4 5.042 11.68 11.68 11.68zm18.479-.72h6.16v-23.68c0-7.76 5.28-12.96 12.4-12.96 7.28 0 11.44 4.8 11.44 12.48v24.16h6.16v-25.68c0-9.84-5.84-16.56-15.84-16.56a15.663 15.663 0 0 0-14.161 8.08V9335h-6.16v58.4zm61.6.88a18.136 18.136 0 0 0 14.881-7.04v6.16h6.08v-25.28c0-5.28-1.44-9.28-4.32-12.16-2.96-2.96-7.521-4.56-13.361-4.56a33.9 33.9 0 0 0-15.04 3.52l1.84 5.04a28.772 28.772 0 0 1 12.56-2.96c7.76 0 12.241 3.84 12.241 11.2v1.28a43.34 43.34 0 0 0-12.641-1.76c-10.48 0-17.68 4.64-17.68 13.52.003 8.64 7.683 13.04 15.443 13.04zm1.2-4.96c-5.6 0-10.4-3.04-10.4-8.24 0-5.12 4.4-8.48 12.08-8.48a42.53 42.53 0 0 1 12.081 1.76v3.84c.003 6.56-6.158 11.12-13.758 11.12zm32.8 4.08h6.16v-23.6c0-7.6 4.96-13.04 11.52-13.04s10.64 4.56 10.64 12.32v24.32h6.079v-23.84c0-8.16 5.2-12.8 11.44-12.8 6.72 0 10.72 4.48 10.72 12.48v24.16H1033v-25.6c0-10.24-5.84-16.64-15.36-16.64-7.2 0-11.6 3.68-14.56 8.24a14.049 14.049 0 0 0-13.279-8.24c-6.96 0-10.64 3.76-13.36 7.84v-6.96h-6.16v41.36zm100.079 12.8h6.16v-20.72c3.2 4.64 8.16 8.8 15.84 8.8 10 0 19.76-8 19.76-21.52 0-13.76-9.84-21.6-19.76-21.6-7.6 0-12.48 4.24-15.84 9.2v-8.32h-6.16v54.16zm20.88-17.44c-7.68 0-14.96-6.4-14.96-16s7.28-16.08 14.96-16.08c7.84 0 14.56 6.24 14.56 16 .003 10.16-6.557 16.08-14.557 16.08zm32.24 4.64h6.16v-16.48c0-12.48 7.36-18.96 16.4-18.96h.48v-6.64c-7.84-.32-13.84 4.64-16.88 11.52v-10.8h-6.16v41.36zm49.52.96a21.6 21.6 0 1 0-21.44-21.6 21.225 21.225 0 0 0 21.443 21.6zm.16-5.52c-8.72 0-15.28-7.2-15.28-16.08s6.16-16.16 15.12-16.16c8.72 0 15.36 7.28 15.36 16.16s-6.237 16.08-15.197 16.08z" transform="translate(-726.531 -9335)"/></svg>