<svg xmlns="http://www.w3.org/2000/svg" viewBox="0 0 298.45 42.57"><defs><style>.cls-1,.cls-2{fill:#00e5b9}.cls-1{fill-rule:evenodd}.cls-3{fill:#fff}</style></defs><title>logistic-line-logo-white</title><g id="Слой_2" data-name="Слой 2"><g id="Слой_1-2" data-name="Слой 1"><path class="cls-1" d="M3.88 17.41A3.88 3.88 0 1 1 0 21.29a3.88 3.88 0 0 1 3.88-3.88zm13.57-1.94a5.82 5.82 0 1 1-5.82 5.82 5.82 5.82 0 0 1 5.82-5.82zm19.47-4.04a9.69 9.69 0 1 1-9.69 9.69 9.69 9.69 0 0 1 9.69-9.69z"/><path class="cls-2" d="M46.57 42.57a3.88 3.88 0 0 1-2-7.2L68 21.29 44.58 7.2a3.88 3.88 0 0 1 4-6.65L77.56 18a3.88 3.88 0 0 1 0 6.65L48.57 42a3.86 3.86 0 0 1-2 .57z"/><path class="cls-3" d="M91.45 28.63a1 1 0 0 0 .71.28h13.29a1 1 0 0 0 .71-.29 1 1 0 0 0 .29-.71v-1.76a1 1 0 0 0-.29-.72 1 1 0 0 0-.71-.3H95V14.6a1 1 0 0 0-.29-.74 1 1 0 0 0-.71-.3h-1.84a1 1 0 0 0-.71.3 1 1 0 0 0-.3.74v13.32a.93.93 0 0 0 .3.71zm26.35.61c2.8 0 5.07-.64 6.52-1.92s2.17-3.31 2.17-6.08-.72-4.81-2.17-6.08-3.72-1.92-6.52-1.92-5.08.64-6.53 1.92-2.18 3.31-2.18 6.08.73 4.81 2.18 6.08 3.73 1.92 6.53 1.92zm0-12.52a4.62 4.62 0 0 1 3.61 1.28 4.23 4.23 0 0 1 1.07 3.24 4.21 4.21 0 0 1-1.07 3.23 5.76 5.76 0 0 1-7.24 0 4.19 4.19 0 0 1-1.08-3.23 4.21 4.21 0 0 1 1.08-3.24 4.63 4.63 0 0 1 3.63-1.28zm13.51 10.36a7.26 7.26 0 0 0 5.41 1.92H139a7.6 7.6 0 0 0 5.24-1.61 6.22 6.22 0 0 0 1.76-4.76v-1.34a1 1 0 0 0-.29-.71 1 1 0 0 0-.71-.29h-5.33a1 1 0 0 0-.71.3 1 1 0 0 0-.29.72v1a1 1 0 0 0 .29.72 1 1 0 0 0 .71.3h2.4a1.79 1.79 0 0 1-.75 1.55 3.68 3.68 0 0 1-2.45.64h-2a3.07 3.07 0 0 1-2.66-1 5 5 0 0 1-.74-3.25c0-1.82.28-2.61.83-3.29s1.6-1 3.16-1h1.74q2.14 0 2.7 1.09c.35.67.83.56 1.43.56h1.26a1.23 1.23 0 0 0 .72-.27 1 1 0 0 0 .37-.9 3.28 3.28 0 0 0-1.89-2.82 8.08 8.08 0 0 0-4.23-1.13h-2.26q-3.94 0-5.91 1.9t-2 5.87q.03 3.89 1.92 5.8zM151 28.63a1 1 0 0 0 .71.28h2a1 1 0 0 0 .72-.29 1 1 0 0 0 .3-.71V14.58a1 1 0 0 0-.29-.72 1 1 0 0 0-.73-.3h-2a1 1 0 0 0-.71.3 1 1 0 0 0-.3.72v13.34a.93.93 0 0 0 .3.71zm10-.83a7.1 7.1 0 0 0 3.93 1.13l3.22.06q3.7 0 5.22-1.16a3.92 3.92 0 0 0 1.52-3.31 3.38 3.38 0 0 0-1.18-2.63 6.92 6.92 0 0 0-2.89-1.51l-3.35-.89-2.87-.76c-.81-.22-1.22-.4-1.22-.85 0-.82.62-1.08 1.87-1.08l3.35.06c1.16 0 2.06.22 2.41.94a1.22 1.22 0 0 0 1.29.87h1.41a1.2 1.2 0 0 0 .71-.28 1.06 1.06 0 0 0 .37-.91 3.3 3.3 0 0 0-1.79-2.81 7.58 7.58 0 0 0-4-1.13l-2.85-.06q-3.71 0-5.23 1.16a3.92 3.92 0 0 0-1.56 3.36 3.23 3.23 0 0 0 .62 2 4.26 4.26 0 0 0 1.62 1.32 11.46 11.46 0 0 0 2.24.78l2.48.61 2.26.55a5.77 5.77 0 0 1 1.66.64c.42.26.63.42.63.78 0 .82-.62 1.08-1.87 1.08l-3.72-.07c-1.16 0-1.92-.22-2.26-.94a1.22 1.22 0 0 0-1.29-.86h-1.41a1.23 1.23 0 0 0-.72.27 1 1 0 0 0-.37.9A3.3 3.3 0 0 0 161 27.8zm16.94-11.2a1 1 0 0 0 .72.28h4.74v11a.94.94 0 0 0 .29.7 1 1 0 0 0 .71.28h2a1 1 0 0 0 .71-.28.94.94 0 0 0 .29-.7v-11h4.74a1 1 0 0 0 .72-.28 1 1 0 0 0 .29-.72v-1.3a1 1 0 0 0-.29-.73 1 1 0 0 0-.72-.29h-13.47a1 1 0 0 0-.72.29 1 1 0 0 0-.29.73v1.3a1 1 0 0 0 .28.72zm19.18 12.03a1 1 0 0 0 .71.28h2a1 1 0 0 0 .72-.29 1 1 0 0 0 .3-.71V14.58a1 1 0 0 0-.29-.72 1 1 0 0 0-.73-.3h-2a1 1 0 0 0-.71.3 1 1 0 0 0-.3.72v13.34a.93.93 0 0 0 .3.71zm16.13.37h2.59a7.38 7.38 0 0 0 4.26-1.26 4 4 0 0 0 1.85-3.46 1.15 1.15 0 0 0-.23-.73 1.08 1.08 0 0 0-.45-.37 1.19 1.19 0 0 0-.41-.08h-1.41a1.69 1.69 0 0 0-1.53 1.18c-.52 1.13-1.38 1.24-2.6 1.24h-2.12c-1.55 0-2.45-.34-3-1s-.83-1.47-.83-3.28.28-2.6.83-3.27 1.46-1 3-1h1.89c1.22 0 2.09 0 2.61 1.1a1.45 1.45 0 0 0 1.57.88h1.45a1.29 1.29 0 0 0 .75-.27c.26-.18.38-.19.38-.61a3.72 3.72 0 0 0-1.85-3.33 7.5 7.5 0 0 0-4.3-1.26h-2.39q-4 0-6 1.9t-2 5.86q0 4 2 5.86t5.91 1.9z"/><path class="cls-2" d="M236.07 28.63a1 1 0 0 0 .71.28h13.44a1 1 0 0 0 .71-.29 1 1 0 0 0 .29-.71v-1.76a1 1 0 0 0-.29-.72 1 1 0 0 0-.71-.3h-10.45V14.6a1 1 0 0 0-.29-.74 1 1 0 0 0-.71-.3h-2a1 1 0 0 0-.71.3 1 1 0 0 0-.3.74v13.32a.93.93 0 0 0 .31.71zm19.25 0a1 1 0 0 0 .71.28h2a1 1 0 0 0 .72-.29 1 1 0 0 0 .3-.71V14.58a1 1 0 0 0-.29-.72 1 1 0 0 0-.73-.3h-2a1 1 0 0 0-.71.3 1 1 0 0 0-.3.72v13.34a.93.93 0 0 0 .3.71zm8.68-.01a1 1 0 0 0 .74.29h1.93a1 1 0 0 0 .73-.29 1 1 0 0 0 .3-.71v-8.6l5.8 8.59a2.29 2.29 0 0 0 .68.71 1.49 1.49 0 0 0 .84.29h3.33a.94.94 0 0 0 .7-.29 1 1 0 0 0 .29-.71V14.58a1 1 0 0 0-.28-.73.91.91 0 0 0-.68-.29h-2.05a.91.91 0 0 0-.68.29 1 1 0 0 0-.28.71v8.92l-6-8.9a2.62 2.62 0 0 0-.69-.72 1.38 1.38 0 0 0-.79-.3h-3.19a1 1 0 0 0-.71.3 1 1 0 0 0-.29.72V27.9a1 1 0 0 0 .3.72zm19.3 0a1 1 0 0 0 .71.29h13.39a1 1 0 0 0 .71-.29 1 1 0 0 0 .3-.71v-1.78a1 1 0 0 0-.28-.71.93.93 0 0 0-.7-.29H287v-2.41h8.56a1 1 0 0 0 .71-.3 1 1 0 0 0 .29-.71v-1a1 1 0 0 0-.29-.71 1 1 0 0 0-.71-.3H287v-2.81h10.44a1 1 0 0 0 .71-.29 1 1 0 0 0 .29-.71v-1.3a1 1 0 0 0-.29-.72 1 1 0 0 0-.71-.3H284a1 1 0 0 0-.71.29 1 1 0 0 0-.3.71v13.31a1 1 0 0 0 .31.74z"/></g></g></svg>