<svg xmlns="http://www.w3.org/2000/svg" width="634.004" height="353.69" viewBox="0 0 634.004 353.69"><defs><style>.cls-1{fill:#313131;fill-rule:evenodd}</style></defs><path id="abcdefghijklmnopqrstuvwxyz_abcdefghijklmnopqrstuvwxyz_abcdefgh" data-name="abcdefghijklmnopqrstuvwxyz abcdefghijklmnopqrstuvwxyz abcdefgh" class="cls-1" d="M775.405 9497.14h2.827l1.152-2.83h5.33l1.152 2.83h2.9l-5.4-12.69h-2.557zm4.97-5.28l1.674-4.08 1.675 4.08h-3.349zm12.13 5.28h6c2.845 0 4.718-1.15 4.718-3.46a3.091 3.091 0 0 0-2.359-3.13 3.109 3.109 0 0 0 .792-4.9 4.551 4.551 0 0 0-3.3-1.12h-5.852v12.61zm2.7-7.51v-2.66h2.737c1.17 0 1.819.46 1.819 1.29 0 .97-.775 1.37-2 1.37h-2.557zm0 5.08v-2.77h3.2c1.423 0 2.053.52 2.053 1.36 0 .98-.738 1.41-1.963 1.41H795.2zm18 2.64a6.363 6.363 0 0 0 5.167-2.14l-1.764-1.89a4.554 4.554 0 0 1-3.313 1.48 3.973 3.973 0 0 1 0-7.92 4.367 4.367 0 0 1 3.241 1.4l1.656-1.91a6.574 6.574 0 1 0-4.985 10.98zm9.178-.21h4.917c3.962 0 6.7-2.76 6.7-6.3 0-3.59-2.736-6.31-6.7-6.31h-4.915v12.61zm2.773-2.5v-7.6h2.144a3.8 3.8 0 1 1 0 7.6h-2.142zm13.1 2.5h9.6v-2.47h-6.842v-2.65h5.942v-2.46h-5.942V9487h6.752v-2.47h-9.507v12.61zm13.86 0h2.773v-4.88h6.014v-2.52h-6.014v-2.68h6.824v-2.53h-9.6v12.61zm19.675.21a8.219 8.219 0 0 0 5.384-1.99v-5.48h-5.473v2.4h2.79v1.8a4.449 4.449 0 0 1-2.61.75 3.985 3.985 0 0 1-.2-7.95 4.635 4.635 0 0 1 3.295 1.27l1.747-2.1a6.9 6.9 0 0 0-4.951-1.73 6.466 6.466 0 0 0-6.608 6.52 6.311 6.311 0 0 0 6.635 6.51zm9.845-.21h2.772v-5.06h5.114v5.06h2.778v-12.61h-2.773v4.99h-5.114v-4.99h-2.772v12.61zm15.606 0h2.772v-12.61h-2.772v12.61zm10.584.18a4.518 4.518 0 0 0 3.277-1.17 4.578 4.578 0 0 0 1.189-3.37v-8.25h-2.845v8.13c0 1.45-.648 2.08-1.693 2.08a3.082 3.082 0 0 1-2.3-1.26l-1.747 1.95a5.171 5.171 0 0 0 4.124 1.89zm9.089-.18h2.773v-3.85l1.459-1.52 3.907 5.37h3.331l-5.366-7.26 5.132-5.35h-3.349l-5.114 5.52v-5.52h-2.768v12.61zm14.94 0h9.057v-2.52h-6.284v-10.09h-2.768v12.61zm12.942 0h2.719v-8.18l3.511 5.33h.073l3.547-5.38v8.23h2.755v-12.61h-2.989l-3.313 5.33-3.313-5.33H944.8v12.61zm17.424 0h2.737v-8.01l6.1 8.01h2.358v-12.61h-2.736v7.77l-5.906-7.77h-2.557v12.61zm22.142.21a6.518 6.518 0 1 0-6.68-6.51 6.513 6.513 0 0 0 6.685 6.51zm.036-2.55a3.828 3.828 0 0 1-3.817-3.96 3.776 3.776 0 0 1 3.781-3.96 3.829 3.829 0 0 1 3.817 3.96 3.782 3.782 0 0 1-3.78 3.96zm10.942 2.34h2.773v-3.78h2.111c2.82 0 5.09-1.51 5.09-4.43 0-2.61-1.82-4.4-4.82-4.4h-5.154v12.61zm2.773-6.25v-3.85h2.141c1.39 0 2.25.66 2.25 1.91a1.955 1.955 0 0 1-2.19 1.94h-2.2zm22.3 6.63l1.77-1.96-1.3-1.1a6.5 6.5 0 0 0-5.56-10.14 6.518 6.518 0 1 0-.04 13.03 6.842 6.842 0 0 0 3.75-1.08zm-5.09-2.72a3.826 3.826 0 0 1-3.82-3.96 3.777 3.777 0 0 1 3.78-3.96 3.833 3.833 0 0 1 3.82 3.96 4.285 4.285 0 0 1-.34 1.76l-2.07-1.87-1.77 1.98 2.05 1.75a4.117 4.117 0 0 1-1.644.34zm10.94 2.34h2.77v-4.03h2.15l2.73 4.03h3.24l-3.08-4.5a3.917 3.917 0 0 0 2.7-3.91 3.98 3.98 0 0 0-1.08-2.92 5.041 5.041 0 0 0-3.67-1.28h-5.76v12.61zm2.77-6.48v-3.62h2.76c1.35 0 2.18.61 2.18 1.8a1.841 1.841 0 0 1-2.13 1.82h-2.81zm16.53 6.66c2.72 0 4.62-1.4 4.62-3.91 0-2.23-1.44-3.15-3.99-3.82-2.18-.55-2.72-.82-2.72-1.65 0-.65.56-1.14 1.62-1.14a5.909 5.909 0 0 1 3.28 1.25l1.44-2.09a7.294 7.294 0 0 0-4.69-1.6c-2.57 0-4.41 1.51-4.41 3.79 0 2.54 1.64 3.24 4.18 3.89 2.11.54 2.54.9 2.54 1.61 0 .77-.68 1.22-1.82 1.22a5.747 5.747 0 0 1-3.76-1.53l-1.64 1.96a8.025 8.025 0 0 0 5.356 2.02zm11.5-.18h2.77v-10.05h3.84v-2.56h-10.45v2.56h3.84v10.05zm15.78.2c3.39 0 5.53-1.88 5.53-5.69v-7.12h-2.77v7.22c0 2-1.03 3.03-2.72 3.03s-2.72-1.06-2.72-3.11v-7.14h-2.77v7.21c.006 3.71 2.076 5.6 5.456 5.6zm14.17-.11h2.45l5.09-12.7h-2.98l-3.3 8.88-3.29-8.88h-3.06zm14.44 0h2.41l2.84-8.25 2.85 8.25h2.41l4.3-12.7h-2.89l-2.61 8.54-2.83-8.57h-2.38l-2.83 8.57-2.61-8.54h-2.97zm17.44-.09h3.15l2.84-4.32 2.83 4.32h3.24l-4.39-6.45 4.21-6.16h-3.15l-2.67 4.09-2.64-4.09h-3.24l4.21 6.2zm18.93 0h2.78v-5.02l4.84-7.59h-3.15l-3.06 5.06-3.01-5.06h-3.24l4.84 7.64v4.97zm10.59 0h10.49v-2.43h-6.93l6.93-8.07v-2.11h-10.28v2.44h6.72l-6.93 8.06v2.11zm-498.258 48h1.62l2.67-5.88h12.389l2.67 5.88h1.71l-9.78-21.15h-1.5zm4.95-7.29l5.549-12.15 5.52 12.15h-11.063zm23.55 7.29h9.119c4.53 0 7.53-2.22 7.53-5.73 0-2.97-2.22-4.41-4.74-5.07a5.189 5.189 0 0 0 3.57-4.98c0-3.18-2.7-5.22-6.81-5.22h-8.669v21zm1.56-1.44v-8.43h7.109c4.14 0 6.39 1.5 6.39 4.08 0 2.7-2.28 4.35-5.88 4.35h-7.619zm0-9.87v-8.25h7.084c3.36 0 5.25 1.56 5.25 3.87 0 2.85-2.25 4.38-5.4 4.38h-6.929zm32.609 11.67a11.075 11.075 0 0 0 8.34-3.66l-1.05-1.02c-2.13 2.1-4.2 3.27-7.23 3.27-5.01 0-8.88-4.14-8.88-9.45 0-5.34 3.81-9.45 8.85-9.45a9.63 9.63 0 0 1 7.079 3.09l1.021-1.05c-2.16-1.98-4.32-3.45-8.07-3.45a10.555 10.555 0 0 0-10.5 10.86c.006 6.09 4.446 10.86 10.446 10.86zm15.63-.36h6.99c6.6 0 11.159-4.59 11.159-10.5 0-5.97-4.56-10.5-11.159-10.5h-6.99v21zm1.56-1.44v-18.12h5.43c5.849 0 9.539 4.08 9.539 9.06 0 5.07-3.69 9.06-9.539 9.06h-5.43zm24.9 1.44h15.095v-1.44h-13.529v-8.43h12.029v-1.44h-12.029v-8.25h13.379v-1.44h-14.939v21zm23.1 0h1.56v-9.51h11.885v-1.44h-11.879v-8.61h13.229v-1.44h-14.789v21zm31.709.36a12.629 12.629 0 0 0 8.25-3.15v-8.1h-8.519v1.44h7.019v6.03a10.784 10.784 0 0 1-6.69 2.4c-5.609 0-9-4.05-9-9.48 0-5.13 3.57-9.45 8.67-9.45a9.457 9.457 0 0 1 6.749 2.52l1.02-1.17a11.008 11.008 0 0 0-7.68-2.76c-6.269 0-10.379 5.19-10.379 10.86.007 5.97 3.936 10.86 10.566 10.86zm16.891-.36h1.56v-9.84h13.445v9.84h1.56v-21h-1.56v9.72h-13.439v-9.72h-1.56v21zm26.01 0h1.56v-21h-1.56v21zm15.359.3a5.93 5.93 0 0 0 4.29-1.68 7.55 7.55 0 0 0 1.92-5.46v-14.16h-1.56v14.28c0 3.66-1.98 5.61-4.56 5.61-2.46 0-3.87-1.14-5.16-3.33l-1.29.81a6.908 6.908 0 0 0 6.366 3.93zm15.12-.3h1.56v-5.34l5.22-5.28 8.639 10.62h2.04L891 9533.41l9.179-9.27h-2.13l-13.379 13.8v-13.8h-1.56v21zm24.45 0h13.889v-1.44H909.12v-19.56h-1.56v21zm21.57 0h1.5v-18.24l8.309 12.09h.12l8.31-12.09v18.24h1.56v-21h-1.47l-8.43 12.42-8.429-12.42h-1.47v21zm29.04 0h1.5v-18.66l14.79 18.66h1.17v-21h-1.5v18.27l-14.49-18.27h-1.464v21zm36.3.36a10.569 10.569 0 0 0 10.591-10.86c0-5.79-4.17-10.86-10.531-10.86a10.568 10.568 0 0 0-10.59 10.86c.005 5.79 4.175 10.86 10.535 10.86zm.06-1.41c-5.19 0-8.97-4.26-8.97-9.45 0-5.25 3.72-9.45 8.91-9.45s8.971 4.26 8.971 9.45c.005 5.25-3.716 9.45-8.906 9.45zm18.841 1.05h1.56v-7.83h5.67c4.38 0 8.19-2.28 8.19-6.69 0-4.11-3.18-6.48-7.8-6.48h-7.62v21zm1.56-9.27v-10.29h5.94c3.78 0 6.36 1.74 6.36 5.07 0 3.18-2.64 5.22-6.54 5.22h-5.76zm40.8 9.9l1.11-1.2-3-2.52a11.1 11.1 0 0 0 2.76-7.41c0-5.79-4.17-10.86-10.53-10.86a10.568 10.568 0 0 0-10.59 10.86c0 5.79 4.17 10.86 10.53 10.86a10.308 10.308 0 0 0 6.78-2.4zm-9.66-1.68c-5.19 0-8.97-4.26-8.97-9.45 0-5.25 3.72-9.45 8.91-9.45s8.97 4.26 8.97 9.45a9.8 9.8 0 0 1-2.28 6.42l-4.02-3.66-1.11 1.23 4.08 3.48a8.6 8.6 0 0 1-5.575 1.98zm18.84 1.05h1.56v-8.7h6.87l6.69 8.7h1.98l-6.93-8.97c3.54-.48 6.15-2.49 6.15-6a5.575 5.575 0 0 0-1.59-3.96 8.272 8.272 0 0 0-5.91-2.07h-8.82v21zm1.56-10.11v-9.45h7.17c3.81 0 6.03 1.77 6.03 4.59 0 3.09-2.61 4.86-6.12 4.86h-7.08zm30.24 10.41c4.05 0 6.96-2.34 6.96-5.73 0-3.12-2.04-4.86-6.9-5.85-4.98-1.02-6.12-2.37-6.12-4.59 0-2.25 2.04-4.02 5.13-4.02a9.039 9.039 0 0 1 6.27 2.37l.99-1.23a10.468 10.468 0 0 0-7.2-2.55c-3.9 0-6.75 2.4-6.75 5.52 0 3.24 2.04 4.95 7.08 5.97 4.77.96 5.94 2.25 5.94 4.47 0 2.46-2.16 4.23-5.31 4.23a10.2 10.2 0 0 1-7.53-3.12l-1.02 1.17a11.953 11.953 0 0 0 8.465 3.36zm20.46-.3h1.56v-19.56h7.32v-1.44h-16.2v1.44h7.32v19.56zm24.9.33c5.1 0 8.61-3.21 8.61-9.24v-12.09h-1.56v12.27c0 5.07-2.73 7.65-6.99 7.65-4.44 0-7.11-2.85-7.11-7.8v-12.12h-1.56v12.27c.005 5.88 3.575 9.06 8.615 9.06zm24.96-.18h1.38l9.24-21.15H1176l-8.25 19.32-8.22-19.32h-1.74zm23.76 0h1.26l6.15-18.24 6.15 18.24h1.26l7.62-21.15h-1.62l-6.6 18.69-6.15-18.75h-1.2l-6.15 18.75-6.6-18.69h-1.74zm28.02-.15h1.83l7.44-9.69 7.47 9.69h1.86l-8.34-10.74 8.04-10.26h-1.83l-7.14 9.24-7.17-9.24h-1.86l8.07 10.29zm32.49 0h1.56v-8.34l9-12.66H1260l-7.89 11.28-7.86-11.28h-1.95l9 12.69v8.31zm16.26 0h16.59v-1.41h-14.37l14.37-18.72v-.87h-16.08v1.41h13.86l-14.37 18.72v.87zm-453.48 96.18a3.737 3.737 0 0 0 2.925-1.22v1.04h2.646v-5.6a4.2 4.2 0 0 0-1.044-3.08 4.472 4.472 0 0 0-3.259-1.08 8.635 8.635 0 0 0-3.745.77l.684 2.09a7.185 7.185 0 0 1 2.665-.52c1.368 0 2.071.63 2.071 1.77v.16a6.72 6.72 0 0 0-2.359-.4c-2.287 0-3.889.97-3.889 3.08-.003 1.94 1.491 2.99 3.31 2.99zm.828-1.89a1.271 1.271 0 0 1-1.494-1.17c0-.9.72-1.37 1.89-1.37a4.184 4.184 0 0 1 1.747.36v.49c.005.99-.86 1.69-2.138 1.69zm14.635 1.89c2.286 0 4.393-1.77 4.393-4.99 0-3.26-2.143-5.02-4.393-5.02a3.563 3.563 0 0 0-3.007 1.56V9628H823.8v13.14h2.737v-1.26a3.717 3.717 0 0 0 3.006 1.44zm-.7-2.32a2.708 2.708 0 1 1 2.359-2.7 2.454 2.454 0 0 1-2.357 2.7zm13.464 2.36a4.851 4.851 0 0 0 3.943-1.77l-1.6-1.62a3.062 3.062 0 0 1-2.215 1.03 2.681 2.681 0 0 1-.108-5.33 2.942 2.942 0 0 1 2.251.95l1.6-1.62a4.74 4.74 0 0 0-3.835-1.69 5.025 5.025 0 1 0-.038 10.05zm11.3-.04a3.548 3.548 0 0 0 3.007-1.57v1.39h2.737V9628h-2.737v4.75a3.718 3.718 0 0 0-3.007-1.44c-2.287 0-4.393 1.76-4.393 4.99.006 3.25 2.148 5.02 4.399 5.02zm.7-2.32a2.71 2.71 0 1 1 2.341-2.7 2.468 2.468 0 0 1-2.333 2.7zm13.86 2.36a4.823 4.823 0 0 0 3.943-1.81l-1.566-1.38a3.173 3.173 0 0 1-2.341.99 2.24 2.24 0 0 1-2.359-1.89h6.716c.018-.25.036-.51.036-.72 0-2.74-1.476-5.24-4.7-5.24a5.028 5.028 0 0 0 .279 10.05zm-2.359-5.8a2.143 2.143 0 0 1 2.089-2.05 2.063 2.063 0 0 1 2.034 2.05h-4.123zm11.087 5.58h2.737v-7.31h2.179v-2.23H879.6v-.38a.907.907 0 0 1 .991-1.05 3.342 3.342 0 0 1 1.242.24v-2.27a6.115 6.115 0 0 0-1.945-.27 2.977 2.977 0 0 0-2.214.76 3.165 3.165 0 0 0-.775 2.34v.61h-1.134v2.25h1.135v7.31zm12.35 2.92a5.658 5.658 0 0 0 4.159-1.3 5.178 5.178 0 0 0 1.224-3.8v-7.47h-2.737v1.26a3.907 3.907 0 0 0-3.115-1.44 4.526 4.526 0 0 0 0 9.04 3.783 3.783 0 0 0 3.151-1.57v.47c0 1.73-.882 2.63-2.755 2.63a6.372 6.372 0 0 1-3.258-.88l-.937 2.05a9.139 9.139 0 0 0 4.276 1.01zm.324-5.98a2.252 2.252 0 1 1 0-4.5 2.252 2.252 0 1 1 .008 4.5zm9.3 3.06h2.737v-5.38a1.684 1.684 0 0 1 1.71-1.97c1.045 0 1.657.67 1.657 1.97v5.38h2.737v-6.25c0-2.21-1.207-3.58-3.277-3.58a3.415 3.415 0 0 0-2.827 1.55V9628h-2.737v13.14zm13.068-10.71h2.881V9628h-2.881v2.43zm.072 10.71h2.737v-9.65h-2.737v9.65zm7.164-10.71h2.88V9628h-2.88v2.43zm-.289 13.64c2.017 0 3.1-.97 3.1-3.09v-9.49h-2.736v9.27a.934.934 0 0 1-.973 1.12 2.953 2.953 0 0 1-.576-.06v2.15a5.88 5.88 0 0 0 1.197.1zm7.47-2.93h2.751v-2.94l.954-1.01 2.521 3.95h3.133l-3.8-5.85 3.673-3.8H932.3l-3.2 3.51v-7h-2.737v13.14zm12.582 0h2.737V9628h-2.737v13.14zm7.11 0h2.737v-5.38c0-1.3.63-1.97 1.656-1.97s1.6.67 1.6 1.97v5.38h2.737v-5.38c0-1.3.63-1.97 1.656-1.97s1.6.67 1.6 1.97v5.38h2.736v-6.28c0-2.33-1.224-3.55-3.259-3.55a3.976 3.976 0 0 0-3.169 1.53 2.89 2.89 0 0 0-2.718-1.53 3.449 3.449 0 0 0-2.845 1.55v-1.37h-2.737v9.65zm18.9 0h2.737v-5.38a1.684 1.684 0 0 1 1.71-1.97c1.045 0 1.657.67 1.657 1.97v5.38h2.737v-6.25c0-2.21-1.207-3.58-3.277-3.58a3.415 3.415 0 0 0-2.827 1.55v-1.37h-2.737v9.65zm17.749.22a5.073 5.073 0 0 0 5.24-5.03 5.225 5.225 0 1 0-5.23 5.03zm.036-2.36a2.571 2.571 0 0 1-2.539-2.67 2.478 2.478 0 0 1 2.5-2.66 2.561 2.561 0 0 1 2.539 2.66 2.486 2.486 0 0 1-2.488 2.67zm8.98 5.02h2.737v-4.14a3.718 3.718 0 0 0 3.007 1.44c2.287 0 4.4-1.77 4.4-4.99 0-3.26-2.147-5.02-4.4-5.02a3.564 3.564 0 0 0-3.007 1.56v-1.38h-2.737v12.53zm5.042-5.02a2.708 2.708 0 1 1 2.359-2.7 2.454 2.454 0 0 1-2.347 2.7zm15.88 5.02h2.73v-12.53h-2.73v1.26a3.725 3.725 0 0 0-3.01-1.44c-2.29 0-4.39 1.76-4.39 4.99 0 3.25 2.14 5.02 4.39 5.02a3.561 3.561 0 0 0 3.01-1.57v4.27zm-2.31-5.02a2.71 2.71 0 1 1 2.34-2.7 2.467 2.467 0 0 1-2.328 2.7zm9.29 2.14h2.73v-3.57c0-2.3 1.12-3.4 2.94-3.4h.14v-2.86a2.985 2.985 0 0 0-3.08 2.12v-1.94h-2.73v9.65zm12.71.18c2.09 0 3.69-.97 3.69-3.12 0-1.8-1.57-2.44-2.92-2.9-1.04-.36-1.96-.61-1.96-1.15a.818.818 0 0 1 1.01-.7 5.722 5.722 0 0 1 2.61.9l1.04-1.89a6.673 6.673 0 0 0-3.6-1.12c-1.94 0-3.53 1.1-3.53 3.06 0 1.91 1.53 2.54 2.88 2.94 1.07.32 2 .52 2 1.12 0 .46-.36.75-1.15.75a5.406 5.406 0 0 1-3.04-1.15l-1.17 1.8a6.732 6.732 0 0 0 4.152 1.46zm10.53-.02a3.968 3.968 0 0 0 2.16-.56v-2.19a2.874 2.874 0 0 1-1.35.34.8.8 0 0 1-.89-.94v-4.12h2.27v-2.34h-2.27v-2.47h-2.73v2.47h-1.15v2.34h1.15v4.57c.012 2.23 1.142 2.9 2.822 2.9zm9.21.02a3.417 3.417 0 0 0 2.83-1.55v1.37h2.74v-9.65h-2.74v5.38a1.686 1.686 0 0 1-1.71 1.97c-1.05 0-1.66-.67-1.66-1.97v-5.38h-2.73v6.25c.012 2.21 1.212 3.58 3.282 3.58zm12.75-.11h2.48l3.8-9.72h-2.84l-2.18 6.46-2.16-6.46h-2.9zm11.57 0h2.45l1.89-5.92 1.85 5.92h2.47l3.01-9.72h-2.72l-1.59 5.87-1.83-5.91h-2.36l-1.82 5.89-1.55-5.85h-2.77zm14.13-.07h2.86l1.95-3.01 1.94 3.01h2.94l-3.41-4.95 3.26-4.7h-2.86l-1.82 2.81-1.8-2.81h-2.93l3.25 4.75zm15.25 2.93c1.63 0 2.43-.73 3.17-2.7l3.7-9.88h-2.84l-2.11 6.57-2.19-6.57h-2.9l3.78 9.68a.919.919 0 0 1-.96.63 2.541 2.541 0 0 1-1.17-.37l-.91 1.98a4.558 4.558 0 0 0 2.442.66zm9.88-2.93h8.39v-2.22h-5.01l5.01-5.51v-1.92h-8.23v2.21h4.82l-4.98 5.51v1.93zm-395.921 48.36a6.959 6.959 0 0 0 5.85-2.91v2.55h1.44v-9.54a5.809 5.809 0 0 0-1.56-4.32 6.61 6.61 0 0 0-4.83-1.68 12.294 12.294 0 0 0-5.43 1.32l.54 1.29a10.251 10.251 0 0 1 4.8-1.23c3.15 0 5.04 1.59 5.04 4.68v.66a18.408 18.408 0 0 0-5.07-.66c-3.96 0-6.69 1.8-6.69 4.98 0 3.24 3.06 4.86 5.91 4.86zm.09-1.38c-2.34 0-4.44-1.29-4.44-3.51 0-2.19 1.8-3.63 5.04-3.63a20.283 20.283 0 0 1 5.19.69v1.74c.003 2.79-2.67 4.71-5.79 4.71zm23.25 1.38a8.032 8.032 0 0 0 0-16.02 7.388 7.388 0 0 0-6.3 3.78v-10.02h-1.47v21.9h1.47v-3.3a7.359 7.359 0 0 0 6.3 3.66zm-.15-1.41a6.61 6.61 0 0 1 0-13.2c3.209 0 6 2.58 6 6.6-.001 4.17-2.671 6.6-6 6.6zm21.929 1.41a7.878 7.878 0 0 0 6.24-3.03l-1.08-.96a6.771 6.771 0 0 1-5.07 2.61 6.643 6.643 0 0 1-.12-13.26 6.9 6.9 0 0 1 5.1 2.52l1.02-1.05a7.744 7.744 0 0 0-6.09-2.85 8.013 8.013 0 0 0 0 16.02zm19.53 0a7.388 7.388 0 0 0 6.3-3.78v3.42h1.47v-21.9h-1.47v9.9a7.359 7.359 0 0 0-6.3-3.66 8.032 8.032 0 0 0 0 16.02zm.15-1.41c-3.209 0-6-2.58-6-6.6 0-4.17 2.67-6.6 6-6.6a6.61 6.61 0 0 1 0 13.2zm22.65 1.41a8.043 8.043 0 0 0 6.33-2.88l-1.02-.9a6.872 6.872 0 0 1-5.25 2.4c-3 0-5.73-2.22-6-6.03h12.69a3.825 3.825 0 0 0 .03-.6c0-4.53-2.73-8.01-7.02-8.01-4.14 0-7.26 3.54-7.26 7.98 0 4.83 3.48 8.04 7.5 8.04zm-5.94-8.73c.27-3.39 2.61-5.94 5.64-5.94 3.51 0 5.28 2.85 5.49 5.94h-11.13zm20.91 8.37h1.47v-13.95h5.34v-1.35h-5.34v-1.47c0-2.61.99-3.87 3.09-3.87a7.14 7.14 0 0 1 2.28.39v-1.38a6.5 6.5 0 0 0-2.28-.36 4.37 4.37 0 0 0-3.21 1.2 5.522 5.522 0 0 0-1.35 3.99v1.5h-2.22v1.35h2.22v13.95zm19.38 4.86a7.745 7.745 0 0 0 5.55-2.04 7.086 7.086 0 0 0 1.95-5.19v-12.93h-1.47v3.06a7.607 7.607 0 0 0-6.39-3.42 7.261 7.261 0 1 0 0 14.52 7.61 7.61 0 0 0 6.39-3.54v2.22c0 3.93-2.49 5.94-6 5.94a10 10 0 0 1-6.18-2.16l-.87 1.2a11.555 11.555 0 0 0 7.02 2.34zm-.21-7.41a5.812 5.812 0 0 1-5.91-5.85 5.67 5.67 0 0 1 5.91-5.85c3.18 0 6.33 2.28 6.33 5.82s-3.15 5.88-6.33 5.88zm16.29 2.55h1.47v-8.85a5.245 5.245 0 0 1 5.31-5.46c3.09 0 4.86 2.07 4.86 5.22v9.09h1.47v-9.36c0-3.66-2.25-6.3-6.12-6.3a5.99 5.99 0 0 0-5.52 3.21v-9.45H857.6v21.9zm21.6 0h1.47v-15.3H879.2v15.3zm-.18-19.29h1.83v-2.01h-1.83v2.01zm8.85 24.18c1.98 0 3.27-1.14 3.27-3.54v-16.65h-1.47v16.74c0 1.44-.75 2.13-1.83 2.13a8.389 8.389 0 0 1-1.2-.09v1.29a5.888 5.888 0 0 0 1.23.12zm1.62-24.18h1.83v-2.01h-1.83v2.01zm10.439 19.29h1.47v-3.72l3.72-3.75 6.06 7.47h1.86l-6.9-8.52 6.69-6.78h-1.95l-9.48 9.81v-16.41h-1.47v21.9zm20.01 0h1.47v-21.9h-1.47v21.9zm10.26 0h1.47v-8.82c0-3.09 2.16-5.49 4.89-5.49s4.47 1.95 4.47 5.13v9.18h1.47v-8.91c0-3.42 2.25-5.4 4.829-5.4 2.82 0 4.53 1.92 4.53 5.22v9.09h1.47v-9.27c0-3.84-2.25-6.39-5.88-6.39a6.076 6.076 0 0 0-5.519 3.3 5.491 5.491 0 0 0-5.16-3.3 5.634 5.634 0 0 0-5.1 3.09v-2.73H930.2v15.3zm31.53 0h1.47v-8.85a5.245 5.245 0 0 1 5.31-5.46c3.089 0 4.859 2.07 4.859 5.22v9.09h1.47v-9.36c0-3.66-2.25-6.3-6.119-6.3a5.99 5.99 0 0 0-5.52 3.21v-2.85h-1.47v15.3zm28.169.36a8.012 8.012 0 1 0-7.829-8.01 7.905 7.905 0 0 0 7.829 8.01zm.06-1.38a6.64 6.64 0 1 1 6.24-6.63 6.482 6.482 0 0 1-6.24 6.63zm15.356 5.82h1.47v-8.1a7.359 7.359 0 0 0 6.3 3.66 8.032 8.032 0 0 0 0-16.02 7.388 7.388 0 0 0-6.3 3.78v-3.42h-1.47v20.1zm7.62-5.85a6.61 6.61 0 0 1 0-13.2c3.21 0 6 2.58 6 6.6 0 4.17-2.67 6.6-6 6.6zm27.93 5.85h1.47v-20.1h-1.47v3.3a7.359 7.359 0 0 0-6.3-3.66 8.032 8.032 0 0 0 0 16.02 7.388 7.388 0 0 0 6.3-3.78v8.22zm-6.15-5.85c-3.21 0-6-2.58-6-6.6 0-4.17 2.67-6.6 6-6.6a6.61 6.61 0 0 1 0 13.2zm16.2 1.05h1.47v-6.27c0-4.98 3.09-7.65 6.63-7.65h.15v-1.62a7.234 7.234 0 0 0-6.78 4.59v-4.35h-1.47v15.3zm19.95.3c2.94 0 5.28-1.74 5.28-4.47 0-2.76-2.58-3.66-5.04-4.35-2.19-.63-4.26-1.26-4.26-2.97 0-1.59 1.38-2.73 3.48-2.73a8.787 8.787 0 0 1 4.71 1.53l.78-1.23a10.329 10.329 0 0 0-5.43-1.68c-2.97 0-5.04 1.77-5.04 4.23 0 2.79 2.76 3.54 5.25 4.26 2.13.6 4.05 1.26 4.05 3.06 0 1.83-1.62 2.97-3.69 2.97a8.976 8.976 0 0 1-5.49-2.01l-.87 1.17a10.478 10.478 0 0 0 6.27 2.22zm17.76-.03a5.617 5.617 0 0 0 2.49-.54v-1.38a5.125 5.125 0 0 1-2.25.54c-1.77 0-3.06-.78-3.06-2.97v-9.87h5.37v-1.35h-5.37v-4.89h-1.47v4.89h-2.22v1.35h2.22v10.02c0 2.91 1.92 4.2 4.29 4.2zm15.72.09a5.99 5.99 0 0 0 5.52-3.21v2.85h1.47v-15.3h-1.47v8.85a5.245 5.245 0 0 1-5.31 5.46c-3.09 0-4.86-2.07-4.86-5.22v-9.09h-1.47v9.36c0 3.66 2.25 6.3 6.12 6.3zm20.88-.24h1.26l6.87-15.42h-1.65l-5.85 13.65-5.79-13.65h-1.71zm18.99 0h1.26l4.59-13.11 4.56 13.11h1.26l5.61-15.42h-1.59l-4.62 13.44-4.62-13.5h-1.17l-4.62 13.5-4.62-13.44h-1.65zm22.8-.12h1.77l5.4-6.81 5.4 6.81h1.83l-6.27-7.83 6.03-7.47h-1.77l-5.16 6.48-5.16-6.48h-1.83l6.03 7.5zm23.1 4.89c2.19 0 3.75-1.14 5.1-4.35l6.63-15.84h-1.62l-5.52 13.68-6.36-13.68h-1.71l7.35 15.21c-1.14 2.67-2.19 3.6-3.78 3.6a5.332 5.332 0 0 1-2.61-.57l-.51 1.29a6.884 6.884 0 0 0 3.03.66zm17.73-4.89h13.23v-1.32h-11.04l11.04-13.14v-.84h-12.81v1.32h10.62l-11.04 13.14v.84zm-364.79 96h2.737v-12.69H843.9l-3.619 1.08.577 2.26 2.2-.54v9.89zm7.073 0h9.327v-2.4h-5.492l2.053-1.58c2.233-1.73 3.313-2.77 3.313-4.88 0-2.4-1.728-3.93-4.339-3.93-2.251 0-3.457.92-4.7 2.62l1.945 1.56c.936-1.15 1.6-1.69 2.575-1.69a1.548 1.548 0 0 1 1.692 1.64c0 1.04-.612 1.73-2.178 3.02l-4.2 3.44v2.2zm17.732.21c2.808 0 4.537-1.74 4.537-4.12s-1.675-3.28-3.385-3.56l3.187-3.05v-2.08h-8.517v2.37h4.952l-3.007 3.03.432 1.76h1.152c1.549 0 2.467.58 2.467 1.6a1.585 1.585 0 0 1-1.782 1.57 3.849 3.849 0 0 1-3.043-1.51l-1.909 1.82a6.136 6.136 0 0 0 4.916 2.17zm14.544-.21h2.647v-2.72h1.692v-2.25h-1.692v-7.72h-2.341l-6.914 8.01.45 1.96h6.159v2.72zm-3.349-4.97l3.349-3.93v3.93h-3.349zm15.876 5.18c2.9 0 4.79-1.69 4.79-4.35 0-2.88-1.963-4.07-4.412-4.07a5.994 5.994 0 0 0-1.656.22l.144-2.18h5.365v-2.43h-7.742l-.36 6.21 1.6 1.06a5.456 5.456 0 0 1 2.107-.47c1.315 0 2.233.63 2.233 1.71 0 1.15-.81 1.78-2.107 1.78a4.422 4.422 0 0 1-3.007-1.36l-1.674 1.99a6.442 6.442 0 0 0 4.719 1.89zm13.752 0c2.737 0 4.808-1.78 4.808-4.35 0-2.67-1.927-4.05-4.43-4.05a4.318 4.318 0 0 0-2.61.81c.18-1.66.972-2.92 2.538-2.92a3.884 3.884 0 0 1 2.575 1.01l1.458-2.14a5.8 5.8 0 0 0-3.943-1.39c-3.763 0-5.527 2.99-5.527 6.88 0 2.54.576 3.89 1.494 4.81a4.784 4.784 0 0 0 3.637 1.34zm-.108-2.37a1.946 1.946 0 0 1-2.2-1.87 1.886 1.886 0 0 1 2.161-1.86 1.925 1.925 0 0 1 2.2 1.84 1.9 1.9 0 0 1-2.161 1.89zm8.963 2.16h3.133l5.653-10.52v-2.08h-9.074v2.39h5.923zm16.921.18c2.791 0 4.861-1.37 4.861-3.71a3.145 3.145 0 0 0-2.034-3.01 2.988 2.988 0 0 0 1.6-2.75c0-1.98-1.765-3.5-4.429-3.5s-4.43 1.53-4.43 3.46a3.007 3.007 0 0 0 1.6 2.79 3.062 3.062 0 0 0-2.035 3.05c.005 2.23 2.076 3.67 4.867 3.67zm0-7.64a1.542 1.542 0 1 1 1.8-1.56 1.606 1.606 0 0 1-1.8 1.56zm0 5.35c-1.369 0-2.179-.7-2.179-1.56 0-1.01.918-1.59 2.179-1.59s2.178.58 2.178 1.55c0 .92-.81 1.6-2.178 1.6zm12.816 2.32c3.583 0 5.509-2.79 5.509-6.87 0-2.52-.594-3.89-1.494-4.79a4.545 4.545 0 0 0-3.637-1.37c-2.845 0-4.808 1.87-4.808 4.41 0 2.59 1.765 4.11 4.5 4.11a3.844 3.844 0 0 0 2.556-.87c-.18 1.69-1.008 2.86-2.556 2.86a4.069 4.069 0 0 1-2.755-1.08l-1.459 2.11a6.1 6.1 0 0 0 4.144 1.49zm.522-6.82a1.927 1.927 0 0 1-2.2-1.89 1.9 1.9 0 0 1 2.143-1.94 1.959 1.959 0 0 1 2.214 1.92 1.909 1.909 0 0 1-2.157 1.91zm14.31 6.82c3.367 0 5.617-2.86 5.617-6.51 0-3.69-2.25-6.52-5.581-6.52-3.349 0-5.618 2.86-5.618 6.52 0 3.69 2.215 6.51 5.58 6.51zm.036-2.5c-1.675 0-2.773-1.71-2.773-4.01 0-2.34 1.08-4.02 2.737-4.02s2.773 1.73 2.773 4.02c0 2.32-1.063 4.01-2.737 4.01zm10.51-2h1.513l.846-7.95v-.36h-3.2v.36zm-.7 4.29h2.917v-2.88h-2.917v2.88zm15.158 2.92a8.882 8.882 0 0 0 4.772-1.35l-.36-.58a8.118 8.118 0 0 1-4.412 1.21 7.151 7.151 0 1 1-.144-14.3c4.051 0 7.094 3.08 7.094 6.41 0 2.39-1.008 3.67-2.286 3.67a1.158 1.158 0 0 1-1.315-1.13 3.2 3.2 0 0 1 .054-.56l.846-4.84-2.124-.35-.2.96a2.865 2.865 0 0 0-2.485-1.23 4.35 4.35 0 0 0-4.033 4.52 3.246 3.246 0 0 0 3.295 3.48 3.9 3.9 0 0 0 2.665-1.08 3.471 3.471 0 0 0 2.754 1.08c1.981 0 3.584-1.51 3.584-4.52 0-3.69-3.44-7.13-7.851-7.13a7.871 7.871 0 1 0 .14 15.74zm-.666-5.95a1.6 1.6 0 0 1-1.693-1.74 2.366 2.366 0 0 1 2.161-2.54 1.6 1.6 0 0 1 1.675 1.69 2.4 2.4 0 0 1-2.145 2.59zm12.652 3.03h2.38l.46-2.7h2.62l-.47 2.7h2.37l.47-2.7h1.98v-2.31h-1.58l.45-2.66h1.76v-2.31h-1.37l.45-2.62h-2.37l-.45 2.62h-2.61l.45-2.62h-2.38l-.45 2.62h-1.98v2.31h1.58l-.446 2.66h-1.766v2.31h1.368zm3.24-5.01l.45-2.66h2.61l-.45 2.66h-2.61zm14.67 6.77h1.87v-1.78c2.29-.25 3.82-1.55 3.82-3.55 0-2.05-1.17-3.16-3.91-3.9v-2.72a7.378 7.378 0 0 1 2.24 1.06l1.2-2.11a7.583 7.583 0 0 0-3.35-1.33v-1.08H1017v1.05c-2.27.23-3.78 1.53-3.78 3.52 0 2.16 1.28 3.15 3.87 3.86v2.86a7.152 7.152 0 0 1-2.93-1.46l-1.41 2.05a8.868 8.868 0 0 0 4.25 1.71v1.82zm.09-9.68c-.99-.36-1.24-.72-1.24-1.28a1.163 1.163 0 0 1 1.24-1.15v2.43zm1.69 5.65v-2.52c.98.36 1.28.72 1.28 1.33a1.207 1.207 0 0 1-1.282 1.19zm10.46-4.03a3.079 3.079 0 0 0 3.08-3.23 3.034 3.034 0 0 0-3.04-3.22 3.23 3.23 0 0 0-.042 6.45zm-1.78 6.3h2.14l9.2-12.6h-2.14zm9.52.14a3.077 3.077 0 0 0 3.08-3.22 3.034 3.034 0 0 0-3.04-3.22 3.065 3.065 0 0 0-3.08 3.22 3.034 3.034 0 0 0 3.038 3.22zm-7.7-8.08a1.407 1.407 0 0 1-1.19-1.59 1.339 1.339 0 0 1 1.15-1.58 1.4 1.4 0 0 1 1.19 1.58 1.361 1.361 0 0 1-1.152 1.59zm7.74 6.45a1.407 1.407 0 0 1-1.19-1.59 1.345 1.345 0 0 1 1.15-1.58 1.4 1.4 0 0 1 1.19 1.58 1.354 1.354 0 0 1-1.152 1.59zm6.55-7.39h1.94l1.64-2.1 1.64 2.1h1.98l-2.67-3.72h-1.87zm19.89 9.13l2.03-1.42-1.85-1.86a23.441 23.441 0 0 0 1.66-2.66l-2.04-1.12c-.39.78-.81 1.51-1.22 2.16l-1.68-1.67c1.57-.61 2.65-1.6 2.65-3.3a3.256 3.256 0 0 0-3.55-3.2c-2.43 0-3.81 1.58-3.81 3.31a4.265 4.265 0 0 0 .88 2.56 3.643 3.643 0 0 0-2.45 3.46c0 2.26 1.82 3.67 4.23 3.67a5.645 5.645 0 0 0 3.69-1.41zm-4.54-8.03a2.257 2.257 0 0 1-.74-1.57 1.2 1.2 0 0 1 1.23-1.31 1.113 1.113 0 0 1 1.19 1.17c-.002.83-.582 1.3-1.682 1.71zm-.29 5.69a1.564 1.564 0 0 1-1.76-1.48 1.889 1.889 0 0 1 1.17-1.69l2.41 2.45a2.976 2.976 0 0 1-1.822.72zm12.3-4.61h1.47l-.28-2.16 1.74 1.33.76-1.29-2.02-.85 2.02-.85-.76-1.29-1.74 1.33.28-2.16h-1.47l.29 2.16-1.75-1.33-.76 1.29 2.02.85-2.02.85.76 1.29 1.75-1.33zm12.45 9.24l1.21-1.82c-2.43-1.69-3.47-3.35-3.47-5.89s1.04-4.19 3.47-5.89l-1.21-1.82c-3.31 1.81-4.98 4.25-4.98 7.71s1.668 5.91 4.978 7.71zm5.73 0c3.31-1.8 4.98-4.25 4.98-7.71s-1.67-5.9-4.98-7.71l-1.21 1.82c2.43 1.7 3.48 3.35 3.48 5.89s-1.05 4.2-3.48 5.89zm-322.549 45.46h1.53v-21.15h-1.2l-4.8 1.77.42 1.23 4.049-1.38v19.53zm9.12 0h14.34v-1.5h-11.88l6.42-5.82c3.69-3.36 5.25-5.28 5.25-8.16 0-3.33-2.67-5.82-6.24-5.82-3.69 0-5.64 1.71-7.47 4.5l1.17.78c1.74-2.52 3.48-3.9 6.15-3.9a4.529 4.529 0 0 1 4.74 4.5c0 2.22-1.2 4.02-4.65 7.17l-7.83 7.08v1.17zm28.59.36c3.63 0 6.84-2.46 6.84-6.12 0-4.17-3.93-5.76-7.44-6l7.11-8.13v-1.11h-13.14v1.47h11.01l-7.23 8.34.39.87h1.14c3.78 0 6.54 1.62 6.54 4.56 0 2.79-2.31 4.71-5.19 4.71a7.994 7.994 0 0 1-6.54-3.36l-1.2.99a9.446 9.446 0 0 0 7.708 3.78zm25.319-.36h1.5v-5.13h3.42v-1.35h-3.42v-14.67h-1.41l-12 14.85.54 1.17h11.368v5.13zm-10.019-6.48l10.019-12.42v12.42h-10.021zm28.649 6.84c4.23 0 7.32-2.79 7.32-6.75 0-3.81-3.15-6.39-7.2-6.39a9.852 9.852 0 0 0-4.65 1.14l.51-7.86h10.41v-1.5H842.82l-.6 10.17 1.2.78a9.481 9.481 0 0 1 4.74-1.32c3.39 0 5.76 2.07 5.76 4.98a5.335 5.335 0 0 1-5.64 5.34 9.228 9.228 0 0 1-6.3-3.09l-1.11 1.11a10.715 10.715 0 0 0 7.35 3.39zm22.02 0c4.14 0 7.349-2.94 7.349-6.9 0-3.81-3.419-6.42-7.229-6.42a7.239 7.239 0 0 0-6.57 3.9v-.51c0-6.15 2.73-10.38 6.87-10.38a7.516 7.516 0 0 1 5.19 2.22l.99-1.2a9.157 9.157 0 0 0-6.06-2.43c-5.22 0-8.55 5.04-8.55 11.37 0 4.41.93 6.51 2.67 8.25a7.572 7.572 0 0 0 5.338 2.1zm.12-1.41c-3.39 0-5.94-2.28-5.94-5.28a5.6 5.6 0 0 1 5.85-5.25c3.33 0 5.7 2.16 5.7 5.04a5.375 5.375 0 0 1-5.612 5.49zm16.14 1.05h1.71l9.57-19.86v-1.14H883.86v1.5h12.18zm25.08.3c4.41 0 7.8-2.43 7.8-5.91 0-2.52-2.01-4.38-4.65-5.25 2.07-.84 3.93-2.4 3.93-4.89 0-3.33-3.45-5.55-7.08-5.55s-7.08 2.22-7.08 5.49c0 2.55 1.86 4.11 3.93 4.95-2.64.87-4.65 2.73-4.65 5.19-.002 3.54 3.388 5.97 7.798 5.97zm0-1.41c-3.87 0-6.18-2.07-6.18-4.44 0-2.67 2.76-4.56 6.18-4.56s6.18 1.89 6.18 4.5c-.002 2.43-2.312 4.5-6.182 4.5zm0-10.32c-2.97 0-5.46-1.74-5.46-4.32 0-2.43 2.4-4.14 5.46-4.14s5.46 1.71 5.46 4.08c-.002 2.64-2.492 4.38-5.462 4.38zm21.24 11.79c4.889 0 8.549-4.74 8.549-11.34 0-4.26-1.02-6.63-2.64-8.25a7.432 7.432 0 0 0-5.339-2.13 7.049 7.049 0 0 0-7.38 7.05c0 3.66 3.03 6.48 7.26 6.48a7.233 7.233 0 0 0 6.539-4.05v.72c0 5.94-2.88 10.11-6.959 10.11a7.877 7.877 0 0 1-5.37-2.4l-.99 1.2a9.554 9.554 0 0 0 6.328 2.61zm.51-9.57c-3.33 0-5.7-2.16-5.7-5.1a5.469 5.469 0 0 1 5.58-5.64c3.479 0 5.969 2.37 5.969 5.34a5.6 5.6 0 0 1-5.851 5.4zm23.579 9.57c5.34 0 8.73-5.07 8.73-10.86 0-5.85-3.33-10.86-8.67-10.86s-8.729 5.07-8.729 10.86c-.002 5.85 3.328 10.86 8.667 10.86zm.06-1.41c-4.349 0-7.109-4.59-7.109-9.45 0-4.95 2.7-9.45 7.049-9.45s7.11 4.56 7.11 9.45c-.002 4.92-2.702 9.45-7.052 9.45zm16.411 1.05h1.979v-2.55h-1.981v2.55zm.57-5.49h.839l.45-13.41v-2.1H973.5v2.1zm22.167 10.35a14.708 14.708 0 0 0 7.951-2.25l-.45-.75a13.842 13.842 0 0 1-7.5 2.04 12.151 12.151 0 1 1-.24-24.3c6.9 0 12.061 5.43 12.061 10.92 0 4.35-2.22 6.21-4.32 6.21a2.419 2.419 0 0 1-2.7-2.64 15.991 15.991 0 0 1 .27-2.16l1.11-6.33-1.44-.18-.42 2.25a4.792 4.792 0 0 0-4.471-2.67 7.471 7.471 0 0 0-6.99 7.47 5.2 5.2 0 0 0 5.31 5.34 6.366 6.366 0 0 0 5.13-2.79 3.953 3.953 0 0 0 4.081 2.79c2.55 0 5.46-2.16 5.46-7.29 0-6.33-5.73-11.88-13.081-11.88a13.111 13.111 0 1 0 .239 26.22zm-1.59-8.46a3.764 3.764 0 0 1-3.99-4.05 5.8 5.8 0 0 1 5.43-5.91 3.971 3.971 0 0 1 3.96 4.17c0 2.94-2.58 5.79-5.4 5.79zm23.161 3.6h1.44l.96-5.61h6.21l-.96 5.61h1.44l.96-5.61h4.11v-1.41h-3.87l1.23-7.08h3.84v-1.41h-3.6l.93-5.49h-1.44l-.93 5.49h-6.21l.93-5.49h-1.44l-.93 5.49h-4.14v1.41h3.9l-1.23 7.08h-3.87v1.41h3.63zm2.64-7.02l1.23-7.08h6.21l-1.23 7.08h-6.21zm26.13 9.96h1.44v-2.94c3.78-.15 6.42-2.37 6.42-5.52 0-2.97-1.92-4.68-6.48-5.64v-8.43a8.654 8.654 0 0 1 4.86 2.28l.99-1.17a9.88 9.88 0 0 0-5.79-2.46v-1.8h-1.44v1.74c-3.66.09-6.3 2.4-6.3 5.4 0 3.03 1.86 4.68 6.36 5.67v8.52a9.981 9.981 0 0 1-6.18-3l-.99 1.17a11.817 11.817 0 0 0 7.11 3.21v2.97zm1.38-4.29v-8.28c3.96.9 4.95 2.13 4.95 4.17 0 2.31-1.95 4.02-4.95 4.11zm-1.32-10.11c-3.9-.96-4.83-2.25-4.83-4.2 0-2.19 1.92-3.93 4.83-3.99v8.19zm16.83 11.46h1.62l15.42-21h-1.62zm14.58.24c2.79 0 4.65-2.55 4.65-5.37s-1.83-5.37-4.59-5.37c-2.79 0-4.65 2.55-4.65 5.37 0 2.85 1.83 5.37 4.59 5.37zm.06-1.29c-1.68 0-3.09-1.71-3.09-4.08 0-2.25 1.26-4.08 3.03-4.08 1.68 0 3.09 1.74 3.09 4.08 0 2.31-1.26 4.08-3.03 4.08zm-12.24-9.45c2.79 0 4.65-2.55 4.65-5.37s-1.83-5.37-4.59-5.37c-2.79 0-4.65 2.55-4.65 5.37 0 2.85 1.83 5.37 4.59 5.37zm.06-1.29c-1.68 0-3.09-1.71-3.09-4.08 0-2.25 1.26-4.08 3.03-4.08 1.68 0 3.09 1.74 3.09 4.08 0 2.31-1.26 4.08-3.03 4.08zm23.52-3h1.53l3.84-5.01 3.84 5.01h1.59l-4.74-6.3h-1.32zm34.56 15.21l1.23-1.02-3.87-3.99a29.327 29.327 0 0 0 3.12-5.58l-1.41-.57a27.125 27.125 0 0 1-2.73 5.1l-5.52-5.67c3.21-1.11 5.16-2.82 5.16-5.43a4.672 4.672 0 0 0-4.83-4.62c-3.06 0-5.25 2.07-5.25 4.77 0 1.8.75 3.09 2.34 4.86-3.42 1.26-5.43 3.33-5.43 6.15 0 3.48 2.76 5.88 6.45 5.88a9.16 9.16 0 0 0 7.11-3.63zm-10.71-1.47a4.608 4.608 0 0 1-4.92-4.53c0-2.1 1.47-4.05 4.8-5.19l6.21 6.42c-1.74 2.04-3.75 3.3-6.09 3.3zm.6-11.22c-1.86-1.98-2.43-3-2.43-4.32a3.44 3.44 0 0 1 3.63-3.45 3.26 3.26 0 0 1 3.33 3.3c0 2.04-1.53 3.51-4.53 4.47zm21.15.09h1.26l-.27-3.81 3.18 2.16.66-1.11-3.54-1.68 3.54-1.68-.66-1.11-3.18 2.16.27-3.81h-1.26l.27 3.81-3.18-2.16-.66 1.11 3.54 1.68-3.54 1.68.66 1.11 3.18-2.16zm20.52 16.41l.63-.99c-4.74-2.91-7.38-6.84-7.38-11.85s2.64-8.94 7.38-11.85l-.63-.99c-5.28 3-8.31 7.41-8.31 12.84s3.03 9.84 8.31 12.84zm7.92 0c5.28-3 8.31-7.41 8.31-12.84s-3.03-9.84-8.31-12.84l-.63.99c4.74 2.91 7.38 6.84 7.38 11.85s-2.64 8.94-7.38 11.85z" transform="translate(-650.156 -9484.31)"/></svg>