<svg viewBox="0 0 820.48 40.85" xmlns="http://www.w3.org/2000/svg"><path d="M482 27.61c-22.07-1.88-43.23-1.34-64.38-1.53-24.67-.23-49.32.61-74 1.23-23.14.58-46.27 1.75-69.37 3.09-28.75 1.67-57.46 4.3-86.3 4a38.08 38.08 0 0 1-4.48-.27 2.29 2.29 0 0 1-2-2c-.25-1.36.6-2.2 1.68-2.77a8 8 0 0 1 3.92-.48c21.84.07 43.59-1.74 65.36-3.13 21.09-1.35 42.14-3.25 63.21-4.91 19.91-1.57 39.81-3.29 59.73-4.68 14.12-1 28.26-1.52 42.4-2.27 29.27-1.56 58.55-2.66 87.85-3.79-12.26 0-24.52.11-36.78 0-38.33-.4-76.64.41-115 1.24-25.64.55-51.27 1.73-76.89 3q-33.42 1.61-66.8 4c-22.07 1.62-44.15 3.23-66.16 5.6-11.42 1.23-22.86 2.32-34.35 2.75-4 .15-5.79-.56-5.56-2.51.36-3.13 3.15-2.61 5.08-2.79 9.44-.89 18.91-1.52 28.36-2.34 13.59-1.18 27.18-2.48 40.77-3.68q14.33-1.29 28.51-2.37c11.61-.91 23.24-1.69 34.85-2.6 7.31-.57 14.64-.69 22-1.09 14.47-.8 29-.92 43.45-1.5 17.25-.68 34.5-1.55 51.75-2.46-119.6-.17-239.2 1-358.79-1L0 3.16h9.54c119.8-1.47 239.6-.85 359.4-1.24 42.65-.14 85.31-.47 128-1.26 48.49-.89 97-.73 145.45-.42 22.64.15 45.27 1.44 67.9 2.51 24 1.14 47.89 2.71 71.87 3.34 11.31.3 22.61 1.26 33.91 2 1.94.12 4.64.05 4.43 2.75s-2.89 2.26-4.82 2.09c-25.25-2.18-50.55-2.7-75.88-2.81-28.49-.13-57-1.29-85.47-1h-5.86c.66 1.55 1.63 2.89.68 4.24s-2.54 1.38-4.07 1.32c-27.31-1.09-54.64-1.07-82-.47-29.64.64-59.27 1.71-88.91 2.62-14 .43-28 .78-42 1.4q-20.2.89-40.39 2.67h7.07c20 .05 40-.23 60 .26a461.53 461.53 0 0 1 59.18 4.92 36.45 36.45 0 0 1 3.89.9 2.85 2.85 0 0 1 2.41 2.8c0 1.63-1.09 2.37-2.51 2.61a26.92 26.92 0 0 1-4.46.45c-16.17 0-32.31.73-48.45 1.45-15.8.7-31.61 1.48-47.41 2.15-2.66.11-6.12-.9-7.65 2.88-.34.83-1.51.64-2.28.34-10.58-4.15-21.45-1.15-32.16-1.11-9.64 0-19.28 1.08-28.92 1.61-5.82.32-11.65.53-17.47.72a18.76 18.76 0 0 1-4.46-.33 2.82 2.82 0 0 1 .11-5.57c4.11-.63 8.22-1.25 12.35-1.73 16.37-1.93 32.73-3.93 49.28-3.33a36.83 36.83 0 0 1 8.42.89c4.9 1.33 9.86 1.17 14.87.68 8.79-.85 17.63-.67 26.45-1.26 11.3-.76 22.63-.91 33.95-1.33a24.38 24.38 0 0 0 8.01-1.29z" fill="#fff"/></svg>