<svg viewBox="0 0 58.71 91.03" xmlns="http://www.w3.org/2000/svg"><path d="M56 11.16a2.13 2.13 0 0 0-.54-1.31A11 11 0 0 0 54 8.28c-.63-.55-1.45-1.08-1-2.18.15-.41-.14-.61-.53-.55a4.49 4.49 0 0 1-3.2-1.05c-2.66-1.68-5.74-2.36-8.67-3.42-1.53-.56-3.09-1.3-4.75-1-2.29.37-4.57.13-6.85.33-4 .34-8.07.39-11.86 2.09-.35.16-.79.13-1.16.26a15.13 15.13 0 0 0-5.39 2.68 27.08 27.08 0 0 1-3.67 3.18c-3.06 1.91-4.53 5.05-5.26 8.53a13.84 13.84 0 0 1-.47 2C-.65 24.06-.09 29 1.06 34a2.66 2.66 0 0 0 .22.56 17.23 17.23 0 0 1 1.35 3.71 9.29 9.29 0 0 0 1.9 3.69 43.21 43.21 0 0 1 2.88 4.13 1.87 1.87 0 0 0 .91.91 3.08 3.08 0 0 1 2.21 2.66.89.89 0 0 0 .44.68c2.09 1.26 3.3 3.32 4.73 5.19a4.62 4.62 0 0 1 1.09 3.67 2.82 2.82 0 0 0 .31 1.8c1 1.62.53 3.29.33 5 0 .28-.08.55-.09.83s0 .52.25.6.35-.13.47-.3.16-.46.39-.38.14.35.08.53a5.24 5.24 0 0 0-.08 2.38c.12.87-.26 1.11-1.07 1.12-1.28 0-2.55.14-3.83.22-.18 0-.48 0-.46.23s.31.2.49.17a25.31 25.31 0 0 1 4.06-.29 1.55 1.55 0 0 1 1.4.68 3.21 3.21 0 0 0 4.4.83c.09-.05.23-.17.21-.23-.18-1 .54-.63 1-.7 1-.16 2 .53 2.92-.15 1.37-1.06 1.48.86 2.36.9h1.2a2.43 2.43 0 0 1 .41.08.36.36 0 0 1-.37.24 3.88 3.88 0 0 1-.82-.1c-.71-.18-1 .14-.92.81 0 .13.2.22.07.4-.4.6-3.59 1.65-4.33 1.41a2.83 2.83 0 0 0-3.48 1.25c-.26.41-.3.73.1 1 .64.46.82 1 .2 1.57-.08.08-.36.16-.11.34.07 0 .23 0 .35-.05.35-.07.34-.36.43-.62.32-.93 1.76-1.14 2.6-.6s1.8 1.78 3.33 1c.74-.37 1.73 0 2.59-.3.27-.08.65 0 .75.25.29.85 1 .64 1.59.7a8.59 8.59 0 0 1 .94.15 1.25 1.25 0 0 1 .3.16c-.09.07-.17.19-.27.21-1.63.29-3.17 1-4.85 1a5 5 0 0 0-2 .42.49.49 0 0 0-.29.6c.08.23.33.16.52.14a3.31 3.31 0 0 1 .48 0c.14 0 .39 0 .4.1s-.17.23-.31.31c-.42.23-1 .25-1.25.67a1.48 1.48 0 0 1-2.07.39c-.84-.47-1.34.07-1.83.36s-.22 1 0 1.5a6.27 6.27 0 0 0 .89 1.56c.94 1 1.77 2.36 3.16 2.56a14.43 14.43 0 0 1 3.13.67 1.33 1.33 0 0 0 .46 0 .68.68 0 0 1 .73-.45 11.61 11.61 0 0 0 6.15-2c.44-.28 1.24-.32 1.11-1.06s-1-.3-1.42-.59c-.13-.08-.35 0-.46-.1-.79-.61-1.61-.35-2.5-.25a11.51 11.51 0 0 1-5.54-.44c-.32-.12-.83-.22-.81-.6s.59-.4.94-.53c.54-.2 1.17 0 1.64-.53 1.2-1.38 3-1.38 4.59-1.95.06 0 .2 0 .22.06.36 1 1 .38 1.54.24a8.61 8.61 0 0 1 2.55-.42c.39 0 1-.13.91-.58-.14-1 .6-1 1.15-1.16S43 79.84 43 79s-.73-1-1.3-1.06c-2.07-.36-4.14-.92-6.25-.29-.25.07-.52.13-.68 0a3.51 3.51 0 0 0-2.44-.77c-.33 0-.87.06-.87-.55s.16-1.1.77-1.2c1.29-.21 2.41-1.06 3.79-.91a1.24 1.24 0 0 0 1.19-.45.53.53 0 0 1 .83-.16c.26.22.12.5 0 .75s-.38.37-.12.61a.58.58 0 0 0 .68.05 3.2 3.2 0 0 1 1.39-.29c.32 0 .81-.15.8-.41 0-1.21 1.12-1.89 1.21-3a6.14 6.14 0 0 1 .5-1.94c.26-.62.69-1.33-.1-2-.09-.07-.07-.42 0-.56.6-.88.43-2 .86-2.91.08-.17 0-.44.29-.42s.23.28.24.47 0 .4 0 .6-.14.7.19.7.17-.46.18-.71c.19-3.6.63-7.09 3.83-9.48.3-.22.55-.62.21-.92-.5-.44-.16-.68.11-1a13.17 13.17 0 0 1 3.62-2.73 2.68 2.68 0 0 0 1.36-1.29.57.57 0 0 0-.07-.67.44.44 0 0 0-.64 0c-1.31 1.1-3.12 1.32-4.38 2.45a5.13 5.13 0 0 1-3.44 1.36c-.57 0-1.08-.32-1.64-.14s-.88-.11-.85-.72a5.76 5.76 0 0 1 .1-1.19c.95-3.5 2.1-6.89 4.89-9.44.3-.27.6-.58.45-1s-.63-.53-1.07-.52c.08-.31.69-.24.52-.64s-.55-.21-.86-.19l-.72.06a1.74 1.74 0 0 1-2-1.47 2.3 2.3 0 0 0-.19-.67C42.07 33.82 41 31.24 42 28.28A2 2 0 0 0 42 27a.93.93 0 0 1 .17-.89 54.36 54.36 0 0 1 3.66-5.33c1.48-1.7.52-2.52-.95-2.92a7.55 7.55 0 0 1-3.2-1.28 9 9 0 0 0-5.6-2.58c-.55 0-.56-.25-.19-.65.68-.73 1.31-1.51 2-2.27.48-.57.84-1.51 1.82-.61.06.06.23 0 .34 0a2.15 2.15 0 0 1 2.8 1.34 16.14 16.14 0 0 0 1.15 2c1 1.43 1.19 1.48 2.85.71a1.31 1.31 0 0 1 .56-.2c2.88.18 6-.45 8 2.58a.55.55 0 0 0 .36.25c.22 0 .17-.23.17-.37.06-1.87.06-3.78.06-5.62zm-50.33-.35l1.06-1.1c.05-.05.13-.12.19-.12s.1.09 0 .13l-1.15 1.2a.63.63 0 0 1-.17.09.61.61 0 0 1 .07-.2zm-2.56 4.83s.16.06.16.11a.35.35 0 0 1-.35.46c-.04-.21-.08-.45.19-.57zm-1 6.51c.19-.08.25.1.26.26s0 .31-.24.38c0-.07-.15-.15-.15-.23s.02-.37.12-.41zM21 64.5c-.1-.12-.21-.23-.3-.36-.59-.77-.46-1.74-.69-2.61 0-.08 0-.18.06-.33a2.34 2.34 0 0 1 .23.37 11.69 11.69 0 0 1 .75 2.49 2 2 0 0 1-.05.44zm4.53 2.42c-.36.16-.81.27-.92.7-.18.76-.69.62-1.21.52-.32-.06-.47-.21-.35-.59s.27-1 1-.93a4.11 4.11 0 0 0 .72 0h.72a2.83 2.83 0 0 1 .44.1c-.12.06-.25.14-.38.2zm2.13 1.83c-.15-.05-.5 0-.43-.19s.52-.2.81-.27c.13 0 .38-.08.31.16s-.35.3-.67.3zm-1.38-6a.27.27 0 0 1 .32-.37 2.72 2.72 0 0 1 1.66 1.24v.22a.33.33 0 0 1-.41.13 2 2 0 0 1-1.55-1.24zm6.55 3a3.22 3.22 0 0 1 .46-.08c.15 0 .32 0 .42.13l-.3.12zm.76 2c0-.81 1-.28 1.55-.4a1.45 1.45 0 0 0 .87-.52 1 1 0 0 1 1.18-.25.6.6 0 0 1 .22.64c-.09.54-.56.49-.93.53s-.87 0-1.4.07c-.45-.08-1.48.5-1.48-.01zm7.91 1c-.55-.16-.89.16-.88.56 0 1.17-.85 1.93-1.23 2.91-.2.52-.92 0-1.4.09-.21 0-.55.11-.63-.13s.27-.34.44-.49c1.13-1 1-2-.45-2.48-.67-.24-1.37-.39-2.06-.58l-.41-.09a2.8 2.8 0 0 1 .47-.08c.85 0 1.82-.66 2.45.47.7-.37 1.57 0 2.23-.47a1.72 1.72 0 0 1 1.59-.14.54.54 0 0 1 .24.48c-.1.3-.25.05-.35.03zm-3.3-1.55c0-.35.09-.78.49-.83s.64.25.64.68-.07.64-.49.66-.65-.11-.64-.51zM53.81 14a.52.52 0 0 1-.44-.07 3.2 3.2 0 0 1-.6-.58c-.29-.36-.54-.58-.94-.12a1.33 1.33 0 0 1-1.34.29c-1.53-.26-3.07-.57-4.54.29a.51.51 0 0 1-.74-.16 5.61 5.61 0 0 1-1.14-1.82c-.35-1.66-1.66-2.29-2.95-3s-1.91-.42-2.8.56a37.45 37.45 0 0 0-4.1 5.3c-.42.67-.16 1.05.34 1.2 3 .89 5.58 3.25 9 3.08a2.5 2.5 0 0 1 .71.12c1 .25 1.15.77.49 1.51-1.13 1.28-2.26 2.55-3.36 3.84A4.05 4.05 0 0 0 40.25 27c-.06 1.32-.53 2.64-.47 4 0 1 0 1.81 1 2.57a3.91 3.91 0 0 1 1.36 3.09 3.4 3.4 0 0 0 1.39 2.88 1.3 1.3 0 0 1 .29 1.94c-1.33 2.18-2.29 4.57-3.73 6.7a1.81 1.81 0 0 0 0 2 5.6 5.6 0 0 1 .6 3.12c0 .37-.41.85 0 1.11a1.39 1.39 0 0 0 1.59-.15c.76-.73 1.75-.7 2.63-1a.68.68 0 0 1 .23-.05c.43 0 1-.24 1.24.11s-.27.71-.53 1a15.51 15.51 0 0 0-3.07 4.24 3.37 3.37 0 0 0-.5 2c.39.18.54.45.23.69-1.18.91-.65 2.14-.74 3.25a3.58 3.58 0 0 0 0 .36c0 .74 0 1.56-.84 1.77S39.64 66 39 65.61c-.13-.08-.3-.32 0-.49a.48.48 0 0 1 .55.06c.23.16.24.75.66.5s.21-.65.21-1-.36-.58-.73-.64c-.64-.09-1.23 0-1.78-.66s-1-.82-.89-1.63c.05-.34-.13-.43-.39-.16l-.47.51c.32-.06.57 0 .7.38.75 2.21.21 2.89-2.1 2.57-.59-.08-1.19-.13-1.78-.22h-.16a3.8 3.8 0 0 1-2.23 0 4 4 0 0 1-2-1.64.45.45 0 0 1 0-.05l-.1-.1a10.93 10.93 0 0 0-1.09-.92c-.45-.29-1-.47-1.44 0s-.18 1 .18 1.51c.18.24.67.39.52.71s-.64.25-1 .21c-1-.13-1.79.71-2.81.79-.57 0-.8-.07-1-.47a2.78 2.78 0 0 1-.35-.76c-.39-1.85-1.37-3.52-1.75-5.33A25.22 25.22 0 0 0 17.22 53a2.28 2.28 0 0 0-1.1-1.2 2.23 2.23 0 0 1-1-1c-1.18-2.55-3.6-4.13-5-6.49a27.65 27.65 0 0 0-2.41-2.65 12.28 12.28 0 0 1-2.83-5.16 20.9 20.9 0 0 1 0-4.41c0-.14.13-.37-.06-.38s-.12.25-.15.39a7.81 7.81 0 0 1-.56 2.17v.66c-.73-.71-.71-1.77-1.2-2.58.75 0 .34-.46.19-.56-1.31-.84-1.11-2-.92-3.3a16.65 16.65 0 0 0 .06-1.91 3.48 3.48 0 0 1 .61-2.12 3.32 3.32 0 0 0 .61-2 11.3 11.3 0 0 1 .91-4.11 4.77 4.77 0 0 1 2-2.75 2.1 2.1 0 0 0 .68-.82 9.19 9.19 0 0 1 1.36-1.88 4.11 4.11 0 0 0 1.48-2.71c.12-1 1.08-1.47 1.76-2 .47-.38 1.08-.57 1.32-1.22 0-.08.21-.18.27-.16.23.1.19.32.13.51A4.37 4.37 0 0 1 12.13 9c-.1.11-.23.34-.19.4.16.24.35 0 .5-.06a3.2 3.2 0 0 0 1.71-2.21 1.88 1.88 0 0 1 1.26-1.53c1.87-.91 1.86-.93 3.48.46A71.86 71.86 0 0 0 25.23 11c.47.32 1 .88 1.61.5s.49-1.21.36-1.87a9.57 9.57 0 0 0-1.71-3.8c.21.56.42 1.12.64 1.68a7.22 7.22 0 0 1 .64 2.18c0 .47.23 1.06-.26 1.32s-.82-.23-1.17-.47C22.9 8.78 20.55 6.93 18.23 5c-.65-.53-.43-.82.13-1.13l1.06-.56c1.47-.75 1.47-.74 2.6.44a2.59 2.59 0 0 0 .67.49c.38.2.82.11.86-.3s-.38-.09-.59-.15a1.21 1.21 0 0 1-1-1c-.09-.64.55-.5.86-.51 2.14 0 4.23-.64 6.39-.51 2.63.16 5.27-.17 7.9.06a11.73 11.73 0 0 1 6.1 2.24c1.54 1.15 3.48 1.57 5 2.7 1.28.93 2.87 1.39 3.92 2.65s1.19 2.68 1.68 4.07c.19.22.19.42 0 .51z" fill="#fff"/><path d="M24.94 27.81a4.06 4.06 0 0 0-1.36-.37c-.71 0-1 .09-.62.88a2.75 2.75 0 0 1-1.46 3.1 50.11 50.11 0 0 0-6.32 3.17c-.77.39-.91.24-.74-.51l6.66-13.94c-.33.32-7.32 14.62-7 15s.75 0 1.08-.13c1.62-.79 3.21-1.62 4.83-2.42.57-.28 1.19-.47 1.77-.73 1.81-.82 2.79.53 3.23 2A30.11 30.11 0 0 1 25.5 37a5.11 5.11 0 0 0 1.5 3 1.67 1.67 0 0 1 .41 2.15 4.3 4.3 0 0 0-.41 3.44 9.32 9.32 0 0 1 .67 2.73c.51 3.84 1.06 7.68 1.33 11.53a15.19 15.19 0 0 0 .38 2.61 2.24 2.24 0 0 0 1.45 1.65 4.11 4.11 0 0 0 2-.36c.13-.07.27-.11.4-.19.34-.19 1-.2.95-.61s-.44-.79-.91-1c-1.54-.73-2-1.54-1.17-3a8.47 8.47 0 0 0 .53-5.59 16.37 16.37 0 0 0-2.87-6.9 2.83 2.83 0 0 1-.49-2.69 12.21 12.21 0 0 0 .73-4.29c0-.71.42-1 .94-1.23 1.05-.47 2.11-1 3.18-1.37a1.8 1.8 0 0 0 1.2-1.36A5.13 5.13 0 0 0 34.27 31a3.07 3.07 0 0 0-1.86-.7 34.66 34.66 0 0 1-7.47-2.49zm4.25 21.12c.27-.08.4.22.52.41a13.7 13.7 0 0 1 1.93 6.77 26.53 26.53 0 0 0-.91 4.51c0 .14 0 .37-.25.28s-.15-.26-.17-.4q-.48-4-.94-8-.17-1.49-.32-3c-.05-.16-.16-.5.14-.56zm2.76-13a7 7 0 0 0-3.48 1.16c-.61.45-1.29.89-.82 1.85a.45.45 0 0 1-.19.62c-.29.12-.4-.18-.52-.37a6.68 6.68 0 0 1-.94-2.43c-.18-1-.27-2-.44-3-.09-.53.07-.72.6-.73 1.67 0 3.35-.12 5-.12 1 0 1.39.61 1.58 2.09.46.85-.11.86-.79.94z" fill="#ffc700"/><g fill="#fff"><path d="M27.27 67.46s0 .06.05.06h.2v-.06zm.97-1.64a.26.26 0 0 0 .09 0v-.07a.25.25 0 0 0-.09 0s.01.05 0 .07zm12.22 1.81v-.14h-.07a.46.46 0 0 0 .07.14zM58.62 29.2v1c-.07.72-.36 1-1 .41-.28-.26-.58-.51-.94-.26s.13.43.18.65 0 .36-.22.28c-.4-.15-.91.11-1.22-.32a.59.59 0 0 1 .14-.85 2.07 2.07 0 0 1 1.31-.52c.85.07.82-.4.7-1s-.24-.93-.36-1.39a.33.33 0 0 1 .15-.41c.18-.09.32 0 .39.18.41.75 1.25 1.33.87 2.23zM36.49 89.66c-1.22 1.43-2.84 1.49-4.52 1.27a7.55 7.55 0 0 1-1-.28 8.93 8.93 0 0 0 5.58-1zm20.22-51.2c-.33 0-.52-.15-.76.1-.45.48-.6.41-.85-.21-.09-.23-.18-.46 0-.67s.44-.16.66-.09a4.44 4.44 0 0 1 .88.35c.23.13.7.06.66.36s-.46.08-.59.16zm-3.2 2.68c.35-.43 0-.9.05-1.36.08-.84.37-.91 1-.46 0 .79-.11 1.54-1 1.81zm.68 4.25c-.08.23-.1.68-.44.52s-.91 0-.88-.57c0-.41.36-.6.76-.59s.56.25.56.64zM23.56 83.11l-.09-.04.1-.03zM53.5 41.12l-.19.53z"/><path d="M36.51 89.69l.02-.05-.04.02zM14.43 34l.02.02M25.46 5.7a2.59 2.59 0 0 1-.45-1c.38.22.4.62.46 1zm10.82-3.37l-.43.13.43-.12zm-.21 59.76l-.53.19zM4.1 34.25l-.1-.16c.17 0 .07.11.09.17zm32.18-31.9l.01-.05-.01.03z"/></g></svg>