<svg id="Слой_1" xmlns="http://www.w3.org/2000/svg" viewBox="0 0 366 400"><style>.st0{fill:#ffc700}.st1{fill:#fff}</style><path class="st0" d="M300.9 55.1c.7 1 2.3 1.9.8 3.1-1.2 1-1.9-.3-2.6-1.1-2-2.4-4-5-6.8-6.6-2.8-1.6-3.5-1.4-3.8 1.9-.2 1.9-.1 3.9-1.5 5.7-1.9-2.4-2.2-5-2-7.8.2-3.5.3-7 .5-10.6.1-2-.7-3.1-2.8-2.7-.6.1-1.3.1-1.9.2-4.4.4-4.2.4-4.6 4.6-.5 5.6-1.3 11.1-2 16.9-2.6-.1-3.5-1.2-3.2-3.6.5-4 1-7.9 1.2-11.9.3-5.2.1-5.1-4.9-5.9-1.8-.3-3.8-.1-5.7-1.3 1.5-2.1 3.1-3.4 5.7-3.4 4.5 0 9.1.2 13.6-.7 1.4-.3 3.7-.7 2.8 2.5-.4 1.4 1.2 1.2 1.9.6 2.7-2.8 6-2.4 9.2-1.8 5.9 1 8.3 7.3 4.5 11.9-1.5 1.9-.9 3.1-.2 4.7l-.7.6c-1-.6-1.3-2.7-3.7-1.6l5 5.1.7.7.5.5zm-4.1-14.7h-.9c-.1-.2-.1-.3-.1-.5.1-2.6-1.2-4.7-3.6-4.8-2.8-.1-1.6 2.9-2.2 4.5-.4.7-.3 1.7.3 2.3 2.2.5 3.6-1.7 5.7-1.5l-1 2-1.1.3c.1.1.1.3.2.3.4.1.7-.1.8-.5v-.1c1.3-.1 1.9-.7 1.9-2zm-117.1 67.5c-.9 1.3-1.4.7-1.9-.4-1.9-4.8-1.3-9.6-.7-14.5.3-1.7.5-3.5.6-5.2-.2-3.2.2-6 3.3-7.5 2.8 3.1 4.4 7.3 7.2 10.5 1.5 1.7 2.5 1.6 3.6-.2 2-3.1 4-6.2 6-9.2.6-.9.9-2.1 2-2.5.4-.1 1.1-.7 1.1-.4-.6 3.6 5.8 3.2 3.8 8.6-1.7 4.6-.2 10.4-.2 15.7 0 .9.2 1.9-.7 2.8-6.7-1.8-2.3-7.7-3.9-11.1-.4 2.4.4 5.2-.7 8.8-1.5-3.5-.3-6.4-1.2-9.2-2 .7-2.6 2.8-4 4-2.6 2.2-3.7 2.1-5.5-.8-1.4-2.2-2.8-4.5-4.6-7.5-.9 5.5-.2 10.2-.9 14.8-.4 2.5-1.6 3-3.5 3.4l-.3-1.7c-.1.1-.2.3-.2.3.3.4.5.8.7 1.3zm17-17.4l.1.1-.1-.1c-.2-2.1 2.3-3.4 1.5-5.8-2.7 3.4-2.9 3.7-3.6 7.5.9-.4.9-1.8 2.1-1.7zm-16.5-3l-.2-.1v4.3h.2v-4.2zm21.6 7.3c-.3 1.7-.2 3.4.1 5.1.3-1.7.3-3.4-.1-5.1zm-22.7 7.5l.2-.3-.2-.1v.4zm-25.9-67.6c1.4-3.4 4.4-4.8 7.6-5.9 2-.7 4.5-.5 5.5 1.4 1.5 2.7 3.9 4.7 6.7 5.8.5.2.7 1 1 1.5-2.7 1.2-4.7 0-6.3-2.2-.9-1.2-1.7-2.5-3.2-.6l-.2-.3.2.2c-2.4 1.8-5 3.2-6.6 5.8l-.1-.1.2.1c-.1 1.7.1 3.4-1 4.8-.1-.9.2-1.9-.4-2.7-1.5 2.8-1.5 2.8-.8 6.1.7-1 .3-2.6 1.3-3.4-.1 3.5-.2 6.9 2.3 9.9 3 3.7 4.5 4.3 8.6 2.1.8-.4 1-1.7 2.2-1.5 0 4.7-3.2 7.2-7.4 6.4-4.9-1-8.1-4.6-12-7.3-.5-.4-.9-.9-1-1.6-.8-6.6-1-13 3.4-18.5.3.3.7.3 1 0l.2-.2-.1.2h-1.1zm8.6 67.4c.1 2.9-1.2 5.7-3.6 7.4-1.5-2.6-2.9-5.3-2.7-8.6.4-5.7.9-11.4 1.2-17.1.1-2.3 1.2-3.1 3.3-3 .2.5-.6 1.2.3 1.5.1 0 .3-.1.4-.2.5-.9-.3-1-.7-1.2 4.2-1.3 11.9 1.8 13.7 5.4.7 1.5.7 2.9-.5 3.9-2.7 2.1-4.9 4.8-8.4 5.9-4.3 1.2-4.2 1.4-3 6zm2.9-17.4l-1.2-.6c-.1 0-.2.1-.3.1l1.5.5c.7.5 1.2 1.3 2.2.9 0-.6-.5-.7-.9-.8-.4-.1-.9-.1-1.3-.1zm-3.4 8.3c1.3-1 2.6-.8 3.8-1.3 1.1-.5 3.2 0 3-2.2-.1-1.8-1.8-2.1-3-2.6-2-.9-3.2-.4-3.5 2-.1 1.3-.6 2.5-.3 4.1zm92.1-56.5l-2.7.1-.2-.2-.9.1.1-.1c-5.4 1.5-6.9 4.2-6.1 11.1.7-2.7.7-5.5 3-7.4l.4.3c-2 4.1-2.5 8.1.2 12.1l-.6.6c-.2 0-.5-.1-.6-.3l-.1-.2.2.1c.6 1.6.8 3.7 3.4 3.1l.7-.5 2.5.2v.1c1.3 1.5 2.5 2.7 3.8 0 .5-1 1.3-1.5 2.2-.7 1.1.9.2 1.6-.3 2.4-4.3 6.1-6.1 6.1-12 1.3-10.2-8.3-7.6-19.1-1.3-26.3 3.8-4.3 6.7-4.6 11.6-1.8 1.3.8 2.6 1.7 3.7 2.5-1.6 3.3-4.9 2.1-7 3.5zm-8.5-2c1.9-.1 2.9-1.6 5-2.7-2.7.3-4.1 1.1-5 2.7l-.1.2.1-.2zm10.1-.4l.3.2v-.2h-.3zm2.2 63.1c3.7 2.3 3.7 2.6-.1 4.8 0-.5 0-1.5-.1-1.5-1.1-.2-1.4.7-1.7 1.5l-.2.2.2-.3h1.9c-3.2 3.5-4.1 3.6-7.7 1.5-2.1-1.2-3.6-4.1-6.7-2.9-.8.3-.5-.5-.6-.9-1.1-2.8-2-5.7-2.7-8.6-1.2-5.7 4.2-12.6 10.7-14.3 2.8-.8 5.6-1.2 8.1.7 1.8 1.4 1.9 3 .2 4.3-.5.4-.7.5-1.5.2-4.1-1.6-7.9-.2-10.2 3.6-2.4 3.8-2.4 10.2.2 12.6 1.9 1.8 4.2 1.8 6.6 1.1 1.4-.3 2.2-1.6 3.6-2zm-11.4-15.4l.9-1 .1-.1-.1.2-.9.9-.1.1.1-.1zm-3.4 2.4c-1.2 1.9-1.6 3.3-1 5.4.9-1.8 1.7-3.1 1-5.4zm10.9-5.6c-.3-.1-.5-.2-.8-.3-.5-.1-.9.2-1 .7-.1.3.2.5.6.3s.8-.4 1.2-.7zm-101.4 3.6c-2.2 1.1-4 2.1-6.6 1.8-3.4-.5-6.7 1.7-7.7 5.1-.5 1.5-.8 2-2.2 1.3-.1 1.4-.3 2.9-.3 4.3.2 7.3 3.4 10.2 10.4 9.2 1.1-.2 2.1-.5 3.1-.9.6-.2 1.3-.3 1.7.3.3.6.2 1.3-.2 1.8-1.6 3.4-5.1 5-8.5 3.5-2.8-1.1-5.3-2.8-7.6-4.8-3.8-3.7-4.2-8.4-2.5-13.3 3.5-9.7 14.1-14.3 20.4-8.3zm-8.3 25.2l.4-.2-.4-.2v.4zm63.5-69c3 2.6 3.8 6.5 5.3 9.9.7 1.8 1 3.7 1.9 5.4 1.4 2.7 1.8 5.2-1 7.3-1.5-3.9-2.9-7.7-4.3-11.6-.7-2.1-1.9-3.1-4.2-2.5-1.2.2-2.5.3-3.8.3-2.4-.1-4.6 1.5-5.5 3.8-.9 2.4-2 4.6-3 7-.4 1-.7 1.7-2.5 1.5 1.5-9.3 6.7-16.9 10.6-25-.4-2 1-2.9 2.4-3.3 1.2-.3 1.6 1.3 2 2.2.8 1.6 2.4 2.9 2.3 5h-.2zm1 3.8c.2.2-.2.9.5.7l-.5-.7c-.3-.1.1-.7-.5-.6l.5.6zm-9.4 2.7l6.8-1.2c-.6-2.8-1.6-5.5-3.1-7.9-1.4 3.3-3 5.6-3.7 9.1zm29.7 101.8c-.5-6.8-1-13.6-1.6-20.3-.2-2.9.1-5.1 3.7-5.2 1 0 2-.9 3.1-1.2 4.7-1.7 7.7-.6 10.4 3.7.7 1 1.4 2.1 2 3.2.9 1.5 1 3.1-.6 4.2-.8.5-1.4 1.2-2 2-3.4 4.4-6.7 4.8-11.5 1 4 1.5 5.3-3.6 8.9-3.5 1.5 0 1.6-1.9.9-3.1-1.8-3-5-4.3-8-5.5-1.1-.4-3.6 3.3-3.3 5.2.7 4 .3 8 .4 12 .2 2.5-.6 5.3-2.4 7.5zm12.7-22.5l-.2-.2.2.2 1 1 .1.1-.2-.1-.9-1zm-.8 10.2c.3-.1.5-.3.7-.5.3-.3.1-.6-.2-.6-.4.1-.5.3-.7.5-.2.3-.2.6.2.6zm4.1-6.2c-.1.3-.1.5-.1.8.1.4.3.4.5 0 .1-.1.1-.3 0-.4-.1-.2-.2-.3-.4-.4zm-69.5-67.1c.5-5.8 1.1-11.2.9-16.6-.2-3.2-.2-6.4-.3-9.6-.1-2.5.8-4 3.6-3.4 2.6.5 5.3-.1 7.8 1.2 2.2 1.2 3.8 2.9 3.9 5.5.1 2.7-1.9 3.5-3.7 4.4-1.3.6-2.6 1.6-3.9 1.6-3.2 0-3.7 2-3.3 4.5.6 4-1 7.4-2.3 10.9-.4.9-1.1 1.2-2.7 1.5zm4.9-23.1c-.1 3.2.3 4 1.7 4 1.8 0 6.2-3.5 5.8-4.8-.6-2.3-2.8-2.2-4.6-2.4-2.7-.5-3 1.3-2.9 3.2zm33 37.1c5.7-3.7 9.4-2.1 10 4.5.4 4.6-1.3 8.4-4 12-1.8 2.4-4.4 4.7-2.9 8.5.5 1.1-.8 2.1-2 2-1.7-.2-3.5-.7-3.7-3-.2-1.9.3-3.9 1.5-5.5 1.4-2.1 2.9-4.2 4.4-6.3l1.5-1.8c1.1-1.2 1.3-3.1.3-4.5-1.2-1.7-3.1-.5-4.3-.1-2.7 1-3.8 1.6-4.2.8-1.1-1.9.1-3.3 1.1-4.7.1-.1.3-.2.4-.3l.1.1c.3 1.3 1.1.8 1.8.4 2.4-1.6 4.9-1.7 7.6-1.4-2.1-3.2-5-.6-7.5-1l-.1.3zm-.5 21.3c-.1.3-.2.6-.2.9.1.4.1.8.3 1.2.3-.6.3-1.4-.1-2.1zm2.4-17.8v-.2l-.3.1.3.1zm99.2-41.2c0 1.6-.7 2.4-2.3 2.1-.9-.1-2 0-2.4-1.1-.4-1.2 0-2.6.9-3.5 2.9-3.1 10.5-4.3 14.2-2.3 2.4 1.3 2.8 3.8 1.1 8l-.6-.5c.4-1.5.4-3.2-.1-4.7l-3.4 6.8-.1-.1 1.8-.1.5.6c-1.1 1.1-2.3 2.2-3.3 3.3-1.1 1.1-2.6 2.7-2.1 4.1 1 2.9-.5 5.4.1 8.5-3.1-.4-4.8-1.9-5.5-4.6s-2-5.3.9-7.8c2.2-1.9 4.6-3.9 6-6.7.7-1.3 2-3 .5-4.3-1.2-1-2.7 0-3.9.7-.8.6-1.5 1.1-2.3 1.6-.4-.3-.7-.4-1 0h-1.3c-.3 0-.6.1-.8.2.1.6.7.6 1 .5.4-.2.7-.4 1-.7h1.1zm.9 17.4l.1.1-.1-.1-.1-.1.1.1zm-92.5 63.5c-2.8 0-5.6 0-8.4.1-1.6 0-3.1.2-3.9 2-.8-.1-1.5.3-1.9.9-.4.2-.5.3-.2.3.1-.1.1-.2.1-.4.8.1 1.5-.3 1.9-.9l1.9 1-.2.1.2-.2c3.3.2 7-1.5 9.7 2.6-1.8 1-3.5.3-5.2 0-7.2-.9-12.6 5.1-10.8 12.3.1.5.4.9.5 1.3 1.4 6.5 5.5 8.2 12.2 6.1 1.2-.4 2.2-1.2 3.6-1.1.5.1.9.1 1.4.3-2.3 3.3-10.2 5.9-14.2 4.6-3.1-1-6.7-6.3-6.9-10.2-.1-4.2.6-8.3 2-12.2 1.8-5.5 5-7.6 10.7-7.5 2.5 0 5.1-.6 7.5.9zm-12.2 27.5l-.4.1.4.1v-.2zm13.2-94.7c-2-.2-2-1.7-2-3.1-.2-2.7.9-5 2.1-7.3.8-1.3 1.6-2.7 2.3-4.2 1.5-3.6 0-5.4-3.9-5-1.1.1-2.8 1.8-3.4-.8l.1.1c-.8.7-1.4 1.6-1.7 2.7l-.4.4c-1.5-1.6-1.4-4.1.2-5.6.1-.1.3-.3.5-.4 4.7-3.3 11.2-2.3 14.7 2.3 2 2.8 2 5 0 7.8-.6.8-1.2 1.5-1.9 2.1-3.2 2.9-4.6 6.4-3.4 10.7.3.6.2 1.4-.3 1.9-1.3.2-2.5-.5-2.9-1.6 1.5-2.5-.1-5.3 1.1-7.8-2 2.1-2.4 5.2-1.1 7.8zm4.6-21.3l.1.1-.1-.1-1-1-1.2-.6c-.1 0-.2.1-.3.2.4.6 1 .3 1.6.3l.9 1.1zm0 7.7l-.3.5.3-.5.1-.2-.1.2zm2.8-1c1.3-1.2 1.4-3.2.2-4.5l-.2-.2-.2-.2.2.1v4.8l-.1.2.1-.2zm-9.7-7.3v.3l.4-.1-.4-.2zm45.6 72.5c-3.1-7.2-1.7-14.9-1.8-22.4 0-.9.3-1.9 1.6-1.9 3.1-.1 6.1-1 9.2-.7 4.9.4 6.4 2.1 6.3 7-.2 5.7-3.8 9.6-9.4 10-5.3.4-5.3.4-5.8 5.8 0 .7 0 1.5-.1 2.2zm12.3-13.1c-2.9.1-4.9 2-7.2 3.3 4.2 0 4.3-.1 7.2-3.3zm-11.7-8.3c-.5 3 .1 5.7.1 8.4s1.3 2.7 3.3 1.9c2.2-1 3.7-3.2 6.2-3.9 1.4-.4 2.4-1.8 2.2-3.3-.2-1.4-1.9-1.5-3-2-.8-.4-1.8-.5-2.7-.8-2.3-.8-3.2.1-3.3 2.4 0 .6.1 1.3-.7 1.7-1.3-1.1.3-3.3-2.1-4.4zm11.8-.1c-2-2.4-4.1-1.9-6.1-1.7 1.8.6 3.5 1.7 6.1 1.7zm-9.5 36.3l-.9.3c-1.3 0-.5-.8-.3-1 2.7-3.2 6.4-5.3 10.5-6.1.5-.1.9-.1 1.4-.1 6.3-.6 8 1.4 6.3 7.7-1 3.6-2.8 6.8-5.3 9.5-3.1 3.5-5.4 7.1-3.3 12.1.5 1.3-.6 1.7-1.6 1.2-2.1-.9-3.5-3-3.4-5.3-.2-3.2.7-6.4 2.7-9 1.7-2.3 3.5-4.6 5.1-6.9.9-1.1 1.6-2.4 1.9-3.8.4-2.5-.3-3.1-2.7-2.9-3.6.4-6.5 2.1-9.2 4.4l-.4-.3c-.4 0-.7.1-.8.2zm14.7-.6c-1.9 3.8-4.8 6.9-7.3 10.4-2.3 3.1-3.6 6.5-1.4 10.6-2.1-6.1 2.6-8.8 5.3-12.5 1.8-2.4 3.7-4.9 3.4-8.5zm.7-4.8h-.4c-.1.1-.1.2-.1.3.2.3.5.3.6 0 .1 0-.1-.1-.1-.3zm1.6-12.9c-3.3-3.2-1.5-7-.7-10.3 1.8-8 8.4-11.7 16.2-9.7.6.1 1.1.7 1.2 1.3-.9.8-2 .5-3.2.6-5.6.8-10 5.5-10.4 11.3-.3 2.1.8 4.2 2.7 5.2 2.5 1.3 5.1 2 7.5-.2 1.7-1.6 2.7-1.5 3 1 .1 1-.1 1.7-1.1 1.6-2.5-.2-4.4 1.4-6.6 2.2-4 1.4-6.6.4-8.5-3.1.3-.5 1.6.5 1.4-.5-1.2-6.3 1.3-11.6 4.3-16.7.1 0 .2 0 .3-.1.1 0 .1-.2.1-.3l-.4.3c-3.9 2.3-5.1 6.1-5.6 10.2-.3 2.5-.3 4.8-.2 7.2zm2.7-1.5c.9 3.5 2.6 3.4 5.4 2.9l-5.4-2.9zm-34.5 48.9c-.4-5.9-1.4-11.8-2.2-17.8v16c-1.5-.1-1.6-.8-1.5-1.4.3-6.5.5-13.1 1-19.6 0-.7-.9-2.9 2-2.5 2.3.3 1.4 1.6 1.6 2.5 1.1 7.6.2 15.2-.9 22.8zm64.8-47.5c-3-2.1-4.1-7.3-2.1-11.3.8-1.4 1.6-2.7 2.5-4 .6-.9 1.7-1.9 1-3-.8-1.3-2.3-.6-3.4-.5-2.1.2-3.7 1.6-5.6 2.5l.1.1c-2.4-2.1-2.5-2.6-.2-3.8 2.3-1.1 4.7-1.6 7.3-1.7 3.2-.2 4.8 2 4.1 5.3-.4 2-1.2 4-2.3 5.7-2.2 3.4-2.3 7-1.4 10.7zM224 59c1.9.4 2.3 2 3.5 2.7 1.5.9 1.1 2.4.5 3.8-.5.9-1.5 1.2-2.4.7-1.3-.5-2.8-1-2.6-2.8.3-1.5.6-3 1-4.4zm-6.1 45.7c.2 1.4-.2 2.8-.9 3.9-.7.9-1.2 2.4-2.7 2.3-.6-.1-1.1-.6-1.2-1.3-.3-1.6-.4-3.2 1-4.3 1.1-.8 2.5-1 3.8-.6zm100.7-43.1c-.4-.5-.7-1.2 0-1.6 1.1-.8 2.6-.5 3.4.6.1.1.1.2.2.3.9 1.5.9 3.2-.3 4.4-1 .9-2.7 1.2-3.3-.9-.1-.9-.2-1.9 0-2.8.3-.2.4-.3.1-.4 0 .2-.1.3-.1.4zm1.4 42.2c.7 4 .7 4-1.8 6.2-2.2-4.9-2.2-4.9 1.8-6.2zm-42.7 43.8c-1.4-.4-2.4-1.6-2.5-3.1-.2-1.5 1.3-1.6 2.3-1.8 1.9-.3 1.9 1.2 1.9 2.4s-.4 2.3-1.7 2.5zm.2-1.9l-.1.2h.2l-.1-.2z"/><path class="st0" d="M299.1 49.7c.8 1.7 4.2 2.6 1.8 5.4l-.5-.5-.7-.7-1.3-3.5.7-.7zm-49.5-12.2c-.6 1.3-1.5 2.3-2.7 3l-.4-.3c.7-1.3 1.5-2.6 3.1-2.7zm19.9 83.7c-1.2-1-1.3-1.9.1-2.7l-.1-.1v2.8zm56-80.6c-.3.9-1 1.7-1.9 2.1l-.5-.6 1.9-1.9.5.4zm-72.1-4c.5 0 .8.2.8.8 0 .1-.2.3-.3.3-.5-.3-.5-.8-.5-1.1zm-91.6 65.5l.1-.9c.7.5-.1.6-.1.9z"/><path class="st0" d="M269.6 118.5l-.1-2.1-.1.1c.2-.2.5-.3.7-.2l.4.3c-.1.7-.5 1.4-1.1 1.8l.2.1zm-17.2-62.7c.2-.2.3-.6.5-.6s.6.2.3.4c-.1.2-.4.1-.8.2zm-1.7-19.2c-.2.5-.6.8-1.1.8h.1v-1l-.1.1.4-.1h.5l.2.2zm-3.7 16l.9 1-.5.5-1-.9.6-.6zm1 1.1l.9 1-.5.4-1-.9.6-.5z"/><path class="st0" d="M248.9 54.6l1 .9-.7.5-.8-1 .5-.4zm8.2 42.6c.1-.1.2-.3.2-.3.4 0 .3.2-.2.3zm62.4 1l.3.2-.3-.2zm-73.6 6.7l-.1-.1.1.1zm-23.7 13.5l.2.3-.2-.3zm48.2 3.9zm.1-.1l-1-1-.1.1 1.1.9zM78.4 93.7l-.6.3c-5 2.9-10.1 5.7-15.9 8.9 0-3.8-.1-6.8 0-9.9.1-2.8-.7-5.4-1-8.1-.1-1.5-.9-2.4-2.4-2.4-1.8.1-1.8 1.5-1.8 2.8.1 1.9.3 3.8.5 5.7.7 4 .7 8 .1 12-.4 2.4-.2 4.7-.5 7-.1.6-.2 1.1.5 1.5 2.7 1.6 5.1 1 6.6-2.2.6-1.1 1.5-2 2.6-2.7 4.6-3.4 9.1-6.8 13.7-10.2-.8-.5-1.4-1.6-1.8-2.7zm211.5 255.1c1.9-1.6 3-1.3 2.7 1.3-.3 1.4-.6 2.8-1.1 4.1l-1.3 1.1-.1-.1c.8.1 1.3-.3 1.4-1.1 3.2-1.3 4.7-5 8.1-6.1 1.3 2-.7 3.3-.5 5l-1.5 1.1-.2.1.3-.1 1.3-1.2c1.1-1.1 2.2-2.3 3.5-3.4 3.7-3 2.5.5 2.7 2.2l-1.2 1.2-.3.3.2-.4 1.3-1.2 7.2-6.1c1 2.7-1.3 3.6-1.9 5.2-.8 2-4.3 2.5-3.1 5.6l.6.6c-2.5 4.5-8.7 1.6-11.7 6-.7 1-.7-1.6-1.1-2.6l1.4-1.3 1.3-1.3.3-.2-.2.3-1.3 1.3-1.4 1.3c-2.2.5-2.6 3.9-5.6 3.7-.1-3 3.6-4.6 3-7.6l1.4-1.3.2-.1-.1.2-1.4 1.2-8.7 8c.5-6.3 5.5-9.2 6.2-14.2l.4-.5-.2-.3.3-.2-.9-.5zm-170.5-72.9c2.3-.2 5.1-1.5 3.4 3.3-1 2.7-2 4.5-4.6 5.4-.5.1-.6-.1-.1-.4l.1.4c6.8 2.7 1 8.7 3.1 12.7-2 .4-4.2 1.5-5.9 1-1.7-.5 1-2.3.2-3.6l1.3-1.4.3-.2-.2.3-1.3 1.4c-3.6-2.8 2.5-4 1-6.5l.3-.1-.2.1c-1.5.2-2.9 2.8-4.3 1.1-1-1.3 1.5-2.1 1.9-3.5l.1.1c-1.1.2-2.7 1-3.3.5-1.3-1.1.7-1.9.9-3 1.6 0 3-1 3.7-2.5l2.4-1.3c0-.2.1-.3.1-.5v.6c-1.1-.2-2-.2-2.7.9-1.6 0-3.1 1-3.7 2.5-1.6 0-3.4-.3-1.4-2.2 2.3-2 4.7-3.9 7.3-5.6l.8.6c.1-.7.4-.7.9-.3l-.1.2zm-74.2 74.5c-2-.8-5.8 2.3-5.7-3.4 0-1.8-4.1.4-7-1.9 4.1.6 8-3.1 10.1 2.6.1.3 1 .6 1.5.5 1.6-.2 4.6-.9 4.4-.2-1 3.9 4.2 5.6 2.6 10.1-.8 2.2-1.2 3.4-3.2 3.7-3.6.6-1.4-1.5-1.3-2.8.1-1.3-1.1-1-1.7-.7-1.6.9-3.2 1.3-4.2-.7-1-2.2 1.3-2.6 2.3-3.7s2.2-1.9 2.2-3.6l.3-.4-.3.5zm210.3 2.4c.3-.2.7-.3 1-.2l.5.5c-3 4.7-5.9 9.5-9 14.2-.5.8-1 2.7-2.5 1.6-.9-.6-2-2.4-1.8-2.9 3.7-7.1 6.6-14.9 12.9-21.2 1.7 3.8-1.1 5.6-1.1 8l-.3.1.3-.1zm-3.7 2.5l-.1-.5.5.5h-.4l-.4.1.4-.1z"/><path class="st0" d="M119.1 274.3c-4.7-.4-8.2 3.1-13.3 4.6 2-4.3 6.1-5.9 7.3-9.5-2.6-2.4-4.6 1.5-7.9-.2l9.1-6.1.5.6c1.6 1.7 5.6-.5 5.6 3.1-.1 2.6-2.6 3.8-5 4.6-.8.3-1.4 1.3-2 2l-.2.2.2-.2c1.9-.5 3.9-1.3 5.8-1.3 3.8-.1 2.5 1.4.7 2.9l-.8-.7zm-1.3-7.8c-.5-.2-1.1-.4-1.6-.5-.5 0-1.3 0-1 .9.2.5.7.8 1.2.9.4-.1.8-.7 1.4-1.3zm147.7-15.9c2.6-2.3 2.6-6.5 5.7-8.4 1.9 2.8-1.7 5.6.2 8.3l.6.6c-.3 1.2-1 3.3-1.8 2.9-2.5-1.3-3.9-.8-5.8 1.1-1.9 2-1.1-3.9-3.6-1.6l-.4-.5 6.1-14.1c1.8 5-1.5 8.2-1 11.7zm-111.3 84.7c-4.2-2.1-1-2.6.7-3.4 2.4-1.2 6.6-1 4.4-5.8l-.1.1c5.1 3.4.9 8.4 2 12.5.6 2.2-.4 4.6-2.5 5.7-1.7-2.7-1.2-7.5-6-7.3l1.3-1.9c.2-.1.3-.1.5-.2.1-.1 0-.2 0-.4l-.3.7zm137.4-90.6c-.6 3.2-2 6.3-4 8.8-2.2-1.9-.5-4.3-1.6-6.1-2.3 1.2-1.5 5.8-4.6 5.4-2.4-.3-.3-3.2-1-4.8l-.1.1c.7-1.1 1.3-2.2.3-3.5l-.5-.7c.2-2.5 1.4-4.6 3.1-7.1 1.9 3.5-.4 6.3-.1 9.6 2.2-1.6 2-4.8 4.5-6.1 2.2 2.4-1 5 1 7.2 1.6-.3 1.3-2.7 2.8-3.4-.1.2 0 .4.2.6zm-27.4 110.9l-2.3 1.3-.6-.6c1-1.9 1.5-4.2 4-4.6l.1.3-.1-.4c.1-2.9 2.4-3.9 4.2-5.9 1.9 3.8-2 5.7-1.5 8.5l-.1-.1 2.1-1.5.6.6-12.6 16.2c-.2.3-.7.4-2.3 1.1l8.5-15.1.1-.2-.1.4z"/><path class="st0" d="M307.7 240.9c-.4 1.2-.8 2.4-1.3 3.5-.8 1.8-1 4.7-3.5 4.5-2.5-.2-.7-3.4-2-4.7-3.2 1.1-1.9 7-6.1 6.6-3.3-.3-1.4-4.4-3.1-6.1-.1-.2-.2-.4-.4-.6 0-1.4.7-2.7 1.9-3.4 2 2.2 0 5.6 1.9 8.2 3.7-2.9 3.3-8.3 7.1-10.7 2.5 1.3.8 4 2.1 5.7l3.1-3.7.3.7zM259 351.3c-.1.3-.4.5-.8.5l-.6-.6c1-2 2.3-3.8 5-4.2.6 4.3-2.8 7.1-3.3 10.9.3-.1.6-.2 1-.2l.6.6c-.7 1.3-1.2 2.9-2.8 3.4l-.1-.3.1.4c-.8 4.3-4.2 6.9-6.3 10.3l-1.4-.7c1.8-3.8 3.7-7.6 5.4-11.5 1.1-2.8 3.9-5 3.2-8.6l.2.1-.2-.1zm75.4-116.1c.5-1.9.5-4.9 2.9-4.6 2.3.3.4 3.4 1.8 5.1 1.6-1.5 4-7.9 4.6 1.3l4.7-6.5c2 2.4 1 4.9 1.3 7.1-2.4 1.3-1.2-3.1-2.4-1.7-2 2.4-4.5 1.8-6.4 2.6-4 1.8-3.6.2-3.8-2.5-.3-3.1-1.4-.2-2.2-.2l-.5-.6zm6.5 120.2c1.4 0 2.5-2.3 3.8-1.2 1.6 1.4-1.7 2.6-.4 4.7 4.4-5 4.9 3.4 9 1.6-1.1 2.1-2.9 3.8-5.1 4.8l.1.1-.9-5.2c-2.1-.8-4.9 3.4-6.5-1l.1-.2-.1.3c-1.4 0-2.3 1.8-4.1 1.1-1.6-1.7 2-3 .7-4.8l-.6-.7c1.6-2.3 2.9-1.2 4 .5zm-27.5-113.9c.6-2.2 1.2-4.4 3.6-5.9l.9 4.8c2.3-2.4 2.7-6 6-7.7 2.2 2.6.1 6.2 1.8 8.7l.7.6c-.8 1.5-1.6 3.6-2.8.4-.6-1.6-.3-3.6-.3-5.7-3 1.5-2.9 4.6-4.4 6.7-2.9 3.9-2.3-4.3-4.8-1.5l-.7-.4zm-30.9 49.3c3.2-1.6 3.2-1.6 4 4l-.8.6.5.3.1-1 4.7-5.2.6.5-8.2 14.6c-3.3-4.8 2.8-9.2-.3-13.2l-.6-.6z"/><path class="st0" d="M337.5 355.7c-1.4 1.4-3 2.6-4.7 3.7-2 1-4.2 4.1-6.2 2-1.6-1.6 1.6-3.8 2-5.9l.2-.4v.5l-2.4.1-.5-.5c1.8-2.4 4.2-4.2 7-5.3.6 3.7-2.8 5.5-3.3 9 3.1-.3 4.9-2.9 7.4-3.8l.5.6zm-64.3-59.2l-5.7 9.9c-1.5-3.9.5-6.2 1-8.5.3-1.9.1-2.3-1.6-1.6l-.5-.5c.8-2.6 2.6-4.9 4.8-6.4 1.5 2.2-.1 4-.3 5.8-.3 2.3 1.1.7 1.8.7l.5.6zm1 59l2.1-1.6.6.6c-2.9 4.5-6.5 8.4-10.6 11.7 1.4-6.3 5.7-9.7 6.5-14.6l-.1.1c-.1-.4 0-.8.3-1l-.6-.7c.7-1.3 1.8-2.8 3.3-1.8 1.2.8 0 2.3-.5 3.3-.6 1.3-1.5 2.5-1 4.1l-.5.2.5-.3zm-22.3-101l3.6-3.8c.3 1.6-.8 2.7-1.5 4-2.2 4.2-4.2 4.8-6-.3l.1.1c.5-4.2 2.6-7.5 5.3-12.4 1 5.5-2.6 8.7-1.5 12.4l-.3.1.3-.1zm9.8 41.6h-1.3l.1.1v-2.6l-.1.1c2.2-1.1 2-4.4 5.1-5.4l-1.5 9.2.1-.1c-.9.6-1.2 1.3-.3 2.2l.6.7c-.6 2.6-2 5-4.1 6.7-1.4-4.4 1.6-7.5 1.3-10.9l.1-.2v.2zm9.6-45.7c1.4-3.4 2.5-7.1 5.7-9.8 2.4 2.9-2.3 6.1.6 8.6l.5.5c-.6 7.6-3.9 2-6.1 1.3l-.7-.6z"/><path class="st0" d="M272.6 295.9c.6-2.5 2.3-4.2 3.8-5.7 3.3.1-1.1 5.7 3.6 4.4l.5.5c-1 3.4-3.1 6-5.5 9.4-1.7-4.2 1-6.8.6-10.1l-2.4 2-.6-.5zm18.5-6.4c.5-1.4 1.6-3 2.9-2.4 2.6 1.4.7 4.3 1.1 6.4l-.2.2.2-.2c.3-.2.6-.3 1-.3l.5.6c-1.1 2.9-2.9 5.4-5.1 7.4-.8-4.1 1.4-6.7 2-9.6.3-1.7.1-2.5-1.7-1.7l-.7-.4zm19.9 63.1c.9-.8 1.7-1.7 2.4-2.6 2.7-3.8 3.8-1 4.9 1.3l.6.6c-1.1 1.1-2.2 2.3-3.4 3.4s-2.2 2.3-3.7 1.5c-1.7-.9 1.4-2.5-.3-3.6l-.5-.6zm-196.3-95.4c3.3 2.1 4.3 4.2 0 6.4l-.5-.6c.5-1.3.7-2.6-1.4-2-2 .6-3.6 1.7-6.3 1 1.8-3.2 5.2-3.7 7.6-5.4l.6.6zm142.1-9.1c-.1-2.7 1.5-4.5 3.3-6.9 2.2 4.1-2.8 8.1.3 11.6l.4.5c-.3 1.4-.7 3.1-2.3 3-1.1-.1-1.4-1.8-1.2-3.1.1-1.7 1.1-3.5-.5-5.1zm68.9-6.6c.5-2.4 1-4.8 3.2-6.8 1.9.6.4 4.1 2.3 3.8 1.2-.2 2.1-2.1 3.2-3.3l.5.5c0 .2 0 .4-.1.6-.7 5-4.1 6.2-8.4 5.9l-.7-.7zM310.9 292c2.9.6 6.5.4 8.4 2.2 1.6 1.5 2.9-.1 4.2 1-1 1.3-1.7 2.7-3.3 3.2-.9-5-8-.6-8.7-5.9l-.6-.5zm3.1-49.9c-1 1.6-.8 4.9-3.1 4.8-3.1-.2-.8-4.7-3.2-5.9l-.5-.6c.4-1.3.9-2.6 1.8-3.1 3.4-.2-.4 5.9 4.3 4.4l.7.4z"/><path class="st0" d="M302.4 293.4c2.2-4.6 5.5-2.6 8.6-1.3l.6.5c-1 2.4-2.5 4.4-4.5 6-2.6-.9 4.3-9.2-4.1-4.7l-.6-.5z"/><path class="st0" d="M296.1 293.3c2.2-5.5 4.1 1.3 6.3.1l.6.5c-.9 2.3-2.4 4.3-4.3 5.9-2.3-1.4.1-4.5-2-5.8l-.6-.7zm-51.7-46.4c-.1-1.5.4-2.8 2.4-4.5.4 3.1.1 6.3-.7 9.4-.6 2-.4 3.2 2 2.7l-.1-.1c0 1.8-.9 2.7-2.6 2.4-1.3-.3-.9-1.5-1-2.5-.3-2.5 2.2-5 0-7.4zm77 106.3l-2.2 5.4c2.5.6 3.4-2.1 5.2-2.3l.6.6c-2.1 2.1-4.5 6.2-7.3 3.5-2.4-2.3 1.4-5.3 3.1-7.8l.6.6zm-43.3 8.8c-1.3 1.7-2.3 3.8-5.1 4.2.5-4.4 3.3-7.1 5.8-9.8l.6.6-.3 2.3.1-.1-.9 1-.7.7.2.2-.2.2.5.7zm3.3-11.7l-2.1 1.5-.6-.6c1.4-2.5 3.6-4.4 6.1-5.5 1 3.5-1.2 5.4-3 7.5l-.5-.4c0-.9 0-1.7.1-2.5zm0 5.1l7.2-5.5.6.6-8.7 8.8-.6-.6.4-2.2-.1.1 1.4-1.4-.2.2zm39.4-6.7l4.1-4.5c.5 4.5-1.7 6.6-3.5 8.9l-.6-.5.1-2.1.4-.5c-.1-.2-.1-.4.1-.6l-.6-.7zm-76.5-101.9c-.4 3.1-2.4 5.4-4.4 7.7.5-3.2.3-6.8 4.4-7.7zm16.1 49.3c0 2.4-1 4.2-3.4 5.9.2-2.9.9-5.8 2.3-8.4l-.1-.1 1.2 2.6zm-143.6-41.7c-.3-.9-2.2-.7-1.5-2.1.1-.3 1.8-.4 2.3 0 1 .8.8 1.8-.5 2.2l-.3-.1zm163.5-6.3l-2.2 1.6-.5-.5c.2-1.9 1.1-3.7 2.4-5.2l.5.7-.3 3.5.1-.1zm-121 78H154c2.5-1.2 3.8-.7 5.3 0zm107.5-29.8c-.3 1.6-1.2 3-2.4 4l-.6-.7.3-2.2-.1.1 2.2-1.6.6.4z"/><path class="st0" d="M281.9 353.1l-.4 2.3.1-.1-1.4 1.4.1-.1c-.3.3-.6.5-1 .4l-.6-.6c.4-1.5 1.3-2.8 2.6-3.7l.6.4zm-1.8-58.5c.2-1.6 1.1-3 2.4-3.8l.6.6-2.5 3.7-.5-.5zm-163.9-45.1c-.3.2-.6.7-.9.7-.8 0-.8-.6-.5-1.2.2-.3.6-.3 1-.5l.4 1zm143 44.1l.8-1 .4 1 .1-.1h-1.4l.1.1zm-2.5-45.5c.1 1 .1 2.2-1.2 2.5 0-1 0-2.1 1.2-2.5zm-140.9 7.7l-1 1.5-.6-.6c.5-.4 1-.7 1.4-1l.2.1zm1.2-1.3c-.4.4-.8.8-1.2 1.3l-.2-.2 1.3-1.2.1.1zm2.7 20.4c0 .4-.1.7-.3 1h.1c-.2.3-.5.4-.9.3l-.8-.6 1.3-1.3.6.6zm170.4 75.5l-.5.1h-.5l-.6-.6 1.3-1.2.7.7-.1.5-.3.5zm30.8.2l-.4.1-.4-.1-.5-.5 1.2-1.3.6.7-.1.6-.4.5zm-2.6.7l1.3-1.2.5.5-1.2 1.3-.6-.6zm-61.7 1.4l1-1.4.6.6-1.1 1.4-.5-.6zm13.5-.1l1.2-1.3.5.6-1.1 1.3-.6-.6zm7.4 0l1.1-1.4.6.6-1.2 1.3-.5-.5zm.5.5l-1.1 1.4-.6-.6 1.2-1.3.5.5zm31.7.8l1.3-1.2.6.6-1.4 1.2-.5-.6z"/><path class="st0" d="M310.2 354.4l-1.2 1.3-.6-.6 1.3-1.2.5.5zm-38.9-3.1l1.2-1.3.6.7c0 .4-.1.7-.3 1l.1-.1c-.3.2-.7.3-1 .3l-.6-.6z"/><path class="st0" d="M309 355.6l-1.3 1.2-.6-.6 1.3-1.3.6.7zm17.3 0l-1.3 1.2-.6-.6 1.4-1.1.5.5zm-64.4 1.3l-1.1 1.4-.6-.6 1.1-1.4.6.6zm18.6 2.5l-1.2 1.3-.6-.6c0-.4.1-.7.4-1l-.1.1c.2-.3.5-.5.9-.4l.6.6z"/><path class="st0" d="M279.3 360.7l-1.2 1.3-.6-.7v-.5l.7-.7h.6l.5.6zm69 4.6z"/><path class="st1" d="M90 161.8c1.7-3.2 6.3-2.7 7.8-6.3.2-.4 1.1.4 1.6.4 1.8 0 3.7.6 5.5-.2 4.7-2.1 9.5-.1 13.2 1.5 4.4 2 9.5 3.5 13.1 7.6 1.7 2 4.7 2.8 4.3 6.3 0 .3.1.6.4.8 4.4 2.4 2.9 6.2 1.9 9.7-.5 1.9-.1 3.9 1.1 5.4 3.8 5.2 3.9 7.4.1 12.2-2 2.7-3.3 5.9-3.5 9.2-.3 2.4.3 4.8 1.5 6.8.6 1 2.1 1.9 1.2 3.2-.9 1.6-2.8 2.2-4.5 1.5-1-.4-1.8-1-2 .4-.4 2.8-2.2 4.5-3.9 6.4-.6.5-1 1.3-1 2.1 0 .9-.2 2.1.7 2.6.7.4 1.6.3 2.2-.3 2-2.2 4.3-1.4 6.5-.6 1.3.5 2.7.9 4 1.5 4.2 2.1 8.6 3.4 12.9 5.1 2.6 1 4.5 3.7 7.2 3.7 3.9-.1 6.9 1.8 10.3 2.9 1.9.8 3.6 1.9 5.1 3.3 1.6 1.2 2.9 3.1 2.6 4.9-.5 2.9 1.1 5.1 1.5 7.6 1.2 7.9 4.8 15.2 6.1 23 1.1 6.9 4.7 12 8.5 17.3.9 1.3 2 1.3 3.3 1.3 3.8-.1 7.5-.4 11.3-.4 2.5 0 3.3-2.1 4.7-4 1.3 1.3 1.5 3 3.3 3.8 4.9 1.9 5.6 4.3 4.6 9.9s-2.4 11-1.8 16.6c.3 3.4.3 3.3 3.6 2.5 4-1 8-2 12.1-1.4 1.9.4 3.8.1 5.5-.9l-.1-.1c1.3 2.8 2.5.1 3.8 0l-.1-.1c.3 2 1.7 1.9 3.2 1.7 13.2-1.8 26.4-.4 39.6-.8.9.1 1.9.2 2.8.4 2.4.3 5 2.2 6.9-1.2.2-.3 1.2-.3 1.8-.2 7.4.2 14.7-1.3 22.1-1.2 6.1.1 12.1-1.8 18.1-2.8.8-.1 1.6-.5 1.5-1.5-.1-1-1.1-1.2-1.8-.9-4.4 1.8-8.9.9-13.4.6-8-.5-15.9 1.2-24 1-4.6-.1-9.1-.6-13.6-1-7.4-.8-14.2 2.7-21.3 3.4-2 .2-3.9 1-6 .2 4.2-2.1 8.6-4.3 13-4.2 10.6.3 20.9-2.8 31.4-2.4 3 .1 6-.3 8.9.1 6.8.9 13.4-1.9 20.2-.9 3.5-2.5 7.6-1.6 11.4-2.2 1-.2 1.9-.3 2.2-1.5-.3-1.3-1.4-1-2.3-.9-7.7.2-15.4-.6-23.1-.1-2.9.2-6.3-1.2-9.5-1-4.7.3-9.4.5-14 1-4.9.5-9.9 1.2-14.8 1.6-3.3.2-6.2 2.3-10.6 1.8 6.4-2.9 12.7-2.2 18.5-4.5-1.4-1.6-3-.4-4.2-1.3.1-.6.7-.3 1-.5 3.4-1.3 6.7 2.4 10.2 0 3.3-2.2 7.4.2 10.5-1 7.4-2.7 14.6.8 21.9-.2 2-.3 4.1.1 5.1-2.4-4.9-.9-9.9.6-14.8.5-1.8.1-3.6-.5-5.1-1.5-3.6-2.3-7.9-1.6-11.9-1-1.2.2-2.4.6-3.6.2-.9-.3-1.9-.8-1.6-2 .1-.9.9-1.4 1.8-1.3.2 0 .3.1.4.1 4.5 2.2 9.3.9 14 1.5 1.6.3 3.2.2 4.7-.3-1-3.4-3.1-4.9-6.4-4.4-5.6.8-11.3 1-16.6 3.1-1.5.5-3.1.7-4.6.6-1.7-.1-3.2-1-5.1.8-1.5 1.5-4.9-1.2-7 .3-2.3 1.7-4.3.5-6.5.3-1.7-.2-3.5-.2-5.1-.3-1.5-.1-3.1.2-5.3-.6 5.4-.6 10.2-.5 14.9-1 12-1.3 23.9-3.9 36.1-4.1.9 0 2.2 0 2.3-1.2.1-1.7-1.5-1.4-2.4-1.5-11.6-.8-23.3-.5-34.8.7-5.9.7-11.9 1.1-17.8 1.7-4.4.4-4.2.8-3.7 5 .4 3.8-.3 7.8-.5 11.6.1 1 0 1.9-.3 2.8-1 2 .6 4.8-1.6 6.3-2 1.4-3.3-2.1-5.7-1 1.4-1.5 4.5-2.1 2.2-5-.3-.3.4-.9.9-.9 3.2.1 2.9-2.6 2.9-4.4 0-3.3 1.7-7.2-2.1-9.6 2.7-2.6-1.2-7.2 2.6-9.5 1.3.2 1.2 1.3 1.4 2.2.5 1.6 1.6 1.9 3 1.6 9.1-1.6 18.4-2.1 27.7-3.2 6.1-.8 12.2-.1 18.4-.9-4.9-2.3-10.1-3.7-15.5-4-6.6-.3-13.2-.1-19.7.7-6 .5-12 0-17.8-1.6-1.8-.4-3.7-.9-5.5 0-.3.7 0 1.2.4 1.8 1.1 1.6.4 2.7-1.3 2.4-3.9-.7-7.9-.7-11.5-2.4-1.5-.7-3.3-1.3-3.1-3.6.1-2.2.7-4.1 2.7-5.3 2.1-1.1 4.4-1.7 6.8-1.7 3.5-.2 6.9-.2 10.4-.1 2.3 0 3.5-.8 3.4-3.4-.1-3.4.1-6.7 0-10.1 0-1-.2-3-1.4-2.5-3.5 1.7-6.4-1-9.6-.7-3.1.2-6.3.2-9.4 0-1.5-.1-3.2 0-4.4-1.9 4.5-1.8 9-.1 14.1-1-6.5-4.2-14-3.3-20.3-6.7 1.4-1.8 2.1-.6 2.9-.4 1 .3 2.2.9 3-.3.7-1 .3-2.1-.2-3.1-.6-1.5-3-2.6-1.7-4.5s3.2-.2 4.8-.1c3.7.3 7.2-.4 10.7-1 6.1-1.1 12.2-3.1 18.5-3 1.4 0 2.7-.7 4.1-1 1.1-.1 1.9-1.1 1.9-2.2.9-6.2 6.5-11.9 12.5-13 1.7-.3 3.5.1 5-1 .8-.6 1.4 0 2 .3 1.7.9 3.2 2.1 4.3 3.6 1.3-1.3.1-2.6.4-3.8.7-2.6-.8-3.5-2.8-4.1-.8-.2-1.5-.5-2.2-.9-1.9-.9-2.7-2.3-1.2-4.2 4.3-5.7 8.2-11.8 12-17.9.9-1.3 2.4-2.2 3.9-2.5 4.4-1.3 9-1.9 13.5-1.7 4.6.3 7.5 2.7 8.4 7.4.5 2.5 1.5 3.7 4.1 3.5 2.8-.2 3.5 1.5 3.4 3.9s.3 4.5 2.6 6.3c2.4 1.8 3 4.8 2.7 7.8-.2 2.1.2 1.8 1.8 3.7 1.1 1.3 1.3 3.6 3.3 4.2 2.7.7 5.6.6 8.3 1.6.8.3 1.4-.5 1.8-1.2.6-1 1.2-2.1 2.2-3.8 2 6.1 3.1 11.5.9 17.1-.3.8-.6 1.6-1.6 1.1-4.1-2.1-6.8.9-9.2 3.3-1.5 1.5-2.5 1.9-4.4 1.4-1.1-.2-2.2-.3-3.3-.2-2 0-3.2.9-3.2 3.2-.1 1.9-.1 3.9 0 5.8.5 4.2-.9 9.4 5.5 9.9-.3 2-1.4 1.8-2.3 1.9-2.5.3-2.2 2.2-2.2 4 0 1.8.9 2.6 2.6 2.8 7.7.7 15.3 2.1 22.7 4 1.2.4 2.6.3 3.7-.3 1.9-1.3-4 10-13 11.9 2 1.4 3.3 1 4.4 1.2.8.1 1.7.3 1.8 1.2.1 1.3-.9 1.7-1.8 1.6-3.3-.5-4.9 1.5-6.2 4l.1-.1c-1.2 2.2-4.5 3.5-2.4 7.2 1 1.8-2.3.9-2.6 2.4l3.8 2.8c.6.5 1.3 1.4 2 .9 1.3-.9 2.4-1.4 3.7 0 1.7 1.8 4.1 3.1 4.9 5.7.7 2.2-.3 3.8-1.9 5.5-1.6 1.7-2.6 1.7-4.4.9-1-.4-2.3-1.6-3.3.1-1 1.7-2 3.3-2 5.3 0 1 1 1 1.8 1 4.2-.2 8.4.4 12.6-.9 2.7-.9 1.2 2.1-1.3 3.5 2.5.5 5.6 3.8 4.8 3.6-2.3-.5-2 1.2-2.2 2.5 4.6.1 3.1 2.7-.3 2.1-1.4.1-2.8.6-3.9 1.6-2 1.4-4 2.5-6.5 2.3-2.6-.2-3.3 1.9-4.3 3.8-.4.8-.2 1.3.4 1.6 3 1.4 4.9 4.5 8.1 5.7 3.3 1.1 5.6 8 3.9 10.9-.1.1-.2.4-.3.4-2.7-.1-5.3.1-7.7 1.6-2.2-3.3-5.2-1.3-7.7-.8-1.8.3-3.6.3-5.3 0-6-.5-12-1.3-17.6 2.2-.4.2-1.1.5-1.3.3-3-3.1-6.9-1-10.2-2 1-1 2.8.3 3.9-1.3-4.2-.1-8.2-.6-12.3.6-2.1.6-4.4.6-6.5 0l.1.1c-5.4-1.4-10.7-.8-16.3.5.8 2 3.3 2.1 4 4.2-11.8-5.7-23.8-4.2-35.7-2.3-4.3.8-8.8.7-13.1-.1-3.1-.7-3.4-1.5-1.3-4.2.7-1.1 1.1-2.3 1.1-3.6.3-1.9.3-3.8.6-5.7.2-1.2.1-2.8 1.5-3.3s1.7 1 2.4 1.7c1.8 2.1 4 1.3 6.1 1 .7-.1 1.1-.6 1.2-1.3 0-.6 0-1.3-.1-1.9 0-8 0-8-7.4-9.4-1.4-.3-2.8-.4-3.5-1.9l-.1.1c2.5 0 5 .4 7.4 1.1 2.3.6 3.9-1.5 5.4-1.4s2.8 2.4 5.1 2.3c10.8-.4 21.7-.1 32.5-1 7.5-.7 15-1.5 22.5-1.7 1.6 0 3.1-.1 4.5-2.6-5.1.4-9.6.2-13.9 1-8.9 1.7-17.7 2.1-26.4-1-5-1.8-10.2-1.6-15.4-1.7-4.2 0-8.5 0-12.1-2.9-1.2-1-2.8-1.2-4.1-.5-2.6 1.9-5.7 1.1-8.2 2.2-2.6 1.1-5.5 1.3-8.2.5-1.4-.3-3.6-2-4.4.5-.7 2.2-.3 4.6 2.7 5.2.6.2 1.2.5 1.7.9-2.2 1.2-3.7 2.4-3.6 5.1.4 9.9-.3 19.9.7 29.8.2.6.1 1.3-.2 1.8-1.9 2.8-1.8 5.5.1 8.4 1.2 1.9-.9 3.1-2 4.2-.8.7-2.3 1.6-2.7-.7-.2-.8-1-.9-1.9-.9-8.5.1-17 0-25.6 0 .4 2.4 2.4 1.6 3 3.1-3.2.4-6-1.2-8.9-1.9-6.4-1.6-13.1-1.9-19.7-1-5.4.8-10.9 1.2-16.4 1.3-9.9-.1-19.8 0-29.6 1.7-4.8.8-12-4-14.8-9.4-2.1-4.1-2.4-7.8-1.7-13.1.3-2.2 1.8-4.6-.4-6.9-.6-.6-.3-1.4.2-2.2 1.7-2.3.4-4-1.3-5.2-1.7-1.4-3.7-2.5-5.7-3.4-4.1-1.6-6.3-4.2-6.3-8.8 0-3.7-.7-4.2-4.2-3.5-5 .9-9.7 2.2-13 6.9-2 3-5.9 3.6-8.8 5.4-3.8 2.2-7.8 4.2-11 7.4-1.7 1.7-4.1 2.3-6.2 3.3-.2-.2-.4-.4-.7-.5-.1 0-.2.1-.3.1.2.5.7.3 1 .3-6.4 6.1-13.7 10.9-21 15.7-4 2.7-10.3 2-14-1-2.7-2.3-3.9-8.1-1.6-8.8 3.4-1.1 1-2.1.5-3.1-2.4-5.2-.5-10.5 5.8-12.2-.7 1.6-1.5 3.2-2.4 4.6-1.5 2.2-1.6 4.7 0 6.1 2 1.8.8 3.7.9 5.5 1.8-.4 2.9-4.2 5-.6.5.8 1 0 1.3-.5 2-3.1 5.5-4.5 7.8-7.3 1.2-1.4 3.3-1.9 5.1-2.1 2.4-.3 3.5.9 3.5 3.3 0 .8-.3 1.6-.3 2.4s-.4 2.1.6 2.6c1.3.6 2.1-.6 2.6-1.5 1.2-2.6 1.5-5.6.9-8.4-.3-1.5 1-3.1-.8-4.4-4.6-3.4-8.9-7.4-15.3-4.4-.5.1-.9.2-1.4.1 1-1.5 2.2-3.1-1-3h-4.5c-2.3-1.6-4.7-.7-7-.4 2.3.7 4.7.8 7.1.3.8 3.1 3 3.3 5.6 3l-7.5 4.8c2.8-5.4 2.8-5.6-3-6.4-5.8-.9-10-2.9-7.1-3.5 4.1-.9 8.5-.9 12.6.1 5.4 1.3 11 .4 15.8-2.4 3.8-2.4 7.1-5.7 9.5-9.5.2-.3.3-.6.3-.9-.7-8.7 2.4-17 2.4-25.7 0-6.5 0-12.7-2.3-18.8-.4-.9-.5-1.9-.1-2.8 3-5.7 3.1-12 3.9-18.2.9-7.4 4.6-13.6 8.7-19.4 1.3-1.8 3.3-3.1 4.4-5.4 1-2 3.8-2.3 6-1.4 1.3.6 2.8.6 4.1.1 5.9-2.3 12.1-3.5 18.1-5.2 5.3-1.4 8.4-6.9 7-12.3-.1-.3-.2-.6-.3-.8-.6-1.6-1.9-2.7-3.5-3-4-1-5.2-3.6-4.6-7.5.7-4.6-1.3-8.5-3-12.4-2.9-6.3-3.8-12.4-.2-18.8.8-1.4 1.5-3.1 1.1-4.6-.9-3.4 1.5-6 1.5-9.2 0-1.9 1.5-3.4 3.3-3.5v-.1c-.8 1.5-2.9 2.7-1 5.7.7-2.7 3.5-3.8 2.1-6.6zM10.7 373.6l.2.2-.2-.2zm309.8-81.9zm-83.2-39.5l-.9-1c-.3-.5-.9-.7-1.5-.6-.1 0-.1.2-.1.4l1.6.2.9 1zm-116.2-14.4c.7 0 1.4-.4 1.9-.9 1.4 0 3 .6 3.9-1.5-2-.7-3 .1-3.8 1.6-.7-.1-1.5.2-2 .8l-.1.2.1-.2zM56 249.4l.4-.6-.4.6-.1.2.1-.2zm266.4-6.7l.3-.3-.3.3c-.2.3-.8-.3-.8.4l.8-.4zm-14.3-27c.2.3.1.9.7.8.1 0 .1-.5.2-.8 1 .7 1.7 2.5 3.5 1.2 1.5-1.1 1.3-2.4.5-3.7-1.1-1.8-1.4-4.1-3.2-6.1-1.5 3.1-.6 6-.7 8.7l-1-.1c-.2-.4.3-1.1-.5-1.3l.5 1.3zm11.4 15.4c.5 0 .9-.1 1.4-.2.3-.1.2-.5-.1-.4-.5.2-.9.4-1.3.6-.3.3-1.2-.4-.8.6 0 .2.7-.1.8-.6zm1.8-25.1c.9-.7 1.2-1.9.7-2.9l-.7 2.9c-1.1.7-.2 1.3.1 2 0 1.2-.9 2.2-.7 3.6.5 4.4.4 4.4-4.1 6.1 0-2.1 3.7-2.2 2.5-5-1.6-.1-2 1.9-3.5 2.1 1.1-2.9 3.3-5.3 3.7-8.6.1-2 1.2-3.7 2.8-4.8 1.2-.7 1-1.8.8-2.9-.6-3-2.3-4.6-5.5-4.9-2.6-.3-5.3-.3-8 .2-3.6.8-8.4-.4-9.4 5.2 0 .1-.3.1-.4.2-1.9 1.4-3.3 3.4-3.9 5.8-2 2.7-3.9 5.4-5.9 8-1.3 1.7-1.2 2.8.9 3.5 1.8.6 3.5 1.1 4.6 3 2.4 4.3 2.4 4.2 6.7 3 .5-.1.9-.1 1.4 0 .1 1-1.5 1.3-1 2.4.3.6 1 .6 1.6.5 1.9-.4 2.6-1.6 2.7-3.4-1.5-.5-2.3.7-3.4.6.9-2.2 4.1-4.5 0-6.7l-1.9-2 2-.9c.6-.1 1.5 0 1.7-.3 1.1-1.9.5-4.4-1.4-5.6-.4-.3-.9-.5-1.5-.5-1.7-.4-3.4-.2-5 .4-1.6.6-1.1-.8-1.3-1.6 4-.1 8.2-1.3 11.9 2.2.4-3.9 1.3-7.1 3.7-9.8 0 6.2-.1 12.2 4.2 17.1.1 1-.7 2.4.9 2.9-.3 2.4 1.4 2 2.7 2 4.5.1 9-.8 13.3 1.3-.8-2.1-2.4-2.5-4.1-2.4-2.6.1-1.6-1.6-1.5-2.9 2.8 1.4 6.5 1.3 8.3 5.5.4-1.7.5-3.5.1-5.2-.5-1.9-1.9-3.4-3.7-2.9s-4.7-1-4.7 2.7c-1.1-.4-3.1-.5-2.7-2 .5-2.1 3.2-1.2 4.9-2.7-2.2-1.1-3.1-3.4-4.5-5-1.8.1-1.4 3.1-3.5 2 .1-.8.2-1.5.1-2.2zm6.7 97.4l-.1-.2.1.2c1.1.9 2.5 1.4 3.9 1.4 1.7.1.2-2 1-1.8s1.7 1.3 2.6 1.8c.4.1.9 0 1.3-.3.4-.4.1-.8-.4-1-1.4-.7-.8-1.4-.1-2.2s.1-1.5-.6-1.8c-1.8-.8-4.5.6-5.3 2.8-.5 1.1-1.5.9-2.4 1.1zm0-78.1c.6.1 1.2.1 1.9.1 1.5-.2 3.8 2.1 4.3-.4.4-2.1-2.4-2.5-4-3.2-.7-.3-1.5-.4-2.3-.3-5.8.1-11.7-.2-17.5-.9-1.3-.2-2.3.5-1.4 2 1.1 1.7 1 4.7 4 4.5 2.3-.1 4.8-.2 5.6-3.1.3-1.1 1-1.7 2-1.5 2.7.5 5.6.3 7.4 3-1.9.5-3.6-.9-5.5-.8-.8 0-1.5.5-1.7 1.4-.1.7.4 1.2 1 1.5 4.1 2.1 8.5 1 12.8 1.6-1.3-.9-2.7-1.5-4.2-1.8-1.1-.5-2.2-.7-2.4-2.1zM97.6 240.8c-1.3.3-3.1 0-1.8 2.5 4.2 7.9 6.6 16.3 5.5 25.4-1.7-2.2-2.3-4.9-2.9-7.5-1.4-6.4-3.1-12.6-6.6-18.2-1.2-1.8-5.1-4-7.2-3.6-6 1.3-12 2.7-18 4-1.7.4-3.9.9-4.4 2.5-1.3 4.6-5.8 6-8.3 9.3l.1-.1c-1.3 3.9-2.8 7.8-3.9 11.7-1.8 6.5-4 12.9-3.2 19.8.5 4.2 1.7 8.4.9 12.7-.8 4 1.7 7.5 1.5 11.5-.4 6-.1 12.1-.4 18.2-.1 2.1-.8 3.4-2.5 4.2-2 .8-2.7 2.5-3.6 4.2-1.3 2.3.3 2.9 1.9 3.1.8.1 1.8-.5 2.7-.7l.1.1c-.1 1.3-1.2 2-1.9 2.9l-1.1.5.6.5.4-1.1c1.9.7 1.4 3.7 3.5 4 2.8.4 3.6 2.4 4.1 4.7l-.2.2.2-.2c.3.3.8.5 1 .8.6 1.1 1.4 1.9 2.6.9 1.2-1 .1-1.6-.5-2.3-1.4-1.9-.1-2.5 1.4-3 1.3-.4 2.5-.5 3.3.9 1 1.8 2.1.6 2.4-.3 1.4-4.2 5.1-5.8 8.3-7.9 1.6-1 2.5-3 2.2-5-.5-6 2.5-11.2 4-16.8.5-1.8 1.3-3.5 1.6-5.4.6-3.8.9-7.6 1-11.5.2-2.3.4-4.5 2.4-6.3-1 3.4 0 6.6.3 9.9.2 4.2.2 8.4-.1 12.5 0 .6-.5 2.2-1.1 1.1-1.2-2.2-1.6-.8-1.7.2-.4 5.2-2.9 10.1-1.2 15.7.8 2.6 1.4 2.9 3.4 2.8 1.6-.1 3.1-.3 4.7-.4.1-2.9-.1-6 3.8-6.4-.3.6-.6 1.1-.8 1.7-.3 1.2-1.3 2.7.1 3.5 1.5.9 2.8-.3 3.3-1.7.9-2.6 2.9-2.5 5-2.6.7 0 1.7.1 1.8-1 .1-1.1-.7-1.7-1.7-2-3-.9-5.5.1-7.8 2.1-.6-2.5-1.2-4.6 2.8-4.3 1.9.2 3.9-.6 5.9.5.4-5.4 1-10.2-.6-15.1-.9-2.7.2-5.7.3-8.6.1-1.3 1.1-1.7 2.4-1.7 2.7-.1 5.4-.3 8.9-.6-2.3-2.6-3.3-5.2-2.7-7.9.8-3.6 1.3-6.8-2.8-8.8-.7-.3-.9-1.7-1.3-2.5-2-4.4-.7-9.4-2.6-13.8 1.5-.3 1.9-1.4 2.2-2.7 1-4.3 2.2-8.6 3.1-13 .2-1.4.7-2.7 1.6-3.8 2.5-2.8 2-3.4-1.5-4.8-3-.5-6.5-.4-8.9-3 2-.9 3.9.1 5.9.5 2.9.6 5.4.1 8-3-6.2-.6-11.6-3.3-17.8-1.6 1.2 2.1 3.4 2.3 3.9 4.1zm174.6 22.1c1.4 1.4 3.2 1.2 4.9 1.1 16.5-.7 32.9-1.4 49.4-1 2.4.1 4.1-3.1 7.5-.2-1.6-4.5-1.2-7.8-1.3-11.2-.2-3.7-.7-4.2-4.3-3.7-12.7 1.9-25.2 5.4-37.1 10.3-6.1 2.6-12.5 4.2-19.1 4.7 5.3-2.4 11.1-3 16.4-5.4 6-2.7 12.4-4.6 18.6-6.7 5.1-1.7 10.5-2.1 15.6-4.2-4.5.2-9 .7-13.4 1.1-5 .5-9.5 3-14.5 3.8-10.6 1.6-20.9 4.4-31.2 7-4.7 1.2-5.6 4.2-5.7 9 0 3.4 3.1 3.6 3.9 5.9-.3 0-.6 0-.9-.1-1.4-.4-2.6-.2-2.7 1.6-.1 1.1-.3 2.3.9 3 1.3.6 2.4-.1 3.3-1 1.8-1.7-.6-2.4-.8-3.6 2.2.2 4.6 2.7 6.7-.5-1.8-1-4.4-.6-6.1-3.8 8.8 2.6 16.5-1.2 24.7.3 7.9 1.4 16.3.4 24.4-.1 6.4-.4 12.7-2 19.2-1.8.8 0 2 .3 2-1.2-1-.9-2.2-1.3-3.5-1.1-12.9-.2-25.8-.9-38.7.3-9 .8-17.9.5-26.9.4-1.4 0-3.1.2-4-1.8l12.7-1.1zM89.1 196.4c.2 2.2-.3 4.4.9 6.4-.8-2.1 2.8-4.7-1-6.3-1.5-3.4-.8-7.1-1.7-10.6-.3-1 .2-2.1 1.2-2.4.1 0 .2-.1.4-.1 1.5-.3 1.7 1 1.9 2.1.1 1.1.1 2.2.1 3.3l.1-.1c-1 1.8-1.7 3.6.6 5 1.8 1.1 2 2.8 1.6 4.6-.7 3.1-.2 6.3-.6 9.4-.6 4.7 2.8 7.4 8 8.8-4.7-.9-3.5 2.2-3.7 4.2-.2 2.4 1.6 3.4 3.2 4.3 7.2 4.1 14.8 3.5 22.5 1.9 1.4-.3 2.6-1.3 3.2-2.7 3.3-7.1 5.6-14.7 6.7-22.4.3-2.2.2-4.5-1.4-6.4-.5-.6-1.3-1.7-.8-2 3.8-2.3-.6-6.2 1.9-8.8.5-.6-.4-1.5-1.1-1.8-2.9-1.2-5.2-4.5-9-2.3-.7.3-1.6.2-2.3-.1-3.9-2-7.6-2.8-10.9 1-.2.3-.9.1-1.3.3-5 1.1-10.2-.4-15.1 1.8 0 0-.2-.2-.5-.6 1-2.7 3-4.9 4.8-7 1.1-1 2.4-1.6 3.9-1.6 1.2-.1 2.4.3 2.3 1.7s-1.3 1-2.2.9c-.9-.1-1.6-.3-1.9.8-.3 1 .2 2 1 2.4 1.8 1.3 3.9 1.3 5.3-.1 3.8-3.9 8.8-2.8 13.2-4.1 1.2-.4 3.3-.6 2.2 2.1-.4 1 .2 1 .9 1 1.7-.1 2.8-1.3 4.1-2.3.4-.3.6-.8-.2-.9-2.8-.2-1-2.1-.7-2.9.5-1.5 1.6-.8 2.7-.3 3.2 1.3 5.1.6 5.7-1.8.3-1.3.2-2.9-1.8-2-2.2 1-4.3.6-6.5.4-.2 0-.4-.4-.6-.6.4-1 1.8-.5 2.4-1.9-2.9-1.6-4.2-5.7-8.6-5.3-1 .1-.5-1.5-.3-2.4-1.1.2-2.2.1-3.2-.3-5.9-1.6-11.2-1.1-14.9 4.6-1.1 1.6-2.3 2.7-4 .6-.8-1-1.7-.5-2.3.4-1.6 2.1-2.9 4.5-3.6 7.1-.5 1.2-.1 2.6 1 3.4.7.5 2.7-.3 2 1.7-.5 1.2-.7 3.1-2.7 2.7-2.8-.5-3.4 1.7-4.2 3.5-1.6 3.7-.7 7.9-1.8 11.7-.4 1.4.7 2.8 2 3.5 1.3 1.1 2-.8 3.1-1.5zm66 184c4.2-1.6 8.7-2.6 13.2-2.7 3.8 0 7.5 1.3 11.3.5 4.7-.9 9.4-.5 14.1-.1 6.3.7 12.6.6 18.8-.2 1.2-.2 2.9 0 3.4-1.3 1.3-3.5 4-6.4 3.8-10.7-.5-9.3-.2-18.5-1.8-27.8-1.1-6.9-.5-14.1-.2-21.1.1-3.9.3-7.3-2.8-10.4-1.3-1.3-2-2.3-3.7-1.8-5.5 1.7-11.4 0-16.7 2.5-.4.1-.9.1-1.3-.2-2.4-1.4-4.9-.7-7.4-.7-8.7 0-17.4.7-26.6-.5 2.3-1 4.4-.3 6.6-1-7.1-.3-13.9.3-20.6-.8-5.9-1.1-11.9-1.1-17.8 0-4.9 1-9.9 1.4-15 1.3-1.3 0-2.5 0-3.8.1-2.3.2-4 1.6-4.2 3.9-.4 4.2-1.8 8.3-1.1 12.4 1.1 6.5.3 13.1 1.1 19.7.8 6.5 1.3 12.9.5 19.5-.5 3.9 1.1 7.9.4 12-1 5.3-.4 5.6 4.9 5.8 6.6.2 13.2-.8 19.7-.6 7 .2 14.1.8 21.2.6 1.8-.4 3.4-.4 4 1.6-16.3.2-32.5 1.3-50.1 1.8 3.8 2.9 7.3 4.3 9.5 7.3.2.3 1.2.1 1.8.1l36.7-.3c10-.1 20-1.7 30.1-1.6 9.7.1 19.4 1.2 29.1.6 4.3-.3 4.2-.4 3.7-4.9-.3-2.8-1-3.8-3.7-2.7-1.2.5-2.4.7-3.7.7-7.7-.2-15.4 0-23.1-.5-7.9-.5-16-1.3-24 .1-2 .4-4.4.9-6.3-.6zm37-78.9c0-.4-.1-.7-.2-1-.1-.3-.3-.8-.4-.8-4.2-.1-4.9-3-5-6.4 0-.1-.2-.3-.3-.4-2.5-2.5-2.7-5.7-2.7-8.9.1-2.3-.3-4.5-1-6.6-3.1-7.7-5.3-15.7-8-23.6-1.3-4-4.4-7.2-8.3-8.6-2.4-.9-4.6-2.2-6.9-3.1-6-2.3-11.6-5.7-17.8-7.6-1.5-.5-3.6-1.5-4.2.3-1.6 4.6-5.4 8.1-5.9 13.4-.4 4.5-.2 9-.8 13.4-.3 2.3-.9 4.7-1.1 7-.2 2.1-1.7 4.4 1.3 5.8 0 .5-.1.9-.4 1.3-1 1.3-1.8 2.5-1 4.3.3.6-.1 1.3-.9 1-2-.6-2.1 1.1-2.3 2.2-.5 3.3-1.4 6.5-2.6 9.6-.9 2.6-2.5 5.1-2.4 8.4h8.1c4.8-.1 9.7-1.4 14.5 0 3 .9 6.2 1 9.3.3 1.6-.4 3.6.3 5.1-.4 2-.9-.1-3.6 1.3-5 .4-.3.8-.5 1.2-.7 1.8 6.1 6.6 6.3 11.7 6.1 6.5-.1 13.1 0 19.7 0zm153.7 52.7c-.1-1.6-2.7-1.2-1.8-3.1.3-.7.2-1.3-.6-1.2-1.9.3-3.5-1-5.5-.8-12.8 1.4-25.4-.4-37.9-2.6-3.2-.6-6.4-1.8-9.7-1.6-12.5.9-25.1.9-37.5 3.6-1 .2-2.2 0-2.8 1.3-1.7 3.6-.3 6.9 3.5 7.9 1 .3 2.2.4 3.2.6 3.4.6 6.9.8 10.2 1.9 3.1 1 6.5-.9 9.4 1.8.9.8 3.2.6 4.3-.8 1.3-1.6 3-1.7 4.7-1.7 4.6-.2 9.1-.5 13.7-.4 6.6.2 13.1-.6 19.5-2.3.7-1.3-3.5-2.2-.5-3 4-1.2 8.2-1.3 13.1-2.1-.7 1-1.8 1.7-3 1.9-.9.2-2.3-.4-2.7 1.4 6.8.9 13.5 0 20.4-.8zM237 247.4c3.2 2.2 6.7 2.1 9.7 3.5 2.8 1.5 6.1 1.8 9.1.7.8-.3 1.4-.8 2 .1 1.4 2 3.2.9 4.8.6 2.2-.4 4.2-1.5 6.4-1.7 9.7-.8 19.3-2.7 28.9-4.3 6.5-1 13.2-1.3 19.3-4 3.1-1.4 6.5-2.3 9.9-2.6 3.4-.3 6.9-.7 9.7-3.2.8-.9 2-1.2 3.1-.7 4.4 2.4 5.5-1.7 7.9-3.7-1.6-1.4-2.9.4-4.3-.4-2.7-1.5-5.4-.2-7.5 1.3-3.8 2.6-8.3 3.8-12.9 3.4-2-.1-3.9.7-5.8 1.1-4 .8-7.9 5.5-12.4 1-.2-.2-.9.1-1.3.2-7 3.3-14 2.4-21.1.3-1-.3-2.2-1-2.8.4-.9 2.4-2.4 2-4.2 1.4-1.2-.5-2.4-.7-3.7-.6-8.3 1.7-16.9 1.8-25 4-3.1 1-6.6.8-9.8 3.2zm-120.9-4.7c-1.6.3-3 .6-3.1 2.2-.1 5.2-2.4 9.7-4 14.5-1.4 4.2-2.5 8.6-3.6 12.9-.4 1.9 0 3.9 1.1 5.5 1.3 2.4 2.2 4.9 2.7 7.6 1.3 5.1 3.1 10.1 4.9 15.7 1.5-2.5 4.9-2.4 5-5.8.1-4.6 2.3-8.5 4.4-12.4s2.1-8-.8-11.7c-1.1-1.6-1.8-3.4-2-5.3-1.6-7.7-3.1-15.3-4.6-23.2zM363.4 284c-7.7-2.6-15.6-4.6-23.7-6-.9-.1-2-.8-2.6.1-1.9 3.2-5 2.2-7.7 2.2-4.9.1-9.7-.1-14.6.1-5.2.2-10 1.6-14 5.5 6.9-1.1 13 1.8 19.3 3.7 1.8.6 3.6 1.3 4.7 3 1.5 2.3 3.4 2 5.8 1.6 4.7-.7 9-2.6 13.3-4.3 6.3-2.5 13-3.5 19.5-5.9zM341 326.3c-3.2-.2-5.9 1-8.7 1.3-12 1.2-24.2.6-36 3.3-1.4.3-2.8.2-4.2-.1-12.6-2.5-25.4-.7-38.1-1.1-3.1-.1-3.3.7-2.9 3.9.4 2.9 2.3 2.6 4.2 2.6 6.3 0 12.5-.3 18.8.8 2.9.5 6.1 1 8.9 0 5.8-2 11.9-3.2 18.1-3.5 8.6-.4 17.2 2.2 25.7 0 5 2.1 9.8-.5 14.8-.3l-.6-6.9zm-56.1 36.6c11.8 2.2 24 2.7 35.9 1.3 11.6-1.2 23.1-3.2 34.4-6.2-3.8-.5-7.5-2.2-11.4-1.2-2.5.4-5 .7-7.5.7-7 .6-14.1-.5-21 1.8-4.4 1.4-9 1.9-13.5 1.5-5.7-.3-11.5.4-16.9 2.1zm-5.7-81.1c.7 1.2 2 2 3.5 2.1 3.4.4 6.9.8 10.2 1 3 .2 6-.6 8.4-2.4 4.6-3.1 10.1-4.6 15.7-4.3 4.5.1 9.1.1 13.7.1.5.1.9.1 1.4 0 .4-.1 1.3.2 1.2-.3-18.6-6.8-36.3-2.1-54.1 3.8zm19.4 61.1c.7.9.8 1.3 1 1.3 8.9.6 17.7 1 26.6 2.4 3.7.6 7.8-.5 11.6-1 1.5-.2 2.9-1.2 4.4-1.7 2.4-.8 2-2.7 1.5-4.3-.9-2.2-2.7-.7-3.5 0-1.6 1.5-3.4 2.2-5.1 1.2-5.8-3.3-11.4-1.9-16.9.4-3 1.3-6.3 1.9-9.6 1.8-3.2-.2-6.4-.1-10-.1zM127.3 270c.2-6.3 1.6-12.2 2-18.2.1-.6 0-1.3-.2-1.9-1-3.2-.2-6.3.7-9.3.2-.8.7-1.5.1-2.2-.7-.7-1.8-.8-2.6-.3-1.5.9-2.9 2-4.6 2.3-3.1.5-3.7 2.3-3.2 5.1 1.4 6.9 3.3 13.7 5.5 20.3.5 1.4.4 3.1 2.3 4.2zm-4.3-37.3c0-2.4-1.2-3.4-4.1-3.3-6.4.3-12.8 1.7-18.8-1.9-1.1-.7-2-.1-2.5 1.3-1 2.6-.7 4.1 2 4.7 3 .9 6.2 1.3 9.3 1.2 2 0 4.1.4 5.9 1.3.6.3-.8 2.3 1.3 2.4 2.3.4 6.8-3.3 6.9-5.7zm163.7 132.8c-4.8-.5-9.8.2-14.3-1.3-6.6-2.1-13.4-3-20.1-4.6-2.3-.6-4.3.5-6.5.6-1.1.1-1.6 1.4-1.5 2.6.1 1.7 1.3.7 2 .9 1.9.6 3.9 1 5.9 1.1 5.5.3 10.9-.1 16.4 1 3.8.8 7.8 1.6 11.6.5 2.1-.4 4.3-.7 6.5-.8zM92.8 341c-1.1 4.9-.8 5.5 3.3 7.6 2.9 1.5 2.9 1.5.3 3.8 1.7 1.2 3.2 2.4 5.5 2.5.1-.8.1-1.4.1-2.1.2-11.2.7-9.7-9.2-11.8zm215.6-68.9c5.3.4 10.6.6 15.8 1.7 2.3.4 4.6.9 6.9 1.2 1.4.2 2.5-.3 2.5-2 0-1.5.1-3.1-1.8-3.3-7.9-.6-15.6.7-23.4 2.4zM32.3 346.7c1.2 2 3.2 2.3 4.7 3.3 2.5 1.6 5.1 3 6.7 5.7.7 1.1.3 3.4 2.2 3 1.5-.3 1.2-2.3 1.3-3.7.3-2.5-.8-4.2-2.7-5.6-3.7-2.9-8.1-1.9-12.2-2.7zM280.4 234c5.1-.4 5.4-.4 4.8-3.8-.3-1.8 1.3-5.3-3-4.9-3.3.3-6.1 3.1-6 6.1.3 3.2 2.2 3.4 4.2 2.6zm-21.6 24c10.5-3.5 20.9-4.9 30.9-8.4-9 1.3-18.1 1.5-26.7 4.3-1.9.6-3.5 2.1-4.2 4.1zm90.8 81.7c1.6 2.2 2.9 3.9 5.5 3.3 2.6-.6 5.9-4.4 6.4-7.3-3.7 2-7.6 2.9-11.9 4zm-59.8-100.8c3.7 0 6.5.1 9.2 0 1.2 0 3-.2 3-1.7s-1.3-2.7-2.7-2.6c-.2 0-.4 0-.5.1-2.9.8-6.3.6-9 4.2zM20.7 378.1c3.3-2.7 5.9-4.7 8.3-6.7.9-.8 1.6-1.9.8-2.9-.9-1.2-2 0-2.9.4-3.4 1.6-4.7 4.7-6.2 9.2zm267.9-40.4c7.3 0 14.6-.7 21.7-2.2-7.2.3-14.6-1.3-21.7 2.2zm-1.8-108.8c.6 1.4-.9 4.2 2.3 4 1.5-.1 3.1-.6 3.2-2.7.1-2.1-2.1-4.9-3.8-4.7-1.8.3-1.7 1.8-1.7 3.4zm-149.6-39.7c-1.8.1-2.8 1.4-2.7 3.4.1 2 2.1 4.5 3.3 4.1 2-.7 2.2-2.5 2.2-4.4.1-1.6-1-2.9-2.6-3.1h-.2zM311 228.9c-2.9-1.7-5.8 1.2-8.6-.2-.9-.4-2.9-.8-3.1.9-.1 1.5 1.5 2.3 2.8 2.9.6.3 1.2-.1 1.7-.5 1.1-1.1 2.8-1.5 4.3-1 1.4.6 2.4-.5 2.9-2.1zm-175.9-48.1l.9-.3c1.7-1.3 1.7-3 1-4.7-.5-1.6-2.1-2.6-3.7-2.2-1.4.3-1.2 1.6-.9 2.8.2 1.9.2 4 2.7 4.4zm119 104.6c9.2 2 18 2.2 22.4.5-3.7-.2-7.5.1-11.3-.3-3.7-.5-7.4-.6-11.1-.2zm26.6-7.6c4.3.7 8.6-.3 12.2-2.7-4.2-.1-8.4.8-12.2 2.7zm-21.6 4.5c4.4-.4 8.9.1 12.7-2.8-4.5-.3-8.6 1.3-12.7 2.8zm14.6-44.6c1-.2 2.5-.1 2.1-1.7-.4-1.6-.5-3.9-2.4-4.2-1.5-.2-2 1.6-2.2 3.1-.2 1.3.6 2.5 1.9 2.8h.6zm73.8 99c2.3 1.4 4.5.4 6.5 0 1.6-.3 1-2.3.7-3.2-.3-.7-1.1-1.1-1.8-.9-.3.1-.6.4-.8.7-.7 2.3-3.3 1.4-4.6 3.4zm-42.9-48.2c3.2 1.3 6.1 3.1 10.3 2.7-3.3-3.2-6.7-3.7-10.3-2.7zm-55 57.4c5 1.3 6.8 1.2 10.1-.2-3.8-1.1-5.6-1.1-10.1.2zm5.4-63.1c-5.7-1.9-5.7-1.9-8.6 0h8.6zm87.4-43.5c-4.4-.7-6.8.9-9.2 2.9 2.7-1 5.8-.7 9.2-2.9zm-12.1-30.5c1-.9.6-2.1.5-3.1-.1-1.5-1.2-1.8-2.4-1.5-1.8.4-.9 1.7-.5 2.6.3 1.2 1.2 2 2.4 2zm-88.8 156.3c0-1.9 1.4-4-.6-5.5-.1-.1-.7.1-.8.3-1 2.1.6 3.5 1.4 5.2zm102.1-29.4c-2.2 0-4.6-1.2-7 1.4 3 .6 5.1.2 7-1.4zm-66.4-51.8c-3.5-2.3-6.3-1.4-9.2-.1 3 .5 6.1.6 9.2.1zm-38.5-.1c.1-.6-.2-1.1-.8-1.3h-.3c-1.1-.2-2.2-.1-2.5 1.3-.2.7.2 1.4.9 1.7.1 0 .2 0 .2.1 1.2-.1 2.2-.8 2.5-1.8zM359 361.9c-.4 1.2-2.5 1.5-1.8 3.3.1.2.9.4 1.2.3 1.7-.7 1.8-1.9.6-3.6zM339.7 295c-1.8.4-2.7 1.4-2.6 3 0 .3.7.9 1 .9 1.6-.3 1.1-2 1.8-2.9 0-.1-.1-.3-.2-1zm-97.6-8.9c-.8 0-1.7.1-1.6 1.1s1.1 1.3 2 1.3c.7 0 1.8 0 1.6-1 0-1.1-1-1.2-2-1.4zM44.9 327.6c.7-1.8.8-3.8.3-5.6-.7 1.9-1.7 3.7-.3 5.6zm232-54.3c-1.6-.8-3.1-.7-4.8 1 1.7.5 3.5.2 4.8-1zm54-30c-2.4-.8-3.8.4-5.9.9 2.2.3 3.7.6 5.9-.9zm-53.8 36.3c.1-1-.6-1-1.2-1s-1.6-.4-1.8 1.1c1.1.4 2 .8 3-.1zm-25-19.8c.7-.1 1.5.1 1.4-.9 0-.2-.7-.5-1.1-.6-.5 0-1.4-.2-1.3.8 0 .4.7.6 1 .7zm-13.8 108.4c0-.5-.4-.8-.9-.9-.6-.1-1.3-.3-1.5.4-.3.6.3.8.8.8.5.1 1.2.3 1.6-.3zm-222.5 8.2c-.2-.8-1-1-1.6-1.4-.3-.2-.6-.1-.8.2-.1.1-.1.2-.1.3 0 .9.7 1.3 1.5 1.5.4.1.8-.1.9-.4.1-.1.1-.2.1-.2zm329.6-77.2c-1.7.8-1.7 1.9-1.8 3.3 1.2-.6 2-1.9 1.8-3.3zm6.6-60.4c0-.4-.3-.7-.7-.7h-.3c-.4.1-.9.3-1.2.6-.4.6.1.8.6.8s1.3.1 1.6-.7zm-220.9-58.9c-.1-.9-1-1-1.6-1.3-.3-.2-.6-.1-.8.2-.1.1-.1.3 0 .5.2.6.7 1 1.3 1.1.5.2.9 0 1.1-.5 0 .1 0 0 0 0zm-30 155.7c-.1-.5-.2-1-.8-.9-.2 0-.4.4-.5.7-.1.5 0 1 .6 1 .5.1.7-.3.7-.8zM349 361.4c-1.1-.3-2.3.2-2.9 1.2 1.1.4 2.4-.1 2.9-1.2zm-54.8-112.5c.3.2.5.5.7.5.7 0 2 .2 1.7-.6-.4-.8-1.6-.5-2.4.1zm54.7-14c-.6.1-1.1.6-1.2 1.3 0 .3.4.4.7.2.4-.2.7-.6 1-.9.1-.3-.2-.6-.5-.6zM243.8 368.4c-.4-.8-1.2-.8-1.9-.8-.2 0-.4.2-.4.4 0 .1.1.2.2.3.7.5 1.5.5 2.1.1zm112.2-6.5c-.3-.8-.9-.8-1.5-.6-.2.1-.6.4-.6.6 0 1 .7.7 1.3.7.5.1.9 0 .8-.7zm-306-4.6c1-.3 1-.8 1-1.2 0-.5-.3-.7-.5-.5-.3.3-.5.7-.7 1.2.1.1.1.3.2.5zM353 317c-.3-.3-.7-.6-1.1-.7-.5-.1-.9.3-.6.8.2.3.7.4 1.1.5.1-.1.3-.4.6-.6zM89.6 215.1c-.2-.6-.4-1.2-1-1.5-.1.4-.4.8-.4 1.2.1.4.3.8.7 1 .6.3.7-.2.7-.7zm158.3 117.7c-.4 0-.6.2-.5.6l.3.3c.1 0 .3 0 .4-.1.2-.4.1-.6-.2-.8zm94.6 30.5l-.7.3c.2.1.4.3.6.4.3 0 .5-.1.7-.2l-.6-.5zm6-68.3c-.5.2-.5.6-.5 1 .1.4.3.5.6.2.2-.2.3-.5.3-.8.1 0-.2-.2-.4-.4zm-214.4-79.6l-.3-.6c-.1.1-.2.2-.2.3-.1.4 0 .6.3.6.1 0 .2-.2.2-.3zm-27.8 66.9c-.1.1-.2.3-.2.4.1.4.3.5.5.2.1-.1.1-.3 0-.4 0-.1-.2-.1-.3-.2zm222.1-48.6l.6-.3c-.1-.1-.2-.2-.3-.2l-.6.3.3.2zM322 366.9c.2-.4.1-.6-.3-.7-.1 0-.3 0-.4.1-.2.1-.3.3-.2.5 0 .1.1.1.2.2.2.1.5 0 .7-.1zm-22.4-79.5c-.1 0-.2-.2-.4-.1-.4 0-.5.2-.2.4.1.1.3.1.4 0 .1-.1.1-.2.2-.3zm-57.1-4.8l-.2-.2c-.1 0-.2.1-.3.1l.2.2c0 .1.2 0 .3-.1zm54.1-58c0-.1.1-.3.1-.4-.2-.4-.4-.3-.5.1 0 .1 0 .3.1.4 0 0 .2 0 .3-.1zm3 23.6l.3-.1h-.7l.4.1zm-4.1-15.9l-.1-.3c-.1 0-.2.1-.2.1 0 .1 0 .2.1.3l.2-.1zm-163.4-38.6l-.1-.3-.1.3h.2zm153.7 44.7l-.4-.2v.3l.4-.1z"/><path class="st1" d="M147.9 2.9c5.4-2.1 10.9-1.5 16.4-.6 9.6 1.6 18.9 4.6 27.6 9.1 2.9 1.5 5.4 1.2 8.2-.4 6.5-3.7 13.9-5.6 21.3-5.8 3.5-.1 7.1-.1 10.6-.5 10.3-1.1 20.1 2.1 30.1 4 1 .3 2 .8 2.9 1.5 7.1 4.9 14.9 6.6 23.2 6.8 2.9.1 5.9.1 8.8 0 10.5-.4 20.9.6 31.3 1.7.8.1 1.7.5 2.3.2 4.8-2.1 7.9 1.6 11.3 3.7 2.4 1.5 3.3 4.2 3.1 7.1-.4 7.5 2.3 13.6 7.6 18.6 2.9 2.8 5.5 6.1 8.2 9.1l-.5.6v.2l.6.6.7.8-.1-.1c3.7 6.9 1.9 14.4 1.8 21.7 0 3.8-1.1 7.6-1.8 11.3-2 10-6.2 19.1-11.1 27.8-2 3.5-4 6.9-5.9 10.4-2.8 4.9-6 5.5-10 1.5-1.3-1.4-2.6-2.8-3.7-4.3-.7-.9-1.1-2-2.5-1.6-1.1.3-1.8 1.3-1.8 2.5-.4 3.6-1.1 7.3-1.3 10.9-.1 2.9-1.4 5.7-3.7 7.4-6 4.9-12.7 6.8-19.9 3.6-2.6-1.2-3.9-.6-5.2 1.5-.6.7-1.1 1.5-1.5 2.4-2.3 8.1-8.6 12.8-14.5 17.5-6.8 5.3-13.8 10.3-22.1 12.9-6 1.7-12.2 2.4-18.3 1.8-2.6-.3-5.2-1.3-7.2-3.1-3.6-2.7-7-5.8-10.1-9.2-5.1-5.9-11.4-9.1-19.3-7.9-.3.1-.6.1-.9 0-6.5-1.8-10.7 2.1-15.3 6-9.2 7.9-20.5 11.7-31.8 15-1.6.7-3.5 0-4.3-1.6 2.3-.4 1.7-3.1 3.1-4 1.5-1 3.4-1.5 5-2.4 3.4-2.1 5.5-5.6 7.8-8.8.8-1.1 1.1-2.7 2.5-3.3l.1.1-.2-.1c0-.8.1-1.6 1-2-.1-1.9.6-3.7 2-4.9l.3.7-.4-.7c.7-2.6.6-4.7-1.6-6.8-2.8-2.9-4.5-6.6-4.9-10.6-.1-1.8-.6-3.5-1.5-5-7.7 3.3-16.3 4.2-24.5 2.4-3.8-.7-7.5-1.8-9.4-5.9l.1-.1-.1.2c-5.7-.5-8.9-4.1-10.5-9.4-2-6.8-5.6-12.8-7.9-19.4-3.3-9.4-1.2-17.4 4.5-25 3.8-5 7.3-10.3 13.1-13.3 1.5-.8 1.2-1.9.6-3.1-1.4-2.7-2.8-5.3-4.2-8-5.5-10.1-5.4-20.1-.2-30.2 4.2-8.1 8.8-15.8 16.3-21.1 1.8-1.4 3.5-2.7 5.8-2.4-.1.5-.4 1.5.2 1.6 2.6.2 5.3.4 7.9-.8-2.7-.6-5.4-1.2-8.1-.8zm188.5 20.2c-.3-.4-.6-.3-.9 0-4.5-1.6-9.1-1-13.6-1.3-8.4-.5-16.9-1.4-25.3-1.3-8.5.1-17.2 0-25.9-.2-4.2-.2-8.3-1.9-11.3-5 1-.3 1.2-.9.4-1.5-.9-.8-2-1.2-3.1-1.3-.5-.6-1.2-1-1.9-1-.6-.8-1.2-1-1.8 0-1.1.1-2.1-.2-2.9-1l1-.3c-.1 0-.2-.1-.3-.1-.2.1-.5.3-.7.4-.7 0-1.5 0-1.8-.9-9.9-1.3-19.9-.2-29.9-.7-5.7-.3-10.4 2.8-14.9 5.7-1.8 1.2-2.3 4.3-5 5.4-1.2-3-3.4-4.2-6.5-3-2.1-3.1-6-2.5-8.7-4.6v.1c.8-.3 1.8.3 2.5-.6-3.9-2.9-8.4-4.6-13.2-4.9-2.6-.2-5.3-2.3-8-.3l.1-.1c-2.9.4-5.9.1-8.4 2-2.5-1.3-4.3-.9-6.6 1.1-1.7 1.4-5.1-.7-7.2 1.7-.2.2-.6.4-.7.6-.1 2.5-2.4 3.1-3.7 4.4-3.6 3.7-7.4 7.3-9 12.6-.2.7-.7 1.9-1.1 2-3 .2-2 2.5-2.4 4.2-2.2 9.6-.8 18 7.1 24.6 2.4 2 3.6 4.8 4.3 7.8.4 1.4.5 2.6-1.6 2.1-3-.8-5.3.9-7.5 2.7-4.6 3.5-8 8-11.3 12.6-7.9 11-2.4 26.8 4.3 34.5 1.5 1.6 2.7 3.4 3.6 5.3 1 2.1 1.4 4.9 3.6 5.9 7.3 3.1 13.4 9 22.3 8 4.2-.5 8.2-.9 11.9-2.7 3.7-1.8 5.4-1.3 7.1 2.9.2.6.4 1.2.7 1.8-.7 3.1 1.1 5.6 2.5 8.1.5.9.6 4 3.2 1.5.7-.6 1 .7 1 1.5.1 2.6-1.2 5.3.5 7.9.2.3-.3 1.2-.6 1.7-3.4 4.6-4.9 10.3-8.3 14.9l-.2.1.1-.2c4.2-.2 6.9-4.4 11.8-4.8-2 2.8-4.3 4-6.2 5.8l-.1.2.1-.2c8.2-2.6 15.3-8 20-15.4.7-1 .7-2.5 2.1-2.9 2.1.9 1.2 5.6 4.9 4.5.5-.4.3-.9.2-1.4-.4-1.6-1-3.5.2-4.6 1.6-1.4 2.6.8 3.9 1.5.7.4 1.5.5 2.1.9 6.4 3.1 12.8 6.1 16.6 13 1.2 1.9 2.6 3.5 4.4 4.9 8.7 7.4 18.4 7.6 28.5 4.7 9.2-2.6 16.6-8.5 24.1-14.2 5.9-4.5 11.2-9.6 11.9-18 .3-3.3 4.6-4.4 7.5-2.8 5.1 2.8 10.4 2.9 15.4-.2 6-3.7 7.3-10 7.5-16.5-.1-2.5-.3-5-.7-7.5 1 1.3 1.8 2.5 3.1.3 1-1.7 1.3-4 3.4-5l-.9 3.9-.3.2.2-.2c1.2-.3 2.3.4 3.5.8.4-2.4 0-4.2-2.6-4.6 2-2.1 3-.3 3.6 1.3.4 1.5.8 3.1 1 4.7.2.7-.1 1.9.9 1.9 2.1 0 2.3 1.7 3 3.1 1.6 3 2.9 3.2 4.5.2 3.8-7.1 8.4-13.7 11.8-21.2 5.8-12.9 7.6-26.3 6.8-40.2-.2-4.7-2.3-9.1-5.9-12-8.2-7-10-7.8-12.3-20.5-.6-2.3-1.3-4.6-2.2-6.8.3-.3.3-.7 0-1-.1-1.9-.7-3.4-2.8-3.8l-.9-1.2zM211.8 162.6c-.1-.1-.2-.2-.4-.3-.1-.1-.2 0-.3 0l.7.3zm52-151.1l-.1-.1.1.1 1.9.9 1 1c.2 1 0 2.5 1.5 2.5 2 0 3.8 1.6 6.4.9-2.4-1.6-5.1-2.8-7.9-3.4l-1-1-1.9-.9zm85.7 35.6l-.1-.1.1.1c.1 1.2 1 1.5 1.8 1.9l.1.2-.2-.2-1.7-1.9zm-179.2 131c-2.2.3-4.1 1.4-5.5 3.1 1.9-.8 4.4-.8 5.5-3.1.3-.1.7 0 1-.5-.1 0-.3-.1-.3-.1-.3.3-.5.4-.7.6zm176-149.4l.1.3.1-.3h-.2zm-19.6 113.6l-.2.3.2.1v-.4zm-298.1-7.6c-2-2.3-3.5-4.9-4.6-7.8-1.8-5.1-5.9-9-6.8-14.5-1.9-10.5.2-21.3 6-30.2 1-1.6 2-3.2 2.8-4.9 2.7-6.1 8.2-9 14-11.2 5.8-2.2 11.1-5 17.5-5.1 1.9 0 3.8-.5 5.5.3 4.2 2.1 8.8 2.1 13.2 2.9 3.1.4 6.1 1.7 8.5 3.7l-.7.7c-2.6-.8-5.1-1.5-7.7-2.3-2.2-.7-3.8-.7-3.5 2.8-1.1-2.1-1.8-4.2-4-4.3-5.1-.2-10.4-1.3-15.5.5-9 3-17.4 7.6-24.8 13.6-4.3 3.4-7.2 8.2-8.3 13.6-1 5-1.4 10.2-1.1 15.3.2 9.6 4.7 17.1 10.9 23.7 4.9 5.4 10.4 10.1 16.5 13.9l-.1-.1c1.9.3 3.8 0 5.9.6 10.8 3.3 20.7.3 29.9-5.6 4.2-2.7 8.1-5.8 12.2-8.7l.4.4c0 2.8-1.6 5.3-4 6.6-5.4 3-10.5 6.8-17 7.3-2.5.2-4.8 2-7.3 3.1l-.4.4c-1 1-2.2 1-3.5 1-11.4-.4-22.4-4.5-31.4-11.6-1-.8-2-1.5-1.8-3l-.1.1h1l.2.2-.2-.2c-.2-.7-.4-1.6-1.2-1.8-.5-.2-.6.5-.7.9l.2-.3zm.9-58.7l.9-1c1.2 0 2.3-.8 2.8-1.9 2.5-.8 4.7-2.1 6.6-3.9.8-.1 1.5-.1 2-.9.2-.3.9.3.8-.5l-.7.6c-.8 0-1.5.3-2 .9-2.8.3-5.6.4-6.6 3.9-1.9-.9-2.2.8-2.8 1.8l-1 1-.2.1.2-.1zm276.8 320.8c4.3.6 8.9-.7 13.1 1.4-9 .2-17.9.9-27 1.4 9-4.4 19.3-4.4 28.8-10.4-15.1-.6-29.2 0-43.4-.3 16-.8 32-2.1 48-.8l.3 1.3-19.8 7.4c-.8.1-1.8-.3-2.5.8 1-.1 1.9 0 2.5-.8z"/><path class="st1" d="M87.5 70.9c14.9 15.4 18.3 33.5 12.5 53.9-.8 2.9-2.7 5.5-5.1 7.3l-.4-.4c1.2-2.9 3.6-5.1 4-8.4.8-.7.6-1.3 0-1.9 5.6-15.8 1.7-30-7.2-43.4-1.5-2.2-3.9-3.6-4.5-6.4l.7-.7zM61.7 379.5c1.5 1.5 3.2.8 4.8.5 4-.8 7.7-2.4 11.8-2.8 1.1-.2 2.1-.3 3.2-.2 2.4.6 1.6 1.7.2 2.8l-.4-.5c-2.5-1.6-5.1-.5-7.6.1-3.8.8-7.4 2.4-11.4 2.1-1.4-.3-2.2-.8-.6-2zm14.4 4.1c-1.8 1.2-3.6 2.6-5.4 3.7-1.5.9-3.1 1.3-5.4-.3 3.6-1 7-2.3 10.3-4l.5.6zm192.8 5.8c-2.9.6-6 .6-8.9 0h8.9zm8-77.5c-2.1 1.4-4.4 1-6.8.5l6.8-.5z"/><path class="st1" d="M81.7 379.7c-1.4 2-3.5 3-5.6 3.9l-.5-.6c1.8-1.5 3.7-2.8 5.7-3.8l.4.5zM277 312c2.2-1.2 4.5-.8 6.8-.5-2.3.8-4.6.6-6.8.5zM69.2 372.7V369c.9 1.7 1.3 2.8 0 3.7zm155 13.7c0 .3-.2.6-.5.5-.2-.1-.4-.4-.5-.6-.1-.2 0-.4.2-.5h.3c.1 0 .3.4.5.6zm41.7-72.8v-.3c.4-.1.5 0 .3.3h-.3zm-36.2 26.9c-.1.1-.2.2-.3.2-.4 0-.5-.2-.2-.4.1-.1.3 0 .4 0 0 0 0 .1.1.2zM85.6 68.9c.8.4 1.5 1.1 1.9 2l-.8.6-1.7-2 .6-.6zm149.9 272.9l-1.7-.2c0-.1 0-.4.1-.4.7-.1 1.1.3 1.6.6zm13.1-17.3c-.4.8-1 1.5-1.8 2l.1.1c0-1.1.8-2 1.7-2.1zm33.3-128.4l-.3-.2.3-.1v.3zm-33.2 128.5l.6-.6s.2.1.3.1c-.2.5-.6.3-.9.5z"/><path class="st1" d="M244.9 327.4c.5-.6 1.3-1 2-.9l-.1-.1c-.5.6-1.2.9-1.9 1zm51 40.5l-.6.5c-.1-.8.4-.3.6-.5zm-231.4 9.6c-.4.7-1.1 1.1-1.9.9l.1.1c.2-.7 1-1.1 1.8-1zm182.2 7.7c0 .7-.3 1.4-.9 1.9l.1.1.8-2zm103-86.6zM89.1 162.8l1-1-.1-.1-.9 1.1zm158.7 156.9zm113-262.2c.5.2.8.6.7 1.2v.1c-.2.1-.4.2-.6.2l-.6-.6v-.2l.5-.7zm-114 263.2l.9-1-.1-.1-.8 1.1z"/><path class="st1" d="M362.4 59.6h-1l.1.1-.1-1v-.1l.9 1h.1zM245.9 321.7l1-1-.1-.1-.9 1.1zm-.1-.1zM362.4 59.7l.2.2-.2-.2zM244 324.5zm-.1 0l-1 1 .1.1.9-1.1z"/><path class="st1" d="M243 325.5l-.9 1 .1.1.8-1.1zm-.9.9l-1 1 .1.1.9-1.1zM368 66.4l.1.1-.1-.1zM84.6 67.9l1 1-.6.6-1-.9.6-.7zm-17.3 82.3l.3.2-.3-.2zm-.7-1.2c.5.2.8.7.7 1.2l.1-.1c-.5 0-1-.3-1.2-.7l.4-.4zm-37-13.3l-1-1v.1l1 .9zm39.6 236.9c-.1.5-.5.9-1 1l.1.1c.1-.5.5-.9.9-1.1z"/><path class="st1" d="M67.3 374.7c0-.5.4-.9 1-1l-.1-.1c0 .5-.4 1-.9 1.1z"/><path class="st1" d="M67.3 374.6c0 .5-.3.9-.8 1h-.1c-.1-.5.3-1 .9-1-.1 0 0 0 0 0z"/><path class="st1" d="M65.4 376.5c.1-.5.5-.9 1-1-.1.6-.5 1-1 1zm0 0c0 .5-.3.9-.8 1h-.1c0-.7.3-1 .9-1zm-2.8 1.9c0 .5-.4.9-.9 1l-.1-.1c.2-.4.6-.7 1-.9zm184.2 6.9l.2-.3-.2.3zm-1 1.8l-.4.4c0-.1 0-.2.1-.3.1 0 .3 0 .3-.1zm-84.9-55.3c2.5 2.8 3.9 5.7 2 9.5-.8 1.2-1 2.8-.5 4.2 1.1 2.6-.9 2.9-2.7 3.7 1.6 1.8 4.4 2.9 2.5 6.2-.8 1.3-1.1 2.8-2.8 2.4-1.4-.3-2.7-1.7-2.3-3.1.6-2.4-.2-3.7-2-5-1.3-1-.6-2.7-1.1-4-1.2-2.4-2.7-4.7-4.4-6.7-3.7-4.9-1.9-13.4 3.5-16.2 3.5-1.8 11.9 1.6 12.8 5.2s.3 4.2-3.2 3.6c-.7-.3-1.4-.5-1.8.2zm2.5-3.8c-4-4.6-7.5-4.6-10.5-.1-3.3 4.9-3.2 7.3 1 11.1.8.7 1.3 1.7 1.4 2.8.1 1.5.8 2.8 2 3.6 1.7-4.8-1.9-8.5-1.7-12.7 5.5 2.9 3.6 8.4 4.6 13.9.7-2.6.4-4.5 1.3-6 1.7-3 .5-5.2-2-6.9-1.3-.8-1.9-1.7-1.4-3.1.5-1.4 1-2.7 2.8-2.8.8-.1 1.4.8 2.5.2zm-2.4 1.8l-.3.1.3.1v-.2zm-.8 23.1c-.1 0-.3-.2-.4-.1-.3.2-.2.4.3.4.1 0 .1-.2.1-.3zm24-10.3c-.6.1-1.2.1-1.8.1-.4 0-.9 0-1.1-.8h1.8s.9 0 1.1.7zm3.3-1.1c.2-.2.4-.4.6-.4.3 0 .6.1.8.2-.2.2-.3.4-.5.4-.3 0-.6-.1-.9-.2zm4.9-1.3l.4.2c-.1.1-.1.2-.2.3-.4.1-.6 0-.5-.3 0-.2.2-.2.3-.2zm6.3 2.7l.4-1.6c.1.1.2.3.2.3-.3.4-.5.8-.6 1.3zm-3.9 3.8l-.9 1.9.1.1.8-2zm-1 1.9c-.1.3 0 .6-.2.8-.2.2-.5.1-.4-.3.1-.2.5-.3.6-.5zm-1.8-17.3l.1-.2-.1.2zm0-.1l-1 1 .1.1.9-1.1zm-1 1l-.9 1 .1.1.8-1.1zm-1.8 2l.9-1-.1-.1-.8 1.1z"/><path class="st1" d="M188.3 335.1l1-1-.1-.1-.9 1.1zm-.1 0l-.1.1.1-.1zm-2.8 2zm0-.1l-.9 1 .1.1.8-1.1zm-1 1l-.2.3.2-.3zm14.2 4.8c-.1.5-.5.9-.9 1l.1.1.8-1.1zm-.9.9l-1 1 .1.1.9-1.1zm-1.9 2c0-.5.4-.9.9-.9l-.1-.1c.1.5-.3 1-.8 1zm0 0l-1 1 .1.1.9-1.1zM65.7 279.1c7 1.3 13.6-.9 20.6-2.7-.3 3-2.2 5-2 7.7.1 3.9.6 4.8 4.2 5.8.6.2 1.3.2 1.8.4 3.4 1 3.6 1.9 1.6 5.4l.1.1c-.2-1.7.2-3.3-2.3-4-7.3-2.1-8-3.5-6.4-10.9.1-.6.5-1.2-.1-1.9-6 .4-11.9 4.4-18.1.7l.6-.6zM57 267.7c-.7 1.5-.1 2.1 1.4 1.8 2.4-.4 4.8-.9 7.2-1.4 1.8-.4 3.7-.6 5.5-.4-4.2 2.4-9.1 1.9-13.6 3.2-1.2.3-2.8.6-3.1-1-.3-1.7 1.1-2.1 2.4-2.3l.2.1zm17.9 42.4c.9-3.3 2.4-6.4 4.2-9.3 0 3.8-.8 7.2-4.2 9.3zm-3.8-42.4c1.1-1.5 2.8-1.7 4.5-2.1.8-.2 2-.7 2.3.5.2 1-1 1.4-1.8 1.8l-.5-.5c-1.5-1-3 .9-4.5.3zm5.7-14.4c1.4-1.4 3.2-1.3 5.1-1.8-.5 1.5-1.8 2.6-3.3 2.7l.1.1c-.5-.6-1.2-.9-2-1h.1zm-2.7 16.5c-1.2 1.7-2.8 3-4.6 4l-.5-.5c1.2-1.7 2.8-3 4.7-3.9l.4.4zM46.4 337c-.6-.2-1.3-.2-1.1-1 .2-.7.9-.7 1.4-.7.6.1.9.3.9.8.1.8-.6.9-1.2.9zm24.7-78c-1.1 1.6-2.8 2.7-4.7 2.9 1-1.7 2.8-2.7 4.7-2.9zm-4.5 17.7l-1 2.4-.6.5c-1.3-1.7 0-2.5 1-3.4l.6.5zm-6.9-10.9c.5-1.1 1.7-1.9 2.9-1.9-.3 1.5-1.5 1.8-2.8 2l-.1-.1z"/><path class="st1" d="M75.9 256.2l.9-2-.1.1h2l-.1-.1c-.4 1.1-1.5 1.9-2.7 2zm-4.8 2.9c.5-1.1 1.6-1.9 2.8-1.9l-.1-.1c-.3 1.4-1.5 1.8-2.7 2zm-14.3 8.5c.6-1.1 1.7-1.8 2.9-1.8l.1.1c-.5 1.1-1.6 1.9-2.8 1.9l-.2-.2zm20-13.4H74l.1.1c.6-1.2 1.7-1 2.8-1h-.1v.9zm-6 70l-.3.2c-.1-.1-.2-.3-.2-.4 0-.4.2-.6.5-.3.1.1 0 .3 0 .5zm3.2-70c-.8.7-1.8 1.1-2.8 1l.1.1c.6-1.1 1.7-1 2.7-1.1zm-9.4 3.9l1.8-1-.1-.1c-.4.8-1.1.8-1.7 1.1zm-.1 0l-.6.6c-.3-.8.5-.3.6-.6zm1.9 3.8c-.3.7-1.1 1.1-1.9 1 .3-.8 1.1-1.2 1.9-1zm-3.8 2c.3-.7 1.1-1.1 1.9-1-.3 1.1-1 1.1-1.9 1z"/><path class="st1" d="M66.3 257.1l.7-.5c0 .7-.5.2-.7.5zm4.8-1.9l-.7.5c0-.7.6-.2.7-.5zm2.8 1.9c.3-.8 1.1-1.2 1.9-1l-.1-.1c-.2 1.1-1 1.2-1.8 1.1zM54 255.2l.2.2-.2-.2zM76.1 268l-1 .9-.5-.5c.1-.5.5-.9 1-.9l.5.5zm-2.4 1.4l1-.9.5.5-1 .9-.5-.5zm-5.7 4.8l1-.9.5.5-1 .9-.5-.5z"/><path class="st1" d="M67.1 275.2l.9-1 .5.5-1 1-.4-.5z"/><path class="st1" d="M67.5 275.6l-.9 1-.5-.5 1-1 .4.5zm23.5 21c.1-.5.5-.9 1-.9l-.1-.1c-.2.5-.5.8-.9 1zm-.1 0l-.1.1.1-.1zm-16 13.4l-.2.2.2-.2zm-25.5 28zm0 0l-1 1 .1.1.9-1.1zm-1 .9l-.9 1-.1-.1c.1-.5.6-.8 1-.9zm113.4-80.8c1.9 2.1.4 3.1-1.2 4-3.4 2-7 3.6-10.8 4.8-2.4.5-4.7 1.4-6.8 2.8 2 1.6 4.5.8 6.4 1.6 2.3 1 3.7 2.1 1.3 4.5l-.6-.6c.5-2.1-.7-2.4-2.3-2.6-3.1-.3-6.1-1-9-1.9 3.2-3.5 7-4 10.5-5.1 3.3-1.1 6.4-2.4 9.5-4 1.5-.8 3-1.5 3-3.5z"/><path class="st1" d="M145.4 287.6c.3-1.5.8-3.1-.8-4.3-2.2-1.7-1.2-3.3.3-4.6 1.7-1.3 3.5-2.6 5.3-3.7l.6.6c-.7 1-1.7 1.9-2.7 2.4-2.3 1.4-4.2 2.7-1.2 5.5 1.4 1.3.6 3.2-.7 4.6l-.8-.5zm16.3-29.5c-1.9-.6-3.9-.8-5.6-2l-.1.1c2.2 0 4.4-.4 5.7 1.9zm-15.6 30.2c-1 1.7-2 3.3-4.2 3.5l.1.1c.9-1.6 2.1-3 3.4-4.2l.7.6z"/><path class="st1" d="M156.2 256.1c-1.1-.1-2.3.3-3.5-.5 1.1-.6 2.6-.4 3.5.5zm-25.3 11.8h.3v.4c-.2.4-.3.4-.4-.1 0 0 .1-.2.1-.3zm1.3-8.2l-.2.2c0-.1-.1-.2-.1-.3 0-.4.2-.5.4-.2 0 0-.1.1-.1.3zm53.7 40l-.1-.3h.3l-.2.3zm-44-8l-.2.2.2-.2zM122.2 214c-.8 5-1 5.2-4.8 5.4-2.5.1-5 .4-7.3-.9-.8-.5-1.8-.8-1.7-2 .1-1.4 1.3-1.8 2.4-1.8 3.7.3 7.6 0 11.4-.7zm-31.3-25.2c1.6.6 3.1 2.7 4.8.3.4-.5 1.2-.4 1.8-.1 2.5 1.2 5.2.8 7.8.7 2-.1 3.6.6 4.2 3.4-5-1.6-9.7.2-14.5-.4-2.6-.3-4-1.2-4.1-3.9zm20.3 10.3c1.8 1.5 1.2 3 1.3 4.4.2 1.5-.2 3.2 1.9 3.8.6.2.9.9.6 1.5v.1c-.2.6-.9.9-1.5.7h-.1c-1.6-.8-3.6 1-4.8-.7-1.4-1.9.7-3.1 1.3-4.6.7-1.5 1.6-3 1.3-5.2zm6.1-7.3c2.8-1.7 6-2.8 9.2-3.1 1-.1 2-.3 2.4.8.4 1.4-.9 2.2-1.9 2.2-3.1.2-6.4.1-9.7.1zm6.9 2.8c1.1 0 2.3-.1 2.5 1.4.1 1-.6 1.9-1.6 2.1-1.6.5-3.3.8-5 1.1-.6.1-1.3-.3-1.5-.9-.2-.6 0-1.3.5-1.7 1.4-1.3 3.2-2 5.1-2zm-21.7.9h2.8c1.1 0 1.8.5 1.6 1.8-.2 1-.7 1.8-1.8 1.8-1.9-.2-3.7-.4-5.6-.7-.8-.1-1.6-.6-1.5-1.5.1-.8.9-1.4 1.7-1.4 1-.1 1.9 0 2.8 0zm8.6-34.3c-.1 1-1 1.6-1.9 1.5h-.1c-1.7-.2-2.3-1.5-2.4-2.9-.1-.8.8-.9 1.4-.8 1.2.2 2.6.5 3 2.2zm7 45.3c.7.2 1.1 1 .9 1.7 0 .1 0 .1-.1.2-.2.6-.6 1.1-1.3.9-.7-.2-1.1-.8-.9-1.5 0-.1.1-.2.1-.3.1-.7.7-1.1 1.3-1zM282.9 351h17.6c-5.8.1-11.7.2-17.6 0zm-3.7 8.9c-2-.7-3-1.5-2.3-3.2.1-.3.9-.8 1-.6 1.4.7 1.5 2 1.3 3.8zm50.5-105.2c-2-.1-2.1-3.6-4.8-1.8 1-1.5 1.2-3.6 3-2.9s2.5 2.5 1.8 4.7zm-28.1-40.9c-1.5 0-1.3 1-1 1.9-1.8-1-5.1-.1-4.8-3.9h-.1c2.2.5 4.7-.8 5.9 2z"/><path class="st1" d="M300.6 215.6h3c-.7.8-1.9 1-2.7.3-.2-.1-.2-.2-.3-.3zm2.9-2.8l-.6-.6c.8-.4.3.4.6.6zm-7.6-.9c-.5-.5-.5-1.3-.1-1.8 0 0 0-.1.1-.1l-.1-.1c0 .7 0 1.4.1 2zm0-1.9zM184.5 12.4c-2.4.2-4.8 0-6.6-1.9l-.1.1c2.4.1 4.6.8 6.7 1.8zm72.7-.9c.4.9 1.1 1 1.9 1l1 2c-1.9-.3-3.6-1.4-4.8-3h1.9zm-89.8-3.8c.9-.3 1.9-.2 2.8.4-.7.7-1.7.7-2.4 0-.1-.1-.2-.3-.4-.4zm7.6 1.9l-1.8-.4c.1-.1.1-.3.2-.4.6-.1 1.3.2 1.6.8z"/><path class="st1" d="M174.9 9.6c1 0 2.2-.1 3 .9l.1-.1c-1.2.3-2.2-.1-3.1-.8zm137 72.1l-.2.9c-.6-.5.2-.5.2-.9zm-146.4-75c.8-.2 1.6.2 1.9.9l.1-.1c-.8.1-1.6.1-2-.8zm94.5 7.7c.9 0 1.7 0 2 1-.9.1-1.7-.3-2-1zM245.9 105l.7.3-.7-.3zm94.4-82v1l-1-1h1zm0 1h1l-.1 1 .1-.1-1-.9z"/><path class="st1" d="M342.2 25.9l-1-1-.1.1 1.1.9zm-.1 0l.2.1-.2-.1zm2 1.9v1c-.1-.2-.2-.5-.3-.8 0 0 .2-.1.3-.2zm-127.4 5.7l.2.6-.6-.2.4-.4zM211.8 76c.1-.5.5-.9 1-.9 0 .5-.4.9-.9 1l-.1-.1z"/><path class="st1" d="M210.8 76.9c.1-.5.5-.9 1-.9l.1.1c0 .5-.4.9-.9 1l-.2-.2zM81 88.4c-.8.3-1.8.8-1.3 1.6 1 1.5.8 2.3.1 2.9.3 1.1.9 2.1 1.8 2.8 3.8-2.8 3.9-3.1 6.1-9-2.3-.1-4.5.9-6.7 1.7zm-15.4 50.9c0 .8-.2 2.6-2 3-2.3.4-2.7-1.8-3.1-3.4-.6-2.2.9-6.6 2.1-6.8s2.9 3.1 3 7.2zM35.7 92.6c.2 2.6-.4 3.6-2 3-1.6-.6-4.3-.4-4.4-3.3 0-1-1.4-2 .1-2.9 1-.5 2.2-.5 3.2 0 1.2.6 2.4 1.7 3.1 3.2zm7.7-16.1c.3.9.7 1.7 1 2.6.5 1.7 1.2 3.4.1 5-.5.7-1.4.4-2-.1-1.9-1.4-3.8-2.9-4.1-5.5 0-.8.6-1.5 1.4-1.6 1.3.3 2.3-.6 3.6-.4zm40.7 54.8c-.8.7-1.6.5-2.3.6-3.1.5-5-1.1-4.7-4.2-.1-1.1.5-2.2 1.5-2.9 1.4-.7 1.8.7 2.5 1.5 1.1 1.3 2.1 2.7 3.2 4.1-.1.2-.2.4-.2.9zm-6.8-53.9c-.4 1.2-1.4 2.2-2.6 2.6-1.4.7-2.5 4-4.4 1.6-1.3-1.7 1.1-3.3 2-4.8.6-1.2 1.9-1.8 3.1-1.4.9.3 1.3 1.3 1.9 2zm-43.7 32c-1.8 1.1-4 1.6-6.1 1.4-1.2 0-2.3-.3-2.2-1.8-.1-1.2.8-2.3 2-2.4h.4c2.2-.2 4.5.9 5.9 2.8zm11.6 27.1c-.7-1.1-1.8-2-.9-3.4.8-1.5 2-2.8 3.5-3.7.8-.4 1.5.1 2 .6.7.6.8 1.6.2 2.3-.1.1-.1.2-.2.2-1.6 1.5-3.1 2.7-4.6 4zM60 74.2v2.4c0 1-.5 1.4-1.5 1.4s-1.6-.4-1.6-1.3c-.1-1.8-.1-3.5-.1-5.3 0-1 .3-2 1.5-2.1s1.6.9 1.6 2c.1 1 0 1.9.1 2.9zm-20.2 46.3c-2 2.9-4.1 5.6-8.4 4.5 1.6-4.6 5.5-3.5 8.4-4.5zm54.6-16.3c-4.6 3.1-5.6 3-9-.9 3-.6 5.8-.8 9 .9zm-9.3 12c3.3-.5 5.1 1.6 7.7 2.4-4.1 2.3-5.3 1.9-7.7-2.4zm11.5 8c-.2 1.2-.8 2.2-1.8 2.9l.1.1c-.1-1.3.6-2.4 1.7-3zm-10.4 10.6l.6-.5c.2.7-.4.3-.6.5zm12.3-13.6v2l-1-.1.1.1c0-.7.3-1.5.9-2zm-13.3 14.5z"/><path class="st1" d="M85.3 135.8c0-.7.3-.9 1-1l-.1-.1c0 .7-.4 1-.9 1.1zm9.4-8.7l-.1.1.1-.1zm1.9-2.9c.1-.6.3-1 1-1l-.1-.1c0 .6-.4 1-.9 1.1z"/></svg>