<svg id="Слой_1" xmlns="http://www.w3.org/2000/svg" viewBox="0 0 366 400"><style>.st0{fill:#ffc700}.st1{fill:#fff}</style><path class="st0" d="M66.9 90.6c.1.9.5 1.8 1.1 2.5.6.7 1.2 1.7 0 2.2-.9.4-2.7.6-2.8-.4-.5-3.5-3.7-3.8-5.7-5.4s-4.4-3.2-7-5c-1.1 3-.3 5.5-.6 8-.2 1.5.4 3.8-2.1 3.9-2.2.2-4.1-1.4-4.3-3.6v-.6c-.1-9.8-.1-19.6-.1-29.4 0-1.2-.2-2.5 1.3-3.1 1.9-.8 2.3-2.8 3-4.8 1.4 1.9 2.6 3.5 5.3 3.5 3.4 0 6.4 2.1 9.1 4.1 3.1 2.4 3 7.1.3 10.2-1.9 2.1-4.5 3.2-6.9 4.5-1.5.8-1.8 1.8-.2 3 3.3 2.7 6.7 5.4 10 8.1 1.1.9 1.8 1.9-.4 2.3zM51.5 74.8c4.5-1.6 6.5-2.8 8-4.4 1.8-2.2 1.9-4.4.3-6.2-1.3-1.4-6-2.3-7.3-1.4-.7.4-1 1.2-.9 2-.1 3.1-.1 6.3-.1 10zm186.1.5c-2.5-4.4-2.7-6.5-.9-7.8s3.5-.8 5.1.4c2 1.5 1.8 3.3-.6 7.2 1.1.6 1.9-.9 3-.5.7.2 1.3.8 1.6 1.5.4 1.1-.6 1.3-1.2 1.5-1.7.6-3.5 1-5.4 1.1-8.8.5-17.5-.9-26.2-.2-8.1.7-16.2.5-24.2-.7-.6-.1-1.2-.1-1.8.1-5 2.5-10.6 1.3-15.8 2.3-3.1.6-5.7-1.7-8.9-1.4-2.7.3-5.5.1-8.2.5-3.3.5-6.5 1.3-10 0-2.1-.6-4.3-.4-6.3.5-2.4 1-4.8.7-7.3.6-2 0-3-1.3-3.8-2.8-.5-1-.2-1.9 1-2.1 2.2-.4 4.4-1 6.8-.6 7.9 1.4 15.8 1.6 23.7 1.9 12 .6 23.8-2.3 35.7-2 2.6 0 5.1 0 7.6 1.1 2.2.8 4.6.9 6.8.3 6.8-1.3 13.6-2.5 20.5-.6 2.7.9 5.3-.9 8.8-.3zm2.2-5.7c-.3.1-.7.2-.8.4-.1.5.3.9.8.9.2 0 .7-.2.7-.4.2-.5-.2-.8-.7-.9zm-171 7.9c.1-4.2-.1-8.2.9-12.1.9-3.5 2.5-6.3 6.7-6.5 1.5 0 2.5-1 3.8-1.6 2.6-1.2 4.6-.9 6.4 1.5 2.6 3.4 4.2 7.4 4.7 11.6.9 6.2-.6 12.1-.3 18.2.2 2.3-1.3 4.5-3.5 5.2-1.1.4-2.2 1-3.3 1.6-4.4 2.2-4.4 2.2-7.8-1.3-.6-.6-1.2-1.8-2.2-1.4-3.6 1.3-3.8-1.6-4.5-3.6-1.3-3.8-.7-7.8-.9-11.6zm5.8 0c-.6 3.2.4 6 1.1 8.8.5 1.9 1.8 3.9 3.9 3.8 1.5-.1 3.6 1 4.8-1.4 3.6-7.2 4.3-15.4 1.9-23.1-.7-2.2-2.6-3-4.6-3.3-1.8-.3-3.5.8-3.9 2.5-.8 4.5-4.6 8.1-3.2 12.7zm1.1-16.7c-3.1 1.5-4.1 3.2-3.8 6.6 1.6-2 2.9-4.2 3.8-6.6zm11 27.9c1.2-1.8 2.6-3.6 2-6.6l-2 6.6zm-14.6 1.5c.4-2.5 0-3.7-1-5.1-.4 1.7.4 2.8 1 5.1zm52.6-17.4c6-3.5 8.7-10.6 16.1-12.7-4.2-3.3-8.2-5.2-12-7.3-.8-.4-1.6-.9-2.2-1.6-.4-.6-1.3-1-1-1.9s1.1-1 1.9-1H145c.7 0 1.7 0 1.9 1 .2 1.3-1 1.3-1.9 1.4-2.7.4-5.4.1-8.6 1.1 2.8 2.7 5.7 4.2 8.4 6.1 1.8 1.3 1.8 2.4-.2 3.3-4 1.9-6.7 5.1-10.3 9.1 5-1.1 10.3-.6 15 1.6-8.2 2-16.4.6-24.6.9zm41.9 18.5c-.1-1.2-.1-2.4 0-3.6.3-1.8.7-3.3 3.2-2.3 2.2.9 4.5.3 6.8.3 2-.1 4 .2 5.8 1 2.9 1.3 4.6 4.3 4.4 7.5-.1 3.2-1.9 5.1-4.6 6.2-2.1 1-4.4 1.4-6.7 1.3-2.9-.2-3.8 1.2-3.6 3.9.1 1.7.1 3.3-.1 5 0 1.1-1 2-2.1 2-1.5.1-1.6-1.1-1.7-2.2-.5-6.5-1-13-1.4-19.1zm17.3 4.8c.2-.2.9-.1.4-.7l-.4.7zm-8.2-7.4c-1.6.4-3.9-1.4-4.4 1-.5 2.2-.1 4.5 0 6.8 0 .9.8 1.2 1.6 1.1 2.2-.4 4.5-.4 6.7-1.3 1.7-.5 2.8-2.1 2.5-3.8.1-1.8-1.3-3.3-3-3.4-1.2-.3-2.4-.4-3.4-.4z"/><path class="st0" d="M226.3 60.6c-.1-2.6.3-6.4-.8-10.2-.6-1.9.4-2.9 2.4-2.7 3.2.3 6.4.2 9.6.7 5.4.9 7.6 6.1 4.6 10.8-2.1 3.3-5.1 5.5-9.1 5.2-2.4-.2-3 .6-3 2.7 0 1.2 0 2.4-.1 3.7-.1 1-.5 1.8-1.6 1.8-1 .1-1.9-.5-2-1.5V60.6zm3.5-5.6c.5 1.5-.8 3.9 2.3 4s4.6-1.1 4.5-3.6-1.5-3.6-4.6-3.8-1.7 2-2.2 3.4zm81.3 75.5c-5.1-.6-10 1.2-15.1.8-.9-.1-1.8 0-2.8 0-1.3 0-2.4-.1-2.5-1.9 0-1.8 1-2 2.4-2 6.1-.1 12.2-1.5 18.3-1 2.7.2 3.7-.9 3-3.4-1.7-6.3.2-12.4 1.2-18.6.1-.8.1-1.6 1.1-1.7.8-.2 1.6.3 1.8 1.1v.4c0 7.9 1.8 15.8.6 23.8-.3 2.2-1.3 3.7-4 2.6-1.1-.5-2.6-.1-4-.1zM100.8 76c0 4.1.1 8.3 0 12.4-.1 2.4-.1 4.9-3 6.1-2 .8-3 .4-3-1.7s.3-4 .5-5.9c.6-7.5.1-15-.1-22.5-.1-.6-.1-1.2 0-1.8.3-1.5-.8-3.7 1.8-4.1 2-.3 3.8 1.5 3.8 4.2.1 3.7-.2 7.3-.3 11V76h.3zm105.8-26.5c-.7 1.7-2 1.9-3.4 1.8s-2.8-.2-4.1-.2c-2 0-4.2-.5-4.1 2.8.1 2.9 2.1 2.4 3.9 2.4s3.4-.1 5.1-.1c.7 0 1.7.1 1.8 1 .1 1.3-1.1 1.4-1.9 1.4-1.7.1-3.4.2-5.1.1-2.7-.1-4 1-3.8 3.8.1 2.1.1 4.3-.1 6.5-.1 1.6-.2 3.3-2.1 4.4-1.4-4.3-2-8.7-1.8-13.2.1-3 .3-6.1-.5-9.1-.9-3.4.9-4.8 4.2-3.5 2.4 1 4.9.4 7.3.8 1.5.1 3.3-.5 4.6 1.1zm-37.6 12c-.2 1.8.2 3.7 1 5.3 2 3.4 5.1 4.3 8.6 2.3.4-.2.7-.6 1.1-.8 1-.5 2-2.4 3-1.2 1.4 1.6-.5 2.8-1.6 3.7-4.7 4.1-10.5 3.1-13.6-2.2-4-6.8-.3-18.6 6.9-21.8 3.3-1.5 7.6-.8 9.3 1.6.6.5.7 1.4.2 2.1-.4.6-1.1.5-1.7.4-.3 0-.6-.2-.9-.2-7.9-1.4-12.3 2.5-12.3 10.8zm20.9 39c2.9 1.3 6.2-.6 9.7 0 3.8.7 5.9 3.5 4.3 6.9-.2.4-.6.9-.9.9-.7.1-1.1-.4-1.2-1.1-.1-.9-.1-1.8-.3-2.7 0-1-.8-1.7-1.8-1.8-1-.1-1.8.6-2 1.5-.2 1-.5 2.1-.9 3.1-.5 1-1.6 1.4-2 .2-.8-2-1.7-1.7-2.9-.4-.3.3-.7.6-1.1.8-1.7.8-3.6 1.4-5.2 0-1.4-1.3-1.1-3.1-.5-4.7.7-2 2.2-2.9 4.8-2.7zm1.3 3.5c0-.7-.6-1.2-1.3-1.2h-.3c-.9.1-1.8.4-1.8 1.6 0 .7.6 1.3 1.3 1.3h.2c1 0 1.8-.7 1.9-1.7zm-76.5-4.3c-.2.4-.3 1-.6 1.2-.6.4-1.1 0-1.6-.4-4.1-3.4-4.2-3.5-8.6 0-.9.7-1.4.9-2.3 0s-1.8-1.3-1.1-2.6c1.7-3.4 4-6.4 6.8-9 1-.9 1.9-.8 2.6.4l4.5 9c.2.5.3 1 .3 1.4zm-5.8-5.5c-.2-.2-.4-.3-.6-.4-.1 0-.3.2-.3.2.1.2.2.4.3.7l.6-.5zm46.6-30.9c1.1 2.3 2.6 4.2 6.2 3.5-1.6 2.4-3.3 1.8-4.5 2.4-1.1.3-1.7 1.4-1.4 2.5v.1c.3 1.3 1.2 1.2 2.2 1 .6-.2 1.2-.3 1.8-.4.4 0 .8.3 1 .6.1.4 0 .9-.3 1.2-1.3 1.3-3.2 1.9-5.1 1.4-1.8-.3-2.5-1.6-2.4-3.4 0-.3.1-.6.1-.9-.4-4.2-.4-4.2 2.4-8zm-44.3 16c3.1.2 5.4-.2 7.6.8.7.3 1.6.5 1.4 1.5-.1.7-.8.9-1.3 1-3.9.9-7.9.8-11.8-.2-.9-.3-1.8-.8-1.7-1.9s1.1-1.3 2.1-1.3c1.4 0 2.9.1 3.7.1zm38.5-34.4c-.1-2-.2-3.6 2.6-2.7 1 .3 2.4-.5 3.6-.5 3.4-.1 5.3 2.9 3.6 5.9-.4.8-1 1.6-2.1 1.4s-.9-1.1-1-1.8c-.1-1 .2-2.3-1.3-2.5-1-.1-1.6.7-2.1 1.5s-.8 2.2-2.2 1.7-1-2-1.1-3zm-45.3 30.7c5.1-1.3 10.3-1.1 15.8-.7-3 3.1-9.5 3.5-15.8.7zM213 65.2h-.9c-1.4-.2-3.6.4-3.8-1.6-.2-2.3 2.1-2.2 3.7-2.4.8-.1 1.5 0 2.3.1 1.4.3 3 .9 2.9 2.5-.1 2.1-2.1 1.1-3.3 1.4h-.9zM13.9 264.9l7.8-2.4-6.5-3.1c1.5-2.5 3.5-3.1 5.9-3 .2 1.2-3.3 2-.9 3.1 5.6 2.5 2.6 4.1-.4 5.3-2.8 1.1-2.2 2.1-.7 3.7s2.8 2.8 3.3 4.8l.1-.1c-3.5-1-4.6-5.6-8.6-5.8v-2.5zm16.9-39.8c.4-2.3-1-2.4-2.7-2.4-4.7 0-9.4 0-14.1-.1v-1.2l4.7-1.4.4.4c3.8 1.8 7.8.5 11.7.9 1.1.1 2.8-.4 3.1 1 .1 2-1.3 2.8-3.1 2.8zm18.3-25.5l.2 2.2-.7.6c-.7-.9-1.3-1.9-1.8-2.9-.4-1.2-1.6-2.7-.3-3.8 1.7-1.4 2.3 1.6 3.8 1.4l1.3 1.2.3.1-.2.2-.2-.3-1.3-1.3c.6-2-2.9-3.8-.2-5.8l2.6 3.5.2.1-.3-.2c.1-1.6-.7-3.1-2.1-3.9-.1-.9-.6-2.1-.2-2.6.7-1.1 1.5.6 2.5.4l1 2.5 1.5 1.1.3-.2h2.4v.3l-.1-.4c-.4.5-1.2.5-1.7.1l-.1-.1c-.2.3-.6.5-.9.3l-1.5-1.1c0-1 .3-2.1-1-2.6 1.4-2.4-4.2-4.9.1-7.3.3.9.7 1.7 1 2.5h.2-.3c0-1 .3-2-1-2.5v-5.2c4.5.1 8.3 1.5 11 5.3l-.1-.1.2 2.4-.5.5c-.3.1-.7 0-.8-.4l-.1-.3.1.4 1.2 2.5-.1-.2 1.3 1.3-.1-.1 1.3 2.5-.1-.1 1.3 1.4-.1-.1c.7 3 2.5 5.6 4.9 7.4l-.1-.1.7 3.3c-6.3-5.8-11.7-12.2-15.1-20.1l.2-.1-.3.1-2.3-1.3.1-.1c2.9 10.4 9.2 19 15.4 27.6-1.9 1.2-2.4-.6-3.4-.9l-1.3-1.1c0-.2-.1-.3-.1-.5 0-.1-.2-.1-.3-.1l.5.5 1.4 1.1c-.4 1.3-1.4 2.2-2.7 2.6-.1-.8-.6-1.1-1.3-1 0-.8-.4-1.3-1.3-1.3l-1-2.6-.1-.3.1.4 1.1 2.4 1.3 1.4 1.3 1c-.4 1.3-.7 3.1-2.4 1.1-1.7-1.9-3.2-3.9-4.7-5.9l-1.5-1.1-1-2.6-.1-.3.1.4 1.1 2.4 1.5 1.1c-.4 2-.9 3.8-3.1 1.3-1.8-2-2.8-4.8-5.5-5.9l-.1-.1zm14.4 2.6L62 201c0-1 .1-2-.9-2.6l-.2-.2.2.2c.3.8.7 1.6 1.1 2.4l1.5 1.2-.2.2zm173.9 89.2c-1.8 0-3.5-.9-4.6-2.4 3.1-3.2 8.2-5.6 3-11.4-1.4-1.6 2-5.4-1.2-7.5 1.3-1.9 4-2.8 4.9-4.4 1.3-2.2 1.7-6 3-7.4 3.1-3.2 2.3-4.2-1.8-5.5 6.3.5 5.4.4 4.8 5.5-.4 3.3.5 6.1-1.9 9.5-1.4 2-3 1.4-4.2 2.6l4.4 2.4c-5.7.3-2.2 5-2.2 5.1 3.6 4.6.2 7.8-2.8 9.8-2 1.3-2.4 2-1.7 3.9l.3-.2z"/><path class="st0" d="M72.1 191.1c0 4.7 4.9 7.2 5.9 12.6l-6.3-5.3.1.1c-1.1-2.8-2.8-5.3-4.9-7.4l.1.1-1.3-1.3.1.1c0-.8 0-1.6.1-2.5l.3-.1-.4.1-1.3-.1.1.1-1.3-1.4.1.2-.4-2.1.5-.5 1.6.5c0-1.3-.3-2.4-1.8-2.8l.1.1c0-2.3-1.8-4.6-.4-7l.7-.7c3.1 4.1 7.1 7.6 9.3 12.4v1.3-.1l1.3 1.3-.1-.1 1.3 2.6-.1-.1 1.3 1.3-.1-.1c.3 2.7 2.9 4.1 4.1 7.8-4.7-2.3-5.9-6.5-8.8-9l-1.3-1.2-.2-.2.2.2 1.5 1.2zm5.9-16.8c-.3-2.1.2-3 1.8-.8 1.9 2.7 2.6 6.1 5.4 8.2l-.1-.1 1.3 2.6-.1-.1h1.4l-.1.1c1.1.4 1.1 1.4 1.3 2.3l-.2.2.2-.2c1.9 1.7 3.2 3.9 3.6 6.4-7.4-.4-8-7.6-12.8-10.8l7 12.1-1 .5-10.2-14.3.1.1V178l-.1.1v-1.4l.1.2c.2-1.5-1.5-4.7 2.4-2.6l.2.2-.2-.2zm66.2 168.9c-4.2-3-9.6.3-13.9-2.6 1.2-1.9 3.8-.9 5.1-2.5-.6-1.5-3.2-.5-3.4-3.1 5.6.3 11.1-.8 16.2-3.1-1.7 4-5 2.7-6.7 4.8 3.8-.8 4 4.2 7.7 3.9-.9 2.5-2.8 2.5-4.4 2.9l-.6-.3zm61.8 7.4c-.9 3.1-2.6 5.5-5.8 2.7-2.3-2-3.6 2.9-5.4.1l.5-.7c1.5-2-1.1-3.7-.4-5.7l3.7 5.2c2-4-1.8-5.1-1.1-8.2 2.4.7 3 3.1 4.6 4.3l.2.1h-.3c.8-1.5-1.6-2.9-.3-4.5 2.6.5 3.3 3.3 5.3 4.4h-.1c.6-2.9-2.3-5-1.8-8.2 2.5.5 3.3 2.6 4.6 4.2l-.5.7c-1.1 1.1-.2 2.2.1 3.3s1.3 2.3.2 3.3c-1.4 1.3-2.4-.8-3.7-.9 0-.2-.1-.3-.2-.5 0-.1-.2 0-.4 0l.8.4zm-61.4-2.2l-1.9 1.3c3.6 5.4-3.2 3.1-3.9 5.3 1.1 1.2 3.3-.4 4.1 1.5-.9 3.8-7.9-1.2-7.1 5l.1-.1c-4 .6-3.5-3.1-4.3-5-1-2.3 2.8-1.3 3.4-3.3l-5.5-2c4.7-1.6 9.5-2.6 14.5-3.1l.6.4zM45.4 219c1.9-3 1.6-5.3-2.7-6.6 6.1-1.3 6.6-3.8 2.5-9.3.7-2.5 2.8 2.2 3.4-.7l.7-.6c5.2 8.5 4.1 13.1-4 17.1l.1.1zm-7.3 15.8c-3.7-2.8-6.9 2.3-10.6.7 1.4-2.9 5.3-2.1 6.7-5-4.2-1.7-8.5 1.3-13.7-.5 3.8-2.4 6.9-4.2 10.5-4.9l-2.6 3.4c4.3.1 8.3-.5 10.9 3.4.6.9.8.8-1.2 2.9zm162.1 78.1c-1.7 1.9-6.8-.5-3.9 4.5-3.9.6-4.7 10.1-10.8 3.4 1.3-2.2 4.9-2.4 5.5-6.9.5-3.6 5.5-2.3 9.2-1zm-5.3-38.2c3.6-1.9 1.7-5.7 2.8-8.6 2.6.3 1.5 2.9 2.7 4.1 1.6-.8.9-4.8 1.8-3.7 1.6 1.9 5.3-2.7 4.9 2l.1-.1c-.6 6.4-7 5.6-10.6 8.2-.8.6-1.4-1-1.7-1.9zM21.1 256.5c-2.4-4.1.5-8.7 6.1-9.8l2 2.7c-4.6.2-2.8 7.7-8.1 7.1z"/><path class="st0" d="M32.1 243.1c-2.2-.7-4.8.7-7.4-1.8l13.4-6.6c-.8 3-4.4 3-6.2 5.6l5.8.6c-.2 2.1-1.7 2.2-3 2.6l-.5-.4c-.8-.7-1.6-1.4-2.2.3l.1-.3zm112.7 100.5c.7 1.5 3.4.9 3.3 2.7s-2 2-3.5 2.2l-.6-.4c-3.4-2.5-7.4.4-11.8-1.8l12-3 .6.3zm-4.1-23.2c2.3 2.3-2.5 5.2.7 7.6.3.2-2 1.8-3.3 1.9-1.4.1-2.8-.7-3.3-2s.5-1.9 1.4-2.9c1.4-1.7 1.2-4.9 4.6-4.5l-.1-.1zM29.9 210.8c.4.8-2.8.7-.4 2.1 2.8 1.6.3 2-.9 2.6l-.4-.5c-3.1-2.1-6.5 1.3-10.1-.9 3.5-2.7 7.5-3.1 11.3-4l.5.7z"/><path class="st0" d="M29.4 210.3l5.8-3-10.2-3 .3-1.1 12.9 3.1c-1.5 4-5.1 4-8.2 4.6l-.6-.6zm160.5 144.3c-1.1.5-1.2 4.3-3.4 1.1-1.3-1.9-3.1-3.6-2.1-6.8 2.9.8 4.4 3 6.1 4.9l-.6.8z"/><path class="st0" d="M190.4 353.9c2.4-2.6-1.3-4-1.1-6.8 3 1 4.1 3.8 6 5.7l-.5.7c-1.1 2.7-2.3 4.9-4.9 1.2l.5-.8zm-112.5-165l4.7 6.4-.7.8-5.3-3.7.1.1-1.3-1.3.1.1v-2.6l-.1.1h1.3l-.1-.1c.4.5.9.5 1.4 0l-.1.2zM195 274.6c-1.6-3-2.7-6.1-1.8-9.6.6 3.3 2.2 6.3 1.8 9.6zM26.3 217c-2.1 1.8-4.7 3-7.4 3.4l-.4-.4c2.1-1.8 4.6-3 7.2-3.6l.6.6zm183.5 127.3c3.7-1.1 3.2 1.5 3.6 4.7l-4.1-4 .5-.7zm-135.5-164c-1.5-1.4-2.4-3.3-1.5-4.9.5-.9 1.7.9 2.7 1.4l-.1-.2v1.4l.1-.1-1.3 2.5.1-.1zm-47.2 66.5c1-2.1 3.6-2.1 5-3.7l-.2.1 2.2-.3.5.4c-2 2-4.4 3.6-7.5 3.5zm58.1-65.2l-.6-3.4c2.1.3 1.6 2 1.7 3.3l.1-.1h-1.3l.1.2zm-9.7-1.3v3.7l.1-.1c-1.3-.9-1.3-2.2-1.2-3.6l-.1.1h1.3l-.1-.1zm10.8 1.3c1.4.3 1.2 1.4 1.2 2.4l.1-.1h-1.3l.1.1v-2.5l-.1.1z"/><path class="st0" d="M76.8 186.2c-1.1-.4-1.2-1.4-1.3-2.3l-.1.1c1.3.3 1.2 1.4 1.3 2.3l.1-.1zm-.1.1c.8.6 1.2 1.6 1.2 2.6l.1-.1h-1.4l.1.1c.1-.9.1-1.8 0-2.6zm-48.1 29.3l-2.3 1.4-.5-.6 2.4-1.2.4.4zm16.7 3.3l-.2.9c-.7-.6.1-.6.3-.8l-.1-.1zm-22.8 54.3l.5.8c-.9.1-.3-.6-.5-.9v.1zm40.6-98.6c-.4-.4-.9-.8-.2-1.3.1-.1.5.4.8.6l-.6.7zm144 93.9l.1.1.1-.2-.2.1zm-66.3 52l.1-.5-.1.5zm97.5-27.7l-1-1.4-.1.1.9 1.4.2-.1z"/><path class="st0" d="M238.2 292.9l.3-.1h-.2l-.1.1zM74.3 187.6c.6-.1 1.2.4 1.2 1v.2l.1-.1h-1.3l.1.1v-1.3l-.1.1zm61.5 173.9z"/><path class="st0" d="M73.1 186.4c.8 0 1.1.5 1.2 1.2l.1-.1h-1.3v-1.1z"/><path class="st1" d="M196 313.6l-1 2.8.1-.1-1 1v-.1c-1.1 1.1-1.7 2.6-1.8 4.1-.2 1.5.6 2 1.8 3 4.5 3.7 9.7 6 14.3 9.6.5.5 1 1.1 1.4 1.8l.1-.1c-3-.4-5.3-2.3-7.9-3.5-1.9-.9-3.6-2.5-5.9-.9-.7.4-1.6.1-2.1-.6-2.1-2.6-5.2-3.2-8.2-3.6-3.5-.5-6.3-2.2-9.2-3.9-.9-.5-1.8-1.5-2.8-1.6-3.3-.3-4.4-2.3-4.5-5.2.1-1.3-.9-2.4-2.2-2.5h-.5c-1.4.1-2.8 0-4.1-.2-1.8-.4-2.6.2-2.8 1.9-.4 2.5-1.8 3.6-4.4 3.8-3 .2-5.9 1.6-9 1.5-4.6-.1-4.6.1-4.7-4.4.1-.7-.1-1.4-.6-1.9-.9 1.4-.2 2.9-.3 4.3-.2 2.3.6 3.8 3.2 4 1.7.2 3.2.6 3.8 2.8s2.4 1.5 3.9 1.5c2.6.1 5.2-.1 7.4 1.9 2.3 2.2 2.2 4-.2 6.1-2.2 1.9-5 2.4-7.6 3-2.2.5-3 1.5-2.1 3.5 2.9 5.9-.4 10.6-2.6 15.6-.5 1.3-1.7 2.2-3 2.5-5 1.5-9.7.6-14.4-1-1.5-.6-2.5-2-2.4-3.6-.3-3.6-3.2-6.1-4-9.6-.2-1-1.5-1-2.3-1.2-5-1.1-9.3-3.9-14.1-5.5-1.7-.6-3.8-1.3-3.7-3.6.1-2.1 1.8-3.6 3.6-4.5 1.4-.6 2.8-1.1 4.3-1.4.3-.4.3-.9 0-1.2-2.4-4.2-2.2-5.1 2-7.4.9-.5 1.8-.9 1-1.9-.7-.9-1.4.1-1.9.5-5.4 5-12.4 7.8-18.1 12.3-5.1 4-10.5 7.8-15.1 12.5-.4.5-1 1-.8 1.5 1.1 2.8-.9 4.8-2.1 6.8-5.5 9.3-7.8 20.2-13.9 29.2-.2.3-.3.6-.4.8-1 1.5-1.3 4.3-3.2 4.1-2.7-.3-.3-4.1-2.6-5.2 0-.4.2-.8.4-1.1 4.6-4 5.6-10.1 8.8-14.9 1.7-2.6.3-5.4.6-8.1 1.3.5.4 1.9 1.7 2.5 3.1-3.4 4.3-7.8 6.8-12.4-4 .9-7.8.8-8.7 5.3-.1.5.2 1-.9.6-2.1-.8-4.5-.4-6.7-1.3-1.5-.6-3.1-1.2-3.7-2.6-1.6-3.5-4.1-6.5-5.4-10.1-3.8-10.2-7.6-20.5-10.5-30.9-.4-1.9-1.5-3.7-3.1-4.9-2.5-1.9-3.5-5-5.9-7.5 3-1 4.9-.6 5.9 2.2 3.2 8.4 8.1 16.2 9.3 25.4.1 2.4 1.9 4.3 4.2 4.6 2.4.6 3.5 3.9 4.8 6.3-1.3 1.1-1.8-1.1-3.2-.2.3 3.1 1.6 6.1 3.5 8.6.9 1.2 2.1 2.1 2.4 3.8s1.7 1.8 3.2 2c4.4.5 8.2-1.6 11.7-3.7 9.8-6 19.3-12.5 26.7-21.5l.7.6c.1.3.2.6.3.8.1.1.3.1.4 0 3.3-2.6 6.9-4.9 10.7-6.7.5-.3.9-.8 0-1.8-3.2 1-5.7 3.4-8.7 5l-.6-.7c3-3.3 6.9-5.5 11.3-6.4 3.6-.8 6.3-4.4 9.6-6.5 1.2-.7.9-2.9-.3-4.6-1.6-2.1-4.2-3-5.8-5-.8-1-1.7-.1-2.3.5-1.8 1.6-3.6 3.3-5.4 5-7.9 7.3-16.4 13.8-26.6 17.8-1.4.6-3.1 1.1-3.7 2.6-.9 2-3.1 3.1-5.2 2.5-2.4-.9-4-3-4.2-5.5-.2-2.1-.1-4.3-.2-6.5-.3-7.1 1-14.5-2.4-21.2-.6-.9-.4-2.1.5-2.7l.6-.3c.9-.3 1.8-1.7 2.9-.6s1.7 2.2.6 3.7c-1 1.2-.7 2.4-.4 3.9.7 3.3.9 6.7.4 10-.8 3.8-.2 7.8 1.8 11.1.9 1.5 2 2.9 4 2 3.4-1.4 6.2-3.3 7.2-7.1 1.5-5.7.9-10.8-3.7-15.2-2.2-2.2-3.9-4.7-5.3-7.5-4.2-8.1-9.5-15.7-10.5-25.2-.5-4-2.1-7.4-7-8.6-3.7-.9-6.4-4.1-9.7-6.1s-9-.8-11.2 2.4c-.8 1.1-4.3 4.4-5.4 4.8-2.4.9-3.8 2.5-3.7 5.1.1 3.3-2.3 5.1-4.5 6.1-4 1.8-4.7 6.1-7.7 8.5-.2.2-.3.5-.3.8 2.9 4.5.6 9.3.6 13.9 0 10.3.6 20.6-2.7 30.6-.9 2.9-2.2 5.6-3.8 8.2-1.8 3 1.6 5.6 1.6 8.7.1 8.6-.3 17.2-1.1 25.7 0 .3 0 .6-.1.9-1.2 3.6 2.7 6.1 2.4 9-.3 3.1-2.3 5.9.5 8.8.4.4.4 1.6 0 1.6-4.4-.1-1.8 3.3-2.5 4.8-1.5 3.1-2.9 6.3-5.7 8.6-.3-2.1.8-3.9 1.8-5.6 2.5-4.4 3.2-8.8.1-13.3-1.5-2.2-1.3-4.8-.6-7.1 2.3-7.7 3.3-15.7 3.1-23.8.1-4.6-.6-9.2-2.1-13.5-.8-2.2-.8-4.2.6-6.1 3.2-4.3 4-9.1 3.8-14.4-.2-3.8 0-7.7.7-11.5v8.9c.7-3.7 1.5-7.3.6-10.9-.5-1.9.1-3.6.4-5.4.7-4.1 1.2-8.1-.4-12.2-1.2-3 .5-5.7 1.6-8.3 1.9-4.1 4.6-7.7 8-10.6 0 .3-.1.8.4.9 0 0 .1-.2.1-.3-.2-.2-.3-.4-.5-.6 1.4-5 4.1-9.5 6.1-14.2.9-2.2 2.8-3.7 4.2-5.3 2.6-2.9 5-5.8 7.4-8.7 1.6-1.9 2.4-4.3 2.2-6.7-.1-2.2-.6-3.6-3-3.5-2.8 0-4.2-1.7-4.5-4.3-.6-5.2-1.4-10.5.8-15.4 1.1-2.5-1.3-4.8.9-7.1-14.4 2.6-18.5 16.2-15.4 27.5.2.7.4 1.5.7 2.2 4.5 9.8 2.2 18.9-3.1 27.4-1.8 2.9-3.4 5.7-3.6 9.1l-.1.1.1-.2 1.9-.8-.1-.1c-1.4 2.5-1.4 5.5-2.7 8.2-5.4-4.5-5-11.5-.1-15.7 3.5-3 6.6-6.6 5-12.2-.7-2.6.3-5.5 1.5-8 .8-1.8.8-3.9 0-5.7-3-7.7-2.8-15.7-.7-23.5 1.3-4.7 4.6-8.6 9.9-9.2 6.3-.7 9-5.5 11.5-10 4.2-7.4 9.6-13.4 17.1-17.4 2.6-1.4 5.5-2.1 8.4-2 1.4.1 2.8 0 4.1-.4 7.5-2.2 13.8.2 19.4 5.1 2.6 2.2 4.3 4.8 4.2 8.3-.1 3 1 5.6 1.6 8.4 1 4.3 2.7 8.5 1.3 13.4-1.2 4.4-1.9 9 .4 13.7 2.1 4.4 1.6 4.7-2.8 6.7-1 .4-1.7 1.4-1.7 2.4-.5 2.6-.6 5.2-.4 7.8.3 3.8-1.2 5.4-4.7 5-4.1-.5-7.9-.7-11.3 2.1-4.2 3.4-8.3 6.8-10.7 11.8-.8 1.6-1.3 3.1.4 4.5 6.6 5.4 12.5 11.7 19.9 16.3 4.8 3 5.7 3.1 8.7-1.9 4.8-7.8 9.7-15.6 12.9-24.3l.2.2-.3-.1v-5c1.7.4.4 2.1 1.8 3-.1-7 4.4-12.4 5.9-18.8.3-1.5.8-3 .5-4.5-1.5-6.4 1.5-11.6 4.3-16.8.8-1.4 2.4-2.1 3.9-1.8 1.7.2 1.8 1.9 2.2 3.2 1.2 3.8.6 7.6.9 11.4.1 1.4-.2 3.5 2.5 2.3.6-.3 1.2-.1 1.6.4 1.7 2 .9 7.4-.8 9.7-3.9 5.5-9.2 10.3-9.2 17.8 0 1.1-.9 2.2-1.3 3.4-4.5 11.7-7.8 23.9-9.8 36.3-.3 1.9-.6 4-2 5.6-.8.9-1.7 2.2-3 1.6-1.7-.8-.9-2.3-.3-3.5l-.1-.1c.1 1 .7 1.5 1.4.6 1.1-1.1 1.5-2.7 1-4.2l-1.4 1.7h.1c2.4-10.9 3.4-22.3 9.1-32.3 1.8-3.3 2.2-7.1 1.2-10.7-.2-1.4-1.3-2.5-2.7-2.7-1.7-.3-1.7 1.3-2.2 2.4-2.8 6.1-7 11.5-9.3 17.8-1.2 3.4-2.6 6.7-4.3 9.8-1.8 3.2-3.3 4.1-6.9 3.7-3.1-.4-6-1.4-8.1-3.7-3.4-3.8-8.5-5.5-11.6-9.6-.4-.6-1.1-1.2-1.9-.8-.9.5-1.2 1.5-.8 2.4 1 2.5.3 5.5 2.3 7.8.8.7.9 2 .2 2.8l-.1.1-.1-.3.2.3c1.4 5 5.5 8.3 8.4 12.3 2.5 3.4 6.8 6.2 11.9 5.3 3.8-.7 7.4 1.1 11.2.4-1.5 2.1-3.6 1.5-5.5 1.3-1.7-.2-3.3-1.2-4.9-.6-1.3.4-4.6-.7-3 3 .4 1-1.6 1-2.5 1.5v-1.3c-.1-.5-.3-1-.8-.9-.9.2-.6.9-.2 1.4.3.3.6.6 1 .9.7.8 1.4 1.7 1.9 2.7.7 1.5 1.7 1.7 3.3 1.6 8.5-.6 16.3-4.7 21.8-11.3 4-4.6 8.2-9.5 15-10.6 2.9-.5 5.1-.1 5.6 2.6.6 3.1 2.7 5.5 3.2 8.8s.8 4.1-2.2 5.4c-2.5.9-4.5 2.6-5.8 4.9-1.1 2-.3 3.7 2 3.9 8.7.8 17.3 3.4 26.2 1.3 2.9-.6 5.9-.4 8.6.5 2.2.7 4.3.2 5.3-2.3.6-1.1 1.3-2.1 2-3.1 3.2-5.1 4.8-5.9 10.6-5 2.9.5 5.9 1.3 7.9 3.4 2.3 2.4 4.8 2.1 8.2 2.1-3.3-7.4-5.6-14.6-9.4-21.3-1.1-2-1.7-3.6.4-5.1.6-.5 1.3-1.1 1.1-1.9-.9-4 .6-7.9-.1-11.9-.5-3-1.8-6.5 2.7-7.9.6-.2.8-1.6 1.1-2.4 1.7-5.7 3.3-11.5 5-17.2 1.1-4 3.6-6.9 6.6-9.8 4.4-4.2 9.4-8.4 10.8-15 .2-1 .7-2.2.5-3.1-1.3-5.2.6-10.3.2-15.5-.2-2.7.1-5.3-.7-8.1-1.2-4.1.3-8.6 3.7-11.2 6.1-4.9 12.1-9.8 20-11.9 8.2-2.2 16.1-3.5 23.6 2 3.3 2.3 6.3 5 9 7.9 2 2.2 3.3 4.9 3.6 7.8.6 5.3 1.9 10.5 4.1 15.4 1.3 2.7 1.8 5.7-1 8.5-1.8 1.8-1.2 4.6-.7 7 .7 3.7 2.5 7.2 2.5 11.1 0 .4.1 1.2.3 1.3 3.9 1.1 3.2 5.6 6 7.9s5.6 4.7 8.4 7.1 5.4 5 8.4 7.1c1.4 1 3.3 2.3 5.5.9 1.4-.9 2.3-.1 2.6 1.4.5 1.8.7 3.6.8 5.5-.2 6.4 1.6 12.3 3.5 18.4 5.3 15.9 9.3 32.1 12.1 48.6 1.5 9.6 5.7 18.1 10.5 26.4 3.3 5.7 4.4 11.1 1 17.3-1.7 3-3.4 6.3-3.1 10.2.3 2.5-.8 5-3 6.3-2.1 1.4-3 4.2-6 6.1 1.4-4 2.5-7.2 3.6-10.4.3-.8.9-1.9 0-2.5-1.1-.7-2.9-1.7-3.8-.8-5.4 5.4-12.8 3.5-19.1 5.4-1.6.5-3.2 1.2-5.3.6.8-.7 1.3-1.7 2.3-1.6 5 .6 9.6-1.6 14.5-2s7.5-4 8.5-8.5c1.8-8 1.9-16.1 1.3-24.3-.4-4.8-1.5-9.4-3.1-13.9-1-2.9-1.7-5.9-2-9-1-11.2-3.7-22-6.9-32.8-1.1-3.2-1.9-6.5-2.3-9.8-.6-7-4.8-12.9-6-19.7-.5-2.8-2.8-5.4-5.2-7.3-7.2-5.5-13.8-11.8-19.7-18.6-3.8-4.4-7.8-5-14.5-2.3-2 .8-4 1.5-6 2.3-4.6 1.7-8.3 4.4-10.3 9.2-5 11.7-9.8 23.5-10.5 36.4 0 .7-.5 1.5.5 2.2 4.1-2.9 5.1-7.3 5.2-12 .1-4.2.1-8.3 3.8-11.3l-.1-.1c-1.3 3.7-3.1 7.3-2.6 11.8 1.8-1 2-2.9 2.9-4.2.5-.6.9-1.4 1.8-1.1.9.3 1.5 1.3 1.2 2.2-.3.9-.7 1.7-1.1 2.5-.9 2.2-2.5 4.2-2.6 6.8-.1.9-.6 1.8-1.2 2.4-6.6 7.3-12.4 15.2-17.2 23.8-1.9 3.3-5.2 5.6-6.6 9.2-.6 1.5-1.8 1.7-3.4 1.2-4.3-1.3-8.7-1.8-12.9-3.4-1.4-.5-2.9-.9-3.9.2-1.5 1.7-3.2 1.7-5.3 2s-4 2.5-6.3 2.7c.3-1.6 2.9-1.8 2.4-4-2.6-.5-5.2.7-6.7 2.8-1.3 1.7-2.6 3.3-4 4.9v-2.8l.2-.1-.1.2c-.9.8-1.6 1.8-2.2 2.8-.7 1.6.4 1.3 1.3.8 0 .6 0 1.2-.1 1.8-.2 1.1-.6 2.3.9 2.6s1.8-.8 2.3-1.7c.4-.8.8-1.6 1.1-2.5.6-2.3 2.5-4.1 4.9-4.8zM37.4 244.5zm-.9-45.2c.3-.1.6 0 .8-.2s0-.5-.3-.4-.3.4-.5.6l-.1.2.1-.2zm84.8 143c.2.2.4.3.6.5.1 0 .2-.1.3-.1l-.9-.4c-.2 0-.3-.2-.4-.3-.1 0-.2-.1-.3-.1l.7.4zm-30.4-27.6c-.2.2-.7-.2-.7.4l.7-.4.1-.2-.1.2zm247.9 46c1.5-1.6 1.2-3.5.7-5.2-1.5-4.5-3.8-8.8-6.8-12.5-.1 3.4.8 6.7 2.8 9.4 1.6 2.6 3.2 5.1 3.3 8.3-3 1.3-4.2 4.3-6 6.6-.7.9-.8 2.1.6 2.6 1.1.4 1.6-.6 1.9-1.5 1-2.6 2.2-5.2 3.5-7.7zm-211-73.7c-3.1.4-5.4 2.7-8.2 3.7-1.5.5-3.3 2.4-1.6 4.3 2.7 3 4.4 6.4 6.7 10.4.6-2.6 1.9-5 3.8-6.9 2.3-2.2 3.2-4.6.9-7.5-.6-.8-.5-2-.7-3.1.5-.2 1.4-.1 1-1-.2-.6-.7-1-1.4-1-.5 0-.5.6-.5 1.1zm107.8-44.3c-3.2 1.4-6.3.6-9.4-1.1-2.9 6.5-8.8 7.1-14.6 7.6 2.1-1.8 4.1-3.6 6.9-4.3 1.7-.4 3.7-1.3 1.9-3.8-.4-.5.6-1.2.5-1.6-.4-3.1.1-6.4-1.6-9.3-1.5-2.5-2.6-2.7-4.4-.4-.2.4-.4.8-.6 1.3-.4.9-1.4 1.3-2.3.9-.2-.1-.3-.2-.5-.3-1.4-.9-.4-1.8.3-2.6l2.1-2.4c.7-1.3.2-2.2-1.4-3 .1 2.4-1.5 3.4-2.8 4.7-4.3 4.3-8.6 8.4-9.9 15-.6 3.4-.7 7.5-2.5 10.1-3.2 4.8-1.1 7.2 2.4 9.9 2.1 1.7 3.8 1.6 5.3-.8.8-1.3 1.1-2.9.8-4.4-.4-3.3.4-6.5-.3-9.6 2.5-.6 4.2.9 6.2.8-3.9 3.4-4.2 6.8-.3 10.2 1.2 1.1 2 2.6 2 4.2.5 5.2 1.7 10.3 3.5 15.2 4.3-5.4 9.5-9.2 10.8-16 .9-4.4 3.2-8.4 6.6-11.4 3.1-3.2 3.2-5.7 1.3-8.9l1.3-.1s1 .8 1.5.1c.1-.2 0-.6-.2-.8-.5-.7-1-.3-1.5 0s-.8.5-1.1.8zM55.8 216.9c.3 2.3-1.9 3.3-2.8 4.9-2.4 4.4-2.5 4.3-7.3 2.9-1 6.2-3.1 12-5 17.9-1.4 4.2-3.4 5.8-7.3 5.9-2.5 0-3 1.3-3.1 3.6 1.9-.4 3.7-1.1 5.3-2.1 1.8-.9 3.7-1.6 5.4-2.5 2.2-1.1 3.9-1 5.7.9 1.7 1.8 3.6 3.3 5.7 4.7 4.5 3.3 6.1 3.1 9.3-1.6s7.8-7.7 11.9-11.4c1.9-1.6 4.4-2.3 6.9-2.1 2 0 4 0 6-.1s2.3-1.4 2.1-3.3-2.4-1.8-2.6-3.5c-.2-2.1 3-1.1 2.8-3.4s1.2-4 3.6-4.7c.7-.2 1.2-.8.9-1.3-1.7-2.7-1.3-6-2.5-9.7-.5 1.5-.6 2.1-.8 2.6-.4 1-.7 2.3-2.1 1.9-1.2-.3-2.2-1.2-2.7-2.3-.5-1.4.9-1.6 1.8-2.2 1.2-.7 2.7-1 3.4-2.6-2.2-.4-3.4 1.9-5.3 1.3.2-1 1-1.8 2-2 5.3-1.8 4.9-6.4 5.2-10.6.2-1.3-.6-2.5-1.8-2.9-1.4-.4-1.5 1.2-2 2.1-3 5.6-5.6 11.3-11.7 14.3-.5.3-1 .7-1.1 1.3-.4 3.6-2.9 4.2-5.9 4.6-3.3.4-4.2 1.9-3 4.9.8 1.9 1.2 3.7-.4 5.1s-1.5 2.7-.1 4.3c.7.7.7 1.7 0 2.4-.1.1-.3.3-.5.3-.8.6-1.8.6-2.6.1-1.1-.7-1.5-1.8-.6-2.7 1.8-2 .9-3-.9-4.3-.9-.6-1.1-2.1-1.6-3.3-1-2.6-1.8-5.5-4.3-7.4zm23-40.6c3.4 2.1 7 3.7 10.8 4.9-.9-3.6-3.4-4.8-6-6.2-2.1-1.1-4-1.6-5.7.5-1.2-.4-2.6-.4-3.5-1.1-3-2.6-6.1-2.4-9.5-1.2-.9.3-1.8.4-2.7.4-3.4-.4-6.3.9-9.1 2.7-3.4 2.3-6.3 5.4-8.2 9-3.8 6.6-4.8 13.1-2.1 20.2.3.9.9 1.8.8 2.6-1.1 5.8 4.4 9.4 4.8 14.7.5.1.9.1 1.4.1 0-5.5 5.2-7.7 7.7-11.9.9-1.5 2.5-1.8 5-.4-3.3.8-5.2 2-4.3 4.6 1.3 3.4 2.8 6.8 4.5 10.1.2.4.6.6 1.1.7.6 0 1.3-.6 1.1-1.2-1-3.4.8-6.6.8-9.9 0-1.1-1.3-2.6.5-3.1 1.6-.4 1 1.4 1.4 2.3.7 1.6 2 1.8 3.5 1.5 1.3-.2 3-.9 2.5-2.1-1.8-4.5.8-6.2 4.3-7.5.7-.3 1.3-.8 1.7-1.5 2.2-4 6.2-6.6 8.5-10.7s2.3-7.2-.8-10.6c-.9-.8-1.9-1.6-2.9-2.2-2.3-1.5-4.5-2.5-5.6-4.7zm176.1 25.8c-2.8-.1-4.7 1.1-6.4 3.5-2.1 2.8-3.1 6.4-2.6 9.9.2 1.5-.1 2.8-1.7 3.4-1 .4-1.8-.1-2.1-1.1l-.1.1c1.4-.2 2.5-1.1 2.4-2.4-.5-5.3 1.1-9.7 4.4-14 2.9-3.7 6.1-5.7 9.7-4 4.6 2.2 6 5.7 3.8 10.6-1.3 2.9-1 6.3-3 9-.7.9-.1 1.7.7 2.4.5.4 1.2.8.7 1.4-2.3 3.3.6 2.8 2.3 3.6 2.9 1.3 5.3.5 7.7-1.5-.7-2-2.5-3.9-.4-6.3 1.7 1.1 2.3 2.8 3 4.5.4 1.1 1.8 1.5 1.9.8.2-2 2-3.3 1.7-5.5-.8-7-1.5-14-1.7-21-.1-4.3-.9-8.5-1-12.7-.1-2.2-.9-4.3-2.2-6-.5-.7-1-1.8-2.1-1.5s-2.1 1-1.9 2.2c.3 1.7-.5 2.2-2 2.2-1.1-2 .6-3.9-.1-6.1-1.8-5.4-6.5-7.2-10.8-8.9-4.2-1.8-9.2-.5-11.9 3.2 2.6 1.6 5.3 2.6 8.3 1.1 1 2 .4 4.4 2.5 5.6l-.1-.1c-2 1.8-3.4.5-4.5-1.1-.9-1.3-1.6-2.5-3.4-2.8-4.1-.8-8.3-.8-12.4-.2-1.4.2-2.7.4-2.4 2.5.3 2.4-.7 3.7-3.2 2.3-.8-.6-1.8-.4-2.4.3 0 0 0 .1-.1.1-1.8 2.5-4.1 4.4-6.4 6.5-1.1 1-.4 2 .2 2.9s1.7.7 2.4.2c.9-.6 1.7-1.3 2.4-2.1.6-.6 1.1-.8 1.9-.2 3 2.4 6.6 2.8 10.3 2.6 1.6-.1 3.7-.4 4.2 1.8 1.1 4.3 3.6 8.6-.3 12.8-.6.7-1.2 1.4-1.7 2.1-2.2 3.1-1.6 5 1.9 6.1.8.3 1.9-.3 2.5 1.2-1.8 1.8-3.7 2.3-5.9.5-1.9-1.6-3.2-3.5-1.7-6 1.1-1.8 1.6-3.9 3-5.6 1.1-1.3.5-7.9-.6-9-.4-.2-.8-.4-1.2-.4-3.8-1.1-7.9-.8-11.3-3.2-.6-.5-1.1.1-1.6.4-2.9 2.4-6.2 4.5-4.3 9.2.7 1.7-.8 3.2-.9 4.8 1.9 1.2 3.4.6 4.7-.6 1.7-1.6 2.9-2.4 4.5.3.6 1 3.6.9 2.8 2.8-.9 2.1-2.6-.2-3.9-.3-3.3-.2-7.5 1.8-7.5 4.2.1 4.6-.8 9.1-2.5 13.4-1.1 2.7-.6 3.3 2.3 3 1.9-.2 2.7.1 2.2 2.1-.7 2.8.6 4 3.3 4.2 1 .1 2.4-.1 2.9 1 .6 1.5-1 1.5-1.9 2.1-1.3.7-1.9 2.1-1.6 3.5.4 1.4 1.9 1.4 3.1 1.4 5.3 0 10.6-.4 15.9-1 .2.2-.2.7.4.7l-.4-.6c.9-2 2.1-3.8 3.6-5.4.8 2.6-2 4.2-1 6.4.3 0 .4 0 .6-.1 3-2.2 5.4-5.9 10-3.4.5.3 1.7-.5 2.5-.9l8.4-4.5c-3.7-.6-7-2.2-10.3-3.6-1.8-.7-2.5-2.8-4.5-3-1.2-.1-2.8-.1-2.4-1.9.3-1.1 1.3-1.6 2.8-1.6 3.3-.1 6.3-2.6 5.9-5.2-.5-3.7.8-7.3.2-10.9l.2-.2-.2.3c-1.1-1.2-2.4-1.5-3.6-.3zm-39.8 86.8c-.6-.4-.9-1-.9-1.7-.4-4.4-1.6-8.8-1.5-13.2.1-2.8-2.3-3.4-4-4.4s-2.4.8-3.3 1.6c-3.2 3.3-6.4 6.6-10.3 9.1-1.6.8-2.2 2.8-1.4 4.3 3 7.1 2 15.8 9 21.4 1 .8.8 2.4 2.5 1 1.1-.9 2.3-.2 3.5-.3 4.1-.2 7.6 2.5 12 1.5 8.6-2 12.6-11.6 7-18.5-.9-1-1.5-2.3-1.8-3.6-.5-1.8-.8-3.6-.9-5.4 0-1.2.3-2.8-1.1-3.1s-2.1 1.1-2.9 2c-1.3 1.3-2.3 2.9-3 4.6-.4 1.8-1.4 3.5-2.9 4.7zm-80.2 41.4c-1.5.3-4.2-1.2-5.2 1.6-.9 2.6-1.1 5.4-2.2 8-1 2.4 1.4 5.1-1.1 7.2-.1 0 .5.7.6 1.1.7 1.4 1.2 2.8 1.5 4.3.4 4.3 3.1 5.5 6.8 5.7 2 .2 4 .1 6-.3.8-.2 1.7-.1 2-.9 1.6-4 4.3-7.6 3.6-12.1-.6-3.9-1.5-7.8-2.5-11.7-.9-3.6-1.5-3.9-5-3.1-1.4.4-3 .4-4.5.2zm-8-102.4c-1.5.1-1.7 1.6-2.5 2.4-.6.6-1.2 1.6-2.2.9-.8-.6 0-1.3.1-2 1.3-5.1 3.7-10.3-.2-15.5-.8-1.1-.6-3.5-2.4-3.4s-2.1 2.4-2.6 3.9c-.3.9-.3 1.8-.5 2.7-1.9 8.2-.2 17.2-5.6 25.1 2.4-.3 3.4 1.8 5.2 1.2.4-1.5-2-1.2-1.2-2.7 6.4-1.1 12.3-7.3 11.9-12.6zm45.6 84.5c-2.9 4.4.9 6 4.3 7.9.6.3 1 1.2 1.6 1.6 1.4 1 2.6 1.2 2.9-.9.4-2.7 2.4-4.5 3.9-6.6s5.4-3.4 4-6.3c-1.1-2.3-4.7-2.4-7.3-3.4-.6-.2-1.2-.3-1.8-.3-4.5-.4-7.7 2.6-7.6 8zm64.4-19.2c2.1-2.4 3.4-4.1 2.6-6.7-.3-1.2-.2-2.5.3-3.6.9-2.8 1.3-5.7 1.1-8.6 0-2.3.4-4.6 1.3-6.7 1.3-3.3 1.7-6.9 1.2-10.4-.2-1-.6-1.8-1.6-1.9-.8 0-1.5.6-1.6 1.4-1.2 4-4 7.2-5.4 11.1-.3 1.3-.4 2.7-.4 4-.5 7 2.5 13.5 2.5 21.4zm1.8-43.2c-4.8 3.5-7.9 8.9-8.5 14.8-.1 1.3.1 2.6-1 3.9-1.7 1.9-1.7 4.4-1.8 6.9-.3 7.4 2.2 14 5.1 20.9 1.2-1.6 2.1-3.1 1.8-5.1-.4-3.5-.3-7.2-1.4-10.4-2.4-6.7-1.5-14.1 2.4-20 .8-1.3 1.4-2.7 1.9-4.2.8-1.9 2.1-3.8 1.5-6.8zm-131.8 84c1.9 1.9 3.2 4.1 5.8 4.3 3.3.2 6.7.4 10.1.3 2.3-.1 5-4 4.5-6.9-.6-3.4-3.2-1.9-5.1-1.6-2.3.4-4.5.9-6.7 1.5-2.7.9-5.7.7-8.6 2.4zm10-18.2c-.1 2.9 1.1 4.8 1.9 6.7s2.8 3 4.9 3.9c2.4 1 2.2-1.3 3.3-2.1.4-.3.8-.4 1.3-.5 4-.3 5.7-2.3 5-6.3-.2-.9 1.2-1.5.6-2.5-2.8.2-5.2 1.7-8 1.5s-5.8.7-9-.7zm89.9-52.9c-2.7 4.5-6.3 4-10 2.4-2-.9-2.7 0-3.2 1.8-.7 2.2-.5 4.5-.8 6.8-.2 1.2-.9 2.6.3 3.4s2.7-.1 3.8-.8c3.9-2.7 6.8-6.5 10.1-9.9.9-.7.9-1.9-.2-3.7zm-57.5 65.8c-2.5-.5-3.3.7-3.2 3 .2 4.6 2.2 6 6.6 4.3 1.3-.5 2.5-1.1 3.8-1.7 1.1-.4 1.7-1.4 1.7-2.5-.1-1.3-1.2-2.3-2.5-2.3-2.2-.4-4.3-.6-6.4-.8zM40.4 217.4c-.1-.9-.1-1.8-.1-2.7-.1-1.6.5-3.3-2.2-3.5-2.5-.2-3.3 1.1-3.9 2.9-1 2.9.6 7.1 3.3 8.8 1.8 1.2 2.8.8 3-1.4-.1-1.3-.1-2.7-.1-4.1zM157 313.9c-3.6 1.3-7.2-.1-10.8-.1-2.5 0-2.6 1.5-2.5 3.3.1 2.4 1.7 2.1 3.2 1.6 2.3-.7 4.7-1.2 7.1-1.4 2.1-.1 3.2-1 3-3.4zm-19.9 4.4c-.5 4.2-1.1 8.1-7.4 7.5 5.1 2.7 9.2 3.6 14.3 0-6.5.6-6.5-3.5-6.9-7.5zm112-79.8c-4.9 5.5-5.1 6.7-2 11.9.9-4.2 5.2-6.9 2-11.9zM95.6 308.6c-1.1-1.2-2.6-1.6-3.7-.6-1.8 1.7-4.8 1.5-5.8 4-.6 1.5.4 2.3 2 1.9 3-1 6.1-2 7.5-5.3zm237.1 55.6c5-5.9 5-7.2-.2-11.8-.4 3.8-.1 7.4.2 11.8zm-199.4-51.8c-4.6-.2-9.2-1.5-13.7.5 4.7 2.4 9.1.9 13.7-.5zm-14 15.7l.6-.8c-1.4-1.3-2.8-2.6-4.4-3.8-1-.8-2-.3-2.9.4-.6.5-1.2 1.1-.8 1.9.4.9 1.3 1.4 2.3 1.2 1.8-.3 3.5.4 5.2 1.1zm-85.4-82.8c2.2-.8 3.8-2.7 4.3-4.9-2.4 1.1-3.7 2.3-4.3 4.9zm9.4-23.8c.2-1.5 1.3-2.6.1-3.7-.2-.2-.7-.2-.8-.1-.8 1.2-.3 2.2.7 3.8zm230.1 5c-1.4-.4-2.7-.7-3.6 1 1.3.6 2.8.2 3.6-1zm-236.8-1.9c-.2-.7-.7-1.3-1.4-1.6-.6-.2-.8.2-.7.7.1.6.5 1.1 1.1 1.2.5.2.8.2 1-.3zm203.1-57.7c-1.3-.1-2.5.4-3.4 1.3 1.5-.6 2.5.3 3.4-1.3zM97.5 306.6c.1-.2.2-.4.3-.7 0 0-.2-.2-.3-.2-.2.1-.4.3-.5.4l.5.5zm181-105.6c-.1.1-.3.2-.3.3 0 .2.1.5.2.7.1-.1.3-.2.3-.3 0-.1-.1-.4-.2-.7zM62.1 350.7c.1-.1.3-.1.3-.2.1-.4-.1-.5-.4-.4-.1.1-.2.2-.2.3l.3.3zm70.4-58.4c-.1-.1-.2-.2-.3-.2-.4 0-.5.3-.3.6.1.1.2.1.4 0 .1-.2.2-.3.2-.4zm140.9-68.7v.3h.7v-.3h-.7zm-231.7 6.2l-.1-.3-.1.3h.2z"/><path class="st1" d="M267.7 89.5c3.1-6.8 5.1-14.1 5.9-21.5.7-7.5 2.3-15 1.8-22.7-.3-4.8-2.3-8.1-6.6-10.2-2.5-1.2-4.9-2.5-7.4-3.6-.9-.5-1.9-1.1-2.9.1-4.6-2.2-9.2-1.3-13.9-.6-1.1.2-2.1.5-2.5 1.7-.8 2.4-2.7 2.7-4.8 2.6l.1.1c.7-.9 2.4-1.5 1-3-1.9-2-3.1.9-4.5 1-.7-.2-1.1-.9-1-1.6.2-4.5-2.2-7.5-5.7-9.9-5.9-4.2-12.7-6.1-19.6-7.5-8.5-1.6-17-2.5-25.6-2.5-12.9-.2-25.8-.6-38.7.4-8.9.6-17.6 3.2-25.4 7.6-2.1 1.2-4.3 2.4-6.5 3.5-6.4 3.2-11.9 2.6-16.7-2.7-4.5-5-10.4-8.6-14.1-14.4-1.7-2.8-5.2-3.1-8.2-3.6-18.4-3.2-42.8 8-52.8 23.8-1.4 2.4-2.5 5-3.1 7.6-1.4 5.3-.2 8.1 4.6 11-2.9 1.5-6.5.3-8-2.6-.2-.3-.3-.7-.4-1-.9-3-1.1-6.3.7-8.9 2.7-3.9 4.8-8.2 8-11.8C34.9 5.8 51.7-.8 71.4.4 77.8.8 84.3 3.1 88 8.8c1.9 3.1 4 6 6.4 8.7 5.5 6.4 10.6 7.3 17.9 3.1 8.3-4.8 16.9-8.9 26.5-10 4.1-.5 8.3-.7 12.4-.8 18.6-.3 37.2-.9 55.6 2.2 5 .8 9.9 2.2 14.6 4.2 5.6 2.5 10.8 5.4 13.1 11.5.9 2.4 3.1 1.5 4.6 2.3 1.8.9 3 .4 4.3-1.6 1.5-2.1 4.3-2.7 6.5-1.5 2.2.9 4.6 1.5 7 1.9 6.2 1.1 11.5 4.1 16.5 7.8 2.9 2.2 3.4 5.8 3.5 9.2.2 5.3.7 10.7-.6 16.1-1.3 5.3-1 10.7-1.9 16-1.6 9.7-6.4 17.8-12.3 25.3-.7 1-1.7 1.8-2.9 2.2-.9.2-1.7 1-1.8 1.9 0 6.5-4.5 10.6-7.7 15.5-2.1 3.5-5.1 6.3-8.7 8.1-5.4 2.6-6.3 7.1-6.1 12.2.1 3.8.6 7.6.9 11.5.1.9.2 2-1.1 2.1-.9.1-1.1-.9-1.4-1.6-2.7-8.2-9.3-13.5-14.5-19.9-.9-1.1-2.1-1.2-3.3-1.5-2.3-.7-4.7-1.4-7-2.1-1.3-.4-1.9-.7-2.5 1.1-1 2.9-1.8-.6-2.9-.4-.2.2-.5.4-.5.6-1.5 11.2-7.5 19.3-17 24.9-25.9 15.4-52.3 15.7-79.1 2.3-3.6-1.9-6.8-4.3-9.5-7.2-2.7-2.8-5.3-5.6-8.1-8.2-4-3.9-7.3-3.3-9.9 2-.9 1.9-2 1.8-3.1.6s-2.2-2.9-3.7-4.8c-1.8 2.8-4.3 5.1-7.3 6.6-4.4 2-9 1.6-13.6 1.4-4.2-.1-8.3-1-12.1-2.6-12.6-5.4-18.6-17.6-15.4-31.4.5-1.9 1.1-3.8 1.7-5.7 1.8-5.7.6-10.7-3.7-14.7-2.9-2.6-5.9-4.9-9-7.2C9 86 8.9 86.1 6.7 90.2c-11.3-9.6-7-38.8 7-44.8-3.7 4.5-7.6 7.8-8.6 12.8-.2.2-.9.3-.3.8l.2-.8c1.8-.3 2.1-3.1 5.3-2.5C3.3 64 1.1 73 5.1 82.9c1.8.2 1.2-2.2 3.1-2-.4 3.3 2.1 4.5 4.5 6 3.4 2.1 6.7 4.4 9.7 7.1 5.5 4.9 7.4 10.8 4.8 17.8-1.1 3-1.9 6.1-2.3 9.3-1.3 12.5 7 23.5 19.6 26.2 4.7 1 9.4 1.3 14.2 1 7.3-.4 11-4 12-11.3.1-.5.2-.9 1.2-1.1 2.3 2.3 1.9 6.4 5.3 9.2-1.2-3 .8-5 .4-7.3 1.4-.7 1.8.4 2.2 1.1.9 1.5 1.7 2.5 3.5.9 1.5-1.2 2.9-.3 4.1.7 2 1.6 3.9 3.4 5.7 5.4 9.8 12.3 23.3 17.8 38.1 20.3 18.5 3.2 36-.2 52.3-9.6 11.5-6.6 16.8-16.6 17.9-29.3 0-.4-.1-.9 0-1.4.1-1.2-1.9-2.8.3-3.4 1.4-.4 1.6 1.6 2 2.6.6 1.8 2 3.1 3.8 3.7 3.5 1.2 6.8 2.8 10.6 2.6 1.6-.2 3.1.7 3.8 2.1 2.1 4.1 5.9 6.5 9.4 9.8.6-3.2 1.6-5.9.8-8.8-.4-1.4.2-2.8.6-4.1.6-2.1 1.9-3.5 4-1.8 1.6 1.3 2.8.8 4.1-.1 4.5-3.1 8-6.8 9.8-12.3s4.4-10.9 9-14.9c0 1 .6 1.5 1.3.7 1.8-1.8 3.6-3.6 4.2-6.3 1.1-.6 1.4-1.7 1.9-2.8l-.1.1.9-1.9.1-.1.9-1.8.1-.1-.1.2c-.2.2-.4.3-.7.2h-.4zm-3.5 226c-.1.4-.4.8-.6 1.2-4.8 4.1-5.2 9.6-5.1 15.4.3 10.6 1.7 21.1 4 31.4.5 2.4 1.4 4.7 2.4 6.9 2 4.4 2 4.4 6.7 4.1v-.1c.6 3.2 3.2 5 5.1 7.3-.3.8-1.3 1.2-2.1.9-.1-.1-.3-.1-.4-.2-1.8-1.6-2.8-.7-3.4.9-.9 2.4-2.1 2.3-3.7.8-.2-.2-.6-.3-.7-.6-1.1-2.2-4-.3-5.1-2.3s1-4.1 0-5.8c-2.2-4-3.6-8.5-6.6-12-1.3-1.5-2.3-3.2-2.9-5.1-2.4-6.7-5.2-13.3-8.3-19.7-2.2 1.8-4.2 3.8-5.9 6-2.4 3.4-3.6 3.4-6.7 1-1.5-1.1-3.3-1.6-5.1-1.6-3.1-.2-6-.8-8.3-3.2-1.4-1.2-3.1-2-4.9-2.3-1.6-.4-3-.8-2.5-3l-.1.1c7 3 14 5.9 21.7 6.3 2.5.2 4.9-.9 6.3-2.9 3.1-4 6.6-7.6 10.6-10.8 3.8-3 7.5-6.2 10.3-10.4 1-1.6 2.4-3.8 5.3-2.3zm-5.5 51.6c-.1-.7-.4-1.3-1-1.8-1-5.1-7.4-18.9-10-21.4 2 4.7 3.9 9 5.8 13.3 1.2 2.8 2.1 5.8 4.3 8 0 .8.3 1.5.9 1.9zm0-11.1c.2.2-.3.9.5.7l-.5-.7c.2-1.6.1-3.3-.3-4.9-1.3-7.1-1.8-14.3-1.6-21.5 0-1.1.3-2.3-.4-3.5-1.8 3-5.1 3.8-7.4 6-1.2 1.2-2.1 2.1-1.2 3.9 3.3 6.8 6.4 13.8 10.9 20z"/><path class="st1" d="M209.8 359.8c-3.4.1-6.8-.1-10.1.5-4.7.9-9.5-.1-14.6.6 2.9 2.4 6.3 1.1 8.9 2.7-7.1-.5-14.6 1.4-21-3.6-1.5-1.1-3.4-1.5-5-2.4-2.2-1.2-4.1-3-4-5.7.1-2.4 2.3-3.6 4.2-4.5 2.6-1.2 5.5-2 8.4-2.4 5-.5 10-1.9 15.1-1.7 1.6.1 3-.8 3.7-2.2.6-1 1.3-2.2 2.6-2.5 1.2-.2 2.6-.9 3.4.5s-.7 1.8-1.5 2.4c-2.4 2.1-5 4.1-7.7 5.8-2.2 1.2-4.2 2.7-5.8 4.6 5.8-.3 11.3.5 16.1-1 3-.9 5.8-2.6 9.1-3 .9-.1 1.7-.9 1.6-1.8v-.1c.1-1-.5-1.8-1.5-2-1.4-.2-2.6-1-3.4-2.2 5.4-1.1 9.2 2.6 13.7 4.4 2.3.8 3.7 3.1 3.5 5.5-.2 2.7-1.8 4.1-4.2 4.9-5.6 1.6-10.2 5.8-16.1 6.4-2.5.3-5.1.4-8.4.7 1.7-1.5 4-2.3 6.3-2.1 2.2 0 4.7 0 6.7-1.8.2-.2.9.3.7-.5l-.7.5zm-19-13.8l-.3-1.2c-6.4 1.2-13 1.4-19.3 3.2-.9.2-1.7.6-2.5 1.2-2.1 1.5-2 3.1.1 4.6 3.3 2.3 7.3 3 11 4.4 2 .8 3 .3 2.5-2-.5-2.6.7-4.3 2.8-5.7s3.8-3 5.7-4.5zm2 12.3c7.7.5 15.5-.1 23-1.8 2.2-.4 3.4-2 4.7-3.5.9-1 1.7-1.8.6-3.1-1.2-1.7-3.3-2.4-5.3-1.8-1.7.5-.9 2-.5 3.1.7 2.2.4 3.2-2.3 3.5-6.8.9-13.5 2.3-20.2 3.6zm18.9-4.9c-1.5-1.1-3.5-1.2-5.1-.4-3.5 1.7-7.1 1.5-10.8 1.3-3.1-.1-6.3.6-9.1 2 8-1.1 16.3-.6 25-2.9zm62.7-251.8c6.1-8.5 14.2-14.4 23.1-19.8 6.3-3.7 12.4-5.6 19.5-5.3 2.3.1 4.6.5 6.7 1.3-1.9 2.1-4.8 3.1-7.6 2.7-5.6-.8-10.6 1.8-15.4 3.8-5.9 2.4-11.8 5.4-16 10.4-4.5 5.3-7.7 11.4-9.4 18.1-.9 3.6-.6 7.3-2.3 10.8-.3.9-.3 1.8 0 2.7 2.5 8.1 1.2 17 5 24.9-2.8-2.5-3.9-5.5-4.5-11.4-.1-1.3.1-2.5-1.8-1.3-.2.1-.8-.4-1.2-.6-2.6-1.2-1.5-3.8-2-5.7-.3-1.6-2.4-2.6-.2-5 2-2.2 2.2-6.2 3.2-9.3 1.5-5 1.6-10.2 2.9-15.2h-.1c.7-.4.6-.8.1-1.1zM85.3 382.8l-.8 2.8-.3.1.2-.2c2.2-.2 3.9-1.8 5.9-2.4 3.6-1.1 4.9-.2 4.6 3.6l-.3 1.8c-.3 2 .6 2.5 2.4 1.9 2.9-1 5.5-2.7 8.2-4.2 4.4-2.5 4.8-2.3 6.4 2.2.9.2 1.9 0 2.6-.5 6.6-3.5 13.7-4.4 21-4.3 8.1.1 16.3 0 24.4-.7 12.6-1 25.1 1.1 37.7 2.1 4.1.3 8.3-.2 12.4.9 1.8.5 2.1-1.5 2.8-2.5 1-1.5 1.8-3 3.9-1.3.6.6 1.4.8 2.1.4 4.4-3 8.5 1.1 12.8.4.9-.1 1.6.7 2.4 1.7-2.2.1-4.4.1-6.6-.1-3.1-.5-5.9-1-9.2-.3-2.3.5-4.2.4-5.4 2.7-.5 1-1.6 1.5-2.7 1.3-9.2-2.3-18.6-1.3-27.9-2.7-8.9-1.3-17.7-.9-26.7-.4-7 .5-14.1.4-21.2.4-6.5 0-12.9.8-18.7 3.9-.1.1-.3.1-.4.2-4.5 1.8-4.9 1.6-6.4-2.9-1.9.1-3.3 1.4-4.9 2.3-2.1 1.3-4.3 2.4-6.7 3.1-3.2.9-4.4-.1-3.9-3.4.2-1.6 1.7-3.5-.2-4.6-1.6-1-3.2.6-4.7 1.3-2.4 1-4.4 2.8-7.6 3.2.8-2.9 2.9-4.3 4.8-5.8zm179-67.2c.8-4 4.3-5.8 7.3-7.1 6.3-2.7 10.1-7.8 14.1-12.8 2.8-3.3 5.9-6.4 9.3-9.1 4.6-4 5.9-8.3 4.7-13.9-.4-2-1.9-3.9-.8-6.5 2.3 2.2 2.9 5 3.3 7.5.4 3.3.3 6.6-.2 9.9-.4 2.6-1.1 4.9-4.5 6.1-3.5 1.3-6 4.6-8.4 7.7-4.1 5.5-8.9 10-15.6 12.3-3.6 1.2-6.7 3.2-9.2 5.9zm94-175.2c1.5-1.5 2.7-3.3 3.5-5.3.2-.6.7-1.3.5-1.7-2.5-4.1.5-8.4-.5-12.5-.7-3.1.7-4.6 4-5.2-.3 8.1-.1 16-2.9 23.8-1.8 4.9-4.6 9.3-6.3 14-2.1 6.1-6.1 7.8-11.3 8.9 2.5-2.6 4.6-5.6 7.2-8.1 3.4-3.3 4.5-8.2 6.4-12.5.3-.3-.4-.9-.6-1.4zm-61.8 27.7c-3.8-1.4-7.9-2.3-10.8-5.5-1-1.1-2.3-2-2-4.1 1.5-.3 2.5.4 3.6 1.2l.1-.1-.7.3.7.7-.1-.1c.3.4.7.6 1 0l-.1.1c4.1 1.9 7.7 5 12.1 6.4l2.1.9c8.5 1.2 16.9 2.4 25.4 3.5 2.3.3 3.9-1.3 5.6-2.5l.2.2-.3-.1c1.3-1 2.4-1.1 3.8.5-4.9 3.2-10.3 3.6-15.7 4.2-9.1 1-16.9-2.9-24.9-5.6l.1-.1-.1.1zm11.9 144.7c2.7.5 3 2.3 2.3 4.5-.7 1.9-1.7 3.6-3 5.1-5.3 6.7-11.2 13-17.1 19.2-1.6 1.6-3.4 3.1-4.4 5.2l-.3.3.2.2.3-.3c3.8-.6 7.1-3 11-3.2 1.4-.1 2.6-.4 4 .3 3.7 1.7 3.8 1.9 1.6 5.2-1.5 2.2-1.5 2.2-1.3 5.4-3.5-2.5-3.5-2.5-1-6-1.6 0-2.4 1.8-3.9 1.3-1.5-2 1.8-2.5 1.5-4.2-6.2 0-11.1 4.6-17.3 5 .1-2.7 1.8-3.5 2.9-4.6 8.3-8.1 16.2-16.7 23.7-25.7 1.8-2.4 3.4-4.8.8-7.7zM18.8 336.3c6.9.5 13.6 2 20.1 4.3 1 .4 2 .8 2.9 1.4 3.4 2.1 3.6 4.2.7 6.9s-6.3 4.3-9.7 6.1c-1 .3-1.8.9-2.4 1.7 4.1.7 8.2-.1 12.2.7 3.8.8 7.6 1.5 10 5-5.9-3.7-12.5-3.7-19-3.6h-5.1c-1 0-2.4.2-2.8-1-.5-1.7 1.1-1.9 2.1-2.4 4.2-1.9 8.2-4.1 12.1-6.6 4.1-2.8 3.9-4.6-.7-6.6-5-2-10.1-3.5-15.4-4.6-1.5-.4-3.3-.9-5-1.3zM342.4 86.2c-2.2.1-3.9-2.5-6.3-1.1l.1-.1c-2.3-2.6-5.8-2.9-8.8-4.4.3-.5.5-.9.6-.9 5.2.3 10.2 1.1 14.5 4.4.5.3.7 1 .4 1.6l-.5.5zm-33.9 226.5c-11.3-1.1-21.5 2.5-31.4 7.4v.1c6.6-5.5 14.4-8 22.8-8.4 2.9-.1 5.9-.9 8.6.9z"/><path class="st1" d="M290.9 117.3c-2.6.1-4.6-1.5-6.9-2.2-1.3-.4-1.7-2.4-1-3.5.6-.9 2.5-.4 3.3-1.8.2.2.7.4.7.5-.2 3.2 3.4 4.1 3.9 7zm6.4 24.3c-2 .6-3.3 2-4.8 3.2-1.2.9-2.5 1.7-3.9 2.3-1.6.7-1.8-.6-2.5-1.2-1.2-1.1.3-1.6.8-2 3.1-1.8 6.8-2.6 10.4-2.3zm35.1-41.8c.5-1.1 1.1-1.9 2.4-1.2.8.4 1.2 1.5.7 2.3-.8 1.8-2 3.4-3.4 4.8-.7.6-1.3.3-2-.1-.9-.5-.9-1.1-.5-1.8.5-1.6 1.5-3 2.8-4l.1.1-.1-.1zM25.3 227.7c2.5-2.5 1.7-4.5 0-6.8-1.7-2.1-1.9-5-.6-7.3.4 3.4 1.6 6.6 3.6 9.3 1.9 2.9 1.4 3.6-3 4.8zm291-64.6c-.9-4.2-1.2-8.3.8-12.4 2.5 4.4 1.3 8.5-.8 12.4zm27.8-34.3h-1.8c-.9-.2-2.5.6-2.4-1 0-.8 1.2-1.6 2.5-1.6 1.8 0 3.6-.3 5.4-.4.7 0 1.6 0 1.8.9.2.8-.3 1.7-1.1 1.9h-.3c-1.3.2-2.7.3-4 .3l-.1-.1zm-63.7-.1c1.3-1.5 3-1.1 4.6-.9 1.2.2 1.8.7 1.7 2.1 0 1.7-.9 2-2.3 2.1-2.3.1-3.5-1.1-4-3.3zm17.9-28c.3 1-.3 2-1.2 2.4-1.2.5-1.5-.5-2-1.3-.6-.7-.9-1.6-.8-2.5.3-1.2-1.8-2.9.4-3.4 1.4-.4 2.3 1.2 2.8 2.5l.8 2.3zm47.7 11.8c-1.3 1.8-2.6 3.4-4.5 4.2-.8.3-1.9.9-2.1-.5-.1-.9-1.2-2.1.4-2.8 1.9-.7 3.9-1.4 6.2-.9zm-32.5-21.1c2 .8 2.4 2.3 2.3 4-.1 1.6.4 4-1.7 4s-1-2.3-1.1-3.6-.6-3 .5-4.4zm25.3 48.1c2.9 1.8 5.4 4.2 7.4 7-5.5-1.5-7.3-3.2-7.4-7zm17.6-36c2.8 2.3 5.4 4.8 4.4 10.1-1.9-3.9-3.6-6.8-4.4-10.1zm-27.7 46.1c4 1.8 5 2.9 6.1 6.9-3-1.8-5.1-3.8-6.1-6.9zm-3.9 18.5c-.1 1.4-1.3 1.4-2.3 1.6-.8.1-1.6-.1-1.5-1.1.2-1.2 1.2-1.7 2.3-1.8 1.1-.3 1.2.5 1.5 1.3zM301 154.2c-.4 1.3-1.2 2.5-2.2 3.4-.3-2.3-.3-2.3 1.3-4.2v-.1l.9.9zm.1-1.9c.6-1.4 1.8-1.7 3.2-1.9-.3 1.2-1.2 2.2-2.3 2.8l.1.1-1-1zm38.7 13.9c1.2-1.3 2.7-2.3 4.3-3.1l.5.4c-1.2 1.7-2.7 2.8-4.8 2.7zm-67.3-19.4c-.9-.8-.7-1.9-.7-3 1 .9.5 2 .7 3zm-1 177c-.4.6-.7 1.4-1.6 1.4-.1 0-.3-.3-.2-.3.3-.8 1.1-.9 1.8-1.1zm-263 9.7c-.1 0-.3 0-.3-.1v-.8c.1-.4.3-.4.4.1 0 .3-.1.6-.1.8zM255 254.7c.2-.7.1-1.5 1.1-1.8.1 1-.7 1.2-1.1 1.8zm-59.1 61.7c-.3.9-.6 1.9-1.8.9v.1l1-1-.1.1h1l-.1-.1zm168.6-205c-.1.3-.3.5-.5.3-.1-.1-.2-.2-.1-.3l.3-.6.3.6zM18.1 262l.6-.5c.1.7-.5.3-.6.5zm266.3-14.7l-.7-.3c.1 0 .2 0 .3.1.2 0 .3.1.4.2zm0 .1l1.9.9.1-.1-2-.8zm-181.5 46.1c0-.7.4-1.4.9-1.9h-.1c0 .7-.1 1.4-.8 1.9zm235.9-126.4c-.2.2-.4.3-.7.5-.1 0-.2-.1-.3-.1l1-.4zm-63.5 154c.4-.6 1.1-.9 1.9-.9v-.1c-.6.6-1.3.9-1.9 1zm88.2-212.9l-.3.1c0-.1-.1-.2-.1-.3 0 0 .2-.1.3-.1l.1.3zm-91 214.7c.5-.5 1.1-.8 1.8-.9l-.1-.1-1.7 1zm8.4-167.2l-.3-.1.3-.1v.2zm11.9 99.9l-.9-1.8-.1.1 1 1.7zm-39.6 1.9c0-.7.3-1.4.9-1.9l-.1-.1-.8 2zm41.5.8l-.9-1.8-.1.1 1 1.7zm.8 1.9c-.5-.5-.8-1.2-.9-1.9l-.1.1c.6.4.9 1.1 1 1.8zm47.3-174.5l1.5 1.2c-.7.1-1.4-.2-2-.7l.5-.5zM267 91.5c-.1-.8.1-1.5.7-2l.4.4-.2 1.5-.1.1c-.3.1-.6.1-.8 0z"/><path class="st1" d="M267 93.3h-1l.1.1c.1-.7 0-1.5.9-1.9h-.1v1.9l.1-.1zm-5.5 155zm-1 .8l.9-.9-.1-.1-.8 1zm26.8 0l-.9-.9-.1.1 1 .8zm-.1 0l.9.9.1-.1-1-.8zm1.9 1.8l-.9-.9-.1.1 1 .8zm-.1.1l.9.9.1-.1-1-.8zm.9.9l.9.9.1-.1-1-.8zm1 .9l1 1 .1-.1-1.1-.9zm-36.8 2.8l1-.9-.1-.1-.9 1zm39.7.9l-1-1-.1.1 1.1.9zm1.7 3.7l.2.1-.2-.1zM17.2 263l.9-.9-.1-.1-.8 1zm-.9.9l.9-.9-.9.9zm-.1 0l-.9.9h.1l.8-.9zm-1.8 1.9l.9-1h-.1l-1 .9.2.1zm223-230.6zm101.5 131.9c0-.5.4-1 .9-1l-.1-.1c0 .6-.4 1-.8 1.1zm-142 148.4zm0 0l-1 1 .1.1.9-1.1zm-98.1 6.1l.9-.9.6.7-.9.9-.6-.7zm175.5.4l.9-1v-.1l-.9 1.1zm71-159.5c.1.6-.3.9-.8 1.1l-.5-.4c.3-.5.8-.8 1.3-.7zM97.9 322.6l.9-.9.7.7-.9 1-.7-.8z"/><path class="st1" d="M97 323.5l.9-.9.7.7-.9.9-.7-.7zm175.5-.7l-1 1 .1.1.9-1.1zm14.7-163.1c.5 0 .9.4.9.9l.1-.1h-1l.1.1-.1-.9zM336 85.1c.1 0 .2.1.3.2 0 .2-.1.1-.3-.2zm-70 8.2c0 .1-.1.2-.1.4 0 .1-.2 0-.3.1l.4-.5zm36 60c0 .5-.4.9-.9.9l.1.1v-1h.8zm-36.9-57.2l-.1-.1.1.1zm84.8.9l-.1-.1.1.1zm0 0l.2.1-.2-.1zm-49.8 56.3l1-1-.1-.1v1l-.9.1zm52.6-53.5zm-23.9 49.8l-.2-.2.2.2zm23.8-49.8l.9.9.1-.1-1-.8zm-93 1.9l.1-.1-.1.1zm12.8 45.1l.3.1-.3-.1zm82.1-45.2l-1-.9-.1.1 1.1.8zm-80.1 1c-.1-.2-.1-.4-.2-.6 0-.1.1-.2.2-.3h-.1l.1.9zm81.1-.1c-.5 0-.9-.4-.9-.9l-.1.1c.5 0 .9.4 1 .8zm-.1.1l1 .9v-.1c-.5 0-.8-.4-1-.8zm5.5.9l.1.1-.1-.1zm-2.7 36.8l-.1.2.1-.2zm-86.6 234.3zm-178.8.9zm-.1-.1l-.9.9.1.1.8-1zm-.9.9l-.9.9.1.1.8-1zm-1.8 1.9l.9-.9-.1-.1-.8 1zm168.7 0zm-168.7 0l-.9.9.1.1.8-1zm168.6 0zm-169.6.9l-.9.9.1.1.8-1zm-1.7 1.9l.9-.9-.1-.1-.8 1zm-1 .9l.9-.9-.1-.1-.8 1zm0 0l-1 1h.1l.9-1zM2.4 399.4c-.3.6.4.1-.2.3-.2.1-.2-.2.2-.3zM247.6 180c-.4-.6-1.2-1.2-.7-2s1.2-.4 1.9 0c2.1 1.3 4.3 1.7 6.4-.1.5-.4 1.6-.6 1.6-.3-.2 3.3 2 2.9 4.1 2.9.5 0 .3 1-.1 1.5-2 2.5-10.7 3.8-13 1.8-1.7-1.2-2.5-2.5-.2-3.8.4 1.7 1 3 3.3 2.3-.7-1.8-2.1-1.9-3.3-2.3zm23.7 13.9c-3.6-1.1-7.2-1.7-10-4.3-.6-.6-1.7-.8-2-1.8-.3-.9-1-2.3.3-2.8 1.1-.4 1.8.3 1.6 1.8-.1.9.9 1.1 1.7.9 1.4-.4 3-.3 4.4.2 4.1 1.3 4.2 1.1 4 6zm-2.4-2.3c-.3-.3-.6-.7-1-.9-.3-.2-.7-.1-.9.1-.1.1-.1.2-.1.2-.2.5.2.8.7.8.4.1.9 0 1.3-.2zm-41.1 14.7c-.6 2.1-2.6 3.4-4.8 3.3-.9 0-2.4.6-2.5-1-.1-1.3.4-3 2.1-3s3.5-.7 5.2.7zm4-24.2c.7-2 4.3.1 3.2-3.3-.3-.8 1.1-.8 1.7-.3 1 .9 2 2 1 3.5-.7 1.1-1.6 1.9-3 1.3-.8-.4-1.8-.8-2.9-1.2zm22.3-7.6c2.5-1.4 3.9-1 7.1 2.6-2.9-.8-4.8-2.5-7.1-2.6zm-12 43.2c-.6.5-1.5.6-2.1.2-.7-.4-.9-1.3-.7-2 .1-.6.7-1.1 1.3-1.1.9.1 1.2.8 1.3 1.6.1.5.1.9.1 1.4l.1-.1zm17-25.9c.7.2 1.3.8 1.4 1.5.1.5-.2 1-.7 1.1h-.3c-1 0-1.7-.5-1.6-1.6.1-.6.6-1 1.2-1zm15.6 24.1c.1.2.3.4.4.6v.4c-.2.4-.4.4-.5 0-.1-.3 0-.7.1-1zm-19.8-13.7zm-176-15.6c-.4 7.1-4.2 11.8-9.8 11.5 5.4-2.1 7.8-6.5 9.8-11.5zm-26.7-5.7l1.1.6c-.8.5-.7-.4-1.1-.6zm-1.8 0c.3-.5 1-.6 1.5-.3l.3.3v-.1l-1.8.1zm-2 1.9zm1-.9l-.9.9.1.1.8-1zm0 0l1-1h-.1l-1 1h.1zm28.5-6.5l1 1-1-1zm60.3 181c-.1 0-.3.1-.4 0-.3-.3-.2-.5.1-.6.1 0 .2.1.3.2.1.1 0 .3 0 .4zm-10.5-69.5l1 1-1-1zm70.8-17.6c0 1.1-.9 2-2 2-.9.1-1.7-.5-1.9-1.3v-.2c-.1-1.3.9-1.9 2-2 1-.2 1.8.5 1.9 1.5zm-11.8 49l1-1-1 1z"/></svg>