<svg id="Слой_1" xmlns="http://www.w3.org/2000/svg" viewBox="0 0 366 400"><style>.st0{fill:#ffc700}.st1{fill:#fff}</style><path class="st0" d="M28.9 130.6c.1-2.2 1.7-3 2.8-4.1l9.9-9.9c2.7-2.6 4.2-6.3 4-10.1-.1-4.3 0-8.5.2-12.8.1-1.2.2-2.3.5-3.4.2-1.2.7-2.3 2.1-2 1.3.2 1.2 1.3 1.2 2.3 0 4.9.4 9.8-.3 14.7-.3 1.6-.1 3.3.8 4.7 2 3.3.5 7.5-3.1 7.9-2.1.2-3 1.3-4.1 2.5-2.2 2.4-4.3 4.8-6.6 7.1-2 1.9-4.1 3.6-7.4 3.1zM175 87.9c1.6.2 3.2.4 4.7.8 1.9.5 3.8.6 5.7.2.5 1.4-.8 2.5-.6 3.7 1-.5 1.6-1.8 2.8-2v1.9c4.5-3.6 9.1-1.9 13.4.2 4.6 2.2 6.9 1.4 7.7-3.8.1-.8.1-1.6 0-2.4-1.2.1-1.8 1.2-2.7 1.9-2.3 1.7-4.7 2.8-7.5 1.2-2.2-1.3-5.5 0-6.9-3.1h-.9l-.1-1.9c-2.2 2.6-4.8 3.2-8 1.9-1.5-.5-3.1-.7-4.7-.5-1.1 0-2.1-.3-3-1 .1 1.1.1 2 .1 2.9zm15.6-1.2c-.1.1-.1.2-.2.3-.3-.2-.2-.3.2-.3zm125-34.3c-8.2 2.3-15.9 5.6-22.7 11-2.5 2-4.8.8-6.5-.3s-3.1-3.3-1.3-6c1.4-2-.3-3.1-1.9-3.4-1.6-.4-3.3.2-4.1 1.7-1.8 3.1-4.8 4.6-7.7 6.4-4.2 2.6-8.4 5.2-12.6 8-.4.3-.8.5-1.1.8.7.2 1.5.3 2.2.4 6-4.3 11.9-7.4 17.5-11.1.9-.4 1.8-.6 2.8-.6 2.8-.3 3.2 2 4.2 3.8 1 1.9-.2 2.4-1.6 3.2-1.5.9-1.2 2.1.4 2.8 2.4 1.2 4.2-.1 6.1-1.5 8.3-6.2 17-11.5 27.2-13.7.8-.2 1.9-.3 2.3-1.4-1-.9-2.1-.4-3.2-.1zm-65 23.9c-1.4 1.3-3 2.5-3.7 4.4 2.7-.6 4.1-2.9 6-4.6l.5-.4c-1 0-1.9.2-2.8.6zm-34.2 4.5c1.5-2.8 4.6-3.8 6.4-6.4 1.1-1.6 3-.6 4 .9 1.6 2.4 4 3.6 6.5 4.7 2.8 1.1 5.4 2.7 8.6.9 1.3-.7 2.8.1 4.1.8-.2 1.4-.8 2.7-1.8 3.8l-.3.5c0 .3.1.5.2.7l-.1-.1a8.7 8.7 0 0 1-4.6 2c-.1-4.9-3.8-6.3-7.4-7.6-3-1.2-5.5-3.7-9.3-3.2-2.5.4-3.9 2.9-6.3 3z"/><path class="st0" d="M211.6 84.7c.9-2 2.7-3.5 4.9-4-1 2.1-2.8 3.6-4.9 4zm-2.9 2c.3-1.4 1.6-2.2 2.9-2-.4 1.2-1.6 2-2.9 2zm37.2-5c-.1-.8.3-1.1 1-1.1.1.9-.2 1.2-1 1.1zm-7.6 294.1c-5 2.4-10.8 2.5-15.9.1-2.8-1.3-5.9-1.5-8.8-.6-.2 2.5 3.2 1.3 2.8 4.3-4.4 1.3-9.2-3.8-13.9-.1.3 2.7 3.4 1.6 4.5 3.5-2.9 2.6-8-1.9-10.1 3.2h-10c-2.4-3.7-6.3-3.4-9.9-4-2.2-.4-4.6.2-6.7-2 3-2.9 5.8-.5 8.4.2 5.8 1.6 11.4 4.1 17.6 2.1 1.3-.4 3.8.4 2.2-2.7-.7-1.3.8-1.8 1.7-2 9.3-2.1 18.3-7.5 28.2-2.6 3.2 1.4 6.6 0 9.9.6zm6.1-2.6l-3.8 1.3c-.6-5.2-4.7-3.5-7.4-3.7-4.3-.3-5.8-2.6-6.1-6.5 0-.1.3-.2.5-.2s.4 0 .6.1l-.1-.1c4.4 4.9 10.8 5.3 16.3 7.8v1.3zm-21.7-89.9c0 1.5 4.4-1 2 2.9-1.9 2.9-2.9 6.5-.3 9.9.2.4.2.8.1 1.1-6.7 1.9-1.2 5.8-.3 7.1 2.8 4.3-.2 8-.2 12.2-3.3-.9-6.6-2.8-10.6-2.6.7-2.1 7.3-3.6.2-5.7 2.1-2 4.6-1.6 7.1-2.6-5 .6-4.3-5-7.7-6.7l4.7-1.9c-.1-.3-.1-.9-.3-.9-3.2-1.3-4-4.1-1.4-6.9 1-1.1.3-1.1-.1-1.6-1.1-1.5-2.2-3.1-3.2-4.6l3-.4c.4-1.1-.6-.7-.9-.7-1.8-.2-4.3.2-4.1-2.6.2-2.8 2.9-2.1 4.3-2.1 3.7.2 7.4.7 11.1 1.4 1.5.2 3.9-.2 3.9 2.2 0 3-2.5.9-3.7 1.5-1.3.4-2.5.7-3.6 1zm-165.1 81c18-1.2 35.9-2.8 53.8 1.1-7.6-3.1-15.8-3.8-24.4-9.1 11.7-1.8 21.6 1.4 31.8 1.4-1.2-2.1-4.1-1.4-5.2-4.5 10.5-1.3 20.7-.5 30.8.1-7.8 3.2-15.8-.4-24.2 1.3 3.7 2.3 8.1 1.6 12.5 5.1-13.1 1.6-24.6-2.3-37.8-1.6 10.6 4.8 21 4.6 30 9.6-22.4-1.3-44.7-5.3-67.3-3.4zm60.1 2.1l.5-.2c-.1-.1-.3-.4-.4-.3-.2.1-.4.3-.6.4l.5.1zm24.5-181.2c-.3 4.3-4 5.8-6.4 4.7-6.8-3-6.2 2.9-6.2 5.7-.1 2.4-1.9 3-2.3 4.8-.5 2-1.9.6-2.9.3-2.2-.7-.5-1.4-.4-2.5.5-4.7 1.3-9.4.5-14.2 2.1-.5 2.4 1.8 3.8 2l.4.2h-.5c.7-2-1-4.1.3-6.2 2.2.9 1.5 3.9 3.5 5 2.4-2 0-5.5 2.5-7.7 2.8 2.3-.1 6.1 1.8 8.5 2.2-1.4 1.6-3.9 2.6-5.7.4-.8.3-2.5 1.6-2.3 1.5.3 1 2.1 1.5 3.2l.1-.1c-1 .7-1.3 2.2-.6 3.2.1.1.1.2.2.2l.5.9zm33.4 85.9c1.4 0 3.1-.2 3.7 1.6s-1 2.1-1.9 2.8c-2.6 2.1-5.2 4.2-9.5 3.4 1.9 2.1 4.1 3.2 1.1 5.5-1 .8-3.9 3.7-.9 6.3.5.5.5 1.3 0 1.8-.2.2-.3.3-.5.3-.7.4-1.6.1-2-.7 0-.1 0-.1-.1-.2-.9-2.1-3.3-2.4-4.8-3.8 2.1-2.8 5.5-4.3 3.1-9.1-1-1.9 2.7-5.7 4.3-8.4 1.3-2.1 5.2-1.8 7.7.5-1.4.5-3.4-.9-4.1 1.7.8-1.5 4.4 4.5 3.9-1.7zm-43.6 26c-1.7-.6-5.3.8-4.5-2.4.7-2.9 4.6-2.2 7.1-2.3 3.3-.1 2.1 3.2 1.4 3.9-3 3 1 5.2.7 8.1-.4 3.4.4 6.7-3.6 6.6-2.8-.1-2.6-4.2-3.6-6.6-.5-1.2.8-2.7-1.4-4.5-2.4-1.6 3.5-.3 3.9-2.8.2-.3 1.1.2.7-.8l-.7.8zm51.7 37.2l15-1c-2.7 2-1 8.1-5.7 7.1-3.4-.7-8-.3-9.3-6.1zm-32-151.2c2.5-7.1 3.3-.3 4.3.7 3.2 3.4 5.8 7.1 4.6 12.5-.1-5.9-9.2-3.6-8.5-10.3l-.1.1.4-2.2-.7-.8z"/><path class="st0" d="M152 186l-3.5 3.8c-2.8-1.2-.1-3.1-1.1-4.6-1.7 2.2-3.5 3.6-5.2.1l-.6-.9.4-3.5-.1.1c2.1-3.2 5.9 0 8.3-2.3 1.1 1.5.2 3.2.5 4.9l-.2.2.2-.1c.2-.3.5-.5.9-.5l.6.9-.4 2.2.2-.3zm-20.5 156.3c-3.4.5-3.8-2.1-3.8-4.7 0-.4-.7-4.4 1.9-3.1 2.6 1.3 5.8 3.1 6.8 6.1.5 1.1-2.8 1.7-4.9 1.7zm-.7-2.5l.1-.4s0 .3-.1.4l-.2.1.2-.1zm96.5-12.1c-1.2.3-1.8.6-2.2.5s-.8-.7-1.2-1.1c.4-.2.7-.3 1.1-.3.9.2 1.6.5 2.3.9zm-47 6.4v-.4l.5.2-.5.2zm60.5 40.4c-.3 1.6-1.5 1.5-2.6 1.4.2-1.6 1.4-1.5 2.6-1.4zm-12.6-10.3l.3-.3-.3.3z"/><path class="st1" d="M357.5 80.7c-1.1 4.6-2 9.3-6.5 12-.8.5-.6 1.4-.5 2.2.8 6.6-.1 13.4 1.7 20 .7 2.9.5 5.9-.3 8.8-1 3.6-1.6 7.3-2.3 11-1.6 9.2-7.5 15-15.5 18.5-1.9.7-3.5 2-4.5 3.8-6.2 10.3-14.4 13.9-25.2 17.4-4.6 1.5-6.8 1.5-12.9-.8 4.2-1.5 2-2 5.6-4.6l.6.7-1.3 1.5-.2.3.1-.3c1.3.2 2.5-.6 2.9-1.9l-.1.1c.5-.1.9-.5 1-1.1l-.1.1c1-.6 1.7-1.8 1.9-3l.2-.1-.2.2-1.5 1.3-.7-.6c5.6-6.9 7-14.8 6-23.5-.3-2.7-1.3-4.1-3.7-4.9-5.6-2-11.4-2.9-17.3-2.7-2.9.1-5 1.8-7.3 3.2-6.3 3.8-12.1 8.4-18.1 12.7l-.7-.8 1.3-1.6v-1c4.9-3.4 9.7-6.8 14.6-10.1 4.7-3.1 10.1-4.8 15.7-5 5.5-.4 10.1 1.7 14.9 3.4 1.8.6 3.8 1.9 3.8 4.5-.4 11.9-1.5 23.5-10.5 32.6.5.1 1.1.1 1.6.1 11.2-.7 19.2-6.9 25.9-15.4.9-1.1 2.2-2.6 1.6-3.9-1.1-2.4 1.5-2.7 1.8-4.2 1-4.4 2.7-.3 4-.2 1.8.1 3.5-.4 4.9-1.5 6.2-5.5 8.6-13.1 10.1-21.1 0-.7 0-1.3-.2-1.9-1.3-6.8-1.7-13.7-1.4-20.5 0-2.3-.2-4.6-.7-6.8-.5-3.1-2.2-6.2-.7-9.5 5.5 1.9 8.1.5 9.2-5.5 1.3-6.8 1.7-13.7-1.9-20.1-.6-1-1-2.1-1.1-3.2 0-7-4.6-10.9-9.3-14.5-6.1-4.8-17.8-4.8-23.9-.2l-.1-.1c-.8-2.7-2.9-4.6-1.8-8.2.9-3.1-.3-6.7-3.1-9.3-6-5.6-12.1-11.1-20.1-13.5-4.7-1.5-9.2-3.4-13.6-5.7-2-1-4.2-1.6-6.4-1.7-12.2-.7-24.4-.3-36.6 1.1-12.6 1.6-24 7.1-35.5 12.1-3.8 1.7-6.9 4.9-6.5 9.9-.7.2-1.5-.2-1.9-.9-3.4-5.5-8.8-7.5-14.5-9.5-9.3-3.2-18.5-1.5-27.8-.3-5.9.7-11.3 3.2-17 4.6l-.3-.5c6.7-3.8 14.2-4.8 21.5-6.7h-9.9v.1c5.6-1.9 11.5-1.9 17.2-1.7 7.4.3 14.8 1.8 21.8 4.5 2.5.9 5.2 1.8 7.1 3.8.6.8 1.7 1 2.5.4.1-.1.3-.2.4-.4 8.9-8.8 20.1-12.8 31.7-16.1 13.2-3.7 26.6-5.8 40.1-4.2C281.9 4 296.9 9.9 310 20.7c5.3 4.4 8.2 10.2 11.8 15.6.8 1.2 1 2 2.5 1.9.9-.1 1.9.1 2.9 0 9.7-1 16.7 4.1 22.9 10.8 3.3 3.5 4.1 8.4 5.5 12.9.8 2.3.9 4.8 2 7v11.8zm-10.4 57.2c-.1.3-.8.3-.3.8l.3-.8.2-.8-.2.8zM217.3 10.8c-1 .1-2.1 0-2.8 1l-1 .4c.1 0 .3.1.3.1l.6-.6c1.1-.1 2.2-.1 2.9-.9.1-.3.7.1.6-.6l-.6.6zm132.5 111.9h1.3l-2.1-28c-.5 9.5-1.8 18.9.8 28zM254.3 3.3v.2h8.9v-.2h-8.9zm-10.5.8v.3h6.1v-.3h-6.1zm72.4 180.8c1.2.9 2.3.4 3.6 0-1.2-.5-2.5-.5-3.6 0zm17.7-24c-.8 0-1.1.3-1.2.8 0 .5.4.5.7.3.4-.2 1.1-.4 1.1-.7.2-.6-.4-.4-.6-.4zM289.6 10.2l.3.2.1-.3-.4.1zm33.2 173.5c-.1 0-.3-.1-.3-.1-.3.2-.2.3.2.3.1.1.1-.1.1-.2zm-161.5 56.8c.1-.5.5-1.3.8-1 3.1 2.6 6.6 4.9 7.9 9.3.5 1.8-.7 2.2-1.6 3 3.9.8 7.8 1.5 11.6 2.4 4.5 1.1 5.1 2.4 4.6 7-.5 4.3-1 8.4-1.8 12.6-.4 2-.5 4.3 1 6.1.4.5.8 1.3.7 1.8-.9 3 .2 4.5 2.9 5.3.9.4 1.5 1.4 1.3 2.4-.7 4.1-.1 8.4-1.9 12.5-1 2.4-2 3.9-4.8 3.7-1.3-.1-3.1-.4-3.1 1.9-.1 1.7 1.1 3.2 2.8 3.5 2.6.7 5.3 1.1 8 1.2 5.9 0 11.8.3 17.7.9.5.1.8 0 1.2.4 4.1 5.6 9.9 2.1 14.9 2.7 1.6.2 1.3-2.5 2.9-2.8.2.5.4.9 1 .7.1 0 .2-.3.2-.4-.3-.4-.9-.5-1.3-.3l1.9-1.9.3-.3c3.6-.2 4.6 3.1 6.5 5.1l-.1.1.1-.2c1.1.4 2.1 1.1 2.9 2-.6 3.1-.2 3.5 3.8 3.9l1.3 1.6-.6.8c-2.8-.8-5.4-2-7.7-3.7-2.9-2-6-4.2-9.6-3.3-8.6 2.1-16.9-.9-25.2-1.8-5.7-.7-11.2-3.1-17.2-2.4-2.1.2-3.1.7-2.2 2.9 1.2 2.9-.4 5-1.5 7.3s-3.7 2.5-4.8 4.5l.1-.1c-9.7 0-19.3 2.2-28 6.5-1.3.5-2.2 1.8-2.3 3.2-.9 5-2.1 6.3-6.8 6.3-2.5-.1-5 .7-7 2.3-2.1 1.6-4.7 2.1-7.2 1.5-3.4-.6-6.9-1-10.3-1.1-2.9.1-5.6-1.3-7.4-3.6-1.5-2-2.9-2.1-5.3-.7-3.2 1.9-6.5 4.1-10.4 4.3-.6-.8-1.3-.7-2.1-.4-7.6 2.3-15.2 4.2-22.5 6.9-4.8 1.8-9.7 3.4-14.5 5.3-4.5 1.8-9.5 2.2-13.9 4.6-2.1 1.2-4 2.4-6.7 1.8-1-.2-2.7-.3-3.1 1.8-.5 2.4 1.2 3.1 2.4 4.1.4.3 1.2.1 1.9.1 15.8-.8 31.3 1.9 46.8 4.7 10.6 1.9 21.1 4.3 32.1 3.8 8.9-.4 17.6 2.3 26.5 3 10.4.9 20.8 2.4 31.2 3.7 5.3.6 10.5 1.5 15.7 2.9l-.2 1.1c-4.9-.7-9.7-1.6-14.6-2.2-12.4-1.6-24.9-2.6-37.2-4.7-13.5-2.3-27.2-1.5-40.7-3.8-10-1.7-19.9-3.9-30-5.2-10.2-1.4-20.5-2.5-30.8-1.7-1.9.1-3.8.3-5.2 1.9-1 2.1.2 1.9 1.6 1.8 6.2 0 12.4 0 18.5 1.7.3.1.5.4.8.6l.1-.1c-7.3 1.9-14.3-1.6-21.6-1.2-2 .1-2.4-1.2-2.3-2.8.1-2.4-.2-4.6-2.1-6.2 1.3-1.7 3.3-2.4 3.9-4.5.4-1.5 1.7-1.4 2.7-1.6 7.8-1.7 15.4-4.5 22.5-8.3 2.9-1.6 6.5-1.5 9.5-2.9.8-.4 1.9-.3 2.6-1.1 5.6-7.1 10.3-14.7 11.3-24.6-5.3.6-10.3-.2-15.2 2-3.5 1.7-7.5 1.9-11.1.5-1.7-.7-3.2.2-4.5.9-4.9 2.4-10.1 1.4-15.3 1.5-1.9 0-3.7-1.6-5.6-2.4-1.6-.7-2.7-.2-3.1 1.7-.6 1.7-.8 3.5-.7 5.3.8 5.4-.3 10.6-1.4 16.4-2.2-2.6-1.9-5.1-2.2-7.6-1.3 5.5-5.8 9.8-5.6 15.9.1 2.3 1.1 4.9-.7 7.1l.1.1c0-.9.3-1.9-.5-3-1.8 3.7-2.7 7.8-2.4 11.9l.1-.1c-.6-.1-1.6 2.2-1.7-.2-.1-6.4.6-12.8 2.1-18.9.3-1.5-.1-3.4 1.5-4.5l.4 1.1c0-.1.2-.3.1-.4l-.6-.6c-1.1-5.4 0-10.8 2.1-15.7 3.9-8.3 3.5-16.3-.1-24.4-1.8-4.1-2.1-7.8 2.4-10.5 1.7-1 1.9-2.8 2.1-4.7.6-4.7 1.1-9.4 5.3-12.6 1-.8 1.5-2.2 1.4-3.5-.5-8 5.2-13.4 8.3-19.9.3-.6 1.3-.9 2.1-1.1 6.1-1.6 12.1-4 18.6-3.3 3.1.3 5.8-.1 7.2-3.9 1-2.6 4.2-3.7 5.5-6.5.6-1.3 2.7-.1 4.1-.7.4-2.9.8-5.8-.7-8.5 1-.1 1.7.8 2.5 1.3 2.6 1.3 2.9-1.9 4.5-2.6 1.1-.5 1-2.6.1-2.9-2.8-.9-1.9-2.5-1.5-4.4.5-2.5-1.6-5.3-3.6-5.3-2.9-.1-3.5 1-4.1 4.8-.5 3.5 1.1 6.3 2.1 9.3-4-3.2-5-7.9-2.3-13.5.9-1.9 1.3-3.4.5-5.5-.6-1.5-.1-3.2.3-4.8.8-3.1 1.9-6.1.8-9.6-.7-2.1 2.1-3.6 2.3-6.1.2-2 2.8-3.3 5.4-2.2 1.3.6 1.5-.9 2.1-1.5 7.3-7.7 16.1-8.8 24.4-4.8 5.3 2.5 8.6 8.1 10.9 13.9 2.4 6 4.7 12.1 3.5 18.9-.2 1.2 0 2.2 1.8 2 1.2-.2 2.5.4 3.7.5 1 .1 2.2.6 3-.6.8-1.3.1-2.1-.5-3.1-2.7-4.1-3.4-8.7-1.3-13.1 1.1-2.5 1.6-5.3 1.5-8 .2-3.3-.4-6.5-2-9.4-2-3.6-.7-7.1 2.9-8.8.7-.3 1.6-.5 1.9-1.3 1.7-3.8 5.2-3.8 8.4-4.3 4.5-.6 8.9-2.1 13.6-2 5.4.2 10.3 1.1 13.4 6.3 2.7 4.5 4.8 9.1 4.1 14.7-.2 2.6-.3 5.2-.2 7.8 0 .6.1 1.5.5 1.8 3.3 2.1 2.1 5 1.6 7.8-.6 4-2 7.9-4 11.3-2 3.2-2.2 7.5-4.4 10.7-1.2 1.7 1.6 2.2 1.4 3.7-1.2.1-3-.6-2.6 1.9.5 3.5-1 6.5-2.9 8.9-1.3 1.6-2.4 3.6-4.1 4.9.6-2.2.1-5 2-6.6 3.8-3.1 4.2-4.1 2.8-9.1-.3-1.3.1-2.6 1.1-3.5 2.2-2.6 3.7-5.7 4.3-9.1.3-1.3.4-2.8 1.3-3.6 2.2-2.2 2.6-5.2 3.2-8 1-4.9-.2-7.1-5.3-8.9 2.9-1.5 3.4-3.8 2.8-6.6-.6-2.3-2.4-4-4.6-4.4-2.1-.5-3.7.5-5.3 1.6-1.3.9-2.1.8-2.3-.9l.1-.1c3.3-1.8 6.8-2.8 10.5-1.5 2.9 1.1 3-.8 2.6-2.7-.6-3.2-1.5-6.4-3.8-8.8-2.2-2.4-4.6-4.6-8-4.8-3.8-.2-7.5 1.1-11.3 1.1s-6.5 3.9-10.3 1.7c-1.4 2.7-5.2 3.7-5.2 7.5-.2 3.9 0 7.8.5 11.7.6 3.3 1.5 7.4-2.8 9.4-.3.2-.5.7-.7 1.2-1.3 3.7.2 8.5 3.2 11.3.9.8 2.9 1.3 2.2 3.3-1 2.8.2 5.5.2 8.2l-2 .1c-.3-1.8.2-3.8-.8-5.9-2.1 1.3-4.2.6-6.5.8.9 1.8 2.4 4.4 2.6 4.2 2.1-2.2 3.2.7 4.7.8-2.5 4-.5 7.3 1.6 10.5.3.6.7 1.1 1 1.7 3.2 3.8 5.4 8.5 9.8 11.2 3.4 2.1 10 1.1 12.4-1.9 0 5.5-.1 11.1.1 16.6.3 8.2.4 16.3-2 24.3-.5 1.6-.9 3.2 0 4.8 1.1 1.9.9 3.7.4 5.7-.4 2-.7 4.2-1.1 6.3-.5 2.9 1.8 4.3 3.5 5.2s4.5.9 5.4-1.4c1.7-4.5 5.4-4.4 8.9-5.1-.5.4-.9 1-1.4 1.1-5.2 1.3-6.8 7.6-11.9 9.1-1 .3-1 1.9-1.2 3-.4 2.4-2 5.2.1 6.9 1.8 1.5 4.2-.1 6.3-.8 5.2-1.6 10.3-4 16.1-2.8 2.7.5 4.7-1.5 6.1-3.8 1.9-3.1 1.4-6.2.3-9.3-1.1-3.7-5-5.8-8.6-4.6-.1 0-.3.1-.4.1-1.7.8-3.6 1.2-5.5 1 .6-1.3 2.7-1.4 2.3-3.4-1.4-.8-2.7-1.9-4.1-2.3-3.3-.8-3.4-2.7-2.5-5.5.5-1.5 1.4-2.7.5-4.6-1.8-3.5-1.3-7.2-.5-11s2.6-7.2 1.9-11c-.9-5.2-.4-10.5-.5-15.7 0-2.1.4-3.5 2.8-4.4 3-1.1 3.3-3.5 1-6-1.2-1.3-2.5-2.5-4-3.5-1.7-1-2.7-2.8-2.7-4.8 1.9.1 2.5 2.1 3.8 2.9l.2.2.1.2zm-90.5-1.1l.3-.2-.3.2-.1.2.1-.2zm-30.5 61.2c.3.6.6.5 1 0 1.3 1 1.9 2.8 3.8 2.9h1c1.5 1.1 2.8 1.2 3.7-.9-1.4-.8-2.5.1-3.7 0 2.4-3.5 3.6-7.7 3.4-12-.1-3.8-2.6-6.9-2.3-10.7l-.1.1c.9.8 1.6 1.8 2.1 3 2.7 5.5 1.9 12 4.7 17.5-.1.1-.3.2-.3.3.1.2.2.5.3.7-1 2.2-3 3.6-4.8 5l-.2-.2.3.1c1.9 2.2-.1 2.4-1.4 2.5-4.7.1-8.3-3.2-11.8-5.3-3.1-1.9-5.5-2.7-8.8-2-.1-.5-.2-.6-.4-.2 0 0 .3.1.4.2-1.3 1.3-3.4.9-4.8 2l-.2-.2.2.1c-1.1 4.3-2.1 8.5-.1 12.8-1 4.2.6 7.4 3.8 9.9l-.1-.1c3.6 3.5 4.9 3.5 8.9 1 2.2-1.5 4.8-2.5 7.4-2.9 1.7 3.2 3.6.5 5.5.5-1.8-1.1-3.7 0-5.5-.5 1.1-1.8 3-1.4 4.6-1.8 1.2-.3 2.1-.6 2.1-2.1l-.1.1c3.3 2.5 3.7 2.5 6-.6 1-1.1 1.5-2.5 1.6-4 0-2.1.9-4.1 1.5-6.6.3 1.3.2 2.4.7 2.7 2.6 1.7 2.4 3.9 1.9 6.6-.5 1.7.5 3.5 2.1 4 .3.1.6.1 1 .1 3.8-.3 8.2.3 10.9-3.2 2.2-2.8 4.9-2.9 7.9-3.1 1.1-.1 2.3 0 4.3 0-2.1-1.2-3.5-1.7-3.6-3.5-.1-1.1-.8-1.6-1.7-2-3.8-2-3.8-2.6-1.4-6.5 1.8-3 2.1-6.3-.3-9.4l-.5-.4c.1-.5-.1-1.1.2-1.4.7-.8 2.7-.7 1.5-2.5-.9-1.2-1.9.2-2.9.4-3.2.8-5.7 3.5-9.1 3.6 3.1-3.6 7.5-4.5 11.6-6 1.7-.8 3.6-.2 4.6 1.4.8 1.1 2.5 2.2 3.1 1.2 1.3-2.1 3.7-3.1 4.5-5.5 2.4.6 3.9 3.5 6.8 3.1l-.1-.1c3.2 1.3 6.5.7 9.8.7 5.3.1 5.1 0 5-5.4-.1-1.9-1.5-4.6.8-5.8 3-1.6 3.1-4.2 3.8-7 1.2-4.9-.2-8.5-3.2-12-1.7-2-4.3-2.7-5.6-5h1.9l.1.1-.1-.1v-1.1c1.7.4 3.2 1.1 3.8 3 0 .1-.1.2-.1.3 0 .2.1.4.1.6l.9 1 1 1.1c.4.9 1.1 1.6 1.9 2 .4 1 .2 2.3 1.7 2.5 0-1.2-.7-2.2-1.8-2.5-.1-1.2-.6-2-1.9-2l-1-1.1-.9-1v-1.1c7.2 2 9.2 7.5 6.9 16.4-.5 1.8-.9 2.9 1 3.1 2.4.3 4.7.4 7.1.2 1 .1 1.9-.6 2.1-1.7 1.3-6.9 4.3-14.1-2.5-19.9-.6-.6-1-1.3-1.3-2-1.7-3.3-4-6.2-6.9-8.5-2.7-2.3-5.4-5-6-8.5-.5-3-1.7-5.8-3.6-8.1-1.4 4.2-1.2 8.9-4.1 12.4-.1-1.8.8-3.4 1.3-5.1 1.1-3.5 1.6-7.2 1.6-10.9 0-1.4-.3-2.5-1.9-2.8l.1.1c.6-1.3 1.8-2.1 1.7-3.8-.4-6-2.3-11.9-5.6-16.9-4.7-12.3-15.8-14.2-25.6-9.8-1.6.6-2.4 2.3-2.1 3.9-1.6-1.5-2.5-.2-3.3 1-1.3 2-2.8 3.7-5.4 3.9 0-.3-.1-.6-.2-.8-.3-.6.5-.4-.1-.2l.4 1.1c-.3 1.1-.6 2.1-.8 3.3-1.2 6.3-.8 7.1 4.3 10 1.4.8 2.2.1 2.4-1.3.3-1.3-.5-2.6-1.7-3-1.9-.7-3.3-2-3.8-4.9l3.5 2.7c.1.4.2.5.3.2-.1-.1-.2-.1-.4-.1.4-4.5 2.9-7.2 6.7-8.9.6.8 1.3.9 1.9 0 .6-.2 1.4.3 1.7-.7l-1.8-.2c2.1-1.8 4.5-1.4 6.7-.9 5.8 1.3 11.4 3.6 17.2 4.7-1.1 2.3-3.6 3.5-6 2.9-3.8-.8-7.7-1.4-11.2-3.5-4.5-2.7-9.6-.4-11 4.7-.4 1.6-.3 3.3.2 4.8.7 2.7-.2 5.6-2.4 7.3-1.4.9-1.3 1.5-1.6 2.7-1.9 7.3 2 13.6 3.3 20.3.4 1.9 1.6 2.5 3.7 2.8 3.5.6 5-1.8 6.9-3.7.4 1.6-1.2 3.7.9 5l.1-.1c-4.5 1.7-8.9.5-13.4-.9-.1 2 3.3 1.5 1.9 3.9l-.2-.2.3.1v2-.1h2v1.1c-1.1.2-1.9 1.2-1.9 2.4 0 2.7 1.2.6 1.9.5.2 2.6 1.8.8 2.8 1v.1c-.2 1.6-2.5 1.6-2.4 2.4 1.9 3.8 5.1 4.8 7.5 6.7 4 3.2 4.1 3.5 8.2 1.2 1.9-1.1 1.9-1.1 3.8.8-.9 1.3-2.5.2-3.5.9-4.1 3-8 .3-12-.2-3.4-4.8-9.1-7.5-11.5-13.2-.3-.9-.5-1.9-.6-2.8-.2-1 .2-2.4-1.3-2.9-1.6 3.2-1.7 7-.1 10.3 3.1 7.3 5.8 14.7 8 22.3-1.2 0-1.6-1-1.9-1.8-3.2-7.9-6.5-15.8-9.5-23.8-.7-1.8-1-2.7-3.2-2.4-4.1.4-6 2-7.4 7.5h6.7l-.1-.1c-3.4 2.2-7.3 1.9-10.5.7-5.2-1.9-9.8-.8-14.8-.1-7.2 1-10 5.3-11.4 11.8-.5 2.4-1.7 4.7-1.9 7.1-.5 3.5-2.2 6.8-4.8 9.2-3.2 3.2-3.4 6.6-2.5 10.2.6 2 .4 4.2-.5 6-1 2.4-1.6 4.9-2.6 7.4-1.6 4 1.7 11.8 5.9 14.3-.5-5.5-.6-11.1-.1-16.6.8-7 2.5-8.3 10.3-9.2.9-.1 1.9.3 2.8.2.9 0 2.6.1 3-1 .9-2.7 4.1-2.4 5.2-4.7v6.3c-.1.1-.2.2-.2.3-.3.4-.2.6-.1.8zm85.9-122.2l-.2.1.2-.1.2-.2-.2.2zm-6.7 5.9c.1-.3.9-.3.3-.9l-.3.9-.1.2.1-.2zM6.8 346.8c1.2-1.1.7-2.5 1-3.8.5-.3.8-.9.6-1.5 0-.1-.2-.1-.4-.1l-.1 1.6c-1.3 1-.8 2.5-1.1 3.8-.7.9-1 1.7-.2 3.6l.2-3.6zm15.4-21.6l.2.2-.2-.2c-.5-1-.2-2.4-1.5-3-.7 1.7.7 2.2 1.5 3zm95.4-92.6l-.1-.1.1.1c.3 3.1 1.8 5.9 4.2 7.8-1-2.8-2.4-5.5-4.2-7.8zm-48.7-18.7h-.5c-1.2-.2-2.2-2.3-3.7-.4-.5.8-.6 1.9-.3 2.8 2.1-1.1 3.1 2.3 5.2 1.3.8-.4.6-1 .3-1.6-.2-.6-.6-1.4-1-2.1 1-1.1 1-1.1-1-2.4-.1 1.1 1.3 1.4 1 2.4zm112.6 68.9c.7-.2 1.8-.2 1.4-1.4-.3-1.3-1.4-2.3-2.7-2.4-3-.3-5.9 1-7.7 3.4 3.2 1 6.2-1.8 9 .4l-.7.4.7-.4zm-38.2-19.7c-1.9-.1-3.8-.1-5.6 0-1.3.1-1.7 1.4-1.4 2.6.3 1.1 1.1.8 1.9.7 2.4-.6 5.1-.4 7-2.4 1.8-1.6 1.1-3.7 1.3-5.5-3.3-1.2-5.7 1.1-8.6 1.1-.7 0-1 .5-1 1.3.1.5.4.9.9 1 1.9.6 3.9-.2 5.5 1.2zm-3.8 70c2.5-.1 4.9-.6 6.5-2.9-.5-.4-.8-.8-1-.7-4.7 1.4-9.5 2-14.3 1.9-.5 0-1.1.5-1.7.8-1.3.4-3.4-.7-3.7 1.1-.6 2.6-.3 5.2.8 7.6 1 1.8 3.2.9 4.8.9 1.5 0 3.3.3 3.4-2.3 0-.5.4-.9.9-.9.2 0 .3.1.5.2 3.8 2.8 3.1-.9 3.8-2.7l.1-.1-.1.1c-3.3 1.3-6.8 1.4-10.2.4-2.5-.8-2.6-2.1-.3-3.5.2.9.4 1.8 1.6 2 3.2.4 6.4 1 8.9-1.9zm-68.7 11.7c.5 0 .9-.2 1.3-.4 7.6-6 11.7-14.1 13.4-23.5.4-2-2.4-4.3-4.1-3.1-2.9 2.1-6.5 3.8-7.6 7.6-1.2 4.6-2.6 9.1-4.4 13.5-1 2.4-.8 4.4 1.4 5.9zm35.3-4.9c1-1.5.5-3.2 1-4.8 1.2-4.2 2.9-8.1 7.1-9.9 1.6-.7 3.7-.7 4.7-2.1 1.3-1.7-.5-3.3-1.1-4.9-.2-.6-.3-1.3-.1-1.9.6-2.5-1-3-2.6-2.7-3.5.6-6.9 0-10.3 0-2.1 0-2.8.6-2.8 2.8.1 4.6.3 9.2-.4 13.7-.3 1.8.3 3.7 1.4 5 1.1 1.5 2.1 3.2 3.1 4.8l-.1.2.1-.2zm57.2-51.1c-.9 3.6 1.3 3.1 3.4 2.7 5.8-1.1 11.5-2.5 17.2.5 1.5.8 2.5 0 2.9-1.5.4-1.3 0-2.1-1.3-2.7-3.9-2.1-8.3-2.6-12.5-1.4-1.9.5-3.7 1.9-5.6 1.2 1-6 4.6-9.2 9.9-10.7.6-.3 1-.8 1.2-1.4 1.5-4.1 3.3-8.1 3.6-12.7.2-2.8-.7-3.4-3.3-2.9-3.1.7-6.3.6-9.4-.1-5.6-1.4-5.6-1.3-5.3 4.4v.5c-.2 2.4.7 3.3 3.1 2.7 3.3-.8 6.6.3 9.9.6 1.2.1 2.2.7 2.2 2.1 0 1.6-1 1.7-2.2 1.9-4.6.6-9.1.9-13.1-1.4-2.8 5.5-1 11.4-2.7 16.7-.2 1.4 1 1.6 2 1.5zm-41.1 4.8c.7-1.4 1.5-2.7-1.3-2.4-7.9.8-15.7 1.9-23.6.6-2.2-.3-4.6-.8-6.6.2-2.6 1.3-4.8 1.2-7.6-1.2 0 4.7-.1 8.4 0 12.1.2 4.8.3 4.9 5.2 5.2.8 0 1.6.1 2.3.3 9.6 3.6 19.9.9 29.7 3 1.6.5 3.2-.5 3.6-2.1.1-.4.1-.8.1-1.1 0-4.1-.1-8.2-.2-12.3.2-1.1-.1-2.1-1.6-2.3zM73 346.4c3.4.4 5.6-2 8.1-1.5 4.2.9 7.7-2.4 11.9-1.9.6.1 1.1-.3.7-1.3-.4-1 .1-2.1 1-2.5 4.1-2.1 4.3-5.7 3.7-9.8-.1-.6.3-1.3.4-1.9.4-4.6-.5-9.2 1.3-13.9-3.1 2.4-6 4.4-9.7 4.9-1 .1-1 1.5-1.3 2.5-3.4 9.6-7.7 18.5-16.1 25.4zm49.9-.8c-2.5-2.3-3.3-4.4-1.6-7.8 1.5-3 .9-6.7.1-10.1-.4-1.9-1.3-2.4-3-2-6.9 1.5-10.1 7.2-10.1 14.1 0 1.5.8 2.9 2.1 2.8 4.4-.1 8.2 2.1 12.5 3zm22-68.8c-1.2-2.1-3.3-2.3-5.2-2.9-1.9-.6-2.4-1.6-.5-2.9.5-.3 1.3-.4 1.1-1.6l-4.4-.9c.2 1.7.5 3-.3 4.2-1.3 2.2-.3 3.2 1.8 3.7 3 .7 3.9 2.9 4.1 5.8.5 6 .3 12.1-.7 18.1-.4 2.4-.7 4.8 3.4 4.3-.6-5.7 0-11.4 1.7-16.8 1.5-4.9 1-10.1.9-15.1-.1-7-.2-7-7-5.2 1.8 1 4.1.6 5.8 1.8-1.2 2.1-4 1.2-5.3 3.2 2.2.9 4.9.7 4.6 4.3zm-17.1 32.8c9.7-1.2 9.9-2 11-11.7v-1.5c-.1-4-.1-4-4.1-3.3-1.2.2-2.6.7-3.7.4-2.8-.8-2.8.9-2.8 2.9 0 4.4.3 8.8-.4 13.2zm3.8-20.9h4.3c1.2 0 2.3-1 2.3-2.3v-.3c-.1-2-.8-3.9-2-5.4-.9-1.3-2.4-.1-3.6-.1-2.7.1-5.3.4-8 .4s1.5 1.7-.5 1.8c-1.3 0-2.5-.3-3.7-.7-.9-.2-2.2-.6-2.6.4-.6 1.9-.4 3.9.4 5.6.3.9 1.2 1.4 2.1 1.1.1 0 .2-.1.3-.1 3.6-1.8 7.4-.1 11-.4zm31.1 12.9c3.2 3.2 7.1.7 10.6 2 2.3.9 5.8-.1 8.8-.2 1-.1 2.2.1 2.8-1.3.7-1.6-1.3-1.5-1.6-2.6-.3-1.5-1.9-1.6-3.1-1.6-2.5-.1-5.2-.5-7.5.1-3.3.8-7.4 0-10 3.6zm-15.8 16.6c0-1.1-.5-1.3-1.4-1.5-7.6-1.4-14.2 1.3-20.8 4.6-.7.4-1.7.7-1.4 1.6.4.9 1 2.1 2.4 1.8 1.4-.3 2.7-.7 4-1.4 3.4-1.8 7.1-2.8 10.9-3.1 1.7-.1 3.3-1.2 5.1-.9.9.2 1.1-.5 1.2-1.1zm-6.2 4.4c-5.4.1-10 2.7-14.5 5.3-.8.4-1.1 1.3-.8 2.1.4 1 1.3.9 2.1.6 5.1-2.1 10.4-2.7 15.7-3.6 1.4-.2 3.4-.6 3-2.3-.5-1.6-2-2.6-3.6-2.3-.6.2-1.3.2-1.9.2zm21.4-27.6c.9.9 1.1 1.2 1.4 1.2 7.2.4 14.5-.9 21.7.7.6.2 1.3-.2 1.4-.9v-.1c.3-.8 0-1.7-.7-2h-.1c-7.8-3.4-15.5-2.8-23.7 1.1zm-32.4 19.4c9.6-.9 11.4-1.5 13.6-4.1-2.5-4.5-5.2 1.1-8 0-1.2-.5-3.3.9-4.8 1.7-.8.4-1.2 1.4-.8 2.3v.1zm36.3-59.1c4.7 3.6 9 3.7 14.4 2.1-4.9-2.9-9.2-1.8-14.4-2.1zm-72.2 57.4c-2.9-.5-5.1-2-7.7-2.1-.8 0-1.6.1-1.8 1.2-.1.8.2 2.1 1 1.8 2.8-.8 5.7 1.8 8.5-.9zm-7.3-116.3c6.6 4.3 11 5.6 14.5 4.3-5.1-.6-8.9-3.9-14.5-4.3zm32.2 82.9c4.2.6 8.4.9 12.6-1-4.3-.8-8.4.6-12.6 1zm48.9-9.9c3.3 1.3 6.7 2 10.2.6-3.3-1.1-6.8-1.3-10.2-.6zM136 290.2c-2.4.3-5-1.3-8 1.2 3.3.2 5.8.5 8-1.2zm-10.3 27.6c-.3-.8-.4-1.9-1.5-2.1-1.1-.2-1.7.4-1.7 1.6 0 .8-.4 2.1 1 2 .9-.1 1.9-.3 2.2-1.5zm-55.2-94c.1-2.1.1-3.6-1.7-4.3-.2 0-.3.1-.4.2-.9 1.8 1.6 2 1.6 3.5-.1 0 .1.1.5.6zM174 306.2c1.3.2 2.1 1.3 3.5 2-.3-3.1-2.1-2.3-3.5-2zm-28.9 8.5c-1.9-.4-3.8-.3-5.6.2 2.1.6 3.5.9 5.6-.2zM57.5 324c-.2-.5-.7-.5-1-.5-.6 0-1.4-.1-1.4.8 0 .5.5.7 1 .7.6 0 1.1-.4 1.4-1zm58.6 21.3c-.9-.2-1.9-1-2.9-.1.8.9 1.8.5 2.9.1zM91.6 316c-.4-.3-.6-.4-.7-.4-.6 0-1.2-.4-1.7.1.1.1.2.3.3.3h2.1zm-38.8 8.3c-.2-.4-.7-.5-1.1-.3h-.1c-.2.1-.3.5-.4.7.4.1.8.2 1.2.2.1.1.3-.4.4-.6zm-38.7 19.4c.1-.2.2-.5.3-.7 0-.3-.1-.6-.2-.9-.1.2-.2.5-.3.7 0 .3.1.6.2.9zM143 174.9c-.3-.1-.6-.2-1-.2-.2 0-.4.2-.5.4.3.1.6.1.9.1.2 0 .4-.2.6-.3zm-10.6 2.2l.4-.1c-.1-.1-.2-.2-.3-.2-.2.1-.3.2-.5.3h.4zM15 337.2c0 .1-.1.4 0 .4.3.2.4.1.3-.4H15zm44-21.6c0-.4-.2-.5-.5-.4-.1 0-.3.1-.3.3-.2.3-.1.6.3.6.1-.1.3-.4.5-.5zm67.6 29.3c-.1.1-.3.2-.3.3-.1.4.2.5.6.4.1 0 .3-.1.3-.3 0-.3-.2-.5-.6-.4zm-63.1 4.5c.3-.1.4-.4.4-.7v-.1c-.1-.4-.4-.4-.7 0-.1.1-.2.3-.2.4-.1.3.2.5.5.4zm57.5-29.5c0-.1 0-.3-.1-.4-.1-.1-.4 0-.4.4s.2.6.4.4c.2-.2.1-.3.1-.4zm-85.5-19.8v.3l.3-.1-.3-.2zm102.6-124.3l-.4.1.3.1.1-.2zm-68.5 66.5l-.1-.3-.1.6.2-.3zm94-35c.1-.1.3-.1.3-.2.1-.1.1-.3 0-.4-.2-.2-.4-.1-.4.2-.1.2.1.3.1.4zM45.4 306.6c.4 0 .4-.2.2-.6l-.3.1c0 .3.1.4.1.5zm158.8 8.4l.4-.1-.6-.1.2.2zM66.1 203.7l.3-.1-.3-.1v.2zm-43.4 70.9l-.2.4.3.1-.1-.5zm23.4 82.8v-.3l-.4.1.4.2zm-6.2 1.7l.3.2v-.2h-.3z"/><path class="st1" d="M204.2 290.5c-.7-3.2-.9-6.1 2.9-7.7 1.9-.8 1.1-2.9.8-4.4-1-5.3-.6-10.8-.8-16.1-.1-3.2 1.3-4.5 4.1-4.8 4.9-.5 9.8-.5 14.7 0 2.9.3 4.5 1.6 5 5.2 1.2 8 2.3 15.9-.2 23.7-.3.9-.2 1.9.4 2.7 1.2 2.1 2.2 4.3.3 6.8-.7 1-.2 2.2.9 2.9 2.5 1.4 5 2.7 6.9 5 .5.6 1.8.6 2.7.6 5.1.1 10.1.1 15.2.3 2.4.1 4.1-1.5 6.1-2.5l.5.6c-2.3 1.7-1.2 2.8 1 3.6-2.3 1.7-4.7 1.1-7 1.1l-.1-.2.2.1c-1.5 2.9-4.4 2.1-6.7 2.7-1.8.5-2.7 1.1-2.8 3.1-.2 1.9-.4 3.9-.8 5.8-.8 5-.8 5 3.4 7.2.7.4 1.4.6 2.2.9l-.1-.1c4.4 2 8.5 2.3 11.8-2.1 2-2.5 4.7-3.8 7.6-4.8 3.1-1.1 6.2-2.3 9.3-3.7 4.7-2.1 6.6-6.6 8.6-11 .5-1.1.5-2.5 1.5-3.4.6.4.9 1.2.5 1.9-.1.1-.1.2-.2.3-2.2 2.4 1.4 4.6-.2 7.6-1.3 2.2 1.4 5.7 1.6 8.8.1 2.1 1.6 2.6 3.4 1 3.1-3 5.9-6.4 8.1-10.2 1.8-3.3 4.7-5.8 8.1-7.1l.1.1c-2.3 6.1-7.3 10.2-10.7 15.5-1.5 2.5-2.5 5.2-4.6 7.4-1.8 1.9-3.1 4.1-5.3 5.7-2.8 2.1-5.1 4.3-9 4.4-4.5.2-5.8 2.1-6.3 6.9-.5 4.6-1 9.1-1.3 13.7-.2 3.3 1.5 4.9 4.7 4.2 2.6-.6 5.2-1.5 7.8-2.2 2.6-.7 5.2-1.2 7.5 0 2.8 1.5 5.2.4 7.2-.8 6.6-3.9 12.7-8.6 18.3-13.9 2.3-2.1 3.5-5.3 5.3-8.1 1-1.6 2.1-3.8 4.1-3.9 4-.2 6.3-3.1 8.9-5.5l.3.3c-.3 4.2-2.4 7.1-6 9.1-1 .8-1.9 1.6-2.7 2.6l-1 1-.2.2.1-.2.9-1.1c1.6.4 3.6-2.4 4.5-.2.8 1.7-1.7 2.9-2.9 4-1.6 1.5-3.5 2.9-5.4 3.9-7 3.3-11.2 9.8-16.6 15-2.5 2.4-.3 4.4-.2 6.6.1 2.1 2.3.9 3.5 1.5l-.1-.1c-2 1.4-3.5 2.7-.9 5.1 1.4.9 2.1 2.7 1.7 4.3-2.8-1.6-4.7-4.4-7.7-5-1 1.5 1.3 3-.6 4.3-2.1-.5-.3-3.6-2.7-3.9-5.1 1.3-5.9 6.8-8.5 11.1-.3-2.9-.3-2.9.7-5 1.6-3.2 3.1-6.4 4.7-9.6.8-1.6.2-2.5-1.3-2.8-2.5-.4-5-1.1-7.4.4l.1.1c-2.9-1.7-5.8-1-8.5.3-6.4 2.9-12.6 6.3-18.5 10.1-2.5 1.7-4.9 3.6-7.9 4.4-1.1.2-2.1.9-2.7 1.9-1.9 4.2-4.9 2.5-8.1 1.8 4.3-5.9 11-7.5 16.3-11.1 5.3-3.6 9.9-7.9 15.4-11.5 0-.2-.4-.5-.8-.6-9.5-1-19-1.4-28.5-1.2-4.4.1-8.9-.4-13.2-1.5-6.3-1.7-12.6-1.4-18.9-1.5-3.3-.1-6.4 1.1-9.4 2-4 1-8.2 1.3-12.3.7-3.1-.4-6.3-.7-9.4-.7-5 .2-7.6-2.9-6.8-8.1.5-3.6-.5-7.6 2.1-10.9.6-.6.6-1.6 0-2.2-.1-.1-.3-.3-.5-.3-5.3-2.7-5-8.3-6.6-13l-.1.1c2.4.2 4.7-.2 6.9-1.2 8.2-2.9 16.4-.5 24.5-.4 1.5 0 3.5.5 3.4 2.6-.2 3.5.9 7.9-4.1 9.3-.3.1-.5.7-.8 1.2 3.4 5.3 9 5.4 13.6 4.6 11.3-1.9 22.8-1.3 34-3.4 6.7-1.2 13.6-.7 20.1-3.2 2.7-1.2 5.6-1.9 8.5-1.9 4.6.1 7.3-3.1 9.9-6.4 1.2-1.5.4-8-1.2-8.4-2.8-.7-5.6-2.7-8.6-.5-1.1.9-2.4 1.6-3.8 1.9-4.6.8-8.8 1.9-11 7.1-1 2.2-6.3 4.1-7.3 3.1-2.6-2.6-5.9-3.2-9.2-4.1-2.5-.5-4.8-1.8-6.5-3.8l.6-.8 1.6-.6c.7-.7.9-1.7.6-2.6l-1.6.7c.2-4.3-.1-8.6-1-12.9.5-.6 1.5.5 1.9-.6-.2-.2-.5-.3-.7-.4-1-.5-.7.7-1.1 1.1-4.7-3-8.9-6.9-15-10 2.7 4.8.5 8.8.8 12.8l-.3.3c-1.5-2.7-1.9-5.8-1.3-8.8.6-2.2 0-4.5-1.5-6.2 2.1.4 4.2-.5 5.3-2.3.8-1.3.3-2.5-.7-3.4-1-.9-1.8-.2-2.8.6-1.8 1.4-1.7 3.3-1.7 5.3-3.6-.2-2.4-3.2-1.4-4 2-1.7 2.2-4.4 4.3-6.1 2.5-2 1.7-5.7 2.9-9.6-7 2.2-14.5 2.3-21.5.2-.1 5.9 1.4 10.9 3.4 15.7.5.9 1.2 1.5 2.1 1.9 1 .6 1 1.5.9 2.6-.2 2-1.6 2.9-3 4-.4.3 1.9 2.8.8 4.2-1.7 2-3.8 3.5-5.6 5.5-.7.9-2.4.4-3.7.2-1.5-.3-3.1-1.3-2.7-2.9 1.4-4.8.7-9.6.4-14.5 0-.8.4-1.6 1.1-2.1l-.1-.1c.2 1.7-.5 3.7 1.5 4.7 2.3 1.2 4.4 3.1 7.2 3 1.1 0 2.1-.9 2.3-2 .3-1.4-.7-1.5-1.6-1.7-2.1-.5-2.8-2.3-3.7-4 .3-.1.7-.2.8-.4.2-.7-2.1-6.1-2.7-6.3-.7-.3-1.4.1-1.7.8 0 .1-.1.2-.1.3-.5 1.4-.1 3 1.1 3.8.8.7 2.2.4 2.6 1.8-1.7.4-3.2-.4-4.7-.8l.1-.5zm104.1 70.2l-.9 2-.2.1.1-.2c.9-.4.7-1.3 1-1.9l.2-.2-.2.2zm-1.9-48.4c1.2-.5 1.9-1.7 1.8-3l.3-.1-.2.1c-1 .9-1.6 1.9-1.9 3zm-119.2 25.6c2.5-.6 5.2-1.6 7.4-.5 3.7 1.7 6.2.6 9.3-1.6 2.6-1.9 3.5-3.9 2.9-7.3-3.9 2.3-7.9 2.7-12.1 2.7-4.6-.1-9.2-.1-13.8 0-3.5.1-4.1 1.5-2.4 4.5 2.3 4.1 3.8 4.5 8.5 2.5l.2-.3zm-4.8 11c-.1-.1-.1-.3-.2-.4-.1-.1-.1-.2-.2-.2l.4.6c-.2 1.7-.6 3.4-.8 5.2-.6 4.6-.3 4.9 4.6 5.6.1.1.3.2.4.2h.3l-.8-.2c3.5-2.2 7.3-3.6 11.3-4.3-.5 2.6-2.9 2.1-3.1 4.1 4.7-.2 9.6 1 14.1-1.1 4.4-2 8.7-3.4 13.1.1.1.1.3.1.5.1 5-.2 9.7 1.3 14.6 1.9 10.4 1.2 20.9.9 31.4 1 2.7 0 3.8-1.2 3.9-3.7.2-3.4.4-6.9.3-10.3 0-4.3-1.2-5.1-5.4-5.5-10.3-1-20.1 2-30.1 3.4-3.2.4-6.4-.1-9.5.6-6.4 1.5-12.9 1-19.3.4-1.9-.1-3.9-.2-5.2-2.5-1.3-2.3-4-2.5-6.2-2.3-1.4.2-2.8.2-4.1 0-3.1-.7-6.2 1-7.4 3.9-.9 1.3-.9 3-2.6 3.4zm39.6-74.1c2.6 0 4.3-.1 6.1 0 2.1.2 3.1-.6 2.7-2.8-.4-2.7-1-5.5-1.5-8.2-.4-1.7-1.2-2.1-3.1-2-4.9.5-9.8.9-14.6-.4-1.3-.3-2.8-.1-3 1.5-.4 3.1-.7 6.2.3 9.2.3 1.1 1.4 1.9 2.5 1.8 3.8.2 7.6 1.4 10.6.9zm-39.4 54.4c6.6.7 13.3 1.5 19.8-.7-6.7-1-13.3-2.7-19.8.7zm27.9-23.8c.7.2 1.3-.1 1.8-.6.3-.4.2-1-.1-1.3-1.9-1.4-3.2-3.6-5.5-4.4-1.1-.4-2.2-.6-2.8.8-.6 1-.3 2.4.7 3 1.8 1.3 3.8 2.1 5.9 2.5zm15.7-45.5c-4.8-.6-9.7-2-14.9-.1 4.8 1.6 10 1.6 14.9.1zm69.3 102.3c-4.3-1.4-6-1.2-11.3 1 3.7 2.3 6.9-.8 11.3-1zm-89.8-1.2h-12c4 .6 8 1.2 12 0zm2.2-53.7c-.2-.5-.4-1.5-1.7-1.2-1.3.3-2.7.1-2.7 2 0 1.3 1.2 1.3 2.1 1.3 1.1 0 2.3 0 2.3-2.1zm7.7-31c3 1 6.3 1 9.3 0h-9.3zm39.3 30.6c-1.5-.9-3.3-.9-4.8-.1 1.7 1.1 3.1.6 4.8.1zm-10.3 5c.1.6.3 1 .8.8.2-.1.4-.5.4-.8 0-.5-.1-1-.7-1s-.5.6-.5 1zm42.4 6.8c.5-.1 1-.3.8-.8-.1-.3-.7-.5-1-.4-.3 0-1 .4-1 .5 0 .7.6.7 1.2.7zm6.7 46.5c-.2-.1-.5-.3-.7-.4-.1-.1-.3-.1-.5 0-.3.2-.2.5.2.5s.7 0 1-.1zM246 317c0-.1 0-.4-.1-.4-.3-.1-.4.1-.3.5 0 .1.1.2.2.3l.2-.4zm50.8 47.3l-.3-.2-.1.4.4-.2z"/><path class="st1" d="M297.8 286.7c-1.5 2.4-2.9 2.7-4.4.8-.9-1.4-1.4-3-1.3-4.6-.1-1.3.4-2.8-.9-3.6-.5-.3-.7-1.9-2.4-.1-2.8 2.9-3.8 7.1-7.2 9.4l.1.1-1.7-.7-.6-.5c3.4-3.8 4-9.1 6.8-13.2.9-1.2.7-2.5 0-4.1-1-2.1-1.8-4.4-3-6.5s-2.5-3-4.5-1.3c-1.7 1.5-3.7 1.6-5.8 1.6-5 0-5 0-6.7-4.8-1.1-3.1-2.8-5.8-4.2-8.8-2.4-5-3.4-10.5-5.3-15.7-2.2-5.8-1.1-11.9.8-17.7.7-2.1 1-4.1-.3-6-1.7-2.5-1.4-5.3-1.3-8.1.1-2 4.9-6.3 7.8-6.9.7-.2 1.9.1 2.1-.7 1.2-5.2 7-3.8 9.4-7.3.5-.7 1.4.1 2.1.1 2.7.2 5.3.1 8 0 .3 0 .6-.1.9-.2 1.6-.2 1.3-4.1 3.2-2.5 2.3 2.1 5.8 3.6 6.6 6.7.9 3.8 3.5 5.2 6 7.1 1.1.9 2.4 1.6 3.6 2.3 2.3 1.2 3.4 3 2.9 5.6-.5 2.6.6 4.6 2.1 6.7 3.5 4.9 4 11.4 1.3 16.7-1.9 4.1-.2 8.2-.2 12.3 0 .3.6.6.5.8-.9 4.5 2.2 3.9 4.9 4.5 5.4 1.2 10.9-.4 16.2 1.2.9.1 1.8.4 2.6 1-3.9 1-4.2 1.8-1.7 4.6.6.7 1.4 1.3 2.1 1.9l-.7.7c-4.3-2.4-4.3-2.4-4.4 2.6l.1-.1c-1.1-.9-1.2-2.8-3-2.9l.1.1c1-2.3.4-3.9-2.2-3.9-3.5-.1-6.3-.1-8.9 4-2.6 4.1-4.8 8.3-7 12.5-1.4 2.5-3.8 4.1-5.7 6.2.3-3.5 2.2-6.3 3.6-9.4 2-4.4 4.4-8.5 5.4-13.7-1.8 0-3.1-2.5-5.3-.6-.7.5-1.5-.9-2.1-1.6l.5-.5c.6-.6.5-1.4.6-2.2.4-2.8-2.8-3.1-3.2-5.1-.7-3.3-2.2-3.1-4.3-1.4-.3-2.5 1.5-3.2 3.1-4.3 4.3-2.7 5.7-6.7 4.4-11.2-.6-1.8-1.4-3.9-3.2-3.7-2 .3-4.7 1.2-4.9 3.9-.2 3.5-2.3 6.7-.7 10.5-2.8-.2-1.7-3.4-3.5-3.8-2.5-.6-3-2.7-3.5-4.7-.5-1.5-1.3-2.9-2.5-4l.7-.7c1 .4 2.2.2 3.1-.5.5-.5 1.2-1.4 2-.8.9.7 1.4 1.9 1.1 3-.3.9-.8 1.8-1.3 2.6-.3.4-.2 1.1.2 1.4.1.1.2.1.3.2.5.3 1.1.1 1.4-.4 0-.1.1-.2.1-.3.7-1.8 1.5-3.6 2.1-5.4 1-3.2 3.7-3.9 6.2-4.7 2.5-.8 1.8 2.7 3.3 3.3.2.1.6 0 .8-.1.4-5.8-.4-7.5-4.2-8.5l-.6-.6c.3-1 1.4-1.8.1-3-.8-.7-1.4-1.7-1.8-2.8-1.1-4.2-4.1-6.3-7.3-8.8s-6.8-3-10-4.9c-1.8-1-3.8-1.4-5.8-.9-2.5.4-5.1 2.1-7.4 1.1-3.3-1.3-3.8.7-4.7 2.9l-.1.2v-.2c1.2.4 3 .1 3.2 2.6-3.7-.4-6.6 1.9-9.8 3.4-.4-.1-.8-.3-1.2-.4 0 0-.3.2-.2.3.4.7 1-.3 1.4.1-1 3.8 1.1 7 1.6 10.6l.5.6c.1.3.3.8.2.9-3.2 3.7-5.3 7.9-5.4 13 .1 4.4 1 8.6 2.5 12.7 1.5 4.8 3.2 9.5 5.2 14.1 2 4.4 8.6 7.7 12.7 5.7 5.5-2.7 11.7-4.2 15.4-9.9 1.3-1.8 2.8-3.5 4.3-5.1 2.3 3.8 2.2 4.4-.9 5.8-.6.3-1.3.3-1.6.9-1.9 3.6-5.3 5.3-8.6 7.4-2.8 1.7-2.8 2.1-.4 4.5 1.1 1.1 3.3 1.5 3.2 3.3-.1 6.4 3.6 10.3 8.1 13.8 3.4 2.7 3.5 2.6 5.3-1.8.4-1 .5-2.3 1.8-2.7 0 4.9-2.6 8.3-6.7 10.6.8-3-.3-4.8-3.3-5.5-1 5.6-.5 6.3 3.3 5.5zm-35.3-88.5l.1-.1-.1.1zm44.5 44.1c1.1-.1 2.1-.5 1.8-1.7-.3-1.5.1-3.6-1.8-4-1.1-.1-2.1.9-2.2 2v.5c.3 1.2.3 3 2.2 3.2zm23.1 8.6c-1.1-.6-1.9-1.6-3.2-.8-.1.1-.1.6 0 .9 1 1.5 2 1 3.2-.1zm-20.1-2.8l-.2-.8c-.1.1-.3.2-.3.3-.1.3 0 .6.1.8.1.2.3.1.4-.3zm-52.7-40.3h-.2l.1.3.1-.3zm27.5 72.1l.1.3.1-.4-.2.1zm37.9-29.1c-.1-.1-.2-.1-.4-.1 0 0-.1.2-.1.3.1.1.2.1.4.1 0 0 .1-.2.1-.3zm-12.9-20.9c.1-.1.1-.3.1-.4 0 0-.2-.1-.3-.1-.1.1-.1.3-.1.4.1 0 .2.1.3.1zM102.9 95.5c0 1.2 1.6 1.7 1.1 3.2-1.9 0-2.8-1.4-3.4-2.7-2.1-4-4.3-7.9-4.6-12.7-.3-2.6-.7-5.2-1.3-7.7-.7-3.9-.6-7.8.4-11.6.9-3.3 2.2-6.4 2.3-10 .1-1.9 1.4-3.6 2.8-5 1.7-1.8 3.1-3.7 4.4-5.7 1.7-2.8 4.6-3.3 7.2-4 1.5-.3 3-1 4.2-2l.6.5c-.6 1.5-1.1 2.9-1.7 4.4-1.3 3.4-1.3 3.4-4.4 1.2.6.2 1.2.3 1.5-.4 0-.1-.1-.4-.1-.4-.5-.2-1.1.1-1.3.7v.2c-1.3.1-1.5 2-2.9 2l.1-.1c-3.9 4.2-9.4 7.4-7.6 14.7.1.4-.2 1-.3 1.4-1.2 6.8-1.6 13.7-1.3 20.5 0 2.1.7 4.2 1.9 6 3.5 5.1 7.7 9.2 13.4 11.2 1.9.7 2.1 1.6 2.6 3.3.7 2.2 0 5-1.2 5.2-2.7.4-1.9 2-2 3.4v3.4c-.6 9.6 3.9 16.2 11.4 21.1 1 .7 2.4.9 2.9 2.3-.1.1-.2.2-.2.3 0 .2.1.4.2.6.8 1.6 2.2 2 3.8 1.9.7.8 1.9.9 2.7.2l.2-.2c3-.1 5.4 1.8 8.2 2.3 1.7.3 3 1.1 4.4-1.2s4.3-1.7 5.3.8c.7 1.8 2 2 3.2 2.5 4.8 1.7 9.5 3.4 14.4 4.9 3.6 1.3 7.5 1.7 11.2 1.1 5.6-1.1 11.3-1.6 17.1-1.4 1.4.1 2.8-.1 4.2-.6 5.3-2.2 5.2-2.1 9.3 2.4 3.9 4.3 8 8.6 14.1 9.1 4.9.4 9.8.4 14.6-1.2l-.1.1c.7-.9 1.8-1.3 2.9-1.1l.1.1-.1-.1c.5-1.3 1.8-1.6 2.9-2v1.1l-.2.1.2-.2c.7-.2 1.5-.2 1.9-1 .3-.2 1 0 .8-.7 0-.1-.5-.2-.8-.3 1-1.1 2.4-1.8 3.9-2.1v1.1l-.2.1.1-.2 1-1.1c.7-.2 1.5-.1 1.9-1 1.2-.2 2.3-.9 2.9-2l1.6-.4.7.8c-11.3 9.2-23.9 14.6-38.4 12.3-4-.6-8.9-2.2-11.8-6.4-1.4-2-3.3-3.6-5.6-4.4-1-.4-2.2-.9-3.2-.4-5.9 2.9-12.2 1.6-18.3 1.4-4.6-.1-9.2-.5-13.7.2-1.7.2-3.5.2-5.2.1-4.6 0-8.3-1.7-10.6-6.1-.6-1.1-1-2.7-2.6-2.4-1.6.2-2.9 2.9-5 .2-1.2-1.6-4 0-5.8-1.3-1.1-.7-2.4-1-3.7-.9-5.6.1-9.6-2.9-13.4-6.6-2.2-2.1-4.3-4.4-6.4-6.6-6.1-6.6-7.2-14.3-4.6-22.8.3-.9.6-1.9 1-2.8.8-2 .5-3.5-1.5-4.4-2.8-1.2-4.8-3.7-7.8-4.5-.1-.6-.5-.8-1-1l-.1-.2.2.1.6 1.4zm51.5 61.3c2.4 5 6.5 6.5 13.9 4.4-5-1.7-9.2-3.9-13.9-4.4zm60.1 11.1c-1.9-3.1-4.4-5.5-6.5-8.2-1.2-1.6-2.8-.9-4.5 1.1 4.8.8 6.5 6.1 11 7.1zm25.9 4h7c-2.3-.6-4.7-.6-7 0zm105.5 97.8c2.1 2 2.3 5.2 4.4 7.3l-.1-.1.6 1.1.5-1.1-.1.1c.7.8 1.1 1.9 1 2.9-.4.1-.5.2-.2.3 0 0 .1-.2.1-.3 1 2 1.5 4.2 1.5 6.5 0 1-.7 3.2 1.9 2.8.5-.1.8 1 .7 1.6-.7 4 1.3 7.7.9 11.7-.2 1.8.8 3.1 1.3 4.6 1 3.1 1.4 6.4 1.2 9.7-.5 6.4.8 12.9 3.7 18.6 4.4 8.1 3.4 16 2.3 24.1-.4 2.9 2 5 1.4 7.8-.1.5.9 1.7-.1 2.3-3 1.6-3.1 4.7-3.9 7.5-1.5 5.5-3.3 10.7-7 15.2-1.6 2-3.6 1.7-5 3-.3.4-.9.5-1.3.1-.1-.1-.2-.2-.3-.4-.3-.6 0-1.3.6-1.6h.1c2.3-.9 3.5-2.9 5.1-4.6 3.6-3.8 3-8.5 4.3-13.1-1.7.4-1.7 1.8-2.2 2.7-.7 1.3-.8 1.7-2.7 1.2-2.5-.7-4.9 1.4-7.2 2.7-3.4 1.8-6.8 3.5-10.7 3.7-1 .1-2.4.9-2.9-.6s1.1-1.7 1.9-2.5c1.9-1.9 4.5-2.5 7-2.9 7.4-1.1 10.6-7.1 14.2-12.6.7-1.1.6-1.2.4-4.8-1.7 2.1-2.2 4.3-3.1 6.3-.8 1.5-1.6 1.2-2.4-.1-.9-1.5-.2-3.3-.7-4.8-.9-2.7 1.5-2.3 2.5-3 1.5-1.2 2.6-2.9 2.9-4.9.4-1.9 1.1-3.5 3.4-3.3.4 1.3-.8 2.7.3 4.4.7-1.9.9-3.2-.4-4.4 2.2-1.5 3.1-3.2 2.1-6-.5-1.4-.2-3.2-.2-4.8.7-.6.9-1.7.4-2.5-.7.8-.3 1.7-.3 2.6-1.2-1.7-.9-3.7-.9-5.7.1-4.4-1.3-8.8-3.9-12.2l.1.1c1.1-3.2 1-7.4-.3-9.5-1.8-2.8-1.9-5.6-2.4-8.4-.5-3.4-.4-6.9.3-10.2.2-1.1 1-4.2-2.3-2.3-1.1.6-1.8-.4-2.1-1.4-.3-.8-.4-1.6-.2-2.4 2.6-6-.9-10.7-3.2-15.6-.6-1.3-1.2-2.7-1.8-4l.8-.8zm7.7 105.8c2.5-.7 4.1-2.2 3.9-5.8l-3.9 5.8zm4.1-15.8l-.4-.8c-.2.2-.3.5-.4.7-.1.4-.1.9.5.9.1 0 .2-.5.3-.8zm5.7-2.4l-.2-.6c-.1.1-.2.3-.2.4.1.2.1.4.2.6l.2-.4zm-24.2 26.3c-.1 0-.4 0-.4.1-.1.3.1.4.6.3.1 0 .2-.2.3-.2l-.5-.2zm24-38.6l-.1-.4-.1.3.2.1zm.9 20.8c0-.1.1-.2.1-.4 0 0-.1-.1-.2-.1 0 .1-.1.2-.1.4 0 0 .2 0 .2.1zm-353.6-221l-.1-2 .1-.1a13 13 0 0 1 7.1 4.6c2.9 3.7 6.6 6.5 9.9 9.8 2.4 2.5 6.1 2 9.5 2.2-1.4-2.1-4.1-1.4-5.4-3.3 1.9-1.1 3.5 0 5.1.4 3.4.9 6.8 1.5 10.2 2 7.7 1.1 14.4-1.4 20.7-5.3s13-7.9 17.8-14.3c2.6-3.4 2.9-7.5 5.2-10.8l.1.2-.2-.1c1.9-6.3 1.3-12.8.9-19.2-.1-1.6.7-3.8-1.8-4.5 1.5-4.9-1.3-8.8-2.7-13-.6-1.9-1.6-3.6-1.2-5.6l.1-.1c3.5 2.8 4.4 7.2 5.5 11.1 2.9 10.3 2.9 20.8 1.4 31.4-.6 3.5-1.9 6.9-3.8 9.9-1.6 2.8-3.4 5.5-4.1 8.8l.1-.1-1 1.1.1-.1c-.1.1-.2.3-.2.4.1.3.1.5.2.7l-.1-.1c-1.7 2.9-4.4 5-7.6 5.9v.1c-.5-1.5-1.1-1-1.8-.2l-.3.4c0 .1-.2.2-.1.3.1.2.2.4.3.5l-.1-.1c-5.3 2.5-10.8 4.3-16.3 6.4-5.8 2.2-11.1 1.7-16.7.4-2.4-.7-4.9-1.2-7.4-1.5-7.2-.4-12.8-4.1-17.8-9.1H16c.1-.1.3-.2.3-.3-.1-.3-.2-.5-.3-.8-1.9-2-3.4-4.4-5.7-5.9l.2-.1zm67.6 16.8c1.5-.7 2.6-2 3.1-3.6-1.9.9-3.1 1.7-3 3.6l-.2.1.1-.1zM78 79.8c-1.3.2-2.1-.6-2.9-1.4-5.7-5-11.9-8.2-19.7-8.5-5.7-.3-11.4-.6-16.9 1.2-3.9 1.2-7.5 3.1-11.7 3.5-2.1.2-4 1.4-5.1 3.3l.1-.1c-1.2.2-2.3 1-3 2.1l.1-.1c-.7.3-1 .7 0 1.1-1.8 2.7-4.6 4.5-6.6 6.9-3.3 3.9-6.6 8.1-7.5 12.9-1.1 6.4-1.9 13.1-.6 19.8.4 1.8 1.6 3.5-.7 5.2-1.3 1.1 1 2.1.7 3.8-2.4-.3-3.1-2-2.9-3.9.4-5.5-.5-11.2.9-16.6.3-1 .3-2 .2-3-1.7-7.3 1.4-13.3 4.9-19.2 4.9-8.3 12.4-12.4 21.1-15.4 5.5-2.1 11.2-3.4 17.1-3.9 9.8-.6 19.7-.4 27.9 6.4 2 1.6 3.7 3.6 4.9 5.8l-.3.1zm21.3 309.5c5.6-1.1 11.2-1.1 16.8-1.1 1.5 0 3.2-.3 4.4 1.1h-7.8c2.6.5 5.3 1.4 7.8-.1 4.4-.5 8.5 1.1 12.5 2.3 5.2 1.6 10.4-.6 15.7 1.1 5.3 1.6 10.9 2.1 16.5 1.6 3-.2 4.8.7 6.3 3.4-2.7 2.2-4.9 2.6-8.5.8-3.8-1.9-8.5-2.4-12.9-2.6-6.8-.5-13.5-1.6-20.1-3.3-5.5-1.4-11-1-16.6-1.2-4.7-.3-9.5-.4-14.1-2zm45 4.3l-.3.1.3.1v-.2zm-44.9-4.4c-6-1.1-12.1-2-18.1-3.4-2.5-.7-5.1-.8-7.7-.5.1-.1.5-1.3.7-.6.2.6-.2 0 .4-.2.6-.2 1.3.2 1.6-1.1-7.6 1.1-14.8.4-21.7-3.1l-.1.1c8 .5 16 0 23.9 2.2 2.9.8 6.1 0 8.9 1.3 4 1.9 8.2 2.7 12.4 3.5 1.8.3-.4 1.2-.5 1.8h.2zM31.7 344c-1.8 2.2-4.8 2.3-6.9 4.6 3.2.6 6.2-2.4 9.2.1-5.2-.1-9.8 2.9-15.2 2.4 2.2-2.9 8.1-6.1 12.9-7.1z"/><path class="st1" d="M12 121.8c2.1-4.3 2.3-4.4 9.5-3.2-1.5 4.1-1.7 4.2-9.5 3.2zm22.2-29c-3 .2-5-1.6-6.9-3.4-1.2-.9-1.4-2.7-.5-3.9l.1-.1c1.3-1.5 2.3.3 2.9 1.1 1.4 2.2 5.1 2.6 4.4 6.3zm29.9-8.4c.8-.8 1.6-2.1 2.7-1.1.9.8 1 2.1.3 3 0 0 0 .1-.1.1-1.9 2.2-3.5 5-7.2 6 1-3 1-5.8 3.1-7.8l-.1-.1c.2.3.5.5.8.1l.5-.2zm281 186c-.8-.7-1.4-1.7-1.8-2.8-1.6-4-4.3-7.5-7.7-10l.7-.7c1.1.6 2.3 1.8 3.3 1.6 1.5-.2 2.4 0 3.1 1.3.8 1.7 3 3.1 2.2 5.1-.9 2.2.8 3.3 1 4.9l-.8.6zm-329-168c.4-2.7 1.6-3.9 4.2-2.2 1.7 1.1 5.5 1.4 4.6 3.8-1.1 3.4-4 .2-6 0-1.1 0-2.2-.6-2.8-1.6zm46.7 36.5c.1-1.5.7-2.4 1.9-1.1 1.4 1.8 2.7 3.7 3.9 5.6-3.8 1.1-6.2-.5-7.8-3.4-.4-.6-.9-1.6.3-1.9.5-.1 1.2.4 1.7.8l.2.1-.2-.1zm5.3-38c2.7-2.8 5.9-5 9.4-6.4.2 4-2.1 5.6-9.4 6.4zM4 375.4l.3 11.3c0 1.2.1 2.3-1 3.1-.9.6-1.6-.1-2.2-.5-1.5-1-.1-1.9.1-2.9 1-3.6 2.2-7.1 1.9-11l-.1.1 1-.1zM46.1 77.1c3.1 1.3 2.5 4.1 2.4 6.6 0 .9-.9 1.3-1.7 1.3-.8.2-1.6-.4-1.8-1.3v-.4c-.1-2-.6-4.2 1.1-6.2zm6 62.6c.6 4.6 1.2 8.3-1.2 11.5-1.1-3.6-1.6-7.2 1.2-11.5zm20-24.8c3-2.2 6.2-3.3 10.4-1.6-3.3 2.8-6.5 2.6-9.9 2.1l-.5-.5zm2.2 14.1c.6 0 1.2.1 1.9.2 1.6.4 3.2 1.4 2.6 3.2-.6 1.5-2.4 1.1-3.7.5-1.3-.6-3-1-4.3-2.4.9-1.2 2.7-.4 3.5-1.5zm265.2 198.9c.2-4.7.2-4.7-4.2-4.6-1.6.1-3.1.1-4.7-.2-1.8-.5-3.2-1.6-1.3-3.7l-.1-.1c.2 1.6.8 2.8 2.6 2.8 1.3 0 2.5.1 3.8 0 5.9-.3 6.1.1 4.3 6.1l-.4-.3zM18 136.6c1.6-3.1 3.8-5.3 8.3-5.3-2.4 3.5-5.6 4-8.3 5.3zm66.8-50.9c0 .9.1 2.6-1.3 1.2-1.8-1.7-3.9-3.4-4.4-6.2l2.9 1.9.2.3-.2-.2c3.3-2 3.3 1 3.9 2.9l-.1.1h-1l-.1-.2.1.2zm-47.9 52.6c0 2.8-1.3 5.4-3.4 7.1-.3-3.1 2.1-4.9 3.4-7.1zm289.4 175.1c2.3-.4 4.6.2 6.9-.7.3 2.1-.9 2.8-2.1 3.5l.1.1c-.1-1.1-1-2-2.1-1.9-.9 0-2.1.3-2.8-1zm-184 44.3l-12.4-.1.1.1c4.1-1.1 8.2-1.7 12.3 0zm11.5 3c3-.4 5.7 1.3 8.7.9-2.9 1.5-3.8 1.4-8.7-.9zm125.9 20.7c-1 2.2-2.5 3.9-5.2 5.9 1.1-3.6 1.6-6.2 5.2-5.9zm-9.3-84.5c-2.4 1.8-3.8 4.8-6.7 5.9l-.6-.6c2.3-1.9 3.8-4.7 6.7-5.9l.6.6z"/><path class="st1" d="M269.9 296.3c1.9-2 4.2-3.7 6.6-4.9l.6.6c-1.8 2.3-4.3 3.5-6.7 5l-.5-.7zm59.3 4.2c-2.6 1.4-4.7 1.4-5.3-2.4 1.1 2.7 3.2 2.6 5.3 2.4zm.1.1c.4-.8 1.2-.9 1.8-1.2.7-.3 1.7-1.2 2.2.1.3.8-.1 1.7-.9 2-.1 0-.2.1-.3.1l.1.1c-.7-1.3-1.9-.9-3-1.1h.1zM42.1 337.9c-.6-1.5-2.4-.4-3.3-1.5 1.5-.3 3-.7 4.1.1.9.6.1 1.3-.7 1.7l-.1-.3zm60.2 23.5c2.2-.9 3.7-.6 5.8-.5-2.1.9-3.6.5-5.8.5zm25.1-336.2c1.6-1.5 3.7-2.5 5.8-2.8l.3.5c-1.7 1.3-3.7 2.3-5.7 2.9l-.4-.6zm159.9 349.2c-1.2 1.8-2.5 3.5-4.8 3.9l.1.1c1-1.9 2.7-3.3 4.7-4zM280 288c-.6 1.5-1.6 2.9-2.9 3.9l-.6-.6c.7-1.5 1.6-2.9 2.9-3.9l.6.6zM30.9 338.1c1.2-1 2.8-1.2 4.2-.8-1.4 1.1-3 .3-4.2.8zM116 37.2c.5-1.6 1.5-3 2.9-4l.5.5-2.8 4-.6-.5z"/><path class="st1" d="M123.7 28.3c.9-1.4 2.2-2.5 3.8-3.1l.5.6c-1 1.3-2.3 2.3-3.8 3l-.5-.5zM5 370.5c-.1 1.7.5 3.5-.9 4.9h.1c-.1-1.7-.5-3.5.8-4.9zm321.4-57.1c-.8-1.2-.5-2.9.7-3.7.1-.1.2-.1.3-.2l-.1-.1c.1 1.4-.3 2.8-.9 4zm-211.2 48.7c-.5.5-1.4.4-1.5.2-.5-1.1.5-.3.7-.5.3-.1.5.2.8.3zm44.4-6.9c.7-.7 1.9-.7 2.6 0-.8.7-1.9.7-2.6 0zm154.1-176.1l2.8-2.9.7.6-.4 1.7.1-.1c-.6 0-1 .5-1 1.1v-.1l-1.6.4-.6-.7zM20.5 339.4c.7-.4 1.5-.4 2.2 0-.6.6-1.6.6-2.2 0zm194.3 42c1.2-.1 2.4.4 3.1 1.5-1.4-.3-2.4-.6-3.1-1.5zm-160.1-1.1c-1.6 0-3.4.5-4.8-1l-.1.1c1.7.1 3.4-.3 4.9.9zM30.8 338c-1 .5-2.1 1.2-3.7.3l3.7-.3z"/><path class="st1" d="M49.9 379.3c-1.7 0-3.4.4-4.9-.9l-.1.1c1.7 0 3.5-.4 5 .8zm106.8-5.8c1.1.2 2.2-.2 2.9-1.1l-.1.1c.3.5.7 1.2 0 1.6-1 .7-2 .1-2.8-.7v.1zM8.5 140.8c-.7-.4-1-1.3-.7-2 .1-.1.4-.1.7-.2v2.2zm13.3-63c.4.3 1.3.3.9 1.1s-1.1.8-1.9.8v.1l1-2zM74.3 129c-.9.1-1.8-.3-2.2-1.2l.2-.3c1 0 1.7.6 2 1.5zm68 228.8c1.3.1 2.8-.4 3.8 1l.1-.1c-1.4 0-2.8.2-3.9-.9zm-1.2-341.1c1-1.3 2.5-1 3.8-1v-.1c-1.1.9-2.5 1.3-3.8 1.1z"/><path class="st1" d="M149.9 359.7c-1.4 0-2.8.3-3.8-1l-.1.1c1.4 0 2.9-.5 3.9.9zm0 0c1.4-.1 2.8-.4 3.9 1l.1-.1c-1.4.1-2.9.4-4-.9zm-144 6.8c-.1 1.4.2 2.9-1 4H5c.1-1.4-.2-2.8.9-4zm150.8 4c1.2.1 2.3.8 2.8 2l.1-.1c-1.3 0-2.4-.8-2.9-1.9zM39.4 340c.4-1.2 1.5-2 2.8-2.1l.2.2c-.7 1.2-1.8 1.9-3 1.9zm117.3 33.4l-3.5-.2c1.9-.8 2.7-.3 3.5.2zm175.4-71.9c0 1.3-.8 2.4-1.9 3 0-1.3.8-2.5 1.9-3zm-.1-38.3c.3.4.5.8.7 1.2 0 .1-.1.2-.2.4-.6-.4-.1-1.1-.5-1.6zM139 17.6c-.7.9-1.8.9-2.8 1.1l.1.1c.8-.7 1.8-1.1 2.7-1.2zm-7.4 3.1c.7-1.1 1.7-1 2.8-1l-.1-.1c-.7.8-1.7 1.2-2.7 1.1zm199.6 239.4c.8.8 1.1 2 .9 3.1l.1-.1c-.8-.7-1.2-1.9-1-3zm-5.7 14.9c.4-.2.7-.5 1.1-.7.1 0 .2.1.3.2-.3.6-.9.2-1.4.5zm4.7 5.9l.3-1.8c.1.1.3.1.4.2.1.6-.2 1.2-.7 1.6zm-4.7 11.8c-.1-1.1.3-2.1 1-2.9l-.1-.1c0 1.1 0 2.2-.9 3zm-187.1 69.6c-.1 0-.3.2-.4.1-.5-.1-.5-.3-.1-.5.1-.1.3-.1.4 0 .1.1.1.2.1.4zm-17.6 1.1l-.4-.3c.1-.1.3-.2.4-.2.1 0 .2.2.4.3l-.4.2zm4.8.5l.4.2c-.1.1-.3.2-.4.2-.1 0-.3-.1-.4-.2l.4-.2zM91.4 139.8c0 1.1-.9 1.9-2 1.8l.1.1c.6-.7 1.1-1.5 1.9-1.9zm46.1 227.8l-1.7-.4c.1-.1.1-.3.2-.4.7-.1 1.1.3 1.5.8z"/><path class="st1" d="M140.4 368.5c-1 .1-2.1-.2-2.9-1l-.1.1c1.1 0 2.2-.1 3 .9zm-.1.1c1-.1 2.1.2 2.9 1l.1-.1c-1.1.1-2.1-.3-3-.9zm206.2 1c-.3.3-.5.3-.7-.1 0-.1 0-.3.1-.4.2-.3.5-.3.7.1.2.1 0 .3-.1.4zm-21.1-76.9l-.2 1.9c-.1-.1-.4-.1-.4-.2-.2-.7.1-1.4.6-1.7zM150 371.9c.1-.1.3-.2.4-.2.4 0 .5.2.3.5-.1.1-.3 0-.4 0-.2 0-.2-.2-.3-.3zm64.9 9.4c-.5-.1-1.2.2-1.6-.4.1-.1.3-.2.4-.2l1.2.6zm112.5-93.5c-.2-1.1.1-2.2 1-2.9l-.1-.1c.1 1.1.1 2.2-.9 3zm-198 77.5l-.3-.2c.1-.1.3-.2.4-.1.1 0 .2.1.3.2l-.4.1zm198.9-108.1c.1.8 0 1.6-.9 2l.1.1c-.2-.9.2-1.7.8-2.1zm1 25.6c0-.8.4-1.5 1-2l-.1-.1c0 .9-.2 1.7-.9 2.1zm19.1-12.9c-.6-.4-1-1.1-1-1.9l-.1.1c.8.4.9 1.2 1.1 1.8zm-19.2 12.8c-.1.8 0 1.7-.9 2.1l.1.1c0-.8.3-1.6.8-2.2zm-1.9 5c0 .8 0 1.6-.9 2l.1.1c-.1-.8 0-1.6.8-2.1zM92.7 164.6c-.5.6-1.2 1-2 1l.1.1c0-.3-.1-.5-.2-.8l.3-.4 1.8.1zM314 302.5c.1-.3.1-.6.2-.8.2-.2.5 0 .3.3 0 .4-.3.3-.5.5zm0 0c.2.8-.2 1.6-.9 2.1l-.1-.1c0-.9.4-1.6 1-2zm15.2 3c0 .8 0 1.7-1 2l.1.1c0-.9.3-1.7.9-2.1zM20.9 79.7c-.3.8-1.1 1.2-1.9 1v-1.1l-.1.1h2z"/><path class="st1" d="M328.3 307.4c.1.8-.3 1.6-.9 2l.1.1c-.2-.8.1-1.6.8-2.1zM63.8 82.7l.2-.8c.4.5-.2.5-.2.8zm75.3-65c.5-.6 1.2-1 2-.9l-.1-.1c-.5.6-1.3 1-2 1h.1zM63.7 82.6l.3 1.8-.4.3c-.3-.1-.6-.1-.8-.1l.1.1c-.1-.8.3-1.6.8-2.1zm265.6 236.8c0-.8 0-1.6.9-2l-.1-.1c.1.9 0 1.6-.8 2.1zM134.4 19.7c.5-.8 1.2-.8 2-1l-.1-.1c-.5.6-1.2 1-1.9 1.1zm-44.9 122c-.1.8-.1 1.6-.9 2l.1.1.8-2.1zM348.3 270c.6.5.9 1.2 1 2l.1-.1c-.6-.5-1-1.2-1.1-1.9zM131.5 20.6c-.4.7-1.2.8-1.9 1.1l.1.1c.4-.7 1.1-1.1 1.8-1.2zm225.4 303.5l-.2.9c-.6-.5.2-.5.2-.9zm-12.3 6l1.1-.7c.1 1.3-.8.4-1.1.7zm-19.1-55.2c-.4.8-1.2.8-1.9 1l1.9-1zM129.6 21.6l-2 .9.1.1c.5-.7 1.3-.8 1.9-1zM91.5 139.9l.2-.9c.7.5-.2.6-.2.9zM349.3 272l.5.8c-.7 0-.2-.7-.5-.8zM121.1 27.5l1.9-.9-.1-.1-1.8 1zM39.3 340c-.4.7-1.1 1.1-1.9 1 .3-1 1.1-1.1 1.9-1zm-3.8 1.9c.4-1 1.1-1.1 1.9-.9-.3.9-1 1.1-1.9 1.1v-.2zM350.3 277c.2-.3 0-1 .6-.9.1 0 .2.6.3.9l.1-.1-1 .1zM33.6 342.9c.3-1.1 1.1-1.1 1.9-1-.3 1-1.1 1.1-1.9 1zm0 0c-.4.7-1.1 1.1-1.9 1 .2-1.1 1-1.1 1.9-1.1v.1zM16.2 102.3c-.3 0-.6 0-.8-.1s-.2-.5.2-.4.3.4.6.5zm125.4 260.9c-.1.1-.2.2-.4.1-.1 0-.2-.1-.3-.2.1-.2.4-.2.5-.1.2.1.2.1.2.2zm3.6 1.4l-.8-.3c.4-.3.4.3.8.3zm1.9 1l-1.9-1-.1.1 2 .9zm-14.3.6v-.2l.3.1-.3.1zm14.2-.5l1.9 1 .1-.1-2-.9zm3.9 1.9l-1.9-1-.1.1c.7.1 1.5.1 2 .9z"/><path class="st1" d="M152.8 368.5c-.7-.1-1.4-.4-1.9-1l-.1.1c.8.1 1.6 0 2 .9zm1.9 1l-1.9-1-.1.1c.8 0 1.5.4 2 .9zm-11.5.1l.8.2c-.4.4-.5-.2-.8-.2zm11.4 0c.8 0 1.5.4 2.1.9l.1-.1c-.8.1-1.6-.2-2.2-.8zm-7.4 1.3v.3l-.3-.1.3-.2zm188.7-120.6l.2.1-.2-.1zm-8.6 8.9l-.1.3.1-.3zm19.1 7.8l-.2-.2.2.2zm0 .1l1 1.1.1-.1-1.1-1zM334 269l-.2-.1.2.1zm0 0zm-10.5 6.9l-.1.1.1-.1zm-3.8 3l-.1.2.1-.2zm-38.1 9.8l-.2.4c-.2-.2-.2-.2.2-.4zm-78.2 3l.8-1.2.3.4c-.2.5-.6.8-1.1.8zM127.7 22.6l-.2.2.2-.2zm-2.8 2l.2-.3-.2.3zm-.1-.1l-.9 1 .1.1.8-1.1zm-.9 1l-1 1.1.1.1.9-1.2zm205.4 280c.1-.6.3-1 1-1-.1.7-.4 1-1 1zM121 27.4l-1 1v.1l1-1.1zM16.1 161.7v-1.1 1.1zM120 28.4zm2.6.8l1-.9.4.5-1 .9-.4-.5z"/><path class="st1" d="M121.7 30.1l1-.9.5.5-1 1-.5-.6zm-3.5 1.4l.1-.2-.1.2zm2.5-.3l.9-1.1.5.6-.9 1.1-.5-.6zm-3.4 1.2l1-1-.1-.1-.9 1.1zm2.5-.2l.9-1 .5.6-.9 1-.5-.6zm-3.5 1.2l1-1-.1-.1-.9 1.1zM84.7 157.7c0 .5-.4 1-1 1l.1.1v-1.1l-.1.1 1-.1z"/><path class="st1" d="M118.9 33.2l.9-1.1.6.6-.9 1.1-.6-.6zm-2.6.2zM85.7 156.7l-.9 1h.1v-1.1l-.1.1h.9zm0-9.9l1-1-.1-.1c0 .6-.4 1-.9 1.1zm245.4 169.5c-.1.5-.5.9-1 1l.1.1c.1-.6.5-1 .9-1.1zM86.7 145.8l1-1-.1-.1-.9 1.1zm-76.3-1h-1 1z"/><path class="st1" d="M88.6 143.7l-1 1.1.1.1.9-1.2zm-79.1 1.1l-.1-.1.1.1zm.9-2c-.5 0-.9-.5-.9-1l-.1.1c.5-.1 1 .3 1 .8v.1zm-2-1l-.1.2.1-.2zm0-1c.5.1.9.5 1 1l.1-.1h-1l.1.1c-.1-.3-.1-.7-.2-1zM253 327.2l.2-.3-.2.3zm90.6 3.9l1-1-.1-.1-.9 1.1zm-213.8 26.5v1.1h.1l-.1-1.1zm.1 1.1zM78.3 79.6l.8 1.1c-.5-.1-.9-.4-1-.9l.2-.2zm11.3 24.7l-.1.1.1-.1zm202.5 265.2l-1 1 .1.1.9-1.1zm21.9 1.1l.1-.2-.1.2zM72.7 115.5c-.6.2-.8.1-.6-.6l.6.6zm218.4 255l-1 1.1.1.1.9-1.2z"/><path class="st1" d="M289.3 372.5c0-.5.4-1 .9-1l-.1-.1c.1.6-.3 1-.8 1.1-.1 0-.1 0 0 0z"/><path class="st1" d="M288.3 373.5l1-1v-.1l-1 1.1zm-1 1c0-.5.4-1 1-1l-.1-.1c0 .6-.4 1-.9 1.1zm-263.3 0l.1.1-.1-.1zm258.5 3.9c0 .6-.4 1-.9 1.1.1-.6.5-.9.9-1.1z"/><path class="st1" d="M281.6 379.4c.1.5-.2 1-.7 1.1h-.2l-.1-.1c0-.5.4-1 1-1zm-2 2c.1-.5.5-.9 1-1-.1.5-.4.9-1 1zm36.9-278.1c-1.8-.3-3.8-.3-5.7 0-.2-.7-.8-1.1-1.4-.9-3 1.2-6.1.5-9.1.9 2 2.4 4.8.4 7.1 1.5-2.1 1.1-4.5-.2-6.7 1 1.9 1.2 4 0 5.9 1.1-4.2 1.5-8.1-.6-12.1-.5l.1-.1c-3.8 1.5-7.8.8-11.7.7-6-.3-12-.2-18 .3-2.7.3-5.4 0-8-.7l5.5-.4v-.7h-8.5c-10.9 0-21.8-.6-32.7-1.8-6.2-.7-12.3.6-18.4 1.1-7.8.7-15.7 1.1-23.6 1.6.3-2.8 3.1-3.6 2.9-6-2.1.9-3 3-4.6 4.4-1 .9-1.8 1.8-3.1.5-1 .2-2.4 1.3-2.4-.7-.2-4.9-.2-9.8-.3-14.7 0-.4 0-.7.2-1.1 0-1.3 0-2.6-.1-3.9-.4-2.7-.6-5.4-.6-8.1 0-.2.1-.4.2-.6-.5-11.2-1.5-22.4.1-33.5.4-1.8.1-3.7-.7-5.3-1.1 2.1-2.9 2.8-2.7 5.3.6 11.8 1.7 23.7.1 35.5-.4 3.2.6 6.5 1 9.7.8 5.1-.3 10.4.1 15.7.1 1.2-.1 2.5-1.5 2.7-2.6.2-5.4.7-8-.3-.6-.2-.8-1.4-1.8-.7-2.8 2-6.1 1.5-9.2 1.6-1.6 0-3.1-.1-4.6 1.5 6.3.6 12.3-.2 18.2.9 2.3.4 5.2-2.1 6.6.4 1 1.9.4 4.8.5 7.2v5.4c0 2.1-.3 4.2 1.3 7.4.1-3.4 3.2-2.3 3.4-4.3.1-1.7-.1-4-1.1-5.1-3.1-3.5-1.1-7-.8-10.6.1-1.3 1.3-1.1 2.2-.4l-.1-.1c1.8-1.1 3.8-1.7 5.9-1.7 16.7-.2 33.3-2 50-1.2 4.4.2 8.9-.3 13.3.3 10.4 1.4 20.9 2 31.3 1.8 14.6-.1 29.2-.1 43.8-1.1 2.5-.2 5 .8 7.6.1 2.7-.7 3-.8 3.6-3.6-6 3.8-9.6 3.6-13.4-.5zm-101.4 1.4c1.9-.5 3.8-.5 5.7.2-1.9.5-3.9.5-5.7-.2zm95.7 1.1c1.3-.6 2.8-.6 4.1 0-1.8.5-2.9.8-4.1 0z"/><path class="st1" d="M290.8 80.3c-4.3-3.5-4.4-3-9.7-3.6-7.6-.9-15-2.6-23.3-4.1l.1-.1c-.8-.2-1.5-.6-2.1-1.2-.7-.1-1.4-.7-1.9-2.5-.4-1.4-2.2-1.8-3.7-1.6-1.1.2-2.2.1-3.2-.3-1.7 2.4-1.3 5-.7 7.6.2 1 1 .9 1.7.2l3.4-.7.4-.1.9-.2v.1c1.4-.1 2.8 0 4.1.2.9-.2 1.9-.1 2.8.1 6.3 1.3 12.7 2.5 19.1 3.6 1.6.3 3.1.4 3.6 2.5.7 3 3.7 2.7 4.9 1.8 2.2-1.5 3.4-.4 4.8.8l5.3 4.1.7-.8c-2.2-2.1-4.6-4-7.2-5.8zm-7-.4c-.1 0-.2-.1-.3-.1-.2-.3-.1-.5.3-.6.1 0 .2.1.4.1l-.4.6zm-92.2 3.8c.2-1.8 2.9-3.2.4-5.6-.8-.8 3.8-4.4 5.8-3.7 5.4 1.8 9.5.1 12.8-4.3 1.6-2.1 4 .3 5.7-1.2h-.1l1 1.1c.2 1.5-.8 2.7-.7 4.3.1 2.7-2 4-3.7 2.1-2-2.2-3.5-1.1-5.4-.7-6 1.4-10.6 5.1-15 9.2l-.8-1.2zm23.7-8.9l-.3-.8-.9.9c-.2.3 0 .6.4.7.4.1.8-.1.9-.5-.1-.2-.1-.3-.1-.3zm-31.5 54.7c1.2-3 3.7-4.7 5.9-6.8 2.2-2.1 4.7-3.9 6.6-6.3 2.1-2.5 4.3-3.1 7.7-2.6-2.6 3.6-6 5.7-8.5 8.8-3.1 3.9-7.9 4.3-11.7 6.9zm38.5-15.4c-4.9 6-11 10.8-18 14 2-5.4 9.5-11.4 18-14zm18.3-.6c.3.9-.1 1.9-.9 2.4-4.2 3.2-8.1 6.8-11.8 10.7-.7.8-1.6 2.1-2.7.9-.9-.9-.4-2.1.4-3.1 2.7-3.4 6.3-5.9 8.9-9.5.7-.9 4-1.6 6.1-1.4z"/><path class="st1" d="M297.8 86.2c4.9 3.8 10.3 6.9 14.9 11.1 1.8 1.7 3.8 3.6 6.5 1.3.8-.7 1.9-.7 2.6.1.1.1.2.2.3.4.5 1.1.1 2.4-.8 3-1.2 1.3-3.1 1.8-4.8 1.2l.1.1c-1.3-1.7-2.8-3.3-4.5-4.8-4.6-4.4-10.6-7-14.9-11.7l.6-.7zm-69.9-43.9c1.5-1.7 3.9-.8 5.7-2.1 1-.7 2.4-1.5 3.4-.1 1.1 1.3 1 3.3-.3 4.4-1.5 1-2 3-1.3 4.6h.1c-.7-.1-1.4-.4-2-1-1.4-1.3-1.7-.2-1.9 1-1.7.3-2.3 2.2-3.7 3l-.3-.3c.5-2 2.6-3.4 2.2-5.7 1.8-.2 2-1.5 1.6-2.8-.5-1.9-2.6 0-3.5-1zm36.4 83.8c3.6-5.6 8.8-9.8 14.9-12.1-3.7 5.7-8 10.6-14.9 12.1zm-4.4-11c-4.3 4.3-8.6 8.7-13 13-.7.6-1.7.9-3.1-.5 4.6-5 9.7-9.5 15.3-13.4l.8.9zm43.5-2.5c-4 3.6-8.2 7-12.6 10.1-.4.3-.9.3-1.3-.1-.4-.3-.5-.9-.2-1.3 1.2-2.6 10.4-8.6 14.1-8.7zM154.7 98.1c-.2-1.6 1.6-1.3 1.7-2.1.3-2.6 2.3-1.4 3.3-1.3 2.2.3.1 1.4.2 2 .2 1.3 2.2 0 2.9 1.5-2.9 2.1-5.5 1.4-8.1-.1zm4.2-56.4c-2.4 2.1-5 1.8-7.6 1.6-.7 0-1.2-.5-1.2-1.2.1-.7.6-1.2 1.2-1.3 2.5-.5 5.1-1.5 7.6.9zm-8.1 27.6c3.5-3.5 5.6-3.9 10-1.8-3.7.4-6.2 3.8-10 1.8zm8.8 8.3c-1.7 1.8-4.1 2-5.9 3.7-.5.4-1.2.4-1.6-.1l-.1-.1c-.5-.6-.1-1.2.3-1.7 1.9-2.9 4.8-1.4 7.3-1.8zM161 88c-3 2.1-5.2 1.9-7.7-.3 2.8-1.3 4.9-.9 7.7.3zm-9.8-39.2c2.7-2.3 5.7-1.7 9.3-1.7-3.2 2.5-6.1 2.2-9.3 1.7zm.2 8.7c1.8-1.4 4.1-2.3 6.4-2.5-.5 3.8-.5 3.8-6.4 2.5zm85.9-4.3l5.1 8.5-.5.5c-2.2-2.7-5.1-5-4.6-9zm-109.7 85.7v-1.1c2.5.2 4.9 1.2 6.8 3h-2.9c-1-1.1-2.4-1.9-3.9-1.9zm97.2-83c.5-1.6 1.5-3 2.8-4l.3.3c-.5 1.6-1.5 3-2.9 3.9l-.2-.2z"/><path class="st1" d="M242.5 61.7c1 .9 2.2 1.7 2.6 3.2l-1 1-2.1-3.8.5-.4zM222.1 60c.3-1.7 1.3-3.1 2.7-4.1l.3.3c-.4 1.7-1.5 3.1-3 3.8zm-2 2.9c.1-1.3.9-2.4 2-2.9 0 1.3-.7 2.5-1.8 3.1l-.2-.2zm-1.8 3.1c.1-1.2.8-2.4 1.8-3l.2.2c-.2 1.2-.6 2.3-2 2.8zm8.5-22.7c.2.5.6 1.1 0 1.6-.1.1-.3 0-.4-.1-.4-.7 0-1.1.5-1.5h-.1zm37.6 122.3v1.1h-2c.5-.7 1.3-1.1 2-1.1zm-9.8-2.9h-2c.5-.6 1.2-1 2-1.1v1.1zm2.8-2h-2c.5-.7 1.2-1.1 2-1.1.1.4 0 .7 0 1.1zm2.9-3v1.1h-2c.5-.7 1.2-1.1 2-1.1zM235.4 49.2c.9.4.9 1.2.9 2h.1c-.5-.5-.9-1.2-1-2zm1 2c1 .3.9 1.2 1 2l.1-.1-1 .1v-2h-.1z"/><path class="st1" d="M217.4 67.9c-.1-.9.1-1.6 1-2h-.1c.2.9-.2 1.7-.9 2zm51.8 95.8h-1l1-1.1v1.1zm-13.7-3.1c0 .6-.5 1-1 1.1 0-.6.5-1.1 1-1.1zm2.9-1.9c-.1.5-.5.9-1 1.1.1-.6.5-1 1-1.1zM227.8 42.2c.1.5-.3.9-.7 1h-.2l.1.1c0-.5.4-1 1-1l-.2-.1zm89.7 3.1c0-.5.4-.9.8-1.1l.1.1-.9 1zM245 65c.5.1.9.5.9 1.1l.1-.1-1 .1V65z"/><path class="st1" d="M245.9 66c.5 0 .9.4 1 .9v.1l.1-.1c-.6-.1-.9-.5-1.1-.9zm-29.5 2.9c.1-.6.4-1 1-1h-.1l.1 1.1-1-.1zm-25.7 15.8c.1-.5.5-.9.9-1v1.1l-.9-.1zm-17.3 25.6l-.4.4c0-.1 0-.2.1-.3.1 0 .3-.1.3-.1zm.1 0l1-1-.1-.1-.9 1.1zM90.9 283.8c-.7.6-1.2 1.9-2.2 1.7-6.5-1.6-12.6 1.3-18.9 1.3 1.9-1.9 4.3-1.6 6.6-2 1.7-.2 3.5.1 5.4-1.5-2.2-.4-3.9-2.2-4.3-4.5 1.3-.1 2.7.1 3.8-1l-.1-.1c2.3 1.1 4.5 1.8 6.6-.8.9-1.1 2.2.1 3.1.9l-.2.1.1-.1 1.5-1.3.7.7c1.3 3-1.7 4.4-2.1 6.6zM68 287.7c-2.5 3.6-6.7 5-9.6 8 1.3-5.2 5-7.1 9.6-8zm-21-7.9l-2.9-2 .1-2.1-.1.1c1.2 1.1 2.5 2.2 2.9 4zm14.3-6.8c.1-.8-.4-1.7.3-2.4.5.7.4 1.7-.2 2.3-.1 0-.1 0-.1.1zm-.1-.1v2l.1-.1c-.7-.3-1.5-.6-1.2-1.6.1-.3.7-.4 1.1-.3zm1-14.7l.6-.5c.1.7-.5.2-.6.5z"/><path class="st1" d="M69.9 286.7c-.3 1.1-1.1 1.1-2 1.1.3-.8 1.2-1.2 2-1.1zm-25.7-10.8l-1-.3c.1 0 .2-.1.3-.1.2.1.4.3.7.4zm14.2 19.7c-.1.8-.4 1.6-1 2.1 0-.9.4-1.6 1-2.1zm3.8-18.7c-.6-.5-.9-1.2-.9-2l-.1.1c1 .3.9 1.2 1 1.9zm-.1.1l.2.1-.2-.1zm-18 .9l-.1.1.1-.1zm13.4 19.7l-1 1.1 1-1.1zm-1 1c0 .6-.5 1-1 1.1.1-.6.5-1 1-1.1zm-15.2 2h-1v-1.1l1 1.1zm14.3-1.1l-1 1.1 1-1.1zm-2 2.1v-1.1h1c-.1.5-.5 1-1 1.1zm-7.6 2h-1l1-1.1v1.1zm106.8-66c.3 1.8-1 3-1.4 4.6-.6 2.5-2.2 3.3-4.6 3.2-3-.1-6-.1-9 0-3.2.1-5.7-1.3-6.6-4.5-.5-1.9-2.3-3.2-2.2-5.3 2.4.6 3 2.7 3.6 4.7.5 2.1 2.5 3.5 4.6 3.2 1.9-.1 3.8-.1 5.6 0 4.1.4 7.5 0 8.5-5 .3-.8.9-1.1 1.5-.9zm-21.9-48.4c.4-1.4 1.9-2.2 3.3-1.7 0 0 .1 0 .1.1 1.4.3 2.8.5 4.1.7l.2.2-.2-.2c.2-.7.9-1.3 1.4-.9 2.2 2.1 5.2 2.1 7.8 2.8 3.6.9 2.2 1.5.2 2.6-.1.1.1.9.2 1.4l-.1.1c-1.9-.4-3.7-1.5-4.8-3.1h2.1l.1.2-.2-.2c-.6-1-1.3-.3-1.9 0-3.9-1.6-8.4.1-12.3-2z"/><path class="st1" d="M140.5 234.6c-.4-.1-1-.1-1.3-.4-1.5-1.3-4.2-2.6-3.2-4.8 1-2.2 3.4-.2 5 .2 4.9 1.1 4.9 1.2 11.8-.8-2.2 2.9-5.1 4.6-6.8 7.4-.9 1.3-4.2.8-5.5-1.6 2.3.5 5 2.1 5.6-2.4l-9-2.1c.9 2.1 2.8 2.7 3.4 4.5zm1.1-28c-4.4 1.1-8.3-.3-12.5 1.5 2.7-4.6 8.2-5.2 12.5-1.5zm7.7 1.5c3.7-2 7.2-2.1 11.4.7-4.5 1.2-8 .2-11.4-.7zm-19.4-17.9c.2 5 0 9.9-4.5 14.3-.3-3.7 2.1-5.1 2.7-7.4.6-2.2 0-4.9 1.8-6.9zm13.4 34.4c4.7 0 4.7 0 4.5-7 1.4 2.7 3.3 4.4 1.4 6.8-1.9 2.4-3.9 2.6-6 .4l.1-.2zm-10.1-12.7c.7-.5.9-.9 1.2-.9 1.8-.1 3.7-.9 5.3.8.3.3.3.8 0 1.1 0 0-.1.1-.2.1-2.2 1.2-4.1.9-6.3-1.1zm21.7 1.9c0 1.1-.8 1.2-1.5 1.2-1.4 0-2.9.2-3.2-1.8-.1-1 .6-1.4 1.4-1.4 1.4-.3 2.8.6 3.3 2z"/><path class="st1" d="M143.2 224.9c-2.5 0-3.1-1.8-3.9-4 2.8.1 2.3 3.1 4.1 3.8l-.2.2zm-16.1 8.7c-1.4.1-2-.6-1.9-2 1-.1 1.9.7 1.9 1.8v.2zm20.3-17.9h.3l-.1.3-.2-.3zm-16.5-26.5l-1 1.1.1.1.9-1.2zm5.7 33.5l-.9 1 .1.1.8-1.1zm0 .1c0-.1.1-.2.2-.4.3.1.2.2-.2.4z"/><path class="st1" d="M128 234.6c-.7 0-1-.3-1-1 .7-.1 1 .3 1 1zm1 .9c-.7.1-1.1-.2-.9-1 .7-.1 1 .3.9 1zm6.6-11.8c-.1.1-.1.3-.2.4-.3-.1-.2-.2.2-.4zm-47.7 28.6c-.4.3-1.7.4-.6 1.2 3.6 2.5 7 2.1 10.2-.8.7-.6 1.4-1.3 2.2-2.1.1 2.6-.6 3.6-3 5-.8.5-1.8.7-2.7.7-1.3 0-2 .5-2 2 0 2.5 1.9.6 2.7 1.5-.9 1.5-2 1.5-3.5 1.1-2.6-.7-4.2-2.7-5.9-4.6l-.3-.3c1.1-2.5-.5-4.6-1.6-7.6 1.8 1 3.3 2.2 4.7 3.8l-.2.1zm1.3 4.2c-.8.1-1 .6-.9 1.4.1.4.3.5.7.4.6-.2 1-.8 1-1.5-.2-.2-.5-.2-.8-.3zm-1.3-13c4 .6 7.8 2 12.3 2.1-2.3 5.2-6.1 2.1-9 2.5-3.3.4-3-2.5-3.2-4.7l-.1.1zm22 9.8v1.1c-1.4-.1-2.7.2-3.9.9l.1.1c-.1-2.9-1.2-5.5-1.1-8.5.1-2.4-1.8-4-3.7-5.3 3-1.4 4 1.6 5.8 2.9.1 1.7.1 3.4.2 5.2.1 1.5.5 3.3 2.6 3.6zm-17.5 23.3l4.5-9.5c.4 4.1-1.9 7-3.8 10.1l-.7-.6zM87 238.5c.6-2.1 2.1-2 3.7-1.6 1.3.5 2.7.7 4 .6l-.1-.1v2c-2.6-.2-5-1.2-7.6-.9z"/><path class="st1" d="M90.9 252.3c1.3-1.5 2.8-1.6 4.7-1.4-1.4 2.5-2.5 5-4.7 1.4zm-9.6 1c.2-.9 1-1.6 1.5-1.1.9 1 .7 2.3-.6 3.1l.1.1c-.2-.7-.2-1.5-1-2v-.1z"/><path class="st1" d="M84.3 257.3c-.8 1.1-1.8 1.4-2.7.3-.6-.8-.2-1.8.7-2.4l-.1-.1c.3 1 .5 1.9 1.8 1.8l.3.4zm17.9 2.8c-.2.7-.1 1.6-1.1 1.9-.1-1 .8-1.2 1.1-1.9zm-4.7-18.7h3.9c-1.3 1.6-2.6 1.6-3.9 0zm4.8 18.8c.3-1 1.2-1.4 1.9-1.9l-.1-.1c-.1 1.1-.5 2-1.8 2zm-21.1 17.7l1.6-.7c-.2 1.3-1.1.3-1.6.7zm9.6-25.6c-.9 1.3-1.9 1.4-2.9.1l.1-.1h2.8zm-11.4-2.9l-1-1.1c.2-.8.8-1.1 1.3-.5.5.6.3 1.2-.3 1.6zm13.4 36.4c-1.2-.1-2.1-.6-2-2 1 .1 1.9.9 2 2z"/><path class="st1" d="M78.4 249.3h1c-.1 1.1 0 2.3-1 3.1v-3.1zm16.3-9.7c.7.2 1.5 0 1.9 1-.7 0-1.5-.4-1.9-1zm-9 6.6l-.1.3-.1-.3h.2zm20.3 9c0 .8.2 1.7-.8 2.2l-.2-.2c.1-.8.5-1.5 1-2z"/><path class="st1" d="M96.5 240.4c.6 0 1 .5 1 1.1-.5-.1-.9-.5-1-1.1zM84 257l1-1 .3.3-1 1-.3-.3zm21.3.4c-.2.5-.6.8-1.1.8l.1.1.9-1.1.1.2zm-5.8 30.2l-.2-.1.2.1zm-.1.1v1.1l.1.1-.1-1.2zm-21.8 12c-.1 1.4-.8 2.9-1.9 3.1-2.1.3-2.5 2.1-3.6 3.3-2.1-1-1.8-2.9-2.7-4.2-1.2.7-.2 2.1-1.2 3-.1-2.3-.5-4.5.5-7 2.2 1.1 1.7 3.6 3 5 2-1.4-.1-4.1 1.5-5.6 1.1.1 1 1.1 1.1 1.8.8 3.8 1.9.8 2.9.2l.4.4z"/><path class="st1" d="M79.6 294.9c-.1 1.8-.9 3.5-2 4.8l-.4-.3c.3-1.8 1-3.4 1.9-4.9l.5.4zm-13 17.6l.5-.5c.1.2.3.4.4.6l-.2.3c-.3-.1-.5-.3-.7-.4zm.4-16.9l1.9-1c-.4.9-1.2.8-1.9 1zm-18.1 24.7c-.2-.2-.4-.5-.5-.7 0-.1.1-.2.1-.3l.4 1zM26 326.2l.6-.5c.1.6-.5.2-.6.5zm41-30.6l-.1.2.1-.2zm-44.9 20.7l.1.1-.1-.1zm86.8-95.6c1 1.8 1.5 3.4-1.6 3.2-2.7 0-5.3-1-7.3-2.8 3.4-1 6.2.2 8.9-.4zM95 236.2c.6.2 1.2.4 1.8.4 3.7-.1 4.3-.8 3.7-4.3 2 .2 2.1 1.8 2.1 3.2 0 1.6-1.3 2.1-2.5 2.5-1.8.6-3.8.4-5.5-.6l.1.1c-.2-.2-.3-.4-.4-.7l.7-.6zm10.3-7.5l-1.5-.2c-1.5-.2-3.1-.6-2.4-2.7.6-1.8 1.9-1.1 3.1-.6.4.2.9.2 1.3.5.8.4 1.9.8 1.6 2-.1 1.3-1.2 1-2.1 1zm-12.1-9.3c-3.5 1.1-6.9.5-10.4.3 2.9-2.6 7.3-2.8 10.4-.3zm-5.2 6.5c-1.2-.3-3.2.6-3.3-1.6-.1-1.7 1.5-1.9 2.9-1.7 1.3.1 3.3-.2 3.4 1.8s-1.7 1.4-3 1.5zm5.4 10c-1.1-.3-2.7.1-2.6-1.9 0-1 .6-1.9 1.4-2.3.8-.3 1.5.4 2 .9.8.8-.8 1.6-.2 2.5l-.6.8zm14.6 3.5c-.1 1.7.8 3.7-1 5 .1-1.7-.7-3.6 1-5z"/><path class="st1" d="M94.4 236.8l-1-1 .7-.7.9 1.1-.6.6zm27.9 56.8c.6 2 .7 4.2.4 6.3-.2 1.1-.7 2-1.8 1.8-1-.2-1.6-1.2-1.3-2.3.5-2 .2-4.6 2.7-5.8zm-10.4-40.3h-2c0-.5-1-1.3-.1-1.5s1.7.5 2.1 1.5zm51.4 35.5c.2-.2.3-.5.6-.6.2-.1.5.2.2.4-.3.1-.6.1-.8.2zm77.3 31.5c-.8-.1-1.5-.4-2-1.1.8.2 1.6.2 2 1.1zm2.9.9v1.1h-2v-1.1h2z"/><path class="st1" d="M238.7 319.4c-.5-.1-.9-.5-1-1.1.5.1.9.5 1 1.1zm2.9 1.9c-.6 0-1-.5-1-1.1.5 0 1 .5 1 1.1zM94.5 193.1c-2.5 2.4-4.2.6-6.5-1.6 2.8-.1 4.4 2 6.5 1.6zm.1.1c2.2-1.8 3.7-.7 5.6 1.7-2.4-.4-3.8-1.9-5.6-1.7zm-13.3 4h-2v-1.1h2v1.1zm-1.9-1l-1-1.1 1 1.1zm-.9-1l-1-1.1 1 1.1zm50.4 136.9c.4.1 1 .2 1 .4.1.8-.6.6-1 .7v-1.1zm10.6 1l-.2-.1.2.1zm5.7-69c-.8-.1-1.6-.2-2-1.1.8.2 1.5.6 2 1.1zm98.2 58.1c.6 0 1 .5 1 1.1-.5 0-1-.5-1-1.1zm-51.5 13.6l-.7-.4c.2-.1.5-.2.8-.3.2 0 .5.2.7.4l-.8.3zm-7.6.2c1.2.2 2 1.2 2.9 1.9l-.2.2c-1.4.1-2.6-.3-2.7-2.1zm-2.8 0c.9-.9 1.9-1.1 2.8 0v.1l-2.8-.1zm17.1-1l-.8-.2c.5-.6.5.2.8.2zm-.1.1l.9.1c-.4.6-.5-.1-.9-.1zm-17.1.9zm87.3-85.2c2.6-.7 4.9-2.2 6.7-4.3.5-.6 1.6-1.6 2.3-.4.5.8 1.3 1.9.4 3.1-1.8 2.4-6.2 3.4-9.4 1.6zm20.2-26.8c-1.7-2-1.5-5.7-5.2-6-.6 0-.9-1-.6-1.6.3-.6.7-1 1.3-1.3 1.3-.8 2.1 1.2 3.4.7.8-1.5-.6-2.4-.6-3.7l.3-.3c1.6 1.1 2.5 2.9 1.7 4.6-1.2 2.6-.1 4.7.4 7l-.7.6zm-15.4 18.5c-2.3-.3-4.1.9-6.2 1.6-3.1 1.1-4.5-.1-4-3.5.3-2.1.9-4.1 1.5-6.9 1 2.4 0 3.9-.1 5.5-.1 1.1-.5 2.3.5 3.2 1.3 1.2 2.4 0 3.4-.4 1.1-.4 1.9-1.2 2.9-1.6 1.6-.7 1.7.6 2 2.1zm-3.3-16.9c3.5-3 6.6-5.4 11.5-4.4-1.2 2.2-2.8 1.3-3.9 1.7-1 .4-3.7-.5-1.9 2.4.3.5-.9 1.3-1.7 1.2-1.4-.2-2.7-.5-4-.9zm1.6 4.9c2.5-3.9 5.8-3.2 10-2.4-3.6 1.6-6.2 4-10 2.4zm11.5-22.3l-1.8.3c-1.2.4-1.7-.1-1.8-1.3 0-1.1.6-1.3 1.4-1.3 1.2 0 2.6-.1 2.5 1.8l-.3.5zm-10.4-2.3c-1.6 1.6-4 2.6-4.5 5.2l-.5-.6c-.1-3.6 2-4.6 5-4.6zm-10.2 26.9c.2 1.2 0 2.3-1.5 2.3-.3 0-1-.5-1-.8-.1-1.5 1-1.7 2.1-2l.4.5z"/><path class="st1" d="M268.4 211.2c-1.6 1.6-4.1.5-5.7 2l-.5-.6c1.4-2.2 3.8-1.5 5.8-2l.4.6zm-6.4 17.7c-.5 1.4-1.8 1.8-2.5 1.1-1-1.3.4-1.3 1.2-1.4.4 0 .9.2 1.3.3zm24.3-17.9c-1.2-.7-2.2-1.6-3-2.8l.4-.5c1.3.5 2.4 1.7 2.8 3.1l-.2.2zm-13.3-5c.3-.5.9-.8 1.5-.7.1 0 .1.2.2.4l-1.7.3zm33.1 44.6c-.6-.4-1.1-.9-.3-1.4.4-.3.7.4.8.9l-.5.5zm-6.4-9.2l-.1.2.1-.2zm-37.4-9l.7-.3-.3.7-.4-.4zm42.5-19.2c-.7.3-.9.1-.6-.6l.6.6zm-17.7-1.1l-.8-1.1.2-.2 1 .9-.4.4zM183 99.5c.2-1.8 1.3-3.3 2.9-4-.1 1.8-1.2 3.4-2.9 4zm2.8-4c-.1-1.4.7-2.6 2-3.1.2 1.5-.7 2.8-2 3.1z"/><path class="st1" d="M182 100.5c0-.5.3-1 .9-1.1h.2c-.1.7-.4 1.1-1.1 1.1zm117.4 2.9c.2-.3.6-.3.8-.1 0 0 .1 0 .1.1l-1-.1.1.1zm-.1-.1l-.1.2.1-.2zm-4.6 3l-.2-.1.2.1zM191.6 84.6h1c.1.8-.3 1.7-1 2.1v-2.1zm40-35.5l1 1.1-1-1.1zm1 1l1 1.1-1-1.1zm.9 1l1 1.1-1-1.1zm1 1l1 1.1-1-1.1zm.9 1h1c-.2.3-.7.3-1 0zm8.6 12.8h1c-.2.3-.7.3-1 0 0 .1 0 0 0 0zM217.3 70v-1.1c.1.2.2.5.2.8.1 0-.1.1-.2.3zm-34.2 24.5c-.1 1.3-.9 2.5-2 3.1.1-1.4.8-2.6 2-3.1zm-4.8 5.9c-.2 1.3-1 2.4-2 3.1.1-1.4.8-2.5 2-3.1zm6.7-7.9c-.1.5-.5 1-1 1.1 0-.6.4-1 1-1.1z"/><path class="st1" d="M184 93.5c-.1.6-.5 1-1 1.1.1-.6.5-1 1-1.1zm-2.9 3.9c-.1.5-.5 1-1 1.1.1-.6.5-1 1-1.1zm-.9 1l-1 1.1 1-1.1zm-1 1c0 .6-.5 1.1-1 1.1.1-.6.5-1 1-1.1zm-2.8 3.9l-1 1.1c0-.5.4-1 1-1.1zm-1 1l-1 1.1 1-1.1z"/></svg>