<svg id="Слой_1" xmlns="http://www.w3.org/2000/svg" viewBox="0 0 330 270"><style>.st0{fill:#ffc700}</style><path class="st0" d="M149.1 150.4c2.3-8.1 3.9-16.3 10.5-21.4 3.6-2.8 7.6-4.3 8.4-9.6.3-2 2.7-3.1 5-2.6s3.4 2.1 3.7 4.3c.1.3.1.7 0 1-2.1 14.7 3.6 28.6 3.4 43.2-.1 7.2-4.6 12.1-7.6 17.7-1.4 2.6-4.9 1.1-6.5-1-2.9-3.6-6.7-2.8-9.7-1.7-3.2 1.2-2.9 4.8-2.2 8.1.4 2.4.4 4.8.2 7.2-.2 2.7-1 5.2-4.3 5.3-3.1.1-4.6-1.9-5.3-4.6-1.1-4.1-1.2-8.5-.3-12.7 1.5-7.2 1.8-14.5 2.2-21.7-6 4.6-18.1 4.6-23.8-.9-4.3-4.2-10.5-6.3-13.5-12.1-1.7-3.2-4.9-5.8-3-10.1.6-1.4-.9-2.4-1.7-3.5-1.7-2.1-3.2-4.4-4.6-6.8-2.6-5.3-.9-9.5 4.5-11.8 2.3-1 4.6-2.2 6.8-3.5 3.2-1.8 5.7-1.2 7.9 1.9 4.7 6.7 9.9 13 14.3 19.9 4 6.4 12.3 8.2 15.6 15.4zm103.8 75.8c-.5 3.9-.7 7.8-1.6 11.6-1.6 7.3-14.2 16.1-22 14.8-3.7-.6-7 .3-10.5.7-3.8.5-6.9.2-7.4-4.6 0-.2 0-.3-.1-.5-1.6-2.2-4.7-4.1-2.2-7.4 2.5-3.3 5.6-.9 8.4-.3 1.7.4 3.3.6 5 .7 2.5 0 3.5-1 4.2-3.9 1.7-7.4 2.8-14.2-.8-21.7-2-4.3 1.3-9 5.8-11.2 4.5-2.2 10.5-1.7 13.1 2.2 3.8 6 8.2 11.9 8.1 19.6zm-81.3-170c-3.7-.1-7.3-1.3-11.3 1-2.8 1.7-6-.1-6.2-4.3-.1-1.7-.1-3.4-.2-5.1-.6-6 1-7.6 6.7-6.2 1.3.4 2.7.2 3.8-.6 4.5-2.6 9.3-.8 14-.7 2.6.1 4.2 2.9 4 5.7-.2 4.3-6.7 10.1-10.8 10.2zm56.2 63.6c-3.6-.1-5.3-3.1-3.7-6.3 1.1-1.9 1.9-3.9 2.4-6.1.7-4.1 2.6-6.3 7-4.1 1.3.6 2.8.4 3.9-.4 5-3.5 9.9-1.9 14.8 0 3.1 1.2 5.6 3.1 5.1 6.7-.4 3.3-3.5 2.9-6 3.3-7.3 1-14.9 1.4-21.2 6.1-.7.2-1.5.6-2.3.8z"/><path d="M59.6 155.4c4.6-5.6 11-9 16.4-13.6 8.3-7.1 17.5-13.4 22.2-23.7 1.2-2.7 2.9.2 4.5-1.4 2.6-2.6 6.1-4.2 9.3-6.1 2.1-1 3.1-3.3 2.6-5.6-2.1-11.6-2.7-23.8-10.7-33.5-.4-.5-.7-1.2-1.1-1.7-1.2-1.3-5.1.7-4.4-2.5.8-3.5 1.5-8 4.7-9.9 12.2-7.3 18.8-19.1 26.1-30.6-1.1-1.5-2-.1-3 .3-3 1.2-5.9 2.6-8.9 3.9-4.6 2-9.1 3.2-13 7.5-4.7 5.2-12.7 6.7-20 7.9-6.5 1.1-13 2.4-19.5 3.3-3.7.5-4.1 3.7-6 5.9-5.4 6.5-7.7 14.1-9.9 21.9-2.2 7.7-3.1 16.1-3.7 24.2-.2 5.8-1.6 11.4-4.1 16.6-4 7.9-8.1 15.7-11.1 24.1-1 2.7-1.1 2.6-3 .9l.2-.3-.1.3c-8.1 9.8-11.9 21.4-14.3 33.7-2 2.8-2.1 6.1-2.1 9.4l.1-.1c-1.9-2.5-2.2-5.9-.9-8.7 2.5-6.6 3.9-13.5 6.4-20.2 4.2-11.2 13.1-19.1 17.6-29.8 1.8-4.2 4.3-8.1 6.5-12.1 1-2 1.6-4.1 1.7-6.3 2-19.2 3.8-38.5 13.4-55.9.2-.4.7-1 .6-1.4-3-7.2 3.1-9.8 7.3-13.8 0 2.9 2 2.7 4.1 2.8 4.7.3 9.3.1 13.8 2.5 3.2 1.7 6.6-.5 9.5-2.3 2.2-1.4 4.3-2.7 6.9-3.2l2-1c0-1.3-.8-3.1 1.3-3.2 7-.3 12.1-5 18.2-7.4 5.1-2 9.9-3.6 13.5-8.3 2.6-3.1 4.4-6.8 5.4-10.7.7-2.7 2.2-4.2 4.5-5.7.7 7.6-2.7 13.9-4.2 20.6-.3 1.2-1.9 2.7.4 3.2 6.5 1.5 10.3 7.7 16.8 9 1 .2 2.1 1.2 2.8.9 3.5-1.4 4.4.5 5.1 3.4.5 2.5 1.8 0 2.7.2l.1.1-.1-.1c4.2-4.6 9.9-6.4 15.4-8.4 4-1.3 7.9-3 11.7-4.9 3.7-2 4.6-4.3 1.7-7.8-2.3-2.8-2.7-5.9-.6-9.6 2.5 2.9 1.4 6.5 2.8 9.3 1.1 2.3 2.3 3.2 4.6 1.7l.3.3-.1 2v-.1c4.4 1.9 8.6 4.8 13.1 5.6 8.3 1.5 16.4 3.7 24.3 6.7 1.6.4 3.3.7 5 .9l.9.6 1.3-.1.5-.4 12.2 5.2-.4.4-.3.1.3.3.7.6h.3l.6-.5c9.1 4.8 17.4 11 27 15 3.4 1.4 4.3 4 3.8 7.4-2.6 17.4-1.5 34.6 1 51.9 1 6.9 4.2 13.3 5.3 20.3 2 13 4.3 26.3 9.5 38.3 4.5 10.2 5.3 20.6 4.2 30.9-.7 6.6.3 14.3-5.9 19.7-1.6 1.4-2.5 2-4.2.8v.1c0-1.2 1.6-2.5-.3-3.5-3.6 2.6-7.3 5-10 8.6l.1-.1-1.1 1.1.1-.1-1.1 1.1.1-.1-.9.9-.3.3-.7.7-.4.4c-.2.1-.3.3-.5.4l-.7.8v.2l.7.8c-5 5.5-10.6 10.6-13 18.1-.7 2-2.1 2-4.1 1.3-3.5-1.4-6.5-3.7-10-5-3.7-1.3-7.6-1.7-11.5-1.3-3.3.2-8.4 6.6-8 9.9.4 3.1-1.2 6 .2 9.1.5 1-.6 1.9-1.8 1.8-1-.1-1.8-.2-2.1-1.6-1-4.5-2.4-8.9-3.3-13.5-.5-2.5-2-2.5-3.7-2.4-4.2.3-8.5.6-12.7 1-5.5.5-7.5-1-8.4-6.3-1.5-9.1-2.7-9.3-12.1-8.9-8 .3-16 3.4-24.2 0-7.9-3.2-14.6-6.7-14.5-16.6 0-.8-.3-2.2-.7-2.3-5.8-1.7-4-7.2-5.7-12.4-.8 16.4-.9 31.3 2.3 45.8 1.1 4.4 1.5 9.1 1.1 13.6-1.7-3.1-3.5-5.3-7.4-4.2-1.1.3-2.3-.3-1.6-2.1 2.5-6.5 2.4-13.3 1.7-20.1-.4-4.4-.3-8.8.3-13.2 1.3-8.4.5-16.6-1.3-24.8-.5-2.2-.5-2.2-3.4-2.7-1.1-.2-.9-1.2-1-2-.6-5.3-.2-10.7-1-16.1-.6-4.3-3.2-5.9-5.7-8.3-1.4-1.3-2.2-.3-2.8.7-2.5 3.7-6.2 5.5-10.1 7.2l-.5-.5c1.4-3.8 4.5-6.3 6.8-9.4 2-2.7 2.4-4.1-1-6.1s-7.8-3.4-9.6-7.7c2.3 0 3.7 1.8 5.1 3 3.6 3.1 8.3 4.5 13 3.9 3.8-.6 7.2-2.9 10.9-4.1 5.3-1.7 6-3.7 3-8.5-1.7-2.7-4.9-4.3-5.5-7.7 6.5 2.6 4.7-2.8 5.4-5.8-1.5 2.6-5.6 1.5-6.4 4.9-1-.6-2.9.8-3.1-.4-.9-5.3-5.7-7.8-8.2-11.9l1-1c1.7 1.9 3.3 3.8 5.1 5.5.8.7 2 1.9 2.7-.1.4-1.1 1.5-2.7-.7-3.3-2.1-.6-3.8-2.2-5.6-3.3-1.8-1.2-1.5.2-1.5 1.2l-1 1-2-2.1.1.1-11.3-16.4.2-.4-.1.5c-4-2.9-4.7 2.2-7.2 3l.1.1-.1-2 .1.1c-3.6.9-6.1 3.6-8.9 5.7-1.7 1-2.3 3.2-1.3 4.9 3.4 7.4 4.8 15.7 9.4 22.8 2.3 3.5 5 6.8 6.9 10.5-5.5-1.9-7.9-6.7-10.3-11.3-2.9-5.6-5.2-11.5-6.8-17.5-1.4-5.2-1.9-5.4-5.3-1.2-9.3 11.4-21.9 18.8-33.3 27.6-.4.2-.9.4-1.4.5l-.8-.6zm118.7-48l-1 1 1-1zM166 121.7l-1 1-1 1-1 1-1 1-.2.2.2-.2 1-1 1-1 1-1 1-1zm71.6 76.7l-.2.1.2-.1zM141.5 69.5l.2-.1-.2.1-.2.2.2-.2zm4.1-6.1l1-1 1-1 .2-.2-.2.2-1 1-1 1zm26.6-2l1-1 .2-.1-.1.1-1.1 1-1.1.1 1.5-3.7c-2.4-.8-4.4.2-6.1 1.7-3 2.7-6.4 4.8-9 8.1-1 1.3-2.3 3.6-4.3 2.8s-.7-3-.3-4.5c.3-1 .7-2-.4-2.6-1-.6-1.7.2-2.2.8-3.5 4.2-7.7 7.8-12.4 10.7-5.6 3.5-5.8 10.6-7.6 16.5l.1-.1c-2.3 6.3-4.3 12.7-6.9 19-.7 1.8-.8 3.4.1 4.7 2.5 3.7 4 8.2 7.8 11.1l-.1.1.1-2-.1.1c1.1 1 2.2 2.1 3.3 3.2 3.9 3.9 9.1 4.1 13.7 2.9 9.1-2.4 15.6-8.8 21.2-16.1 3.9-5.1 7.7-10.5 13.3-13.9 4.4-2.7 7.6-5.9 9.1-10.8.4-1.2.9-2.4-.5-3.1-1.3-.7-1.8.7-2.4 1.4-3.1 4-6.8 5-11.7 3.2 3.8-6.3 9.2-10.5 14.1-15.1.7-.7 3-1.4 1.4-3.1-.9-1.3-2.7-1.7-4.1-.9-1.7.8-3.2 1.9-4.4 3.3-1.3 1.8-3.7 2.4-5.7 1.3-2.6-1.7-.6-4.2.6-5.7 2-2.7 4.7-4.9 7-7.4.7-.7 1.7-1.5 1.3-2.6-.5-1.5-2-1-3.1-1-4.3.1-6.8 3.5-9.9 5.7-1.7 1.2-3.3 4.7-5 3.3-2.3-1.8 1.2-4 1.7-6.1l1-1.3zm39.9-12.3l-1-2c-.4-.5-.4-.5 0 0 .3.6.7 1.3 1 2zm-28.7-7.2l-2-1c-1.1-2-4.1-1.9-5.1-4.2 1.5-.4 2.6.2 3.8.9 7 4 13.6 8.9 22 9.8.7.1 1.2 1 1.9 1.6l-.2.1.1-.2c1.9 1.5 2.3 3.7.8 5.4-1.9 2.2-2.5-1.2-4-1.5-1.5-.3-3.2-.1-4-1.8l.1-.1-.1.1c-1.7-.2-3.4-1.1-5.1 0l-.6-1.4-.3 1.4h1c-.1 5.7-6.9 1.9-8.2 5.9 6.3 0 8.9 1.8 9.4 7.6 0 1.8.8 3.5 2.3 4.6 2.7 2.2 3.3 5.2 3.8 8.6.8 5.6-1.8 10.4-2.8 15.6-.3 2.7-1.6 5.1-3.7 6.9-2.9 2.4-5.5 5-8.4 7.3-1.7 1.2-2.5 3.2-2.2 5.3 1 14.1 2 28.1 3.1 42.2.1 1-.2 2.7 1.8 1.5l-.1.1 2.1-5.2-.1.1c.9-1.6 1.7-3.3 2.3-5.1 4.3-13.1 7.9-26.3 11-39.8 5.2-22.7 5.6-45.5 3.7-68.5-.5-6.2-6.8-11.4-12.3-9.8-5.5 1.6-10.5 4-15.7 6-1.2.5-1.2 1.5-1.3 2.5l-2.9.4-.2.8 8.2 2.8 1.9 1.1zm10.2 35.8l-.2-.2.2.2.4 1-.4-1zm-25.5-21.5l.9-.3c.1-.1.2-.2.4-.3l-1.3.6-.3.3.3-.3zm6.1 128.9l.1.2-.1-.2-.1-1.2-.6.2.7 1zm91 66.6c.6.2.7 1.5 1.7.7l-1.7-.7zM158.8 57.3l-1.8.4.2.3 1.6-.7c.1-.1.3-.1.4-.2.1-.1.2-.2.2-.3l-.6.5zm88 45l1 1c1.4 2.2 3.7 2.8 6 3.2.2.2.3.8.8.2l-.7-.4c-1.8-1.6-3.4-3.4-6.1-3l-1-1c-.7-.5-.9-1.6-2-1.6.2 1.1 1.1 1.4 2 1.6zm-85.9 94.1c-1.3-.5-1.9-4.1-4.1-1-2.2.5-2.4 2.5-3.1 4.1-1.3 1.8-.4 3.1 1 4.1 3.9 7.4 12.3 10.2 17.3 16.6-1.7 1.2-2.8-.4-4.1-.2h-1l-8.9-7.5c-.5 4.4 2 6.7 3.9 9.2 2.4 3.3 2 4.9-2.1 4.6 1.4 5.1 4.8 8.2 9.4 10.1 3.5 1.5 7.2.2 10.7.5 10 .7 20 .5 30-.3 1.8-.1 3.9-.6 5.3 1 2.5 2.8 4.5 1.1 6.4-.6 1.9-1.8 3-4.4 4.2-6.9 1.5-2.8-1-5.4.2-7.8 2.5-4.9.4-9-1.5-13.4-2.1 1.4-2.3 4.1-4.8 4.8 3.1-7.6 3.2-7.8-3.5-13-4.5-3.5-9.4-6.5-14.2-9.7-3.3-2.2-9-3.5-9.9-5.5-2.8-5.6-7.4-3.9-11.3-5-.9-.3-2.2-.3-2.7.8-.6 1.6 1 2 1.9 2.5 2.7 1.7 5.5 3.2 6.9 6.4.6 1.3 2.6 2 1.4 3.8-1 1.4-2.7 1.2-4.2 1.4-2.1.2-3.3-1.4-4.7-2.7-4.8-4.1-9.9-7.7-15.3-10.9-3.3-2-6-.4-7.7 2.5-1.6 2.7-1.4 5.2 1.9 6.8 1.7.9 3.3 1.8 4.8 3l12.3 9-.9 1.4c-5.1-4.6-12.8-3.7-17.5-9.2l3.9 1.1zm63.4 41c-1.7 1-3.1 2.4-3.9 4.2 1.9-.7 3.3-2.3 3.9-4.2l.2-.3-.2.3zm13.2-42c5-2.3 5.4-7.3 7.2-11.5-3.3 3.3-5.2 7.4-7.2 11.5zM155.7 55.2c5.7 0 11.3-2 17-1.4 2.7.2 3.4-2 4.3-4-3.4-1.2-6.1 1-9.3.1-7.1-2-8.1-1.4-11.8 5.3h-.2zM152.6 44l-.1-.2.1.2c1.3 1.6 2.5 3.1 4.8 3.4 6.9.9 13.8.8 20.7-.4 1.7-.3 3.3-.9 3.4-2.5.1-2.5-2.5-2.4-4-3.1-1.4-.5-3-2.3-4.4-.1-.5.8.5 2.9-1.7 1.9-1.2-.6-3.6-.8-2.3-3.3-1.7 1.3-3.5 2.6-5.1 4.1-1.6 1.5-3.8 1.8-4.9.2-2.2-3.6-4.1-1.7-6.2-.2h-.3zm-11.2 7.1c-5.3 1.3-6.3 5.8-7.2 10.2-.9.7-1 2-.2 2.9l.2.2v2l-.2.1.1-.2c1.9 0 1.5 2.5 3.4 2.9 2-5 6.4-8 10.2-11.4 1.9-1.7 3.5-3.9.7-6.8-2.4-2.4-4.3-3.7-7.1-1-.1.1-.3.2-.3.3.1.2.3.4.5.6l-.1.2zm-10.3-9.2c2 2.2 1 5.2 2 7.7.6 1.6 1 2.4 2.8 1.3 4-2.5 8.5-4.4 12.1-7.4 2.1-1.8 7-.8 6.3-4.3-.4-2-4.2-3.5-6.5-5.1-3.2-2.2-6.7-3.9-10.5-4.7-2.1-.5-2.4 2.6-4.2 1.3-.9-.6-.6-3.3-2.7-1.6-1.4 1.2-1.6 2.7-1.2 4.6.4 2.8 2.3 5.3 1.9 8.2zm31.8 93.1c2.4 3.9 5.9 1.4 8.8 1.6 2.9.1 3.7-1.3 3.9-4.4.1-3.7-.4-7.5-1.3-11.1-.2-1 .5-2.4-2.4-3.6-3.1 3.4-5.8 8.2-9.9 10.8-8.2 5.1-8.3 13.3-9.9 21-.7 3.2 1.1 6.3 3.3 8.2 2.4 2 3.9-1.6 5.9-2.4 1.2-.5 2.2-1.6 3.7-1.6-.3 2.3-3.2 2.3-4 4.5 3.3-.2 6.4-.6 9.5-.6 2.4 0 5.5-.9 6.6 2.2s-.1 5.6-2.6 7.5l-.7-.7c1.2-2.4 4.4-6.2.3-7-6.2-1.1-13.2-1.6-18.7 3.3-1.2 1-2.5 3-3.9.3-.6-1.2-1.2-1.5-2.4-1-1 .3-1.6 1.4-1.4 2.5 1.9 7.2-1 14.1-1 21.1-.1 5.1 1.5 9.4 3.9 14.1 1.8-4 2.7-7.4 1.7-11.2-1.4-5.1 1.9-7.9 5.5-10.4 3.9-2.6 6.7-.1 9.5 2.3 1 .8 2 1.7 2.3 2 12.8-9.9 10-22.8 6.8-35.9-1.9.7-3.1 2.8-5.2 2.9.2-1.5 1.5-2.3 2.6-3.1 2.1-1.3 3.1-3.9 2.3-6.3-.9-3.2-3.6-1.8-5.6-1.9-4-.4-8 .9-12.2-.1 1.2-2.2 3.1-2.5 4.8-3h-.2zm-47.1-83.8c-.6 2.6-2.6 4.4-4.3 6.2-4 4-4.8 8.6-2.9 13.9 2 5.8 4.4 11.5 7 17 .7 1.3 2 2.7 1.5 4.2-1.9 6 1.6 9.2 5.1 11.8 13.5-22.2 11.3-45.7 4.4-69.8-3.4 5.8-7.4 11.1-11.9 16.1-.6.6.7.6 1.3.6h-.2zm75.7 107.4l-.1-.1.1.1c.1.9.2 1.8-1 2 0 2.6-1.7 4.6-2.7 6.8l-.7.7c-1.9 2.7 2 2.6 2.2 4-.9 1.4-1.7.5-2.4.3-3.7-.8-4.6 2.3-4.9 4.4-.4 3.1 2.8 2 4.2 1.8 2.7-.5 4.9 1.1 7.4 1.3 0-1.7-.3-3.3.8-4.9 8-11 13.1-23.5 17.7-36 1.8-5 3.4-9.9 6.1-14.5.3-.6.5-1.3.7-1.9 5.9-13.6 7.2-28.6 12.9-42.3.6-1.4.9-3.1-.4-4.3-8.1-8.1-16-16.4-21.9-27.9-.6 6.5.5 11.4-.5 16.5-1.8 9.3-.3 19.1-2 28.4-3.3 17.2-8.2 34-12.3 51-.6 2.3-2 5.1-1.3 6.8 1.7 3.4.1 5.3-1.7 7.6l-.2.2zm49.1 12.3c1.5.3.5 3.7 2.8 2.5 1.7-.9 4-.3 4.8-3.4 2.4-8.7 3.5-17.7 3.4-26.8 0-1-1.4-3.2 1-2.8 1.1.2 4.2-1.2 3.9 2.5-.2 1.8.4 3.9-.5 5.5-4.1 7.4-3.4 15.9-6 23.5-1.1 3.2-.7 6.3.3 9.5 2.1 7.2 3.7 14.5 2.4 23.3l-6.2-18.4c-2.3 4.4-4.3 7.9-6 11.5-.9 2 .5 3.1 1.8 4.7 6.5 7.6 12.9 15.3 12 26.5-.5 5.7-3.3 10.2-6.3 14.8-1.5 2.3-1.6 3.4 1.7 3.7 5.6.4 11.5-1.9 16.9 1.8.7.2 1.3 0 1.8-.5 2.8-4.2 8.3-5.2 10.8-9.7 4.3-7.8 10.8-13.5 18.2-18.2 2.9-1.8 4.9-4.7 5.6-8.1 2.7-10.4 2.7-21.3.1-31.7h-.1c1.1.4 1.1 2.4 3.2 2.2-3.3-9.3-4.3-19-8.3-27.9-2.4-6-5.2-11.9-6.1-18.3-3.4-22.8-8.7-45.5-7.5-68.8.2-3.8-1.3-6.4-4.1-9.3-3.2-3.3-7.1-5.5-10.6-8.3-8.8-7-17.8-13.5-29.8-14.2-8.7-.5-16.9-3.7-25.3-5.4-8.2-1.7-8.3-1-5.3 6.9 3 7.7 7.4 14.5 11.9 21.3 2.6 4 5.1 6.8 10 7.9 3.1.7 7.8 2.8 8.2 4.9.5 3.1 3.8 3.3 3.8 5.4 0 3-4.3.9-5.4 3.9-.8 2-2.6 3.9-3.5 6.1-1.2 2.8-2.1 5.7-3.3 8.6-1.6 3.8-.8 6.5 3.5 7 3.1.3 5.5-.9 5.4-5 0-2.2 2-4.2 4.1-2.4 4.9 4.4 10.5 7.5 16.1 10.7 1.7 1 1.7 2.8 1.5 4.6-.2 1.7-1.4 1.8-2.7 1.7-7.5-.3-14.3 2.5-21.3 4.4-8.5 2.3-15.4 6.3-16 16.4-.1 1.9-.9 3.7-1.7 6.6l-.5-4.1.4-.5-.4.6c-6.5 13.7-12.5 27.9-21.6 40.3-1.5 2-2 5.7.4 7.1 6.5 3.7 12.2 8.6 18.1 13.1 1.4 1.1 2.8 2.6 4.9 2.5l.6.7c5.3 2.8 11.3 2.2 12.2-2 1.1-4.8 4.4-7.9 6.7-11.8 1.2-2 2.8-3.8 4-5.9.5-.9 1.5-2.9 0-3-4.8-.2-3.4-3.6-3.8-6.2h-.2zM229.3 204c8.3 20.9 1.3 35.7-17.6 46.7 4.9-.2 8.4-.4 12 .5 6.9 1.6 13.3-1.2 19.1-3.8 8.3-3.8 12.3-22.1 7.7-30.2-1.7-2.9-3.2-6.2-5.5-8.5-2.4-2.3-5-6-8.6-4.1-2.6 1.3-4 .4-7.1-.6zm-4.3-85.3c11.2-3 21.2-7.1 32.2-8.7-5.1-1.3-9.8-3.9-13.6-7.5-.9-.9-1.6-.2-2.6.3-3.2 1.6-6.1 5.3-10.2 1.4-1-.9-1.7.4-2 1.5-1.2 4.2-2.5 8.4-3.8 13zm-82 55.5c1.9-2.5.8-5.2 1.7-7.6.4-.8.2-1.7-.5-2.3-1-.6-1.9.2-2.9.5-1.3.4-1.4 1.2-.9 2.3.9 2.3 1.7 4.6 2.6 7.1zm66.5 72.1c.9-1.6 2.6-1.9 3.9-2.9 1.6-1.2-.8-4.4-2.6-3.6-3 1.4-.7 4.3-1.3 6.5zM63.3 43.1c2.2 1.1 4.8 1.1 7-.1-2.4-.9-4.7-1.2-7 .1zM152 204.4c1.3 1.9 0 3.6 2 4.7 1-1.7.9-3.1-2-4.7zm-4 29.3h.1v-2.4h-.1v2.4zM197.2 81c-.4.3-.9.5-.9.7l.3 1.2c.2-.2.7-.3.7-.5.1-.5.1-1-.1-1.4zM74.1 44.8c1.8.2 3 .6 4-1-1.4-.3-2.8.1-4 1zm109 110.7h-.3v1.8s.1.1.2.1l.1-1.9zm104.4-85.6l-.2-.9c-.1.1-.2.3-.2.4v.5h.4zm21.4 115.7l-.2-.4-.3.3c.1.2.2.3.4.5l.1-.4zm-170.7-17.4l-.2-.4c-.1.1-.2.2-.2.3 0 .1.1.3.2.4l.2-.3zm11.2 36l-.1-.5-.2.3.3.2zm36.3-11.8c0 .1-.2.3-.1.4 0 .1.2.2.3.2l.2-.6h-.4zm123 14.9l.2-.4-.3-.1.1.5zM152 157.6l.2.3.1-.3h-.3z"/><path d="M19.8 229.1c-1.2-.6-2-1.7-2.1-3.1l.2-.2c.3 0 .6 0 .9.1l.1.1-.1-.1-.8-1.7-.5-.6-.5-1.4-.5-.6-.6-1.5-.5-.5c-.6-.9-.5.2-.8.3l.1-.1c-2.9-4.4-4.1-9.5-6.1-14.3 2.1-3.1.7-6.4.2-9.4-.6-3.7 1.6-6.6 1.9-10l-.1.1 1.4-2c-1.6 9.5.6 18.6 3.7 27.5h.1v1.1c2.9 8.2 7.2 15.3 15.6 18.8 3.8 1.6 7.9 1.8 11.6-1 1.7-1.1 3.5-2 5.4-2.8l.5.5-3.3 2.8c6.3-.9 11.4-4.8 17.3-6.6 1.7-.5 3.3-1.7 5-.2-.5 1.6-1.9 1.5-2.9 1.8l-.1-.2.1.1c-9.1 3.9-18.2 7.8-27.3 11.8-5.9 2.6-14.1-1.4-17.7-8.7l.1-.1-.3.1zm77.9-24.4c-.4.6-.6 1.4-1.1 1.6-13.1 6-14.8 18.5-17.1 30.5-1.4 7.3-2.3 14.7-5.5 21.6-2.4 5.1-.2 8.2 5.1 8.6l-.1-.1c-1.8 1.7-4 .9-6 1-.3-.2-.6-.3-.9-.4-.1 0-.2.1-.4.1l1.3.2c-3.7 1.3-6.5 1.4-5.4-4 .6-3-1.5-6.7 4.1-8.2 1.8-.5 2.4-6.6 3-10.3 1.5-9.3 2.6-18.8 5.3-28.2-3.6-.1-5.6 4.1-9.1 2.6 8.2-6.3 17.5-10.6 26.5-15.4l.3.4zM27.1 39.8c-.4 15.2-6 29.1-10.3 43.3-.1.4-.7.6-1.2 1-1.3-2.3.1-4.1.7-5.9 2.3-7.3 4.8-14.5 6.3-22 1-4.8 2.2-9.6.3-14.5-.5-1.2-1.7-2.8-.2-3.7 1.7-1 3.5 0 4.4 1.8zm279.6 9c4.9 3 9.8 6.1 14.9 8.8 1.8 1 2.9 2.3 2 3.9-3.5 6.6-.4 13.2-.3 19.8.1 4.5 1.7 8.9 1.2 13.5-2.6-6.8-3.4-14-3.9-21.2-.3-4.4-1.7-8.7-.8-13.1.4-2-1.3-2.5-2.5-3.4-3.8-2.6-8.1-4.4-11.3-7.8l.7-.5zM17 27.6c-2.1 2.4-5.2 2.8-7.9 2.9-3.8.2-4.4 2-4.3 5.2.1 6.3-.7 12.6-2.6 18.6-1-8.3 3.5-16.6-.4-25.3 5.5 1.1 10.3-.6 15.2-1.4zm91.8 165.7c2.5-5.6 7.6-8.7 12.1-12.4l.5.5c-3.6 4.6-7.4 9-12.6 11.9zm-64.8-28l14.6-8.9.1.1c-2.9 5.4-8.8 6.9-13.3 10.2v.1c-.2-.3-.4-.6-.7-.7l-.7-.8zm79.8 71.7c1.3-3.9-.6-5.8-4.2-6.4-2.3-.4-4.7-.3-7-.7-2-.4-3.6-1.2-.8-3.1l.5.5c2.5 2.8 6.1 1.1 9.1 2.2 4.6 1.8 5.3 3.1 3.2 7.9l-.8-.4z"/><path d="M306 49.4c-5.4-4.2-10.6-8.6-14.1-14.6l.1-.1 14.6 14.1-.6.6zm21.9 1.9c-.2-3-.3-6-.5-9-.1-1.2-.2-2.6 1.4-2.6 1.3 0 1.3 1.4 1.2 2.4-.3 3.1-.8 6.3-1.2 9.4l-.9-.2zM45.4 166.7c-3.1 1.9-5.5 5.3-10.6 5.2 2.8-3.6 6.3-4.7 9.2-6.6l.7.7.7.7zm35.8-83.9c.3 1.3 1.3 1.7 2.5 2.1 2.6.9 3.4 2.6 1.5 5h.1c-.6-6.9-5-2.3-8.3-2.6.7-2.3 2.6-3.2 4.2-4.5zm-54-42.9c5.4-2.6 11.4-4 17.4-4.1v-.1C39 38 33.2 39.4 27.2 39.9zm35.9 71.8L52.8 122l-.5-.5c2.5-4.2 6-7.7 10.2-10.2l.6.4zm57.3 132c7 4.8 7.2 5.6 3.1 11.3l-.7-.7c2-3.6 3.3-7-2.5-8.4-1.5-.4-1.5-1.6-.5-2.8l.6.6zm-11.7-50.5c1.7 3.3-1.7 3.7-3 5.2l.1-.1-3.1 2 .1.1-.8-.7-.5-.6 7.4-5.9h-.2zM85 117.4c-4.9-1.8-9.1 1.6-13.8 1.6l-.5-.6c3.9-1.6 8.1-2.5 12.3-2.8 1.3-.1 3.9-.7 2.5 2.4l-.5-.6zm35.5 140.7c-1.6 3.5-6.8 4.1-7.3 8.5l-.5.6c-2.5-3.4 1.5-4.4 2.4-6.5l4.8-3.4.6.8zM68.9 78.7c2.2 4 6.3.8 10 3-3.5 0-6.1.2-8.8-.1-1.9-.1-3.1-1-1.2-2.9zm224.3 151.8l-7.2 6.1-.7-.8v-.2l.7-.8c.2-.1.3-.3.5-.4l.4-.4.7-.7.3-.3.9-.9-.1.1 1.1-1.1-.1.1 1.1-1.1-.1.1 1.9-.3.6.6zM50.6 124.9c3.1 1.8 5.1-1.5 7.8-1.5l.5.6c-2 1.5-4.4 2.5-6.9 2.8-1.4.1-3 0-1.6-2.2l.2.3zM85.2 90c4 2.3 4.5 4.8.3 7.5l-.4-.5c3.8-2.2.3-4.6.2-7h-.1zm159.2-55.5l-3.3-3.2c2.5-.2 4.8 1.1 6 3.3l-.5.4-1.3.1-.9-.6zM71 219.9c-.3 2.6-1.8 2.6-4.1 2.2 1-2.2 2.6-2.1 4.1-2.2zm-8.5-85.2c1.4-1.7 3.1-3.1 5.1-4.1l.5.5c-1.4 1.7-3.1 3.1-5.1 4.1l-.5-.5zm38.1 67.8l-2 1 .1.1c-1.4-3 1.2-3.4 2.8-4.4l.5.6c0 .2-.1.4-.2.6l-.2.2-.8.8-.3.4c0 .3 0 .6.2.8l-.1-.1zm-38.8-63.4c1-1.2 2.2-2.2 3.7-1 .6.4.3 1.6-.7 2l.1.1c-.8-1.1-2.1-1-3.1-1.1z"/><path d="M113.1 266.7l4.6 1.6c-2.2.9-3.6-.3-5.1-1l.5-.6zM61.2 28c-1.5 1.4-3.4 2.4-5.4 2.8l-.2-.2c1.3-1.6 3.1-2.6 5.1-3.1l.5.5zm1.4 93.6c1.4-1.3 3.2-2.1 5.1-2l.2.2c-1.4 1.2-3.2 2-5 2.2l-.3-.4zm72.1 135.6l-.9.3c-.3 0-.6-.1-.9-.3.3-.1.5-.2.8-.3.4.1.7.2 1 .3zm-46-204.9l.9.2c-.2.2-.4.4-.6.4-.3 0-.6-.1-.9-.2l.6-.4zm-24.9 89.8c-.1 1.4-.3 2.7-1.7 3.4l-.6-.6c.2-1.3 1.1-2.3 2.3-2.8zm-5.5-3.3c.6-1.4 1.7-2.4 3.1-3.1l.5.5-2.2 2.8-.1.1c-.2.1-.4.2-.6.2l-.7-.5zm70.9 72c1.3 1.7.5 3-1 4l.1.1.9-4.1zm-6.8 29.8l-2 3.1-.6-.5 1.9-3.2.7.6z"/><path d="M121.7 240l2-3.1.6.5-2 3.1-.6-.5zM83.8 53.7c-.3.1-.6.2-.8.2-.1 0-.2-.2-.3-.3.3-.1.6-.2.8-.2.1 0 .2.3.3.3zm-2.9 66.8c.7-1 1.8-1.8 3.1-2l.4.4c-.7 1.1-1.8 1.8-3.1 2.1l-.4-.5zm-2.2-66c-.2.2-.4.4-.6.5-.1 0-.3 0-.4-.1 0-.2 0-.4.1-.6l.9.2zm20.9 3.8v-4.1c.9 1.4 1.5 2.7 0 4.1zm228-1.9l-.2.4-.3-.6c0-.1.1-.2.2-.4l.3.6zM71 56.3c.5-.7 1.4-1 2.2-.8.1 0 .1.3.2.4l-2.4.4zm225.1 171.9l-2.8 2.3-.5-.6c.8-1 1.9-1.7 3.1-2l.2.3zm5-3.2c-.7 1.1-1.8 1.9-3 2.1l-.2-.2c.7-1.1 1.9-1.8 3.2-1.9zm-186 .2l-3 2.2-.5-.5 3-2.1.5.4zm-.4-.5c.7-1.1 2-1.8 3.3-1.8-.6 1.1-1.6 1.9-2.9 2.3l-.4-.5zm-64.3-100c.1-1.3.8-2.5 1.9-3.2l.5.5c-.4 1.2-1.2 2.2-2.2 2.9l-.2-.2zm56.7 136.4v.3c-.1.1-.3.1-.5.1-.5-.2-.5-.3 0-.5.2.1.3.1.5.1zM76.8 123.5c.7-1.1 1.8-1.8 3.1-2l.3.3c-.7 1.1-1.7 1.9-3 2.2l-.4-.5zm45.3 96.4c-.5 1.2-1.7 2-3.1 2 .6-1.1 1.8-1.9 3.1-2zm1.1-1c.6-1.2 1.8-2 3.1-2l-.1-.1c-.6 1.2-1.8 2-3 2.1zM84.3 68.6c.4-1.5 1.7-1.8 3-2l-.1-.1c-.5 1.1-1.6 1.9-2.9 2.1zm-8.1 56.3c-.7 1.1-1.7 1.9-3 2.2l-.5-.5c.7-1.1 1.8-1.8 3.1-2l.4.3zm-16.5 15.2c-.7.8-1.7 1.4-2.4.5-.5-.6.4-1.3 1-1.8l.7.5.7.8zm21.5-57.2l.4-1.8c.2.2.7.3.7.5 0 .7-.3 1.2-1.1 1.3zm-13.5 24.3c.7-1 1.8-1.8 3.1-2l.5.5c-.8 1-1.8 1.7-3.1 2l-.5-.5zm7.3-89c.8-1 1.9-1.7 3.2-1.9l.1.1c-.6 1.1-1.8 1.9-3.1 2.1l-.2-.3zm8.2 247.7c-1.1 1.2-2.6 1.2-4.1 1l.1.1c1-1.5 2.6-1.1 4-1.1z"/><path d="M72 20.2c.8-1 1.8-1.7 3.1-2l.3.4c-.7 1-1.8 1.8-3 2.1l-.4-.5zm11.2 245.7c.7-.7 1.4-1.3 2.5-.6-.7 1.1-1.7.4-2.5.6zm34.8-62.4l-2.5-.4c1.2-.7 1.7.1 2.5.4zm-27.8 61.3l-.4-.6c.3 0 .6-.1.9-.1.1 0 .2.2.3.3l-.8.4z"/><path d="M68.9 22.3c.7-1 1.8-1.8 3.1-2l.4.4c-.7 1-1.8 1.8-3.1 2l-.4-.4zm27 241.2c-.3 0-.6.1-.9.1 0-.1-.1-.2-.1-.4.3 0 .6-.1.9-.1.1.2.1.3.1.4zM63.6 110.2c.7-1.1 1.8-1.8 3.1-2.1l.5.5c-.7 1-1.8 1.8-3 2.2l-.6-.6zm2.3-85.8l3.1-2 .4.5c-.7 1-1.8 1.8-3 2.1l-.5-.6zm19.6 73c-.8 1.1-1.9 1.7-3.2 1.9l-.3-.4 3.1-1.9.4.4z"/><path d="M66.3 24.8l-3.2 2-.4-.5c.8-1 1.9-1.7 3.1-2l.5.5zm34.5 237.3l.4.2-.6.3c-.1 0-.2-.1-.4-.2l.6-.3zm14.2-1.3l-2.3-.3c1-.7 1.6.1 2.3.3zM289 31.7c-1.1-.7-1.9-1.8-2-3.1 1.2.6 2 1.8 2 3.1zM126.1 258l.4.1c-.1.2-.2.3-.3.5-.1.1-.3 0-.4 0l.3-.6zm-54-130c-.7 1.1-1.8 1.8-3 2.1l-.4-.4c.7-1.1 1.8-1.9 3.1-2.1l.3.4zm-1.4-22.9c.8-1 1.9-1.7 3.1-2l.4.4-3 2.1-.5-.5zm215.2-77.5l-.7-1.1.5-.2.2 1.3zM121 204.6l-3.1-1v.1c1.2 0 2.4-.2 3.1.9zM71 56.2l-1.2.7-.2-.5 1.4-.2zm110.1 197.1l-.3-.1.3-.2v.3zM67.8 119.6c.7-1.1 1.8-1.1 2.9-1.2l.5.6c-.9.7-2.1 1-3.2.8l-.2-.2zM44.6 35.8c.7-1.1 1.9-1.1 3.1-1-.8 1.1-2 1-3.1 1zm97.3 220.5l.1-.3.3.2-.4.1zm55.9 2.5l-1.4-.3c.6-.9.8.2 1.4.3zM82.4 14.3l-2 1 .1.1c.3-1 1.1-.9 1.9-1.1z"/><path d="M78.3 16.3c.5-.7 1.3-1 2.2-.9l-.1-.1-2 1.1-.1-.1zM63 121.9l-2 1-.3-.3 2-1 .3.3zM18.1 26.6l2-1-.1-.1c-.4.7-1.2 1.1-1.9 1.1zm42.7.8l2-1.1.4.5-1.9 1.2-.5-.6zm.1 95.6l-2 1-.5-.6 2.2-.8.3.4zm-5-92.3l-2 1.1-.3-.3 2-1 .3.2zm-2 1.1l-2 1.1-.4-.4 2.1-1 .3.3z"/><path d="M49.7 33.7c.3-.9 1.1-1 1.9-1.2l.4.4-2.3.8zm-2.1 1.1c.4-.9 1.2-1 2-1v.1c-.3.6-1.1 1-2 .9zm16.2 107.4l1-2-.1-.1-.9 2.1zm-2.1-3.1c-.4.7-1.2 1.1-2 1-.1-.3-.1-.7-.1-1l.1-.1 2 .1zm35.8-78.8l-2 1 2-1zm-5.1 3.1l-2 1 .1.1 1.9-1.1zM7.5 203.6l1 2c-.8-.4-.8-1.3-1-2zm113.5 1l.7.2-.7-.2zm8.3 6.1l-1-2 1 2zm-40-145.3l-2 1 .1.1 1.9-1.1zM15.7 222c-.7-.5-1-1.3-.9-2.1l-.1.1c.2-.1.5-.2.8-.3l.5.5-.1 1.7-.2.1z"/><path d="M16.7 224l-1-2 .2-.2c.2-.1.4-.1.7-.2l.5.6-.1 1.6-.3.2zM82.3 69.6l2-1-.1-.1-1.9 1.1zm-2.1 1l2-1v-.1l-2 1.1zm-2 1l2-1-.1-.1-1.9 1.1zM17.7 226.1l-1-2 .2-.2c.2-.1.4-.1.6-.2l.5.6-.1 1.5-.2.3zM78.1 71.6c-.4 1-1.3.9-2 1l2-1zM48.2 227.8c.3-.3.7-.7 1.1-.1 0 .1-.4.4-.6.7l-.5-.6zm249.9-.7c-.4.7-1.2 1.1-2 1l-.2-.2 2-1 .2.2zM74 74.6l-2 1 2-1zm114.6 181.1l-.4-.2.4.2zm-.1 0l.8.2-.8-.2zm4.3 1.4v.4l-.4-.2.4-.2zm7 2.6l-2-1v.1l2 .9zM82.3 99.3l-2 1-.3-.4 2-1.1.3.5zm-4.3 1.8l2-1.1.3.4-2 1-.3-.3z"/><path d="M75.9 102l2.1-.9.2.2-1.9 1.1-.4-.4zm-2 1.1l2-1 .4.5-2 1-.4-.5zm127.8-83.9l.3-.1-.1.3-.2-.2zM22.1 23.5l-1 1 .1.1.9-1.1zm-1 1l-1 1 .1.1.9-1.1zm-3.1 2l-1 1 .1.1.9-1.1zm268.9 2.1l-1-1.1-.1.1 1.1 1zm3 4.3l-.9-1.2 1.3.8-.4.4z"/><path d="M290.3 32.5l.8 1.2-.1.1-1.1-.9.4-.4zm.8 1.2l1 1-.1.1-.9-1.1zm-31.8 6l1.1.9-.6.5h-.3l-.7-.6.1-.4.4-.4zM98.6 59.3l1-1-1 1zm-1 1.1l1-1-.1-.1-.9 1.1zm-8.2 5.1l1-1-.1-.1-.9 1.1zm-14.3 8.1l1-1-1 1zM74 74.7l1-1v-.1l-1 1.1zm-3 2l1-1-1 1zm-.1 0l-1 1 .1.1.9-1.1zm-2 2.1l1-1-.1-.1-.9 1.1zm-7.8 67.8c-.3.1-.6.4-.8.3-.6-.3-.3-.7 0-1l.8.7zm.9-1.1l-.9 1.1-.7-.7 1-1 .6.6zm-.5-9.8l1-1 .5.5-1 1-.5-.5zm11.7-8.6l-1.1.9-.4-.4 1-1 .5.5zm29.5 73.3l-1 1v.1c0-.3 0-.7-.1-1l.2-.2.9.1zm-1.1 1.1l-1 1 .1.1c-.1-.3-.2-.5-.2-.8l.3-.4c.3 0 .6 0 .8.1zm-94 2l-.4-.1.4.1zm91 0l-.9 1.2-.2-.2 1.1-1zm-22.7-78.9l1-1 .5.5-1.1.9-.4-.4zm-17.3 31.8l1-1 .1.1-1 1-.1-.1zm-42.9 55.3c.1.2.1.5.2.7 0 .1-.1.2-.2.3v-1zm112.5 3l-1 1 1-1zm-2 2.2l1-1-1 1zm-3.1 1.9l-1 1.1-.1-.1 1.1-1zm-4 3.2l-1 1 1-1zM81.4 120.9l-1.1.9-.3-.3 1-1 .4.4zm-13.7 9.8l1-.9.4.4-1 1-.4-.5zm17.8-12.8l-1.1.9-.4-.4 1-1 .5.5zm36.3 137.5l1-1 .7.7-1 1-.7-.7z"/><path d="M120.7 256.4l1-1 .7.6-1 1.1-.7-.7z"/><path d="M121.5 257.1l-1 1-.7-.7 1-1 .7.7zM64.1 110.8l-1 1-.6-.6 1-.9.6.5zm139.8 148.9h-1l.1.1c.3-.4.6-.4.9-.1zm-4.1.1l1 1 .1-.1-1.1-.9zm3.1-.1l-1 1 .1.1.9-1.1zm1 .1zm-3.1 1h1.1l-.1-.1c-.3.6-.6.7-1 .1zM66.6 108.1l1-.9.5.5-1 .9-.5-.5zm185.3-24.3l-.4 1.6c-.2-.1-.7-.2-.7-.4-.1-.8.7-.9 1.1-1.2zm20.5 50.9l-.4-.2c.1-.1.3-.1.5-.1.1 0 .3.1.4.2l-.5.1zm-4.1 10.5c.7-1.1 1.8-1.8 3.1-2v-.1c-.6 1.1-1.7 1.9-3 2.1h-.1zM255 82.8c-.8.7-1.9 1.1-3.1 1v.1l3.1-1.1zm3.1 4.1l-1.3-.4c.1 0 .3-.1.4-.1.3.2.6.4.9.5zm0 .1l1 .6h-.4l-.6-.6zm10.4 141.2c-.1.1-.1.3-.2.4-.1.1-.3 0-.5 0l.3-.7.4.3zM221 199c.5-.5 1.3-1 1.7-.4.5.9-.6.8-1 1.1l-.7-.7zm46.1-51.5c-1-1.5-.2-2 1.2-2.3l.1.1-.9 1.8-.4.4z"/><path d="M273.4 142.1l-2 1v.1l2-1.1zm-5.9 4.9l2 1.1-.4.4-2-1 .4-.5zm-26.7 23.8l-.4-.6c.1.1.1.2.2.2 0 .2.1.3.2.4zm62.4 10.2l-.4-.6c.1.1.2.1.2.2 0 .2.1.3.2.4zM255 82.8l.6-.4-.6.4zm8.2 10.3l1 1-1-1zm12.3 47l-1 1 .1.1.9-1.1zm0 0zm-2 2.1l1-1-.1-.1-.9 1.1zm-3.9 5.9l.3.6-.7-.2.4-.4zM165.1 66.5l1.7-1.4.6.6-2.3.8zm6.1-5.2v1.1c-.2.1-.5.2-.8.3l-.6-.6 1.4-.8z"/><path d="M170.4 62.7l-.9 1.1-.7-.6 1-1 .6.5z"/><path d="M167.9 64.2l1-1 .7.6-1 1-.7-.6z"/><path d="M166.8 65.1l1.1-.9.6.6-1.2.9-.5-.6zm-35.5 58.6l-1-1-.1.1 1.1.9zm-2-2l1 1 .1-.1-1.1-.9zm0 0zm25.6 79.8l-1-2.1c1 .4.7 1.3 1 2.1zm-.1 2.1v-2.1c.5.5.5 1.5 0 2.1zm53.7-120.1l-.1-.4.3.1-.2.3zm-20.6 83.9c.4.9.2 1.2-.7.7l.7-.7zm-1.3-10.9zm2-5.2zM118 135c.7-1 1.7-.9 2.7-1.1 3.8-.6 6.4 1.2 7.5 4.6.8 2.5-.3 4.6-2.7 6-3.2 1.8-6.1 1.2-8.2-1.5s-2.4-5.6.7-8l.2.1-.2-.1zm4.6 3.9c-.1.4-.1.9-.1 1.4 0 .2.5.2.8.4l.3-1.2c0-.3-.5-.4-1-.6zm-11.8-23.4l-.2.2.2-.2zm31.7 27.6l1.1 1.1-1.1-1.1zm98.2 79.8c2.2.4 3.8 2.9 4 6.1.1 2.1-1.7 3.2-3.9 3.2-4-.1-5-3.1-5.1-6.3-.1-2.2 1.2-3.5 5-3zm.4 4.4c-.2-.1-.5-.2-.8-.3-.1.1-.1.2-.2.4 0 .1.2.3.2.3.4-.1.6-.2.8-.4zM174.6 167c-3 1.9-3.8 7.4-9.5 5.5 2.2-3.5 6.1-4 8.9-6.2l.6.7zm-6.5-15.6c.4-1.4 1.7-2.2 3.1-2-.4 1.3-1.7 2.1-3.1 2zm-3.1 2c.5-1.3 1.7-2.1 3.1-2-.4 1.3-1.7 2.2-3.1 2zm3.1-21.5c-.6 1.1-1.8 1.9-3.1 2v-.1c.6-1.3 1.8-1.7 3.1-1.9zM163 135l2-1v.1l-2 .9zm5.2-3l.3-.8v.4c-.1.1-.2.2-.3.4zm-33.9-67.5v-3.2c.9.7 1 2 .3 2.9 0 .1-.1.2-.3.3zm7.2-13.3v-1.1l.8.4-.8.7z"/></svg>