<svg viewBox="0 0 283.55 78.69" xmlns="http://www.w3.org/2000/svg"><path d="M3.84 68.13c-1.43-.06.11-1.44-.77-1.74.45-.3.93-.57 1.43-.16a.83.83 0 0 0 1.26 0c0 .58.37.67.83.58.11 0 .35 0 .21-.27s-.57-.37-.94-.32l-.14.05C6 65.35 4.52 66 4.59 65c0-.64-.29-1.09.66-1a2.2 2.2 0 0 0 1.08-.21c.75-.35.82-.48.49-1.25a.56.56 0 0 1 0-.31c.24-1.25-.19-2-1.51-2.16a.57.57 0 0 1-.55-.5c0-1-.72-1.27-1.5-1.56-.45-.17-.77-.54 0-.77s.63-.43.1-.79-1.08-1.11-2-1.19A1.62 1.62 0 0 1 0 53.82a1 1 0 0 1 1.17-1c.16 0 .39-.09.27-.26-1-1.4.8-1.65 1.12-1.82 1.09-.6.62-1 0-1.32-.87-.41-1.51-.77-1-1.86.07-.13-.06-.29-.21-.38-.87-.48-.36-.65.18-.82.25-.08.61-.11.55-.44s-.41-.26-.66-.28a2.37 2.37 0 0 1-.63-.06c-.3-.11-.65-.33-.23-.65 1.09-.81 1.63-2.23 3-2.72.2-.07.44-.06.47-.32s-.17-.48-.44-.59c-.51-.2-1.4.05-1.43-.67s.89-.62 1.37-.85a1.72 1.72 0 0 0 1.08-1.26c.08-.47.16-.78.63-1 .25-.1.5-.44.34-.63-1.52-1.77.53-1 .83-1 1-.13.89-.55.39-1.08s-.39-.76.13-1.29a2.28 2.28 0 0 0 0-3.11c-.36-.46 0-.34.17-.42a6.2 6.2 0 0 1 .73-.32c.2-.06.45-.06.48-.31s-.27-.26-.45-.3c-.45-.09-1.17.09-1.18-.51s.77-.72 1.22-.74c1.06 0 1.29-.35.85-1.36-.31-.7 0-1.24.9-1.23a5.32 5.32 0 0 0 .8 0c.19 0 .5-.12.54-.25.07-.29-.26-.22-.42-.32A6.33 6.33 0 0 0 8.78 24c.92-.83 2-.32 3.05-.46.77-.11 1.74.47 2.2-.77.14-.37.89-.16 1.36-.13a25.85 25.85 0 0 0 3.92 0 26.38 26.38 0 0 1 4.58 0 1.79 1.79 0 0 0 1.75-.64c.13-.15.38-.23.3-.49s-.34-.2-.53-.23c-1.94-.22-3.89-.37-5.81-.68-1-.16-1.95-.37-2.93-.53-.14 0-1.17-.22-.07-.54.16 0 .3-.19.21-.35a.43.43 0 0 0-.39-.14c-1.54.93-3.12.06-4.67.12-.2 0-.42.21-.58 0s.18-.33.28-.51.21-.27.23-.42c.09-.82.13-.91.94-.78 2.18.33 4.35-.21 6.53-.06a49 49 0 0 0 10.57-.34c.25 0 .59.1.73-.15.76-1.31 2.2-1.21 3.34-1.43a88.81 88.81 0 0 1 10.29-1.61c2.94-.21 5.86-.66 8.8-.92a1.46 1.46 0 0 0 .43-.11c0-.27-.28-.19-.45-.22-1.63-.27-3.29.12-4.91-.13-3.19-.5-6.3.4-9.46.45a19.84 19.84 0 0 0-3.29.47c-.42.08-.86.31-1-.34s0-1 .65-1a2.22 2.22 0 0 0 .63-.11c.15-.06.51.07.4-.29a.52.52 0 0 0-.5-.34 2.38 2.38 0 0 0-1.52.37c-.62.46-1 .06-1.33-.35l-.05.06c1 .12 1.47-.8 2.05-1.21 1.22-.83 2.76.05 3.78-1 .1-.11.4 0 .45.28.19 1.16.85.41 1.3.28s-.6-.91.37-.86h1.73A5.39 5.39 0 0 1 44 9c1.21.4 2.15-.28 3.15-.65a3.28 3.28 0 0 1 1.2-.23c4.49.06 9-.36 13.46-.54 3.63-.15 7.26 0 10.88-.24a54.75 54.75 0 0 1 8.38-.08c1.21.11 2.41.16 3.62.17 2.52 0 5 .08 7.56 0 3.29-.09 6.56.5 9.86.27 2-.14 3.88-.56 5.83-.75 2.41-.23 4.81-.55 7.22-.81 3.1-.33 6.2-.75 9.32-.92a26.12 26.12 0 0 1 4.83-.25 13.44 13.44 0 0 0 4.11-.4 54.27 54.27 0 0 1 6.43-.66 57.79 57.79 0 0 1 7.42-.39c1.4.06 2.83 0 4.19-.08 2.2-.08 4.41-.09 6.6-.09 3.6 0 7.19-.07 10.79-.09 2.67 0 5.34-.24 8-.25 1.2 0 2.47-.52 3.63.23 1.52-.77 3.12-.1 4.66-.23 5.33-.46 10.67-.14 16-.43 5.15-.27 10.3-.5 15.44-1.05 2.51-.27 5.05-.4 7.59-.5 3.79-.15 7.56-.71 11.37-.64h8.23q4.87 0 9.74.09c.88 0 1.79.16 2.63.25 1.89.2 3.76-.23 5.62.1.21 0 .38.12.59 0 2.65-1.45 5.4-.55 8.12-.43.2 0 .46 0 .52.26s-.2.47-.44.55a5.62 5.62 0 0 1-1.9.15c-.28 0-.73-.26-.78.19s.46.35.74.45a7.21 7.21 0 0 0 2.2.08c.65 0 1.4 0 1.45.85 0 .66.21 1.61-1 1.59a1.11 1.11 0 0 0-.81.45c-.71.75-.67 1.24.31 1.4s.88.68.51 1.24c-.24.37-1.43.59 0 .94-.39.69-.05 1.75-1.08 2.11v-.09.05c.14.33 1.15.83-.14.9-.36 0-.58.23-.87.32s-.67.3-.35.77.52.56.74 0a1 1 0 0 0 0-.15c.92 0 1.34.84 2 1.33a.76.76 0 0 1 0 1.31c-.46.39-.7 1.05-1.41 1.18-.14 0-.39 0-.41.33-.05.76-.08.77-.87.72-.45 0-.88-.09-.88.57 0 .38-.34.31-.55.44a12.12 12.12 0 0 0-1.08.79c.53.23.93-.05 1.32-.33s.65-.34.88.15a1.36 1.36 0 0 0 .86.65c.16.06.46-.07.45.2 0 .09-.34.23-.54.26-1.38.21-2.17 1.61-3.61 1.75-.48.05-.56.59-.2 1 .19.21.68.44.06.59s-.28 1.11-1.11.71c-.48-.23-1-.26-.47-.93.15-.19.49-.38.28-.63s-.58-.17-.91-.13c-.68.09-1 .69-1.23 1.15s.59.38.75.66c.85 1.5 2.19.1 3.21.57.39.18 1.17-.37 1.19.37 0 .57-.45 1-1.24.63-.38-.2-.65.09-.8.52-.83 2.32-.81 2.24 1.77 2.28a47.07 47.07 0 0 1 9.23 1 23.64 23.64 0 0 0 3.32.19c.38 0 .88 0 .92.43s-.47.42-.81.56a9.49 9.49 0 0 1-2.67.37c-.14 0-.34 0-.36.17s.16.26.32.28a4.1 4.1 0 0 0 1 .1 15.25 15.25 0 0 1 5.23.84c.37.09.37.1.09.56 0 .08-.12.22-.09.27.94 1.49-.43 1-1 1.23-1.62.63-3.22-.19-4.83 0-.4 0-1-.1-1.06.45s.62.65 1 .73c.67.13 1.37.12 2.06.21.87.11.87.64.34 1.1s-1.26.93 0 1.4c.1 0 .12.28.17.43a2.2 2.2 0 0 0 2.11 1.72c.22 0 .44.1.43.36s-.22.31-.41.41-.94-.13-.88.35.66.42 1.09.38.86-.16 1 .27-.48.62-.73.68c-1.24.31-2.13 1.48-3.6 1.25-.75-.12-1.07 1.14-2 1-.18 0-.15.32.09.43s.47.3.57.24c1.18-.71 1.85.52 2.79.69.21 0 .44.08.4.36s-.33.18-.51.24c-2.53.94-5.23.9-7.84 1.26a17.64 17.64 0 0 1-3.74 0 76.49 76.49 0 0 0-4-.2c-.22 0-.6-.14-.62.25s.33.36.58.41.71.45 1.05.2c.59-.44 1-.14 1.58.09s1 .47 1.51.06a.66.66 0 0 1 .87 0 1.26 1.26 0 0 0 1.73-.08c.35-.33.75-.13.87.29s-.21.63-.63.71-1.6-.29-1.6.24 1.07.24 1.63.28c1.43.1 2.81.52 4.23.64.19 0 .48 0 .51.24s-.27.39-.42.39c-1.47.07-2.08 1.53-3.3 2-.37.14-.2.34.1.51 1 .57 1.92 1.26 3 1.74.77.35 1.23 1.16 2 1.51.51.22.11.35-.09.47-1.15.68-.65.88.28 1 .28 0 .61.13.6.41s-.36.32-.6.44c-.39.19-1.69-.8-1.09.82 0 .12-1 .35-1.24.28-1-.3-1.83.31-2.67.61-.49.18-1-.8-1.16 0s.73.76 1.23 1l.15.06c.52.21 1.42.28 1.26.93-.12.48-1.1.64-1.64.44-.72-.26-1.49-.1-2.18-.41-.3-.13-.66-.28-.83 0s.29.37.42.56c.31.46 0 .58-.37.5-2.64-.61-5.34-.37-8-.5a35.56 35.56 0 0 0-4.41.24 2.84 2.84 0 0 0-.42.1 2.46 2.46 0 0 0 .42.17c2.17.44 4.32.92 6.5 1.29 3 .51 5.91 1.55 8.94 2a3 3 0 0 1 1 .53c.12.07.36.06.31.28s-.22.16-.37.15a10.84 10.84 0 0 1-1.91-.14 3 3 0 0 0-2.44.28 1.54 1.54 0 0 1-1.24.14c-.84-.22-1.66-.45-2.32.41a.48.48 0 0 1-.44.11c-1-.44-2.07.07-3-.07-3.38-.53-6.7 0-10 .17a2.48 2.48 0 0 1-1.09-.14c-.33-.13-.81-.33-1 .05s.24.66.53.91.36.23.52.36a2 2 0 0 1 .26.32 2.5 2.5 0 0 1-.45 0c-.56-.15-1.12-.33-1.68-.48-3.47-.91-7.05-.79-10.57-1.23a42.07 42.07 0 0 0-6.76-.73c-.38 0-1.49 0-.77-1.09.25-.4-.31-.44-.59-.44-3.54 0-7.07-.12-10.62.12a17.6 17.6 0 0 1-4.35 0 19.83 19.83 0 0 0-4.19.15 3.08 3.08 0 0 1-.62-.1c-2-.18-4 .33-6-.16-1.36 1-3-.3-4.37.5-.58.33-1.08-.7-1.36-.45-1.28 1.16-2.86-.7-4.06.52-1.2-.8-2.53.3-3.75-.24a1.16 1.16 0 0 0-1.07 0 1.53 1.53 0 0 1-1.66 0 .88.88 0 0 0-.6-.14c-1.78.43-3.6-.13-5.33.07-4.45.5-8.94.39-13.39 1.06a44.27 44.27 0 0 1-7 .56c-1.25 0-2.82-.59-4 .62a.3.3 0 0 1-.42.06c-.83-.49-1.66-.76-2.47 0-1.12-.72-2.24 0-3.36 0a76.88 76.88 0 0 0-8.85.32c-1.63.16-3.27.28-4.91.42-3.58.32-7.11.89-10.67 1.34-4.73.6-9.46 1.19-14.17 1.89a45.9 45.9 0 0 0-7.3 1.21 9 9 0 0 1-1.43.07c-.69.1-1.61-.42-2 .67 0 .06-.2.1-.29.08a8.93 8.93 0 0 0-3.26.43 30 30 0 0 1-7.85.73h-.32c-.74 0-.74 0-1.12.82-.11.23-.36.11-.51.08-3.3-.61-6.56.32-9.81.24-2.21-.06-4.4.29-6.62 0-1.61-.18-3.26-.07-4.89-.13a31.63 31.63 0 0 1-7.6-1 8.52 8.52 0 0 0-1.74-.09c-.2 0-.44 0-.5-.31a.56.56 0 0 1 .32-.64c.19-.12.81.22.53-.34-.19-.37-.61-1.08-1-.86-.87.5-1.55-.1-2.29-.18-3.19-.34-6.36.25-9.52.13-1.92-.08-3.84.76-5.73 0-1.4.81-2.91 0-4.4.27s-3.12-.25-4.69-.39c-.26 0-.51-.19-.76-.18-4.5.29-8.89-.6-13.32-1.18a43.43 43.43 0 0 1-9.62-2.39c-.62-.14-1.3.15-1.9-.22-.18-.1-.42-.16-.4-.42s.32-.22.49-.22c.73 0 1.48-.27 2.2.13a1.78 1.78 0 0 0 1.09.17c.37 0 1 .22 1-.22s-.61-.24-.91-.38c-1.64-.75-3.73-.38-5-2-.19-.14-.26-.51-.58-.41-.15 0-.16.25-.1.42zm57 8h.05v.07zM41.59 10c-.42.09-.61.33-.42.75 0 .07.18.15.23.13.47-.19.1-.61.22-.9-.05-.1 0-.12 0 0s.16-.12-.03.02zm224.24 40.45c.47 0 .95.08 1.42.09a1.63 1.63 0 0 0 .45-.12c-.05-.16-.18-.18-.33-.21-2.53-.37-5.1-.42-7.61-1a.62.62 0 0 0-.67.18c.19.07.39.13.57.21 1.98.9 4.11.62 6.17.85zm-2.5-2c-.08-.19-.17-.4-.42-.4a28.46 28.46 0 0 1-3.22-.23c-.18 0-.7 0-.68.39 0 .14.43.38.64.36a6.23 6.23 0 0 1 3.05.37c.3.12.6-.12.63-.53zM8.62 66.82c-.23.07-.71.06-.64.17a1.3 1.3 0 0 0 1.09.5c.2 0 .51 0 .46-.26-.1-.48-.53-.35-.91-.41zm262.24-52.4c-.06-.3-.27-.31-.47-.27s-.53.11-.52.44c0 .05.26.15.4.15s.53 0 .6-.32zm-227.1-4c-.21 0-.44 0-.49.23a.27.27 0 0 0 .33.36c.24 0 .58 0 .63-.3s-.23-.27-.47-.31zM5.61 59a.33.33 0 0 0-.23-.36.35.35 0 0 0-.5.18c-.08.18.07.27.21.31a.49.49 0 0 0 .52-.13zm259.46 10.16c0 .23.14.23.27.23a.8.8 0 0 0 .28-.1c-.07-.11-.12-.28-.22-.33s-.26.04-.33.2zM40.7 11.26c.11-.24.06-.32-.07-.32s-.35.17-.36.39.08.17.13.25zm233.12 23.9c.29 0 .43 0 .52-.14a1.12 1.12 0 0 0-.4-.17 1.3 1.3 0 0 0-.43.16zM7.15 37.28A.28.28 0 0 0 6.9 37a.34.34 0 0 0-.24.15.21.21 0 0 0 .13.34.3.3 0 0 0 .36-.21zM157.69 8.55c-.1-.07-.15-.14-.21-.14a1.12 1.12 0 0 0-.28.06s.09.1.14.11a1.9 1.9 0 0 0 .35-.03zM32.12 17.07l-.13.14s.1.05.12 0a.7.7 0 0 0 .13-.14zm-18.27 1.81l.27-.13c-.08-.05-.17-.14-.26-.15s-.31 0-.29.18c.01.04.18.06.28.1zM159.66 8.5a1.32 1.32 0 0 0-.21-.16.17.17 0 0 0-.14 0c-.09.08-.07.18.07.2a.77.77 0 0 0 .28-.04zm-92.9 4.18a.38.38 0 0 0 .11 0v-.08a.38.38 0 0 0-.11 0s.02.05.01.08zm-48.22 6.64l-.12.07.07.09.18-.12zm253 15.46h.12s-.06-.06-.1-.07-.08 0-.12 0zM9.66 37.88a.5.5 0 0 0-.1-.09c-.12-.06-.21 0-.2.12s.11.16.21.09.06-.07.09-.12zm257.62-17.2s-.05-.09-.08-.09-.06 0-.1.07.05.09.08.09.07-.04.1-.07zM271 61.9l.07.05v-.07zM243.24 5.24l-.06.08h.09z"/><path d="M32.62 11.56c-.82-.27-.73.8-1.33.89-.37.06-.82.28-1-.09s.17-.64.57-.73a2.23 2.23 0 0 0 1.35-.78c.18-.23.22-.69.62-.44.57.35-.09.59-.16.89 0 .1-.06.2-.08.3zM32 13.87c-.21.05-.43 0-.43-.17 0-.42.41-.4.68-.5a.28.28 0 0 1 .38.34c-.09.31-.44.25-.63.33zm243.49 39.67c-.15 0-.38.07-.33-.13s.35-.34.59-.38c.07 0 .23.08.24.14.01.4-.31.29-.5.37zM10.28 18.37c.21 0 .34.13.33.28s-.26.23-.44.19-.36 0-.21-.25.23-.16.32-.22zm-2.9 8.17l-.06.13a1.65 1.65 0 0 1-.2-.13v-.12zm267.43 23.24a.74.74 0 0 1-.26.07c-.08 0-.16-.08-.23-.13a.73.73 0 0 1 .27-.08c.07.01.14.09.22.14zM4.48 68.12c-.2.79-.43-.11-.64 0h.68zM96.27 4.33l.13-.02-.03.09zm183.28 56.01l-.1-.04.11-.03zM161.27 72.47l-.15.03.03-.09zM55.73 77.53v.08l-.1-.04zm55.54-.31l.1.05-.11.03zM8.85 24.09h.09q-.13-.09-.05.08z"/></svg>