<svg viewBox="0 0 234.91 63.64" xmlns="http://www.w3.org/2000/svg"><g fill="#ffcc17"><path d="M0 38.11v-.38a38.29 38.29 0 0 1 5.83-.25c-.67-1.36-2-.86-2.88-1.37 0-.69.91-.78.78-1.56-1-.15-.85-1.31-1.53-1.91-.51-.45-.54-1.44-1.49-1.53.53-1.1 1.56-1 2.34-1.31s1.16-.43 1.24-1.19l.09-.09v.13c-.42-.35-1.13-.29-1.33-1 .87-.47 1.67-1.06 2.71-.78l.24-.53c0-.92-1-.28-1.09-1 .27-.5 1 .14 1.24-.57-.23-.63-.93-1-1-1.85-.11-.42.48-.69.36-1.18a2.78 2.78 0 0 0-2.47-1.65c.28-.41.88-.31.79-.86l-.39-.44a2.34 2.34 0 0 0 1.16-1.18c1.23.25 2.21-.6 3.42-.52-.18-.47-.88-.28-.71-.85.17-.39.65 0 .87-.44a3.79 3.79 0 0 1-2.51-.87c3.92-.79 7.77-1.38 11.66-1.9-1.3-.57-2.69-.38-4-.62S11 11.12 10 10.23c1.25.12 2.32-.53 3.48-.57a61.46 61.46 0 0 0 9.32-1c.65-.12 1.28.12 1.88-.07 2-.61 3.94-.29 5.92-.17q2.66.15 5.32.25c.37 0 .79 0 .83-.62-4.47-.82-9.05-1.28-13.35-3.14.47-.76 1-.53 1.51-.55 3.19-.15 6.35.43 9.56.27 3-.14 5.93.33 8.89.24 2.65-.08 5.3-.13 7.94-.2 3.31-.08 6.62-.3 9.94-.32 2.53 0 5-.57 7.57-.14.06 0 .14-.16.28-.32-1.48-.27-2.92-.57-4.37-.79a24.6 24.6 0 0 1-4.54-1.27c-1.32-.46-2.83-.37-4-1.29C57.8.8 59.37.06 61 .36a8 8 0 0 0 2.19.18 24.92 24.92 0 0 1 4.89-.13 41.72 41.72 0 0 0 5.1.3c5.12-.2 10.21.55 15.35.33 3.78-.16 7.54-.42 11.3-.7 2-.15 4-.37 6.06-.34 7.68.11 15.36-.11 23 .49 3.16.24 6.33.07 9.48.38a15.85 15.85 0 0 0 4.11.16 1.7 1.7 0 0 1 1.77 1.06c.12.28-.55.24-.12.62a5 5 0 0 0 .72 0 70.69 70.69 0 0 1 9.85-.64c2.61 0 5.23.19 7.83 0 2.87-.16 5.71-.74 8.6-.92 3.4-.21 6.79-.65 10.18-1a6.15 6.15 0 0 1 1.14 0c2.29.2 4.58.25 6.88.28 2.57 0 5.13.19 7.7.13a6.78 6.78 0 0 1 2.87.38l.29-.5a12.59 12.59 0 0 0 4 .31c1.26.91 2.71.32 4.06.43 1.52.13 1.61 0 2.32 1.52-.84.47-1.14-.56-1.86-.69a1.22 1.22 0 0 1-1.48.72c0-.32.05-.79-.64-.57.19.28.34.52.69.53-.16.4.14.89-.24 1.25-.61.06-.74-.93-1.41-.67-.36.34.19.53.09.8-.66.26-1-.33-1.61-.51-.7.88-1.47.56-2.2 0-.26.6-.91.61-1.44 1 4.08.23 4.08.23 4.65 1.45-.52.39-1.11-.52-1.57.06s-1.14-.07-1.55.08-.32.82-.84.8c-.35-.19-.63-.67-1.11-.31-.12.35.44.49.25.79-.91.58-1.24-.86-2.06-.53.05.3.55.46.13.89a6.06 6.06 0 0 0-3.39.46c.44.39-.15.76.18 1.31.95-.33 2 .29 2.85-.16.71.26 1.06 1 1.79.85v-.05c.45.51 1.06.36 1.61.31 2.51-.21 5-.2 7.53-.3 2.7-.11 5.4-.23 8.09-.44a4.78 4.78 0 0 1 2.23.2l2.31-.59L223 10l1.33-.25.63 1.08c.28.23.78-.46.91.37-1.61.3-3.15.8-4.78 1.05 2 .12 3.92.56 5.74-.13.43.23 0 .47.2.59a5 5 0 0 0 2.48.62l-.93.78c-1.32-1.12-2.53.06-3.73 0-.22.4-.12.9-.66.94-.56.22-.34-1.11-1.08-.54a4.22 4.22 0 0 0 .26 1.64l-.86.41c-.06.55.43 1.08 0 1.66-.59-.2-.92.39-1.41.56-.5-.34-.65-1.17-1.47-1 0-.36.08-.76-.52-.61a.62.62 0 0 0 .57.57c-.26.92.71 1.36 1 2.16-1.17.36-1.28-1.08-2.15-1.06a1.89 1.89 0 0 0-1.45.82c1.79.86 3.75.5 5.47 1.49l.23-1.1c1 .45 1.31 1.71 2.38 2.09.41-.09.18-.79.74-.73.77.23 1.05 1.09 1.81 1.4.41.42 1.12-.23 1.58.44-.17.84-.82.9-1.54 1a10.34 10.34 0 0 0-4.71 1c1.53.17 1.53.17 2.41.88 3.23.43 6.43-.55 9.54.41-.21.83-1 1.11-1.52 1.54-1.06.24-2.17 0-3.2.62.55.72 1.36.4 1.82.61l2.15 2-.38.57c.41.25.9.38 1.18.81-.23.38-.92.52-.6 1.09a16.3 16.3 0 0 1-3.72.84c-.36 0-.83-.31-1.2.3l2.07 1.11-.09 1.19c-1.24.38-2.21-.43-3.22-.68-.45.22-.14.82-.55.92a28.13 28.13 0 0 0-8.39-.53 7.19 7.19 0 0 0 3.18 1.13c1 .26 2 .58 3.11.78s2.19.6 3.32.75a7.25 7.25 0 0 1 3.11 1.1 39.08 39.08 0 0 1-7.3 0 20.07 20.07 0 0 0-5.87.12c-2.18.34-4.44-.29-6.59.65-.08.23.31.48.08.81l-8.28.45.9 1.52c.54 0 .48-.68 1.1-.59.22 1 1 1.26 1.95 1.55s2 .34 2.73 1.16l.06-.07c-3.18.56-6.4.13-9.41.45 1.38.36 2.47 1.69 4.16 1.9-.37.36-.89.13-1.06.57s.54.39.57.45c-.28 1.28-1.22 1.64-2.14 2.08l-.33-.7-1.21 1.13c-.17-.35-.23-.75-.71-.46v.85l1.54.76c-2.89 1.3-5.81 1-8.73.91-2.72-.05-5.39-.86-8.23-.42a12.16 12.16 0 0 0 2.89.94c1.34.08 2.62.45 3.94.56s2.88.16 3.77.91a3.07 3.07 0 0 0 3 .64c.58.25.9.8 1.51.85-.32.73-1 .78-1.6.69-.87-.13-1.76-.09-2.63-.18-4.31-.44-8.63-.37-12.94-.39-5.46 0-10.92-.09-16.38.16-6.72.31-13.47-.2-20.21.06-3.81.15-7.65-.1-11.45.14-5 .31-10 .2-15 .82-2.33.29-4.72.22-7.07.3-5.07.17-10.15 0-15.21.63a1.4 1.4 0 0 1-.75 0c-1.4-.73-3-.52-4.45-.63a34.86 34.86 0 0 0-8.17 0 3.87 3.87 0 0 1-2.78-.13c-.37-.22-.57.42-.94.36a5.32 5.32 0 0 0-2.41-.55c-2-.12-4 .47-6.07.32a50.8 50.8 0 0 0-11.13.72 83.32 83.32 0 0 1-10.32.94 2.72 2.72 0 0 0-.57 0c-2.71.65-5.51.6-8.26 1-3.49.55-7 1-10.5 1.51a10.75 10.75 0 0 1-3.42.11 7.15 7.15 0 0 0-.72-2.59c-.83-1-1.33.38-1.93.25s-.8-.39-.66-.85.91.13 1-.57c-.61-.38-1.28.2-2-.23-.28-.88-1.22-1.17-2-1.63-.46.12-.8.65-1.43.41l-.46-.69c-1.42.57-2.47-.72-3.76-1-.17.26 0 .62-.42.58l-2-1.2-.18.52c-.41 0-.86.15-1-.52s-.61-.54-1-.34.41.92-.32 1.08c-.6-.2-.23-1-1-1.23-1.32.63-2.26-.58-3.39-.95-.46.13-.12.71-.76.7-.28-.58-.91-.71-1.6-.88a5.77 5.77 0 0 1-2.74-1c.29-.15.75.08.9-.39-.18-.67-.79-.67-1.28-.84.05-.18.06-.48.17-.52a8.36 8.36 0 0 1 2.63-1c1.81-.08 3.62-.29 5.43-.44.24-.17.2-.44.25-.68.46.27.78.81 1.52.71l1.15-.72c.18.38.3.84.87.68.25-.18.22-.44.24-.67a2.14 2.14 0 0 0 1.7.28c-.18-.43-.74-.44-.65-.95s.52-.42.89-.42c.26.34.19 1 .87 1a.49.49 0 0 0 0-.76 1.21 1.21 0 0 0-.93-.14c.21-.22.31-.56.68-.64l1.8.8c.27-.7 1.39-.18 1.54-1.22-.79-.36-1.67.07-2.41-.28-.55-.07-.58-.87-1.16-.82s.17.83-.49.83a.77.77 0 0 1-.52-.51 1.26 1.26 0 0 0-.69-.9 59.72 59.72 0 0 1-7.81-.76 13 13 0 0 0 1.92-2.48A14.26 14.26 0 0 0 3 41.07c.19-.84 1-.37 1.35-.86-.61-.86-1.57-.36-2.31-.69S.74 38.47 0 38.11zm217.78-25.72c.53-.17 1.12.19 1.74-.23-.68-.19-1.26-.39-1.7.29-.23-.16-.46-.47-.75 0 .25.34.48.22.71-.06zm-23.54-4a5.89 5.89 0 0 0-2.32.07c-.06.65.24.81.64.87s.22-.42.4-.61c.35-.27.87.12 1.28-.34zm9.44 34.19a1.55 1.55 0 0 0-1.38-.06c.7.48.7.48 1.38.05zM8.09 26.18c-.4-.46-.73-.49-1.09.18.44.28.78.42 1.09-.18zM189.86 9.42c.59-.33.89 0 1.18-.34a1.29 1.29 0 0 0-1.18.34zm29.63 5.28c-.13-.4-.4-.32-.68-.21.19.22.34.51.68.2zm1.38 2.19a.49.49 0 0 0 .44.62s.2-.2.18-.28c-.04-.23-.22-.43-.61-.35zm4.42 6.89c-.14-.17-.3-.13-.47-.05a.34.34 0 0 0 .47.04zm-10.13-4.31c-.15-.17-.3-.18-.42 0a.18.18 0 0 0 .05.17c.21.17.31.01.37-.18zm-14 22.84c0 .26.1.3.31.24-.1-.15-.15-.29-.35-.24zm3.94-39.74c.12-.17.22-.32 0-.44-.24.16-.24.3-.04.44zM12.73 11.34a.26.26 0 0 0-.42 0s.08.11.12.1a1.81 1.81 0 0 0 .3-.1zM27.48 60c.1.13.19.16.28 0zm168.64-49.58a1.66 1.66 0 0 0-.24-.14s-.06.06-.09.1zm1.29 0c.06 0 .13.06.17 0s.08-.14-.11-.15c-.02.03-.04.1-.06.14zm20.73 7.84h-.15s.05.14.19.07a.93.93 0 0 0-.04-.09zm7.78 4.35h-.13a.19.19 0 0 0 0 .16c.07.14.15.12.2 0s-.06-.13-.07-.18zM197 7l-.26-.05s0 .08.05.08A1.07 1.07 0 0 0 197 7zm30.41 16.8c-.1 0-.2-.14-.29-.13s-.19.16 0 .23.19-.06.29-.1zm2.21 10.31a.16.16 0 0 0 .28 0q-.11-.11-.28 0zm-14.35-19.24a1.61 1.61 0 0 0-.24-.12s-.06 0-.09.08zM4.2 52.78l-.07.11h.13z"/><path d="M211.66 2.54l-.83-1.09c1.09.56 2.3-.54 3.32.27-.37.68-.86.39-1.33.25s-.64.59-1.16.57zm5.1-.97c.81-.56 1.32-.17 1.82.35-.63.08-1.31.39-1.82-.35zM9.07 11.1l-.71-.1c.21-.71.21-.71.84-.65.21.34-.14.57-.17.86zM226.22 25c.2.13.43.23.43.53-.31.5-.73.14-1.13.26a.8.8 0 0 1 .7-.79zM13.65 49.76h-1.2c.19-.23.15-.63.55-.72s.59.34.65.72zm216.69-26.31c-.14.3-.32.34-.54.12 0 0-.06-.14 0-.16.2-.19.35-.13.54.04zM55.07.33a.66.66 0 0 1-.84 0 .73.73 0 0 1 .84 0zm159.87 1.54c.6-.46.89-.29 1.21-.07-.38.47-.7.26-1.21.07zm-15.13 8.38a.59.59 0 0 1 .87-.12l-.92.07zM6.5 11c0-.44.12-.57.39-.56.23.31-.04.38-.39.56zM145 1c-.23.27-.46.24-.68 0a.47.47 0 0 1 .68 0z"/><path d="M9 11.16c.35-.09.7-.27 1 .07-.41.55-.7.14-1-.13zm216.18 7.22c-.32-.49 0-.42.23-.58.22.48-.09.45-.23.58zM212 46.67c-.42 0-.91.17-1.14-.39l-.06.07c.45-.09.91-.2 1.15.37zm12.92-26h-.39zM205.81 5.15c.31-.18.48-.16.63 0-.14.18-.31.12-.63 0zM13.53 56.61a.59.59 0 0 1 .16.87l-.11-.91zM224.7 9.39c.22-.43.53-.27.83 0h-.88zM212 46.72l.51.13c-.28.15-.36 0-.46-.18zM150.4.66q0 .18-.23.06s0-.09.06-.09a.72.72 0 0 1 .17.03zm2.22.13c.13-.23.26-.21.42-.13-.04.34-.24.14-.42.13zm2.85-.14c-.15.23-.28.25-.44.15.06-.36.25-.11.44-.15zM19 58.3a.49.49 0 0 1 0 .1c-.13.07-.2 0-.17-.07s.09-.02.17-.03zM210.23 5.17v.08l-.18-.06zM222.69 20a.85.85 0 0 1-.78-.36 1 1 0 0 1 .78.36zM146.8.81l-.09-.06.06.08z"/><path d="M146.77.83l.1.07-.07-.09zm75.14 18.83l-.13-.05.08.1zM1.34 52.23l-.06.14.11-.1zm.43 1.18l-.11-.07.06.12zM224.65 9.35a.37.37 0 0 1-.41.38.44.44 0 0 1 .4-.39zm-24.22 48.34l.05-.11-.08.08zM204.16.78V.62l-.1.11zm21.29 14.91l.14-.05-.01.12zM9.86 49.67l-.14-.06.09.1z"/></g></svg>