<svg id="Слой_1" xmlns="http://www.w3.org/2000/svg" viewBox="0 0 330 270"><style>.st0{fill:#ffc700}</style><path class="st0" d="M75.3 30c5.3.6 11.7-.5 16.5 4.6 4.2 4.5 3.7 7.1-2.2 9.1-1.5.5-3 .9-3.7 2.6-2.3 6.4-7.7 9.9-13.1 12.9-3.6 2-4.6 4.6-4.4 8.5.3 6.4.3 12.9-.1 19.4-.2 3.9-.4 8.4-5.9 9-.2 0-.4 0-.5.1-4.4 9.1-7.7 4.4-11.3-.7-1.9-2.6-5.5-1.8-8.3-2.4-8-1.8-9.2-4.5-4.8-11.4 1.6-2.4 2.8-4.5.8-8-2.6-4.5-.3-12 4.1-15.5 4.6-3.8 8-8.8 10-14.4C56.1 33.6 62.6 29.7 75.3 30zm89.4 88.4c3.3-4.3 6.5-8.6 9.6-12.9 2-2.8 4.8-4.1 7.7-2.3 3.1 2 .7 4.6-.4 6.9-1.5 2.6-2.7 5.5-3.8 8.3 2.5-4.5 7.4-4.5 11.2-6.6 1.4-.7 2.5-1.2 3.9 0 1.5 1.3 1.3 2.7.5 4.3-2.8 5.6-7.9 9.2-12 13.7s-9.2 6.6-15.3 6.8c.4 2.7 2.5 2.4 4.3 2.8 2.9.8 6.6 1.4 6.6 5.5 0 2.6 1 6.1-2.1 7.5-2.7 1.4-5-.6-7.1-2.2-3.8-2.9-7-3.9-10.4.9-1.5 2.2-4.2 3.7-6.5 5.1-2.8 1.9-5.5 2.6-6.4-2.1-.5-2.7-3-2.9-5.5-3-2.2-.1-4.4-.5-4.8-3.1-.4-2.4 1.3-3.8 3.1-5 2.7-1.7 5.9-2 9.8-3.4-5.3-1.4-9.9 0-14.3.3-2.7.2-7.1 1.8-7.5-2-.3-3.5 4.1-4.6 7.2-5.1 4.5-.8 9.2-1 13.9-1.6-.6-2.2-2-2.3-3.1-2.2-7.8 1.3-13.9-3.1-20.8-5.7-.8-.3-1.6-.8-2-1.6-1-1.7-3.3-3.3-1.9-5.5s3.8-1.5 5.7-.6c4.7 1.9 9.3 4 13.9 6 2.4 1 4.1 1.4 3.4-2.3-.3-1.8-.1-3.6 2.1-4.2 2-.5 3.4.6 4.5 2 3.7 4.8 8.2 9.3 6.5 16.6 2.1-2.8 2-5.9 1.5-8.7-1.6-9.8.3-19.4 1.2-29 .2-2 .6-4.7 3.3-4.5 2.6.2 2.6 2.8 2.6 4.9.1 7.2 0 14.6 0 21.8l1.4.2zm72.4 21.2c-.1 3.3-8.4 10.2-11.7 9.4-1.5-.3-3-.5-4.6-.6-1.9-.2-3-1.5-2.4-3.3 1.9-4.9 4.3-9.5 9.9-11.2 3.8-1 9 2.1 8.8 5.7zM94.3 63.1c.4-2.2.2-5.6 3.8-5.5 2.7.1 3.7 2.6 3.1 5-.5 2.6.3 7-3.5 7.1-3.2.3-3.5-3.4-3.4-6.6z"/><path d="M243.2 113.2c-2.8 6.1-7.2 11.1-10.9 16.6-.8 1.2-2.5 2.4-.8 4.1 1.4 1.6 3.3 2.7 5.2 3.3 1.6.3 1.4-1.2 1.5-2.1.3-1.8-.4-3.9 1.7-5.7 0 4.2-.1 8.1 0 11.8s2.4 7.3 3.6 10.7c2.7 8.3 8 16.5 8.1 24.8 0 10.6 2.2 19.3 9.1 27.1 1.8 2.1 2.9 4.7 3 7.4.3 12.2 2.4 24 3.6 36.1.6 6.7-2.3 12.4-3.8 18.7-2.1-8.7-.3-17.5-1.4-26.3 1.3 7.3-4.4 12.7-5.1 19.6-2.6-.8-1.9-2.6-1.6-4 2.6-12.9 1.7-26 3.8-38.9.5-3.3-1-6.1-2-9.1-2.7-8.4-7.3-16-7.7-25.2-.1-3.1-1.7-6.5-2.1-9.9-.1-1.3-.4-4.5-3.6-2.6l.1.1v-3.1l-.1.1c.8-5.2-2.1-9.6-3.5-14.4-2.9-9.8-3.3-9.8-10.8-2.9-2.7 2.4-5.2 5.1-7.8 7.8-1.2 1.3-2.7 2-4.5 2-5.1 0-8.7 5.1-7 10.5-2.8-.9-4.5-.8-5 2.7-3.5 24.8-4.8 49.9-4.1 75 0 1-.4 2.5.1 3 4.4 5 1.8 10.7 1.8 16.1 0 2.9-.1 2.9-1.2 2.8-2.9-.3-4-1.3-4.6-3-1.7-4.5.9-8.5 1.4-12.8 1.3-12.1.4-24.1.6-36.1.1-6.4-.6-13 .8-19.3.9-4.3-2-5.8-4.7-5.7-6.5.1-12.9.8-19.3-.7-.7-.2-1.5-.3-1.8.5-2 4.6-4.5 4-7.5 1-1.5-1.4-4.8-.6-4.1-4.2.6-3 1.9-5.1 5-5.8l.8.7c-.4 1.5-2 2.4-1.5 4.6 7.3-.1 14.7-2.1 22.1-2.1 13-.1 12.9-.3 13.3-13.4.1-2.7-.4-4.8-3.1-5.8-5.9-2.1-11.8-4.1-18.1-6.3.1 2.7 3.4 5.6-.9 6.7-.4.1-1-1.9-1.5.3-1 5.2-4.7 9-8.1 12.8l-.8-.6c.8-2.8 3.6-4.8 3.6-8.1 3.7-6.1 3.4-8.2-1.5-12.2-2.3-1.8-4.5-3.9-6.5-6.1-1.4-1.6-1.9-4.9-4.8-2.6-2.1 1.6-6.2 2.8-3 7.1 1.3 1.7 1.9 4.1-.5 5.9-1.5-1-1.5-2.8-2.2-4.2-.4-.7-.5-2-1.7-1.7-1.2.3-1.5 1.4-1.7 2.4-.4 2 .9 2.7 2.4 3.5 3.5 1.7 7.2 2.3 10.9 3.3 3 .8 6.7.9 8.4 4.4-7.7-1.2-15.3-2.8-23.3-2.3-.3 1.7.5 2.9 1.3 4.2.3.4-.4 1.2.5 1.3l-.6-1.3c.1-.8 0-1.9 1.2-1.9s1.4.9 1.5 1.8c.3 9.4 5.2 17.5 7.7 26.4 1.3 4.4 5.7 6.3 8.6 9.3 1.9 2 4.3 3.5 6.5 5.3 4.5 3.9 4.3 8.9-.5 12.3-1.3.9-3.5 1.5-2.3 3.3 4.8 7.1-1.3 12.1-5 14.2-5.6 3-6.8 8-9.4 12.4-.4.7-.8 1.6-1.3 2.3-1.5 2.5-4.5 3.8-7.2 2.8-2.7-.8-3.8-3.3-3.9-6.1-.3-8.5.4-17.1-.8-25.6-.5-3.7-1.4-7.2-2.6-10.6-2.2-6.2-2.5-13.6-.2-18.5 3.4-6.9 1.5-13.3 2.7-19.8.8-1.2.8-2.7.1-4v4c-3.6 14-6.5 28-3.5 42.7 1.9 8.8 2.2 17.9 2.9 27.1.3 3-.5 6-2.3 8.4-1.3-4.7-4.8-6.1-8.7-7.3-1.9-.6-3.9-2.6-3.1-4.3 1.6-3.6-1.2-6.4-.9-10.1-1 3.8-3.1 4.4-6.4 3.6-3.5-.9-3.5-3.5-3.6-6.1-.7-12.1 1.7-23.3 8.6-33.2 1.3-1.9 1.7-4.2-.1-4.8-1.8-.6-4.2-2.7-6.4-.8-.9.8-1.3 2.6-3 1.7-1.7-.8-1-2.4-1-3.8-.4-6.6 4.6-10.1 8.7-13.5 6.1-5.2 11.1-11.6 14.6-18.9 1-2.1 2.4-4.3.9-6.9-.9-1.7-.7-1.8-2.8-.3-1.3.8-2.4.2-3.5-.4-1.7-1.2-2.2-3.5-4.9-3.8-1.4-.2-.5-2.1.3-2.9 1.8-1.7 3.6-3.3 5.8-5.2-4-1.5-7.5-.4-11.2.1-2.3.3-5.8 1.6-6.7-.7-1.2-3 2.8-3.3 4.6-4.5 2.3-1.5 4.9-2.5 8.8-4.5-4.1-.3-6.8-.3-9.4-.6-2.6-.3-4.7-2.1-2.1-4.5s.7-3.1-.7-4.6c-1.6-1.4-2.9-2.9-4.2-4.6-1-1.5-3.6-3.3-2.2-4.8s4.2-2.2 6.7-1.6c5 1.3 10 3 15.3 3.3 1.2 0 2.2.5 2.7-1.4.8-2.8 5.3-3.4 7.9-1.2l-.5.6v.3l.7.7c.1.2.2.3.4.4l.5.6c.1.3.3.5.5.6l.5.5.7.8-.1-.1c.6 1.7 1.8 3.1 3.3 4.2 0 .1.1.2.2.4.1.1.2.1.2.2l-.5-.5-.3-1.8.7-.6c.5-11.4 0-23 3.5-34.1.5-1.8 0-4 2.8-3.9s2.6 2.7 2.8 4.2c1.2 8.7 4.5 17.1 3.3 27.1 5.1-4.6 9-9.1 13.8-12.3 1-.6 1.9-1.7 3.3-.9 1.4.7 1 2.2.8 3.3-.6 3.9-1.5 7.8-2.2 11.7 3.4-2.2 6.7-4.4 10.2-6.4 1.4-.8 2.7-3.3 4.4-1.8 1.7 1.5.2 3.6-.5 5.3-4.4 10.7-11.8 19.8-21.5 26.2-.9.6-2.6.6-2.5 2.2.1 1.6 1.8 1.5 2.7 2.1 1.5.9 3.1 1.5 4.4 2.6 1.6 1.4 4.9 1.9 3.9 4.8-.9 2.5-3.8 2.7-6.2 2.9-.5 0-1 .1-1.9.2.8 2.1.8 4.7 4.3 3 1.9-.9 3 .7 4 1.7 6 6.3 13.6 6.8 21.5 7 2.8.1 3.9-2.5 5.1-3.9 4.2-4.3 8.2-9.2 7.7-15.8-.2-3.3 1.5-5.3 3.5-7.2 7.8-7.7 15.3-15.5 21.5-24.4l.9.4zm-101 2.8l-.1-.2.1.2 1.2.9c-.7 2-1.4 3.9.9 5.2-.2 4.7 3.6 6 6.7 7.8 1 .6 2.9 1.6 3.5-.2.3-.8.3-3.4-2.2-3.3-.7 0-1.8.4-2.2-.7-1.6-4.8-1.6-4.8-5.8-3.5.8-2 4-4.4-.9-5.2l-1.2-1zm9.5 120.5l-1-2.1c-.3-.3.3-1.2-.6-1.2l.7 1.2.9 2.1zm70.2-97.4c-1.2.7-1.9 1.9-2.1 3.1 1.2-.5 2.1-1.8 2.1-3.1zm-54.6-9.5c-.8.2-1.4.9-1.5 1.7 0 .1.3.3.4.2.9-.3.9-1.1 1.1-1.9l.1-.3-.1.3zm-5.2 13.7c-1.7.4-2 2.2-3.1 3l-.2.2.1-.2c1.5-.6 3.1-1.1 3.2-3l.6-1.4-.5-.1-.1 1.5zm-2.1 5.2c-1.5.5-3 .9-3.4 3 1.5-.5 2.8-1.6 3.4-3l.3-.2-.3.2zm-5.2-12.5l-.4-.7.4.7c.9.5.8 2.4 2.5 2 .2-.1.4-1.3.2-1.8-.8-2-1.8-.9-2.7-.2zm1.1 114.3c-3.3 1.3-2.2 3.1-.5 6l.5-6zm-4.2-111.1c-2.3-.2-4.7.3-6.7 1.6 2.6.3 4.9.7 6.7-1.6zm-4.2 4.2c4 1.4 7.1-.6 10.5-2.2-3.3 1.3-7.2.5-10.5 2.2zm28.3-36.7c-3.8 2-6.8 4.5-6.3 9.3-1.4-.2-2.7-.3-3.3 1.5-1.4 4-3.1 7.9-2.6 11.7l10.3-8.9c-1.2-2.3-4.1-1.9-4.3-4.2.8.2 1.7.4 2.4.6 2 .5 3.9 1.3 5.6-.8 1.7-2.1.9-4-.5-6-.6-1-1-2.2-1.3-3.4l3.7 2.8c-.2-2.6 2-4.3.7-7-1.8 1.3-3.6 2.3-4.3 4.2v.1h-.1zm-31.4 55.6c-4.2 7.9-9.3 15-16.5 20.5-1.9 1.6-3.6 3.4-5 5.2-1.7 2.1.3 2.1 1.6 2.4 0 .1.1.3.1.4.1.1.2.1.3.2l-.5-.6c1.3-1.9 1.5-4.5 4.2-5.2-.2.8-.4 1.7-.7 2.4-.9 2.3.3 3.6 2.1 4.6 2.7 1.6 2.6-1 3.5-2.3 2.2-3.5 4.2-6.9 4.8-10.9l.3-.3-.2-.2-.2.3c-2 .2-2.9 2.4-5.1 2.2.1-1.4 1.2-2 2.1-2.7 5.2-4 9.4-8.8 9.2-16 .9-.4 2.1-.4 2.1-1.9 0-.2-.4-.6-.5-.6-1.4.2-1.4 1.4-1.7 2.3l.1.2zm-6.3-26.3c-1.2-.5-1.3-3-3.1-1.8-3.8 2.5-8.7 2.8-12.5 7.1 6.2-1.4 12.5-2.1 18.9-2.2 2.5 0 4.7-1.6 4.5-4-.1-1.4-2.5-2.9-4.5-3.1-2.8-.2-3.5 1.8-3.3 4.1v-.1zm-14.7-15.6c1.9-5.3-1.8-4.6-6.2-5 2.3 2.5 2.6 5.5 6.2 5 3.8 10.1 13 5.6 19.9 7.5-1.6-2.7-2.4-5.7-5.6-7.2-4.2-2.2-5.1 2.4-7.8 3.8-.5-2.7 2.3-3.7 2.3-5.7-5.1-1.7-5.1-1.7-9 1.4l.2.2zm51.5 3.3l3.4 2.7-.5.5c-1.7 0-3.8-2.4-4.7-.5-1.7 3.7-6.2 6.2-5.1 11.3 12.8-5.5 19.8-15.7 24.7-27.9l.1-.1-.1.1c-6.2 4.2-13.3 7.1-17.9 13.5-.1.1-.2.2-.2.3 0 0 .1.2.2.2.1-.1.2-.2.2-.4v.3zm-17 76.2c-.9-4.2-.6-8.7-2.9-12.7-.6-1.2-.6-3.1-2.5-2.7-1.9.4-1.5 2.2-1.5 3.6-.4 8.6 3.3 16.6 4.1 25.1.1 3.5 1.2 6.7 3 9.6 1.4-2.7.1-5.3.7-7.8-.6 4.8 4.3 8.7 1.5 14.3-1.8 3.6.1 8.2 2.6 11.7.8 1.4 2.5 2 4.1 1.4 1.6-.4 3.4-1.5 3.3-3-.3-7.2 2.6-14.7-3.7-21.4-3.9-4.1-6-9.8-8.7-14.8-.5-1-2.4-2.3 0-3.3zm-19.2-10c-2.4 4.1-4.8 8.4-7.4 12.4-6.6 10.2-9.8 21.1-7.8 33.2.2 1.6.1 3.3 2.1 3.7.8.2 1.9.2 2.3-.7.8-1.8-.4-2.7-1.6-4-2.9-3-2.7-7.5.3-10 .9-.7 2.1-2.8 3.3-.8.6 1 2.1 3.3-.4 4.4-.7.3-2-.1-1.5 1.4.1.3.4.5.7.6.8.2 1.8-.2 2.1-1 .4-1.2.7-2.3.7-3.5.3-7.5 1.9-14.9 4.7-21.8 1.8-4.3 2.6-9.2 2.5-13.9zm24.1-52.4c-1.6-4.3-2.4-8.6-1-13.1 1-3.4 3.4-7.7-4.2-6.8 2.1-2.3 6.1-1 5.6-5.3-.5-4-4.2-.9-5.5-2.9 1.5-2.1 6.1-.6 5.1-4.7-.7-3.4-3.8.4-5.6-1.7 2.8-.9 2.9-2.7 3-5.8.1-2.8-1.8-4.5-1.7-6.9-2.3 16.1-5.9 32.2 4.3 47.2zm-18.7 114.6c.5-7.8-2.6-15.2-2.5-23-1.3 2.2-1.9 4.6-3.1 6.5-1.5 2.2-.4 5-1.7 7.3-2.3-1.4-1-4.2-3.5-5.8-.1 4.4 2.4 8 1.7 12 3.4-.7 5.5 3.1 9.1 3zm4.4-61.4c-.8 17.9-2.2 36 8.7 52-4.9-17-8.3-34.3-8.7-52zm-3.8-14.5c-4.8 17.1-6.9 34.7-6.3 52.4 1.2-.9 2.3-2 2.2-3-2.3-16.7.9-33 4.1-49.4zm92.4-36.2c-1.7-1.6-3.8-2.6-6-2.8-1.6-.2-3-2.8-4.5-.6-2.4 3.6-5.6 6.9-6.5 12.2l17-8.8zm-89.9 6.3c-6.1-4.1-8.9-3.5-13.1 2.9 4.6-.2 9.4 2.5 13.1-2.9zm1.5 90.3c.3 6.1-.4 10.8.5 15.8 4.5-4.7 4.5-7.5-.5-15.8zm7.8-91.5c-4.3-.2-6.8 3-10.1 4.7-.7.4-1.8.9-1.3 2 .5.9 1.7 1.3 2.6.8 0 0 .1 0 .1-.1 3.8-1.6 6.2-4.5 8.7-7.4zm11.9-1.4c1.9 6 4.9 7.5 10.8 5.3-3.8-1.8-7.6-2.8-10.8-5.3zm11.5 45.3c6.7-.3 13.4 1.7 20-.8-6.7-1.1-13.3.5-20 .8zm-14.3 21.8c1.8 3.7 4.3 5.8 6.5 8.1.4.5 1 1.2 1.7.3.3-.5.6-1.6.3-1.9-2.4-2.3-4-5.6-8.5-6.5zm-29.1-.4c-2.3 4.7-2.9 10.1-1.8 15.2 1-5.2.7-10.3 1.8-15.2zm9.3-2.1c-1.5 2.4-1.6 4.7 0 6.9v-6.9zm-13.6 26.3c3.5-.9 3.5-2.8 2.8-5.7-2.2 1.5-2.7 3.2-2.8 5.7zm17.7-102.1c-.5-.9-1.5-1.5-2.4-1.5-.8 0-1.4.4-.9 1.3.4.8.9 1.9 2.2 1.7.6-.3 1.2-.6 1.1-1.5zm-.2 43.3c-1.5 1-.8 2.3-.6 3.7.8-1.3 1.6-2.4.6-3.7zm112.5 54c0 .6-.2 1.3 0 1.6.3.6.2 2.2 1.2 1.6.5-.4 0-2.3-1.2-3.2zM152.3 260c-.1-.3-.2-.5-.3-.7 0-.1-.4-.1-.4 0-.1.2-.1.5-.1.8l.8-.1zm-3.3-93.3v-.4l-.6.3c.1.1.2.3.3.3.1 0 .2-.1.3-.2zm110.1 80.5l-.1.8c.1-.1.2-.2.2-.4.1-.1 0-.2-.1-.4zm-101.6 6.7l-.2-.4c-.1.1-.1.2-.1.4 0 .1.1.3.1.4l.2-.4zm13.4-61.1l-.4.2c.1.1.3.2.4.2s.3-.1.4-.2l-.4-.2zM148 170.3h-.3l.1.3.2-.3zm-20.9 62.2l-.1-.3-.1.3h.2zm-49.8-106c-5.9 8.9-9 19.5-16.6 27.5-1.8 2-4.1 3.3-6.7 3.6-7.2.5-10.8 7.5-17.3 9.2-1.3.3-1 1.7-.7 2.7 5.5 20.7 2.6 41.6 3.4 62.5.1 2.9-.3 6 .7 8.8.7 1.8.1 2.9-1 4.2-4.1 4.8-2.8 9.6 3.1 12.4.7.2 1.5.4 2.2.4-1.6 6.1-7.5 1.9-10.5 5-.4.4-1.4-1.4-1.6-2.3-.7-3.3-.8-6.6-.3-9.9 3.7-18.1 4.9-36.6 3.7-55-.3-5.6-.6-11.1-.6-16.8 0-4-1-6.8-5.5-8.4-4-1.4-5.8-4.4-5.1-9.3 1.9-12.4 2.6-25 2.2-37.5-.1-2.4-.7-4.8-1.9-7-5.7-10.6-4.5-17.8 4.7-25.9 3.1-2.7 5.6-6.3 6.9-10.3.9-2.4.7-5.1-.5-7.4-2.4-4.4-.8-9 2.3-12.6 6.2-6.7 11.1-14.4 14.7-22.6 2.4-5.6 5.9-9.3 13.2-9.3 6.4 0 12.8-1.3 19.2.1 4.4.8 8 3.8 9.8 7.9 3.5 7.3 3.6 15.7 6.9 23.3 1.4 3-1.2 8.6-3.1 12.3-5.5 9.4-3.9 17.6 1.4 26.5 2.7 4.6 5.6 9.6 6.3 15.3.5 3.5 1.9 6.7 4 9.6 1.7 2.6 2.8 5.7 3.4 8.7 1.4 7.8-.6 11.4-7.9 14.5-.8.4-2.1 0-2.3 1.5-1.7 11.6-4.6 23.1-5.6 34.8-1.3 17.1 3.8 33.1 7.8 49.4 1.8 7.2 3.6 14.4.1 21.7-1.3 2.2-1.2 4.8.2 6.9 1.2 1.7 1.2 4.3-.2 7.4-1-3.6-2-6.4-4.9-8.1-2.6-1.6-.4-4 .7-5.2 2.8-2.8 2.6-5.9 1.8-9.2-.2-.6-.6-1.5-.4-2 3.1-10.3-1.3-19.7-3.6-29.1-4.6-18.1-4.8-37.1-.6-55.4 1.4-5.8.6-10.9-1.6-16.9-2.7-7.2-4.3-14.9-7.8-21.9-.8-1.8-1-4.9-3-5-2.2-.1-3 2.9-4.5 4.6-1.8 1.9-2.2 5-4.9 6.3.1-3.1 2.6-5.2 3.8-7.9 1.6-3.7 3.7-7.2.9-11.3-1.3-1.9-2.5-2.5-4-.3-6.7 10.1-18.1 16.7-21 29.5 0 .1-.5.1-1.4.3-.5-4.2 2.1-8 1.4-12.1-.7-4.1-3.5-7.8-3.1-12.1.3-2.9-2.2-5.3-1.8-8 .8-6.2-2.3-8.9-7.3-11.5-9.6-5-19.6 0-20.8 10.9-.1 1.6-.3 3.4 1.2 4.3 4.6 3.1 4.4 9.1 4.2 12.7-1 12.3 3 24.6-1 36.9-.9 2.6.5 3.6 3.8 3.6 7.5 0 13.3-4.3 19.8-6.9 4.8-1.8 8.4-5.9 9.8-10.8.5-1.6 1.3-4.4 2.7-4.1 4.2 1 4.2-2.6 5.9-4.3 2.4-2.8 3.3-6.9 6.9-8.9zm-18.9 27.3l-.1.1.1-.1zm38.7-87.1l.4 2.1.6-2.1c.5-1.7.9-3.4 1.5-4.9.5-1.2.1-2.5-.9-3.3-.2-.2-1 0-1.3.3-.9.8-1.3 2.1-.9 3.4.7 1.5 2.3 2.6 1.7 4.6l-1.1-.1zm-11.5 40.8c.9-.1 2.2.1 2.3-1.4 0-.3-.6-1-.9-1-1.4.2-.8 1.7-1.4 2.4-.1.2-.2.3-.3.4 0 .1-.1.2-.1.3l.4-.7zM83.5 97c-.4 3.8 2.3 5.5 4.9 5.7 2.8.2 4.4-2.4 4.6-5.3.5-5.1.3-10.4-.7-15.5-.2-1.2.4-4.2-2.3-3.8-1.9.3-2.2 2.5-2.3 4.3-.2 2.9 0 6-2 9.4-2.7-6 0-10.8.9-15.6l.1-.1v.1c-4.1 6.5-4.2 13.6-3.2 20.8zM72.8 29.8c-5.9 1.7-15.6 2.2-19.3 13.4-1 3.1-3.4 6-5.7 8.7-3.8 4.3-7.3 8.7-9.8 14.2-1.4 3.1-2 5.2 1.3 7.7 2.3 1.7 2.3 4.4.4 6.4-1.7 1.7-2.3 3.9-3.5 5.8-.6 1-.6 2.3.8 2.3 4 0 6.7 3.3 10.2 3.7 4.1.5 6.1 2.8 7.2 6.1.9 2.5 2.1 2.7 3.6.9 3.4-4.1 7.2-7.1 8.2-13.7.7-5.5.9-9.9-.8-15-1-3-.6-8.8 2.3-9.2 8.2-1.3 11.1-7.7 15.6-12.7 1-.9 1.6-2.4 1.4-3.8-.9-4.2 1-3.6 3.5-2.1 1.8 1 3.9 2.9 5.5.7 1.3-1.9.3-4.6-1.4-6.3-4.6-4.3-9.5-8.2-19.5-7.1zm39.6 105.4c-.6-2.8-.7-6.6-2.8-9.8-2.8-4.4-4.7-9.3-5.7-14.5-.6-2.4-1.6-4.6-2.9-6.6-1.7-2.6-6.2-2.5-7.9.1-.8 1.4-1.8 2.5-2.9 3.6-2.2 1.9-2.1 3.7-.4 6.3 5.2 8.2 9.2 17.1 13.1 26 2.1 4.8 3.6 5.3 7.3 1.7 1.7-1.6 2.4-3.7 2.2-6.8zM92.4 74c.9-4.3-.8-8.4 1-12.2 1.9-3.6 1.5-7.4 1.3-11.2.1-2.2-1.5-4.1-3.7-4.5-2.4-.5-4.5-.2-5.7 2.3-2.6 5.8-7 10.2-11.2 14.8-5.7 6.1-3.7 14 3.4 18.9 4 2.7 4 1.7 4.8-2 1.4-6.3 4.9-8.2 10.1-6.1zm-33.2 51.4c5-5.6 9.8-10.6 14.4-15.8 1.6-1.8 3.7-3.8 1.5-6.4-2.6-3.1-5.3-7.3-9.6-7.2-2.6.1-3.9 4.2-4.4 7.1-.4 2.3-.4 4.9-2.3 6.2-4.1 2.5-3 5.6-1.7 9 .7 2.1 1.3 4.3 2.1 7.1zm18.5-23c2.9-2.5 4.7-11.8 3.3-14-.4-.5-1-.8-1.7-.8-.9.1-1.6.8-1.6 1.8v13zm-4.4-19.3c-4.4 6.1-3.8 10.5 1.4 13.6.2-4.6-.3-9.2-1.4-13.6zm21.9 11.4c-.1 1.9-.1 3.9.1 5.8.1.5 2.3.4 2.7-.3 1.2-2.2-1.1-3.6-2.8-5.5zm-59.4 147h1.5v-10.1h-.5l-1 10.1zm70.4 1.4h-.5l.3 3.8.2-3.8zm-69.4-56.7l.3.1v-2.5h-.3v2.4z"/><path d="M242.5 112.6l4.5-8.9.7.3-1.8 5.7-.1.1.1-.2c4.9 0 8.7-4 14-3.6 4.3.4 8.2 1.8 10.6 4.9 3 3.9 6.7 6.5 10.5 9.3 4.9 3.7 9.8 14.8 8.8 20.9-3-2.7-2-7.2-5.1-9.4.6 16.4-.6 32.6.8 49 .8 9.6-1.6 19.5 1.5 29.1.5 1.7.7 3.4 1.3 5.5 2.3-3.6 1.8-7.2 1.8-10.6.1-10.7 4.9-20.4 5.5-31 .7-14.2.1-28.2-.6-42.3-.3-5.3-4.8-9.1-8-13.2-6.2-8.1-11.5-16.8-15.8-26-.4-1.3-1.8-2-3-1.6-.1 0-.2.1-.3.1-10.8 3.4-21.6 6.6-31.3 12.5-3.6 2.1-4.1 4.1-2.2 7.4.6 1.3 3.3 3.4-.6 4.3-.3-.9-.1-2.2-1.7-2.2 0 1 .7 1.9 1.7 2.2 1.2 1.3 2.5.9 4 .8l.3.3c-.9 2.3-2.2 4.2-5 2.9-2.6-1.2-2.5-3.4-3.1-6.1-2.2-9.9 2.9-13.5 12.7-15.4-6.8-3.4-10.7-8.4-16.9-9.5-3.4-.6-2.2-3.5-2.5-5.5-.6-3.3 1.7-8.2-5-8-1.7.1-.6-2.1 0-2.8 4.7-5.1 3-11.4 2.4-17.1-.3-3-3.6-5.8-2.6-9.8.7-3 1.2-5.7 5-6.3 2.8-.4 4.5-3.3 6.5-5 2-1.8 3.8-3.6 6.4-4.2 1.4-.3 2.8-1 2.9-2.7.2-5 3.6-4.9 7-4.1 1.4.4 2.8 0 3.6-1.2 4.6-4.8 9.8-4.3 13.5 1.6.9 1.7 2.5 2.9 4.3 3.7 6.9 2 9.6 7.7 12.2 13.5 1.6 3.7 3 7.4 5.7 10.6 2.3 2.9 1.5 5.2-1 7.8-6.3 6.2-7.4 13.4-4 21.9.5 1.3 1.7 2.8.3 3.9-6 4.4-2.9 9.8-1.4 14.6 2.1 6.6 6.6 12.1 11.5 16.7 7.2 6.6 9 14.9 9.9 23.9 1.5 17.9-.6 35.4-4.4 52.9-1.9 8.5-3.3 17.2-2.7 25.9.3 5.5-2.2 10-2.7 15-.8 7 2.2 13.4 1.5 20.2-.1 1.5.7 3.9-1.2 4.1-2.2.2-2.7-2.1-3.1-4.1-.4-2.2-.4-4.5.3-6.7 1-3.5-.7-4.3-3.7-4 2.4-1.8 3.1-4.2 3.1-7.2-.2-10.8-.4-21.5-2.9-32.1-.8-3.4-.4-6.9-.4-10.4-.1-4.7-.6-9.5.1-14 .9-5.6-5.8-9-2.5-15.7 2.3-4.8.4-11.4.9-17.2.5-5.8.2-11.4.5-17.2.2-4.1-1.2-6.5-4.5-8.5-2.3-1.6-4.5-3.4-6.5-5.1l-.6-.7c-8.9-5.7-18.1-6.3-27.6-1.4l-1.6-.6zm35-70c0 .2 0 .3.1.4 0 .1.2.2.3.2l-.4-.6c-.1-.1-.1-.2-.2-.3s-.1-.2-.2-.2l.4.5zm-51.4 42c6.5 2.9 12.6 1.3 19.8-2.4-4 6.3-9.8 3.9-14.3 6.2 3.3 1.5 6.2 2.9 8.3 5.6 1.7 2.2 4 .5 5.8-.2 2.5-1 6.1-2.5 5.8-5.3-.6-4.5.1-8.7.6-13.2-2.4.3-4.2 2.3-6.5.3 4.5-1.8 7.4-6.1 7.5-10.9.1-1.8.4-3.8-1.6-4.6-2-.8-3.8.3-5.2 1.7-.8.8-1 2.3-1.9 3-2.5 2.1-5.8 5.6-8.3 1.8-2.9-4.5-7.4-1.2-10.5-3.6-.6-.4-1 .4-1.4 1-2.6 4.7-.7 10.1 4.2 12.1.9.3 2.2 0 2.4 1.4.2 1.4-.8 2.3-2.1 2.5-2.9.4-3.9 1.8-2.6 4.6zm45.3-6.5c1.9.9 2.1.9 1.9 0-1.5-7.8 2.1-13.5 6.9-19 3.8-4.2 6.5-4.8-1-9.4-3.3-2-5.5-9.3-3.9-12.3-3.6-3.7-7-7.7-11.7-9.2-4-1.4-7.2-2.6-9.3-6.4-.7-1.3-2-1.9-2.6.6-.7 3.1-2.8 4.4-6.1 3-1.5-.6-3.5-1.6-4.2.1-2.9 6.6-9.3 9.6-13.9 14.5-1.5 1.5-.3 1.5.7 1.7-1.2.7-2.3 1.5-3.6 2.1-2.4 1-3.5 3.9-2.4 6.2.1.3.3.6.5.9 1.6 2.3 4.6 2 6.8-.3.9-.9 2-2 3-2.8.5-.4 1-1.2 1.8-.5.5.5.7 1.2.7 1.8-.2 1.2-.6 2.3-1.2 3.4-1.7 3.5.4 11.3 3.7 12.8 1.3.6 2.7.5 3.3-.6 2.2-4.5 6.6-5.8 10.8-7.5 3.5-1.5 5-.3 5.2 3 .3 4 .4 7.9.6 11.8l.1-.1c-1.3-.1-4-2.5-3.4-.3 1.2 4.3-.5 9.1 2.3 12.9 2.5-1.8 4.5-5.6 8.5-2.3 1.5-1.9 6.8 2.4 5.8-3.6l.7-.5zm-21.8 16.6c6.1-1.9 12.2-3.7 18.1-5.6 2-.6 1.6-2 .4-3.1-1.9-1.9-6.1-1.5-7.4.8-.3.6-.9.9-1.6.9-4.4.5-6.7 4-9.5 7zm-18.2-35.4c-1.2-1.7 1.3-4.7-2-5-3.3-.3-4.2 2.1-4.2 5h6.2zm66.7 82h-.2v4.6h.2v-4.6zM56.6 194l-7.5 6.9c6.1 0 10.9-.1 15.7 0 2.9.1 6.4-.2 8 2.8 1.8 3.4 0 6.4-1.9 9.2-3.9 5.8-9 10.5-14.7 15.7 4.3 0 7.7-.2 11.1 0 5.5.4 7.2 3.7 4.8 8.7-1.6 3.4-4.4 5.9-7.1 8.9l6.9 1.9c-3.8.4-7.4 1.4-11.7-.6 3.3-2.9 6.6-5.3 8.8-8.6 1.5-2.1 2.6-4.3 1.5-6.8s-3.6-1.7-5.7-1.7c-4-.1-8 0-12.4 0 .5-2.3 2.1-3 3.4-4.1 5-4.4 10.1-9.1 13.8-14.9 1.3-1.9 2.7-3.9 1.7-6.3-1.2-2.6-3.9-1.9-6.1-2-4.7-.1-9.4-.1-14.2-.1-1.4 0-3.1 0-3.8-1.4-.7-1.8 1-2.7 2.2-3.7 2-1.7 4.2-3.1 6.3-4.7l.9.8zm252.1-46.5c-.7-8.9-1.4-17.9-2.2-26.8-.8-8.9-4.7-16.7-8.5-24.5 11.3 7.8 16.5 31.9 10.7 51.3zM64.5 18c4.7.7 9.6-.8 14.4 1.3-11.6.4-23.1.7-32.1 9.7 1-4.3 4.4-7.2 7.3-8.8 7.5-4.2 15.6-8.1 24.7-7 1.4.1 2.7.4 4.1.8.9.3 2.3.7 1.7 2.1-.6 1.4-2.8 2.2-3.5 1.4-4.2-5.8-9.1-.8-13.5-.9-1-.3-2.7-.3-3.1 1.4zm252.8 227.9c2.5 2.7.9 6.3 1.7 9.4.2.8-1.5 2.3-2 1.2-1.4-2.7-4.8 3.3-4.8-1.2 0-4.9 1.9-9.5 4.8-14.6 1.6 2.4.2 3.9.4 5.2l-.2.1.1-.1zM68.7 5.8c-3.6.2-7 .1-10 2.5-1.3 1-3.4 2.3-4.5.6-1-1.7-.8-3.9.6-5.2.8-.8 1.6-1.8 2.6-3 2.2 5.3 7.7 2.7 11.3 5.1zM9.1 244c-.6 3.1-2.9 5.8-6.1 6.7-1.2.4-2.4-.9-1.9-1.8 1.7-2.7.1-7 3.9-8.3 2.1-.4 3.5 1.5 4.1 3.4zm-5.7 4.5l.2-.3h-.3l.1.3zm298.1 8.2c-.5-2.2-1.9-4-1.3-6.1.5-1.8.7-4.2 2.7-4.8 2.3-.7 2.6 2.2 4.1 3.4 2 1.6-1.3 2-1.6 3.5-.2 1.7-2.1 2.9-3.9 4zm-70.2 4c-1-.9-2-1.9-3.1-2.7-2.9-2.1-4.4-4.1.1-6.2 1-.4 2.4-1.3 1.8-2.7-.5-1.2-1.8-.6-2.8-.7l-3.3-.4c3.9-3 7.7-4.6 11.4-6.3l.4.4-6.1 4.3c1.7.9 4 2.8 2 4.1-5.5 3.5-1.8 6.7-.4 10.2zm6.2-60.9c.1-.5.3-1 .4-1.5 3-7 2.6-7.7-4.8-7.8-2.4 0-4.8-.1-7.2-.5-2-.3-5 .1-5.5-2.1-.4-2.6 2.1-4.1 4.5-4.8l.2.3c-.6 1.6-3.4 2-2.5 4.1.6 1.6 2.7 1.2 4.2 1.4 2.7.3 5.6.5 8.3.5 5.9.1 7.3 2.5 4.8 7.9-.6 1-1.4 2-2.1 2.9l-.3-.4zM77 172.4c.7-3.8-1-5.1-4.6-4.9l-15 .9v.1c5.3-2 11.1-2.6 16.8-2.1 4.2.3 5.1 2.8 3.4 6.5l-.6-.5zm159.5 68.4c1.2-2.3.1-3.3-2.2-3.3-3.1-.1-6.3 0-9.4-.1-1 0-2.9.4-2.8-1.4 0-1.4 1.7-1.5 2.9-1.6 1 3.6 4 1.6 6.1 2 1.7.3 3.6-.2 5.1.3 3.2.9 3.1 2.6.3 4.1zM64.3 185.9l10.5-10.5.6.5c-2.8 4.2-6.3 7.8-10.4 10.6l-.7-.6zm261.2-67.7c-.1 1.2 0 2.7-1.6 2.5-1.2-.2-1.5-1.8-1.5-2.9s.1-2.7 1.6-2.5c1.4.2 1.3 1.8 1.5 2.9zm-102.3 99.7c3.5 2 8 .2 11.2 2.9l.1-.1c-3.6-.3-7.1-.6-10.7-.9-1.9-.1-2.7-.6-1-2.3l.4.4z"/><path d="M267 148.5c-1.2 3-5.5 3-6.4 6.3l.1-.1c-2.3-.6-3.4-1.5-.5-2.9 2.1-1.2 4.4-2.2 6.8-3.3zM329.4 254c1 2.6.8 4.4-2.2 5.9.3-2.3 0-4.3 2.2-5.9zM55.9 193.2l7.3-6.3.8.8c-2.2 2.4-4.6 4.5-7.3 6.3l-.8-.8zm208.9-53.1h-6.5c-.6 0-1.6.1-1.3-.8.1-.5 1-.7 1.6-1.2 1.7 1.9 4.5.3 6.3 2.2l-.1-.2zm-22 25.2h-8.2c2.8-1 5.6-1.6 8.2 0zm-21.7 1.8c1.6-.7 2.5-.9 3.5-.2-.9.9-1.8.4-3.5.2zm8.1 44.3c.2-2 1.6-3.3 3-4.3l.4.4c-.6 1.6-1.8 3.1-3.4 3.9zM81.6 147.7c0 .9-.4 1.5-1.2 1.6-.2 0-.6-.4-.6-.5.3-.5.7-1 1.2-1.6l.6.5zm-24.2 20.7c-1.6 1.4-3.5 1-5.2 1l.1.1c1.4-1.4 3.3-1 5.1-1.1zm176 59.8c.3-1.6 1-3 2.1-4.1 0 1.7-.4 3.3-2.1 4.1zm-6.2 5.2c.6-1.2 1.8-2 3-2.2l.1.1c-.7 1.2-1.8 1.9-3.1 2.1zm8.5-30.3l-2.1 3.1-.5-.5c.4-1.3 1.2-2.3 2.3-2.9l.3.3z"/><path d="M235.4 202.9c.2-1.3.9-2.4 2.1-3.1l.3.3c-.2 1.3-1 2.4-2.1 3.1l-.3-.3zm-7.1-21.9c-.6 1.2-1.8 1.9-3 2.2l-.2-.3c.5-1.1 1.7-1.9 3.2-1.9zm-60.3 1.8l2.2-3.1.8.6-2.1 3.1-.9-.6zM48.9 170.4c-.6.6-1.3 1.2-2.2.8-.1 0-.1-.3-.2-.4l2.4-.4zm181.4 9.6c.4-1.5 1.7-1.9 3-2.2l.1.1c-.6 1.1-1.8 1.8-3.1 2.1zm6.2-4.2c-.5 1.3-1.7 2-3 2.2l-.1-.1c.5-1.3 1.8-2.1 3.1-2.1zm1.2-1.1c.5-1.3 1.8-2.1 3.1-2.1l-.1-.1c-.5 1.4-1.8 2.1-3 2.2zm-160.2-1.9c-.3 1.3-1 2.4-2.1 3.1l-.6-.5 2.2-3 .5.4zm151.6-7c-.1.1-.3.3-.4.3-.1 0-.3-.2-.4-.3h.8zm31.5-11l1.2.5-.2.3-1-.8z"/><path d="M52 169.5c-.8 1.2-2 1.2-3.3 1l.1.1c.9-1.3 2.2-1 3.2-1.1zm219.4-54.2l-.9.1.3-.8.6.7zm-6.7 24.9l.7.2-.7-.2zm3.4 7.3l.4-.7c0 .1 0 .3-.1.3-.2.2-.3.3-.3.4zm-40 33.5c.4-1 1.3-1 2.2-.9v-.1c-.4.7-1.2 1.1-2.2 1zm7.5 41.9l-1-2.1-.1.1c.9.3.9 1.2 1.1 2zm-8.5 10.5c-.4.9-1.2 1-2.1 1 .4-.6 1.3-1.1 2.1-1zM98 254.7l.3.2-.3.1v-.3zM268 99.9v-.3l.3.1-.3.2zm-9.4 38.1l1-1-1 1zM63.2 186.9l1-.9.7.7-1 1-.7-.8zM244 166.3l-1-1 1 1zm-91-48.4l1.2.9-.7.6-.9-1 .4-.5zm80.6 88.5l-1 1-.4-.4.9-1.2.5.6zm-81.7-89.5l1 1-.5.5-1-1 .5-.5zm77.4 94.5l-.9 1.2-.4-.4 1.3-.8zm-2.3 2l.9-1.2.4.4-1.2.9-.1-.1z"/><path d="M227.2 213.6l-.9 1.2-.4-.4 1.2-.9.1.1zm-.9 1.2l-.9 1.2-.5-.5 1-1 .4.3zm-2.6 1.7l1-1 .5.5-1.2 1-.3-.5z"/><path d="M222.8 217.5l1-1 .4.4-1 1-.4-.4zm-71.9-101.8l.9 1-.4.5c-.3-.1-.5-.2-.8-.3l.1.1c-.1-.3-.2-.5-.3-.8l.5-.5zm86.5.1c.6-.3.7-.2.3.3l-.3-.3zM235.5 223v1h.1v-1.2l-.1.2z"/><path d="M149.8 114.8l1 1-.5.5h-.5l-.5-.5v-.6l.5-.4zm93 55.7l1-1-.1-.1-.9 1.1z"/><path d="M148.8 113.6l1 1.2-.4.4h-.5l-.5-.6v-.4l.4-.6zm84.6 114.6l-1 1 1-1zm8.4-56.6l1-1-1 1zm-10.5 58.7l1-1-1 1zm35.6-81.8l1.2-.9-.1-.1-1.1 1zm-36.7 82.7l1-1 .1.1-1.1.9zm-82.5-118.6l1 1-.5.6h-.4l-.7-.7v-.3l.6-.6zm94.1 59l-1 1 .1.1.9-1.1zm17.8-34.6l.1-.1-.1.1zm-23 103.9l-.9 1.2-.4-.4 1.2-.8h.1zm0-65.1l1-1-.1-.1-.9 1.1zM161.8 157l-.3.8c-.2-.2-.6-.3-.7-.5-.1-.2.1-.5.3-.7l.7.4zm11.9 10.4l.1-.9.5.3-.6.6zm-.1 0zm10.3-47.8c0 .7-.4 1-.9.8-.4-.1-.8-.4-1-.8-.2-.6.3-.9.8-.7.4.2.8.4 1.1.7zm-5.8 6.7c.3.6.2.8-.5.5l.5-.5zm-42.3-1c.4-.2.7-.5 1.2-.7l.3.3-1.2.7-.3-.3zm.3.4l-.4.1.1-.4.3.3zm3 11.3l-1-1h-.1l1.1 1zm-10.5 48.2c-.1-1.7 1.3-3 2.9-3.1h.2c-.1 1.6-1.5 3-3.1 3.1zm3.2-3.1c0-.6.3-1 .9-.9 0 .6-.3.9-.9.9zm36.3-59.7l-.2.3-.1-.3h.3zm-126.5-4.3c1.5 1.4 1.2 2.9.2 5.6l-.2-5.6zm-4.3-3.1l-.2.8.2-.8zm4.2 3.2l-.7-.4c.5-.6.6 0 .7.4zm45.1-52.8c-1.4-.9-4.4.3-4.5-2.2-.1-2.2 2.5-2.5 4.4-2.8 1.7-.4 3.3.6 3.7 2.3 0 .2.1.3.1.5.2 2.2-2.1 1.8-3.7 2.2zm5.4-7.1c-2.9-.1-4.7 2.4-6.8.1-.4-.4-.4-1.2 0-1.6.1-.1.2-.1.3-.2 2-1.2 4-1.4 6.5 1.7zM83.5 97l.2-.1-.2.1zm187.2-18.3c-1-.6-1.6-1.8-1.4-2.9 1.5.2 1.6 1.4 2 2.3l-.6.6zM257.5 72z"/></svg>