<svg viewBox="0 0 174.03 66.84" xmlns="http://www.w3.org/2000/svg"><path d="M152 57.93c0 1.26 1.19 1.52 1.94 2.14.11.09.31 0 .36.5-1.44.63-2.86-.62-4.27-.28-.15.5.46.64.53 1.15a45.43 45.43 0 0 0-8-1.3c.18.67.69.87 1.18 1.15-.75.3-1.27-.58-2-.1 2.95.37 5.46 2.14 8.65 2.57.07 0 0 .3 0 .55.31.41.81-.13 1.09.2a.3.3 0 0 1-.17.42 6.56 6.56 0 0 1-4.33.36A20.56 20.56 0 0 0 143 65c-2 0-4.08-.15-6.12-.16-2.74 0-5.5.1-8.22-.13-4.18-.36-8.35-.23-12.53-.3-5.15-.08-10.31 0-15.47.19-3.29.1-6.59.09-9.87.27-2.23.12-4.48.24-6.71.49s-4.31.29-6.47.44-4.6.25-6.88.55c-1 .14-2.06.08-3.07.12-4.49.17-9 .17-13.48.2-3.3 0-6.62-.22-9.89.09-4.12.39-8.15-.73-12.25-.39a.7.7 0 0 1-.79-.47c1.32-1.06 3-.63 4.77-.9-1.88-.76-3.61-.25-5.21-.74a26.49 26.49 0 0 1-2.81-.6c-1.31-.55-2.68-.09-4 .05a17.78 17.78 0 0 1-5.05-.1 6.78 6.78 0 0 0-1.55 0c-4.73.26-9.37-.68-14-1.09a.36.36 0 0 1-.4-.33c4.06-.95 8.11.17 12.44.16a2.65 2.65 0 0 0-1.55-.62c-3.55 0-7-1-10.57-1a2.42 2.42 0 0 1-2.13-1.25C1 59.15.55 59 .43 58.56a26.41 26.41 0 0 1 4.93.06c1.38.13 2.75.3 4.12.5A25.42 25.42 0 0 0 19 58.7c-1.63-.64-3.4-.51-5.11-.76s-3.65-.57-5.49-.74a20 20 0 0 1-5.42-1 5.93 5.93 0 0 1 2.22-1.27c.28.25.54.63 1 .2-.33-.58-.68-.38-1-.16-.11-.5-.78-.51-.9-1s.9-.41.61-1.15c-1.15 0-2.22-.75-3.48-.57-.34-.6.7-.37.52-.83 0-.87-1.31-.75-1.14-1.78.25-.26.56.25.88.11.52-.06.56-.75 1-.8.48-.28.94.07 1.41-.07.78-.58 1.56-1.21 2.64-.74.06-.11.13-.05.06 0s.09 0-.1 0c.27-.86-.5-1-.93-1.36-.66-.26-1.48.29-2-.49.75-.93 1.74-.59 2.71-.42.4-.32.62-1 1.36-.74.22.18-.16.44.06.66.58.17.44-.62.91-.69 1.23-.61 2.59.13 4.27-.16a13.59 13.59 0 0 0-7.78-1.5c.68-.77.68-.77 1.81-.81l.23-.55h.17l-.14.05a2.84 2.84 0 0 0-2.06-.36C4.46 41 3.46 40.43 3.12 39c.83.25 1.56.56 2.16-.26-.17-.46-.92-.39-1-1 .15-.61 1-.1 1.21-.74 0-.61-.77-.08-.95-.62.09-.45 1.24-.71.24-1.46a3.75 3.75 0 0 0 1.77-.68l.06.1-.09-.06c-.06-.56-.56-.5-.91-.65l-.22-.66a1.83 1.83 0 0 1-1.92-.42c0-.87.77-.25 1-.63-.11-.43-.49-.64-.87-1 1.4-.42 2.16-1.59 3.28-2.29 0 .16-.11.36.17.46l.08-.43c.29 0 .6.09.84-.18 0-.22.14-.46-.17-.59-.35.17-.43.53-.62.81h-.34c.13-1-.46-1.51-1.52-1.68a4.8 4.8 0 0 1 1.89-1.5 2.1 2.1 0 0 0 1.42-1.7c.9-.08.31.67.63.84a1 1 0 0 0 .78-.09c0-.26-.45-.33-.13-.76l3.49-.27a34.79 34.79 0 0 0-5-1.11c.82-.41.63-1.14.71-1.73.44-.15.8-.41 1.24-.31s.06.88.61.61c.48 0 .57-.26.58-.62s.59-.21.62-.64a6.74 6.74 0 0 1-2.48-2.86c-.35-.27-1 .23-1.21-.58 1.2-.39 1.4-1.62 1.88-2.54.45-.28.76.13 1.29 0a9.88 9.88 0 0 0 2.14-1.56c-1.08-.81-2.49-.73-3.39-1.88 1.73-.53 3.48.32 5.18 0 .11-.32-.37-.3-.3-.85a78.75 78.75 0 0 0 11.42 0c-2.51-1-5.22-1-7.74-1.76s-5.28-.85-7.65-2.12c.12-.51.42-.56.64-.58 3-.2 6-.22 9.05-.38a47.82 47.82 0 0 1 6.88-.09c5.17.47 10.33.13 15.5.23q4.87.09 9.74-.21c1.88-.12 3.79-.06 5.69-.1 4.2-.03 8.45-.2 12.66-.46 2-.14 4 0 6-.18 3.28-.26 6.57 0 9.84-.46 1.48-.19 3 0 4.49-.07 4.33-.18 8.65-.53 13-.58 3.31 0 6.6-.36 9.91-.42 2.07 0 4.13-.48 6.23-.39a2.6 2.6 0 0 0 1-.34 68.1 68.1 0 0 0 7.55.15c2.51 0 4.75-1 7-1.68.47.74-.39.82-.2 1.35a10 10 0 0 0 4-.29c1.24 1.17 2.86.63 4.37.69a5.15 5.15 0 0 1 2 .43c-.06.48-.62.76-.47 1.32a.81.81 0 0 0 .75.4c2-.26 3.86.47 5.85.16a3.14 3.14 0 0 1 3.29 1.53c-.51.51-1.63.21-1.59 1.17-.87.36-.8-.55-1.19-.71a12 12 0 0 1-5.62.55 20 20 0 0 0-4.08-.13c-1.07.07-2.29-.67-3.26.42a87.08 87.08 0 0 0 8.76.67 2.37 2.37 0 0 1 2.11 1.14c.63-.45 1.28-.77 1.81.16A4 4 0 0 0 152 10c-.61.27-.82-.55-1.38-.51l-.08.82c.28.47 1.43.31 1.1 1.32-.7.09-1.27.69-2.08.52a3.43 3.43 0 0 0 2.05.28 1 1 0 0 0 0-.83c1 1.44 2.67.73 4 1.15-.76-.19-1.34.78-2.15.13-.25.54-.88.56-1.09 1 .19.44.48.31.8.27a4.66 4.66 0 0 1 2.28-.08c1.64.63 3.37.19 5 .52 1.45.3 2.89.29 4.33.46 2.13.25 4.21.89 6.41.8-2.64.76-5.37.34-8.09.47.13.62.48.6.76.6 2.3 0 4.55.54 6.85.53A4.84 4.84 0 0 1 174 19.7c-4.19.12-8.33-.58-12.49-.23a2.54 2.54 0 0 0-1.45.65c3.64.88 7.21.86 10.74 1.62 0 1-.85 1-1.46 1.25.33.89.33.89 1.31 1.05-.88.84-1.66.46-2.49-1.22a.61.61 0 0 0-.79.19c.79.68 1.25 1.64 2 2.35s2 .4 2.93.84c0 .39-.76.47-.4 1s1 .29 1.58.48a1.5 1.5 0 0 1-1.29.88c-.52.11-1 .2-1.16.7-.53.16-.92-.19-1.42 0a6.1 6.1 0 0 1-3.94 1.23c1.61.93 3.2.88 4.66 1.35-.92.4-1.78.85-2.72.32-.5.24-.87.65-1.41.67.16-.45 0-.65-.45-.66-.16.56.22.54.49.62 0 .2 0 .41-.24.53-2.07.13-4.16-.17-6.51.29 1.71 1.26 3.53.29 5 .91v.32h-4.35c-.24 0-.48-.42-.74 0 .28.32.52.05.77 0-.13.36 0 .61.36.66a16 16 0 0 0 3.06.43 7.51 7.51 0 0 1 3 .4c-.07.5-.74.44-.76.93l.36.39a3.68 3.68 0 0 0-3 2.42l.69 1c1.45.12 2.6 1.38 4.39.8-.52 1-1.15.66-1.63.79-.37.34-.09.65.07 1l-.89 1c-1.32.15-2.52.72-3.92.66.23.55 1 .34.81 1-.31.47-.92-.3-1.26.38.27.89 1.05.39 1.67.49l1.2.92c-1 .31-1.87.79-2.45.56l-8.65 2.07c1.51.65 3.33.26 4.85 1.17.11.36-.48.37-.38.73.79.31 1.18-.31 1.56-.73.56.09.52.74.93.75.57.24.94-.26 1.59-.16.56.59 1.83 0 2.44 1.15-2.34.87-4.7.13-6.93.36a.88.88 0 0 0-.29.92c.31.48 1 .28 1.35.73a4.11 4.11 0 0 1 .45 1.42c-2.3.8-4.61.61-6.85 1-.09-.18-.21-.3-.43-.23v-.09h.06c.16.09.27.24.43.17zm15.44-33h.11l-.07.06v.06zM6.15 38.16c.71 1 1.35 1.07 2.74.28-.89-.44-1.78.08-2.74-.28zm163.23-11.45c.83.75.83.75 1.81-.1-.63-.21-1.19.12-1.81.1zM18 44.72c-.84-.09-1.46-.36-2.28.45.9.01 1.48.26 2.28-.45zm-1.53 17.44c.89.54 1.54.23 2.53 0a3 3 0 0 0-2.53 0zM4.61 51.34c-.75-.74-1.29-.47-2 0 .74.48 1.27.07 2 0zm6-12.46c-.54-.44-.93-.5-1.34-.06.35.47.73.42 1.3.06zm4 6.05a.72.72 0 0 0-1.06-.2.61.61 0 0 0 .41.44.56.56 0 0 0 .61-.24zm153.12-18.06a.27.27 0 0 0-.33-.21c-.24 0-.34.16-.22.41s.46.11.55-.2zm-2.4 17c-.17-.35-.54-.23-.76-.44.08.57.37.57.77.44zm-5.85-24c-.38-.15-.64-.28-.88 0 .24.36.48.36.89.03zm4.87 12.41c0 .15.07.25.25.19.05-.21-.07-.22-.24-.17zm-156.7 15c.07.06.15.17.22.17s.34-.06.15-.25a.23.23 0 0 0-.37.08zm154.28 5.87c.24.37.47.24.71 0-.24-.34-.48-.28-.71 0zM167 29.52s-.11 0-.13.05 0 .19.1.22a.13.13 0 0 0 .12 0 .14.14 0 0 0-.09-.27zM27.56 9.73l.7-.06c-.14-.13-.26-.14-.7.06zm-17.09 11.7c-.11-.11-.21-.17-.26.05a.15.15 0 0 0 .26-.05zM143.16 3.37c0 .1 0 .14.18.12s.06-.06.08-.09zm20.89 38.21v.1h.11zM11.88 38.85c-.09-.1-.18-.16-.25 0zm2.8-26.49c.1-.1.23-.22 0-.24-.11.01-.1.17 0 .25zm133.19 52c.14.09.29.2.31-.1a.2.2 0 0 0-.31.1z"/><path d="M148.25 3.36c-.07-.76.42-1 .92-1.33 1.29.74 2.8-.08 4.36.35a8.35 8.35 0 0 1-5.28.98zm16.99 31.41a.9.9 0 0 1 1.33-.1 1.06 1.06 0 0 1-1.33.1zm-.73 4.88c.42 0 .65 0 .74.3-.57.37-.57.37-.74-.3zM2.77 53.8c.3-.24.56-.31.85 0-.3.58-.56.56-.85 0zM9.32 5.22c.41-.29.68 0 1 0a.27.27 0 0 1 .33.17 2 2 0 0 1-1.33-.17zM153.1 65.13c-.22.31-.41.25-.6 0 .22-.44.41-.33.6 0zm-.55-53.94c.2-.16.4-.16.4 0s-.18.14-.4 0zM171.26 32a.32.32 0 0 1 .42 0c-.14.22-.27.16-.42 0zM10.55 19a.4.4 0 0 1-.13 0v-.09a.39.39 0 0 1 .12 0s0 .02.01.09zM.01 50.33l.11.06-.12.02zM4 53.1v.09a.42.42 0 0 1-.12 0v-.09zm163-13.03h.25c-.1.18-.17.17-.25 0zM5.56 33.71l-.06.08h.1z"/></svg>