<svg id="Слой_1" xmlns="http://www.w3.org/2000/svg" viewBox="0 0 330 270"><style>.st0{fill:#ffc700}</style><path class="st0" d="M91.3 210.1c-.4 5.4.2 11-1 16.6-.3 1.6-.4 3.6-2.7 3.4-1.9-.1-2-1.9-2.2-3.4-1.1-9.9-1.2-19.8.8-29.7.3-1.6.8-3.5 3.1-3.2 2 .3 1.9 2 1.9 3.5.2 4.2.1 8.4.1 12.8zm50.5-59.7c.3-3.2-.6-5.8 1.1-6.8 2.2-1.4 3.7 1.6 4.6 2.7 3.7 4.6 9.9 8.1 8.7 15.5-.3 1.7-.4 3.4-2.3 4s-2.9-.6-4.1-2c-1.7-2.2-3.8-4.1-5.6-6.2-1.9-2.5-2.8-5.3-2.4-7.2zm88.5 28.7c-2.6 0-4.3-.7-4.4-3-.1-2.5-.9-5.6 2.6-6.7 4.4-1.4 9.1-1.1 13.6-1.2 2.9-.2 5.3 2 5.4 4.9v.5c-.2 3.2-3.1 3.3-5.7 3.4-4 0-8 1.2-11.5 2.1zm-121.6 28.6c-1.4 7.2-2.9 14.5-4.4 21.8-.5 2.4-1.6 4.9-4.5 4-2.7-.8-1.9-3.6-1.5-5.6 1.6-7.1 3.2-14.2 4.9-21.3.5-2.1 1.2-4.9 3.8-4.3 2.3.5 1.4 3.3 1.7 5.4zm11 3.1c.3-3 1.5-5.6 4.1-6.3 2.9-.7 3.1 2.3 3.7 4.3 1 3.2 1.9 6.3 2.8 9.5.4.9.6 1.9.6 2.9-.1 2.5-1.8 4.7-4.3 5.5-2.9.8-3.3-2.1-3.8-4.1-1.1-4-2.1-8-3.1-11.8zm24.7 9.7c0 3.6.9 8.1-2.7 8.6-2.4.3-2.7-4.4-3.1-7.1-.7-4.8-1.2-9.6-1.6-14.4-.2-2.2.6-4.3 3-4.4s2.7 2.2 3 3.9c.5 4.6.9 9.3 1.4 13.4zm-88.2-109c-.1 2.1-1.5 3.7-4.3 3.5-4.5-.4-5.4-3.8-5.7-7.4-.4-2.1 1-4.1 3.1-4.4.2 0 .3-.1.5-.1 2.7-.3 6.4 4.4 6.4 8.4zM79 182.8c2.4.5 6.6-.4 6.8 3.4.2 4-4.3 2.3-6.6 3.3-.8.2-1.6.3-2.4.2-2.1 0-4.3-.5-4.3-3s1.7-3.8 4.2-3.9H79zm101.3-67.6c2.5 1.1 5.4 2.1 5.9 5.6.3 1.3-.6 2.6-1.9 2.9-.3.1-.5.1-.8 0-3-.4-6-1.5-6.8-4.9-.4-2.2 1.3-3.2 3.6-3.6zm-14.7-53.4c2.1.2 3.5 1.2 3.5 3.4 0 2.6-1.2 4.5-4 4.7-2.3.2-3-1.7-3.2-3.6-.1-2.5 1.4-4 3.7-4.5z"/><path d="M99.6 61.8c5.6-5.8 13.4-8.9 21.5-8.6 8.2.1 13.6 5.9 14.3 11.6.6 4.9-.4 10.6-2.2 15.7-1.2 3.4-4.2 3.5-6.5 4.8-1.9 1-1.9 2.3-1.9 4.1 0 2 1.4 3 2.8 2.8 5.4-.6 11 2.8 16.2-1.1 1.8-1.4 2.9.6 4 1.8 6.8 7.9 10.8 17.3 15 26.7 1.6 3.5 3.1 4 5.8 1.5s5.5-4.4 7.6-7.9c1.5-2.5 4.2-5 6-7.9.3-.6 1.8-.5 2.8-.6 4.4-.3 8.7 1.1 13.1.1.2 1.3-.6 2.6-1.8 3.2-3.4 2.3-2.8 5.3-1.5 8.3.6 1.2 1.4 2.3 2.3 3.2 6.7 6.9 6.7 6.9 11.7-1.4.5-.8.7-2 1.9-2 .3 0 1 .6 1 .9-.1 6.9 1.1 14.1-2.7 22.1-1.1-6.1.1-10.7.6-15.9-2.9 2.3-3.6 5.1-4.7 7.7-1.2 2.8-2.7 2.7-4.2.3-1.7-3-3.6-5.8-5.9-8.4v13.7c0 1.4.1 3.4-2 3.3-1.9-.1-1.2-2.1-1.2-3.3-.2-4.3 0-8.7.6-13 .3-1.8 1-3.9-1.6-6.3 1.6 5.5-1.3 8-4.6 10.5-6.1 4.4-10.5 10.7-16 15.8-2.6 2.4-4.2 3.7-7.8.8-4.1-3.3-9.4-5.1-14.1-7.6l-.4.4-3.3-2.5c1.7 5.5 3.5 10.1 7.2 12.4 4.6 2.9 6.2 7.5 9.7 12-4-.7-4.4 1.1-4.1 3.9s.3 5.3.5 7.9c.1 1.3 1 2.9-.9 3.3-1.7.4-2.3-1.3-2.8-2.3-2-4-5.2-6.8-8.6-9.5-.7-.6-1.4-1.6-2.5-1-.9.6-1.3 1.6-1 2.6.5 4.4.1 8.9.8 13.4.8 5 2.9 7.5 8.1 5.6l.2.1c4.4 1.4 9.2.7 12.9-2 4.6-.2 3.9-3.1 2.1-5.3-2.6-3.4-1.2-5.6 1.1-8.1.5-.5.6-.9 1.5-.7 11.7 2.5 23-1 34.4-2.4 3.2-.4 4 1.2 3.2 3.7-3.1 10.2-4.4 11.9 8.5 9.9 3-.5 5.4-1.1 5.2-5.4l2.4 3.1c.3-.8.6-1.2.5-1.6-1-4.4 1.5-5.9 5.2-6.7 7.2-1.7 14.5-1.5 21.8-2 2.9-.2 2.3 2.5 2.1 3.9-.8 5.4 1.2 6.5 6.2 5.5 10.9-2.2 21.8-5 33-4.2 2.9.2 2.4-2.2 2.4-3.9 0-8.2.5-16.4-.2-24.5-1.3-14.8.1-29.6-1.7-44.4-.4-3-.4-5.1-4.4-4.8-3.4.3-6.3.2-6.1 5 .1 2 1.1 4.3-.8 6.6-1.3-1.5-1.8-3.5-1.5-5.5 1-5.4-1.6-7.5-6.6-7.8-1.1-.1-2.2-.3-4.1-.5 1.4.7 2.7 1.5 3.9 2.3 2.1 1.8 3.9 4.1 1.9 6.9-1.9 2.9-5.6 4-8.9 2.8-1.2-.4-1.9-1.6-1.7-2.8.1-1.3.1-2.7 0-4-.4-2 2-5.1-1.9-5.6-4.5-.6-7.3 1.8-7.5 6 0 1-.2 1.9-.3 3-2.2-.1-2.1-1.7-2-2.8.4-4.5-2.2-4.9-5.6-4.5-2.6.3-5.3.6-7.9.8-1.5.2-3.1.1-3.1 2.3.1 2.5 1.9 1.6 3.3 1.7 2 0 4.2-1.1 6.4 1.3-3.6 1.9-8.1.2-11 3.4-.5.6-2-.6-1.6-2.2.3-1.5.2-3.1-.1-4.7-1.4 7.6-8 7.5-13.1 9.4-2 .7-2-1.6-2.3-2.9-.3-1.4-.1-3-.5-4.4-.4-1.7-1.9-1.6-3.3-1.5-1.2.1-2.4.4-2.7 1.8-.4 1.8 1 2 2.2 2.7 3 1.9 2 4.8.9 7-1.2 2.4-3.2 1.5-5 0 .4-1.8 4.2-.5 3.2-3.3-.7-2.1-2.6-.5-3.9-.9-2.7-.8-5.1 0-7.7 1-2.2.8-4.8 1.4-6.9-.7l4.5-.5c-1.5-.4-3.1-.2-4.5.5-1-.3-2.1-.9-2-1.9.4-6.2-3.4-4.9-7-4.1-3-.1-7.1 1.8-7.4-3.9 2-.1 4.1-.2 6.3-.4 7.2-.6 7.2-.6 7.7-7.9.1-1.1-.5-2.8 1.6-2.1 1.1.4 3.5-.7 3 2-1.3 6.6 2.9 5.9 7.3 6.2 5.1.2 3.6-4 4.8-6.4 2.2.4 2.1 2.2 2.6 3.5.7 2 2.2 1.7 3.7 1.6 1.8 0 2.2-1.2 2.1-2.7-.1-2.7.2-5.2 3.7-5.2 3.2 0 7.1-1 7.8 3.9.4 2.5 2.3 3 3.9 2.9 2.5-.2 1.1-2.2.9-3.5-.2-1.7.7-2 2-2s2.8-.4 4 0c1.7.6 5-.3 4.8 2s-3.1.3-4.7.8c-.9.3-2 .1-2.7 1.2 1.1 1.8 2.6.7 3.9.6 2.4-.2 4.9-2.7 7 1 .4.7 3.2-.1 4.6-1 .8-.7 1.1-1.8.7-2.7-.8-2.4-3.1-1.3-4.7-1.9l.1-.1c-.6.4-1.3.7-1.7-.1-.5-.9 0-1.6.8-2 2.2-1.1 19.7.8 20.5 2.8 1.4 3.4 3.7 4.7 7.1 5.1 3.2.3 5.8 0 5.3-4.3-.2-.8.1-1.7.8-2.2.9-.2 1.1.5 1.2 1.2.8 4.4 4 6.8 8.4 6.2 3.2-.4 2.2-2.9 2.2-4.7 0-23.3 1.6-46.6 1-69.9-.1-2.8.3-5.7.1-8.5-.2-1.6.9-3.1 2.5-3.3h.4c2.5-.2 1.7 2 1.7 3.2 0 8.3.6 16.6-2.2 24.6-1.8 24.8-2.8 49.6-.5 74.3 1.2 13.1-.1 26.3 2.5 39.2 1.2 6.2 2 12.4 2.4 18.7.3 4.8 2.4 9.5-.4 14.2-.1.2.3.9.6 1.3 1.3 1.3 2.3 2.8.1 4-2 1.1-5 1.8-5.9-.3-1.8-3.9-4.5-2.2-7.1-2.5-19.2-2-38.1 2.5-57.3 2.1-6.8-.1-13.6 1.3-20.4.4-4.2-.5-2.8 1.8-1.7 3.9 6.9 13.5 13.8 26.9 20.7 40.4 5 9.9 8.9 20.5 16.2 29.2 1.4 1.6 2.9 3.7 2 6.4-2.4.1-2.4-2.6-4.2-3.1 0-.2 0-.3-.1-.5 0-.1-.2-.2-.3-.2l.4.6c-1.2 3.8-2.1 1-2.8-.2-3.3-6.1-6.5-12.3-9.6-18.5-2-3.9-3.9-7.7-5.6-11.7-2.3-5.4-5.1-10.6-6.8-16.4-3-10.5-9.8-19.4-15.8-29.2-.4 4.4 1.7 12.1 5.4 20.1 7.8 17 14.5 34.3 18.8 52.5.9 3.6 2.2 7.1 1.8 11-2-.1-1.8-1.7-2.1-2.6-5.8-18.4-12.5-36.5-20.1-54.2-3.1-7.3-5.3-15.1-7.9-22.6-1.3-3.8-3.4-5.2-7.1-3-3.3 1.9-6.9.8-10.3 1-7 .5-8 1.4-9.3 8.1-2 10.4-1.2 20.9-2.4 31.3-1.6 14.5-3.3 29-6 43.4-.1.7-.6 1.3-1.2 1.6.2-5-2.9-9.2-1.1-14.7 1.6-4.8-.6-10.3-4.1-14.3-2.8-3.2-2.4-5.4.6-7.9 2.8-2.1 5-5 6.3-8.2 2-5.5-3.3-4.7-5.6-6.2-2.9-1.9-2.7 1.2-3.8 2.5-2.9 3.6-.8 9-4.5 12.2v-.5c0-.1-.2-.2-.3-.3l.4.7c-.5 3.3-1.4 6.5-2.8 9.5-2.7 6.7-3.7 13.9-3 21 .2 1.8.5 3.7-.6 5.6-2.9-1-2.1-3.5-1.9-5.3.7-8.3 1.4-16.5 2.4-24.8.5-3.9.3-6.7-4.6-4.9-2.4.9-5.9-3.2-7.2 1.3-.7 2.5.3 5.2.8 7.9 1.2 6 2.3 12 3.2 18.1.6 3.3-.1 6.7-2 9.5-.6-5-2.3-10-2.1-14.8.2-6-1.6-11.9-5-16.9-5.2-7.1-5.6-14.9-7.8-22.6-.8-2.6-.6-5.6-3.2-8-6.5 22.6-9 38.5-14.5 60.9-1.7-4.6-2.4-8.1-.2-12.6 3.4-7 3.8-8.4 3.2-15.9-.2-2.2.8-6.1-3.2-6-3.6.1-6.5 1.7-7.5 5.7-2.1 7.7-.1 9.1 1.4 16.6.9 4.4 1.3 6.7-1.1 12.3-1-7.3-1.5-5.3-2.6-11.2-1.1-5.5-2.7-10.9-2-16.6.1-.5 0-1.3-.2-1.4-7.1-3.5-3.5-10.4-4.4-15.3-1.3-7.1-.2-14.6-.1-21.9 0-1.5.5-3.7-1.5-3.6-2.3.1-.4 2.1-.4 3.2-.1 1.8.3 4-1.6 4.9-2.6 1.3-5.4.3-7.6-1.1-2.8-1.8-5.1-5.2-4.9-8.1.2-4.3-2.6-6.8-4.1-10.1-1.3-2.9-3.7-3.8-6.8-3.2-7.2 1.3-14.2 3.7-21.6 3-2.2-.2-2.1 2.4-3.8 2.6-2.1-1.9-.7-5.9-4.4-6.7-.3-.1-.8-.3-.3-1 3.8-6.3 2.1-13.2 1.3-19.6-1.3-11.4-1.7-22.8-1.9-34.2-.7-21.3 2.5-42.5-1.7-63.5 3.2 4.8 2.5 10.7 4.1 16 1.6-26.7-.1-53.5-5.1-79.7 4.3 3.4 5.5 7.9 5 12.7-1 8.8.7 17.3 2.6 25.8.2.8.2 1.6.2 2.5 0 23.1-.2 46.2-2.3 69.3-1.3 14.6-.2 29.3 3.2 43.5 2 8.3 1.5 17.2 2 25.6h10.5c1.7 0 1.7.1 2.8 2.4.3.7.5.8 2.3.5 3.6-.5 7.2-1.4 10.8-1.7 4.5-.3 6.3-3 6.3-6.9-.2-18.1 4.3-35.5 7.8-53.1 1.1-5 1.8-10.1 2.2-15.2 0-2.9 1.7-5.5 4.3-6.6 6.6-3.1 13.1-6.5 20.5-7.3 1.3-.1 2.9.1 3.2-1.7.3-1.6.4-3.3-1.3-4.5-4.2-3-7.2-6.6-4.8-12.3.1-.7-.1-1.3-.5-1.8-3.3-4.1-.8-7.8 1.2-11.5zm76 58l-.3.1.3-.1.2-.2-.2.2zm-82 81l.1 1c-2.6.8-1.8 2.9-1.8 4.6-.2 7.6-.2 15.3-.3 22.9 0 1.5-.8 3 1.7 3.1 1.9.1 3.2-.2 3.5-2.4 1.1-8 2.4-16.1 3.5-24.1.2-1.5-.6-3-2.1-3.6-1.4-.6-2.1.3-2.6 1.5l-2-1.9v-1.1zm60-96l.1.1-.1-.1-1-2c-.1-1.3-1-2.4-2.3-2.7.4 1.2 1.2 2.1 2.3 2.7l1 2zm60 119.9l.1.4-.1-.4-.1-.3.1.3zm-2-5l.2.3-.2-.3-.4-.5.4.5zm-2-5l.4.6-.4-.6zm-84-159v1c-2.4 0-4.5-.7-6.8-1.3-3.1-.7-6.9-1.7-8.7 2.3-1.6 3.7-3.8 6.3-7.6 7.7-2.5.9-3.8 2.4-.4 4.1.8.4 1.5.7 1.2 1.7-.8 2.9.6 5.9 1.7 8 1.3 2.5 3.1 6.4 6.8 6.5 6.7.1 13-2.3 19.1-4.7-.2-2-3.2-.9-2.7-3.2.5-2.6 2-.3 3-.7.9-.3 1.4-1.3 1.1-2.2 0-.1-.1-.2-.1-.3-.5-1.3-.9-2.3-.1-3.8 2.9-5.8 1.5-9.8-4.5-13.2v-1l-2-.9zm99 29c0 .2.1.3.1.5.1.1.2.1.3.2l-.4-.7-.3-.8-.4.3.7.5zm-105 6.1l1.7.6v-.7l-1.7.1c-.2-1.3-.2-2.7-2.1-2.5-.7 0-1.5.5-1.3 1.1.4 1.9 1.9 1.8 3.4 1.4zm-31 88.9c1.8-2.8 2.8-6.1 2.8-9.5-1.7 3.8-2.7 6.5-2.8 9.5l-.3.3c-.1.1 0 .3-.1.4l.4-.7zm77.2 46.1c-1.2 4.5-1.8 9.1-1.7 13.8 1-4.5 1.5-9.2 1.7-13.8.7-1.5.8-3.3 0-4.8v4.8zm-88.2-39.1c.6.3 1.2.5 1.8.6 1.5.1 3.1 0 4.6-.4.5-.1.5-2.4-.4-2.5-2.3-.3-5.4-2-6 2.3zm84 43c-7.2 7.2-7.2 7.2 0 15.1v-15.1zm-17-83.9c-.3-.9.2-2.3-1.9-2.9l1.9 2.9v2c-3.1 2.1-3.1 6.9.3 10.1 3.2 3 6.6 5.6 10.2 8.7-.5-3-3.5-4.1-3.6-6.8 1.5-.2 1.8 2 3.3 1.6.6-5.4-1.2-10.1-5.3-11.9-1.9-.9-3.2-2.5-4.9-3.7zm-4 81.9c2-.8 4.4-1.1 3.5-4.4-1.4-5.6-2.5-11.3-3.7-16.9-.2-.9 0-2.3-1.4-2-1.3.3-1 1.6-.9 2.5.7 5.1 1 10.2.9 15.3-.2 2.2.6 3.8 1.6 5.5zm26-40c-2-1.1-2.2.7-2.7 1.8-1.8 4.7-3.5 9.3-5.2 14-.4 1.3-1.8 3.3.4 3.7s6 1.9 6.6-1c1.6-6 3.1-12.3.9-18.5zm33-13c2.9-1.5 2.1-4.3 1.4-6.1s-3-.4-4.4.1c-4.8 1.8-9.9 1.3-14.8 1.4-3.5.1-7-.1-10.2 1.7v1c.4 2.1-.8 5.9 2.2 5.7 7.9-.7 15.7.9 23.5.9 4-.1 5-1.5 2.3-4.7zm-49 13c-5.4-.1-5.1 3-3.6 6.6.5 1 1.1 2 1.8 2.9.9 1.5-.2 8.9-1.1 8.5-3.8-1.8-2.4 1.1-2.3 2.5.1 2.6.2 5.3.5 7.9.3 2.1-.6 5.9 2 5.8 2.4-.1 2.5-4.1 3.3-6.6.1-.3 0-.7-.1-1-1.4-2.9-.1-4.5 2.2-6.6 3.6-3.4 5.4-8.4 4.7-13.4-.3-2.4-1-4 1.3-5.7l-7-2.3c-1.4-.5-1.9.1-1.7 1.4zm-47 12c4.7 2.8 10.2 4 15.6 3.3 6.3-.8 12.3-2.9 18.7-2.6 1-.1 1.9-.5 2.6-1.1 4.7-3.3 2.9-7.8 2-11.7-2.7-10.5-4-21.3-3.9-32.1.2-8.4 1.1-16.9-.1-25.3-.3-2.3.9-5.6 2.9-6.3s1.7 2.6 2.6 4c.4.5.8 1 1.3 1.5 5.1 6.3 11.9 10.4 18.9 14.1 1.3.7 1.5.2 2.3-.6 5.5-6.2 11.1-12.3 16.8-18.4 1.8-1.9 2.5-3.3-.1-5.1-2.1-1.5-3.6-2.1-5.3.5-.9 1.2-1.9 2.3-2.9 3.4l-.8-.7c-2.8-.9-4.8 1.3-6.7 2.5-3.8 2.3-6.2.2-6.8-2.5-2-8.5-7.4-14.7-12.1-21.6-2.1-3.1-4.2-4.3-7.9-3-1.7.7-3.7.8-5.4.1-10.9-5-21.9-2.2-32.8-.7-3.8.5-8.7.4-9.4 6.2-.7.2-1.5.3-2.3.2-6.6-.5-11.2 3.6-12 10.4-.9 7.1-2.1 14.1-3.7 21-1.7 6.9-4.3 13.9-3.8 21 .5 9 .6 17.7-1.6 26.3 2.8 0 5.6-.2 8.4.1 3.2.3 4.2-.7 5-4.1 2.4-10.6 1.8-21.9 7.1-31.9.7-1.1.6-2.6-.2-3.7-1.5-2 1.4-3.2 1.7-5.1.2-1.4 1.9.4 2.9.2l-.1-.1c-.3 1-1.1 2 0 3v-.1c-.2 1.6-.6 3.2-.7 4.9-.7 11.9.6 23.8-1 35.7-1.1 8.3-1.2 16.7 10.4 18.1.2-.1.3.1.4.2zm32.8 17.2c-.1-4 0-7.9-.9-11.8-.7-3-3-2.3-4.7-1.9-1.5.3-4.2.2-3.7 3 1.1 6.2 2.5 12.3 3.7 18.4.4 2 1.8 2.1 3.4 2s2.2-1.3 2.2-2.7v-7zM237 170.1c-2.7 0-5.7-.1-8.6 0-1.4.1-3.3-.1-3 2.2.2 1.7.7 3.3 3 3.2l16.8-.9c2.1-.1 2.2-1.6 2.2-3.2 0-2.4-1.5-1.9-3.1-1.8-2.4.3-4.7.4-7.3.5zm19.5 8.2c11.4-1.8 22.8-3 34.4-3.5.9 0 2.2-.2 1.9-1.6-.3-1.1-1.5-1.1-2.5-1.1-11.5-.4-23 1.8-33.8 6.2zm-173.7 13c-2.4-.5-4.8-.9-7.2-1.2-3.4-.2-5.6.3-4.5 5 .8 3.3 3.3 5.3 4.3 8.1.6 1.7.7 3.6 2.8 2.9 2.4-.8 1.9-3.3.9-4.6-3.7-4.3-2.3-7.2 3.7-10.2zm23.5 15.1c-1.5-.1-1.7.9-1.8 1.6-1.4 7-4.1 13.7-4.7 20.8-.1 1.2-1.8 3 .9 3.4 2.5.4 2.4-1.5 2.7-3.2.8-5.1 2-10.1 2.7-15.2.4-2.3 1.3-4.9.2-7.4zm-15.3-57c-2.7 5.3-5.7 24.2-4.9 29.6 3.8-9.3 7-18.5 4.9-29.6zm68.8 59.4c-3-.8-4.6 2-4.4 4.9.3 3.7 4.4 4.2 6.9 4.3 3.8.1 2.5-4 2.9-6.2.6-3.2-2.4-2.6-5.4-3zm23-97.3c-.6 2.9 1.5 5.4 4.1 5.2 2.6-.5 4.6-2.7 4.9-5.3.2-3.8-3.2-4.2-5.9-4.6-3.4-.4-3 2.3-3.1 4.7zm-94 88.8l-1.8.2c.6 8.9-1.6 17.9 1.8 25.8v-26zm37.9 26l1.7-.4c-1.4-6.4-2.9-12.7-4.4-19-.2-.9-.8-1.9-2.1-1.5-1 .3-1.9.9-1.5 2.1 2.1 6.3 4.2 12.5 6.3 18.8zm-20 6.2c1.7-7.6 4.1-15 3.9-22.9-2.7 7.5-3.5 15.2-3.9 22.9zm120.1-53.3h22.7c-7.6-2.5-15.1-1.9-22.7 0zm-2.4-85c-1.1 1.4-4.9-.9-5.2 3-.2 2.1 1.1 3.1 3 2.9 2.4-.2 4.6-1 5.2-3.7.4-1.7-.8-2.3-3-2.2zM200.9 96h-1.8c-1.7.1-4.1-.3-4 2.4.1 3.1 2.3 1.9 4 1.6.5-.1 1-.2 1.4-.2 2.1.3 4.6.3 4.4-2.3s-2.8-1-4-1.5zm58.2-8.3c1.6-.8 5 1.1 4.7-1.8s-3.8-1.5-5.8-1.8c-1.5-.2-4-.7-3.7 1.8.3 2.9 3.2 1 4.8 1.8zM91 180.9l-.6-.3c-1.1 3.1-2.2 6.1-3.3 9.2-.4 1.3 0 2.4 1.3 2.7 1.7.3 1.7-1.1 1.8-2.3.4-3.1.6-6.2.8-9.3zm177.8-81.5c1.4 0 2.5-.4 2.5-1.8.1-1.6-1.2-2.3-2.5-2.5-1.6-.2-2.4 1.2-2.6 2.3-.3 1.9 1.4 1.8 2.6 2zm-45.5-12.6c-.4-1.3-1.5-2.2-2.8-2.4-1.5-.2-1.4 1-1.4 2-.1 1.8.9 2.3 2.5 2.1.8-.1 1.7-.4 1.7-1.7zm-89.2 7.9c1.7 2 3.2 2.3 5.4 1.5-1.6-1.4-2.9-2.6-5.4-1.5zm76.5-2.3c1.6.6 3 1.6 4.3-.4-1.6-1.2-3-1-4.3.4zm25 75.7l.2.2h3.5v-.2h-3.7zm-106.1 61.3c-.5-.4-.8-.9-1.1-.9s-.9.6-.8.8c.1.4.4.8.8.9.4.1.6-.4 1.1-.8zm-18.9-136c.2-.2.7-.6.6-.9s-.6-.6-.9-.9c-.3.3-.7.7-.8 1-.1.5.3.8 1.1.8zm52.7 153.1l-.1-1c-.1.3-.2.5-.2.8 0 .2.2.4.3.6v-.4zm3.8-73.8c.1-.3.3-.6.3-.8s-.3-.6-.5-.6c-.6 0-.7.4-.5.9.1.2.4.3.7.5zm-14.3 37.9c-.2.2-.6.3-.7.5s.2.4.3.7c.2-.2.6-.3.7-.5s-.2-.4-.3-.7zm-81.1-22.5l-.4.1c.2.1.3.2.5.3.1 0 .3-.1.4-.1l-.5-.3zm148.6-8.8c-.1-.1-.2-.3-.2-.3-.3 0-.6.1-.9.1.1.1.1.3.2.3.2 0 .5-.1.9-.1zm-29.8-11.2c-.1-.1-.2-.1-.4-.1-.4.1-.5.2-.1.4h.4c.1-.1.1-.2.1-.3zm3.9-.7l-.6-.3v.3h.6zM74.5 185.1h-.4s0 .2-.1.3h.4c.1 0 .1-.2.1-.3zm6.7 11.4l-.2.3.3.1-.1-.4zm21.8 9.1l.1.4.1-.4h-.2z"/><path d="M282.6 72.8c-2.5-.9-5.3-.3-7.8-.2-4.6.2-5-2.4-5.5-5.6-.1-.7-.1-1.3-.1-2-.3-9.1-.3-9-8-5.8-1.5.6-1.3 1.8-1.4 2.8-.1 3-.1 6-.2 9 0 .9.2 2.2-1.1 2.5-1.7.3-1.9-1.3-2-2.3-.5-2.8-.6-5.6-.5-8.4.5-5.1-4.1-3.9-6.3-5.3-1-.6-1.4 1.5-1.4 2.6 0 3.2.1 6.3.1 9.5 0 1.2.1 2.4-1.6 2.5-1.3.1-1.5-.8-1.8-1.9-.5-1.9-1.3-3.7-2.1-5.9-2.8 2-4.4 4.5-6.2 6.8-1 1.3-2.3 2.8-4 2.3s-1.2-2.5-1.2-4c0-3 .1-6 .4-9 .1-1.3-.6-3.5 1.8-3.3 1.8.1 2.8 1.6 2.8 3.6v3.9c2.7-.8 4.9-2.8 6-5.3 1.4-4 4.4-4 7.4-4 6.4.1 12.8.7 19-1.8 2.7-1.1 4.4-.2 4.3 2.6-.1 3.5 1.8 4.7 4.7 5.1.8 0 1.7.2 2.4.5 2 1.2 5.6-.2 6.2 3.1s-1 6.1-3.9 8zm-6.3-3.3c1.3-.1 3 .2 3.1-1.6s-1.3-1.6-2.4-1.2-3.4-1-3.3 1.6c.1 1.8 1.7.9 2.6 1.2zm-45.7 51.3c2.6-3 6.1 1.4 9-1.1.6-.5-.4 2.6.9 4l6.8-5.3.7.7c-.9 1.4-2 2.7-3.2 3.8-3.2 2.5-2.3 3.8.9 5.3 3.5 1.7 4.4 1.4 4.4-2.8 0-6.6 3.3-9.1 9.6-7.7 1.9.5 3.8.1 5.4-1 4.5-2.6 6.9-1.1 6.9 4 0 1.2-.1 2.3.7 3.3 1.5 1.9 2.9 3.7.6 6.1-1.9 1.9-4.7 2.7-7.4 2.1-2.9-.5-1.3-3.6-1.7-5.6-.1-.3-.1-.6-.3-1.4-6.7 10.4-15.2 6.7-24.1 3.2 1.7 2.6 1.1 4.6-.8 6.5-1.4-1.9-.4-3.9-1.2-6-2.3 1.7-5.6 2.9-6.6 5.1-1.1 2.4-.3 5.8-1 8.8-2.6-5.4-1.6-11.3-1.9-16.9 0-2.1.5-4 2.3-5.1zm1 8.9c.4-.2 1.2.4 1.2-.6l-1.2.6-.1.2.1-.2zm30.7-7c-.8-2.3-2.9-2.3-4.8-2.4-3.5-.2-4 2.5-4.2 5-.2 2.3.8 4.5 3.7 4.2 3.5-.6 3.9-4 5.3-6.8zm-27.8 2.6c0-1.1-.4-2-1.5-2.1-1.5-.2-2 .7-2 2.1 0 1 0 2.1 1.3 2.2 1.1.1 2.1-.7 2.2-1.8v-.4zm35.8-4.8c-.1-.9-.7-1.7-1.6-2-1.4-.3-1.6.8-1.6 1.8s-.5 2.5 1.3 2.4c1-.1 1.5-1.1 1.9-2.2zm1.5 6.6c.1-.5-.2-1.1-.8-1.2h-.4c-1.1 0-2.3.1-2.7 1.4-.3.9 0 1.7 1.1 1.5 1.1 0 2.3-.7 2.8-1.7zM95.6 33.7c-3.6-3.2-7.2-6.4-10.7-9.7-2-1.9-3.8-1.6-5.5.5-2.2 2.9-4.6 5.6-7.2 8.3-.8.7-2.2 2.9-3.5 1.2-.7-1-2.6-3 .4-4.8 3.5-2.1 8.3-5 8.4-8.5.2-3.4-5.7-4.8-8.5-7.6-3.2-3.2-8.3-3-13-7 4.3.1 8.5.9 12.4 2.5 3.7 1.5 7.2 3.5 10.2 6.1 2.3 2 4.3 2.4 7 .3 3.1-2.5 6.4-5 10.1-6.4 2.8-1.2 5.6-2.3 8.6-3.3-.3 3.1-2.3 3.9-3.8 4.9-3.9 2.5-7.8 5.1-11.9 7.3-3.3 1.8-2.4 2.9-.1 4.8 3.6 2.9 7.1 6 10.4 9.3 1.3 1.3 2.6 4 .9 5-1.9 1.2-4.4-.4-6-2.2l1.8-.7c.2.3.3.9.7.3l-.7-.3zm-17-15.9l-.1-.1.1.1.4.2-.4-.2zm245.8 117.5c1.4 4.8-.1 9.2-1.1 13.6-2.2 10-5.5 19.9-4.6 30.4.1 1.6.2 3.3.3 4.6 1.5 1.2 1.8-3.1 2.8-.5 1.3 3.3 3.7 4.2 7.5 4.3-3.1 2.9-10-.7-8.1 6.7-2.7-.8-2.3-2.9-3.3-4-1.7.5-1.1 2.5-2.3 3.1-.3-.1-.8-.1-.8-.2-.3-2.9-1.8-3.7-4.6-3.6-10.8.3-21.6.9-32 4.3-.7.3-1.5.8-3.3-.7 5.1-2.2 9.2-6 14.6-5.2 7.2 1.1 14.2-.1 21.3-.3 2.7-.1 3.5-1.3 3.9-4 1.9-15.2 4-30.3 7.8-45.2.1-1.1 0-2.6 1.9-3.3zm-6.9 50.6c-.1-.6-.2-1.4-.4-1.4-.9-.1-.8.8-.8 1.3 0 .4.3.7.5 1.1l.7-1zM180.4 60.5c4.8-2.1 6.1-8.9 13.2-6.7l-7 6.1c-2.8 2.5-3.6 4.4.9 6.2 3.5 1.4 6.9 3.3 9 6.8.5.9 2.2 1.4 1 2.8-.8 1.1-2.4 1.3-3.5.5-3.1-1.8-6.4-3.5-9.6-5.3s-4.7-1.4-4.3 2.6c0 .8 0 1.7-.1 2.5-.1 1.2-.1 2.6-1.7 2.7s-1.7-1.4-1.7-2.5v-24c0-1.3.3-2.1 1.8-2.4 2-.3 1.7 1.4 1.9 2.2.5 2.7-.8 5.5.1 8.5zm4.2 8.3l-.2-.3.2.3zm42 7.3c-.4-4-.9-7.5-1.1-10.9-.1-2.2-.9-3.3-3.3-3.3-2.2 0-3.5.6-3.6 3s-.4 4.6-.6 6.9c-.2 1.5.4 3.4-2.4 4.4 0-5.6-1.1-11.3.3-16.3 1.2-4.1 6.7-3.3 10.4-3.3 3 0 4.4 1.9 3.6 5.3-.7 2.6-.6 5.3.1 7.9 1.3 3.8-.2 5-3.4 6.3zM57.8 109.5c-.2 2.1.3 4.8-2.2 5.1-3.7.5-7.1 3.1-11 1.4-.5-.2-.8-1-1.2-1.5s2.6-13.6 3.1-14.1c1.2-1 1.7-.8 2.6.6 1.7 2.4 3.7 4.5 7.2 4.7 2.6 0 1.1 2.5 1.5 3.8zm-10.7 1.7c2.4-.5 4.6 2 7 .3.1-.3.1-.6-.1-.9-2.2-1.2-4.9-1-6.9.6zm4.9-4c-1-1.8-1.9-3.1-3.6-2.6-.6.5-.9 1.3-.7 2.1 1 1.5 2.5.7 4.3.5zm170.4 47.4c.2-2.5 2.3-1.5 3.3-2.9h-7.6c14.6-1.5 28.9-5.3 43.7-3.6-9.3 1.6-18.8 1.1-28 3.1 9.3.3 18.6-.7 27.9-.7-12.8 3.7-26.2 1.6-39.3 4.1z"/><path d="M214.9 58.6c-3.9 6.1-7.7 12.2-11.6 18.3-.4.7-1.2 1.3-2.1.8-1-.7-1.3-2-.7-3 0 0 0-.1.1-.1 4.9-6.2.6-8.5-4.3-10.8-2.4-1.2-.1-2 .2-3.1.5-2.2 1.4-1.8 2.7-.9l1.2.9c3.4 3 6.7 6.3 9.8-.5.5-1.1 2.4-1.6 3.7-2.3l1 .7zm61.5 63c-.2-1.5-.4-2.5-.5-3.5-.1-1.3-.3-2.9 1.6-3.1 2.2-.3 2.4 1.4 2.3 2.9-.3 3.2.3 4.6 4 3 2.2-1 5-1.1 6.2 2.1 1.2 2.9-.9 4.3-2.7 5.7-2.6 2-5.8 1.5-8.6.7s-2.1-3.7-2.3-6v-1.8zm10.1 2.7c-2.8-.4-4.4.2-5.9 1.9 3.3.2 3.3.2 5.9-1.9zM218 135.9c-3.7 0-5.5-1.7-5.4-5.5.2-5.8 3.7-9.9 8.5-9.8 3.7-.1 6.8 2.9 6.8 6.6v.4c0 4.7-4.5 8.4-9.9 8.3zm3.8-11c-3-.2-4.7 1.5-4.8 5-.1 2.3 1 3.6 3.2 3.4 3-.3 5.3-1.7 5.5-5.3.1-2.4-1.3-3.2-3.9-3.1zm-70.5-95.3c-.1-1.1.5-2.1 1.4-2.7 2.1-1.7 2.2-3.1-.1-4.5-1.7-1-2.2-3-1.2-4.3 1.4-1.7 2.7.3 3.6 1.1 2.6 2.3 4.8 2.1 7.3-.4 1.4-1.4 2.9-3.2 6.6-3.5-2.5 2.1-4.2 3.6-5.9 5-2.2 1.7-2 2.9.3 4.5 3 2.1 6.4 3.9 7.8 7.9-3.2-1.9-6.4-3.7-9.6-5.6-2.8-1.7-5.3-3-6.9 1.4-.5 1.3-1.8 1.7-3.3 1.1zM56.6 79.7l1 2.1.1-.1c-.3 0-.7 0-1-.1-6.6-3.3-7.1-3.2-10.2 4.1-.5 1.3-.5 1.3-3.3 3.1.5-3.9 2.9-6.6 4.8-9.3 1.4-2 1.1-3.1-.9-4.3-2.7-1.6-5.7-2.8-7.5-6 2.8-.5 4.2 1.6 5.8 2.7 3.7 2.6 7 4 9.8-1 .5-.6 1.1-1.2 1.7-1.6 1.1.6.6 1.2.2 1.7-3.6 4.9-3.6 4.8 1.9 8 1.2.7 3.6 1.1 2.3 3s-1.6-1.3-2.9-1.3c-.6-.3-1.2-.6-1.8-1zm134.8-47.2c2.5.2 5.4.3 5.2 3.8-.1 3.7-2.4 5.7-6.2 5.6-2.9 0-5.6-1-5.5-4.3.2-3.9 2.7-5.4 6.5-5.1zm-1.9 6.7l.1-.4h-.6c0 .1.1.3.2.4s.2 0 .3 0zm-5.5 122c-1.6 1.2-2.8.9-3.2-1.2-.3-1.4-.2-3.1-2.4-3.1.4 6.4.8 6.6 6.4 5.2 3.5-.9 7.1-1.8 10.6-2.5 1.1-.2 2.9-.9 3.5.8.5 1.5-1 2.3-2 3.1-1.5 1-3 2.1-4.9.9-.1-1.9 1.9-1.6 2.6-2.7-4.2.2-8 1.8-12 2.8-1.8.5-3.9 1.1-4.7-1.2-1-2.9-2.6-5.8-1.7-9 .4-1.2 1.6-.6 2.5-.1 2.3 1.4 4.2 3.1 4.5 6.1l.8.9zM52.6 174.6c-2.4-.3-5.2-.9-4.8-3.8s1.1-6.6 5-6.8c2.9-.1 4.9 2 4.9 5.1.1 3.2-2 4.9-5.1 5.5zm2.4-5.4c-.2-.4-.3-.9-.5-.9-.4 0-.8.1-1.2.2.1.3.2.7.4.8.4 0 .8 0 1.3-.1zM7.7 179.7l2.2-27.5c2.4 1.9 2 3.6 2 5.1-.3 6.1-.8 12.2-1 18.3-.1 2.3-.8 3.8-3.2 4.1zm213.1-22.8c10.4-3.8 21.3-1.6 31.9-1.8-10.4 2.6-21.3.2-31.9 1.8zM9.6 202.6c3.9-1.9 7.7-3.2 12.1-1.4 2.7 1.1 5.6-1.8 9.4 0l-9.2 3.2c1 1.8 4.1.8 3.7 4-5.2-2.3-10.2-4.8-15.8-5.6l-.2-.2zM91.3 49.2c-3.9 2.2-7.3 5.2-9.9 8.9-2.6 3.7-3.2 8.2-4.6 13.8-1.7-10.5 5.9-21.6 14.5-22.7zm52.8-10.9c2.3 1.5 5.9 1.8 6.6 5.5.2 1.1-1.4 1.9-2.1 1.3-2.1-2.1-6.4-.1-7.1-4-.2-1.3 0-3.2 2.6-2.8zM166 61.5c3.2-.1 3.3 2.4 3.3 4.4.1 2.6-1.4 4.4-4.2 4.5-2.2 0-4-1-3.6-3.6s.8-5.4 4.5-5.3zm-.7 2.7c-1.5.5-1.9 1.7-2 3 0 1 .8 1.3 1.7 1.3 1.1.1 2.1-.7 2.2-1.9v-.7c.1-1-.9-1.7-1.9-1.7zm-63.5-43.5c2.8 1.3 5.5.5 8.1 1.1 1.2.1 2.1 1.2 2 2.4 0 .2-.1.3-.1.5-.4 1.6-1.7 1.4-2.8 1.1-2.5-.7-5-1.6-7.5-2.5-.8-.3-1.6-.9-1.1-1.9.2-.4 1-.5 1.4-.7zm-97.9-5c1.4-3.9-.5-7.8.3-11.5.3-1.4.6-3.6 2.2-3.4 2 .3 1 2.4.8 3.7-.7 3.9-.7 7.9-3.3 11.2zm128.5 20.1c-2.6-1.1-5.4-2.1-8.1-3.3-.8-.4-1-1.3-.6-2.1.4-.5 1-.8 1.7-.7 3.1.4 6 1.9 8.1 4.2.8.8.6 1.9-1.1 1.9zm18.1 146.9c-.5-2-2.7-.6-4.2-2.6 6.2-.3 11.7-1.3 17.3.6-4.4-.3-8.8.4-12.9 2h-.2zm115.4-29.2h10.6c.8 0 1.7 0 2 1.1.2.7-.3 1.5-1.1 1.6h-.3c-2.1.1-4.3 2.4-6.4-.7-.6-1-3.2-.7-4.9-1l.1-1zm-111.1-105c1 .3 2 .7 2.9 1.2 1.8 1.4 3.9 2.5 4.5 5 .1.5-.2 1-.7 1.1-.2 0-.4 0-.6-.1-2.3-1.3-5.3-1.9-6-5.1-.1-.7-.1-1.4-.1-2.1zm-95.3 88.9c1.5 3.2 2.7 6.4 1.2 10.4-3.2-3.5-2.6-6.9-1.2-10.4zm263.1 70.3V203l-6.5 3.3c1.5-3.7 4.4-6.4 7.6-4.8 2.6 1.2.9 4.4-1.1 6.2z"/><path d="M183.3 160.3l8.5-10.1c-1.1 4.8-4 8.2-7.7 11l-.8-.9zm-124-58.4c-.4-5.4 4.5-4.7 7.2-6.6-.6 4-5.3 3.7-7.2 6.6zm12.4-11.7c2.5-1.9 5-3.4 8.1-3.4-2.2 2.4-4.5 4.5-8.1 3.4zm-16.5 29.4c2.3 4 3 6.6 2 10.3-1.8-3.1-3.2-5.6-2-10.3zm37.2-41.9c-1 4.6-4.1 4.2-7.7 4.4 1.9-3.4 4.7-3.7 7.7-4.4zm-88.7 120c0-4.5 1-8.9 3-12.9l-.1-.1c0 4.5-1 8.9-2.9 13zm52.5-35.6c.2-1.7-.4-3.6 1.5-4.4.3-.1 1.2.2 1.2.4.6 2.3-1.2 3.1-2.7 4zM6.8 203.9c-1.3 1.3-3.1 2.1-4.9 2-1.9-.2-1.5-1.3-.3-2.1 1.7 1.5 3.3-.4 4.9-.1l.3.2zM73.4 50.1c-.2 1.9-1.4 2.7-3.5 3.7.5-2.4 2.1-3 3.5-3.7z"/><path d="M1.7 203.8c-.1-2.2.7-4.3 2-6l-.1-.1c.3 2.3-.1 4.4-2 6l.1.1zM249.8 14.5l-.7 1.1c-.2-.4-.6-.8-.6-1.1s.6-.7.9-1l.4 1zM7.6 179.7c.2 1.8.4 3.6-1 5l.1.1c-.1-1.8-.6-3.6.9-5.1zm162.3 88.4c-.1.8-.2 1.6-1.1 1.9-.2.1-.7-.1-.8-.3-.1-1 .4-1.9 1.2-2.4l.7.8zM9.7 202.8c-.8 1-1.8 1-2.9 1.1l-.2-.3c.8-.8 1.9-1.1 3-1l.1.2zm14.9-137l-.6-1.3c1 .2.3.9.6 1.3zm144.7 201.5l1.2-.3-.6 1-.6-.7zM65.3 43.1l-.4-1 1 .3-.6.7zm.7-.7l.2.8-.8-.2.6-.6zm216.6 30.3zm-225 9.1zm189.7 36.6l1-.3-.3 1-.7-.7zm-99.5 18.2c.3.5.2.7-.4.4l.4-.4zm-28.2 38.2c-1.4-.1-2.6-.4-1.2-2 1.3-1.5 3-2.7 4.8-3.4l.5.5c.3 2.3-1.1 4.1-2.4 6.3 3.8 1.3 7.7-.4 11.5 2.6-4.5 0-8.3.2-12.1 0-3.3-.2-2.4-2.2-1.1-4l.9-1.1 1-1 .1.1-1 1-1 1zm2-18.1l1.9.9.3.4-6.8 5.1-.8-.9c1.5-2 3.3-3.9 5.4-5.5zm10.2-30l-14 3v.1c4.2-2.8 8.8-4.2 13.9-3l.1-.1zm-13.2 19c-1.7 2.8-4.7 3.6-7.3 5.2 1.4-2.8 3.8-4.6 6.3-6.2l.2.2.8.8zm14.2-44h-9.7c3.1-.8 6.4-1.6 9.7 0zm-3 53.1c1.2-1.4 2.8-1.6 3.6-.1 1 1.9.2 3.8-1.5 5.2l-.4-.3c.4-2 2.4-4.6-1.7-4.8zm-.9 9.2c-.9 2-2.3 3.7-4.1 4.9l-.4-.4c1-1.9 2.4-3.6 4.1-4.9l.4.4zm-.3-23.3c-1.7 1.7-3.9 2.3-6 3l.1.1c1.3-2 3.5-3.1 5.9-3.1z"/><path d="M128.6 140.7c.9-1.2 2.1-1.4 3.2-.4.9.8.6 1.6-.3 2.4l.1.1c-.3-1.8-1.7-1.9-3-2.1zm3-11c-.3 1.7-1.4 3.2-3 4 .3-1.7 1.4-3.2 3-4zm-7 24c.3-1.7 1.4-3.2 3-4l.1.1c-.4 1.7-1.5 3.1-3.1 3.9zm-10.9-50.9c1.1-.9 2.5-1.2 3.8-.8-1.1 1.4-2.6.2-3.8.8zm-3.1 29.9c-.6.9-1.6 1.4-2.7 1.3.5-1.5 1.7-1.3 2.7-1.3zm6.4 30.5c-.8.8-1.4 1.8-2.8 1.9-.2-1.6 1.1-2.1 2.1-2.8l.7.9z"/><path d="M131.6 142.7c.3 1.6-.4 3.3-1.8 4.2l-.3-.2 2.1-4zm-22.9-38.9c1.5-1.2 3.3-1 5-1v-.1c-1.5 1.2-3.3.9-5 1.1zm5 17c.7-1.1 1.8-1.8 3-2l-.1-.1c-.6 1.1-1.7 1.9-2.9 2.1zm-13.1 11.9c-.6 1.1-1.7 1.8-3 2 .7-1 1.8-1.7 3-2zm7-6c-.6 1.1-1.7 1.8-3 2 .7-1.1 1.8-1.8 3-2z"/><path d="M129.8 146.9c-.3 1.2-1.1 2.3-2.1 2.9l-.1-.1c.3-1.2 1-2.3 2-3l.2.2zm-25.1-42.1c1.1-1.2 2.6-1 4-1v-.1c-1.1 1.2-2.6 1-4 1.1zm24.6 57.7c.3-1.2 1.1-2.2 2.1-2.9l.3.3c-.3 1.2-1 2.3-2 3l-.4-.4zm-11.7-32.8l-3 1v.1c.8-.7 1.9-1.1 3-1.1zm-22.4-22.4l-.3-.1.2-.1.1.2zm36.4 19.5c1.4 1 .9 2 0 3v-3zm-27-22.1l-1.2.7-.2-.6 1.4-.1zm18.1 8.1l2-1-2 1zm50.9 12l.6-2.3.8.7-1.4 1.6zm0-.1l-.4.7c0-.1 0-.3.1-.3.1-.1.2-.2.3-.2v-.2zm-51 19l-2 1c.5-.7 1.3-1.1 2-1zm-2 1c-.4 1-1.2 1-2 1l.1.1v-1l1.9-.1zm9 10l-2 1c.4-.9 1.2-.9 2-1zm-4 2c.4-.7 1.2-1.1 2-1l-2 1zm0 .1l-1.8 1.2-.3-.4 2.1-.8zm-31-16.1l2-1-2 1zm4-2l-2 1 2-1zm0 .1l2-1-.1-.1-1.9 1.1zm2-1c.3-1 1.2-.9 2-1v-.1l-2 1.1zm4-2.1l-2 1v.1l2-1.1zm6-2.9c.4-.9 1.2-.9 2-1v-.1l-2 1.1z"/><path d="M114.6 130.7l-2.1 1v.1l2.1-1.1zm17.2-25.9l1-1.9-1 1.9zm.8-3.1zm-1 3l-1 1 .1.1.9-1.1zm-1 1l-1 1 1-1zm-36 32.1l1-1-.1-.1-.9 1.1zm31-1.1l1-1-1 1zm-29.9.1l1-1-.1-.1-.9 1.1zm25.9 3.9l1-1-1 1zm1.1 15.1l-1.1 1 1.1-1zm-4-12c.1.3.1.7 0 1-.3.1-.5.1-.8.1l-.2-.2 1-.9zm7.9-8.1l1-1-1 1zm-7 7l-.9 1-.1-.1 1-.9zm-22-8l-1 1 .1.1.9-1.1zm25.7 34.7l1-.9.4.4-.9 1.1-.5-.6zm-15.7-42.6l1-1-.1-.1-.9 1.1zm1.1-1l1-1-1 1zm18.9 8.9l1-1-1 1zm-17-11l-1 1 1-1zm1-1l-1 1 1-1zm11 33l1-1 .1.1-1.1.9zm-22-22.9l1-1-.1-.1-.9 1.1zm23 5.9l1-1-1 1zm4.8 24.8l.9-1.1.5.4-.9 1.1-.5-.4zm-15.8-41.8l-1 1 1-1zm-10 9l-1 1 .1.1.9-1.1zm19 10.1l-1 1 1-1zm2 13.9l1-1-1 1zm-11-32.9l1-1-.1-.1-.9 1.1zm-9 7.9l-1 1 .1.1.9-1.1zm14-12l-1 1 .1.1.9-1.1zm.1.1l1-1-.1-.1-.9 1.1zm4.9 21.9l1-1 .1.1-1.1.9z"/><path d="M118.6 116.8l1-1-.1-.1-.9 1.1zm-15 13l1-1-1 1zm16.1-14l1-1h-.1l-.9 1zm1.9-2.1l-1 1h.1l.9-1zm0 .1l1-1-1 1zm-1 27.9l-1 1 1-1zm5-31l-1 1 1-1zm1-1l-1 1 .1.1.9-1.1zm1-1l-1 1 .1.1.9-1.1zm-3 29l1-1-1 1zm3-28.9l1-1-1 1zm1-1l1-1-1 1zm-.9-51.1v1.1c-.8.1-1.6-.3-2.1-1l2.1-.1zm68.9 119h-5c1.5-1 3.5-1 5 0zm-25-2.9v-1.1c.9.4.5.7 0 1.1zm28 2l-.8-.3c.5-.6.6 0 .8.3zm-3 1l.2.2-.2-.2zm-52-28.1c2.6 2.4 4.4 5.5 5 9-2.6-2.3-4.3-5.5-5-9zm5 9c1.3.4 2.2 1.6 2 3-1.3-.3-2.2-1.6-2-3z"/></svg>