<svg viewBox="0 0 320.67 72.94" xmlns="http://www.w3.org/2000/svg"><path d="M71.15 3.35c1.2.06 2.66.44 3.59 0 1.73-.71 3.33.48 4.92-.1 2.83.71 5.77.41 8.65.56 4.31.21 8.62.28 12.93.4 4 .11 7.92.39 11.85.24a39.07 39.07 0 0 1 5.26.08 12.63 12.63 0 0 0 4.68-.1c.44-.12.83.15 1.2.27.84.26 1.71.84 2.49-.12a.9.9 0 0 1 .59 0c1.91 1 4.09.63 6.12.7q7.48.33 15 0a80.56 80.56 0 0 0 8.57-.66 40.11 40.11 0 0 1 4.08-.25c3.59-.21 7.07-.58 10.6-.9 3.13-.29 6.3-.18 9.44-.46a45.56 45.56 0 0 0 6.15-.52c1.72-.38 3.71-.13 5.57-.26 3-.21 6-.13 9-.54a26.37 26.37 0 0 1 3.23 0c3.35 0 6.7 0 10-.21 2.93-.19 5.87-.29 8.8-.35 3.23-.06 6.45-.22 9.68-.29C239 .78 244.41 1 249.84.83q3.71-.18 7.42 0c1.77.13 4 .76 5.61-.74a.27.27 0 0 1 .2 0c1.81.58 3.59 0 5.39 0 4.71.1 9.41-.24 14.13 0a21.78 21.78 0 0 1 3.41.29 4.94 4.94 0 0 0 3 0 1.61 1.61 0 0 1 .85-.09q3.61.48 7.27.65c1.61.19 3.24.09 4.86.35a53.7 53.7 0 0 0 8.47 1.16c.31 0 .91.26.9.38 0 .45-.53.46-1 .51a13 13 0 0 1-3.21.28.38.38 0 0 0-.45.23.35.35 0 0 0 .35.38c.93-.08 1.69.48 2.7.31 2.26-.38 3.59 1.1 5 2.16.37.27 0 .76-.5.72-1.79-.16-3.49.84-5.43 0-.81-.37-2.32.15-3.59.13a.7.7 0 0 0-.45.35c-.2.35.22.29.42.41.94.59 2.11.29 3.12.54a8.41 8.41 0 0 1 1.47.2c1.2.51 1.2 1.25.22 1.94-.23.15-.49.26-.71.41s-.81.26-.66.6.62 0 1 .07c1 .12 1.32.72.63 1.49-.35.39 0 .48.3.67.62.47 1.4.05 2 .29.33.13.94.28.89.67s-.57.15-.9.16-.86-.07-.77.36a1 1 0 0 0 1.11.65c1.33-.33 2.19.34 3.15.84.53.28.5.68-.1.7-.81 0-1.2.69-1.93.74-.37 0-1-.13-.91.43.1.4.72.3 1.11.29a7.91 7.91 0 0 1 4.78 1.21 2.72 2.72 0 0 1 .39.43c.24.41 1.05.68.75 1.19s-1.05.15-1.59.28c-.31.07-.72-.17-.94.22-.55.91-1.44.63-2.19.32-1.67-.68-3.59-.25-5.24-.76a.8.8 0 0 0-.9.38c-.18.59.53.31.8.46a12.71 12.71 0 0 0 4.52 1.06c.67.09 1.32.6.78.92-1.72 1-.28 1.94.14 2.63a2.87 2.87 0 0 0 2.49 1.69c.33 0 .79 0 .81.43s-.42.41-.75.46a4.36 4.36 0 0 1-.65 0 .39.39 0 0 0-.43.32c0 .27.23.4.53.49.59.18 1.14-.2 1.67-.1.33.06 1.09.46.6.62-.77.26-.78 1.12-1.42 1.14-1.36 0-2.39.92-3.59 1-1.4.1-.93.72-1.05 1.26l-.85-.14c-.48-.08-1.2-.34-1.32.1s.77.33 1.2.46c1 .3 2.07.51 3.1.77.3.07.53.24.47.51 0 .09-.36.2-.51.17a3.93 3.93 0 0 0-2.7.78 6.62 6.62 0 0 1-3.52.66c-1.1-.07-2.13.23-3.21.18-.19 0-.91-.2-.44.4.69.88.11 1-.81 1-.28 0-.61 0-.65.34s.19.43.43.58a1.36 1.36 0 0 0 2.14-.63c.12-.26 0-.6.39-.77s.47-.34.77-.15a.5.5 0 0 1 .24.64 3.84 3.84 0 0 1-.36.45c-.43.66-.25 1 .71 1h2.2a3.11 3.11 0 0 1 1 .19c0 .52-.6.26-.92.36a.75.75 0 0 0-.61.66 6.11 6.11 0 0 1-.17 1c-.3.91-.89.94-1.63.31a1.39 1.39 0 0 0-.44-.26c-.17 0-.18.14-.07.17a3.09 3.09 0 0 0 .56 0l-.57.54c-.35.32-1.2 0-1.2.49a1.41 1.41 0 0 0 .75 1.41.76.76 0 0 1 .45 1.08.86.86 0 0 1-.28.29c-.36.3-.53.53-.19.91.84.94.14 1.12-.84 1.14a7.76 7.76 0 0 1-1.08 0c-.36 0-.44 0-.49.17s.22.3.41.36a11.41 11.41 0 0 0 1.61.52 2.24 2.24 0 0 1 1.29.58c.12.13.3.32.26.44a.79.79 0 0 1-.71.25 4.68 4.68 0 0 1-.61-.19c-.41-.12-1-.35-1.2 0s.43.78.85.79c1.5 0 2.19.45 1.82 1.82-.12.42.65.29 1 .41h-.07a1.4 1.4 0 0 0 .94.43h-.06a1.27 1.27 0 0 0 1 1c1.33.57 3 .8 3.68 2.16.17.31.61.21.94 0 .57-.28.94.09 1.34.32.17.1.33.24.2.42s-.25 0-.38 0q-.52-.11-1.05-.18a.77.77 0 0 0-.56.19c-.17.24 0 .43.29.58.8.43 1.73.87-.2.92a15.33 15.33 0 0 1-2.18.12c-.3-.12-.51-.17-.55.21s-.55.41-.8.31c-1.73-.67-3.59-.33-5.39-.63-.22 0-.44-.15-.6 0s0 .4.26.54.35.23.22.43a.43.43 0 0 1-.53.1c-.43-.2-.93-.56-1.2.14s.41.92 1 .83c1.63-.23 2.39.71 3.29 1.52v-.11l-.53.41c-1 0-2 .45-2.88-.16h-.19c-.11 0-.24-.28-.33 0h.59a2.87 2.87 0 0 1-2.57.61c-3.27-.35-6.52-.74-9.78-1.11a2.75 2.75 0 0 0-1.48 0 3.2 3.2 0 0 1-3 0 .72.72 0 0 0-.56.17c-.28.3.08.38.32.48a3.54 3.54 0 0 0 1.45.32c.36 0 .87-.11 1 0 1.34 1.19 3.3.55 4.78 1.21 2 .87 4.49.84 6 2.52.29.33.79.24 1.2.39.57.21 1 .48.67 1.11s-.63.55-1.2.43c-3.59-.77-7.33-1-11-1.47a66.83 66.83 0 0 0-7.86-.51 39.84 39.84 0 0 0-5-.08 63.71 63.71 0 0 1-7.7.32c-2.13 0-4.21.34-6.38.21a24.53 24.53 0 0 0-4.26.18 53.33 53.33 0 0 1-7.75.1 101.32 101.32 0 0 0-11.58.47c-1.63.14-3.27.07-4.9.23-1.32.12-2.62.12-4 .33-1.52.24-3.28.07-4.89.19-3.29.23-6.58.11-9.87.36a57.2 57.2 0 0 1-7.57-.13c-2.13-.12-4.28-.05-6.4 0q-4.52.15-9-.1-5.59-.46-11.22-.44c-3.29 0-6.57-.13-9.81-.41-2.57-.21-5.14.19-7.72-.31-1.06-.21-2.32.18-3.52.12-3.45-.17-6.89-.28-10.34-.49-1.91-.12-4-.08-6-.11-2.79 0-5.6.11-8.37-.05-3.76-.22-7.48.22-11.23.25-3.09 0-6.17.21-9.26.39-5.07.3-10.13.62-15.18 1.11a82.39 82.39 0 0 1-9.14.52q-3.5.06-7 .43c-2.66.2-5.32.19-8 .38-.24 0-.57 0-.63.27a1.44 1.44 0 0 0 .32.17c.12 0 .75 0 .71.24s-.54.18-.84.17a18.47 18.47 0 0 1-2.27-.53c-1-.17-1.47.88-2.39.61a8.68 8.68 0 0 0-3-.36c-1.94.09-3.9.16-5.8.14-3 0-6 .09-8.95-.07-3.86-.2-7.73-.25-11.59-.33a19.15 19.15 0 0 1-3.16-.48c-2.22-.42-4.52-.6-6.79-.86a7.92 7.92 0 0 1-1.29-.07.87.87 0 0 1-.84-.71c0-.45.49-.31.8-.35a7.36 7.36 0 0 1 2.09-.35 1.72 1.72 0 0 0 .54-.18 2.77 2.77 0 0 0-.61-.14c-2.08 0-4-.78-6-1.06a1.72 1.72 0 0 1-1-.4 4.29 4.29 0 0 0-3-1.34c-.35 0-.75-.21-.72-.57s.49-.53 1-.55 1 .12 1.36-.34c.19 0 .55.21.47-.19 0-.06-.32.08-.42.24a4.12 4.12 0 0 0-3.11-.11c-1.78.71-3.29-.33-4.7-1.1-.55-.3.12-.47.39-.52a3.59 3.59 0 0 0 2.85-1.76c.18-.29.28-.7-.19-.73-2.66-.19-4.92-1.9-7.75-1.41-.29 0-.81.08-.81-.32s.47-.38.84-.38h1.95a2.33 2.33 0 0 0 1.94-.53c.13-.16.69-.22.68-.27a.74.74 0 0 0-.78-.51 2.92 2.92 0 0 1-3-1.39c-.24-.47-.31-.67.39-.58 1.69.22 3.37.39 5 .69.53.09.94.26 1.36-.13.19-.18.44-.54.17-.59-1.38-.22-1.2-1.74-2.58-2s-2.89-.6-4.34-.89c-.28-.06-.57 0-.86-.09s-.6-.11-.63-.41a.45.45 0 0 1 .39-.55 1.1 1.1 0 0 0 1-.87h.53a.4.4 0 0 0 0 .14H15l-.2-.12c-.12-.17-.28-.13-.43 0-.47-.37 0-.81-.12-1.2a1.72 1.72 0 0 0-1.84-1.44q-2.15-.11-4.28-.42c-.36 0-.81-.07-.86-.42s.43-.42.75-.48c.69-.13 1.41-.2 2.12-.32a.55.55 0 0 0 .3-.14c.16-.28-.18-.3-.33-.32a5.89 5.89 0 0 0-1.29-.11 3.75 3.75 0 0 1-3.47-1.68 2.82 2.82 0 0 1-.43-.62c-.19-.45-1.3-.27-1.06-.6s1.2-.17 1.78-.13c2.55.16 5.11.29 7.67.41.43 0 .92 0 1-.44a.77.77 0 0 0-.44-.77 5 5 0 0 0-2.35-.82 4.49 4.49 0 0 1-2.07-.34c-1.11-.66-1.2-.63-.1-1.49.67-.55.57-.89-.42-1.21-.37-.12-.66-.28-.71-.6s.37-.44.72-.51.92-.32.86-.69-.69-.28-1.08-.38a9.64 9.64 0 0 0-1.51-.3c-1-.1-1.52-.21-.42-1 .57-.41.12-.69-.41-.91-1.81-.74-1.79-.75-.26-1.61 1.06-.59 1.08-.69.2-1.44-.19-.17-.62-.29-.62-.45a3.26 3.26 0 0 0-2.53-2.77c-.89-.34-.83-1 0-1.53.65-.45 1.27-.85.65-1.61-.36-.43 0-.47.36-.6s.72-.27.2-.33c-1.94-.2-1.83-1.95-3.13-2.66-.25-.13-.4-.57-.75-.79a.9.9 0 0 1-.28-1.39 1.14 1.14 0 0 1 .35-.28c1.48-1.08 2.76-2.4 4.78-2.89.36-.09.41-.28.28-.54s-.35-.66-.55-1-1.26-.21-.73-.8a1.38 1.38 0 0 1 1.59 0 1.89 1.89 0 0 0 2.24.12c.92-.37 1.09-.27.25-.77-.24-.15-.47-.33-.31-.58s.49-.19.75-.09c.74.3 1 0 1.2-.58.1-.26.55-.49.2-.77s-.65-.12-.94.11-.79.33-.91-.2-.23-.93.68-.64c.22.07.43 0 .43-.19s-.17-.2-.29-.23a8.18 8.18 0 0 1-1-.22C7.23 8.54 7.14 8 8 7.38c.22-.16.62-.29.53-.52-.68-1.44.83-1.13 1.5-1.2 2.28-.25 4.2-1.47 6.52-1.61.29 0 .45-.29.56-.64s.3-.45.86.14a.58.58 0 0 0 .7.2.45.45 0 0 0 .33-.33c.3-1 1.2-.83 2-1a50.5 50.5 0 0 1 5.24-.09c1.7 0 3.53.36 5.29.34s3.78.31 5.6-.26M16 9.93V10h-.07c-.8-1-2-.84-3.11-.68-.48.07-.92.35-1.44.13-.24-.1-.55-.32-.74 0s.17.39.37.55c1.67 1.26 3.32.32 4.99-.07zm34.22 56.54q.48.15 1 .26c.19 0 .45 0 .47-.21 0-.05-.33-.14-.51-.18a1.25 1.25 0 0 0-1 .18 1.72 1.72 0 0 0-1.09-.52c-3.4-.39-6.84-.17-10.24-.62-.86-.11-1.52.78-2.39.28-.14-.08-.36 0-.32.14a.57.57 0 0 0 .41.33c1.81 0 3.47.75 5.3.68 1.35-.06 2.7-.07 4-.13a24.29 24.29 0 0 0 4.22-.38.34.34 0 0 0 .15.17zM296.84 7.39c1.2 0 2 .07 2.87.07.32 0 .87.18.92-.2s-.5-.31-.8-.27a3.47 3.47 0 0 1-1.65-.26c-1.89-.62-3.95-.48-5.91-.86a17.45 17.45 0 0 0-3.78 0c-.25 0-.68.22-.69.36s.39.19.62.23a49.14 49.14 0 0 0 8.42.93zM42 2.39a4.56 4.56 0 0 0 2.06.27 10.6 10.6 0 0 0 1.09.09 1.89 1.89 0 0 0 .74-.13m.37 67.61h-.43c-.5 0-1.32-.36-1.39.19s.83.49 1.39.52h.22A5.44 5.44 0 0 0 48 70.4zm22-67.38c-.11.18 0 .34.2.37a.49.49 0 0 0 .5-.4M12 13.4a2.32 2.32 0 0 0 .62-.36c.16-.16 0-.33-.26-.34a.68.68 0 0 0-.71.29c-.05.19.09.32.35.41zM9.16 34.46a.76.76 0 0 0 .5-.18.21.21 0 0 0-.06-.28.32.32 0 0 0-.18 0 .87.87 0 0 0-.55.19c-.21.13.03.2.29.27zM308.1 60l.33-.38c-.12-.06-.24-.17-.35-.17a.34.34 0 0 0-.35.34q.03.33.37.21zM18 8c-.18.09-.43.14-.51.27s.13.26.32.25a.43.43 0 0 0 .45-.31S18.12 8.14 18 8zm291.26 5.7a.47.47 0 0 0-.56-.18.41.41 0 0 0-.25.19.49.49 0 0 0 .55.16c.11-.02.19-.12.26-.17zM303.77 45l-.32.15a1.35 1.35 0 0 0 .37.12.75.75 0 0 0 .36-.09c-.01-.24-.24-.18-.41-.18zm2.61 1.17c-.16.07-.22.18-.11.3a.42.42 0 0 0 .32.17.17.17 0 0 0 .11-.28 1.31 1.31 0 0 0-.32-.18zM14.51 12.46c0-.15-.1-.22-.26-.2s-.17.08-.17.09.08.24.18.28.14 0 .2-.16zm-4.57 1s.13 0 .12-.05a.75.75 0 0 0-.06-.29.08.08 0 0 0-.13 0 2.42 2.42 0 0 0 0 .32zM314 28.71h.14c.02 0 .08-.1-.08-.12s-.06.09-.06.12zm-.23-1.53l.14.09v-.12zm-6 36.81s-.11 0-.13.08 0 .09.07.1.23 0 .19-.12-.11 0-.16 0zm-279.06.6l.16-.06h-.3zM303.4 38.47l-.17.07a.79.79 0 0 0 .1.11l.25-.12zM24.92 6.42a.1.1 0 0 0-.1-.1.25.25 0 0 0-.18 0c-.12.08-.07.15.11.15s.11-.03.17-.05zM309.47 43.1a.09.09 0 0 0-.08-.09.25.25 0 0 0-.17 0c-.11.07-.07.13.11.14s.09-.03.14-.05z"/><path d="M12.84 57.26c-1.66 0-2.57-1.1-3.72-1.85-.11-.07-.1-.18 0-.27a.48.48 0 0 1 .37-.14 8.88 8.88 0 0 1 1.2.43c.29.13.54.57.89.33 1-.65 1.35-.18 1.76.49.16.25.69.54.62.66-.17.36-.75.28-1.12.35zM310 70.84c-.35.66-1 .42-1.46.22a9.36 9.36 0 0 1-1.54-.94c-.16-.11-.36-.25-.22-.45a.56.56 0 0 1 .69-.2h.05a9.67 9.67 0 0 0 2.06 1l.5.44zm-.14-6.52a3.19 3.19 0 0 1 2.39.11c.31.19.57.4.42.72a.59.59 0 0 1-.73.19c-.81-.32-1.87 0-2.55-.7l.53-.41zm.36-9.42c0-.33-.61-.64-.19-1s.83 0 1.09.26 1 .75-.07 1h.06a1.88 1.88 0 0 0-.94-.43zm9.01-34.26a1.37 1.37 0 0 1 1.3-.24c.17 0 .18.2.06.21h-1.41zM22.2 66.76c.2-.21.31-.53.75-.4a.14.14 0 0 1 .07.14c-.19.33-.57.17-.89.22zm289.98-26.57c.12.09.14.18 0 .27a.21.21 0 0 1-.17 0c-.13-.08-.14-.18 0-.26s.11-.01.17-.01zm-2.57 30.28c.18-.08.39-.22.56-.07s0 .31-.14.44l-.5-.44zm5.72-64.58s0-.09.06-.09.24.07.11.13-.11-.02-.17-.04zm-5.1 46.58l.16-.02-.04.09zm.97 18.95s0-.08.06-.08.22.06.1.11-.1-.02-.16-.03zm2.14.02l.19-.02-.01.1z"/><path d="M22.15 66.72l-.18.1h.2zM6.92 6.35l.15-.03-.03.1zm-.27 3.53l.04.11-.12-.02zM1.17 28.62l.04.09-.11-.02zm312.73 6.43l.15.05-.09-.1z"/></svg>