<svg viewBox="0 0 397.88 73.79" xmlns="http://www.w3.org/2000/svg"><path d="M5.06 60.88c-2-.11.19-1.44-1-1.76A2 2 0 0 1 6 59a1.51 1.51 0 0 0 1.64.13l.15-.13c0 .58.5.68 1.15.61.15 0 .49 0 .3-.26A1.63 1.63 0 0 0 7.93 59h-.2c.41-.91-1.68-.31-1.56-1.31 0-.64-.38-1.1.95-1a4.18 4.18 0 0 0 1.52-.18c1.06-.33 1.16-.45.72-1.23a.41.41 0 0 1 0-.31c.36-1.24-.22-2-2.07-2.21a.75.75 0 0 1-.76-.52c0-1-1-1.29-2.07-1.61-.63-.18-1.07-.56 0-.77s.89-.41.16-.79a6.59 6.59 0 0 0-2.78-1.25A2 2 0 0 1 0 46.45c0-.55.63-1 1.4-1h.26c.22 0 .55-.08.38-.25-1.36-1.4 1.17-1.59 1.62-1.75 1.54-.57.89-1 0-1.32-1.21-.44-2.1-.82-1.36-1.89.1-.13-.08-.29-.29-.39-1.21-.51-.49-.66.27-.81.35-.07.86-.09.78-.42s-.57-.27-.92-.3a4.62 4.62 0 0 1-.88-.08c-.42-.12-.9-.35-.31-.66 1.58-.78 2.37-2.18 4.3-2.58.28-.06.62 0 .67-.31s-.23-.49-.6-.6c-.71-.22-2 0-2-.72s1.26-.59 1.94-.81a2 2 0 0 0 1.55-1.26 1.13 1.13 0 0 1 .91-1c.35-.09.71-.42.49-.62-2.09-1.82.77-1 1.19-1 1.4-.1 1.26-.52.57-1.07s-.53-.77.21-1.29a1.84 1.84 0 0 0 .07-3.11c-.49-.47 0-.34.25-.41s.68-.21 1-.3.63 0 .68-.29-.37-.27-.62-.31c-.63-.1-1.64.05-1.64-.55s1.1-.7 1.73-.7c1.49 0 1.82-.31 1.22-1.33-.42-.71 0-1.24 1.29-1.2a10.45 10.45 0 0 0 1.12 0c.27 0 .7-.1.76-.23.1-.29-.36-.23-.58-.33a11.36 11.36 0 0 0-2.46-.65c1.31-.8 2.81-.26 4.29-.36 1.08-.09 2.43.52 3.1-.7.2-.37 1.25-.13 1.91-.09a50.78 50.78 0 0 0 5.49.12 51.81 51.81 0 0 1 6.42.14 3.11 3.11 0 0 0 2.47-.58c.19-.15.54-.22.43-.48s-.47-.21-.74-.25c-2.71-.28-5.44-.49-8.13-.86-1.4-.19-2.73-.43-4.1-.62-.2 0-1.64-.26-.09-.54.22 0 .42-.18.3-.34a.75.75 0 0 0-.54-.15c-2.18.88-4.37 0-6.55 0-.28 0-.59.2-.81 0s.26-.32.4-.5.3-.26.33-.41c.14-.82.2-.91 1.34-.75 3 .4 6.1-.07 9.15.15a96.11 96.11 0 0 0 14.82 0c.35 0 .82.12 1-.13 1.09-1.29 3.11-1.14 4.71-1.32q7.16-.94 14.46-1.28c4.13-.12 8.23-.47 12.36-.64a2.73 2.73 0 0 0 .61-.1c0-.27-.39-.2-.63-.23-2.28-.32-4.61 0-6.88-.29-4.46-.6-8.84.2-13.27.15a38.4 38.4 0 0 0-4.62.37c-.59.07-1.21.28-1.39-.37s0-1 .93-1a4.26 4.26 0 0 0 .89-.09c.21-.06.71.09.57-.28a.77.77 0 0 0-.69-.36 4.43 4.43 0 0 0-2.14.32A1.46 1.46 0 0 1 46.56 5l-.07.06c1.4.15 2.08-.75 2.9-1.14 1.73-.79 3.87.14 5.32-.88a.48.48 0 0 1 .62.29c.24 1.17 1.18.44 1.82.32s-.82-.93.54-.85l2.42.05a10.53 10.53 0 0 1 2.58.15c1.69.44 3-.21 4.43-.55a6.25 6.25 0 0 1 1.69-.19c6.29.2 12.62-.08 18.88-.11 5.09 0 10.18.23 15.26.1a107.54 107.54 0 0 1 11.75.19c1.69.15 3.37.24 5.07.28 3.53.08 7 .24 10.6.24 4.61 0 9.18.71 13.81.58 2.81-.08 5.45-.44 8.19-.57 3.38-.15 6.75-.4 10.14-.58 4.35-.23 8.71-.55 13.08-.63a51.19 51.19 0 0 1 6.78-.1 26.16 26.16 0 0 0 5.77-.27c3-.28 6-.43 9-.46 3.46-.21 6.94-.26 10.41-.16 2 .1 4 .09 5.88.05 3.09 0 6.18 0 9.25.12 5 .11 10.08.16 15.13.25 3.74.08 7.49-.07 11.22 0 1.68 0 3.47-.44 5.08.34 2.15-.72 4.38 0 6.54-.08 7.48-.29 15 .2 22.44.08 7.22-.11 14.45-.17 21.67-.56 3.52-.19 7.09-.24 10.65-.26 5.32 0 10.61-.47 16-.28l11.49.31q6.83.15 13.65.4c1.23 0 2.51.22 3.68.33 2.64.26 5.28-.11 7.88.28.29 0 .53.13.83 0 3.75-1.37 7.58-.38 11.39-.17.28 0 .64 0 .72.28s-.29.46-.63.54a11 11 0 0 1-2.67.09c-.39 0-1-.28-1.1.17s.64.36 1 .47a14.12 14.12 0 0 0 3.08.15c.91 0 2 0 2 .9 0 .66.26 1.62-1.44 1.56a1.78 1.78 0 0 0-1.15.42c-1 .73-1 1.22.4 1.41s1.22.71.69 1.26c-.34.36-2 .54 0 .94-.56.68-.11 1.75-1.56 2.08.19.33 1.59.87-.22.9a4.75 4.75 0 0 0-1.23.29c-.41.08-.95.28-.51.76s.72.58 1 0a.71.71 0 0 0 0-.15c1.29 0 1.86.88 2.77 1.39.5.22.66.69.35 1a1 1 0 0 1-.38.26c-.65.38-1 1-2 1.14-.2 0-.55 0-.58.32-.09.76-.13.77-1.24.69-.63 0-1.23-.12-1.25.54 0 .38-.48.3-.78.42q-.8.35-1.53.76a2.29 2.29 0 0 0 1.93-.27c.55-.27.92-.32 1.23.18a2 2 0 0 0 1.19.68c.22.07.65-.06.63.21 0 .09-.48.22-.76.24-1.94.17-3.08 1.54-5.1 1.64-.67 0-.8.57-.3 1 .26.22.94.46.07.59s-.42 1.1-1.57.67c-.67-.25-1.4-.29-.64-.94.21-.19.7-.36.41-.62s-.81-.19-1.27-.16a2.27 2.27 0 0 0-1.75 1.11c-.33.45.82.4 1 .68 1.16 1.53 3.07.17 4.49.67.54.19 1.65-.33 1.66.41 0 .57-.65 1-1.75.59a.85.85 0 0 0-1.13.49c-1.22 2.29-1.19 2.21 2.43 2.34A91.63 91.63 0 0 1 387.79 31a46.33 46.33 0 0 0 4.65.29c.53 0 1.23 0 1.28.46s-.67.41-1.15.53a18.35 18.35 0 0 1-3.75.29c-.2 0-.48 0-.51.16s.22.26.44.29a8 8 0 0 0 1.4.13 29.32 29.32 0 0 1 7.31 1c.52.1.52.11.11.56 0 .08-.17.22-.13.27 1.28 1.52-.63 1-1.43 1.2-2.29.58-4.51-.29-6.77-.15-.56 0-1.4-.13-1.5.42s.85.67 1.39.76c.94.15 1.92.16 2.88.28 1.22.14 1.21.67.45 1.11s-1.79.89 0 1.4c.14 0 .16.28.23.44a3 3 0 0 0 2.92 1.79c.31 0 .61.11.59.37s-.32.3-.58.4-1.31-.16-1.24.32.92.44 1.52.41 1.21-.13 1.4.3-.69.6-1 .66c-1.75.27-3 1.41-5.07 1.14-1-.14-1.53 1.11-2.83.94-.25 0-.22.32.12.43s.65.31.79.26c1.67-.67 2.58.58 3.9.78.29 0 .61.09.55.37s-.47.17-.72.22c-3.57.86-7.35.73-11 1a34.63 34.63 0 0 1-5.24-.12c-1.86-.15-3.74-.24-5.6-.33-.31 0-.84-.16-.87.23s.45.37.8.43 1 .47 1.47.23c.84-.42 1.4-.11 2.21.14s1.39.5 2.12.11a1.22 1.22 0 0 1 1.22 0 2.31 2.31 0 0 0 2.43 0 .8.8 0 0 1 1.21.32c.16.42-.31.62-.9.69s-2.24-.34-2.25.19 1.49.27 2.28.33c2 .15 3.93.61 5.91.77.27 0 .67 0 .71.26s-.39.38-.6.38c-2.06 0-3 1.46-4.67 1.9-.52.13-.29.33.13.51 1.39.6 2.66 1.32 4.17 1.83 1.07.37 1.7 1.2 2.77 1.57.71.24.15.35-.14.47-1.63.64-.93.86.37 1 .39 0 .85.15.83.43s-.51.31-.85.42c-.55.18-2.35-.85-1.55.79a4.26 4.26 0 0 1-1.74.24c-1.39-.33-2.57.25-3.76.53-.69.16-1.38-.83-1.63 0s1 .78 1.7 1l.21.06c.72.23 2 .32 1.75 1-.18.48-1.56.61-2.31.39-1-.28-2.09-.15-3-.48-.42-.14-.92-.3-1.16 0s.4.38.58.57c.42.47 0 .58-.53.49-3.69-.69-7.48-.54-11.2-.75-2.07-.06-4.13 0-6.19.1a5.36 5.36 0 0 0-.59.09 4.34 4.34 0 0 0 .58.18c3 .51 6 1.06 9.08 1.5 4.19.6 8.25 1.74 12.49 2.28a5 5 0 0 1 1.39.56c.17.07.5.07.43.29s-.31.15-.52.14a21.21 21.21 0 0 1-2.67-.2 5.72 5.72 0 0 0-3.43.2 2.94 2.94 0 0 1-1.74.1c-1.17-.25-2.32-.5-3.26.34a.88.88 0 0 1-.62.1c-1.39-.47-2.9 0-4.2-.16-4.73-.64-9.39-.21-14-.15a4.79 4.79 0 0 1-1.52-.17c-.46-.14-1.13-.36-1.4 0s.32.67.72.93a7.87 7.87 0 0 0 .72.38 2.32 2.32 0 0 1 .36.33 4.91 4.91 0 0 1-.63 0c-.78-.17-1.56-.37-2.34-.53-4.84-1-9.86-1-14.79-1.56a81.94 81.94 0 0 0-9.46-.94c-.53 0-2.09 0-1.05-1.11.36-.39-.42-.45-.82-.46-5-.11-9.91-.34-14.89-.22a34.53 34.53 0 0 1-6.1-.14 38.89 38.89 0 0 0-5.88 0 5.94 5.94 0 0 1-.87-.12c-2.8-.24-5.61.2-8.41-.35-1.93 1-4.2-.39-6.14.36-.82.31-1.5-.73-1.9-.49-1.82 1.12-4-.79-5.7.39-1.66-.84-3.55.22-5.25-.36a2.22 2.22 0 0 0-1.5 0 2.89 2.89 0 0 1-2.33-.05 1.64 1.64 0 0 0-.84-.16c-2.5.37-5-.24-7.47-.1-6.25.36-12.54.11-18.79.64a86.55 86.55 0 0 1-9.82.34c-1.75 0-3.94-.68-5.62.49a.54.54 0 0 1-.59 0 3.43 3.43 0 0 0-3.46-.08c-1.55-.76-3.14-.07-4.71-.11q-6.21-.24-12.41 0c-2.29.11-4.59.18-6.89.26-5 .21-10 .66-15 1-6.64.45-13.29.89-19.91 1.44a88.39 88.39 0 0 0-10.26 1 17.65 17.65 0 0 1-2 0c-1 .08-2.25-.47-2.82.61 0 .06-.28.09-.41.07a17.26 17.26 0 0 0-4.58.33 58.48 58.48 0 0 1-11 .48h-.45c-1 0-1 0-1.59.78-.16.23-.51.1-.72.06-4.61-.71-9.2.11-13.76-.07-3.1-.13-6.17.15-9.28-.21-2.25-.23-4.57-.17-6.85-.28a61.29 61.29 0 0 1-10.63-1.24 16.69 16.69 0 0 0-2.62-.17c-.28 0-.62 0-.69-.33s.11-.53.46-.63 1.13.25.75-.32c-.26-.38-.83-1.1-1.38-.89-1.23.47-2.17-.15-3.21-.25-4.46-.44-8.92 0-13.35-.17-2.69-.14-5.4.64-8-.18-2 .77-4.08-.09-6.17.13s-4.37-.35-6.57-.54c-.36 0-.71-.21-1.06-.2-6.31.15-12.45-.88-18.64-1.6a81.62 81.62 0 0 1-13.43-2.69c-.87-.16-1.83.11-2.66-.28-.25-.11-.59-.17-.55-.43s.45-.21.69-.2a8 8 0 0 1 3.08.2 3.4 3.4 0 0 0 1.52.2c.52 0 1.4.25 1.41-.19s-.85-.26-1.27-.41c-2.28-.8-5.22-.5-7-2.16-.26-.15-.35-.52-.8-.43-.21 0-.23.24-.15.42zm79.72 9.8h.07v.07zM59.29 4c-.59.08-.86.31-.61.74 0 .07.25.16.32.14.66-.18.15-.61.33-.89-.07-.1 0-.12 0 0s.23-.17-.04.01zM372.7 51.49c.66 0 1.33.11 2 .13a3 3 0 0 0 .63-.11c-.07-.16-.25-.19-.46-.22-3.54-.45-7.14-.58-10.64-1.24a1.11 1.11 0 0 0-.94.16c.26.08.54.14.79.23 2.74.96 5.73.75 8.62 1.05zm-3.46-2.08a.63.63 0 0 0-.58-.41q-2.26-.07-4.51-.33c-.25 0-1 0-1 .37 0 .14.59.39.89.38a12 12 0 0 1 4.27.47.67.67 0 0 0 .9-.51zM11.79 59.72c-.32.06-1 0-.9.15a2.18 2.18 0 0 0 1.52.53c.28 0 .71 0 .65-.25-.13-.48-.74-.36-1.27-.43zm368.77-44.1c-.08-.3-.37-.32-.65-.28s-.75.09-.74.42c0 0 .36.16.56.16s.74 0 .85-.3zM62.32 4.44c-.29 0-.62 0-.69.21s0 .3.2.36a.52.52 0 0 0 .26 0c.34 0 .81 0 .89-.28s-.32-.28-.65-.32zM7.75 51.8c0-.16-.1-.31-.31-.37a.61.61 0 0 0-.67.12c-.12.18.09.27.29.32a.89.89 0 0 0 .69-.07zm363.46 18.37c0 .23.19.23.37.24a1.44 1.44 0 0 0 .39-.09c-.1-.11-.16-.28-.3-.34a.44.44 0 0 0-.46.19zM58 5.19c.16-.24.09-.32-.09-.32s-.49.16-.51.38.11.17.18.25zm326.24 31.26c.41 0 .6 0 .73-.12a2 2 0 0 0-.56-.18 2.32 2.32 0 0 0-.61.15zM10.4 30.14c0-.14-.14-.27-.34-.29a.53.53 0 0 0-.34.14.17.17 0 0 0 0 .3.36.36 0 0 0 .14 0 .46.46 0 0 0 .54-.15zm211.66-24c-.14-.07-.21-.14-.29-.15a2.13 2.13 0 0 0-.39.05.63.63 0 0 0 .19.11 3.71 3.71 0 0 0 .49.03zM45.85 10.72l-.19.14s.14.05.17 0a.87.87 0 0 0 .19-.14zM20.2 12l.38-.12a1.23 1.23 0 0 0-.36-.16c-.13 0-.43 0-.41.17s.25.02.39.11zm204.62-5.81a1.92 1.92 0 0 0-.29-.17.33.33 0 0 0-.2 0c-.13.08-.1.18.09.2a1.49 1.49 0 0 0 .4-.03zM94.51 7.43h.15v-.08h-.15v.08zm-67.74 5.11l-.17.07.1.09.26-.11zM381.05 36h.17a.48.48 0 0 0-.14-.07 1 1 0 0 0-.17 0zM13.9 30.82l-.14-.09c-.17-.06-.29 0-.28.11s.15.16.29.1.09-.07.13-.12zm361.5-9s-.07-.09-.11-.09a.15.15 0 0 0-.14.07c-.06.07.07.09.11.09a.31.31 0 0 0 .14-.12zm4.28 41.33l.1.05v-.07zM342.05 5.57l-.09.08h.13z"/><path d="M46.68 5.23c-1.14-.3-1 .78-1.88.85-.52 0-1.16.25-1.4-.12s.25-.63.82-.71a3.56 3.56 0 0 0 1.91-.74c.26-.22.32-.68.88-.42.79.37-.14.59-.24.88 0 .1-.09.2-.12.3zm-.92 2.29c-.3 0-.6 0-.6-.18 0-.42.58-.39 1-.48a.47.47 0 0 1 .51.16.21.21 0 0 1 0 .2c-.16.3-.67.23-.91.3zm340.41 47.36c-.21 0-.53.06-.46-.14s.5-.33.84-.36c.1 0 .32.09.33.15 0 .4-.44.28-.71.35zM15.21 11.33c.29 0 .47.14.46.29s-.37.22-.62.18-.5 0-.29-.26.32-.15.45-.21zM11 19.41l-.09.13-.28-.14v-.12zM385.3 51.1a1.38 1.38 0 0 1-.37.06.79.79 0 0 1-.32-.14A1.34 1.34 0 0 1 385 51a1.25 1.25 0 0 1 .3.1zM6 60.89c-.3.78-.6-.12-.9 0h1zM136.06.02l.18-.02-.04.09zm255.65 61.79l-.14-.04.15-.03zm-166.07 8.38l-.21.03.04-.09zM77.58 71.92V72l-.14-.05zm77.86 1.44l.14.06-.15.02zM13.08 17h.13q-.18-.09-.07.08z"/></svg>