<svg xmlns="http://www.w3.org/2000/svg" viewBox="0 0 119.86 118.44"><defs><style>.cls-1{fill:#ffc800}</style></defs><title>arrow-up-hover</title><g id="Слой_2" data-name="Слой 2"><g id="Слой_1-2" data-name="Слой 1"><path d="M48.3 118.44h-1c-1.71-2-2.8-5-5.77-5.28a20.32 20.32 0 0 1-10.12-4.5c-6.14-4.66-12.81-8.53-16.93-15.61-3.63-6.22-6.06-13.19-11-18.62S.35 62.63.09 56.49c0-.59.33-.86.88-.95a1.1 1.1 0 0 1 1.41 1c.13.82.09 1.67.29 2.47.15.63.49 1.66.85 1.71 1.16.17.86-1.11 1.24-1.73 2-3.4-1.69-6.94.4-10.58 1.47-2.56 1.24-5.54.46-8.65-1.13-4.53-1.29-10.16 3-12.56 3.63-2 4.27-5.07 6-7.84.43-.67 1-2 1.63-1.55 3.19 2.36 3.85-.68 4.64-2.29a12.65 12.65 0 0 1 5.71-5.77c2.08-.93 4.13-4.23 5.93-2.89 2.64 2 4.13.09 6.17-.23 2.58-.41 3.86-3.2 6.54-3.24.36.6.72.55 1.1 0l.92-1 1.06-1c3-1.15 6.62-2.06 9.05-.69s4.89 1.19 7 2.44c1.44.87 7-1.88 3.66 3.74 0 .06.43.36.59.59 1.81 2.67 11.79 5.91 14.43 4.68 5.89-2.75 10.16-2.1 14.06 2.06.67.71 1.09 1.68.12 2-3.4 1-1 2.28-.24 3.4 1.74 2.58 3.18 5.52 5.44 7.53s2.88 5.24 6.22 6c6.15 1.42 8.85 4.86 9.34 11 .23 2.88.3 6 1.45 8.51 1.27 2.8-.69 5.43.36 8.16.16.41-3.1 1.7-5.07 1.66-1.07 0-1.36.71-1.58 1.55-1.12 4.18-2.39 8.36-1.72 12.76a4.35 4.35 0 0 1-1 4.1c-2.56 2.58-3.46 5.85-4.11 9.31-.74 3.92-3.68 6.11-7.19 5.57-1.13-.17-1.23.89-1.86 1.19-3.28 1.61-6.06 3.63-7.29 7.31a1.22 1.22 0 0 1-2 .61c-2.39-1.64-4 .53-5.75 1.42-2.9 1.45-5.37 3.48-8.64 4.51-8.43 2.63-17.59 2.88-25.29 7.64zm28-104.94c-.41.25-1.36-.39-1.3.65a1.39 1.39 0 0 0 1 .95c2.19 0 4.25 1.24 6.47.69.19 0 .28-.54.41-.83zm15.83 3.16c-.21-.24-.39-.64-.63-.69-2-.42-4-.78-6.06-1.11-.06 0-.38.72-.28.81 1.81 1.77 4.43-.08 6.34 1.39.11.05.45-.26.67-.4z"/><path class="cls-1" d="M29.26 85.55h-1.91c-.25-1.65.47-3.06 1.08-4.51.22-.54.68-1.21 0-1.7a1.78 1.78 0 0 0-2.06-.28c-.76.52-1.35 1.29-2.09 1.86-2.17 1.68-3.87 4.2-7.1 4V83c1.35-2.81 4-5.18 3.78-8.47a4.76 4.76 0 0 1 .92-3.37c6-8.6 12.28-17 17.83-25.87 4.27-6.81 10.43-12 14.58-18.88a3.8 3.8 0 0 1 2.36-1.51c1.28 1.86 2.78 3.06 5.26 2.16 1.56-.56 2.27.52 2.82 1.8a107.53 107.53 0 0 0 12.44 21c6.45 8.77 13 17.47 19.51 26.2v4.45c-4.92 4.32-10.53 3.68-14.3-1.81-2.09-3-4-6.25-5.84-9.44-1.15-2-2.36-3.78-4.66-4.52a1.64 1.64 0 0 1-1.33-1.84c.25-5.65-1.7-8.75-7-10.69-1.49-.55-2.36-1.35-1.84-2.71 1.22-3.2-.93-5.05-2.36-7.35-1.6-2.57-2.61-2.13-4.19 0-5.95 8-11 16.53-16.33 24.94-1 1.57.85 4.87-3 4.78-.05 0-.15.38-.17.58-.29 3-2.26 5.16-4 7.42a9.38 9.38 0 0 0-2.4 5.68z"/></g></g></svg>