<svg id="Слой_1" xmlns="http://www.w3.org/2000/svg" viewBox="0 0 135.3 60.2"><style>.st0{fill:#ffc700}</style><path class="st0" d="M133.1 27c.2.6.2 1 0 1.1-.2.2-.4.3-.6.3-.3-.2-.6.3-.9.3 0 0-.1.1-.1.3 0 .1.1.1.1.1l.5.4c.1.1.2.2.2.5s-.1.4-.2.5l-.2.1c0 .1.1.2.1.3l.3.3c.1.1.2 0 .2.5 0 .4-.1.5-.2.6-.2.1-.3 0-.3.8 0 .1-.2.3-.3.4l-.6.3c-.2.1-.4 0-.2.8 0 .1-.1.4-.1.6v.3c0 .1.1.1.1.2.1 0 .2-.2.2-.3.2.2.5.6.7 1.1-.1.5-.4.8-.6.7-.4-.3-.6.7-.9 1.1-.1.1-.1.4-.1.7 0 .5-.1.7-.2.6 0 0-.2-.1-.1.2 0 .1.1.2.1.2.2-.1.3.1.4.4.4.8.6.8 1.3 1h.2s.3.2.2.4-.1.3-.3.3c-.3.1-.5.2-.8.2-.2 0-.4.2-.5.7-.2.5-.4.7-.6.5-.1-.4-.2-.4-.2 0-.2-.2-.4-.2-.7 0-.4.2-.8.5-1.2.8-.8.7-1.6.4-2.4.8-.2.1-.3.2-.5.3 0 0-.1.1-.1.3 0 .2.1.3.1.3.6.3 1.1.4 1.7.2.3-.1.7-.2 1-.1 0 0 .1.1.1.2s-.1.3-.1.4-.1.4-.1.4c-.2.1-.1.3 0 .5.1.5.3.2.5.4.1.1.2-.3.2.2 0 .4 0 1-.2 1h-.1c-.4 0-.8.3-1.2.2-.1-.1-.2 0-.4.1-.4.7-.8.3-1.1.6-.4.2-.8.2-1.2.2-.2-.1-.4.1-.5.4-.2.3-.4.4-.6.3-.2 0-.4-.3-.4-.9-.1-.5-.2-.3-.4-.4-.8.1-1.5.1-2.3-.1-1.4-.5-2.9-.1-4.3-.2-.5 0-1 .1-1.6 0-.2 0-.3 0-.5-.2-.1-.1-.1-.1-.2-.1-.5.7-1 0-1.6 0-.2 0-.4.5-.5.3-.4-.5-.8.3-1.2-.2-.2-.3-.5-.2-.6.3-.2-.1-.4-.7-.6.2 0 .2-.2 0-.3-.2-.2-.3-.5-.5-.7-.5 0 0-.1.1-.1.2-.1.2 0 .3 0 .4.1.2.2.6.3.5.5-.5.8 1.1 1.2.6.1-.1.2-.3.3 0 .2.7.6 1 .9 1 .1 0 .1.1.1.3 0 .3-.1.3-.1.3-.4-.3-.8 0-1.2-.2-.1-.1-.3-.1-.4 0-.4.3-.9.3-1.3 0l-.1-.1c-.4.7-.8-.5-1.2.2-.8-.6-1.5-.2-2.3-.1h-3.3c-.9.1-4 1.7-5 1.7s-2 .2-3 0c-.7-.2-1.4-.2-2.1-.2-.4.1-.8.2-1.3.3-.4.1-.7.2-1.1.3-.4-.1-.9 0-1.3.2h-.2c-.8-.3-1.6.2-2.3.1-.5-.1-1 .1-1.4.1h-1.6c-1.1 0-2.2.1-3.3.2-.7 0-1.3-.1-1.9 0-.9.1-1.8-.4-2.8-.3-.4 0-.9 0-1.3-.1-.5-.1-1 .3-1.5-.2-.1-.1-.2-.1-.3.1-.1.2-.2.2-.2.2-.7-.3-1.4-.4-2.1-.3-.7.1-1.5-.6-2.2 0-.1 0-.2-.1-.3-.2-.1-.1-.3-.3-.4-.1-.2.3-.4.3-.6-.2-.1-.2-.2-.2-.3.3-.1.3-.2.2-.3 0-.1-.3-.3-.2-.4.1-.2.7-.5.9-.6 1.5-.1.4-.2.5-.4.4-.3-.3-.6-.3-.8.2-.2.3-.4-.8-.5.1-.3-.1-.5.6-.7 1.1-.1.1-.1.2-.2.2-.9-.2-1.7.5-2.5.5-.6 0-1.2.5-1.8.1-.5-.3-1 0-1.5-.2-.7-.2-1.4-.1-2-.1-.5 0-1-.2-1.5-.3-.3 0-.6.1-.8 0-.7-.1-1.3-.4-1.9-.4-.4 0-.8-.3-1.3-.3s-.9-.4-1.3-.5c-.5-.2-1.1-.3-1.6-.4-.7-.2-1.4-.4-2-.7-.5-.2-1-.4-1.5-.5-.4-.1-.8-.3-1.2-.4-.4-.1-.8-.3-1.3-.3-.4 0-.7-.2-1.1-.3-.9 0-1.7.1-2.6.2-.6-.1-1.1.1-1.7.3-.2 0-.3 0-.5-.1-.2 0-.4-.4-.5.4-.1.3-.2.2-.3 0-.2-.4-.4-.5-.6-.1-.1.2-.3.2-.4-.2-.1-.3-.3-.5-.4-.3-.8.4-1.5.5-2.3.3-.5.1-.9.1-1.4 0-.1 0-.2-.1-.2 0-.1 1.2-.3.2-.5.1-.4-.3-.9-.2-1.3.2-.2.2-.4.3-.5.3-.2 0-.4.1-.6.2-.6.3-1.2.4-1.8.7-.3 0-.5.1-.8.3-.3.1-.5.1-.8 0-.8-.1-1.2-.1-1.6-.2-.2-.1-.4-.1-.7 0-.6.1-1.3-.1-1.9-.6-.1-.1-.2-.1-.4-.1h-.3c-.4-.3-.8-.5-1.2-.7-.4-.3-.8-.3-1.2-.2-.8.1-1.5-.1-2.3.2-.1 0-.3-.1-.4-.3-.2-.2-.4-.3-.6-.2-.2.1-.4 0-.7-.3-.6-.4-1.1-.3-1.7-.6-.7-.4-1.4-.8-2.1-1-.1-.1-.2-.2-.3-.4 0 0-.1-.2-.1-.4l.1-.1c.3-.1.5-.2.8-.4.1 0 .2.2.2-.2 0-.1-.1-.2-.2-.3-.1-.1-.1-.1-.2-.1-.6.3-1-.6-1.5-1.3.1-.1.1-.4.1-.6 0-.3-.1-.6 0-.8.1-.2.2-.2.3-.1.4.5.9-.2 1.4.3.1.1.1 0 .2-.2 0-.3 0-.5-.1-.6-.1-.2-.2-.1-.3-.1-.3-.1-.7 0-.8-1-.1-.3-.2-.2-.3-.3l-2.4-1.2c-.1 0-.2-.1-.2-.2 0 0 0-.1-.1-.2 0-.1 0-.3.1-.3.2-.3.5-.4.8-.3.7.2 1.4.5 2.1.8 0 0 .1-.1.1-.2 0-.2 0-.3-.1-.3-.6.3-1.1-.4-1.7-.5-.7-.2-1.5-.7-2.2-1.5-.1-.1-.2-.3-.1-.7v-.1c.2-1.4.2-1.4.7-1 .4.4.8.3 1.2.6.3 0 .5.2.8.3.1.1.2.1.4 0 .1 0 .3-.1.3-.5 0-.3-.1-.6-.2-.7-.3 0-.6-.7-.9-.7-.4 0-.7-.7-1-.9-.1-.1-.1-.2 0-.4v-.1c0-.5.3-.5.3-1 0-.2-.3-.3-.4-.6-.2-.2-.3-.4-.5-.5 0 0-.1-.1 0-.2 0-.1 0-.2.1-.2.2.1.3.2.5.3 0 0 .1.2.1 0v-.4c-.1-.2-.1-.5-.2-.5-.4-.2-.6-1.1-.8-2-.1-.3-.1-.5 0-.7.2-.4.4-.7.6-.9.3-.1.7-.5.9-1.1 0-.1.1-.1 0-.3h-.1c-.2.2-.4.1-.2-.7.1-.3 0-.5 0-.6 0 0-.1-.1-.2-.1s-.3.1-.3-.5c0-.8.2 0 .3-.2.1-.2.3.2.5-.5.1-.3.2-.1.3-.1h.4c.1-.1.2-.2.2-.5s-.3-1.1.2-1c.2 0 .3-.5.5-.2.2.2.4.2.6-.1 0-.1.1-.2.1-.3 0-.2-.1-.4-.1-.4-.3 0-.5-.1-.7-.1-.5-.1-.9-.7-1.4-.8 0 0-.1-.1-.1-.2s.1-.1.1-.2c.2-.2.3-.3.5-.3.1.1.2.1.2-.2v-.1l.1.1s.1-.1.1-.2-.1-.2-.1-.1c.1.1.1.2.1.3h-.3c-.1 0-.1-.2-.1-.4.3-.6-.1-1.1 0-1.7 0-.3-.1-.2-.1-.3-.2-.4-.5-.5-.8-.5-.1.1-.3 0-.4-.3.1-.6.3-.4.5-.7 0-.1.1-.2.1-.4s-.1-.2-.1-.2c-.1-.1-.2-.1-.2-.2-.1-.2-.3.5-.4 0 .2-.2.2-1.1.4-1.2.3-.1.5-.6.7-.6.2 0 .3-.2.3-1s.1-1.3-.2-1.5c-.1 0-.2-.3-.2-.5 0-.3.1-.6.2-.7l.3-.3c.1-.1.2 0 .3-.1.5-1.2 1.1-1 1.7-1.2.3-.1.6-.1.8-.9.3.2.3-.9.5-.8 0 0 .1-.1 0-.2h-.4c-.5 0-.9-.3-1.4-.3-.4.1-.8 0-1.1-.3-.3-.2-.5-.2-.7 0 0 0-.1 0-.1-.1s0-.2.1-.3c.1-.4.1-.8.4-1.1.2-.1.5-.2.8-.3.1-.1.3 0 .1-.7v-.2c0-.1.1-.1.1-.1.4.4.9.4 1.3 0 .4.9.6 0 .9-.3.1-.1 0-.2 0-.3s-.1 0-.1-.2c0 0 0-.1.1-.1s.3 0 .4.1c.2.3.3-.1.5-.3s.1-.4 0-.5c-.3-.4-.1-.5 0-.8 0-.1 0-.3.1-.4 0 0 .1.1.2.1.2-.3-.1 1.8.3.8.2-.5.4 0 .6-.4.2-.4.4-.4.6-.1-.1.1 0 .2.1.2.2.1 0-.5.1-.6.1-.2.3 0 .3.3.1.4.2.6.3 0 0-.2.1-.2.2-.1.5.5 1.1.3 1.7.6.4.1.8-.1 1.2-.7 0 0 .1-.1 0-.2 0-.1 0-.2-.1-.2-.1-.1-.2-.1-.3-.1-.1 0-.2-.1-.1-.4s-.1-.6 0-.8c.1-.1.2 0 .3.3.2.5.4.9.6 1 .1 0 .2.1.2-.2 0 0-.1-.3-.1-.4s-.1-.3-.1-.4.1-.1.1 0c.2.1.3.2.5.4.2.3.4.6.5-.2 0-.2.1-.2.2-.2.4 0 .8.3 1.2-.5.2-.2.3-.2.5.1.3.6.7.7 1.1.2.6-.7 1.1-.2 1.7 0 .2.1.2.3.3.2.4-.5.8 0 1.2.3.3.3.7.4 1 .3.2 0 .4.1.6.3.4.3.7.3 1.1.6.5.3 1 .7 1.4.9.3.1.5-.4.7-.1.2.4.4.6.7.7.1 0 .2-.2.1-.5-.1-.1-.1-.2-.1-.4s.1-.2.2-.2l.1.1c.1 1.3.4.9.7.9.5 0 1 0 1.5-.1.1 0 .1-.1.2-.1-.1-.1-.1-.2-.2-.2-.2-.2-.4-.1-.5-.5-.1-.1-.1-.3-.1-.5s.1-.2.2-.2.2 0 .2.3c.1.6.2.6.3.2.2-.6.3-.4.5-.1.3.4.7 1 1 .6 0-.1.1-.2.1-.1.5.5 1.1-.3 1.6-.2.6.1 1.2-.2 1.8-.2.7 0 1.4-.4 2.1.2.4-.3.8.3 1.2.2s.8.4 1.1-.1c.5-.2.6-.2.8-.2.8-.1 1.5-.3 2.3-.6.5-.1 1-.9 1.5-.4.1.1.3.3.4-.4 0-.3.2-.1.3 0 .3.2.6.2.9-.1.2-.3.4.1.6 0 .4-.2.8-.3 1.2-.4.2-.1.4-.1.7.1.6.3 1.1.4 1.7.3.2 0 .4.3.6.3.5.1 1-.1 1.5-.7.2-.4.4-.5.6-.5.1 0 .1 0 .2.3s0 .3-.1.5c0 .1-.1.2-.1.3 0 .1-.1.2 0 .4 0 .1 0 .1.1.2.2.1.4.1.6-.1.2-.2.4-.3.6-.2.1 0 .4-.3.3.8 0 .2.2.4.3.5 1.2.3 2.3.5 3.5.3.3 0 .5-.5.8-.5.8-.1 1.6-.4 2.4-.5.2 0 .3 0 .5-.2.1-.1.3-.1.5-.1.1 0 .2.2.2.4s-.1.4-.2.5l-.1.1c-.1 0-.1.2-.1.4s.1.2.1.2c.2 0 .4 0 .7-.2.2-.2.4-.2.7 0 .4.2.7.2 1.1.1 1.1 0 2.2.2 3.3-.1.5 0 .9 0 1.4-.3 0 0 0 .2 0 0 .1-.6.2-.3.3-.3.3-.1.6.6.8-.4l.1.1c.3 0 .5 0 .8-.2.4-.2.8-.2 1.2-.2 1-.1 1.9-.1 2.9-.2l.3-.3c.2-.1.3-.3.5.1.1.3.4.6.5-.5 0-.4.2-.4.3-.2.2.5.5.6.7.1 0-.1.1 0 .2 0s.1.2.2.2c.7-.1 1.4.6 2.1.4.1 0 .2-.1.2-.3 0-.1.1-.3.2-.2.3.6.7.6 1 .2.4.9.8-.3 1.2.5.1.1.2.1.2 0 .1-.2.3-.2.4 0 .1.2.3.2.5 0 .1-.1.1-.2.2-.1.2.5.5.5.8 0 .1-.2.2.1.3.3.2.3.3.4.5-.1s.2-.2.3 0c.1.3.3.4.5.2s.4-.1.6.2c.1.1.2.2.2.1.2-.6.5-.3.7 0-.1.2.1.2.2 0s.2-.2.3 0c.2.5.4.7.7.3.1-.1.2-.1.2 0 .1.1.2.3.2.3.4-.5.7.2 1 .3.3.1.7 0 1.1 0h.4c.5.2.5.2 1.1-.3h.1c.3.3.5.4.8.2.3-.1.6.2.9 0 .2-.1.5.3.7-.3 0-.1 1.9-.1 1.9 0 .2.3.6-.2.6-.1.4.5.8 0 1.2 0 .5 0 1.5.5 1.8.6.1 0 .2.1.2-.2.5.3 1 .4 1.4.1.1-.1.2-.1.3 0 .2.3.5.3.7-.1.5-.6 1.1-.2 1.6-.3.4-.1.7-.3 1.1-.4.6-.2 1.2-.2 1.8-.1.3 0 .6 0 1-.2.2-.1.5-.2.6.7 0 .3.2.5.2.3.2-.7.4-.2.6 0 .1.1.2.1.4-.1.1-.3.3-.2.4.1v.1c.2.7.4.8.7 1.2.1.1.1 0 .1-.1s0-.2-.1-.3c0-.1 0-.5-.1-.6s-.2-.4-.1-.6.2 0 .3.3c.1.3.1.9.3 1s.5.6.7-.2c.1-.1.2-.2.2-.1.4.5.8-.2 1.1-.5.1-.1.2-.3.3-.1.2.4.5.5.7.2.2-.2.5 0 .5-.4s-.2-.5-.4-.6c0 0-.1-.1-.1-.2 0-.2 0-.3.1-.3.1-.1.3 0 .4.3.1.2.2.5.3.6.1.1.2 0 .2-.2.1-.4-.1-.2-.1-.4s-.1-.3 0-.5.1 0 .1 0c.6.9 1.2.7 1.9.4.5-.2 1.1-.2 1.6-.3.1 0 .2-.1.4-.1.1 0 .2-.2.2-.2 1.1.6 2.3.1 3.4.3.1 0 .3.1.4.3.9.7 1.8 1.2 2.7 0 .1-.2.3-.3.3-.1.2.5.4.2.6.1.9-.7 1.8-.3 2.7-.3.3 0 .7 0 1-.2.3-.2.7-.6.8.9.2.3.5.5.7.7.1 0 .3 0 .4.2.1.2.3.1.4.7.1.6.4.6.6.6h.5c.2 0 .3.1.4.6 0 .3-.2.4-.3.4-.2-.1-.3.7-.4.7 0-.2.1-.4 0-.4-.1-.5-.4-.4-.6-.5 0 0-.1.2 0 .3.2.3.3.9.5.6 0 .3.1.3.2.3.2-.1.5.1.7.7.1.3.3.4.4.3.1-.1.2-.1.4.1.1.1.1.4 0 .4-.2.1-.3.3-.2.9 0 .2 0 .4-.1.4-.1.1-.2.1-.4-.1-.5-.6-1-1-1.5-1.2-.4-.2-.7-.9-1.1-1-.3 0-.6-.2-.9-.4-.1-.1-.2 0-.2.1-.1.1-.2.4-.2.7 0 .3.1.4.2.4h.4c.1 0 .2 0 .2.4.1.6.2 1 .4.9.7.1 1.3 1.4 2 1.8.1.1.1.2 0 .4-.1.3-.1.6-.2.8-.1.1-.1.4 0 .5.3.3.2.7.1 1.3 0 .3.2 1.2.3 1.3 0 0 .1-.1.2 0 .1.2.3.1.3.6 0 .6-.2.4-.3.4-.1 0-.2 0-.2.2s.1.4.2.4h.4s.2.3.1.5c-.1.3-.2.7-.3 1.1 0 .1-.1.1-.1.2-.1.1-.2-.3-.3-.1-.1.2.1.5.1.8 0 .2-.1.3-.2.2-.2-.1-.4-.1-.6-.1-.1 0-.2.1-.1.3.1.4 0 1.1.3 1.3.1.1.3.2.4.4 0 0 .1.2.1.4 0 .1-.1.2-.1.2-.3-.1-.7-.2-1-.3-.1 0-.1 0-.1.1v.4c0 .1.1.5.1.6.2.6.3 1.1 0 1.7-.1.1-.1.3 0 .5 0 .1 0 .1.1.1.5 0 .5.6.5 1.2 0 0-.1-.2-.1.1 0 .1.1 0 .1-.1zm-.5-7.2c0 .1.1.3.1.5 0 .1.1.1.1.1.1-.1 0-.3 0-.3-.1-.2-.2-.3-.2-.3zM61 53.5c-.1.3-.2.6 0 .9.3.3.7-.1.9-.9 0-.3.1-.8-.1-.9-.2-.2-.4-.3-.6-.3-.4-.1-.7 0-1.1-.1-.2-.1-.5-.2-.7-.2-.2-.1-.4.1-.6.5-.2.4-.4-.3-.7-.1-.6.4-1.1 0-1.7.1H56c-.1.1-.2.1-.4 0-.2-.2-.3-.2-.5 0-.1.1-.2.1-.4 0-.4-.5-.7.1-1.1.1 0 0-.1.1-.1.2 0 .3.1.3.1.3.6-.2 1.2.4 1.8.3.5-.1 1 0 1.5.1.5 0 1.1 0 1.6-.2 1-.4 1.8-.3 2.5.2zm71.3-28.9c.1-.1.2-.2.3-.1.1.1.1-.1.2-.3 0-.5-.1-.7-.2-1.1 0-.2-.1-.2-.1-.1v.1c-.1.4-.2.6-.4.6-.1 0-.1.3 0 .5 0 .2.1.4.2.4zM62.7 53.1c.1-.2.1-.3 0-.3-.2-.1-.3-.2-.5-.2-.1 0 0 .2 0 .3.1.2.1.5 0 .7v.4h.1s.1 0 .1-.1c.2-.2.3-.5.3-.8zM59 55c-.1 0-.2 0-.2.2 0 0 0 .1.1.2 0 .1.1.1.1.2.2.2.3-.4.5-.3l-.4-.3H59zM3.3 15c.1-.1.2 0 .2-.3s-.1-.4-.2-.4-.3 0-.3.3.1.4.3.4zm-.2 5.4c-.1 0-.2-.2-.3.3 0 .2 0 .3.1.3.1.1.2-.1.3-.4.1-.2 0-.1-.1-.2zm.4-6.6c0-.2 0-.4-.1-.4s-.2-.1-.2.1.1.4.1.5c.1.1.2.1.2-.1v-.1zm103.7 34.9c0-.1-.1-.2-.1-.3s-.2-.2-.2 0 .1.3.2.4c0 .2.1.1.1-.1zm-47 6.7c0-.3-.2-.4-.3-.4 0 0 0 .1-.1.2 0 .3.1.5.2.4.2 0 .2-.1.2-.2zm72-29.7c0-.4-.2-.3-.2-.3s0 .1-.1.1c.1.2.2.3.3.4v-.2zm-4.7 22.5c0-.2 0-.3-.1-.3 0 0-.1.1-.1.2s0 .3.1.3c.1.1.1 0 .1-.2zM1 32.5c0-.1-.1-.1-.1-.2-.1-.1-.1 0-.2.2 0 .1.1.1.1.2 0 0 .1 0 .2-.2zm59.6 22c-.1-.1-.1-.1-.2-.1s-.1.1 0 .2h.2v-.1zm73.2-37.6v-.2s-.1 0-.1.1v.2c0 .1.1.1.1-.1zM110 4.8v-.1c-.1.1-.1.2 0 .1 0 .1 0 .1 0 0zM6.6 6.8l.1-.1v-.1h-.1v.2zm-1 .2c.1 0 .1 0 0 0 0-.1 0-.1 0 0zm127.5 12.5c0 .1 0 .1 0 0zM2.5 29s0-.1 0 0c-.1-.1-.1-.1 0 0-.1-.1-.1 0 0 0zm128 6.3s0-.1 0 0c0-.1 0-.1 0 0 0 0-.1.1 0 0 0 .1 0 0 0 0zm2.1-29.6z"/><path class="st0" d="M11.6 2.1c-.3 0-.4-.6-.6-.8-.1 0-.1-.3 0-.4.3-.4.5.2.6.7 0 .1.1.3.1.5 0 .1-.1 0-.1 0zm13.7-.8c-.2 0-.2.6-.3.8-.1.1-.3 0-.4-.4v-.2c.2-.5.4-.6.7-.4-.1.1-.1.2 0 .2zM6 2.8c0 .1 0 .2-.1.2-.2-.3-.5 0-.7-.5 0-.1-.1-.2 0-.4 0-.1 0-.1.1-.1.2 0 .4.2.7.5v.3zm109.2 48.4c-.1 0-.2-.1-.2-.2s-.1-.2-.1-.4c0-.3.1-.3.2-.3.1.1.2.2.2.3.1.1.1.3.1.5s-.1.1-.2.1zm-4.3.2c.1.1.2.1.3.2 0 0 .1.2.1.3l-.1.1c-.1 0-.2-.1-.3-.1-.1-.1-.1-.2-.2-.3l.2-.2zm.7-47.2c-.1.1-.1-.3-.2-.5-.1-.5.1-.3.1-.4.1-.1.1 0 .2.1v.2c.1.3 0 .5-.1.6zm9.2 45.5c.1 0 .2.1.2.3v.2c-.1.1-.2.1-.3-.1-.1-.1-.2-.2-.2-.3l.3-.1zm7.8-1.6c.1.1.2-.1.2.2 0 .2 0 .4-.1.5-.1 0-.2 0-.2-.3s0-.4.1-.4zM26 1.7V2c-.1.1-.3-.4-.3-.7 0-.1 0-.2.1-.2s.2.2.2.6zm-1.6.1c0 .2-.1.2-.2.1s-.2-.1-.2-.6c0-.1.1-.2.1-.1.1.1.3.5.3.6zm-22.1 23l.2.1c-.1.2-.2.4-.3.4 0 0-.1-.2-.1-.3 0-.4.1-.1.2-.2zM27 1.8c.1 0 .2 0 .2.4s0 .2-.1.2-.2-.2-.2-.5l.1-.1zm107.2 12.3c.1 0 .2.1.3.2v.2c-.1 0-.2 0-.3-.1 0 0-.1-.1-.1-.3s.1 0 .1 0zM26.8 3c.1 0 .1.1.2.3v.3c-.1 0-.1-.1-.2-.3-.1-.2-.1-.3 0-.3zM5.1 5.3c0-.2 0-.5.1-.5s.2 0 .2.2c-.1.4-.2.1-.3.3zm3-3.7c-.1 0-.1 0 0 0-.1 0-.1-.1-.1-.1v-.1c0 .1.1.1.1.2zM17.3.3c0 .1-.1.2-.1.2l-.1-.1V.3h.2zM7.1 1.7v.2c-.1 0-.1 0 0-.2-.1 0-.1-.1-.1-.1s0 .1.1.1zm2.1-.4c-.1 0-.1-.1-.1-.2V1c.1.1.1.2.1.3zM12.7 0c0 .1 0 .1 0 0zm-2.3 1.3c0-.1 0-.1 0 0zm-4.2 1s0-.1 0 0c.1-.1.1-.1 0 0 .1-.1.1 0 0 0 .1 0 .1 0 0 0zm.6.1l-.1-.1s0-.1.1.1c-.1 0 0 0 0 0zM2 12.7c0-.1.1-.1 0 0 0 .1 0 0 0 0zm-.7 6.4l-.1.2c0-.3.1-.1.1-.2zM109.2 49h.1c0 .3-.1 0-.1 0zm9.4 2.7zm-18.8 4.1zm-62.3-.7zm31.4 0zm29.9.7zM3.3 49zM90.8.9zm9.2 2.8zm2.2 50.9zm-73.7.3c0-.1 0-.1 0 0zM10.5.5zm18 54.5c.1.1 0 0 0 0zM10.5.5zm44.1 59.7zm6.4-6.8c.1-1 .1-1 .5-.4.1.1.2.1.1.3 0 .3-.1.3-.2.2-.1-.1-.2-.1-.4-.1z"/></svg>