<svg xmlns="http://www.w3.org/2000/svg" viewBox="0 0 181.44 58.36"><defs><style>.cls-1{fill:#ffc700}</style></defs><title>breadcrumps-contacts</title><g id="Слой_2" data-name="Слой 2"><g id="Слой_1-2" data-name="Слой 1"><path class="cls-1" d="M179.05 27c.27.6.27 1 0 1.1a1.35 1.35 0 0 1-.81.3c-.4-.2-.81.3-1.21.3a.39.39 0 0 0-.13.3c0 .1.13.1.13.1l.67.4a.6.6 0 0 1 0 1l-.27.1c0 .1.13.2.13.3l.4.3c.13.1.27 0 .27.5a.6.6 0 0 1-.27.6c-.27.1-.4 0-.4.8 0 .1-.27.3-.4.4l-.81.3c-.27.1-.54 0-.27.8a5.68 5.68 0 0 0-.13.6v.3c0 .1.13.1.13.2s.27-.2.27-.3a3.57 3.57 0 0 1 .94 1.1c-.13.5-.54.8-.81.7-.54-.3-.81.7-1.21 1.1-.13.1-.13.4-.13.7 0 .5-.13.7-.27.6s-.27-.1-.13.2c0 .1.13.2.13.2.27-.1.4.1.54.4.54.8.81.8 1.75 1h.27s.4.2.27.4-.13.3-.4.3a4.08 4.08 0 0 1-1.08.2c-.27 0-.54.2-.67.7s-.54.7-.81.5c-.13-.4-.27-.4-.27 0a.81.81 0 0 0-.94 0 12.1 12.1 0 0 0-1.62.8c-1.08.7-2.15.4-3.23.8-.27.1-.4.2-.67.3a.4.4 0 0 0 0 .6 3.62 3.62 0 0 0 2.29.2 3.08 3.08 0 0 1 1.35-.1s.13.1.13.2-.13.3-.13.4a1.82 1.82 0 0 1-.13.4c-.27.1-.13.3 0 .5.13.5.4.2.67.4s.27-.3.27.2 0 1-.27 1h-.13c-.54 0-1.08.3-1.62.2-.13-.1-.27 0-.54.1-.54.7-1.08.3-1.48.6a4.48 4.48 0 0 1-1.62.2c-.27-.1-.54.1-.67.4a.72.72 0 0 1-.81.3c-.27 0-.54-.3-.54-.9s-.27-.3-.54-.4a10.72 10.72 0 0 1-3.1-.1c-1.88-.5-3.9-.1-5.79-.2a15.44 15.44 0 0 1-2.15 0 .89.89 0 0 1-.67-.2c-.13-.1-.13-.1-.27-.1-.67.7-1.35 0-2.15 0-.27 0-.54.5-.67.3-.54-.5-1.08.3-1.62-.2-.27-.3-.67-.2-.81.3-.27-.1-.54-.7-.81.2 0 .2-.27 0-.4-.2a1.47 1.47 0 0 0-.94-.5s-.13.1-.13.2v.4c0 .1.27.6.4.5.67-.5 1.08 1.1 1.62.6.13-.1.27-.3.4 0a1.4 1.4 0 0 0 1.21 1c.13 0 .13.1.13.3s-.13.3-.13.3c-.54-.3-1.08 0-1.62-.2a.52.52 0 0 0-.54 0 1.81 1.81 0 0 1-1.75 0l-.13-.1c-.54.7-1.08-.5-1.62.2-1.08-.6-2-.2-3.1-.1h-4.44c-1.21.1-5.38 1.7-6.73 1.7a27.21 27.21 0 0 1-4 0 13.45 13.45 0 0 0-2.83-.2c-.54.1-1.08.2-1.75.3l-1.48.3a3.52 3.52 0 0 0-1.75.2h-.27c-1.08-.3-2.15.2-3.1.1a11.08 11.08 0 0 0-1.88.1h-2.17c-1.48 0-3 .1-4.44.2a21.78 21.78 0 0 0-2.56 0c-1.21.1-2.42-.4-3.77-.3a10.27 10.27 0 0 1-1.75-.1c-.67-.1-1.35.3-2-.2-.13-.1-.27-.1-.4.1s-.27.2-.27.2a6.84 6.84 0 0 0-2.83-.3c-.94.1-2-.6-3 0a.77.77 0 0 1-.4-.2c-.13-.1-.4-.3-.54-.1s-.54.3-.81-.2c-.13-.2-.27-.2-.4.3-.13.3-.27.2-.4 0s-.4-.2-.54.1c-.27.7-.67.9-.81 1.5-.13.4-.27.5-.54.4-.4-.3-.81-.3-1.08.2-.27.3-.54-.8-.67.1-.4-.1-.67.6-.94 1.1-.13.1-.13.2-.27.2-1.21-.2-2.29.5-3.36.5-.81 0-1.62.5-2.42.1s-1.35 0-2-.2a12.43 12.43 0 0 0-2.69-.1 14.06 14.06 0 0 1-2-.3 3.85 3.85 0 0 1-1.08 0c-.94-.1-1.75-.4-2.56-.4-.54 0-1.08-.3-1.75-.3a8.3 8.3 0 0 1-1.75-.5A16.28 16.28 0 0 0 59 56a19.74 19.74 0 0 1-2.69-.7 14.87 14.87 0 0 0-2-.5c-.54-.1-1.08-.3-1.62-.4a8.66 8.66 0 0 0-1.75-.3 7.78 7.78 0 0 1-1.48-.3c-1.21 0-2.29.1-3.5.2a6 6 0 0 0-2.29.3 1.58 1.58 0 0 1-.67-.1c-.27 0-.54-.4-.67.4-.13.3-.27.2-.4 0-.27-.4-.54-.5-.81-.1-.13.2-.4.2-.54-.2s-.4-.5-.54-.3a5.51 5.51 0 0 1-3.1.3 6 6 0 0 1-1.88 0c-.13 0-.27-.1-.27 0-.13 1.2-.4.2-.67.1a1.62 1.62 0 0 0-1.75.2 1.38 1.38 0 0 1-.67.3 2.39 2.39 0 0 0-.81.2c-.81.3-1.62.4-2.42.7a2.19 2.19 0 0 0-1.08.3 2 2 0 0 1-1.08 0c-1.08-.1-1.62-.1-2.15-.2a1.5 1.5 0 0 0-.94 0 4 4 0 0 1-2.56-.6.82.82 0 0 0-.54-.1h-.4a11.27 11.27 0 0 0-1.62-.7 2.3 2.3 0 0 0-1.62-.2 16.11 16.11 0 0 0-3.1.2.75.75 0 0 1-.54-.3.84.84 0 0 0-.84-.2c-.27.1-.54 0-.94-.3a19.3 19.3 0 0 0-2.29-.6 15.92 15.92 0 0 0-2.77-1 1.52 1.52 0 0 1-.4-.4.84.84 0 0 1-.13-.4l.13-.1a4.71 4.71 0 0 0 1.08-.4c.13 0 .27.2.27-.2 0-.1-.13-.2-.27-.3s-.13-.1-.27-.1c-.81.3-1.35-.6-2-1.3.13-.1.13-.4.13-.6s-.13-.6 0-.8.27-.2.4-.1c.54.5 1.21-.2 1.88.3.13.1.13 0 .27-.2 0-.3 0-.5-.13-.6s-.27-.1-.4-.1c-.4-.1-.94 0-1.08-1-.13-.3-.27-.2-.4-.3l-3.27-1.2c-.13 0-.27-.1-.27-.2a.28.28 0 0 0-.13-.2c0-.1 0-.3.13-.3a1.07 1.07 0 0 1 1.08-.3c.94.2 1.88.5 2.83.8 0 0 .13-.1.13-.2 0-.2 0-.3-.13-.3-.81.3-1.48-.4-2.29-.5a6.94 6.94 0 0 1-3-1.5c-.13-.1-.27-.3-.13-.7v-.1c.27-1.4.27-1.4.94-1s1.08.3 1.62.6a4.34 4.34 0 0 1 1.08.3c.13.1.27.1.54 0s.4-.1.4-.5a1 1 0 0 0-.27-.7c-.4 0-.81-.7-1.21-.7s-.94-.7-1.35-.9c-.13-.1-.13-.2 0-.4v-.1c0-.5.4-.5.4-1 0-.2-.4-.3-.54-.6a2.93 2.93 0 0 0-.64-.5.12.12 0 0 1 0-.2c0-.1 0-.2.13-.2s.4.2.67.3c0 0 .13.2.13 0v-.4c-.13-.2-.13-.5-.27-.5-.54-.2-.81-1.1-1.08-2a.65.65 0 0 1 0-.7 3.64 3.64 0 0 1 .81-.9 2 2 0 0 0 1.21-1.1c0-.1.13-.1 0-.3h-.12c-.27.2-.54.1-.27-.7a.86.86 0 0 0 0-.6.53.53 0 0 0-.27-.1c-.13 0-.4.1-.4-.5 0-.8.27 0 .4-.2s.4.2.67-.5c.13-.3.27-.1.4-.1h.54a.53.53 0 0 0 .27-.5c0-.3-.4-1.1.27-1 .27 0 .4-.5.67-.2a.54.54 0 0 0 .81-.1c0-.1.13-.2.13-.3a.84.84 0 0 0-.13-.4c-.4 0-.67-.1-.94-.1-.67-.1-1.21-.7-1.88-.8 0 0-.13-.1-.13-.2s.13-.1.13-.2a1 1 0 0 1 .67-.3c.13.1.27.1.27-.2v-.1l.13.1s.13-.1.13-.2-.13-.2-.13-.1a.31.31 0 0 1 .13.3h-.4c-.13 0-.13-.2-.13-.4.4-.6-.13-1.1 0-1.7 0-.3-.13-.2-.13-.3a1.2 1.2 0 0 0-1.08-.5c-.13.1-.4 0-.54-.3.13-.6.4-.4.67-.7 0-.1.13-.2.13-.4s-.13-.2-.13-.2-.27-.1-.27-.2-.4.5-.54 0c.27-.2.27-1.1.54-1.2s.67-.6.94-.6.4-.2.4-1 .13-1.3-.27-1.5c-.13 0-.27-.3-.27-.5a1 1 0 0 1 .27-.7l.4-.3c.13-.1.27 0 .4-.1.67-1.2 1.48-1 2.29-1.2a1.14 1.14 0 0 0 1.08-.9c.4.2.4-.9.67-.8a.12.12 0 0 0 0-.2h-.52c-.67 0-1.21-.3-1.88-.3A1.89 1.89 0 0 1 4.09 8a.81.81 0 0 0-.94 0S3 8 3 7.9a.31.31 0 0 1 .13-.3c.13-.4.13-.8.54-1.1.27-.1.67-.2 1.08-.3.13-.1.4 0 .13-.7v-.2c0-.1.13-.1.13-.1a1.43 1.43 0 0 0 1.75 0c.54.9.81 0 1.21-.3.13-.1 0-.2 0-.3s-.13 0-.13-.2c0 0 0-.1.13-.1a1 1 0 0 1 .54.1c.27.3.4-.1.67-.3a.28.28 0 0 0 0-.5c-.4-.4-.13-.5 0-.8a.49.49 0 0 1 .13-.4.53.53 0 0 0 .27.1c.27-.3-.13 1.8.4.8.27-.5.54 0 .81-.4s.54-.4.81-.1c-.13.1 0 .2.13.2s0-.5.13-.6.4 0 .4.3.27.6.4 0c0-.2.13-.2.27-.1.67.5 1.48.3 2.29.6a1.71 1.71 0 0 0 1.62-.7.12.12 0 0 0 0-.2c0-.1 0-.2-.13-.2a.61.61 0 0 0-.4-.1c-.13 0-.27-.1-.13-.4s-.13-.6 0-.8.27 0 .4.3a2.17 2.17 0 0 0 .81 1c.13 0 .27.1.27-.2a1.82 1.82 0 0 1-.13-.4c0-.1-.13-.3-.13-.4a.07.07 0 1 1 .13 0 2.39 2.39 0 0 1 .67.4c.27.3.54.6.67-.2 0-.2.13-.2.27-.2.54 0 1.08.3 1.62-.5.27-.2.4-.2.67.1a.88.88 0 0 0 1.48.2c.81-.7 1.48-.2 2.29 0 .27.1.27.3.4.2.54-.5 1.08 0 1.62.3a1.69 1.69 0 0 0 1.35.3 1.35 1.35 0 0 1 .81.3c.54.3.94.3 1.48.6s1.35.7 1.88.9.67-.4.94-.1a1.49 1.49 0 0 0 .94.7c.13 0 .27-.2.13-.5-.13-.1-.13-.2-.13-.4s.13-.2.27-.2l.13.1c.13 1.3.54.9.94.9a13.65 13.65 0 0 0 2-.1c.13 0 .13-.1.27-.1-.13-.1-.13-.2-.27-.2-.27-.2-.54-.1-.67-.5-.13-.1-.13-.3-.13-.5s.13-.2.27-.2.27 0 .27.3c.13.6.27.6.4.2.27-.6.4-.4.67-.1s.94 1 1.35.6c0-.1.13-.2.13-.1.67.5 1.48-.3 2.15-.2a19.78 19.78 0 0 0 2.42-.2c.94 0 1.88-.4 2.83.2.54-.3 1.08.3 1.62.2s1.08.4 1.48-.1a3 3 0 0 1 1.12-.2A16.91 16.91 0 0 0 55 2.4c.67-.1 1.35-.9 2-.4.13.1.4.3.54-.4 0-.3.27-.1.4 0a1.08 1.08 0 0 0 1.21-.1c.27-.3.54.1.81 0a9.52 9.52 0 0 1 1.62-.4 1.09 1.09 0 0 1 .94.1 4.55 4.55 0 0 0 2.29.3c.27 0 .54.3.81.3a2.41 2.41 0 0 0 2-.7.93.93 0 0 1 .81-.5c.13 0 .13 0 .27.3s0 .3-.13.5-.13.2-.13.3-.13.2 0 .4 0 .1.13.2a.8.8 0 0 0 .81-.1.84.84 0 0 1 .81-.2c.13 0 .54-.3.4.8 0 .2.27.4.4.5a15 15 0 0 0 4.71.3c.4 0 .67-.5 1.08-.5 1.08-.1 2.15-.4 3.23-.5a.89.89 0 0 0 .67-.2 1.3 1.3 0 0 1 .67-.1c.13 0 .27.2.27.4a.68.68 0 0 1-.27.5l-.13.1c-.13 0-.13.2-.13.4s.13.2.13.2a1.84 1.84 0 0 0 .94-.2.81.81 0 0 1 .94 0 2.51 2.51 0 0 0 1.48.1A22 22 0 0 0 89 3.7a4.15 4.15 0 0 0 1.88-.3c.13-.6.27-.3.4-.3.4-.1.81.6 1.08-.4l.13.1a2.07 2.07 0 0 0 1.08-.2 4.48 4.48 0 0 1 1.62-.2c1.35-.1 2.56-.1 3.9-.2l.4-.3c.27-.1.4-.3.67.1s.54.6.67-.5c0-.4.27-.4.4-.2.27.5.67.6.94.1 0-.1.13 0 .27 0s.13.2.27.2c.94-.1 1.88.6 2.83.4a.27.27 0 0 0 .27-.3c0-.1.13-.3.27-.2a.81.81 0 0 0 1.35.2c.54.9 1.08-.3 1.62.5.13.1.27.1.27 0a.32.32 0 0 1 .54 0c.13.2.4.2.67 0s.13-.2.27-.1c.27.5.67.5 1.08 0 .13-.2.27.1.4.3s.4.4.67-.1.27-.2.4 0a.41.41 0 0 0 .67.2c.27-.2.54-.1.81.2.13.1.27.2.27.1.27-.6.67-.3.94 0-.13.2.13.2.27 0s.27-.2.4 0c.27.5.54.7.94.3.13-.1.27-.1.27 0a1.48 1.48 0 0 1 .27.3c.54-.5.94.2 1.35.3a7.29 7.29 0 0 0 1.48 0h.54c.67.2.67.2 1.48-.3h.13c.4.3.67.4 1.08.2s.81.2 1.21 0 .67.3.94-.3a10.94 10.94 0 0 1 2.56 0c.27.3.81-.2.81-.1.54.5 1.08 0 1.62 0a12.8 12.8 0 0 1 2.42.6c.13 0 .27.1.27-.2a2.11 2.11 0 0 0 1.88.1.31.31 0 0 1 .4 0 .56.56 0 0 0 .94-.1c.67-.6 1.48-.2 2.15-.3s.94-.3 1.48-.4a6.59 6.59 0 0 1 2.42-.1 3.47 3.47 0 0 0 1.35-.2c.27-.1.67-.2.81.7 0 .3.27.5.27.3.27-.7.54-.2.81 0s.27.1.54-.1.4-.2.54.1v.1a2.71 2.71 0 0 0 .94 1.2c.13.1.13 0 .13-.1a.31.31 0 0 0-.13-.3c0-.1 0-.5-.13-.6a.5.5 0 0 1-.13-.6c.13-.2.27 0 .4.3s.13.9.4 1 .67.6.94-.2c.13-.1.27-.2.27-.1.54.5 1.08-.2 1.48-.5.13-.1.27-.3.4-.1.27.4.67.5.94.2s.67 0 .67-.4-.27-.5-.54-.6c0 0-.13-.1-.13-.2s0-.3.13-.3.4 0 .54.3a3.11 3.11 0 0 0 .4.6c.13.1.27 0 .27-.2.13-.4-.13-.2-.13-.4s-.13-.3 0-.5.13 0 .13 0c.81.9 1.62.7 2.56.4a15.93 15.93 0 0 1 2.15-.3 3.94 3.94 0 0 1 .54-.1c.13 0 .27-.2.27-.2 1.48.6 3.1.1 4.58.3a.75.75 0 0 1 .54.3c1.21.7 2.42 1.2 3.63 0 .13-.2.4-.3.4-.1.27.5.54.2.81.1 1.21-.7 2.42-.3 3.63-.3a3.16 3.16 0 0 0 1.37-.2c.4-.2.94-.6 1.08.9a5.73 5.73 0 0 0 .94.7.62.62 0 0 1 .54.2c.13.2.4.1.54.7a.69.69 0 0 0 .81.6h.67c.27 0 .4.1.54.6a.4.4 0 0 1-.4.4c-.27-.1-.4.7-.54.7 0-.2.13-.4 0-.4-.13-.5-.54-.4-.81-.5 0 0-.13.2 0 .3.27.3.4.9.67.6 0 .3.13.3.27.3s.67.1.94.7c.13.3.4.4.54.3s.27-.1.54.1.13.4 0 .4-.4.3-.27.9c0 .2 0 .4-.13.4s-.27.1-.54-.1a5.39 5.39 0 0 0-2-1.2c-.54-.2-.94-.9-1.48-1a2.89 2.89 0 0 1-1.21-.4.16.16 0 0 0-.27.1 1 1 0 0 0-.27.7c0 .3.13.4.27.4h.57c.13 0 .27 0 .27.4.13.6.27 1 .54.9.94.1 1.75 1.4 2.69 1.8.13.1.13.2 0 .4a7.4 7.4 0 0 1-.27.8.36.36 0 0 0 0 .5c.4.3.27.7.13 1.3a3.3 3.3 0 0 0 .4 1.3.23.23 0 0 1 .27 0c.13.2.4.1.4.6s-.27.4-.4.4-.27 0-.27.2.13.4.27.4h.54s.27.3.13.5-.27.7-.4 1.1c0 .1-.13.1-.13.2s-.27-.3-.4-.1.13.5.13.8-.13.3-.27.2a2.24 2.24 0 0 0-.81-.1c-.13 0-.27.1-.13.3.13.4 0 1.1.4 1.3a1.87 1.87 0 0 1 .54.4.84.84 0 0 1 .13.4c0 .1-.13.2-.13.2l-1.35-.3c-.13 0-.13 0-.13.1v.4c0 .1.13.5.13.6a1.56 1.56 0 0 1 0 1.7c-.13.1-.13.3 0 .5s0 .1.13.1c.67 0 .67.6.67 1.2 0 0-.13-.2-.13.1 0 .1.13 0 .13-.1zm-.67-7.2c0 .1.13.3.13.5s.13.1.13.1v-.3a1.31 1.31 0 0 0-.27-.3zM82 53.5c-.13.3-.27.6 0 .9s.94-.1 1.21-.9c0-.3.13-.8-.13-.9a1.35 1.35 0 0 0-.81-.3c-.54-.1-.94 0-1.48-.1a3.18 3.18 0 0 0-.94-.2c-.27-.1-.54.1-.81.5s-.54-.3-.94-.1c-.81.4-1.48 0-2.29.1h-.54c-.13.1-.27.1-.54 0a.45.45 0 0 0-.67 0c-.13.1-.27.1-.54 0-.54-.5-.94.1-1.48.1 0 0-.13.1-.13.2 0 .3.13.3.13.3.81-.2 1.62.4 2.42.3a6.85 6.85 0 0 1 2 .1 7.87 7.87 0 0 0 2.15-.2 4.26 4.26 0 0 1 3.36.2zm96-28.9c.13-.1.27-.2.4-.1s.13-.1.27-.3a2.79 2.79 0 0 0-.27-1.1c0-.2-.13-.2-.13-.1v.1c-.13.4-.27.6-.54.6s-.13.3 0 .5.13.4.27.4zM84.31 53.1q.2-.3 0-.3a1.73 1.73 0 0 0-.67-.2c-.13 0 0 .2 0 .3a.66.66 0 0 1 0 .7v.4h.13s.13 0 .13-.1a1 1 0 0 0 .4-.8zm-5 1.9c-.13 0-.27 0-.27.2a.28.28 0 0 0 .13.2c0 .1.13.1.13.2.27.2.4-.4.67-.3l-.54-.3zm-75-40c.13-.1.27 0 .27-.3s-.13-.4-.27-.4-.4 0-.4.3.18.4.45.4zm-.27 5.4c-.13 0-.27-.2-.4.3 0 .2 0 .3.13.3s.27-.1.4-.4 0-.1-.13-.2zm.54-6.6c0-.2 0-.4-.13-.4s-.27-.1-.27.1.13.4.13.5.27.1.27-.1v-.1zM144.2 48.7c0-.1-.13-.2-.13-.3s-.27-.2-.27 0 .13.3.27.4.13.1.13-.1zm-63.26 6.7a.4.4 0 0 0-.4-.4.28.28 0 0 1-.13.2c0 .3.13.5.27.4s.26-.1.26-.2zm96.9-29.7c0-.4-.27-.3-.27-.3s0 .1-.13.1a1.52 1.52 0 0 0 .4.4zm-6.33 22.5c0-.2 0-.3-.13-.3s-.13.1-.13.2 0 .3.13.3.13 0 .13-.2zM1.27 32.5c0-.1-.13-.1-.13-.2s-.13 0-.27.2.13.1.13.2.13 0 .27-.2zm80.21 22c-.13-.1-.13-.1-.27-.1s-.13.1 0 .2h.27v-.1zM180 16.9v-.2s-.13 0-.13.1v.2c-.01.1.13.1.13-.1zM148 4.8v-.1c-.13.1-.13.2 0 .1zM8.8 6.8l.13-.1v-.1H8.8zM7.46 7zm171.59 12.5zM3.29 29c-.13-.1-.13 0 0 0zm172.27 6.3zm2.83-29.6z"/><path class="cls-1" d="M15.53 2.1c-.4 0-.54-.6-.81-.8-.13 0-.13-.3 0-.4.4-.4.67.2.81.7 0 .1.13.3.13.5s-.13 0-.13 0zM34 1.3c-.27 0-.27.6-.4.8s-.4 0-.54-.4v-.2c.27-.5.54-.6.94-.4-.16.1-.16.2 0 .2zM8 2.8c0 .1 0 .2-.13.2-.27-.3-.67 0-.94-.5 0-.1-.13-.2 0-.4s0-.1.13-.1.54.2.94.5zm147 48.4c-.13 0-.27-.1-.27-.2s-.13-.2-.13-.4.13-.3.27-.3.27.2.27.3.13.3.13.5-.13.1-.27.1zm-5.83.2c.13.1.27.1.4.2a.85.85 0 0 1 .13.3l-.13.1c-.13 0-.27-.1-.4-.1s-.13-.2-.27-.3zm.95-47.2c-.13.1-.13-.3-.27-.5-.13-.5.13-.3.13-.4s.13 0 .27.1v.2a.46.46 0 0 1-.13.6zm12.38 45.5a.27.27 0 0 1 .27.3v.2c-.13.1-.27.1-.4-.1s-.27-.2-.27-.3zm10.5-1.6c.13.1.27-.1.27.2s0 .4-.13.5c-.13 0-.27 0-.27-.3s-.01-.4.13-.4zM34.91 1.7V2c-.13.1-.4-.4-.4-.7 0-.1 0-.2.13-.2s.27.2.27.6zm-2.15.1c0 .2-.13.2-.27.1-.13-.1-.27-.1-.27-.6 0-.1.13-.2.13-.1a1.57 1.57 0 0 1 .41.6zM3 24.8l.27.1c-.13.2-.27.4-.4.4a.85.85 0 0 1-.13-.3c.01-.4.14-.1.26-.2zm33.26-23c.13 0 .27 0 .27.4s0 .2-.13.2-.27-.2-.27-.5zm144.27 12.3a.77.77 0 0 1 .4.2v.2a.61.61 0 0 1-.4-.1.39.39 0 0 1-.13-.3c0-.2.13 0 .13 0zM36 3c.13 0 .13.1.27.3v.3c-.13 0-.13-.1-.27-.3s-.14-.3 0-.3zM6.78 5.3c0-.2 0-.5.13-.5s.27 0 .27.2c-.13.4-.27.1-.4.3zm4.04-3.7c-.13 0-.13-.1-.13-.1v-.1c0 .1.13.1.13.2zM23.2.3c0 .1-.13.2-.13.2l-.13-.1V.3zM9.48 1.7v.2c-.13 0-.13 0 0-.2-.13 0-.13-.1-.13-.1s-.01.1.13.1zm2.82-.4c-.13 0-.13-.1-.13-.2V1a.31.31 0 0 1 .13.3zm-4.03 1c.13-.1.13 0 0 0zm.8.1l-.13-.1s0-.1.13.1zM2.61 12.7c0-.1.13-.1 0 0zm-.94 6.4l-.13.2c0-.3.13-.1.13-.2zM146.89 49h.11c0 .3-.13 0-.13 0zM82 53.4c.13-1 .13-1 .67-.4.13.1.27.1.13.3s-.13.3-.27.2a.82.82 0 0 0-.54-.1z"/></g></g></svg>