<svg xmlns="http://www.w3.org/2000/svg" viewBox="0 0 223.39 58.36"><defs><style>.cls-1{fill:#ffc700}</style></defs><title>breadcrumps-portfolio</title><g id="Слой_2" data-name="Слой 2"><g id="Слой_1-2" data-name="Слой 1"><path class="cls-1" d="M220.45 27c.33.6.33 1 0 1.1a1.91 1.91 0 0 1-1 .3c-.5-.2-1 .3-1.49.3a.37.37 0 0 0-.17.3c0 .1.17.1.17.1l.83.4a.54.54 0 0 1 0 1l-.33.1c0 .1.17.2.17.3l.5.3c.17.1.33 0 .33.5a.58.58 0 0 1-.33.6c-.33.1-.5 0-.5.8 0 .1-.33.3-.5.4l-1 .3c-.33.1-.66 0-.33.8a4.79 4.79 0 0 0-.17.6v.3c0 .1.17.1.17.2a.39.39 0 0 0 .33-.3 3.92 3.92 0 0 1 1.16 1.1.94.94 0 0 1-1 .7c-.66-.3-1 .7-1.49 1.1-.17.1-.17.4-.17.7 0 .5-.17.7-.33.6 0 0-.33-.1-.17.2 0 .1.17.2.17.2.33-.1.5.1.66.4.66.8 1 .8 2.15 1h.33s.5.2.33.4-.17.3-.5.3a6.08 6.08 0 0 1-1.33.2.88.88 0 0 0-.83.7c-.33.5-.66.7-1 .5-.17-.4-.33-.4-.33 0a1.18 1.18 0 0 0-1.16 0 16.52 16.52 0 0 0-2 .8c-1.33.7-2.65.4-4 .8-.33.1-.5.2-.83.3a.35.35 0 0 0 0 .6 5.42 5.42 0 0 0 2.82.2 4.64 4.64 0 0 1 1.66-.1s.17.1.17.2-.17.3-.17.4a1.6 1.6 0 0 1-.17.4c-.33.1-.17.3 0 .5.17.5.5.2.83.4.17.1.33-.3.33.2s0 1-.33 1h-.17a13.4 13.4 0 0 1-2 .2c-.17-.1-.33 0-.66.1-.66.7-1.33.3-1.82.6a6.73 6.73 0 0 1-2 .2.73.73 0 0 0-.83.4 1 1 0 0 1-1 .3c-.33 0-.66-.3-.66-.9-.17-.5-.33-.3-.66-.4a16.21 16.21 0 0 1-3.81-.1c-2.32-.5-4.81-.1-7.13-.2a23.4 23.4 0 0 1-2.65 0 1.28 1.28 0 0 1-.83-.2.43.43 0 0 0-.33-.1c-.83.7-1.66 0-2.65 0-.33 0-.66.5-.83.3-.66-.5-1.33.3-2-.2a.59.59 0 0 0-1 .3c-.33-.1-.66-.7-1 .2 0 .2-.33 0-.5-.2a2 2 0 0 0-1.16-.5s-.17.1-.17.2c-.17.2 0 .3 0 .4.17.2.33.6.5.5.83-.5 1.33 1.1 2 .6.17-.1.33-.3.5 0a1.71 1.71 0 0 0 1.49 1c.17 0 .17.1.17.3s-.17.3-.17.3c-.66-.3-1.33 0-2-.2a.77.77 0 0 0-.66 0 2.69 2.69 0 0 1-2.15 0l-.17-.1c-.66.7-1.33-.5-2 .2-1.33-.6-2.49-.2-3.81-.1h-5.47c-1.49.1-6.63 1.7-8.29 1.7a41.22 41.22 0 0 1-5 0 20.32 20.32 0 0 0-3.48-.2c-.66.1-1.33.2-2.15.3l-1.82.3a5.28 5.28 0 0 0-2.15.2h-.33c-1.33-.3-2.65.2-3.81.1a16.76 16.76 0 0 0-2.32.1h-2.65c-1.82 0-3.65.1-5.47.2-1.16 0-2.15-.1-3.15 0-1.49.1-3-.4-4.64-.3a15.54 15.54 0 0 1-2.15-.1c-.83-.1-1.66.3-2.49-.2a.35.35 0 0 0-.5.1.48.48 0 0 1-.33.2 10.28 10.28 0 0 0-3.48-.3c-1.16.1-2.49-.6-3.65 0a1 1 0 0 1-.5-.2c-.17-.1-.5-.3-.66-.1-.33.3-.66.3-1-.2-.17-.2-.33-.2-.5.3-.17.3-.33.2-.5 0s-.5-.2-.66.1c-.33.7-.83.9-1 1.5-.17.4-.33.5-.66.4a.89.89 0 0 0-1.33.2c-.33.3-.66-.8-.83.1-.5-.1-.83.6-1.16 1.1-.17.1-.17.2-.33.2-1.49-.2-2.82.5-4.14.5-1 0-2 .5-3 .1-.83-.3-1.66 0-2.49-.2a18.81 18.81 0 0 0-3.31-.1 21.06 21.06 0 0 1-2.49-.3 5.83 5.83 0 0 1-1.33 0c-1.16-.1-2.15-.4-3.15-.4-.66 0-1.33-.3-2.15-.3a12.08 12.08 0 0 1-2.15-.5 24.25 24.25 0 0 0-2.65-.4 29 29 0 0 1-3.31-.7 21.87 21.87 0 0 0-2.49-.5c-.66-.1-1.33-.3-2-.4a12.92 12.92 0 0 0-2.15-.3 11.55 11.55 0 0 1-1.82-.3c-1.49 0-2.82.1-4.31.2a9 9 0 0 0-2.82.3 2.36 2.36 0 0 1-.83-.1c-.33 0-.66-.4-.83.4-.17.3-.33.2-.5 0-.33-.4-.66-.5-1-.1-.17.2-.5.2-.66-.2s-.5-.5-.66-.3a8.26 8.26 0 0 1-3.81.3 9 9 0 0 1-2.32 0c-.17 0-.33-.1-.33 0-.17 1.2-.5.2-.83.1a2.37 2.37 0 0 0-2.15.2 1.92 1.92 0 0 1-.83.3 3.51 3.51 0 0 0-1 .2c-1 .3-2 .4-3 .7a3.19 3.19 0 0 0-1.33.3 3 3 0 0 1-1.33 0c-1.33-.1-2-.1-2.65-.2a2.25 2.25 0 0 0-1.16 0 5.92 5.92 0 0 1-3.15-.6 1.2 1.2 0 0 0-.66-.1h-.5a15.72 15.72 0 0 0-2-.7 3.42 3.42 0 0 0-2-.2 24.35 24.35 0 0 0-3.81.2 1 1 0 0 1-.66-.3 1.22 1.22 0 0 0-1-.2 1.42 1.42 0 0 1-1.16-.3 28.29 28.29 0 0 0-2.82-.6 22.76 22.76 0 0 0-3.48-1 1.75 1.75 0 0 1-.5-.4.75.75 0 0 1-.17-.4l.17-.1a6.69 6.69 0 0 0 1.33-.4c.17 0 .33.2.33-.2 0-.1-.17-.2-.33-.3a.43.43 0 0 0-.33-.1c-1 .3-1.66-.6-2.49-1.3.17-.1.17-.4.17-.6s-.17-.6 0-.8a.35.35 0 0 1 .5-.1c.66.5 1.49-.2 2.32.3.17.1.17 0 .33-.2 0-.3 0-.5-.17-.6s-.33-.1-.5-.1c-.5-.1-1.16 0-1.33-1-.17-.3-.33-.2-.5-.3l-4-1.2c-.17 0-.33-.1-.33-.2s0-.1-.17-.2c0-.1 0-.3.17-.3a1.52 1.52 0 0 1 1.33-.3c1.16.2 2.32.5 3.48.8 0 0 .17-.1.17-.2 0-.2 0-.3-.17-.3-1 .3-1.82-.4-2.82-.5a9.42 9.42 0 0 1-3.35-1.5c-.17-.1-.33-.3-.17-.7v-.1c.33-1.4.33-1.4 1.16-1 .66.4 1.33.3 2 .6a6.33 6.33 0 0 1 1.33.3c.17.1.33.1.66 0a.48.48 0 0 0 .5-.5.89.89 0 0 0-.33-.7c-.5 0-1-.7-1.49-.7-.66 0-1.16-.7-1.66-.9-.17-.1-.17-.2 0-.4v-.1c0-.5.5-.5.5-1 0-.2-.5-.3-.66-.6a3.66 3.66 0 0 0-.83-.5s-.17-.1 0-.2c0-.1 0-.2.17-.2.33.1.5.2.83.3 0 0 .17.2.17 0v-.4c-.17-.2-.17-.5-.33-.5-.66-.2-1-1.1-1.33-2-.17-.3-.17-.5 0-.7a4 4 0 0 1 1-.9 2.37 2.37 0 0 0 1.49-1.1c0-.1.17-.1 0-.3h-.19c-.33.2-.66.1-.33-.7.17-.3 0-.5 0-.6a.75.75 0 0 0-.33-.1c-.17 0-.5.1-.5-.5 0-.8.33 0 .5-.2s.5.2.83-.5c.17-.3.33-.1.5-.1h.66a.53.53 0 0 0 .33-.5c0-.3-.5-1.1.33-1 .33 0 .5-.5.83-.2a.76.76 0 0 0 1-.1c0-.1.17-.2.17-.3a.75.75 0 0 0-.17-.4c-.5 0-.83-.1-1.16-.1-.83-.1-1.49-.7-2.32-.8 0 0-.17-.1-.17-.2s.17-.1.17-.2a1.41 1.41 0 0 1 .83-.3c.17.1.33.1.33-.2v-.1l.17.1s.17-.1.17-.2-.17-.2-.17-.1a.29.29 0 0 1 .17.3h-.5c-.17 0-.17-.2-.17-.4.5-.6-.17-1.1 0-1.7 0-.3-.17-.2-.17-.3a1.63 1.63 0 0 0-1.33-.5.54.54 0 0 1-.66-.3c.17-.6.5-.4.83-.7 0-.1.17-.2.17-.4a.18.18 0 0 0-.17-.2c-.17-.1-.33-.1-.33-.2-.17-.2-.5.5-.66 0 .33-.2.33-1.1.66-1.2.5-.1.83-.6 1.16-.6s.5-.2.5-1 .17-1.3-.33-1.5c-.17 0-.33-.3-.33-.5a.89.89 0 0 1 .33-.7l.5-.3c.17-.1.33 0 .5-.1.83-1.2 1.82-1 2.82-1.2.5-.1 1-.1 1.33-.9.5.2.5-.9.83-.8 0 0 .17-.1 0-.2h-.69c-.83 0-1.49-.3-2.32-.3A2.77 2.77 0 0 1 5 8a1.18 1.18 0 0 0-1.12 0s-.17 0-.17-.1a.29.29 0 0 1 .17-.3c.17-.4.17-.8.66-1.1.33-.1.83-.2 1.33-.3.17-.1.5 0 .17-.7v-.2c0-.1.17-.1.17-.1a2.08 2.08 0 0 0 2.15 0c.66.9 1 0 1.49-.3.17-.1 0-.2 0-.3s-.17 0-.17-.2c0 0 0-.1.17-.1a1.53 1.53 0 0 1 .66.1c.33.3.5-.1.83-.3s.17-.4 0-.5c-.5-.4-.17-.5 0-.8a.43.43 0 0 1 .17-.4.75.75 0 0 0 .33.1c.33-.3-.17 1.8.5.8.33-.5.66 0 1-.4a.61.61 0 0 1 1-.1c-.17.1 0 .2.17.2.33.1 0-.5.17-.6s.5 0 .5.3c.17.4.33.6.5 0 0-.2.17-.2.33-.1.83.5 1.82.3 2.82.6a2.35 2.35 0 0 0 2-.7s.17-.1 0-.2c0-.1 0-.2-.17-.2a.89.89 0 0 0-.5-.1c-.17 0-.33-.1-.17-.4s-.17-.6 0-.8.33 0 .5.3a2.35 2.35 0 0 0 1 1c.17 0 .33.1.33-.2a1.6 1.6 0 0 1-.17-.4c0-.1-.17-.3-.17-.4a.08.08 0 0 1 .17 0 3.15 3.15 0 0 1 .83.4c.33.3.66.6.83-.2 0-.2.17-.2.33-.2.66 0 1.33.3 2-.5.33-.2.5-.2.83.1a1.22 1.22 0 0 0 1.82.2c1-.7 1.82-.2 2.82 0 .33.1.33.3.5.2.66-.5 1.33 0 2 .3a2.47 2.47 0 0 0 1.66.3 1.91 1.91 0 0 1 1 .3c.66.3 1.16.3 1.82.6.83.3 1.66.7 2.32.9.5.1.83-.4 1.16-.1a1.85 1.85 0 0 0 1.16.7c.17 0 .33-.2.17-.5-.17-.1-.17-.2-.17-.4s.09-.2.27-.2l.17.1c.17 1.3.66.9 1.16.9a20.66 20.66 0 0 0 2.49-.1c.17 0 .17-.1.33-.1-.17-.1-.17-.2-.33-.2-.33-.2-.66-.1-.83-.5-.17-.1-.17-.3-.17-.5s.17-.2.33-.2.33 0 .33.3c.17.6.33.6.5.2.33-.6.5-.4.83-.1.5.4 1.16 1 1.66.6 0-.1.17-.2.17-.1.83.5 1.82-.3 2.65-.2a29.87 29.87 0 0 0 3-.2c1.16 0 2.32-.4 3.48.2.66-.3 1.33.3 2 .2s1.33.4 1.82-.1a4.46 4.46 0 0 1 1.27-.2 25.15 25.15 0 0 0 3.81-.6c.83-.1 1.66-.9 2.49-.4.17.1.5.3.66-.4 0-.3.33-.1.5 0a1.59 1.59 0 0 0 1.49-.1c.33-.3.66.1 1 0a14 14 0 0 1 2-.4 1.62 1.62 0 0 1 1.19.1 6.8 6.8 0 0 0 2.82.3c.33 0 .66.3 1 .3a3.42 3.42 0 0 0 2.49-.7 1.21 1.21 0 0 1 1-.5c.17 0 .17 0 .33.3s0 .3-.17.5c0 .1-.17.2-.17.3s-.17.2 0 .4c0 .1 0 .1.17.2a1.17 1.17 0 0 0 1-.1 1.22 1.22 0 0 1 1-.2c.17 0 .66-.3.5.8 0 .2.33.4.5.5a22.61 22.61 0 0 0 5.8.3c.5 0 .83-.5 1.33-.5 1.33-.1 2.65-.4 4-.5a1.28 1.28 0 0 0 .83-.2 1.94 1.94 0 0 1 .83-.1.4.4 0 0 1 .33.4.66.66 0 0 1-.33.5l-.17.1c-.17 0-.17.2-.17.4a.18.18 0 0 0 .17.2 2.72 2.72 0 0 0 1.16-.2 1.18 1.18 0 0 1 1.16 0 3.76 3.76 0 0 0 1.82.1 33.3 33.3 0 0 0 5.47-.1 6.19 6.19 0 0 0 2.32-.3c.17-.6.33-.3.5-.3.5-.1 1 .6 1.33-.4l.17.1a3.07 3.07 0 0 0 1.33-.2 6.73 6.73 0 0 1 2-.2c1.66-.1 3.15-.1 4.81-.2l.5-.3c.33-.1.5-.3.83.1.17.3.66.6.83-.5 0-.4.33-.4.5-.2.33.5.83.6 1.16.1 0-.1.17 0 .33 0s.17.2.33.2c1.16-.1 2.32.6 3.48.4a.31.31 0 0 0 .33-.3c0-.1.17-.3.33-.2a1.12 1.12 0 0 0 1.66.2c.66.9 1.33-.3 2 .5.17.1.33.1.33 0a.44.44 0 0 1 .66 0c.17.2.5.2.83 0 .17-.1.17-.2.33-.1.33.5.83.5 1.33 0 .17-.2.33.1.5.3.33.3.5.4.83-.1s.33-.2.5 0a.56.56 0 0 0 .83.2.79.79 0 0 1 1 .2c.17.1.33.2.33.1.33-.6.83-.3 1.16 0-.17.2.17.2.33 0a.28.28 0 0 1 .5 0c.33.5.66.7 1.16.3.17-.1.33-.1.33 0a1.62 1.62 0 0 1 .33.3c.66-.5 1.16.2 1.66.3a11 11 0 0 0 1.82 0h.66c.83.2.83.2 1.82-.3h.17a1.3 1.3 0 0 0 1.33.2c.5-.1 1 .2 1.49 0 .33-.1.83.3 1.16-.3a16.56 16.56 0 0 1 3.15 0c.33.3 1-.2 1-.1.66.5 1.33 0 2 0a18.81 18.81 0 0 1 3 .6c.17 0 .33.1.33-.2a3.13 3.13 0 0 0 2.32.1.45.45 0 0 1 .5 0 .78.78 0 0 0 1.16-.1c.83-.6 1.82-.2 2.65-.3.66-.1 1.16-.3 1.82-.4a10 10 0 0 1 3-.1 5.19 5.19 0 0 0 1.66-.2c.33-.1.83-.2 1 .7 0 .3.33.5.33.3.33-.7.66-.2 1 0 .17.1.33.1.66-.1.17-.3.5-.2.66.1v.1c.33.7.66.8 1.16 1.2.17.1.17 0 .17-.1a.29.29 0 0 0-.17-.3c0-.1 0-.5-.17-.6s-.33-.4-.17-.6.33 0 .5.3.17.9.5 1 .83.6 1.16-.2c.17-.1.33-.2.33-.1.66.5 1.33-.2 1.82-.5.17-.1.33-.3.5-.1a.8.8 0 0 0 1.16.2c.33-.2.83 0 .83-.4s-.33-.5-.66-.6c0 0-.17-.1-.17-.2s0-.3.17-.3a.54.54 0 0 1 .66.3 3.17 3.17 0 0 0 .5.6.21.21 0 0 0 .33-.2c.17-.4-.17-.2-.17-.4s-.17-.3 0-.5.17 0 .17 0c1 .9 2 .7 3.15.4a23.9 23.9 0 0 1 2.65-.3 5.86 5.86 0 0 1 .66-.1c.17 0 .33-.2.33-.2 1.82.6 3.81.1 5.63.3a1 1 0 0 1 .66.3c1.49.7 3 1.2 4.47 0 .17-.2.5-.3.5-.1.33.5.66.2 1 .1 1.49-.7 3-.3 4.47-.3a4.71 4.71 0 0 0 1.66-.2c.5-.2 1.16-.6 1.33.9a7.16 7.16 0 0 0 1.16.7.87.87 0 0 1 .66.2c.17.2.5.1.66.7s.66.6 1 .6h.83c.33 0 .5.1.66.6 0 .3-.33.4-.5.4-.33-.1-.5.7-.66.7 0-.2.17-.4 0-.4-.17-.5-.66-.4-1-.5 0 0-.17.2 0 .3.33.3.5.9.83.6 0 .3.17.3.33.3.33-.1.83.1 1.16.7a.54.54 0 0 0 .66.3c.17-.1.33-.1.66.1.17.1.17.4 0 .4-.33.1-.5.3-.33.9 0 .2 0 .4-.17.4s-.33.1-.66-.1a7.1 7.1 0 0 0-2.49-1.2c-.66-.2-1.16-.9-1.82-1a4.15 4.15 0 0 1-1.49-.4c-.17-.1-.33 0-.33.1a.89.89 0 0 0-.33.7c0 .3.17.4.33.4h.66c.17 0 .33 0 .33.4.17.6.33 1 .66.9 1.16.1 2.15 1.4 3.31 1.8.17.1.17.2 0 .4s-.17.6-.33.8a.31.31 0 0 0 0 .5c.5.3.33.7.17 1.3a2.88 2.88 0 0 0 .5 1.3.34.34 0 0 1 .33 0c.17.2.5.1.5.6s-.33.4-.5.4-.33 0-.33.2a.4.4 0 0 0 .33.4h.66s.33.3.17.5a11.76 11.76 0 0 0-.5 1.1c0 .1-.17.1-.17.2-.17.1-.33-.3-.5-.1s.17.5.17.8a.21.21 0 0 1-.33.2 3.36 3.36 0 0 0-1-.1c-.17 0-.33.1-.17.3.17.4 0 1.1.5 1.3a2.34 2.34 0 0 1 .66.4.75.75 0 0 1 .17.4c0 .1-.17.2-.17.2l-1.66-.3c-.17 0-.17 0-.17.1v.4c0 .1.17.5.17.6.33.6.5 1.1 0 1.7-.17.1-.17.3 0 .5 0 .1 0 .1.17.1.83 0 .83.6.83 1.2 0 0-.17-.2-.17.1 0 .1.17 0 .17-.1zm-.83-7.2c0 .1.17.3.17.5s.17.1.17.1c.17-.1 0-.3 0-.3a1.47 1.47 0 0 0-.33-.3zM101 53.5c-.17.3-.33.6 0 .9.5.3 1.16-.1 1.49-.9 0-.3.17-.8-.17-.9a1.91 1.91 0 0 0-1-.3c-.66-.1-1.16 0-1.82-.1a4.7 4.7 0 0 0-1.16-.2c-.33-.1-.66.1-1 .5s-.66-.3-1.16-.1c-1 .4-1.82 0-2.82.1h-.66c-.17.1-.33.1-.66 0a.65.65 0 0 0-.83 0c-.17.1-.33.1-.66 0-.66-.5-1.16.1-1.82.1 0 0-.17.1-.17.2 0 .3.17.3.17.3 1-.2 2 .4 3 .3a10.36 10.36 0 0 1 2.49.1 11.85 11.85 0 0 0 2.65-.2 6.35 6.35 0 0 1 4.14.2zm118.13-28.9c.17-.1.33-.2.5-.1s.17-.1.33-.3a2.38 2.38 0 0 0-.33-1.1c0-.2-.17-.2-.17-.1v.1c-.17.4-.33.6-.66.6-.17 0-.17.3 0 .5a.4.4 0 0 0 .33.4zM103.8 53.1q.25-.3 0-.3a2.51 2.51 0 0 0-.83-.2c-.17 0 0 .2 0 .3a.55.55 0 0 1 0 .7v.4h.17s.17 0 .17-.1a.94.94 0 0 0 .5-.8zM97.67 55c-.17 0-.33 0-.33.2 0 0 0 .1.17.2 0 .1.17.1.17.2.33.2.5-.4.83-.3l-.66-.3zM5.37 15c.17-.1.33 0 .33-.3s-.17-.4-.33-.4-.5 0-.5.3.13.4.5.4zM5 20.4c-.17 0-.33-.2-.5.3 0 .2 0 .3.17.3s.33-.1.5-.4 0-.1-.17-.2zm.66-6.6c0-.2 0-.4-.17-.4s-.33-.1-.33.1.17.4.17.5c.17.1.33.1.33-.1v-.1zm171.88 34.9c0-.1-.17-.2-.17-.3s-.33-.2-.33 0 .17.3.33.4c0 .2.17.1.17-.1zm-77.88 6.7c0-.3-.33-.4-.5-.4 0 0 0 .1-.17.2 0 .3.17.5.33.4.34 0 .34-.1.34-.2zM219 25.7c0-.4-.33-.3-.33-.3s0 .1-.17.1a1.75 1.75 0 0 0 .5.4zm-7.79 22.5c0-.2 0-.3-.17-.3 0 0-.17.1-.17.2s0 .3.17.3.17 0 .17-.2zM1.56 32.5c0-.1-.17-.1-.17-.2-.17-.1-.17 0-.33.2 0 .1.17.1.17.2a.48.48 0 0 0 .33-.2zm98.76 22a.43.43 0 0 0-.33-.1c-.17 0-.17.1 0 .2h.33v-.1zm121.29-37.6v-.2s-.17 0-.17.1v.2c.01.1.17.1.17-.1zM182.18 4.8v-.1c-.17.1-.17.2 0 .1zm-171.34 2l.16-.1v-.1h-.17zM9.18 7zm211.27 12.5zM4 29c-.17-.1-.17 0 0 0zm212.1 6.3zm3.48-29.6z"/><path class="cls-1" d="M19.12 2.1c-.5 0-.66-.6-1-.8-.17 0-.17-.3 0-.4.5-.4.83.2 1 .7 0 .1.17.3.17.5s-.17 0-.17 0zm22.71-.8c-.33 0-.33.6-.5.8s-.5 0-.66-.4v-.2a.83.83 0 0 1 1.16-.4c-.17.1-.17.2 0 .2zM9.85 2.8c0 .1 0 .2-.17.2-.33-.3-.83 0-1.16-.5 0-.1-.17-.2 0-.4 0-.1 0-.1.17-.1a2.51 2.51 0 0 1 1.16.5zm180.94 48.4c-.17 0-.33-.1-.33-.2s-.17-.2-.17-.4.17-.3.33-.3.33.2.33.3c.17.1.17.3.17.5s-.17.1-.33.1zm-7.12.2c.17.1.33.1.5.2 0 0 .17.2.17.3l-.17.1c-.17 0-.33-.1-.5-.1s-.17-.2-.33-.3zm1.16-47.2c-.17.1-.17-.3-.33-.5-.17-.5.17-.3.17-.4.17-.1.17 0 .33.1v.2a.41.41 0 0 1-.17.6zm15.24 45.5a.31.31 0 0 1 .33.3v.2a.35.35 0 0 1-.5-.1c-.17-.1-.33-.2-.33-.3zM213 48.1c.17.1.33-.1.33.2s0 .4-.17.5c-.17 0-.33 0-.33-.3s0-.4.17-.4zM43 1.7V2c-.17.1-.5-.4-.5-.7 0-.1 0-.2.17-.2s.33.2.33.6zm-2.67.1c0 .2-.17.2-.33.1-.17-.1-.33-.1-.33-.6 0-.1.17-.2.17-.1a1.59 1.59 0 0 1 .49.6zm-36.62 23l.33.1c-.17.2-.33.4-.5.4 0 0-.17-.2-.17-.3.01-.4.18-.1.34-.2zm40.93-23c.17 0 .33 0 .33.4s0 .2-.17.2-.33-.2-.33-.5zm177.64 12.3a1 1 0 0 1 .5.2v.2a.89.89 0 0 1-.5-.1.37.37 0 0 1-.17-.3c0-.2.17 0 .17 0zM44.31 3c.17 0 .17.1.33.3v.3c-.17 0-.17-.1-.33-.3s-.16-.3 0-.3zM8.35 5.3c0-.2 0-.5.17-.5s.33 0 .33.2c-.17.4-.33.1-.5.3zm4.97-3.7c-.17 0-.17-.1-.17-.1v-.1c.01.1.17.1.17.2zM28.57.3c0 .1-.17.2-.17.2l-.16-.1V.3zm-16.9 1.4v.2c-.17 0-.17 0 0-.2-.17 0-.17-.1-.17-.1s0 .1.17.1zm3.48-.4c-.15 0-.15-.1-.15-.2V1a.29.29 0 0 1 .15.3zm-4.97 1c.17-.1.17 0 0 0zm.99.1L11 2.3s0-.1.17.1zM3.22 12.7c0-.1.17-.1 0 0zm-1.16 6.4l-.17.2c0-.3.17-.1.17-.2zM180.85 49h.15c0 .3-.17 0-.17 0zM101 53.4c.17-1 .17-1 .83-.4.17.1.33.1.17.3 0 .3-.17.3-.33.2a1.2 1.2 0 0 0-.66-.1z"/></g></g></svg>