<svg xmlns="http://www.w3.org/2000/svg" viewBox="0 0 154.94 58.36"><defs><style>.cls-1{fill:#ffc700}</style></defs><title>breadcrumps-company</title><g id="Слой_2" data-name="Слой 2"><g id="Слой_1-2" data-name="Слой 1"><path class="cls-1" d="M152.9 27c.23.6.23 1 0 1.1a1.06 1.06 0 0 1-.69.3c-.34-.2-.69.3-1 .3a.41.41 0 0 0-.11.3c0 .1.11.1.11.1l.57.4a.66.66 0 0 1 0 1l-.23.1c0 .1.11.2.11.3l.34.3c.11.1.23 0 .23.5s-.11.5-.23.6-.34 0-.34.8c0 .1-.23.3-.34.4l-.69.3c-.23.1-.46 0-.23.8 0 .1-.11.4-.11.6v.3c0 .1.11.1.11.2s.23-.2.23-.3a3.47 3.47 0 0 1 .8 1.1c-.11.5-.46.8-.69.7-.46-.3-.69.7-1 1.1-.11.1-.11.4-.11.7 0 .5-.11.7-.23.6s-.23-.1-.11.2a.34.34 0 0 0 .11.2c.23-.1.34.1.46.4.46.8.69.8 1.49 1h.23s.34.2.23.4-.11.3-.34.3a3 3 0 0 1-.92.2c-.23 0-.46.2-.57.7s-.46.7-.69.5c-.11-.4-.23-.4-.23 0-.23-.2-.46-.2-.8 0a9.81 9.81 0 0 0-1.38.8c-.92.7-1.84.4-2.76.8-.23.1-.34.2-.57.3a.45.45 0 0 0 0 .6 2.68 2.68 0 0 0 2 .2 2.26 2.26 0 0 1 1.15-.1.34.34 0 0 1 .11.2c0 .1-.11.3-.11.4a2 2 0 0 1-.11.4c-.23.1-.11.3 0 .5.11.5.34.2.57.4s.23-.3.23.2 0 1-.23 1h-.11c-.46 0-.92.3-1.38.2-.11-.1-.23 0-.46.1-.46.7-.92.3-1.26.6a3.31 3.31 0 0 1-1.38.2c-.23-.1-.46.1-.57.4s-.46.4-.69.3-.46-.3-.46-.9-.23-.3-.46-.4a7.84 7.84 0 0 1-2.64-.1c-1.61-.5-3.33-.1-4.94-.2a11.27 11.27 0 0 1-1.84 0 .68.68 0 0 1-.57-.2c-.11-.1-.11-.1-.23-.1-.57.7-1.15 0-1.84 0-.23 0-.46.5-.57.3-.46-.5-.92.3-1.38-.2-.23-.3-.57-.2-.69.3-.23-.1-.46-.7-.69.2 0 .2-.23 0-.34-.2a1.2 1.2 0 0 0-.8-.5.34.34 0 0 0-.11.2c-.11.2 0 .3 0 .4s.23.6.34.5c.57-.5.92 1.1 1.38.6.11-.1.23-.3.34 0 .23.7.69 1 1 1 .11 0 .11.1.11.3s-.11.3-.11.3c-.46-.3-.92 0-1.38-.2a.39.39 0 0 0-.46 0 1.35 1.35 0 0 1-1.49 0l-.11-.1c-.46.7-.92-.5-1.38.2-.92-.6-1.72-.2-2.64-.1h-3.79c-1 .1-4.6 1.7-5.75 1.7a19.85 19.85 0 0 1-3.45 0 9.85 9.85 0 0 0-2.41-.2c-.46.1-.92.2-1.49.3l-1.26.3a2.6 2.6 0 0 0-1.49.2h-.23c-.92-.3-1.84.2-2.64.1a8.1 8.1 0 0 0-1.61.1h-1.98c-1.26 0-2.53.1-3.79.2a15.89 15.89 0 0 0-2.18 0c-1 .1-2.07-.4-3.22-.3a7.51 7.51 0 0 1-1.49-.1c-.57-.1-1.15.3-1.72-.2-.11-.1-.23-.1-.34.1s-.23.2-.23.2a5 5 0 0 0-2.41-.3c-.8.1-1.72-.6-2.53 0A.62.62 0 0 1 75 54c-.11-.1-.34-.3-.46-.1s-.46.3-.69-.2c-.11-.2-.23-.2-.34.3-.11.3-.23.2-.34 0s-.34-.2-.46.1c-.23.7-.57.9-.69 1.5-.11.4-.23.5-.46.4-.34-.3-.69-.3-.92.2-.23.3-.46-.8-.57.1-.34-.1-.57.6-.8 1.1-.11.1-.11.2-.23.2-1-.2-2 .5-2.87.5-.69 0-1.38.5-2.07.1s-1.15 0-1.72-.2a9.08 9.08 0 0 0-2.3-.1 10.38 10.38 0 0 1-1.72-.3 2.81 2.81 0 0 1-.92 0 21.13 21.13 0 0 0-2.18-.4c-.46 0-.92-.3-1.49-.3s-1-.4-1.49-.5a12.1 12.1 0 0 0-1.84-.4 14.92 14.92 0 0 1-2.3-.7 11.2 11.2 0 0 0-1.72-.5c-.46-.1-.92-.3-1.38-.4a6.42 6.42 0 0 0-1.49-.3 5.8 5.8 0 0 1-1.26-.3c-1 0-2 .1-3 .2a4.45 4.45 0 0 0-2 .3 1.17 1.17 0 0 1-.57-.1c-.23 0-.46-.4-.57.4-.11.3-.23.2-.34 0-.23-.4-.46-.5-.69-.1-.11.2-.34.2-.46-.2s-.34-.5-.46-.3a4.07 4.07 0 0 1-2.64.3 4.35 4.35 0 0 1-1.61 0c-.11 0-.23-.1-.23 0-.11 1.2-.34.2-.57.1a1.22 1.22 0 0 0-1.49.2 1.1 1.1 0 0 1-.57.3 1.81 1.81 0 0 0-.69.2c-.69.3-1.38.4-2.07.7a1.67 1.67 0 0 0-.92.3 1.45 1.45 0 0 1-.92 0c-.92-.1-1.38-.1-1.84-.2a1.1 1.1 0 0 0-.8 0 3.06 3.06 0 0 1-2.18-.6c-.11-.1-.23-.1-.46-.1h-.34a9 9 0 0 0-1.38-.7 1.71 1.71 0 0 0-1.38-.2 11.78 11.78 0 0 0-2.64.2.62.62 0 0 1-.46-.3.65.65 0 0 0-.69-.2c-.23.1-.46 0-.8-.3a14.58 14.58 0 0 0-2-.6 12.34 12.34 0 0 0-2.41-1 1.42 1.42 0 0 1-.34-.4.93.93 0 0 1-.11-.4l.11-.1a3.67 3.67 0 0 0 .92-.4c.11 0 .23.2.23-.2 0-.1-.11-.2-.23-.3s-.11-.1-.23-.1c-.69.3-1.15-.6-1.72-1.3.11-.1.11-.4.11-.6s-.11-.6 0-.8.23-.2.34-.1c.46.5 1-.2 1.61.3.11.1.11 0 .23-.2H6c0-.3 0-.5-.11-.6s-.23-.1-.34-.1c-.34-.1-.8 0-.92-1-.11-.3-.23-.2-.34-.3l-2.75-1.2a.23.23 0 0 1-.23-.2.29.29 0 0 0-.11-.2c0-.1 0-.3.11-.3a.83.83 0 0 1 .92-.3 22.72 22.72 0 0 1 2.41.8.34.34 0 0 0 .11-.2c0-.2 0-.3-.11-.3-.69.3-1.26-.4-2-.5a5.65 5.65 0 0 1-2.48-1.5c-.11-.1-.23-.3-.11-.7v-.1c.23-1.4.23-1.4.8-1s.92.3 1.38.6a3.3 3.3 0 0 1 .92.3c.11.1.23.1.46 0s.34-.1.34-.5a1.06 1.06 0 0 0-.23-.7c-.34 0-.69-.7-1-.7s-.8-.7-1.15-.9c-.11-.1-.11-.2 0-.4v-.1c0-.5.34-.5.34-1 0-.2-.34-.3-.46-.6s-.34-.4-.57-.5a.13.13 0 0 1 0-.2c0-.1 0-.2.11-.2s.34.2.57.3c0 0 .11.2.11 0v-.4c-.11-.2-.11-.5-.23-.5-.46-.2-.69-1.1-.92-2a.75.75 0 0 1 0-.7 3.51 3.51 0 0 1 .69-.9 1.83 1.83 0 0 0 1-1.1c0-.1.11-.1 0-.3h-.09c-.23.2-.46.1-.23-.7a1 1 0 0 0 0-.6.42.42 0 0 0-.23-.1c-.11 0-.34.1-.34-.5 0-.8.23 0 .34-.2s.34.2.57-.5c.11-.3.23-.1.34-.1H3a.56.56 0 0 0 .23-.5c0-.3-.34-1.1.23-1 .23 0 .34-.5.57-.2s.46.2.69-.1c0-.1.11-.2.11-.3a.93.93 0 0 0-.11-.4c-.34 0-.57-.1-.8-.1-.57-.1-1-.7-1.61-.8a.34.34 0 0 1-.11-.2c0-.1.11-.1.11-.2.23-.2.34-.3.57-.3s.23.1.23-.2v-.1l.11.1a.34.34 0 0 0 .11-.2c0-.1-.11-.2-.11-.1a.34.34 0 0 1 .11.3H3c-.11 0-.11-.2-.11-.4.34-.6-.11-1.1 0-1.7 0-.3-.11-.2-.11-.3a1 1 0 0 0-.92-.5c-.11.1-.34 0-.46-.3.11-.6.34-.4.57-.7 0-.1.11-.2.11-.4S2 17.8 2 17.8s-.23-.1-.23-.2-.34.5-.46 0c.23-.2.23-1.1.46-1.2s.57-.6.8-.6.34-.2.34-1 .11-1.3-.23-1.5c-.11 0-.23-.3-.23-.5a1.06 1.06 0 0 1 .23-.7l.32-.3c.11-.1.23 0 .34-.1.57-1.2 1.26-1 2-1.2.34-.1.69-.1.92-.9.34.2.34-.9.57-.8a.13.13 0 0 0 0-.2h-.46c-.57 0-1-.3-1.61-.3A1.43 1.43 0 0 1 3.5 8c-.34-.2-.57-.2-.8 0 0 0-.11 0-.11-.1a.34.34 0 0 1 .11-.3c.11-.4.11-.8.46-1.1a8.69 8.69 0 0 1 .92-.3c.11-.1.34 0 .11-.7v-.2c0-.1.11-.1.11-.1a1.08 1.08 0 0 0 1.49 0c.46.9.69 0 1-.3.11-.1 0-.2 0-.3s-.11 0-.11-.2a.1.1 0 0 1 .11-.1.77.77 0 0 1 .46.1c.23.3.34-.1.57-.3a.3.3 0 0 0 0-.5c-.34-.4-.11-.5 0-.8A.54.54 0 0 1 8 2.4a.42.42 0 0 0 .23.1c.23-.3-.11 1.8.34.8.23-.5.46 0 .69-.4s.46-.4.69-.1c-.11.1 0 .2.11.2s0-.5.11-.6.34 0 .34.3.23.6.34 0c0-.2.11-.2.23-.1.57.5 1.26.3 2 .6.46.1.92-.1 1.38-.7a.13.13 0 0 0 0-.2c0-.1 0-.2-.11-.2A.46.46 0 0 0 14 2c-.11 0-.23-.1-.11-.4s-.11-.6 0-.8.23 0 .34.3a2.12 2.12 0 0 0 .69 1c.11 0 .23.1.23-.2a2 2 0 0 1-.15-.4c0-.1-.11-.3-.11-.4s.11-.1.11 0a2 2 0 0 1 .57.4c.23.3.46.6.57-.2 0-.2.11-.2.23-.2.46 0 .92.3 1.38-.5.23-.2.34-.2.57.1.34.6.8.7 1.26.2.69-.7 1.26-.2 2 0 .23.1.23.3.34.2.46-.5.92 0 1.38.3a1.28 1.28 0 0 0 1.15.3 1.06 1.06 0 0 1 .69.3c.46.3.8.3 1.26.6s1.15.7 1.61.9.57-.4.8-.1a1.31 1.31 0 0 0 .8.7c.11 0 .23-.2.11-.5-.11-.1-.11-.2-.11-.4s.11-.2.23-.2l.11.1c.11 1.3.46.9.8.9a10 10 0 0 0 1.72-.1c.11 0 .11-.1.23-.1-.11-.1-.11-.2-.23-.2-.23-.2-.46-.1-.57-.5-.11-.1-.11-.3-.11-.5s.11-.2.23-.2.23 0 .23.3c.11.6.23.6.34.2.23-.6.34-.4.57-.1s.8 1 1.15.6c0-.1.11-.2.11-.1.57.5 1.26-.3 1.84-.2a14.48 14.48 0 0 0 2.07-.2c.8 0 1.61-.4 2.41.2.46-.3.92.3 1.38.2s.92.4 1.26-.1a2.22 2.22 0 0 1 .92-.2 12.59 12.59 0 0 0 2.64-.6c.57-.1 1.15-.9 1.72-.4.11.1.34.3.46-.4 0-.3.23-.1.34 0a.82.82 0 0 0 1-.1c.23-.3.46.1.69 0a7.17 7.17 0 0 1 1.38-.4.81.81 0 0 1 .8.1 3.37 3.37 0 0 0 2 .3c.23 0 .46.3.69.3a1.88 1.88 0 0 0 1.72-.7c.23-.4.46-.5.69-.5s.11 0 .23.3 0 .3-.11.5-.11.2-.11.3-.11.2 0 .4 0 .1.11.2a.6.6 0 0 0 .69-.1.65.65 0 0 1 .69-.2c.11 0 .46-.3.34.8 0 .2.23.4.34.5a11 11 0 0 0 4 .3c.34 0 .57-.5.92-.5.92-.1 1.84-.4 2.76-.5a.68.68 0 0 0 .57-.2 1 1 0 0 1 .57-.1c.11 0 .23.2.23.4a.72.72 0 0 1-.23.5l-.11.1c-.11 0-.11.2-.11.4s.11.2.11.2a1.38 1.38 0 0 0 .8-.2c.23-.2.46-.2.8 0a1.85 1.85 0 0 0 1.26.1A16.06 16.06 0 0 0 76 3.7a3.08 3.08 0 0 0 1.61-.3c.11-.6.23-.3.34-.3.34-.1.69.6.92-.4l.11.1a1.55 1.55 0 0 0 .92-.2 3.31 3.31 0 0 1 1.38-.2c1.15-.1 2.18-.1 3.33-.2l.39-.3c.23-.1.34-.3.57.1s.46.6.57-.5c0-.4.23-.4.34-.2.23.5.57.6.8.1 0-.1.11 0 .23 0s.11.2.23.2c.8-.1 1.61.6 2.41.4.11 0 .23-.1.23-.3s.11-.3.23-.2c.34.6.8.6 1.15.2.46.9.92-.3 1.38.5.11.1.23.1.23 0a.25.25 0 0 1 .46 0c.11.2.34.2.57 0s.11-.2.23-.1c.23.5.57.5.92 0 .11-.2.23.1.34.3s.34.4.57-.1.23-.2.34 0 .34.4.57.2.46-.1.69.2c.11.1.23.2.23.1.23-.6.57-.3.8 0-.11.2.11.2.23 0s.23-.2.34 0c.23.5.46.7.8.3.11-.1.23-.1.23 0a1.44 1.44 0 0 1 .23.3c.46-.5.8.2 1.15.3a5.32 5.32 0 0 0 1.26 0h.46c.57.2.57.2 1.26-.3h.11c.34.3.57.4.92.2s.69.2 1 0 .57.3.8-.3a8 8 0 0 1 2.18 0c.23.3.69-.2.69-.1.46.5.92 0 1.38 0a9.65 9.65 0 0 1 2.07.6c.11 0 .23.1.23-.2a1.57 1.57 0 0 0 1.61.1.24.24 0 0 1 .34 0c.23.3.57.3.8-.1.57-.6 1.26-.2 1.84-.3s.8-.3 1.26-.4a4.83 4.83 0 0 1 2.07-.1 2.57 2.57 0 0 0 1.15-.2c.23-.1.57-.2.69.7 0 .3.23.5.23.3.23-.7.46-.2.69 0s.23.1.46-.1.34-.2.46.1v.1a2.68 2.68 0 0 0 .8 1.2c.11.1.11 0 .11-.1a.34.34 0 0 0-.11-.3c0-.1 0-.5-.11-.6a.55.55 0 0 1-.11-.6c.11-.2.23 0 .34.3s.11.9.34 1 .57.6.8-.2c.11-.1.23-.2.23-.1.46.5.92-.2 1.26-.5.11-.1.23-.3.34-.1.23.4.57.5.8.2s.57 0 .57-.4-.23-.5-.46-.6a.34.34 0 0 1-.11-.2c0-.2 0-.3.11-.3s.34 0 .46.3a3.18 3.18 0 0 0 .34.6c.11.1.23 0 .23-.2.11-.4-.11-.2-.11-.4s-.11-.3 0-.5.11 0 .11 0c.69.9 1.38.7 2.18.4a11.74 11.74 0 0 1 1.96-.3c.11 0 .23-.1.46-.1s.23-.2.23-.2c1.26.6 2.64.1 3.91.3a.62.62 0 0 1 .46.3c1 .7 2.07 1.2 3.1 0 .11-.2.34-.3.34-.1.23.5.46.2.69.1 1-.7 2.07-.3 3.1-.3a2.34 2.34 0 0 0 1.15-.2c.34-.2.8-.6.92.9a5 5 0 0 0 .8.7.49.49 0 0 1 .46.2c.11.2.34.1.46.7s.46.6.69.6h.57c.23 0 .34.1.46.6a.37.37 0 0 1-.34.4c-.23-.1-.34.7-.46.7 0-.2.11-.4 0-.4-.11-.5-.46-.4-.69-.5 0 0-.11.2 0 .3.23.3.34.9.57.6 0 .3.11.3.23.3s.57.1.8.7c.11.3.34.4.46.3s.23-.1.46.1.11.4 0 .4-.34.3-.23.9c0 .2 0 .4-.11.4s-.23.1-.46-.1a4.51 4.51 0 0 0-1.72-1.2c-.46-.2-.8-.9-1.26-1a2.23 2.23 0 0 1-1-.4.13.13 0 0 0-.23.1 1.06 1.06 0 0 0-.23.7c0 .3.11.4.23.4h.46c.11 0 .23 0 .23.4.11.6.23 1 .46.9.8.1 1.49 1.4 2.3 1.8.11.1.11.2 0 .4a8.31 8.31 0 0 1-.23.8.41.41 0 0 0 0 .5c.34.3.23.7.11 1.3a3.71 3.71 0 0 0 .34 1.3.18.18 0 0 1 .23 0c.11.2.34.1.34.6s-.23.4-.34.4-.23 0-.23.2.11.4.23.4h.46s.23.3.11.5-.23.7-.34 1.1c0 .1-.11.1-.11.2s-.23-.3-.34-.1.11.5.11.8-.11.3-.23.2a1.65 1.65 0 0 0-.69-.1c-.11 0-.23.1-.11.3.11.4 0 1.1.34 1.3.11.1.34.2.46.4a.93.93 0 0 1 .11.4.34.34 0 0 1-.11.2l-1.15-.3c-.11 0-.11 0-.11.1v.4c0 .1.11.5.11.6a1.78 1.78 0 0 1 0 1.7c-.11.1-.11.3 0 .5s0 .1.11.1c.57 0 .57.6.57 1.2 0 0-.11-.2-.11.1 0 .1.11 0 .11-.1zm-.57-7.2a3.84 3.84 0 0 1 .11.5c0 .1.11.1.11.1v-.3a1.25 1.25 0 0 0-.23-.3zM70 53.5a.85.85 0 0 0 0 .9c.34.3.8-.1 1-.9 0-.3.11-.8-.11-.9a1.06 1.06 0 0 0-.69-.3c-.46-.1-.8 0-1.26-.1a2.38 2.38 0 0 0-.8-.2c-.23-.1-.46.1-.69.5s-.46-.3-.8-.1c-.69.4-1.26 0-2 .1h-.46c-.11.1-.23.1-.46 0s-.34-.2-.57 0-.23.1-.46 0c-.46-.5-.8.1-1.26.1a.34.34 0 0 0-.11.2c0 .3.11.3.11.3.69-.2 1.38.4 2.07.3a5 5 0 0 1 1.72.1 5.77 5.77 0 0 0 1.84-.2 3.16 3.16 0 0 1 2.87.2zm82-28.9c.11-.1.23-.2.34-.1s.11-.1.23-.3a3.18 3.18 0 0 0-.23-1.1c0-.2-.11-.2-.11-.1v.1c-.11.4-.23.6-.46.6s-.11.3 0 .5.11.4.23.4zM72 53.1q.17-.3 0-.3a1.32 1.32 0 0 0-.57-.2c-.11 0 0 .2 0 .3a.75.75 0 0 1 0 .7v.4h.11s.11 0 .11-.1a1.06 1.06 0 0 0 .34-.8zM67.74 55c-.11 0-.23 0-.23.2a.29.29 0 0 0 .11.2c0 .1.11.1.11.2.23.2.34-.4.57-.3l-.46-.3zm-64-40c.11-.1.23 0 .23-.3s-.11-.4-.23-.4-.34 0-.34.3.1.4.33.4zm-.24 5.4c-.11 0-.23-.2-.34.3 0 .2 0 .3.11.3s.23-.1.34-.4 0-.1-.11-.2zm.5-6.6c0-.2 0-.4-.11-.4s-.23-.1-.23.1a3.84 3.84 0 0 0 .11.5c.11.1.23.1.23-.1v-.1zm119.14 34.9c0-.1-.11-.2-.11-.3s-.23-.2-.23 0a.5.5 0 0 0 .23.4c0 .2.11.1.11-.1zm-54 6.7a.37.37 0 0 0-.34-.4.29.29 0 0 1-.11.2c0 .3.11.5.23.4s.2-.1.2-.2zm82.75-29.7c0-.4-.23-.3-.23-.3a.1.1 0 0 1-.11.1 1.42 1.42 0 0 0 .34.4zm-5.4 22.5c0-.2 0-.3-.11-.3a.34.34 0 0 0-.11.2c0 .1 0 .3.11.3s.11 0 .11-.2zM1.08 32.5c0-.1-.11-.1-.11-.2s-.11 0-.23.2.11.1.11.2.15 0 .23-.2zm68.5 22c-.11-.1-.11-.1-.23-.1s-.11.1 0 .2h.23v-.1zm84.13-37.6v-.2s-.11 0-.11.1v.2c-.01.1.11.1.11-.1zM126.35 4.8v-.1c-.11.1-.11.2 0 .1zM7.52 6.8l.11-.1v-.1h-.11zM6.37 7zM152.9 19.5zM2.81 29c-.11-.1-.11 0 0 0zm147.11 6.3zm2.41-29.6z"/><path class="cls-1" d="M13.26 2.1c-.34 0-.46-.6-.69-.8-.11 0-.11-.3 0-.4.34-.4.57.2.69.7a3.84 3.84 0 0 1 .11.5c.01.1-.11 0-.11 0zM29 1.3c-.23 0-.23.6-.34.8s-.34 0-.46-.4v-.2c.23-.5.46-.6.8-.4-.11.1-.11.2 0 .2zM6.83 2.8c0 .1 0 .2-.11.2-.23-.3-.57 0-.8-.5 0-.1-.11-.2 0-.4S5.91 2 6 2s.46.2.8.5zm125.5 48.4a.23.23 0 0 1-.23-.2c0-.1-.11-.2-.11-.4s.11-.3.23-.3.23.2.23.3.11.3.11.5-.11.1-.23.1zm-4.94.2c.11.1.23.1.34.2a.92.92 0 0 1 .11.3l-.11.1c-.11 0-.23-.1-.34-.1s-.11-.2-.23-.3zm.8-47.2c-.11.1-.11-.3-.23-.5-.11-.5.11-.3.11-.4s.11 0 .23.1v.2a.51.51 0 0 1-.11.6zm10.58 45.5c.11 0 .23.1.23.3v.2c-.11.1-.23.1-.34-.1s-.23-.2-.23-.3zm8.96-1.6c.11.1.23-.1.23.2s0 .4-.11.5c-.11 0-.23 0-.23-.3s-.01-.4.11-.4zM29.81 1.7V2c-.11.1-.34-.4-.34-.7 0-.1 0-.2.11-.2s.23.2.23.6zM28 1.8c0 .2-.11.2-.23.1-.11-.1-.23-.1-.23-.6 0-.1.11-.2.11-.1a1.61 1.61 0 0 1 .35.6zm-25.42 23l.23.1c-.11.2-.23.4-.34.4a.92.92 0 0 1-.11-.3c-.01-.4.1-.1.22-.2zM31 1.8c.11 0 .23 0 .23.4s0 .2-.11.2-.23-.2-.23-.5zm123.17 12.3a.62.62 0 0 1 .34.2v.2a.46.46 0 0 1-.34-.1.41.41 0 0 1-.11-.3c0-.2.11 0 .11 0zM30.73 3c.11 0 .11.1.23.3v.3c-.11 0-.11-.1-.23-.3s-.11-.3 0-.3zM5.79 5.3c0-.2 0-.5.11-.5s.23 0 .23.2c-.11.4-.23.1-.34.3zm3.45-3.7a.1.1 0 0 1-.11-.1v-.1c0 .1.11.1.11.2zM19.82.3a.34.34 0 0 1-.11.2l-.12-.1V.3zM8.09 1.7v.2c-.11 0-.11 0 0-.2A.1.1 0 0 1 8 1.6a.1.1 0 0 0 .09.1zm2.42-.4c-.11 0-.11-.1-.11-.2V1a.34.34 0 0 1 .11.3zm-3.45 1c.11-.1.11 0 0 0zm.69.1l-.11-.1s0-.1.11.1zM2.23 12.7c0-.1.11-.1 0 0zm-.8 6.4l-.11.2c0-.3.11-.1.11-.2zm124 29.9h.11c0 .3-.11 0-.11 0zM70 53.4c.11-1 .11-1 .57-.4.11.1.23.1.11.3s-.11.3-.23.2-.23-.1-.46-.1z"/></g></g></svg>