<svg viewBox="0 0 186.98 52.35" xmlns="http://www.w3.org/2000/svg"><path d="M0 40.35v-1c3.28-.16 5.4-2.45 7.64-4.35s2.14-3-.57-4.65c-.74-.46-1.51-.77-1.5-1.73 0-1.18.87-1.71 1.9-2a16.3 16.3 0 0 0 2.86-.83c1-.48 1.71-1.79.88-2.43-2-1.53-1.65-4.32-2.88-5.56-2.27-2.3-1.2-3.67-.06-5.58.66-1.11 1.52-2.64 0-3.54-3.57-2.09-.9-3.32.47-4.77 1.63-1.71 3.87-1.78 6-2.16C21.62.48 28.6.28 35.59.09 37.74 0 63.23 0 64.89 0c8.47.33 16.94.63 25.41 1 11 .55 21.93 1.84 32.87 1.62 9.48-.19 19-.17 28.45-.5 6.15-.22 12.32 0 18.48 0 2.82 0 2.3 1.34.9 3a39.59 39.59 0 0 1 4.5.46c1.39.3 3.44.34 3.36 2.26-.06 1.65-2 1.37-3.23 1.7-.49.13-.6.26-.3.49 3.34.91 8 6.23 6.73 8.19-3.19 4.9-.64 8.43 2.18 11.94 1.31 1.63 2 3 .68 4.87-2 2.8-.38 4.2 2.05 5.28v1c-4.16 2.73-8.17 5.82-13.47 6-9 .26-18 .63-26.89.56-12.76-.1-25.51-1.62-38.3-1.46-15.95.21-31.88.84-47.8 1.79-9.11.54-18.2 1.44-27.37 1.37A74 74 0 0 0 11 52.35H7c-.7-1.71.12-2.66 1.61-3.33 1.14-.52 2.24-1.12 3.36-1.69.32 0 .63-.05.94-.12.11 0 .2-.16.3-.24l-1.21.4c-1.75 0-3.5 0-5.25-.08-1.94-.11-2.44-1.2-1.77-2.94-2.71.02-3.98-1.87-4.98-4z"/></svg>