<svg viewBox="0 0 490.61 114.63" xmlns="http://www.w3.org/2000/svg"><path d="M5.73 47.81C3.71 46.55 1.14 46 0 43c5.71 1 11 2.88 16.1 4.64.93-.76.14-1-.09-1.22a3.72 3.72 0 0 0-1.27-.75 43.15 43.15 0 0 1-8-3.89c-.54-.35-1.49-1-1.42-1.24a8.09 8.09 0 0 0-1.09-6.64c-.16-.24-.34-2.35 1.57-2.16a10.08 10.08 0 0 0 2.46-.34c.71-.11 1.52-.68 1.29-1.2-1.68-3.92 1.16-2.43 2.65-2.17s2.8.97 4.25 1.34a3.72 3.72 0 0 0 3.76-.56 1.51 1.51 0 0 0 .36-1.28c-.15-.48-.7-.55-1.23-.35s-1.28 2.36-1.4-.18c-.07-1.56-1.64-1.45-2.46-2.16-1.78-1.56-1.2-2.46.64-3.19C16 20.37 15 20 14.19 19.69A1.85 1.85 0 0 1 13 17.37c.16-1.19.63-1.8 1.85-1.82 2.09 0 3.62-1.75 6.08-1.4-1.19-1.8-3.38-.38-4-2.6 7-2.31 14.15-1.67 21.33-1.15C32.92 8.3 27.07 8 21.29 4.9a50.13 50.13 0 0 1 14.95-.5c3.77.54 7.64.32 11.47.48 14.63.61 29.23 1.61 43.87 2.19 8.8.35 17.58-.16 26.37.08a143.45 143.45 0 0 0 21.35-.7c4.6-.57 9.28.11 13.8-1.12a3.74 3.74 0 0 1 1.47-.06c6 .85 11.84-.49 17.74-1.06a5 5 0 0 1 1-.1c8.11.89 16.15-.7 24.25-.61a130.06 130.06 0 0 0 14.81-1.08 20.87 20.87 0 0 1 3.44.07c2.3.13 4.63.63 6.88-.49a3.59 3.59 0 0 1 2-.19c5.48.74 11 .15 16.42-.31 5.89-.5 11.84.7 17.66-.87a2.89 2.89 0 0 1 1 0c7.44.7 14.88-.63 22.32 0a28.94 28.94 0 0 0 9.43-.49c2.31-.55 4.62.35 6.94.45 10.14.43 20.29.77 30.42 1.3 14.77.78 29.53 2 44.32 2.42 7.66.22 15.21 1.38 22.85 1.69 5.6.23 11.22.79 16.85 1 3.5.14 6.86 1.26 10.24 1.92 6.35 1.24 12.88.85 19.12 2.62a5.41 5.41 0 0 0 2 .17c4.75-.48 9.06 1.68 13.65 2.27s8.94 2.24 13.48 2.88 8.44 2.89 12.79 3.89c.66.15 1.56.46 1.31 1.17-.65 1.84.77 1.72 1.71 2.18s2 1.11 3.42 1.91c-1.68 1.27-2.88 2.08-4.92 1.24-2.27-.94-4.74-1.38-7.1-2.1-.69-.21-1.24-.31-1.93.8 2.45.93 4.84 1.85 7.24 2.73.58.21 1.79.41 1.41.9-2.38 3 1.59 4.09 1.86 6.32.18 1.52.59 2.56-1.38 2.85s-3.69.81-2.38 3.45a7.57 7.57 0 0 1-1.59 1c-1.79.86-3.6.4-5.35-.12a17.46 17.46 0 0 0-8.81-.83c-2.39.49-4.59-1.11-6.94-1.48-.67-1.12-1.48-1.38-2.55-.46.83.86 1.79.22 2.66.32 0 .78-.43 1.67.8 2 1.93.44 3.85.89 5.77 1.38 3.35.86 6.77 1.54 9.85 3.59-.16 1.41-2.16 1.44-2.2 2.88s1.37 1.82 1.76 2.91c.31.87 1.48 1.06 1.35 2.42-.26 2.9-.8 3.63-4 3.5-1.57-.06-2.93-.46-1.52 1.87.4.67-.25 1-1.08 1-3.41-.06-6.83 0-10.22 0 3 3.49 7.94 3.67 12.25 7.1-4.12-.61-7.18-1-10.23-1.52-1.23-.19-1.2-.16-4.76.89-1.22.36-2.86-.29-3.69 1-.56.84.41 2.17-1.21 3.06-.84.46-2.5 1.34-2.44 2.84.08 2.08-1.67 2.31-2.81 3-2.28 1.4-2.74 2.21-1.73 5 .24.65.85 1-.3 1.18-2.57.38-1.63 2-1 3.3a3.93 3.93 0 0 0 1.92 1.5c1.34.6 1.43 1.66 1.39 2.88-.06 1.72-1.56 1.37-2.52 1.85a11.31 11.31 0 0 1-3.36.84c-1 .17-1.3.93-.73 1.82 1.11 1.74 0 1.84-1.34 2.05a45.54 45.54 0 0 1-17.13-1.08c-.12 0-.29.13-.72.34 2.48 2 5.41 2 8.15 2.5 2.32.43 4.62.87 5.37 3.72-2.14.88-4.37.61-6.64.7-5 .2-10.09 0-15.14.26-3.73.22-7.51-1.1-11.36-.77-2.8.24-5.69-.28-8.36 1a1 1 0 0 1-.49.08c-5.75-.38-11.53-.22-17.26-.59-3.58-.23-7.24-.83-10.84-1.13-7.46-.63-15-.84-22.45-1.15-2.64-.11-5.33-.58-7.89.59a1.57 1.57 0 0 1-1 .11c-5.13-1.39-10.21.69-15.32.2a10.05 10.05 0 0 0-4.92.45 3.75 3.75 0 0 1-1.94.3c-3.8-.66-7.55.08-11.31.12-5.15.05-10.37 0-15.43.52a168 168 0 0 1-16.89.55c-6.95 0-13.86 1.33-20.83.33-2.43-.35-5-.59-7.4.46a4.08 4.08 0 0 1-2 .21c-5.16-.54-10.31.07-15.46.06a173.73 173.73 0 0 0-18.35.91c-6.72.69-13.51.75-20.26 1.19-4.1.27-8.21.64-12.28 1.2-3.1.42-6.2.09-9.34.59-7 1.1-14.06 1.3-21.09 1.88-4.2.35-8.39 1.43-12.83.72-2.91-.47-6.19.45-9.32.69a145.59 145.59 0 0 1-26.31.14c-5.61-.58-11.16-1.31-16.69-2.34-1.59-.3-.84-.82-1-1.7-.16-1-1.66-1.4-2.91-1.44a5.2 5.2 0 0 1-4.54-2.76c3.55-.68 6.8 1.52 10.14.26-.35-1.74-1.8-1.6-2.7-2.2-.53-.36-1.57-.27-1.82-.71-2.51-4.38-7.18-3.07-10.88-4-2.44-.59-4.92-.56-7.46-1.52-1.78-.67-5.14-2-6.93 1.13-.73 1.29-1.63.79-2.48.25a6.34 6.34 0 0 1-1.93-1.56c-1.94-2.86-4.51-2.7-7.4-1.91-3.76 1-7.52 1.84-11.2-.62-1-.66-2.55-.47-4.14-.72 1.64-2.68 5-1.62 7.27-3.64l-5.94-2.53C20.57 87 20.06 84.79 18.71 83c-.86-1.1.08-2.15.76-3.1 2.15-3 2.13-4.38 0-7.16-.82-1-1.65-2.08-2.54-3.07-1.32-1.47-2.82-3.57-2.72-4.09.38-2.11-2.36-3.05-1.91-5.2 1-1 2.15-.6 3.25-.34 1.7.41 2.79-.61 3.81-1.61s0-1.84-.28-2.74-1.19-.93-2-1.18a82.17 82.17 0 0 1-14.5-6.65l3.35-.24c.07.34-.13 1 .63.51zm43.11 45.9c.13.25 0 1 .61.38l-.72-.27c0-.77-.38-1.05-1.1-.9-.12 0-.32.27-.3.3a1.25 1.25 0 0 0 1.51.49zm-23.4-63.5c2.55.66 5.13 1.51 7.68-.09-2.6.97-5.04-2.12-7.68.09zM81.64 106c2.36.59 4.86 1.33 7.34 0zm-16-8.86c1.84 1.5 3.06 2 4.54 1.15.05 0 0-.29 0-.4-.98-1.89-2.47-.97-4.58-.73zM21.93 29.57a1.09 1.09 0 0 0 .86.86c.87.21 1.13-.53 1.17-1.11a1 1 0 0 0-1.1-1.21c-.5.01-.86.28-.93 1.46zM455.72 40l-.46-.75c-.16.23-.45.45-.45.68s.27.48.42.72z" fill="#ffcc17"/></svg>