<svg viewBox="0 0 490.61 114.63" xmlns="http://www.w3.org/2000/svg"><path d="M484.08 48.17c.75.5.56-.17.63-.51l3.35.24a82.17 82.17 0 0 1-14.5 6.65c-.78.25-1.67.18-2 1.18s-1.21 1.84-.28 2.74 2.11 2 3.81 1.61c1.1-.27 2.27-.68 3.25.34.45 2.14-2.29 3.08-1.91 5.2.09.51-1.4 2.61-2.72 4.09-.89 1-1.72 2-2.54 3.07-2.18 2.78-2.19 4.18 0 7.16.69 1 1.62 2 .76 3.1-1.35 1.74-1.87 4-4.44 5.06l-5.94 2.53c2.32 2 5.63 1 7.27 3.64-1.58.24-3.14.05-4.14.72-3.68 2.47-7.44 1.65-11.2.62-2.9-.79-5.46-.95-7.4 1.91a6.34 6.34 0 0 1-1.93 1.56c-.85.53-1.75 1-2.48-.25-1.79-3.17-5.15-1.81-6.93-1.13-2.53 1-5 .93-7.46 1.52-3.71.9-8.37-.4-10.88 4-.25.43-1.28.35-1.82.71-.89.6-2.35.47-2.7 2.2 3.34 1.26 6.59-.94 10.14-.26a5.2 5.2 0 0 1-4.54 2.76c-1.25 0-2.75.41-2.91 1.44-.14.88.62 1.4-1 1.7-5.54 1-11.08 1.76-16.69 2.34a145.59 145.59 0 0 1-26.31-.14c-3.13-.24-6.41-1.16-9.32-.69-4.44.71-8.62-.37-12.83-.72-7-.58-14.13-.77-21.09-1.88-3.14-.5-6.24-.16-9.34-.59-4.07-.56-8.18-.92-12.28-1.2-6.75-.45-13.53-.5-20.26-1.19a173.73 173.73 0 0 0-18.35-.91c-5.15 0-10.3-.6-15.46-.06a4.08 4.08 0 0 1-2-.21c-2.43-1-5-.81-7.4-.46-7 1-13.88-.36-20.83-.33a168 168 0 0 1-16.89-.55c-5.06-.49-10.28-.47-15.43-.52-3.76 0-7.51-.78-11.31-.12a3.75 3.75 0 0 1-1.94-.3 10.05 10.05 0 0 0-4.92-.45c-5.11.49-10.19-1.6-15.32-.2a1.57 1.57 0 0 1-1-.11c-2.56-1.18-5.25-.7-7.89-.59-7.49.31-15 .51-22.45 1.15-3.61.31-7.26.91-10.84 1.13-5.73.37-11.51.21-17.26.59a1 1 0 0 1-.49-.08c-2.67-1.31-5.56-.78-8.36-1-3.85-.33-7.64 1-11.36.77-5.05-.31-10.1-.06-15.14-.26-2.27-.09-4.5.18-6.64-.7.75-2.85 3-3.29 5.37-3.72 2.75-.51 5.67-.5 8.15-2.5-.43-.21-.59-.37-.72-.34a45.54 45.54 0 0 1-17.07 1.02c-1.38-.21-2.45-.32-1.34-2.05.57-.89.31-1.66-.73-1.82a11.31 11.31 0 0 1-3.36-.84c-1-.47-2.46-.12-2.52-1.85 0-1.22.06-2.27 1.39-2.88A3.93 3.93 0 0 0 45.25 88c.61-1.26 1.55-2.91-1-3.3-1.15-.17-.54-.53-.3-1.18 1-2.78.56-3.59-1.73-5-1.14-.7-2.89-.94-2.81-3 .06-1.49-1.6-2.37-2.44-2.84-1.62-.89-.65-2.22-1.21-3.06-.83-1.26-2.47-.61-3.69-1-3.56-1.05-3.53-1.08-4.76-.89-3.05.48-6.12.91-10.23 1.52 4.31-3.44 9.24-3.62 12.25-7.1H19.11c-.83 0-1.48-.33-1.08-1 1.41-2.33.05-1.93-1.52-1.87-3.22.12-3.76-.6-4-3.5-.12-1.35 1-1.55 1.35-2.42.39-1.08 1.8-1.55 1.76-2.91s-2-1.47-2.2-2.88c3.08-2 6.5-2.72 9.85-3.59 1.91-.49 3.84-.94 5.77-1.38 1.23-.28.84-1.18.8-2 .87-.1 1.83.54 2.66-.32-1.06-.92-1.88-.66-2.55.46-2.35.37-4.55 2-6.94 1.48a17.46 17.46 0 0 0-8.81.83c-1.75.52-3.56 1-5.35.12a7.57 7.57 0 0 1-1.59-1c1.32-2.64-.41-3.16-2.38-3.45S3.26 37.49 3.44 36c.27-2.23 4.24-3.29 1.86-6.32-.39-.49.83-.69 1.41-.9 2.4-.88 4.79-1.8 7.24-2.73-.69-1.12-1.24-1-1.93-.8-2.36.72-4.83 1.17-7.1 2.1-2 .84-3.24 0-4.92-1.24 1.42-.8 2.39-1.41 3.42-1.91s2.37-.38 1.72-2.2c-.25-.7.64-1 1.31-1.17 4.35-1 8.28-3.25 12.79-3.89s8.94-2.3 13.48-2.88 8.9-2.75 13.65-2.27a5.41 5.41 0 0 0 2-.17C54.58 9.84 61.11 10.23 67.46 9c3.38-.66 6.74-1.78 10.24-1.92 5.62-.23 11.24-.79 16.85-1 7.64-.31 15.19-1.47 22.85-1.69 14.78-.43 29.54-1.64 44.32-2.42C171.85 1.4 182 1.06 192.14.63c2.32-.1 4.63-1 6.94-.45a28.94 28.94 0 0 0 9.43.49c7.45-.68 14.88.66 22.32 0a2.89 2.89 0 0 1 1 0c5.83 1.57 11.8.35 17.72.85 5.38.46 10.93 1 16.42.31a3.59 3.59 0 0 1 2 .19c2.25 1.12 4.57.62 6.88.49a20.87 20.87 0 0 1 3.44-.07 130.06 130.06 0 0 0 14.81 1.08c8.1-.09 16.14 1.5 24.25.61a5 5 0 0 1 1 .1c5.9.58 11.76 1.91 17.74 1.06a3.74 3.74 0 0 1 1.47.06c4.52 1.23 9.2.56 13.8 1.12a143.45 143.45 0 0 0 21.35.7c8.8-.24 17.57.27 26.37-.08 14.63-.59 29.24-1.59 43.87-2.19 3.83-.16 7.7.06 11.47-.48a50.13 50.13 0 0 1 14.95.5c-5.78 3.12-11.63 3.4-16.94 5.5 7.18-.52 14.32-1.16 21.33 1.15-.59 2.22-2.78.79-4 2.6 2.46-.35 4 1.36 6.08 1.4 1.21 0 1.68.63 1.85 1.82a1.85 1.85 0 0 1-1.24 2.31c-.77.34-1.8.68-1.93 2 1.85.72 2.43 1.62.64 3.19-.81.72-2.38.6-2.46 2.16-.12 2.54-.92.37-1.4.18s-1.08-.14-1.23.35a1.51 1.51 0 0 0 .36 1.28 3.72 3.72 0 0 0 3.76.56c1.44-.38 2.81-1.06 4.26-1.31s4.33-1.75 2.65 2.17c-.22.52.58 1.09 1.29 1.2a10.08 10.08 0 0 0 2.46.34c1.91-.18 1.73 1.92 1.57 2.16a8.09 8.09 0 0 0-1.09 6.64c.07.29-.88.89-1.42 1.24a43.15 43.15 0 0 1-8 3.89 3.72 3.72 0 0 0-1.27.75c-.23.22-1 .46-.09 1.22C479.64 45.9 484.9 44 490.61 43c-1.14 3-3.71 3.52-5.73 4.79zm-40.8 45.06s-.18-.28-.3-.3c-.72-.15-1.11.13-1.1.9l-.72.27c.65.58.48-.14.61-.38a1.25 1.25 0 0 0 1.51-.49zm14.21-63.11c2.54 1.6 5.13.74 7.68.09-2.64-2.21-5.08.88-7.68-.09zM401.63 106c2.48 1.33 5 .59 7.34 0zm18.87-8.12c-.06.12-.08.37 0 .4 1.48.85 2.7.35 4.54-1.15-2.14-.21-3.63-1.13-4.54.78zm47.25-69.8a1 1 0 0 0-1.1 1.21c0 .58.3 1.32 1.17 1.11a1.09 1.09 0 0 0 .86-.86c-.07-1.15-.43-1.42-.93-1.43zM35.37 40.6c.15-.24.42-.48.42-.72s-.29-.45-.45-.68l-.46.75z" fill="#ffcc17"/></svg>