<svg xmlns="http://www.w3.org/2000/svg" viewBox="0 0 621.62 753.09"><defs><style>.cls-1{fill:#ffcc17}.cls-2{fill:#fff}</style></defs><title>cat-form</title><g id="Слой_2" data-name="Слой 2"><g id="Слой_1-2" data-name="Слой 1"><path class="cls-1" d="M201.2 658.79c-31.65-1.49-62-4.92-92.52-2.64-28.31 2.12-56.39 7-84.85 7.35-5.36.07-10.71.27-16.37-3 38.55-.28 75.49-8.56 113-9.75 26.53-.84 53 1.27 79.38 3.23 2.85.21 6.42.05 7.5 3.61 1.31 4.29-2.06 6.5-4.94 8.38-16.56 10.77-33.45 21-52 28.17a36.94 36.94 0 0 0-7 3.44c13.85.41 27.48-2.59 41.19-.78 5.29.7 12-.26 11 9-.36 3.15 3.62 2.28 5.77 2.46 9.43.82 18.86 1.54 27.93 4.6 1.77.6 3.74.75 5 3-2.91 2.92-6.49 1.59-9.69 1.21-19.92-2.38-39.82-4.19-59.66.61-2.48.6-5.25.65-6-2.38-.86-3.37 1.54-5 4.47-5.47 7.13-1.21 14.35-2 21.65-5.18-4.42-2.72-8.48-1.91-12.4-1.77-23.27.85-46.32 4-69.41 6.71a21 21 0 0 1-3.23.27c-3.2-.13-8 2.31-8.64-2.79-.55-4.47 4.35-3.93 7.28-4.48 34.16-6.36 66.12-18.27 95.29-37.33 2.28-1.38 5.05-2.17 7.25-6.47zm337.67-205.3c-3.49-2.38-7.06-1.14-10.32-5.36 28.14 1.69 49.17-14 72.33-24.4-10.7-2.17-21.09-.35-31.5.13-5.1.24-10.23 1.33-15.31-.18-3.14-.93-6.54-1.84-7.15-5.68-.53-3.35 1.83-5.48 4.23-7.34 6.54-5.07 14.15-7.83 22-9.84 2.59-.66 6-1.14 6.75 2.31.65 3.13-2.68 3.44-5 4.11-6.66 2-13.5 3.56-18.95 8.66 2.87 3 6 1.55 8.7 1.39 12.93-.76 25.83-2.42 38.83-1.27 3.95.35 8.75-.3 10 4.85 1.2 4.94-3.37 6.19-6.51 8-11.72 6.8-24.34 11.67-36.75 17a30.79 30.79 0 0 0-7.84 4.43c12.12 2.74 23.87 6.2 36.18 6.8 2.76.14 5.82 0 6.3 3.53s-2.25 4.53-5.12 4.9c-23.82 3.09-47.24 8.9-71.3 10.3-1.89.11-3.77.28-5.66.31-2.94 0-5.46-1-6.37-4s.79-5.29 3.19-6.82c6.18-3.89 12.4-7.6 19.27-11.83zm-9.51 15.28c16.76-.84 32.59-3.73 49.75-6.79-18.62-7.55-35.11-9.73-49.75 6.79zM255.29 373c-13.86.82-23.34-7.82-31.12-20.7a52.53 52.53 0 0 1-3.62-8.11c-.68-1.74-3.93-3.05-1.38-5.38a4.32 4.32 0 0 1 6 .17c6 7.56 14.11 5.41 21.64 4.94 9.1-.57 17.52 2.64 26.28 3.85 5.23.72 6.41 9.61 1.73 14.68-5.21 5.61-11.57 9.71-19.53 10.55z"/><path class="cls-2" d="M424.07 181.7c3.77-3.27 7.52-6.57 11.34-9.79 1.06-.9 2.22-2.71 3.77-1.43s.36 3.09-.5 4.47c-4.31 6.93-8.7 13.81-13 20.73-1.41 2.25-2.73 4.56-4 6.88-.79 1.39-2.67 2.74-1.66 4.39s3.09 1.38 5 .93c3.91-.92 4.13.8 2.4 3.68l3.52-1.86c1.69-.88 3.88-3 5.15-.65a4.69 4.69 0 0 1-1.93 6.41c-4 2.43-7.81 5.11-9.31 9.94-.28.91-1.43 1.78-.71 2.7s1.86.26 2.8 0c15.65-4.56 31.69-2.53 47.59-2.85 1.52 0 3.81 0 3.61 2.36-.16 2-2.16 2.8-3.73 3.71-.24.14-.61 0-.92.07.06-.43 0-1 .22-1.25a29.18 29.18 0 0 1 2.06-2.16c-15.6-.54-31.24-2.36-46.7 1.63-7.8 2-9 4.95-4.41 11.51a15 15 0 0 1 2.72 5.27c.87 4.54 3.28 4.79 7.16 3.76a109 109 0 0 1 48-1.89 22.12 22.12 0 0 1 3.86 1c1.41.53 3.3 1.54 2.41 3.12-1 1.78-2.13-.48-3.16-.89a34.11 34.11 0 0 0-8.78-1.77 114.79 114.79 0 0 0-41.54 3c-4.67 1.18-5.16 2.64-2.44 6.52a14.27 14.27 0 0 0 2.05 2.17c7.73 7.16 7.94 7.3 1.72 15.57-5.56 7.4-9.38 15.68-13.41 23.89-1.56 3.18-.9 4.41 2.38 5.19 13.43 3.21 26.8 6.65 40.24 9.82 14.94 3.52 29.23 9.1 43.92 13.4 1.52.45 3.47.88 3.35 3.07-.07 1.35-1.36 1.78-2.52 2-.65.15-1.82 0-1.63-.59 1.34-4-2.17-2.78-3.66-3.36-25.1-9.67-51.54-14.56-77.37-21.62-7.33-2-7.48-1.21-10 5.84-2.28 6.43-3.64 13.52-9 18.65-3.24 3.13-3.6 6.34-2.17 11.16 2 6.59 5.33 13.36 2.89 20.81-.74 2.27 1.38 2 2.92 1.91 11.48-.8 14.34 3.42 9.48 14l-.22.45-3.77 8.09c3 .49 4.69-2.44 7.46-2.92 4.9-.86 6.84.21 7.73 5.06 1.09 5.93-.89 11.54-1.67 17.28-.15 1.11-.41 2.73.17 3.29 1 1 2-.52 2.94-1 2.62-1.44 5.12-3.11 7.76-4.51 2-1 4.18-3.13 6.35-1.27 1.87 1.6.7 4.13 0 6.09-1.62 4.37-3.41 8.68-5.32 12.93-1.82 4-1.76 7.16.12 11.86 3.9 9.74 12.41 15.35 17.76 23.59 1.61 2.49 3.51 4.75 5 7.4 9.84 18 16.3 37.44 24.8 56 3.37 7.37 4.83 15.53 8.14 23a18.38 18.38 0 0 0 5.07 7.18l-2 .15c4.22 9.5 11.09 17.19 17.29 25.34 1.5 2 3.34 3.7 4.12 6.15-6.93-5.29-11.2-12.9-16.81-19.34-.65-.74-1.27-1.52-1.9-2.28l-1.15-1.94-1.14-1.92-.27-.35.29.33 1.16 1.91 1.14 1.94c1.44 6 4.6 11 8.2 15.86 5.88 7.88 11.55 15.87 16 24.65.86 1.68 1.79 3.45 1.31 5.22-1.33 4.84 1 8.4 3.71 11.84 9.81 12.43 20.27 24.33 32.47 34.42 9.94 8.23 21.69 13.54 33.81 17.89 5.48 2 10.16 4.23 10.43 11.22.14 3.52 1.11 6.85 4.44 9.47 3.63 2.86 3.36 8.2 5.64 12.08l.53 7c-2-1.48-2.79-2-5 .92-5.79 7.75-7.72 16.67-10.22 25.56-2.28 8.13-9.55 13.16-20.6 13.33-8.43.13-16.91-.84-25.32-1.72-2.82-.29-5.58-1.09-8.35-.15-3.41 1.16-5.51-1.79-8.27-2.61-15.28-4.56-30.52-9.81-45.95-13.21-11.39-2.51-18.34-10.17-27.34-15.33-5.18-3-7-9.1-10.27-13.9-9.14-13.5-18.62-26.76-27.74-40.27a241 241 0 0 1-13.24-22.3c-3.43-6.48-9.48-11.08-14.18-16.68-8-9.55-16.13-19-23.83-28.83-8.1-10.35-14.69-21.83-23.83-31.4-3-3.1-5.23-6.89-7.66-10.46-2.57-3.79-4.58-4.11-7-.25-2.24 3.53-5.29 5.92-8.62 8.15-.5.33-1.19.87-1.63 0-.12-.25.31-.9.63-1.22a13.51 13.51 0 0 1 1.63-1.15c2-1.45 5.41-3.8 4.57-5.24-1.1-1.88-4.76-2.25-7.54-1.84-6.39.94-12.13 3.14-16.63 8.15-3.9 4.34-8.21 8.17-14 10-4.08 1.29-6.84 4.65-9.57 7.81-5.77 6.67-11.58 13.12-19.31 17.89-5.92 3.66-9.39 10.26-14 15.47-2.06 2.3.09 2.67 1.7 3.2.75.25 1.85.29 1.72 1.36 0 .25-1.5.62-2.19.45-4.32-1.09-7.83.63-11.19 3-.64.45-1.92.7-1.6 1.61s1.44.35 2.21.2 1.59-.51 2.41-.66c.54-.1 1.34-.53 1.51.43 0 .2-.7.61-1.14.79-.61.25-1.3.32-1.91.58-1.12.48-3.45-.17-3.16 1.42.26 1.4 2.27.25 3.51.16.44 0 1.27.08 1.29.22.12.86-.66 1.06-1.25 1.13-2 .26-4 .41-6 .61l-1.94 1.17-.44-.11.46.07c-5 1.83-9.94 3.64-14.88 5.52-.74.28-1.92.88-1.92 1.33 0 1.28 1.39 1 2.26 1.37 2.31.86 4.61 0 6.91.06 1 0 2.34-.44 3.17.75-.95.19-1.89.43-2.85.57-4.32.65-8.79-.81-12.81-.27-6.68.89-13.47 1.67-20.09 3.46-9.28 2.51-18.76 4.26-28.16 6.32a8.15 8.15 0 0 1-2 .15c-1 0-2.42.17-2.6-.86-.24-1.33 1.35-1.11 2.17-1.31 4.2-1 8.42-1.86 12.64-2.77a16.81 16.81 0 0 0 2.9-.68c1.34-.56 2.59-1.32 3.87-2-1.36-.9-2.79-.12-4.18-.14-4.31-.08-8.63-.09-12.94-.14-1.16 0-2.77.12-2.94-1.21-.25-1.89 1.64-1.64 2.85-2 1.74.8 3.56.48 5.35.28.51-.06.52-.43.07-.43-1.64 0-3.29.07-4.93.11h-.49c-12-2-23.53-5.81-35.53-7.7-5.15-.81-9.63-3-12.79-7.79-3.87-5.86-10-9.71-14.81-14.75-6-6.23-12.43-12-18.73-18-1.76-1.65-3.19-4-6.19-3.66a2 2 0 0 1-1.66-.87c-2.28-5.68-7-9.5-10.49-14.27a69.16 69.16 0 0 0-5.02-6.73c-1.82-2-4.62-3.41-.5-6.34 2.06-1.46 0-4.71-.08-7.14-.27-11.79 1.07-23.67-1.1-35.35-1.78-9.63-1.44-19.13-.37-28.75a12.48 12.48 0 0 1 2.89-7.17c4.33-5.1 7.72-10.62 9.38-17.34 1.51-6.08 4.4-11.81 6.32-17.81a32.38 32.38 0 0 0 1.46-14.29c-.47-3.56.92-6.9 2.06-10.17 1.57-4.51 3.35-9 5.3-13.31 1.3-2.9 1.3-5.08-1.87-6.56a8.45 8.45 0 0 1-1.68-1.07c-1.78-1.42-4.45-2.44-4.15-5.17.33-3 3.33-2.75 5.43-3.52 1.08-.39 2.12-.88 3.17-1.32-.64-1.47-2.18-1.31-3.33-1.74-4.05-1.51-8.17-2.85-12.25-4.29-1.07-.38-2.5-.73-2.29-2.19s1.72-1.32 2.83-1.46c7.47-1 15-.13 22.42.1 3.38.1 5.64-.83 7.41-3.78 3.41-5.69 6.7-11.45 12-15.77 2.8-2.26.36-4-1.5-5.51 1.62-1.37 2.74.22 4.06.67.13.3.19.68.41.88s.59.1.36-.29-.52-.38-.79-.56c-4.1-6.1-4.1-6.1-10.26-3-1 .49-2.14 1.61-3 .2a4.08 4.08 0 0 1 .24-4.71 12.54 12.54 0 0 0 2.43-6.24c.68-4-1.32-3.6-3.64-3.08-13.28 3-26.75 5.05-40 8.45-11.58 3-23.16 5.9-34.45 9.88a20 20 0 0 1-4.43.53c7.58-4.36 16.05-6.41 24.33-8.63 17.83-4.78 35.83-9 54-12.38 1.34-.25 3.76 0 3.22-2s-2.42-4-4.94-2.85c-4.18 1.89-5.1 0-3.87-3.38 3.74-10.4-.09-20.36-1.41-30.46-.39-3-3-2.87-5-3-15.79-.93-31.59-.49-47.38-.05-17.45.43-34 5.09-49.66 12.89 6.75-6.3 15.11-9.5 23.79-11.82 13.6-3.63 27.58-3.65 41.53-3.87 10.31-.17 20.6-.25 30.89.4 3.89.25 5-1.31 4.24-5-.71-3.38-1-6.84-1.53-10.27-.2-4.77.36-9.74-3.93-13.34a1.85 1.85 0 0 1-.21-2.72c4.39-3.85.31-4.85-2.11-6.06C79.24 247.35 65.13 241 49.81 238c-8.85-1.77-17.53-2.23-25 4.2a3.43 3.43 0 0 1-1.26.38 4.85 4.85 0 0 1 .59-1.72A17.11 17.11 0 0 1 35.32 235c11.82-1.29 22.69 2.58 33.57 6.18 8.07 2.67 15.61 6.61 23.24 10.35 4.68 2.3 5.18 1.87 4.88-3.15-.24-4.15-.71-8.3-.84-12.45-.12-3.88-.77-7.26-4.9-8.95-.79-.32-2-1.72-1.78-2.14 2.18-5.3-2.55-5.7-5.21-7.06a70.15 70.15 0 0 0-12.47-5c-4.6-1.31-9.55-2.62-13 2.58-.21.32-.77.4-1.17.59a3.43 3.43 0 0 1-.06-1.35c1-2.47 2.7-4.28 5.42-4.62 1.79-.22 3.83-.5 5.42.12 9 3.49 17.3-.12 25.77-2.35 1.84-.48 2.57-1.25 2.54-3-.07-4.61.9-9.29-1.12-13.79a16.12 16.12 0 0 1-1-4.86c-.19-1.81-.35-4.4 1.75-4.53 1.3-.08-.25 2.39.14 3.76.6 2.12-.19 5.72 2.22 5.85 1.88.1 2.42-3.44 2.83-5.77.71-4 0-6.57-4.9-6.07-1.78.18-2.5-.62-1-2.37 2.5-2.93 1.13-4.61-2-5.89-2.61-1.07-5-2.55-7.56-3.83-.74-.38-1.67-.72-1.61-1.68.08-1.28 1.24-1.37 2.21-1.53a26.13 26.13 0 0 1 12.32 1.06c-5.43-5.2-9-11.91-14.14-17.37-.64-.68-1.52-1.88-.75-2.63 1.29-1.26 2 .47 2.72 1.13 2.54 2.38 4.33 5.47 7.19 7.59 1.75 1.29 2.6 1.6 3.28-1 2-7.58 5.93-15.09 0-22.66 1.25-.73 1.18-1.74.61-2.85a.64.64 0 0 0-.34-.22c-.85 1-.12 2.06-.24 3.09-1.44-1.88-1.28-4.05-1.15-6.23.32-5-.14-9.89-3.08-14.22a3.17 3.17 0 0 1-.4-1.43C90 81.13 81.2 54.94 79.44 27.62c-.26-4-.18-8-.33-12a9.7 9.7 0 0 0-.6-3.38c-1.3-3-5.5-6.1.56-8.77.53-.23.29-2.19.41-3.35l2-.15c.88 4.34 2.51 8 7.68 8.47 2.23 3 5.76 2.83 8.83 3.92 6 2.14 13 3.67 17.8 7 7.58 5.2 16.57 9.12 22 17.27 7.49 11.28 17.12 20.59 27.68 28.91a188.25 188.25 0 0 0 22.86 15c3.48 2 7.69 4.06 8.23 9.06l-.28.26.3-.25c6.08 0 9.73-4.61 14.21-7.59 4.8-3.2 8.85-7.54 14.41-9.6a14.9 14.9 0 0 1 2.86-.89c1.54-.24 3.92-1.44 4.36.39.35 1.43-2.36.88-3.64 1.38-.88.34-2.6.24-2.29 1.29s1.71-.15 2.64-.23c9.83-.78 19.59.33 29.22 1.86 10.85 1.71 21.74 2.85 32.62 4.22 2.49.31 3.57-1.85 6-1.72 7.76.42 13.32-3.24 16.27-10.47 2.23-5.47 8.84-5.89 11.76-10.53a1.11 1.11 0 0 1 1.74-.17c.3.42.17 1.21.11 1.82-.44 4.81-3.6 8.51-5.24 12.85-2.29 6.06.28 9.83 6.83 8.89 3.54-.51 5 .38 5.44 3.71a3 3 0 0 0 1.38 2.53c3.88 1.9 4.58 5.27 4.54 9.14 0 3.36 1.78 4.59 4.89 3.36 13.13-5.19 25.23-11.94 34.43-23-2.14-.23-4 1.55-6.24.8 1.28-2.08 3.7-2 5.6-2.71 7.38-2.82 13.9-7.16 20.51-11.31 10.74-6.75 23-10.4 33.8-17.08 2.13-1.32 4.44-2.37 5.68-4.7.92-1.71 2.57-2 4.2-2.3a3.07 3.07 0 0 1 3.05 1.35c3 3.84 10.08 5.17 7.72 12.37-.19.59 0 1.56-.94 1.4-.39-.07-.69-1-.93-1.53-.68-1.64.6-4.63-1.83-4.69-1 0-2.16 3.56-1.85 5.77 2 13.69-2.39 26.56-4.32 39.82-1.46 10-5.56 18.45-8.81 27.59-4.92 13.81-9.09 28.16-9.94 42.91-.33 5.68-2.06 11.44-.69 17.21zm59 543.05zM389.4 81zm98.4 639.36l1.08.93c4.23 3.47 8.55 7.66 14.16 7.54 6.66-.15 11.57 3.07 16.2 6.61a55.75 55.75 0 0 0 24 10.31c3 .57 4.62-.65 5.75-3.39s1.58-5.84 4.09-7.85c-.59 2-1.09 4.1-1.78 6.09-1.89 5.38-.1 7.7 5.55 6.86a20.55 20.55 0 0 0 4.11-1.53c7.57 2 15.19 3.57 23 1.7 1.42-.34 4.52-.49 2.48-3.31-3.74-5.19-4.75-11.18-5.85-17.21-.14-.76.07-1.91-1-2s-1 1.1-1.39 1.79c-2.21 4.05-3.79 8.53-7.83 11.31 1.78-4.85 5.42-8.7 7.12-13.65.82-2.39 1.18-5.19 3.43-6.94 1.4 2.5 1.27 5.31 1.49 8 .46 5.7 1.47 11.24 4.41 16.22 1 1.64 2 3.6 4.54 3.25 7.25-1 11.11-9.37 7.41-16.08 1.78-2.42.39-3.92-1.53-5.29-3.37-2.39-7.06-4.45-10-7.3-2.67-2.6-7-5.63-4.45-10A60 60 0 0 1 595 692.24c-.17 2.17-1.72 3.54-3 5.06-2 2.43-4.11 4.81-6 7.31-.91 1.17-1.76 2.61-.7 4.11a3.58 3.58 0 0 0 3.55 1.39c5.82-.79 11.5-1.94 16-6.16a12.58 12.58 0 0 1 2.3-1.88 1.42 1.42 0 0 1 2.09.7c.56 1.46-.9.77-1.36 1.16a31 31 0 0 1-16.41 7.63c-.78.1-1.67.33-1.46 1.53.35 2 10.6 8.42 12.35 7.26 3.26-2.16 4.61-6.78 9.63-7 1 0-.63-15.8-2.26-16.63-4.29-2.21-7.34-6.88-12.88-6.64-2-.87-3.5.32-5 1.27-2.09 1.33-4.14 2.68-6.76 2.63 2.19-2.35 5.12-3.53 7.89-5 .83-.44 2.14-1.77 1.12-2-2.65-.63-4.53-4.43-8.2-1.58-3.22 2.5-6 5.75-9.92 7.25 1.32-2.87 4-4.37 6.23-6.35.92-.82 2.92-1.26 2.24-2.79-.43-1-2.15-.25-3.26 0-12.5 3.25-25.35 3.55-38.12 4.51a10.71 10.71 0 0 1-2.29-.32 12.87 12.87 0 0 1 2.33-.6c12.62-.86 25.24-1.76 37.57-4.86 1-.26 2.77.29 2.92-1.2s-1.47-2.11-2.68-2.54c-3.29-1.18-6.67-2.12-9.94-3.34-3.71-1.39-6.89-3.16-6.5-8.11.17-2.08-.7-4.25-1.17-6.36-1.49-6.67-3.66-8.71-10.55-9.17A20.45 20.45 0 0 1 542 647.8c-5.95-4.2-9.36-10.3-12-16.84-4.54-11.25-7.8-22.92-13.12-33.94-13-26.94-25.39-54.2-36.78-81.88-2.23-5.43-3-5.52-6.5-1.27-.52.63-1 1.74-1.85 1.35-1.37-.64-.45-1.85.1-2.44 4.26-4.53 2.79-9 .16-13.61a36.54 36.54 0 0 1-3.51-8.25c-1.41-5.15-4.8-5.59-9.24-4.81-14.93 2.61-29.72 5.78-44.11 10.66-1.46.5-3.33 2.26-4.43.36s1.43-2.62 2.48-3.75a7.57 7.57 0 0 1 2.17-1.16c-1.81 3.88.42 2.43 2.27 1.77a186.38 186.38 0 0 1 43.05-10.37c5.66-.61 6.27-1.41 3.47-6.28-4.49-7.78-9.24-15.41-13.83-23.14-1.27-2.13-2.72-2.41-5-1.51-4 1.59-5.27.61-4.74-3.47.56-4.34 3.49-9.39-3.6-11.3-.19-.05-.37-.57-.37-.87 0-3.51-2.7-5.62-4.42-8.18a125.11 125.11 0 0 1-14.48-27.8c-.78-2.2-.61-5.37-4.6-4.13-1 .3-1.39-.65-1.27-1.61 1-7.76-4.3-13.71-5.95-20.71a2.69 2.69 0 0 0-2.36-2.32c-6.22-.14-4.71-4-3.81-7.65.5-2 2.27-4.29.54-6.13-1.88-2-2-4-1.68-6.39.13-.93.28-2.18-.92-2.55-.92-.28-1.42.66-1.86 1.35-1.15 1.8-1.82 3.16-4.9 2.19s-5.45 2.34-7.12 4.6c-1.36 1.84 1.78 2.66 2.67 4.11a14.49 14.49 0 0 0 2.86 2.74 44.32 44.32 0 0 1 3.69 3.33c1 1.16 1 2.62-.58 3.26a15.83 15.83 0 0 1-3.89.51c.39-1.43 1.81-.58 2.6-1.18 1-.72.5-1.32 0-2.06-3.05-4.61-7.61-6-12.52-3.43-2.49 1.29-5 2.69-6.63 5.15-1.56 1.27-4.58 2.84-1.86 4.7 2.48 1.69.72 1.28-.14 2.2-2.77 3-7.27 4.79-6.82 10 .08 1-.12 2.18-1.36 2.31-1.46.15-2-1-2.17-2.24a17.87 17.87 0 0 1 0-2.49c0-1.34 0-2.76-1.52-3.37s-1.95.65-2.48 1.69a1.77 1.77 0 0 1-2.9.7 14.39 14.39 0 0 1-2.34-2.49.92.92 0 0 1 .16-.88c1.1-.62 1.18.94 1.94 1s.5-.55.52-1c.17-4.43-2.24-6.85-6.72-6.68-2.65.1-5.3.35-8 .36-3.94 0-6.79 1.42-10 4.09-6.12 5-12.69 11.42-22 5.75-.6-.37-1.86.36-2.81.56-5.78 1.2-8.51 8.17-15.12 8-.63 0-1.32 1.76-2 2.72-2.51 3.82-7.41 5.87-10.5 5.13-4.44-1.07-7.65.13-11.35 1.38a29.44 29.44 0 0 1-18.2.68 103.09 103.09 0 0 1-23.87-10.76c-5.81-3.59-11.21-7.71-17.79-9.94-.46-.16-.83-.6-1.29-.75-5.13-1.66-8.26-6.8-13.73-7.86-.52 2.55 3.9 5.88.93 6.9-3.36 1.16-6-2.64-7.23-6.08s-4-5.63-7.07-7.37c-8.34-4.68-17.19-1.66-25.84-1.65-1.24 0-2.25.89-2.81 2.41-1.08 3-3 2.84-5.48 1.22-3-1.93-5.39-5.1-9.43-5.14-.38-.83-.71-.85-1 .07l-.94 1.09c-.84 1.5-.12 2.88.29 4.32 1.85 6.58.8 8.38-5.71 10.82a44.2 44.2 0 0 1-12.23 2.28c-2.3.18-4.12.86-5.19 3.18a92 92 0 0 0-5.58 14.42c-.46 1.7-.78 3.2 1 4.39 1.55 1 4.53 1.22 3.87 3.79s-3.59 1.88-5.57 2.54c-.63.21-1.29.35-1.92.56-1.36.47-3.23.33-3.58 2.19s1.36 2.49 2.45 3.45c.62.55 1.32 1 2 1.51 4.15 3.1 4.15 4.11 0 7.35-.79.61-1.61 1.18-2.41 1.78-7.34 5.47-7.34 5.47-.93 11.64l.37.34c5 4.89 5 6.42-1.4 9.06s-12.13 4.59-12.84 13c-.44 5.21-2.61 10.27-1.45 15.66 1.11 5.16 2.34 10.32-4.08 13.19a2.73 2.73 0 0 0-1.49 1.89c.11 4.45-2.11 3.54-4.61 2.14-2.34-1.31-2.87-.62-2.45 1.9 2.54 15.43 1.07 31.21 3.9 46.63a3.38 3.38 0 0 1 0 1.49c-2 6.92.82 12.69 4.27 18.33.39.64.32 1.68 1.42 1.76a11.9 11.9 0 0 0-.16-1.91c-.76-3.09.44-6.32-.71-9.41-.27-.73-.16-1.84 1-1.82.45 0 1.33.87 1.27 1.21-1 5.71 5 10.51 2.11 16.49-.44.91.36 2.06 1.3 2.46 9.62 4.17 13.32 14.12 20.36 20.8a22.24 22.24 0 0 1 5.08 6.75 46 46 0 0 0 19.8 21.67l-2 .18c2.52 5.34 7.43 6.85 12.63 7.68a83.87 83.87 0 0 1 8.77 1.81c13.34 3.62 26.74 6.84 40.76 4.65 9.18-1.43 18.5-2.29 27.51-4.43 5.36-1.27 11.81-1 15.81-5.31 4.73-5.15 10.66-8.9 15.14-14.27 8.36-10 19-17.6 28.71-26.16.61-.54 1.24-1.26 2.13-.86.29.13.45.82.47 1.26 0 1.16-2.22 2.39-.46 3.26 1.28.63 2.71-1 3.84-1.89 1.65-1.36 3.5-2.59 4.15-4.83l.92-1.08.93-1-.87 1.09-.93 1.08-1.92.22-.18-.15a8 8 0 0 1 4.21-5.34c4.12-2.44 6.5-6.62 10-9.61 1.37-1.16 1.77-2.16.38-3.7a126.16 126.16 0 0 1-17.6-25.34c-.27-.5-.93-.79-1.41-1.18a5.74 5.74 0 0 0-.28 1.76c.32 2 .95 3.89 1.12 5.86s.74 4.89-2.09 5.39c-2.38.42-3.11-2.2-3.79-4-2.9-7.72-3.59-15.85-4.2-24-.2-2.66-.2-5.34-1.33-7.82a114.3 114.3 0 0 1-8.11-23.53c-.47-2.2-1.82-4.24-4.06-3.25-7.11 3.14-14.3 3.24-21.7 1.65a2.59 2.59 0 0 0-1 .17 70.44 70.44 0 0 1-20.34 1.33c-12.94-1-25.37 1.46-37.56 5.55-3.83.87-7.94-.27-11.57 2.23-11.68 8.06-20.69 6-32.68.13-3.33-1.64-6.19-4.26-10.08-4.87-1-.15-2.36-.36-2-1.61.3-1.09 1.68-.58 2.65-.62 3.25-.12 7.47 3.8 9.41-2.2a3.53 3.53 0 0 1 2.27.22c3.9 2.35 8.32.66 12.41 1.69 2.21.56 2.3 0 2.79 1.61.08.25.76.5 1.14.46 6.17-.62 12.4.26 18.21-3.68 3.2-2.17 5.9-5.49 9.64-6.52 8.32-2.29 16.78-4.08 25.22-5.92a20.64 20.64 0 0 0 6.22-2.84c5.16-3.06 7.8-8.06 11-12.71.82-1.19 1.53-2.93 3.37-2.4s2.35 2.12 1.89 4c-.15.62-1.09 1.81.36 1.89 7.14.39 2.12 3.89 1.15 5.49-2 3.28-.78 4.2 2.34 4.27a17.53 17.53 0 0 0 4-.42c2.26-.48 4.49-1.1 6.73-1.67-1.58-1.71-4-1.25-5.84-2.24-.56-.3-1.61-.83-1.57-1 .38-1.1 1.32-.59 2-.43a38.6 38.6 0 0 0 15.87.22c2.15-.39 4.87-.38 5.64-3.28 1.13-4.27 1.81-2.08 2.64.12.77 2 2.27 2.09 4.08 1.4 2.64-1 5.36-1.8 8-2.9 16.41-6.9 32.5-14.47 48.37-22.54 1.56-.79 4.07-2.27 4.9-.4 1.12 2.53-2.14 2.05-3.48 2.93-.61.4-1.86.28-1.52 1.48.06.21 1.2.17 1.84.16 7.07-.17 13.51-5.15 21-2.72 1.4.46 1.1-.81.6-1.49-.68-.93-1.57-1.72-2.3-2.62s-2.15-2-1.06-3.42c.86-1.11 2.3-.57 3.24 0 7.73 4.51 15.83 8.46 22.52 14.57.68.62 1.86 1.66.65 2.39-5.42 3.28-.32 5.51 1.23 6.39 3.23 1.84 5.1 4.68 7.39 7.24 4.7 5.27 7.29 11.88 11.11 17.71 6.33 9.66 7.79 20.26 6.66 31.49a14.94 14.94 0 0 0 .57 5.91c1.25 3.89 6.76 4.63 9.75 1.47l10-.75a6.23 6.23 0 0 0 4.37.32c.5-.09.51-.45.08-.44-1.33 0-2.65.09-4 .14h-.5a14 14 0 0 0-9.94.73c-2.38-.17-4.07-1.46-3.46-3.8.56-2.12 2.88-1.31 4.34-1 6.22 1.35 12.67-.12 18.82 1.73 1.19.36 3.1 0 3.13 1.79s-1.74 1.74-3 2c-5.55 1.08-11.11 2.14-16.66 3.2-.48.09-1 .21-1.45.31a13.37 13.37 0 0 0 1.58.43c2.8.41 5.61.71 8.39 1.22 1.07.2 2.89.52 2.68 1.7-.29 1.6-1.9.51-2.91.4-4.47-.46-8.93-1-13.38-1.54-4.1-.55-7.49-.42-6.33 5.29.08.38-.3.86-.46 1.29-.18-.21-.57-.5-.52-.63 1.47-4-3-7-1.67-11.09a3.35 3.35 0 0 0-1.5-4c-1.69-.87-2.41.77-3 1.84-4.93 8.94-13.8 14.32-20 22.16-2 2.5-4.12 5.07-7.59 6.12-2.91.88-2.32 3-1 5.2 2.66 4.42 5 9 7.82 13.35 5.57 8.47 9.5 17.92 15.59 26.06 10.61 14.16 23.28 26.48 35.39 39.29 13.73 14.51 26.75 29.5 36.26 47.22l1.15 1.92 1.08.92 1.15 1.92c.78 2.41 2.44 4.27 3.83 6.32 4.82 7.08 9.52 14.24 14.26 21.36l.06.05c3.55 2 8.44 1.65 10.46 6.19zM369.91 88.52zm-6.62 18.55zM223.35 471.6l.91-1.09 1.09-1.54-.36-.17-.7 1.73zm-73.61-111.76l1.06.93zm-7.82 2.59l1.07.92zM423.8 643l-1.08-.92a26.69 26.69 0 0 0-8.73-9.35 5.89 5.89 0 0 0-3.29-3.78 9.12 9.12 0 0 0-4.36-4.67l-1.08-.93 1.09.93a9.1 9.1 0 0 0 4.36 4.68 7 7 0 0 0 3.3 3.77 32.74 32.74 0 0 0 8.72 9.36zm12.7-469.23l-.9 1.1-.92 1.07c-1.47 1.13-3.58 1.7-3.72 4 0 .27.83.88.93.81 1.7-1.15 2.31-3 2.76-4.85l.92-1.07.95-1.06zm-82.21 278.91zM402 619.55zm-7.67-8.42zM421.41 226zM363 449zm-66 122.31zm2.82-2.24l.91-1.09.93-1.07.37-.33-.35.35-.92 1.08-.94 1.07zm-213 7l1.08.93 3.12 1.78-3.15-1.75-1.08-.92-1.07-.92zm263.81-132.14l-1.07-.93-1.07-.92-1.06-.93-1-.92 1.07.89 1.08.91 1.07.91zm83.75-178.74l1 .95.64.25-.62-.28zm-33.14 12.51zm-212.66 52.15l-1.08-.93c-.23-3 1.65-1.35 2.48-1 5.83 2.76 12.44 3.57 17.84 7.48 2.83 2.05 7.65 2.83 9.22.46 2.24-3.38 4.88-3.07 7.57-3.13a39.31 39.31 0 0 0 17.25-4.14c4.06-2.07 6.11-5.31 4.18-9.82-2.17-5.08-3.42-10.37-10.62-12-6-1.35-10.85-12.52-9.94-19.64 1.13-8.85 1.88-17.54-3.24-25.56-.44-.69-1.71-1.41-.53-2.37.15-.12 1.23.84 1.82 1.36a17.13 17.13 0 0 1 1.31 1.44c.07-.43.35-1 .19-1.26-2-3.8-4-7.6-6.17-11.32-1.37-2.37-3.77 1.36-5.29-.72a30 30 0 0 1-16.97 9.3c-5.59 1-10.68 1.34-15.63-1.7l.09-.13c.42-1.48.47-1.68-1.18-2.09-8.19-2-13.26-7.63-16.23-15-2-5-2.92-10.52-4.25-15.82-.3-1.18.38-2.57-1.68-3-7.39-1.58-9.74-1.35-17.07 2.76a31.14 31.14 0 0 0-5.64 4.08 10 10 0 0 1-5.93 2.29c-.81.1-1.83.23-2.11-.79s.64-1.32 1.39-1.7A82.47 82.47 0 0 0 149.3 212a3.14 3.14 0 0 1 3.7-.7c4.5 2.2 8.44.23 12.29-1.64 2.95-1.43 6.18-3 9-1.59 4.21 2.09 8.33 1.59 12.63 1.47a32.94 32.94 0 0 1 25.95 10.9c6.64 7.59 12 17.06 13.8 27.32.74 4.17-1.68 9.48.95 13.24 4.41 6.3 2.73 13.08 3.22 19.72.07 1-.26 2-.14 3 .23 2 1.29 3.14 3.48 3.51 5.93 1 11.48 3.77 17.83 2.92 5-.67 10.45 1 14.61-3.38.55-.57 1.48-1.31 2.1-1.2 5.13.89 5.89-3 6.89-6.34 1.15-3.81 1.25-8 2.87-11.6 5.65-12.38 11-24.91 18.58-36.36a23.57 23.57 0 0 1 13.25-10c6.51-1.94 13-4.19 19.83-5a34.81 34.81 0 0 1 8.91.26c10.66 1.5 19.8 7.51 30.09 10.1a8.08 8.08 0 0 1 2.71 1.22c1.53 1.1 3.26 2.9 2.4 4.49-1.09 2-3.2.61-4.77-.27-1-.57-2-1.26-2.93-1.9-1.51-2.26-4-2.78-6.34-3.58-.56-.19-1.61-.34-1.5.51.07.58 1.13 1 1.75 1.54-4-.78-6.94.63-8.71 4.38a70.62 70.62 0 0 0-3.75 8.11c-4 12.32-13.54 19.19-25.26 22.65-9.78 2.88-19.41 0-28.68-3.66-1.47-.58-3.7-2.6-4.42.47-1.35 5.71-5.21 9.94-8.05 14.74-2.16 3.65-1.5 6.6 1 9.54 4.5 5.22 2.58 11.16-4.06 12.55a5 5 0 0 0-3.14 2.31 22.7 22.7 0 0 1-5.41 5.12c-5.67 4.37-10.5 9.67-15.25 15-4.39 4.88-2.49 10.59 3.94 12.61 3.26 1 6.62 2.29 8.74 4.61 4.83 5.28 11.13 6.43 17.48 7.05 4 .4 8.62 0 9.61-5.64.11-.64.27-1.53 1.09-1.34.4.09.6 1 .9 1.57.46.85-.74 3.82 1.3 2.28 2.45-1.85 7.26-3 5.42-8.07a2.41 2.41 0 0 1 .68-2.75c1.06-.84 1.82-.3 2.3.79.34.77.92.82 1.64.62 1.93-.53 4.86-2.62 5.57-.79s-2.93 2.45-4.69 3.55c-.82.51-2 1.06-1.48 2.22s1.78.53 2.63.19c9.25-3.72 18.06-8 21.84-18.25a6.52 6.52 0 0 1 4.85-4.5c1-.25 2.24-1.6 2.69.39a2 2 0 0 1-1.65 2.65c-1.5.21-2.88.24-3.61 2-4.83 12-15.2 17-26.36 21.14a110 110 0 0 0-18.58 9.53 9.24 9.24 0 0 1-5 1.43c-5 .18-8.71-3.09-13.08-4.56-10.86-3.64-22.38-1.53-33.35-4a8.58 8.58 0 0 0-2.46.28c-20.4 1.88-39-2.42-54.66-16.3-1.36-1.2-2.63-2.67-4.75-2.25q-18.6 3.72-37.19 7.45c-2.41.48-2.77 1.81-1.25 3.46 6.65 7.21 13 14.75 21.46 20 1.07.67 2.5 2 3.55 1.17s-.63-2-.75-3.09c-.08-.79-.08-1.59-.12-2.39 1.28.06 1.26 1.3 1.79 2 1.62 2.09 1.77 5.45 4.77 6.09a31 31 0 0 1 13 6.15c1.67 1.31 3.28 1.8 4-1.07.44-1.69 1.05-3.55 3.09-1.11-.91.46-1.74 1-1.33 2.2.07.2.6.47.71.4 1-.67.52-1.72.58-2.63 1.53.76 3.06 1.76 3.49 3.39 1 3.7 3.56 5.16 7 6.21 8.86 2.74 16.75 7.78 25.52 11 5.33 1.94 9.69 3.23 15 1.6a10.15 10.15 0 0 1 3-.26c.83 0 2.13.33 1.66 1.23-1.13 2.18-.88 3.35 1 5.17 1.28 1.21-.86 1.49-2 1.33a24.19 24.19 0 0 1-7.92-2.92c-.95-.51-2-.69-2.56.44a1.8 1.8 0 0 0 .49 1.7c2.77 1.39 5 4.12 8.42 3.93 12.25-.69 24.5.8 36.75-.31 2.22-.2 4.26-.67 4.82-2.74 1.76-6.46 6.82-7.75 12.39-8.94 6.12-1.31 12.48-2.33 16.63-8 1.57-2.15 4.16-2.81 6.7-2.78 7.32.08 13.45-2.84 19-7.22a40.88 40.88 0 0 1 9.92-5.7c10.11-4.1 20.09-9.33 31.6-5.46l1-.07.92-1.09a1.7 1.7 0 0 0 .38-.11c.08 0 .13-.16.2-.24l-.54.39-1 .06c.57-1.83 1-4.8 3.4-3.78 4.53 1.94 5.08-1.34 5.5-3.83 1-6.16 4.6-9.79 10.21-11.73 1.63-.57 3-1.13 3.89-2.79 3.85-7.38 7.71-14.76 11.71-22.05 1.54-2.8.64-4.31-2.19-4.35-9.33-.12-19.23-6.25-27.79 2.49-.4.41-1.6.75-1.75.57-.82-1 .43-1.28.89-1.79 2.8-3.13 2.81-3.93 1.13-3.79-5.17.44-10.59-1.89-15.51 1.67a53.9 53.9 0 0 1-13.7 7.11c-.75.27-1.75.83-2.18-.11s.69-1.38 1.38-1.72c2.84-1.39 5.72-2.69 8.56-4.06.87-.42 2.21-.88 2-1.91-.28-1.26-1.69-.71-2.58-.61-11.4 1.29-22.79 2.66-33.75 6.28-1 .35-2.61 1.5-2.92 0-.56-2.77-.22-5.67 2.18-7.78.94-.83 2-1.42 3.06-.33.39.39.73 1.37.52 1.73-2.83 4.73 1.22 2.38 2.39 2.16a288.14 288.14 0 0 1 34.05-4.73 10.44 10.44 0 0 0 6.52-3.17c7.52-6.86 13.4-15.23 20.82-22.22 3.54-3.33 6.29-.65 8.2.38 2.55 1.37-.48 3.54-1.54 5.23-.53.84-1.16 1.62-1.75 2.43.48-.15.94-.34 1.43-.45 1.36-.3 3-1.7 4 .09.83 1.43-.76 2.37-1.64 3.28-3.48 3.58-5.49 8.36-9.48 11.52-.74.59-1.9 1.21-1.55 2.31s1.66 1 2.58 1.08c5.45.69 11 .78 16.32 2.07 4.8 1.16 6.94-.33 8.75-4.6 4-9.42 6.77-19.64 15.5-26.33.84-.64 1.85-2.14-.28-2.48-3.77-.6-4.46-3.36-5.3-6.37-1.53-5.52-5.51-7.91-10.78-6.3-6.19 1.9-12.38 3.91-18.37 6.36C383 270.62 364.13 278 345.91 287c-14.26 7-28.47 14.12-40.28 25.06l-.13-.09c2.73-5.12 5.24-10.43 11.12-12.82a1.49 1.49 0 0 0 2-.17 4.4 4.4 0 0 0 2.84-2.22c2.54-.37 4.63-1.8 6.82-3a437 437 0 0 1 43.57-21c15.7-6.36 31-13.64 47.39-18.38 6.27-1.82 7.21-5.44 3.19-10.36a10.37 10.37 0 0 1-2.19-3.79c-.71-2.44-7.61-5.46-9.93-4.36-6.9 3.28-13.75 6.67-20.61 10-13.83 6.81-25.65 16.64-38 25.67-10.57 7.75-21.24 15.48-30.24 25.16a4.34 4.34 0 0 0-2.83 2.23l-2 .11c5.25-6.29 11.63-11.31 18-16.45 24.89-20.21 50.44-39.32 80.68-51 2.1-.81 3.72-2.16 3.51-4.31-.44-4.58 1.16-8.92-1.78-13.86-3.58-6-3.41-13.33 2.72-19 1.41-1.3 3.56-4.21 2.68-4.85-1.7-1.22-1.47 2.58-3.43 2.85-1 .14-1.6 2.07-2.92 1.06-.92-.7-.21-1.84-.11-2.81.29-2.81 1.13-5.73.63-8.4a33.69 33.69 0 0 1 1.39-17.61 160.22 160.22 0 0 0 7.24-26.43 28.18 28.18 0 0 1 2.26-7.65c7-14.33 10.42-29.8 14.88-45 1.47-5 .75-9.91.15-14.86-.07-.57.28-2.13-1.09-1.46-3.34 1.65-3-1.54-3.89-2.89-1.53-2.46-3-5.36-6.21-5-2.92.35-3 3.58-3.71 5.92l-.56 1.81a5.85 5.85 0 0 1-.55-1.77c.07-3.18-1-2.35-2.74-1-5.17 4.11-5.19 4.32-.47 8.87 4.29 4.14 7.47 8.93 8.09 15 .11 1.14.29 2.6-1.12 3-1.88.52-2.12-1.2-2.43-2.41-.5-1.93-.66-3.95-1.21-5.86-1.4-4.85-4.33-9-8.73-11-3.48-1.61-5.57 2.71-8.31 4.34-1 .59-1.82 1.46-2.78 2.12-3.1 2.15-2.93 3.36.76 4.77 8.66 3.31 14.15 9.73 16.61 18.66a11.2 11.2 0 0 1-1.39 9.59 1.7 1.7 0 0 1-2.93.29c-.61-.64-1-1.73 0-2 3.76-1.1 2.35-4 2.08-6.17-1.31-10.48-11.2-19-22.2-19.29-.32-1-3.91-2-.91-2.79 5.12-1.33 7.71-5.54 11.59-8.2.81-.56 2.44-1.29 1.47-2.6-.66-.9-1.83.12-2.65.58-9.64 5.41-19.24 10.91-28.13 17.53a10.35 10.35 0 0 0-1.54 1.82c1 .45 1.43-.48 2.11-.8 1-.47 2.06-1.78 3.07-.75 1.16 1.18-.23 2-1.07 2.75s-1.05 1.38.23 1.7c2.19.53 4.1 2.42 6.62 1.46 3.6 3.28 8.3 4.86 12.12 7.78 8 6.13 13.77 13.51 12.79 24.36-.13 1.38.12 3.56-1.92 3.4s-1.81-2.36-1.58-3.68c1-5.89.3-11.36-3.84-15.87a55.84 55.84 0 0 0-7.78-7c-5.39-4-11-7.89-17.27-1.39.28-2.36 6.85-5.17-.5-7l-1 .08c-4.34 0-6.34 3.61-9.06 6-1.21 1.07-3.19 2.75-1.61 4.53a4.5 4.5 0 0 0 5.84 1c.85-.49 1.74-.91 2.61-1.35-2.32 3.08-.22 4.36 2.22 5.59a99.13 99.13 0 0 1 21.23 13.92 19.11 19.11 0 0 1 6.64 11.94c.23 1.61 1.06 3.67-1.36 4-2 .27-2.3-1.8-2.23-3.22.35-6.69-3.63-10.62-8.41-14.36a114.66 114.66 0 0 0-13.4-8.66c-8.74-5.06-9.71-4.57-13.45 4.81-1.11 2.78-.74 3.93 2.32 4.21a24.32 24.32 0 0 1 10.91 3.2c15.18 9.45 21 24.26 23.31 41 .35 2.54-.55 5.39-3.55 5.78-3.68.48-4.58-2.75-5.32-5.46a9.49 9.49 0 0 1-.22-5.87c1.46 1.32 1.27 3.3 1.93 4.94s.72 4.25 3.06 3.83c2.68-.49 1.94-3.17 1.67-5A59 59 0 0 0 392.11 139c-5.49-6.75-12.26-11.08-21.47-10.62-2.73.14-4.5 1.26-5.52 3.49-1.11 2.42 1.13 3.51 2.45 4.91v.06c-1.45 1.63-1 3.82-1.66 5.62-1.76 4.76-1.3 7.15 3.35 8.59 4.36 1.35 6.55 4.2 8.07 8.06l-.07.07c-4.17-5.41-10.87-7.22-16-11.24-1.94-1.51-4.61-4-3.64-5.38 2.77-4.07-1-6.41-1.46-9.52-.25-1.75-.74-2.77-2.2-.63-.77 1.13-2.44 2.52-3 .9-1.09-3-3.45-6.49-1.41-9.37 1.84-2.6 2.45-5.33 3.45-8.1 1.53-4.23 3-8.69 6.74-11.47a14.79 14.79 0 0 0 5.76-9.5 120.88 120.88 0 0 1-17.93 8.53c-2.63 1-4 4.17-7.21 4.07-.82 0-2 .94-1.87-1a7 7 0 0 0-4.74-7.29c-1.86-.69-3.45-1.52-3.6-3.61-.35-4.94-3.51-7.45-7.59-9.29-.55-.25-.92-1.09-1.61-.6-.12.08.32 1.09.63 1.6.56.93 1.89 1.67.77 3-.21.24-.93.23-1.34.09-5.26-1.7-8.56-8.55-6.78-14 1-3 2.82-5.67 3.07-8.91-3.31 3.19-5.08 7.37-7.29 11.27-3.17 5.6-7.35 7.43-13.4 5.52A54.56 54.56 0 0 0 284.27 82c-15.74-1.26-31.22-4.6-47-5.82-5.44-.42-10.42 1.37-15.62 1.88-2.35.23-4.6 4-7.47 5.41-5.4 2.6-9.33 6.27-10.29 12.54-.2 1.32-.55 3.53-2.47 3.11-1.33-.29-3.44-.39-3.81-2.56-.46-2.73-2.63-3.45-4.83-4.43-3.95-1.75-8.74-3-11.38-6-4.49-5.13-10.8-7.75-15.25-12.71-.5-.56-1.73-1.27-2-1.07-1.1.79 0 1.7.23 2.57 2.62 8.2 7.4 15.72 8.15 24.49.54 6.33 1.92 12.67-3.41 18.37-1.87 2-6.29 4.81-3.4 9.34.3.47-.52 1-.86.64-2.07-2.13-4.58-1.27-7-1.34-1.55 0-2.24-1.4-2.08-2.89.17-1.65 1-2.9 2.86-2.79a6.28 6.28 0 0 1 2.28.92 2.69 2.69 0 0 0 4.08-2.18c0-2.15-1.88-.35-2.92-.47-1.3-.14-2.09-.35-2.16-2-.22-5.89-1.31-11.83 2-17.33a4.34 4.34 0 0 0 0-3.88c-2.06-5.3-2.95-10.91-4.39-16.37-.5-1.91-1-3.92-3.17-4.8-2.38-8-4.22-9.92-9-9a40.36 40.36 0 0 0-17.93 8.11c-11.25 8.91-18.93 20.39-24.79 33.26-2 4.34-2.62 8.52-.64 13.39 1.84 4.52 2.47 9.63 3.05 14.55.47 4 3.18 8.43-2.06 12-1.27.86-1 5.28-.18 7.58.94 2.52.79 3.93-1.26 5.41-2.47 1.79-3.44-1-5.13-1.6 1 3 3.76 4.45 5.93 6.41.93.84 2.49 1.66 1.67 3.16-.9 1.64-2.64 1.17-3.94.48a14.63 14.63 0 0 0-9-1.6l-.45-.12.48.07a23.51 23.51 0 0 0 7.89 4.13c8.66 2.74 12.43 10.12 16.7 17.08-4.41-2.1-6-7.51-10.73-9.2 2.09 3.77 1.46 8.13 2.57 12.13a4 4 0 0 1-1.28 4.13c-3.09 1.92-3 5-3.36 7.85-.59 4.6.19 9.79-1.72 13.71-2.58 5.32-.83 7.24 3.42 9.75 18.4 10.83 36.22 22.43 52.4 36.49 15.09 13.12 28.15 28.39 43.88 40.82 1.37 1.08 2.18 2.9 3.16 4.43.56.88.79 2-.13 2.71a2.31 2.31 0 0 1-1.82.35 2 2 0 0 1-1.52-2.29c1.26-3.76-1.79-5-3.8-6.73-5.52-4.78-11.68-9-16.62-14.27-22-23.63-47.42-42.73-75.1-59-.72-.42-1.44-.84-2.19-1.21s-1.62-1-2.29-.31c-1 1 0 1.86.65 2.5 1.59 1.5 2.34 3.2 1.68 5.38s.47 3.73 2.24 5 5.42 1.8 5 4.17c-.42 2.66-4.11 1.91-6.31 2.81-1 .41-3.27.78-2.53 1.51 3.12 3.1 2.32 8.59 7.25 10.61 7.23 3 14.16 6.64 21.32 9.79 19.37 8.53 38.49 17.53 56.26 29.16 3.75 2.46 7.66 4.75 9.81 9l-.16.16c-7.11-6.1-15.5-10.24-23.36-15.17-14.16-8.89-29.9-14.53-44.82-21.84-7.85-3.84-15.73-7.63-23.94-10.7-1.43-.54-1.95-.37-1.53 1s.87 3.56 1.87 4c3.58 1.41 2.18 3.6 1.86 6.12a63.77 63.77 0 0 0 .39 17.82c.34 2.18 1.55 3.44 3.68 3.19 3-.35 1.26-2.64 1.11-3.9-.8-6.59-3.18-12.93-3.33-19.64a13.58 13.58 0 0 1 .32-2.26 23.14 23.14 0 0 1 .73 2.27c1.33 6.17 2.83 12.32 3.87 18.54.7 4.22 2.87 5.65 7 6 21 2 42 4.43 62.06 11.73 6.47 2.35 10.7 6.78 14.88 11.65-2.18-.12-3.56-1.68-5.11-2.91a46.48 46.48 0 0 0-13.32-7.56c-19.3-6.78-39.53-8.8-59.75-10.74-3.06-.29-3.4.84-2.55 3.43a101.31 101.31 0 0 0 16.39 30.08 4.58 4.58 0 0 0 5.27 1.84c11.53-3.33 23.32-5.41 35.13-7.37 2.55-.42 3.22-1.69 1.53-3.71a22.15 22.15 0 0 1-4.06-8.49c-.33-1.19-.89-3 .64-3.57 1.86-.75 2 1.21 2.46 2.33a18.44 18.44 0 0 1 1.64 5.15c.51 4.64 3.51 6.89 8.24 6.54 4.13-.31 8.32-1.38 12.32-1.45 5.85-.1 1.68-2.12 1.21-3.53 4.46 1.84 5.84 3.39 4.35 4.33-2.58 1.64-4.79 5.72-8.84 2.19a4.66 4.66 0 0 0-3.31-.69c-2.23.3-5.68.12-6.14 2.17-.6 2.65 2.44 3.86 4.84 4.68l1.09.93 1.06.93 2.06.84-2.06-.84zm222.49-1.76zM415.89 60zm-246.8 11.62l1.1.89c.55 2.09 2.17 3.28 3.78 4.46 6 4.4 13.09 7 19.43 10.83-6.6-6.8-15.4-10.38-23.24-15.26l-1.05-.95zm-31.38-30.76l-1.1-.86c-3.41-8.15-10.38-11.9-18.14-14.67l-1.07-.93-1.07-.92 1.07.92 1.08.92c5.16 6 12.58 9.18 18.15 14.66zM98.24 22.79l1.07.93.4.11-.41-.11-1.08-.92-1.08-.92a1.71 1.71 0 0 0-.29-.25.82.82 0 0 0-.29 0l.6.25zm209.49 543.72l-1.93 1.14 1.91-1.16.92-1.08 1.93-1.13-1.9 1.16zm191.44-14.46l.26.33-.28-.32-.25-.34zm-190.76 10.38l.35-.31-.32.33zm127.35-132.94l-1.14-1.91-1.07-.93-1.15-1.92-1.13-1.93 1.16 1.9 1.14 1.92 1.08.92zM140.1 497.95l-.38-.16.4.14 2.06.85zm-40.51-98.24l.85-2.07.13-.41-.11.42-.85 2.07a1.54 1.54 0 0 0-.26.3.8.8 0 0 0 0 .31zm37.51-48l-2-.87c-1.45-5.61-6.53-8.27-10-12.26a22.52 22.52 0 0 0 9.94 12.3zM199.92 334l.44.11zm-79 3l.32.38zm148.75-35.32l1.92-1.15a8 8 0 0 0 .45-.84c0-.09-.07-.25-.12-.38l-.31 1.23-1.92 1.15zm158.9-166.41l.12-.41-.1.43-.14.43zm-81.76-33.97l.34-.28-.33.29-.33.27zm45.43-22.49l1.92-1.15a1.77 1.77 0 0 0 .35-.14.92.92 0 0 0 .18-.23l-.5.4-1.93 1.13zM402.92 74l1.91-1.17a52.28 52.28 0 0 0 6.09-3.41c4.61-3.42 10.81-4.68 13.93-10.14-1.76.33-3.57 1-5.1-.61l-.08-1 1.94-1.14 1.93-1.13-1.89 1.17-1.92 1.15c-.87.39-.81.71.07 1-3.14 4.18-8.43 5.12-12.37 8.13-2.18 1.66-3.9 3.11-2.6 6.07l-2 1.13zm14.66-5.11a1.64 1.64 0 0 0-.37.1c-.08 0-.14.15-.2.23l.55-.35.93-1.08 1.94-1.13-1.9 1.16zM583.19 669a1.44 1.44 0 0 0-2 .16c-3.87-1.57-7.45.51-11.17.9-.65.07-1.47.36-1.29 1.15a2.33 2.33 0 0 0 1.27 1.38c2.14.85 4.32 2.15 6.51 2.18a20.77 20.77 0 0 1 11.41 3.88c-.15-4.67-3.93-6.77-6.75-9.55zm-142 5.72l1.14 1.93zM424.17 648l1.17 1.91c3.58 6.75 7.24 13.43 12.47 19.1a1.76 1.76 0 0 0 .09.37c0 .09.14.14.21.21l-.34-.56c-2.59-7.39-6-14.25-12.48-19.1zM288.71 460.67l-2.92 1.22c-.32.06-.64.1-1 .19-.11 0-.18.18-.27.27l1.19-.5 2.92-1.22.35-.32zm-4-66.89c-.24.21-.57.38-.69.65-.19.42 0 .57.34.23a2.77 2.77 0 0 0 .33-.9zm173.67 69.1l.31.34-.32-.32c-.43-.49.16-1.63-1-1.64zM238.31 298l.47-1.77-.51-.07.06 1.86-.13.4zM97.06 405.92l1-1.56-.39-.21-.57 1.77zm148.59-77.37l1.29.48v-.75l-1.29.26-.9 1.09-3.82 2.3-.36.32.34-.34c1.58-.26 3.26-.34 3.83-2.29zM614.5 698.79l.58 1.66.58-.35zm-26.12-27.1c.69.69 1.29 1.54 2.45 1.29a.46.46 0 0 0 .16-.4c-.6-1.05-1.66-.78-2.6-.89zm-471-341.51l.29.37-.31-.36c-.19-.44-.36-.9-.58-1.33s-.61-1.12-.92-1.68c-.66.85 0 1.45.44 2a6.46 6.46 0 0 0 1.13 1zm300.81-119.93a5.09 5.09 0 0 0 .87 1.18 1.69 1.69 0 0 0 2.24.13c-.58-.25-1.16-.52-1.75-.76s-.89-.38-1.36-.55zM600.5 685.78c-.43 0-.76-.9-1.28-.15l1.26.18a1.66 1.66 0 0 0 1.23 2.18c.2.06.49-.19.74-.3zM291.2 387.29a9.22 9.22 0 0 0 1.41-.32c.68-.26 2-.39 1.63-1.21s-1.37.13-2 .52a7.25 7.25 0 0 0-1.07 1l-.56.4zM597.74 676a1.56 1.56 0 0 0-.3-.26.82.82 0 0 0-.31 0l.62.26a3.28 3.28 0 0 0 2.73 1.57c.11 0 .35-.52.28-.61-.76-1.03-1.94-.86-3.02-.96zm-318.27-85.29c-2.43.29-4.14 1.8-5.77 3.43a11.25 11.25 0 0 0 5.74-3.45zm-29.12 26.23a7.57 7.57 0 0 0 4.36-2.85c0-.07-.34-.57-.38-.56a8.7 8.7 0 0 0-3.94 3.44zm171.8-421c-1.83 1.14-3.38 2.52-3.91 4.72 0 .06.3.29.35.26a7.9 7.9 0 0 0 3.54-5c.24-.22.57-.4.69-.67.18-.43-.08-.58-.37-.23a2.63 2.63 0 0 0-.3.88zM282 265.65c-3.15 2-2.62 5.17-2.39 8.2a7.53 7.53 0 0 0 2.39-8.19 1.6 1.6 0 0 0 .23-.3.8.8 0 0 0 0-.3zM422 221c3-1.25 5.19-3.55 7.58-5.6l.31-.24-.29.26c-3.36.74-7.27.71-7.6 5.58zM381.66 84.64c-3.2 1.76-6.43 3.47-9.59 5.31-.9.52-2.46 1.11-1.49 2.56.68 1 1.89.45 2.64-.22 2.84-2.52 6.51-4.13 8.43-7.65zm-49.46 8.72c.23.91.08 2.08 1.49 2.16a.47.47 0 0 0 .37-.27c.16-1.41-1.13-1.37-1.89-1.85.69-7.17-.65-9.53-5.49-9.84-.82-.05-1.77-.43-2.12.55a1.46 1.46 0 0 0 1.25 1.83c4.29.66 5.03 4.29 6.39 7.42zm117.38 585.78l.38.55-.36-.56c-.45-9-9.13-13.05-12.46-20.34a1 1 0 0 0-.83-.4c-.71.28-.3.78-.05 1.13 4.6 6.43 7.8 13.82 13.32 19.62zM372.76 86.31a53.23 53.23 0 0 0 18.16-11.42l.37-.29-.33.32c-8.25.3-13 6.18-18.2 11.38zm37.16-25.85c-5.94 2.22-11.16 5.73-16.47 9.08a13.11 13.11 0 0 0-1.77 1.63c.83.89 1.84.37 2.68.18 6.67-1.49 11-6.42 15.52-10.93l.38-.3zm103.67 523.62c3.55 10.09 9.22 19.21 13.22 29.09a68.94 68.94 0 0 0 8.46 23.78c4.41 7.54 10.23 13.67 20.32 12.14-1.35-1.46-2.75-2.87-4-4.39-8.61-10.22-18.85-19.18-24.76-31.53.9-12.11-6.77-20.33-13.24-29.09zM110 603.47c-3.88-9-10.27-15.74-18.4-21-.76-.49-1.8-1.72-2.53-.88-.95 1.09.36 2.16 1.13 2.9 6.52 6.4 13.16 12.68 19.8 18.98zm372.81 117.27c9.86 10.69 22.77 15.29 36.48 18.29-5.81-3.49-10.75-8.85-18.5-8.12-1.93.18-3.72-1.2-5.41-2.29-4.17-2.62-8.38-5.25-12.57-7.88zm-210.32-129.5c-3.26 2.55-6.57 5-9.78 7.65-6.34 5.15-11.62 11.38-17.29 17.21-.55.56-1.29 1.57-.61 2.14s1.34-.51 1.88-1c1.55-1.5 2.82-3.46 4.63-4.47 9.18-5.12 14.55-13.91 21.15-21.51zm157.22-175.3l-1.07-.94c0-7.3 3-14.29 2.32-21.65-.21-2.2-.19-5-3.77-4.52-4.08.52-9.08 4.22-8.27 6.46 2.5 6.91 3.58 14.58 9.74 19.69l1.09.92c2.39 3.57 4.77 7.15 7.18 10.72 1.34 2 2.52 2 3.46-.34 2.06-5.07 4.13-10.13 6.16-15.21.35-.88 1.07-2 .1-2.73s-1.89.14-2.73.58c-4.7 2.44-8.92 5.88-14.21 7.02zm-30.78-129L391 292c-.7.45-1.58 1-2.27.4-1.09-1-.06-1.85.58-2.48 2.25-2.21 4.64-4.29 6.88-6.52 1.45-1.44 1.1-3.17 0-4.52-.95-1.13-1.77.08-2.39.75q-8 8.61-15.83 17.29c-.75.83-1.72 1.8 0 2.8 2.8 1.67 11.83-.46 13.72-3.29l.34-.26-.32.28c-2.69-1.5-.71-2.53.4-3.57 2.22-2.09 5.34-3.15 6.88-6l.38-.32zm-81.18-26a7.31 7.31 0 0 0 5.67.24c.06 0 .06-.23.1-.35l-5.31.1h-.49c1.39-1.06 3-1.19 4.69-1.42a29.57 29.57 0 0 0 12.38-4.77c4.46-3 7-7.43 9.66-11.8.64-1 1-2.45-.09-3.17-1.69-1.09-1.62 1-2.2 1.7-1.22 1.55-2.32 3.19-3.47 4.8 1.51-4.4 2.86-8.87 4.55-13.19 2.11-5.38-1.41-11.41-7.35-11.1-8.66.45-17.34.11-25.57 4.77-11.84 6.7-15 14.58-8.95 26.77.19.39 0 1 0 1.46l-.24.26c-1.26 3.83.66 5.19 4.15 5.43 4.17.33 8.31.82 12.47.24zm-115.3-39.39l2-.18c-8.14-7.27-17.75-6-27.34-4.66-9.43 1.28-15 10.62-11.95 19.79 3.47 10.3 11.47 14.87 21.44 17.23 11.62 2.74 21.63-1.32 27.71-11.57 1.09-1.84 1.55-3.71.59-5.69-2.45-5.07-3.49-11.22-10.12-13.12-.87-.25-1.54-1.22-2.3-1.85zm92.28 239.71l-.32-.38.36.34c-.17 1.11 0 2.12-1.87 2.19-8.87.35-15.65 4.6-20.71 11.78-.46.66-1.4 1 .31 1.4 3.7.85 2.2 2.29.34 3.9a17.61 17.61 0 0 1-7 3.73c-2.35.64-3 1.91-2.49 4.45a94 94 0 0 0 6 18.46c.32.77.93 4.83 2.28.3.18-.6.51-1.49 1.31-1 .36.22.48 1.24.35 1.81a16.41 16.41 0 0 0 1.43 11.64c7.15 13.69 14.11 27.52 24.14 39.45.92 1.1 1.64 3.17 3.27 2.51 1.93-.79.55-2.65.15-3.93-6.44-20.47-12.66-41-16.51-62.15-1.4-7.69-2.83-15.38-4.18-23.09-.19-1.08-.65-2.32.42-3.25a1.11 1.11 0 0 1 .86 0c.52 2.49 4.73 3.25 3.34 6.45s-.62 6.16.09 9.25c1.19 5.18 2.73 10.34 3.27 15.6 2 19.76 9.19 38.11 15.19 56.78.68 2.13 1.73 2.89 4.09 1.89 9.49-4 19.14-7.66 28.57-11.8 5.9-2.59 11.9-2.72 18-1.93 1.3.17 2.6 1 3.78 0 5.3-4.47 12.24-7.15 15.86-13.39 4.5-7.75 9.48-15.23 13.08-23.5 4.49-10.34-.72-22.25-11.65-26.95-3.33-1.43-5.32-3.62-3.57-7.52a50.64 50.64 0 0 0-10.85-14.77c-.76-.74-1.27-2.38-2.67-1.62-.93.5-.38 1.82-.35 2.78 0 .66.12 1.33.12 2 0 1.16.13 2.58-1.17 3-1.69.58-2.35-1-2.9-2.1-1.87-3.71-3.63-7.47-5.34-11.26-1-2.13-2-3.25-4.54-1.86a9.83 9.83 0 0 1-10.43-.09 3.56 3.56 0 0 0-4.18.16c-6.53 4.28-13.1 8.51-19.62 12.81-.79.52-2.06 1.77-2 1.92.76 1.13 2.06.36 3.14.58 5.15 4.83 5.15 8.46 0 13.18-.33.3-.92.75-1.19.63-.81-.35-.52-1.13-.29-1.72a15.18 15.18 0 0 1 1.11-2.22c3.3-5.57 3-6.3-3.26-7.56a29.63 29.63 0 0 0-2.94-.36c-.9-.09-2.21.68-2.49-.75-.22-1.13 1-1.58 1.79-2.12 3-2 6.1-4 9-6.17 1.09-.8 3.47-1.46 2.69-2.9-.86-1.6-3-1.44-4.91-.54-3 1.43-6.08 2.64-9.17 3.82-2.12.81-3.75.65-3.07-2.35l.34-.28-.32.3c-1.83.43-2.89 1.32-2.17 3.42.35 1 1.24 2.62.23 3.09-1.37.68-1.61-1.57-2.74-2.1zM95 94.57c-.51 3.94 2.33 7 2.72 10.6.15 1.45.11 3.74 1.54 3.89 1.62.18 1.58-2.21 2.17-3.48 8.78-18.93 20.25-35.16 41.47-41.68 2.28-.7 2.59-1.73 1.12-3.48-2.35-2.79-4.9-5.44-7-8.42s-4.71-3.21-7.82-2.1c-6.72 2.41-12.28 6.65-17.38 11.43C102.2 70.34 95.66 81 95 94.57zm-2.5-15.7a14.38 14.38 0 0 0 .17 2c.29 1.34-.42 3.53 1.38 3.69 1.16.11 1.22-2.1 1.69-3.3 6-15.33 17.13-25.72 31.53-33.06 1.27-.65 4.26-.21 3.41-2.54-.91-2.48-2.64-5.79-5.89-5.19-7.15 1.33-14.36 2.82-20.32 7.53-10.08 7.94-11.3 19.29-12 30.86zM88 55.73c.57 3.45 1.05 6.4 1.54 9.36.29 1.76.57 3.53.85 5.29 1.53-1.33 1.31-3.3 1.67-5 2.1-9.84 7.18-17.43 16.16-22.26 4.17-2.24 8.71-3.22 13.26-4.24.56-.13 1.1-.33 1.65-.5a3.8 3.8 0 0 1-.88-.36c-5.55-4.1-12.4-5.5-18.32-8.83-1.67-.94-3.33-.19-4.54 1.09A40.06 40.06 0 0 0 88 55.73zM375.11 356.6c-.18-1.54-2.44-2.42-5.13-2-12.53 2-23.82 7-34.22 14.08-1 .7-3 1.36-2.62 2.57s2.35.39 3.59.4c5.43 0 11-1.39 16.23 1 2.75 1.23 5.8 3.78 5.9-2.16a1.56 1.56 0 0 1 .93-1.09c5.33-1.68 7.73-7.2 12.57-9.55a4.46 4.46 0 0 0 2.75-3.25zm-248.57-24.21c4.13-.38 4.76-1.89 2.28-5.43-1.42-2-2.91-4-4.24-6.1A118.11 118.11 0 0 1 113.67 298c-.83-2.25-2.35-4.11-4.74-3.41-2.6.76-1 3.23-.55 4.6a176.85 176.85 0 0 0 11.15 28.68c1.31 2.59 3.3 5.13 7.01 4.52zm2.4 1.24a2 2 0 0 0-2.14 1.46c-.31 1.39 1.22 1.8 2 2.58 1.8 1.73 3.58 3.48 5.4 5.18 5.6 5.21 10.42 11.28 17.11 15.25a10.36 10.36 0 0 0 1.81.67c0-.29.18-.77.06-.85-3.09-2.09-2.43-6.4-4.85-8.64a146.05 146.05 0 0 1-13.05-13.73c-1.39-1.7-3.01-2.55-6.34-1.92zm-12.63 45.5c3.21-1.57 7.7-.68 11.32-3.12 2-1.35 3.06-3.07 2-5.51-.93-2.08-2.44-4.33-4.77-3.42-4.42 1.74-9.07 3.52-11.62 8.07-.54 1-1.52 2-.75 3.19s2.03.79 3.82.78zM360.44 128.7a21 21 0 0 1 2.07-.84c7.18-2 7.15-9.37 10.45-14.24.78-1.15-.4-2.14-1.58-2.61s-2.56-.8-3.52.66c-3.12 4.7-6.28 9.39-9.39 14.1-.46.7-.89 1.63-.13 2.26a5.83 5.83 0 0 0 2.1.67zm60.89 243.88c-.1-2.16-1.26-4.39-4.52-3.41-1.93.58-5.9-.48-5.06 3.66a117.42 117.42 0 0 0 3.47 11.93c.31 1 1.06 2.84 2.09.66 1.8-3.84 4.5-7.42 4.02-12.83zM85.28 31.85h.22l.68 5.08c.93-1.35 1.82-2.72 2.8-4a26 26 0 0 0 1.95-2.25c1.4-2.44 6.43-2.52 5.42-5.54-.76-2.27-4.56-3.52-7-5.21-.54-.38-1.13-.69-1.68-1.06-1.43-1-2.46-1.13-2.43 1.13.03 3.93.03 7.89.04 11.85zm-4.76 447.92c-.12-.44-.44-3.61-1.06-3.67-2.42-.24-1.56 2.68-2.66 4a8.75 8.75 0 0 1-2.44 2.4c-2.26 1.23-2.84 3.61-3.43 5.85a2.13 2.13 0 0 0 2.07 2.8c2.32.2 8.2-7.53 7.52-11.38zM88.23 381l-4 .3c.56 1.41 2 1.25 3.09 1.72a37 37 0 0 0 5.15 1.76 58.3 58.3 0 0 0 7.21 1.68 3.74 3.74 0 0 0 4.44-3.09c.36-2.71-2.37-1.77-3.65-1.88-4.2-.49-8.47-.42-12.24-.49zm2.2 67.12c2.32-1.49 6.06-1.49 7.42-4.18 1.08-2.12-2-3.45-3.28-5.06a7.87 7.87 0 0 0-1.47-1.34c-.64-.47-1.44-1.31-2-1.18-1 .22-.58 1.37-.55 2.14.08 2.34.17 4.6-1.44 6.65-.92 1.12-.95 2.47 1.32 2.92zm480.1 219.78c1.94-.31 5-.18 5.61-1.94s-2.53-2.42-4-3.58-3.23-2.27-4.88-3.34c-.67-.44-2.08-.88-2.06-.14a34.44 34.44 0 0 0 1.1 7.2c.54 2.11 2.39 1.9 4.23 1.8zM227 487.95v.14a18.89 18.89 0 0 0 2-.16 3.87 3.87 0 0 0 3.38-3.16c.22-1 .55-2-.43-2.72a3.68 3.68 0 0 0-4.6.42 21.16 21.16 0 0 1-8.48 3.82c-.54.13-1 .69-1.45 1.06a3.69 3.69 0 0 0 1.2.51c2.82.06 5.62.06 8.38.09zM99.83 392.8c0-2-1.24-1.76-2.06-1.33-2.67 1.37-7.28-.5-8 3.1-.39 1.93 3.52 4.4 6 4.14 2.81-.3 2.84-3.98 4.06-5.91zm1.24 28.2c-1.13-1.75-3.2-3.53-4.91-3.52-3.35 0-1.48 4-3.07 5.78-.84.95-1.8 2.53-.48 4 .09.1.3.11.45.15 1.01.28 8.03-5.19 8.01-6.41zm156.11-20.11c2.1-.42 4.2-.81 6.29-1.28a5.25 5.25 0 0 0 1.26-.68c-.35-.16-.72-.49-1-.45-6.12.75-12.14-1.68-18.26-.61-.62.11-1.66.31-1.72.62-.26 1.26 1 1.09 1.65 1.22 3.86.73 7.74 1.71 11.78 1.21zM86.88 43.33l.54 2.33c.31-.33.77-.62.91-1a44.41 44.41 0 0 1 8.58-14.56c.25-.3.23-.83.34-1.26-.3.05-.6.08-.89.16-4.26 1.16-9.68 9-9.48 14.33zm8.72 170.09c.47-3.36-1.41-3.26-3.53-2.22-2.49 1.22-5.59.36-7.79 2.43 2.34 2.17 5.57 1.39 8.25 2.48s3.18-.51 3.06-2.69zM440.66 57.51c-.42-1.24.18-3.45-1.82-2.85s-5.28 1.34-4.84 3.9c.31 1.74 3.24 4.35 4.77 4.21 2.23-.21 1.13-3.52 1.89-5.26zm-203.4 424.3a22.12 22.12 0 0 0 10.59-5.21c.44-.38 1.37-.71.81-1.4-.26-.32-1.31-.27-1.86 0q-5.25 2.19-10.43 4.58c-.5.23-1.13 1-1.06 1.44.18 1.13 1.18.78 1.95.59zm-18.11-97.38c.12 0-.79.35 0 1.37 2 2.44 4.09 4.9 7.27 5.86 1.11.34 2.22-.26 1.5-1.59-1.62-3.07-3.92-5.39-8.77-5.63zm105.9-6.43c-.09-.89-.61-1-1.08-.91-4.32.83-7.9 3.38-11.81 5.16-.23.1-.31.53-.46.8a3.65 3.65 0 0 0 1.36.18c3.67-1 7.53-1.58 10.63-4.08.5-.43.97-.85 1.36-1.15zm57.16-16.81a1.93 1.93 0 0 0-2.91-.82 55.92 55.92 0 0 0-6.17 4.06c-1.25 1-3.52 3-2.95 3.47 1.47 1.32 2.67-.92 3.87-1.74a29.2 29.2 0 0 1 6.54-3.4c.74-.3 1.63-.49 1.62-1.61zM103.89 244.7c.62-.44 2.79.06 2-1a18.24 18.24 0 0 0-5.91-4.36c-.71-.38-1 1.07-.89 1.88.22 2.94 1.91 4.05 4.8 3.48zm110.47 392.53a11.8 11.8 0 0 0-2.07 0c-5 1.25-10.12 1.77-14.91 3.73a13.07 13.07 0 0 0-1.25.67 6 6 0 0 0 1.87.17c4.67-1.12 9.32-2.3 14-3.5a19.48 19.48 0 0 0 2.36-1.07zM166.54 88.64c-.72-2.17-2.34-4-3.86-5.8 0 .44-.28 1-.11 1.31 1.08 2.21 0 5.49 3.07 6.62.66.23.85-1.14.9-2.13zm112.18 454.25c-.61-1.57.41-3.9-1.56-4.83-.93-.44-1.14 1-.84 1.74.78 1.92.12 4.47 2.12 5.72.36.22.14-1.65.28-2.63zm59.87-97.24c1.28 2.29 3.62.67 5.37 1.3.31.11.79-.27 1.19-.43-1.46-1.58-3.54-1.57-5.41-2-.74-.19-1.26.17-1.15 1.13zm107.85 2.76c-.39-.93-.88-2.12-1.94-2s-1.08 1.5-1.21 2.46.17 1.72 1.3 1.54a1.93 1.93 0 0 0 1.85-2.01zM319 453.23c2-.45 3.66-1.1 4.65-2.76.34-.57-.3-1-.81-.72-1.73.81-3.81 1.09-4.89 3zm85-85.93c-.53-.46.19-2.19-1.29-1.94-.93.16-1.1 1.52-1.13 2.5s.47 1.63 1.48 1.5 1.04-.99.89-2.06zm-194.17 12.48c-1.49-.69-3.08-1.48-4.71-2.14-.55-.22-1 .27-.61.78a7.57 7.57 0 0 0 4.69 2.3c.48.09.95-.05.63-.94zm-52.17-21.54c-.74-.07-.92.33-.78.89a2.08 2.08 0 0 0 2.53 1.79c.36-.06 1-.67.93-.81-.48-1.21-1.72-1.4-2.68-1.87zm198.85 100.1c-.17-.8-.19-1.76-1.15-1.91s-1.08.57-.75 1.24.73 1.74 1.3 1.89c1.09.3.39-.8.6-1.22zm2.72-80.66a11.35 11.35 0 0 0-2.11-.66c-.22 0-.82.73-.75 1 .29 1 1.2 1 2.05 1 .58-.1.96-.36.82-1.34zM615 706.81c-.35-.75-.56-2-1.05-2.09-1-.27-.68.8-.61 1.32.1.78.15 1.68 1.1 2a10 10 0 0 0 .56-1.23zM591.22 678a5.81 5.81 0 0 0 0-1.65c-.15-.58-.6-1.21-1.32-.74-.23.15-.19.86-.1 1.28s.2 1.31 1.42 1.11zm8.9 68.15c.52-.64 1.16-1.36 1.7-2.16.25-.37.19-1.18-.39-.85a7.55 7.55 0 0 0-1.94 2.12c-.29.4-.37.91.63.92zM341 449.46v-.47a13.73 13.73 0 0 0-1.74-.23 15.21 15.21 0 0 0-1.81.18c.39.23.76.63 1.16.66a15.35 15.35 0 0 0 2.39-.14zM100.1 235.21c.3-.78.63-1.23.57-1.62s-.53-.66-.82-1c-.19.41-.53.82-.53 1.22s.39.74.78 1.4zm152 84.12a9.11 9.11 0 0 0-2-.92.63.63 0 0 0-.63 1 1.56 1.56 0 0 0 1.09.75c.38-.02.79-.42 1.57-.83zm-146.15-129.5l-.55-1.88a13 13 0 0 0-.4 2.05c0 .55-.25 1.27.55 1.58zm-11.08 35.86a4.66 4.66 0 0 0-.09-1.05 6 6 0 0 0-1.22 0c0 .29 0 .76.1.83a4.15 4.15 0 0 0 1.21.22zm502.39 453.59c-.36.21-.81.38-.8.48a6.51 6.51 0 0 0 .42 1.24c.24-.14.68-.29.68-.43a5.59 5.59 0 0 0-.3-1.29zM102.88 406.4a5 5 0 0 0-1.25-.36c-.16 0-.33.41-.49.64a5.17 5.17 0 0 0 1.14.48c.12.02.33-.4.6-.76zm87-149.28a7.81 7.81 0 0 0-1.67-.92 4.93 4.93 0 0 0-1.39.12 5.47 5.47 0 0 0 1.18.68 10.28 10.28 0 0 0 1.91.12zM419 233.46c-.24.18-.59.33-.69.57s.21.47.34.71c.24-.18.6-.32.7-.56s-.19-.48-.35-.72zM275.91 533a12.55 12.55 0 0 0-.14-1.59c0-.19-.31-.34-.47-.51a10 10 0 0 0 0 1.41c.05.17.32.33.61.69zM116 347l-.42-.76c-.23.16-.58.27-.67.49-.19.42-.21.95.48.87.26-.04.45-.42.61-.6zm61.08-132.92a3.52 3.52 0 0 0-1-.26 9.8 9.8 0 0 0-1.3.29 2.49 2.49 0 0 0 .77.23 12.51 12.51 0 0 0 1.56-.28zm183.08 237.79c-.19-.22-.35-.57-.58-.63-.65-.17-.77.26-.56.74a1 1 0 0 0 .69.47c.11.02.29-.37.45-.58zm-82.53-53.51c-.12-.24-.19-.62-.35-.66a2.16 2.16 0 0 0-.86.15c.12.23.19.59.36.65s.57-.08.86-.14zm129.9-259.16l-.54-.35a1.27 1.27 0 0 0 0 .48 6.61 6.61 0 0 0 .4.78c.03-.3.09-.6.14-.9zm-313.4 80.64a3.46 3.46 0 0 0-.31-.66c0-.06-.39 0-.39 0a4.82 4.82 0 0 0-.05.72zM186 637.23l-.41.22a7.28 7.28 0 0 0 .91.09c.14 0 .28-.13.42-.21zm-84.69-383.66c-.15.25-.41.5-.38.7s.32.47.49.7c.16-.22.46-.46.43-.64s-.33-.48-.54-.76zm.4 12.5c-.14 0-.41.09-.41.14a5.76 5.76 0 0 0 .11.82c.14 0 .41-.1.41-.15a5 5 0 0 0-.11-.81zm21.75 95l-.46.72c.23.09.53.3.66.23s.34-.45.5-.69zm271.65-20.94a3.58 3.58 0 0 0 .55-.64s-.3-.29-.46-.44a4.25 4.25 0 0 0-.56.66s.3.29.47.4zm-34.45-196.3a5.5 5.5 0 0 0 0-.76c0-.06-.2-.1-.31-.15a5.36 5.36 0 0 0-.06.74c.05.04.24.09.37.15zM604.6 685.08c.14 0 .35-.07.39-.15a.53.53 0 0 0-.07-.46c-.34-.35-.58-.25-.59.22 0 .13.18.31.27.39zM272.71 468.42h-.82a1.12 1.12 0 0 0 .39.18 1.23 1.23 0 0 0 .43-.18zm321 212.09l.39-.17-.32-.72a2.39 2.39 0 0 0-.34.16c.11.22.21.49.31.73zM409.62 522.88l-.32.26c.12.06.29.21.36.17a1.91 1.91 0 0 0 .4-.4zm-81.84-73.42c.13 0 .27.15.39.13s.25-.15.37-.23a3.66 3.66 0 0 0-.57-.25s-.12.23-.19.35zm-81.14 33.85a1.62 1.62 0 0 0-.4 0c-.46.09-.48.24 0 .37a.56.56 0 0 0 .39-.07c.02-.05 0-.2.01-.3zM165.5 112.56h.42l-.1-.69-.57.43zm-66.7 6.78h.31a.69.69 0 0 0 0-.42c-.17-.45-.33-.43-.41 0a1.11 1.11 0 0 0 .1.43zm162.49 181.1v-.41a1.61 1.61 0 0 0-.33.4c0 .08.11.23.17.34zm139.46 55.22v-.35c0-.09-.2 0-.31 0s0 .26 0 .35.2 0 .31 0zm-273.24 3.05h.38l-.12-.34zm177.8-276.9c.1-.05.26-.09.3-.17s-.07-.2-.11-.31c-.1.06-.26.09-.3.17s.07.2.11.31zm258.28 667.55l.32-.1-.25-.14zM261.77 295.54l-.16.33h.27zM155.38 494.39l.15-.23h-.33zM333.94 218l.07.2.23-.14zM159 123.63h-.37l.18.32zM391.1 508.4l-.14.3h.25zm22.47-380.54l-.21-.14v.3z"/><path class="cls-2" d="M305.79 646.85c1.41 2 1 3.06-1.55 3a43.65 43.65 0 0 1-18.67-4.72c-1-.48-2.4-1-2.15-2.41s1.76-1.25 2.87-1.38a38.6 38.6 0 0 1 4-.3c1 0 1.84.16.54 1.26-.64.54-3.06.87-1 2.07 1.74 1 4.53 3.37 6.1.71 1.71-2.9 3.66-2.36 5.87-1.88 5.35 1.17 10.68 2.47 16 3.72l2.05.87-2.1-.82c-5-4-10.85-6.38-16.19-9.71-.94-.58-2.52-1.07-2.06-2.42.59-1.72 2.28-1 3.44-.63 7.41 2.41 14.78 5 22.41 6.65.78.17 1.58.26 2.37.38-.14-1.24-1.33-1.21-2.09-1.67-6.12-3.65-12.32-7.18-18.39-10.93-1.84-1.13-5-2.25-3.8-5 1.11-2.51 3.92-.82 5.81-.23 7.91 2.48 15.76 5.17 23.63 7.8a14.52 14.52 0 0 0 5.82 1.12l2.09.8-2-.89c-7-5-14.05-10-21-15.14-3.07-2.27-6-4.77-8.88-7.25-1-.82-2.43-1.82-1.56-3.27 1-1.67 2.69-.88 4-.28a155.77 155.77 0 0 0 18.09 7.11c3 .93 6 2.11 9.25 1.5.56-.11 1.62 0 1.73.31.36 1-.49 1.62-1.26 1.76a13.18 13.18 0 0 1-3.92.19c-5.67-.68-10.91-2.83-16.12-5-2-.84-3.87-1.95-6.12-2l-1-.94 1.09.89c8.26 7.27 17.36 13.35 26.61 19.25 2 1.25 3.95 2.47 5.88 3.76.95.64 2.18 1.34 1.64 2.73s-2 1.17-3 .89c-4.49-1.18-9-2.4-13.39-3.83-7.11-2.31-14.16-4.8-21.24-7.18a7 7 0 0 0-1.83-.11 6.69 6.69 0 0 0 1.29 1.38c6.88 4 13.79 8 20.66 12.07 1.37.81 3.61 1.4 3.12 3.37-.6 2.4-3 1.77-4.66 1.38-5.65-1.35-11.23-3-16.84-4.47l-.45-.09.47.07c4.82 3.83 10.39 6.46 15.56 9.72 1 .65 2.82 1.24 1.82 2.89-.72 1.18-2.11.32-3.19 0-6.53-1.82-12.79-4.63-19.65-5.16a6.67 6.67 0 0 0-1.23-.72c-.68-.23-1.77-1.06-2-.22s1.13.73 1.85.86a9.07 9.07 0 0 0 1.28.14zm80.5 17.03c-3.63-1.57-7.28-3.11-10.89-4.71-1.24-.55-4-1.39-2.83-2.33 1.77-1.42 2.1-5.6 5.64-4.15 4.88 2 9.52 4.48 12 9.56 1.33 2.71-.65 3.6-2.61 4.25-4.28 1.42-8.5.47-12.75-.42-1.4-.29-4-1.83-3.31 1.9-2.13-1.64-6.42-3.23-5.28-5.47 1.27-2.49 4.88.38 7.48.9 4.16.83 8.28 2.29 12.52.42l.85-.88-.72-.38zm-6.61-7.56l.45.13-.47-.1-.45-.14zm-14.02-53.09c-7.07-5.52-14.14-11-21.18-16.59-.7-.55-1.92-1.27-.95-2.37.62-.7 1.55-.1 2.22.38 7.43 5.34 14.49 11.08 19.87 18.62zM31.17 356.73c-1.84 2.77-5.07 2.78-7.75 3.86a3.33 3.33 0 0 1-.36-.6c2.49-1.63 5.06-3.1 8.14-3.23zM.34 306.92l-.34.36.38-.28zM120.2 354l-.84 2.08.85-2.07zm-20.89-77.62zm266.31 326.88zm5.92 64.74zM119.36 356.1zM90 6.38l.08-.46-.08.43zm-.85 2.09L90 6.38l-.84 2.09zM524.88 587.2l-1.15-1.92 1.14 1.93zm-20.58-33.53l1 .94-1.09-.9zm1.05.94zm19.5 32.63zm-329.66-37.32c1.32 11.08 3.26 22.08 3.81 33.23a14.92 14.92 0 0 0 .43 2.21 9.86 9.86 0 0 0 .74-2.29 393.23 393.23 0 0 1 6-45.49 76.24 76.24 0 0 1 4-13.35c1.68-4.36 5.47-4.82 9.07-5.86 1.16-.33 1.38.48 1.58 1.33.92 3.88 1.88 7.76 2.75 11.65a10.36 10.36 0 0 1 0 2.41c-1.31-.2-1.05-1.47-1.53-2.23s.21-2-1.09-2.31a17.66 17.66 0 0 0 .06 2.47c2.47 15.27 5 30.53 9.07 45.48.17.62-.05 1.64 1 1.79a12.68 12.68 0 0 0 0-2c-1.92-11.81-3.87-23.62-5.77-35.44-.1-.63-1-1.46.2-1.89a4.27 4.27 0 0 1 .84 1.64c3 13.81 6 27.64 8 41.64.27 1.91 1 5.1-1.58 5.58-2.06.38-2.62-2.6-3.2-4.47a270.15 270.15 0 0 1-11.39-56.63c-.17-2 .66-5-2.27-5.38-2.67-.38-3.41 2.45-4.09 4.35-4.47 12.47-6.1 25.53-7.47 38.61-1.25 11.91-2.37 23.84-3.62 35.75-.13 1.21.33 3.29-1.28 3.36-2.09.09-1.61-2.14-1.71-3.46-1.22-16.09-1.74-32.26-5.51-48.06-.16-.67-.44-1.32-.67-2 0 .65-.11 1.31-.14 2a9.7 9.7 0 0 1 0 1.49c-.29 1.38 0 3.43-1.91 3.51-1.58.07-1.79-1.81-2-3-.55-3.44-.92-6.92-1.32-10.38-.12-1 0-2-.19-3s0-2.75-1.57-2.56c-1 .13-.76 1.68-.73 2.63.35 12.44.55 24.88 3.15 37.14.66 3.11 2.72 7.83-.59 9.08s-4.7-3.83-6.32-6.47c-3.53-5.71-5.09-12.26-6.94-18.65a11 11 0 0 0-.77-1.63 6.78 6.78 0 0 0-.81 1.71c-1.32 8-2.54 16.1-3.92 24.13-.2 1.15.17 3.29-1.6 3.11-1.16-.12-.44-2-.4-3.13a98.89 98.89 0 0 1 3.5-22.7c2.18-7.75 1.7-15.33.82-23.14-.57-5.07 0-10.27.11-15.41a7 7 0 0 1 .86-2.18c.88.55.53 1.45.53 2.18 0 5.48-.56 11 .35 16.45.24 1.44-.16 3.6 1.31 4 1.84.53 1.69-2 2.61-3 5.19-5.62 7.23-12.4 7.29-19.91 0-1 .14-2.24 1.45-2.14.49 0 1.14 1.17 1.29 1.89.72 3.58 1.25 7.2 2 10.79.18.91.38 2.26 1.56 2.24 1 0 .6-1.31.86-2 .36-1 .11-2.73 1.68-2.55 1.37.16 1.23 1.78 1.42 2.89.92 5.29 0 11.18 5.06 15.1a1.59 1.59 0 0 1 .34 1.17c-1.15.71-2.21-.07-3.31-.33zm-13.27-2c-.17-2.28-.28-3.94-.43-5.59-.07-.81-.06-1.86-1.12-1.89a2.21 2.21 0 0 0-1.49 1.15c-2.39 4.54-5.55 9.07-4.74 14.41 1.38 9.06 3.89 17.86 8.66 25.84.54.91.76 2.72 2.15 2.2 1.2-.45.56-2.11.37-3.16-2.06-11.09-3.94-22.2-3.4-32.95zm7.29-2.71a15.1 15.1 0 0 0 .16-2.19c-.1-.76.05-1.64-.8-2.12a3.18 3.18 0 0 0-.27 1.16c.14.77.42 1.51.91 3.16zM184.43 533a2.56 2.56 0 0 0 .25-.84 2.33 2.33 0 0 0-.35-.75 2.5 2.5 0 0 0-.24.8 2.59 2.59 0 0 0 .34.79zm302.02 156.4c3.64.08 7.34-.26 10.9.33 6.57 1.08 12-1.05 17.2-4.69a84.77 84.77 0 0 1 8.24-4.61c1.07-.58 2.22-.89 3.22.09a2.25 2.25 0 0 1 .13 3.19c-3.95 4.34-1.68 5.38 2.74 5.52.6 0 1.18.56 1.77.86-6.12.06-12 .66-15.47 6.79-.63 1.11-2.27 2.09-1.48 3.41.88 1.5 2.43.37 3.56-.07 3.56-1.38 7-2.91 10.58-4.37 1.23-.51 2.56-1.16 3.72 0 1 1 .46 2.13 0 3.24-.3.81-1.53 1.92-.16 2.46s2-.89 2.33-2c1.18-3.88-.9-6.7-3.17-9.45.47.14 1.28.18 1.37.45 2.28 6.7 8.91 11.47 8.62 19.29-.24 6.24.31 6.64 6.26 4.56 1.77-.62 3.13-1.12 5.21.66s5.61-.37 8.36-.88c2.93-.55 2.56.28 1.64 1.89-3.05 5.33-4.55 11.41-8.08 16.49l-.18-.13-.14-2.94c-3.19 3.13-6.18 6.51-9.61 9.35-6.44 5.33-11.61 3.6-13.3-4.46-1.3-6.23-1.11-12.48 1.85-18.36-.29 3.14-.61 6.29-.86 9.43-.32 4-.2 8 1.41 11.79 1 2.37 2.83 4.15 5.48 2.87 9.27-4.49 15-12.44 19.69-21.2.56-1 .64-2.79-1.31-2.09-4.21 1.51-8.51-.66-12.82.89-4.09 1.47-6.24-.57-6.27-5 0-1.65.44-3.31.44-5 0-1.33-.3-2.95-1.84-3.17-1.87-.27-1.89 1.58-2.13 2.78-.57 2.92-.43 6-1.83 8.75 0-2.16 0-4.32.12-6.47.2-2.59 1.4-5.45-3.43-4.72-2.22.34-2.56-1.62-1.52-3.49.39-.7 1.09-1.48.34-2.21s-1.56-.07-2.31.23c-3.08 1.24-6.1 2.67-9.26 3.7-1.84.6-4.12 1.11-5.45-1-1.15-1.84.27-3.41 1-5.07.87-1.91 4.78-3.31 2.65-5.41s-5.49-.23-7.91 1.09c-1.82 1-3.07 3-4.72 4.35-1.12.92-2.79 2.24-4 .87-1.36-1.59.7-2.52 1.7-3.47s2-1.67 3-2.5c-1.26-1.21-2.81-.25-4.18-.55-4-.87-8.4.33-12.18-2zm29.67-.24c1.66-.19 3.36-.35 4.59-1.66 1-1.07 2.92-2.5 2.1-3.59-1.06-1.42-2.5.57-3.75 1.13a26.57 26.57 0 0 0-3.47 2c-.78.5-2.39.58-2.11 1.68s1.72.35 2.64.44zm-78.06-71.27c-3.31.25-6.62.6-9.94.71-1.63.06-3.76.8-4-2.18-.2-2.41-1.95-.72-3-.81-2.33-.21-5.24-.13-5.64-2.92-.37-2.63 2.39-3.17 4.45-3.85 12.39-4.06 25.31-5.57 38.05-7.89 1.29-.23 2.95-.61 3.45 1s-1.15 2.16-2.36 2.62c-8.38 3.22-16.78 6.39-25.15 9.62-.84.32-2.06.08-2.37 1.36.79-.06 1.58-.14 2.37-.17 6-.21 12-.44 17.93-.58 1.68 0 3.66.08 4.18 2 .62 2.27-1.44 3.11-3 4-5 2.79-10.51 4.13-15.78 6.16-.59.23-1.69.51-1.68.69.09.94.92.61 1.5.56 1.95-.17 3.92-.58 5.58.94-2 .23-3.92.52-5.89.66a8.3 8.3 0 0 1-2.46-.36c-1.08-.26-2.54-.23-2.52-1.83 0-1.21 1.2-1.46 2.12-1.8 4.68-1.71 9.4-3.34 14-5.14 1.44-.56 3.94-.8 3.57-2.71-.3-1.52-2.6-.73-4-.67-3.16.13-6.31.44-9.46.68zm-12.57-4.1a20.12 20.12 0 0 0 3.62-.53c6.09-2.09 12.15-4.28 18.21-6.43.73-.26 1.72-.13 1.87-1.26a8.83 8.83 0 0 0-2.32-.16q-10.94 2.18-21.85 4.47c-2.19.46-6.13.67-5.79 2.47.58 2.97 4.2.9 6.26 1.44zm106.26 25.08c-2.36-1.83-4.65-3.76-7.1-5.48-4.06-2.84-8.29-4.63-13.53-3.17-4.49 1.25-5.45 0-4-4.55a36.1 36.1 0 0 0 1-19.16c-1.16-5.2-3.94-6.95-9-5.51-6.09 1.72-11 5.45-15.75 9.35-1.54 1.26-3 2.69-4.48 4-.86.73-1.83 1.79-3 .95s-.45-2.09-.08-3.17c2.21-6.45 4.57-12.85 6.58-19.36 1.47-4.75 2.72-9.6 2.28-14.69-.13-1.51-.13-3-1.71-3.87-.85-.47-2.14.73-2.55-.57-.11-.36 1-1.24 1.62-1.64a2.43 2.43 0 0 1 3.16.6c1.87 2 2.16 4.42 2 7-.58 9.42-3.61 18.22-6.75 27-.42 1.18-1.48 2.24-.92 3.68a25.85 25.85 0 0 0 3.18-2.15 47.23 47.23 0 0 1 11.58-7.75c9.74-4.62 15.78-3.18 17.2 10.45A31.41 31.41 0 0 1 510 623.6c-1 3-.53 4 3.08 3.68 7.59-.74 15.61 4.5 18.67 11.55zM390 451.17c-2.34.44-4.62.94-6.92 1.27a2 2 0 0 1-1.69-.64c-.56-1.1.5-1.37 1.24-1.63 2.83-1 5.68-1.89 8.51-2.87a11.25 11.25 0 0 0 1.71-.94c-.74-.73-1.52-.17-2.24 0-1.13.29-2.19.87-3.32 1.07-1.29.22-3.1 2.12-3.77.17-.52-1.51 1.87-2 3.18-2.52a42.16 42.16 0 0 1 10.61-2.74c1.13-.14 2.46-.4 3.18.81.81 1.36-.3 2.28-1.22 2.87-2.24 1.43-1.53 4.18-2.34 5.54-2.73 4.55-3.44 6.74 3 7.29 1.67.14.8 2.26-.33 3.08a58.1 58.1 0 0 1-5.91 3.72c-1.52.84-3.06 2.85-4.86 1.6s-.16-3.06.32-4.54c.88-2.71-1.05-3-2.81-3.64-1.29-.48-3.68 0-3.52-1.92.13-1.55 2.48-1.17 3.82-1.68s2.66-.46 3.86-1c1.38-.61 4-.54 3.49-2.66-.41-1.62-2.63-.55-3.99-.64zm1.22 12.76a9.91 9.91 0 0 0 2.28-.77 15.21 15.21 0 0 0 2.08-1.88c-.3-.32-.55-.82-.92-.94a2.11 2.11 0 0 0-2.75 1.3 16.12 16.12 0 0 0-.66 2.31zM113.12 571c-2-10-1.34-20.55-5.17-30.26-1-2.47.15-3.49 2.41-3.56a6.11 6.11 0 0 1 3.35.7q7.22 4.7 14.23 9.71c1 .72 2.29 2 1.24 3.34-1.19 1.52-2.34.06-3.36-.67-.53-.38-.92-1-1.48-1.33-1.92-1.21-3.54-4.27-5.53-3.55s-.26 4-.89 5.91a46.31 46.31 0 0 1-3.37 7.81 5.79 5.79 0 0 0-.58 3.31c.14 2.82.48 5.63.5 8.45 0 2 1.12 4-.21 5.92zm-2.27-28.25c1.58 2.49-.06 6.41 2.66 8.31.53.37.77-4.49 2.53-6.37a1.42 1.42 0 0 0 .37-.9c-.07-2.49-2-3.43-3.88-3.88-2.1-.53-1.8 1.26-1.68 2.85zm100.32-92.84a38.94 38.94 0 0 1-16.95-3.74c-8.26-3.78-17-4.28-25.82-4.49a16.6 16.6 0 0 1-3 0c-1.33-.28-3.69.23-3.61-1.59s2.38-1.34 3.72-1.23a17.13 17.13 0 0 0 6.9-.61c7.66-2.5 13.26 3.55 20 4.82 4.2.79 8.15 2.85 12.27 4.12a13.6 13.6 0 0 0 6.91-.11c1.11-.24.78-2.76 2.47-1.53a2.74 2.74 0 0 1 .58 2.27c-.28 1.58-1.72 1.86-3.06 2.07-.43.11-.93.04-.41.02zm-24.7-58.36c-3.75-1.25-6.75-1.27-9.55 2.31-1.9 2.44-5.4 1.31-7.81-.33-3-2-6.53-4-6.93-8-.23-2.39 2-2.76 4-2.42a68.4 68.4 0 0 1 11.44 3.46c3 1.07 6.09 1.63 9.12 2.5.91.26 2.52.94 2.47 1.19-.32 1.74-1.99.3-2.74 1.29zm-18.56-5.5c-1.12 0-2.34.13-1.89 1.14a7.42 7.42 0 0 0 5.94 4.7c1.49.18 2.11-1.2 1.93-2.35-.56-3.72-4.08-2.45-5.98-3.49zM246 535l.23-2.83c1.48.38 1.16 1.8 1.37 2.74 2.55 11.21 7.21 21.73 10.46 32.7a18.76 18.76 0 0 1 .63 2.41c.17 1.11.84 2.78-.23 3.21-1.37.54-1.69-1.31-2.13-2.25-3.47-7.42-5-15.47-7.19-23.28-1.14-4.1-2.04-8.33-3.14-12.7zm200.34 101.26c2-.78 4-1.6 6-2.33a2.72 2.72 0 0 1 3.22.52c.93 1.1.25 2.26-.36 3.21-1.43 2.23-3 4.39-4.51 6.54-.86 1.19 1.66 2.17.16 3.16-.28.18-1.46-.66-2-1.25-1.37-1.64-.32-3 .6-4.47s4-3 2.57-4.64c-1.17-1.32-3.4 1.15-5 2.1-2.28 1.33-4.33 3.05-6.54 4.51a2.06 2.06 0 0 1-1.78.24c-1-.65-.33-1.46.22-2.06 2.91-3.18 6.07-6.15 7.81-10.22.12-.27.44-.46.66-.68.19.42.62.92.52 1.25-.44 1.41-1 2.76-1.59 4.14zm-69.9-193.44c-1.34.12-2.38.27-2.58-.74-.27-1.32 1-1.6 1.89-1.86 6.68-2 13.38-4 20.08-5.95 4.76-1.41 9.77-2 14.23-4.38.57-.31 1.28-.87 1.74-.19.21.31-.15 1.29-.54 1.67a7 7 0 0 1-2.44 1.66c-10.82 3.77-22.33 5.22-32.38 9.79zm112.84 204.24c2.74-4.25 7.65-5.07 11.63-7.35 1-.57 2.14-.91 3.19-1.42 1.31-.65 2.94-1 3.26-2.75a1.19 1.19 0 0 0-1.1-1.39c-1.74-.35-2.8.64-3.71 1.94-2.28 3.26-5.68 3.78-9.29 3.7-1 0-2.35-.07-2.43-1.21-.1-1.45 1.43-.92 2.27-1.15 3.54-1 6.1-4.17 9.95-4.4 2.25-.13 5.21-1.11 6.12 1.71.85 2.61-1.94 3.44-3.83 4.39-5.34 2.67-10.7 5.3-16.06 7.95zm-12.48 26.81c-.58-.25-1.3-.35-1.66-.76-.56-.65 0-1.29.55-1.66 2.49-1.85 5-3.75 7.59-5.4 1.79-1.12 3.12-.09 4 1.6 1.17 2.31-.78 2.32-2.08 2.84-2.78 1.09-5.52 2.21-8.4 3.38zM374.84 406c-3.79 7.5-9.65 13.25-15.88 18.68-.82.71-2.49 1.41-3.12.35-.91-1.51 1.05-1.61 1.88-2.14 4.83-3.1 8.34-7.47 11.75-12 1.5-2 2.76-4.17 5.35-4.95zM570.4 699.08c5.48 0 9.3-4.82 14.69-5.11-3.68 3.6-8.76 4.61-13.11 7-1.09.59-2.62 1.37-3.61-.06s.36-2.45 1.16-3.45a6.66 6.66 0 0 1 3.59-2.55l-2.68 4.24zm-95.03-35.98c2.55-7.15 7.39-12.32 13.9-16-4.69 5.29-9.68 10.33-13.76 16.15zm1.18-86.99c-.14.28-.21.67-.44.83-3.22 2.26-6.41 4.56-9.73 6.66-.85.54-1.87-.27-1.06-1.16a28.08 28.08 0 0 1 10.11-6.8c.44-.18.95-.17 1.12.47zM472 670.43c-.86 5.18-1.85 10.38 2.14 14.86-5.23-2.87-5.95-7.89-2.12-14.9zm-13.93 15.1l-.15-2a106.26 106.26 0 0 1 12.93 11.12c-5.34-1.57-8.03-6.8-12.78-9.12zM209.13 495.72c-5 1.94-10 .92-15 .12 5-1.61 10-.23 15-.12zm31.22 6.72c-.06 1.12.8 2.7-.76 2.49s-1.81-2.16-1.89-3.61c-.06-1.16-.74-3.44.74-3.22 1.99.29.83 3.16 1.91 4.34zM570.36 738.2a12.54 12.54 0 0 1-9.49 7.76c3.41-2.29 5.7-5.96 9.49-7.76zM209.1 495.77c3.61-.29 7.22-.6 10.84-.85a9.43 9.43 0 0 1 1.89.24c-.19.85-1 .74-1.48.74-3.74 0-7.5 1.45-11.22-.17z"/><path class="cls-2" d="M486.47 689.38a11.78 11.78 0 0 1-9.24-2.26l.06-.08c3.26 0 6.44.31 9.17 2.37zm-357.21-69.29a29.31 29.31 0 0 1 10.35 4.23 16.34 16.34 0 0 1-10.34-4.24zM472 670.42a8.65 8.65 0 0 1 3.39-7.32l.15.11c-.69 2.64-1.37 5.29-3.53 7.22zM186 495.48a9.55 9.55 0 0 1 8.05.4c-2.7.11-5.43 1-8.07-.38zm43.88-1.33c1 .21 2.09-.72 2.93.43a20 20 0 0 1-2.76.55 19.4 19.4 0 0 1-2.78-.19c.63-1.05 1.73-.5 2.61-.79zM492.89 722c3 .24 6.06.88 9.13.32a7.84 7.84 0 0 1-9.13-.32zm4.45-8.33a18.56 18.56 0 0 1-5.43-4.66 7.06 7.06 0 0 1 5.43 4.66z"/><path class="cls-2" d="M186.06 495.46c-3 .06-6.08 1.1-9.06-.32 3 0 6.09-1.15 9.07.31zM477.2 699.14c-2.35-.39-4-1.88-5.36-3.66a8.91 8.91 0 0 1 5.36 3.66zM249.18 494.73c0-.48-.07-1-.06-1.45 0-.79-.08-1.65.76-2.14a.44.44 0 0 1 .41.11c.48.83 0 1.54-.37 2.24a10.32 10.32 0 0 1-.8 1.21zM486.7 705.44a6.44 6.44 0 0 1-4.29-2.73 6.31 6.31 0 0 1 4.29 2.73zm5.3 3.61a6.39 6.39 0 0 1-4.29-2.73 6.43 6.43 0 0 1 4.29 2.73zM258.38 550.19a6.13 6.13 0 0 1 3.75-3.28 6.15 6.15 0 0 1-3.75 3.28z"/><path class="cls-2" d="M482.48 702.75a6.43 6.43 0 0 1-4.28-2.75 6.32 6.32 0 0 1 4.28 2.75zm19.52 19.6l-.31-4.07a3.1 3.1 0 0 1 .31 4.07zM268.7 541.37a4.57 4.57 0 0 1-2.83 2.21 4.45 4.45 0 0 1 2.83-2.21zm-11.28 9.87l-1.34 1.34-.24-.33 1.62-1z"/><path class="cls-2" d="M501.7 718.36a4.91 4.91 0 0 1-2.27-2.91 4.71 4.71 0 0 1 2.27 2.91zM415.42 492.2a4.14 4.14 0 0 1 2.86-2.2 4.14 4.14 0 0 1-2.81 2.24zm58.71 193.09a3.91 3.91 0 0 1 3.15 1.74l-.06.08a4 4 0 0 1-3.12-1.79zM576 692.66a4.15 4.15 0 0 1-2.86 2.24 3.7 3.7 0 0 1 2.86-2.24zM372.25 557.6a3.1 3.1 0 0 1-2.14-1.83l2.14 1.83zm29.98 43.53l-.32-.08.19-.28.13.36zm3.36 8.5l.31.07-.19.27-.12-.34zM131 364.26l.95-1.09 1-.08c-.22 1.12-.76 1.7-1.95 1.17zm244.19 6.62l-3.07-.77 3.07.77zm7.7.8l-.07.32-.28-.2.35-.12zm148.9 267.15l.34.58-.38-.54zm-74.9 43.79l-1 .07-.15-2zm31.95 38.7l-.08-1 2.13.88zm1.98-.19l2.18.87zM554 732.51l-.94 2 .75-2.12zm44.74-3.51l-.34.33.37-.3zM375.16 370.93l.47.07-.44-.11zM249.14 494.7l-.08.49.12-.46zm20.53 45.61l1.91-1.14-1.91 1.14zm-4.73 4.35l-1.94 1.13 1.91-1.14zm100.86 7.42l-1.14-1.91 1.14 1.91zm6.41 5.55l1.14 1.92-1.14-1.93zm-230.52 67.51l-2.07-.83 2.05.87zm-.03.05l.62.22a.83.83 0 0 1-.29 0 1.67 1.67 0 0 1-.3-.23zM418.28 490zm-146.7 49.17zm114.66-8.66zm-.02-.02l-.92 1.08.93-1.07zm-117.48 10.9l.93-1.08-.93 1.08zm116.55-9.83zm-119.42 12.01l-.93 1.09.93-1.08zm-2.87 2.22l-.93 1.08.93-1.08zm-4.65 4.37l-.93 1.08.93-1.08zM89.39 569.93zm-.02.07l1.07.92-1.08-.92zm275.29-19.83zM90.45 570.88zM366.88 553l-1.07-.92 1.07.92zm-.03 0l1.07.92-1.07-.92zm2.15 1.84l-1.07-.92 1.07.92zm1.1.93l-1.08-.93 1.08.93zm3.26 3.79l1.07.92-1.07-.92zm2.17 1.81l-1.07-.92 1.07.92zm-.03.03l1.07.92-1.07-.92zm2.18 1.82l-1.08-.92 1.07.92zm-.03.03zm4.22 2.69l1.06.91-1.06-.92zm1.06.92l1.07.92-1.07-.92zm1.07.92l1.07.92-1.07-.92zm1.08.92l1.07.93-1.08-.92zm1.07.93zm-101.3 11.73l-.24.11.06-.26.18.15zm97.05-15.45zM374.82 406zm80.91 274.69l-1 .08z"/><path class="cls-2" d="M456.92 683.62l-.08-1.05 1.13 1zm14.99 11.91l-1.14-1zm6.36 4.54l-1.14-1zm118.55-10l-.94 1.1zm-.93 1.08l-.92 1.07zm-108.12 15.22l-1.14-1zm10.65 8.22l-1.14-1zm1.07.92l-1.14-1zM264.46 112.54c1.74-8.91 6.76-16.12 12-23.2.59-.8 1.56-1.55 2.55-.75 1.17.95 1.09 2.44.72 3.72q-2.43 8.39-5 16.72c-2.17 7-4.42 14-6.58 21-.28.9-.52 2.63-.25 2.75 1.45.63 1.88-.94 2.46-1.75 5.46-7.55 10.75-15.23 17-22.14 2-2.23 4-4.44 6.77-5.83 3.78-1.94 5.91-1 7.06 3.13 1.62 5.76.82 11.54.19 17.33-.41 3.8-.73 7.61-1 11.42-.08 1.12-.11 2.45 1.18 3.05s2.32-.3 3.09-1.08c3.28-3.3 6.37-6.8 9.7-10.05 1.59-1.55 3.15-3.88 5.89-2.76 2.33.95 2.44 3.35 2.8 5.49.47 2.79 1.14 5.55 1.48 8.35.5 4.15 2.71 4.53 5.92 2.93a26.37 26.37 0 0 0 2.47-1.69c1.6-1 2.78-3.43 5.06-2.46 2.47 1.05 2.47 3.77 2.85 6a26.64 26.64 0 0 1-.12 4c.08 6.08 1.38 7.25 7.49 6.84s7.89 1.5 7.43 7.46c-.17 2.15-.49 4.3-.75 6.44-.18 1.44-1.23 3.14.14 4.23 1.61 1.27 3.18-.23 4.52-1 2.87-1.66 5.57-3.61 8.4-5.34 1-.63 2.26-2.17 3.44-.82.84 1-.47 2.12-1.08 3.05-2.26 3.49-4.71 6.86-6.8 10.44-.93 1.6-2.92 3.93-1.26 5.33s3.5-1 4.9-2.23c4.09-3.66 8-7.51 12.1-11.17 1-.9 2.1-2.82 3.67-1.61 1.31 1-.08 2.47-.65 3.56-3 5.77-5.1 11.92-7.48 18-1 2.45-1.51 5.16-3.76 6.91 1.13-8 4.94-15.05 7.3-22.62-4.67 3.49-8.14 8.39-13.35 11.23-1.59.86-3.25 2.19-5 .69s-1.06-3.42-.33-5.09c1.13-2.59 2.53-5.05 3.8-7.58.29-.58.87-1.43.67-1.75-.46-.73-1.16-.05-1.72.22-2.91 1.42-6 4.39-9.1 1.85s-.65-6.24-.38-9.45c.11-1.32.18-2.65.25-4 .15-3.11-.91-4.74-4.41-4a19.15 19.15 0 0 1-5 .17c-3.16-.15-4.84-2-5.18-5-.15-1.32.16-2.7-.1-4-.5-2.4.43-5.73-1.67-7-2.34-1.43-3.82 1.89-5.77 2.95-4.29 2.34-7.45 1.25-8.74-3.51-.78-2.87-1-5.9-1.48-8.85-.25-1.44-.13-3.24-1.89-3.76s-2.76.9-3.8 1.94c-3.17 3.18-6.26 6.45-9.43 9.64-1.47 1.47-3.28 2.58-5.38 1.85-2.36-.82-2.33-3.16-2.23-5.09.44-8 1-15.93 1.63-23.88.19-2.59.28-5.42-2.15-6.73-2.79-1.5-4.49 1.21-6.26 2.85-7.26 6.75-12.44 15.16-18.33 23-1.3 1.73-2.52 3.53-3.93 5.16-.92 1.07-1.93 2.81-3.63 1.85s-.87-2.77-.46-4.12c3.59-11.78 7.32-23.53 10.9-35.31.64-2.11 2.91-5.1 1-6.2-1.36-.78-2.86 3.08-4 5-3 5-5.66 10.17-8.46 15.28zm-118.6 59.86q6.57 6.83 13.14 13.65a23.48 23.48 0 0 0 2.91 2.73c1.29.94 2.67 2.82 4.27 1.79 1.35-.87 0-2.74-.09-4.17-.81-14.44-6.08-28.37-4.87-43 .19-2.35.13-5 2.76-5.93 3-1.09 4.43 1.47 6.07 3.32 2.55 2.85 4.88 6 7.74 8.46 3.41 3 6.44 1.9 8-2.33 1.72-4.6 1.42-9.54 2.46-14.25.36-1.66-.49-4.24 1.94-4.56s2.47 2.34 3.3 3.84c1.29 2.32 2.3 4.8 3.53 7.16.52 1 1 2.37 2.34 2.31s1.55-1.56 1.85-2.63c1.82-6.58 3.59-13.17 5.39-19.75a20.53 20.53 0 0 1 1.08-3.32c.55-1.18 1.11-2.63 2.77-2.45s1.93 1.66 2.2 3c.71 3.42 1.32 6.86 2 10.28.22 1 .07 2.73 1.48 2.68.88 0 .75-1.66.85-2.63.45-4.8.62-9.65 1.87-14.35.3-1.14.59-2.57 1.85-2.72 1.72-.2 2.06 1.49 2.37 2.72.89 3.54 1.56 7.14 2.44 10.69.93 3.73 3.06 4.94 6.62 2.91a22.16 22.16 0 0 1 3.2-1.4c.59-.22 1.37-.45 1.62.4.08.27-.4.91-.77 1.08-2.93 1.34-5.42 4.55-9.08 3.12-3.36-1.32-4-4.66-4.42-7.86a17.3 17.3 0 0 0-1.69-6.2c-1.2 1.94-.87 4.15-1.13 6.26-.33 2.64-.64 5.29-1 7.93-.24 1.64-.38 3.67-2.46 3.84s-2.66-1.68-3.09-3.33c-.67-2.58-1.19-5.2-1.92-7.75-.35-1.22-.2-3.31-1.46-3.4-1.51-.11-1.36 2-1.69 3.15-1.66 5.93-3.18 11.9-4.8 17.85-.58 2.11-1.22 4.4-3.82 4.71s-3.36-2.18-4.6-3.9c-1.74-2.41-1.91-5.64-4.21-7.72-1.53 2.86-.81 6.1-1.52 9.1-1 4.31-.95 9.61-6.08 11.18s-8-2.92-11-6.17c-1.58-1.7-2.92-3.64-4.45-5.4-.85-1-1.75-2.43-3.21-1.94-1.63.55-1.83 2.35-1.79 3.81.17 6.49.23 13.05 1.69 19.38 2.07 9 2.54 18.13 4.12 27.14.24 1.38.21 2.81-1.12 3.56s-2.65 0-3.67-.87c-7-5.68-13.91-11.41-18.35-19.48z"/><path class="cls-2" d="M274.32 217.06c1.55-4.31 4.64-2.37 7.36-1.78 1 .21.56 1 .38 1.58-1.07 3.5-5 5.83-8.19 4.35a6.09 6.09 0 0 0-6.09.24c-3.15 1.77-7 .68-10.16 2.64-.73.46-1.36-.28-1.33-1 .13-3.14-2.55-6.83 2.15-9.1 2.09-1 1.92-3.68 2.49-5.75.36-1.31.57-3.25 2.73-2.75s2.13.62 2.82-1.62c5-16 9.15-32.31 14.89-48.1a78.54 78.54 0 0 1 3.93-8.6c.55-1.09 1.18-3.07 2.66-2.37s.31 2.37-.25 3.46c-5 9.83-8 20.39-11.22 30.88a210.53 210.53 0 0 0-7.49 31.5 4.45 4.45 0 0 1-.12 1c-1.69 4.23-4.78 9.75 3.86 3.92.7-.47 1.26.8 1.63 1.53zm-10.88-.72l-.85-3.13c-.76 1-.13 2.08-.06 3.11a9.24 9.24 0 0 0 .69 2.16c.97-.61.12-1.38.21-2.15zm-77.36-52.75c-.63-1-1.69-2.07-.43-3s2.24.26 2.94 1.1a52 52 0 0 1 8.58 14 35.09 35.09 0 0 0 1.8 3.57 12.15 12.15 0 0 0 .81 1.18 8.07 8.07 0 0 0 .31-1.69c-.16-5.36-1.56-10.53-2.55-15.76-.18-1-.6-2.1.6-2.62.94-.4 1.33.52 1.87 1.17 2 2.42 1.4-.65 1.42-.86.26-4.15.38-8.32.58-12.48 0-1-.14-2.39 1.07-2.46s1.27 1.4 1.33 2.31c.45 6.64 1.24 13.3 1.09 19.93s3.78 11.55 5.5 17.36c1.28 4.33 2.38 8.42 2.07 12.91-.07 1.06-.7 2.36.92 3 .94.37 3.08-.31 2.54 1.37s-2.84 1.36-4.37 1.89-2.23-.59-2.52-1.78c-1.42-5.78-3.53-11.38-4-17.41-.32-4.31-1.06-8.58-1.7-12.86-.11-.7 0-1.66-1-2a6.68 6.68 0 0 0-.79 2.26c.17 4 .53 8 .72 12 .06 1.25.33 2.94-1.48 3.22-1.44.21-1.82-1.26-2.3-2.27-2.28-4.81-4.54-9.63-6.73-14.49a16.32 16.32 0 0 0-6.34-7.51zm113.42 35.49c1.11-11.61 1.08-23.68 5.69-35a20.23 20.23 0 0 1 1.57-3.11c.56-.89.88-2.59 2.36-1.83 1 .52.26 1.8 0 2.73q-2.08 6.66-4.18 13.32c-2.06 6.51-1.88 13.12-.87 19.75.11.71-.28 1.84 1 1.9.17 0 .42-1.13.59-1.75s.13-1 .31-1.46c.44-1.18.58-3.11 2.32-2.57 1.35.42.55 2 .29 3.08a32.48 32.48 0 0 0-1 4.36c-.49 5.13.31 5.73 5.08 3.84 1.17-.46 2.32-1 2.89.54 1.38 3.8 4.3 2.87 6.59 1.78 6-2.86 10.47-1.31 14 4 .35.51 1.06 1.22.92 1.55a1.3 1.3 0 0 1-2.1.32c-4.9-5.78-10.91-2.74-16.82-2.91s-13.58-.14-15.52-8.7c-.09-.4-.62-1.06-.85-1-.86.14-.52 1-.68 1.56-.26.93.89 2.63-.89 2.62-.86-.1-.72-1.74-.7-3.02zM248.12 215a3.28 3.28 0 0 1 0 .5c-.2 1.87 1.14 5-1.09 5.25s-1.84-3-2.29-4.79c-4.12-16.44-6.3-33.32-11.44-49.52-.65-2.06-1.4-4.08-2.08-6.13-.34-1-1.92-2.38-.62-3 1.54-.72 1.89 1.36 2.44 2.45a70 70 0 0 1 5.08 15.08c1.8 7.25 3.67 14.51 4.9 21.87.55 3.31 4.8 3.75 4.52 7.22 0 .09.2.24.34.28 3.33 1 4.26 2.2 4.41 5.39s-.78 5.19-4.22 5.42c-.08-.29-.14-.59-.24-.88 0-.1-.15-.18-.23-.26zM153.75 94.78c-.24-2.26 3-4.81.83-6.31s-5.41-.19-8 1c-13.36 5.85-21.24 16.88-27.64 29.3-.9 1.75-1.87 3.47-2.8 5.21l-.45-.31c2.9-16 21.05-34.79 36.94-38.35 1.67-.37 3.39-.65 4.7.65 1.5 1.5.39 3.12-.25 4.6a9.26 9.26 0 0 1-3.22 4.34zm-2.95 26.36c0-.33.11-.66.13-1 .14-2.24 2.43-5.17.41-6.51-2.42-1.6-4.87 1.19-6.94 2.62-5.06 3.5-8 8.83-11.12 13.92-.49.8-.94 2.37-1.89 1.93-1.17-.54-.1-1.76.33-2.54 3.28-5.81 6.79-11.47 12.28-15.56 2.77-2.06 6.32-5.12 9.2-2.07s-.11 6.43-2.42 9.14zm9.3 221.53c-.51.95.71 2.46-.6 3-.46.19-1.71-.86-2.25-1.61-2-2.82-3.93-5.72-5.81-8.64a4.57 4.57 0 0 1-.37-1.88 1.44 1.44 0 0 1 .78-.2c2.39.39 8.01 6.72 8.25 9.33zm-28.65-186.09c5.86 4.31 10.2 10 14.4 15.82l-.43.44c-5.2-4.93-10.27-10-14.12-16.08z"/><path class="cls-2" d="M150.77 121.1c-1.34 1.16-3 1.27-4.66 1.56a3 3 0 0 0-2.76 3c-.06.81 1.6 2.49-.64 2.41-1.18 0-1.51-1.64-1.62-2.82-.39-4.27 4-6.13 9.7-4.11zM164 339.34a3.58 3.58 0 0 1 .79.54c2.44 2.91 4.89 5.83 7.29 8.78.42.52.57 1.3-.18 1.67a1.43 1.43 0 0 1-1.3-.33c-2.53-2.84-5.27-5.53-6.91-9-.23-.57-.53-1.26.31-1.66zm203.57-202.53c6.35-.06 12.27 3.16 18.71 2.42.43-.05 1.11 0 .84.66-.13.31-.83.53-1.27.55-6.37.2-12.57-.56-18.32-3.57zM204 298.23c.06 1.77-.66 2.78-2.24 2.76a3.88 3.88 0 0 1-4-3c-.42-1.71 1-2.17 2.36-2.35a3.19 3.19 0 0 1 3.88 2.59zm11.34 27.26c-.31 1.6-.76 3.23-2.86 3.38-1.21.09-2.53-.26-2.73-1.6-.32-2.14 1.46-2.77 3-3.27 1.25-.36 2.39-.28 2.59 1.49zm81.91-19.8c-1 1.25-1.35 3.29-3.44 3.13-1.65-.13-2.06-1.53-2-2.93.12-2 1.65-2.29 3.21-2.19 1.18.08 2.39.3 2.23 1.99zM125.71 161.12c-2.68-1.39-4.54-3.68-6.45-5.91-.84-1-2.09-1.94-1.18-3.37s2.47-1.27 3.87-.45c-2.9.55-2.27 1.95-1 3.73 1.48 2.1 4 3.37 4.76 6zm107.75 159.06c-.13 1.24-.74 2.23-2.09 2.12a3 3 0 0 1-2.84-2.28c-.37-1.72 1-1.65 2.16-1.77 1.47-.14 2.59.18 2.77 1.93zm52.48-3.99c-.06 1.41-.32 2.48-1.59 2.41-1.58-.09-1.5-1.5-1.62-2.63-.09-.83-.08-1.83 1.05-1.79 1.37.06 1.81 1.22 2.16 2.01zM131.31 156.77c-3.44-1.23-6.33-3.42-9.33-5.43 4.19-.15 7 2.33 9.5 5.2zM391.52 96a14.75 14.75 0 0 1 7.4-8.62 34.9 34.9 0 0 1-7.4 8.62zm-250.71 79c-2.92-2.08-6-4-7.62-7.41l.06-.07c3 2.06 6.1 3.92 7.55 7.49zm76.07 136.48c-1.38-.06-2.15-.55-2.46-1.6a1 1 0 0 1 .83-1.42 1.93 1.93 0 0 1 2.44 1.68c.07.44-.57.98-.81 1.34zm82.04 14.96c-.68.05-1.43 0-1.45-.82 0-1.33 1-1.93 2.08-2.25a1 1 0 0 1 1.42.86c.12 1.41-.91 1.9-2.05 2.21zm-37.78-204.63c-.15-3.54.62-6.75 3.31-9.27-.81 3.2-1.42 6.46-3.32 9.27zm125.77 45.64a11.68 11.68 0 0 1-7.56-6.38l.08-.1a31.2 31.2 0 0 1 7.46 6.51zm-215.16 85.44c3.21.78 6.48 1.37 9.3 3.26l-.09.13a11.31 11.31 0 0 1-9.21-3.39zm136.82 61.55a1.89 1.89 0 0 1 1.79 1.37c.35 1-.24 1.55-1.13 1.67a1.58 1.58 0 0 1-1.77-1.29 1.3 1.3 0 0 1 1.11-1.75zm-20.97 12.19a1.26 1.26 0 1 1-2.47-.52 1.05 1.05 0 0 1 1.37-.93 1.36 1.36 0 0 1 1.1 1.45zm-115.85-73.74a5.86 5.86 0 0 1-4.34-2.79c-.06-.11.31-.64.34-.62 1.74.65 2.85 2.05 4 3.41z"/><path class="cls-2" d="M125.73 161.1a5 5 0 0 1 4.27 3.7c-1.71-.9-3.47-1.74-4.3-3.67zM140.8 175c2 1.07 3.69 2.39 4.37 4.68a8.47 8.47 0 0 1-4.36-4.7zm204.08 33.73c.61-.93 1.17-2 2.54-1.74.17 0 .46.52.39.65-.61 1.24-1.87.91-2.9 1.13zm-228.75-84.8c-.22.9 0 2-1 2.55-.06 0-.37-.18-.36-.21.29-.89.61-1.77.92-2.65zm30.17 57.71a4 4 0 0 1 2.23 2.82 4.19 4.19 0 0 1-2.21-2.84zm111.78 199.72l-.71.29a4.69 4.69 0 0 1-.19-.62s.29-.17.37-.12a3.15 3.15 0 0 1 .53.45zm-109.55-196.9l1.32 1.17-.5.39-.81-1.57zm-30.59 6.3a4.11 4.11 0 0 1-2.22-2.84 4.43 4.43 0 0 1 2.22 2.84zM426.59 73.62l-.09.35-.21-.26.3-.09zm-294.45 93.04l-2.14-1.88a2.89 2.89 0 0 1 2.18 1.82zm247.21-5.6a3.07 3.07 0 0 1-2.13-1.85l.07-.07 2.14 1.83z"/><path class="cls-2" d="M344.91 208.76l-.82.92c-.47-.93.49-.66.79-.95zM154.27 74.7l-.07.49.11-.46zm226.02 32.12l2-1.19zm-120 17.06l.85-2.07-.85 2.07zm-.03-.02l-.08.47.11-.45zm-115.09 55.83l1.12 1.95-1.17-1.9zm-27.25 11.09l.36.55c-.08-.07-.19-.12-.23-.2a1.63 1.63 0 0 1-.1-.37zM371 196.72l-.24.64a.84.84 0 0 1 0-.31 1.65 1.65 0 0 1 .25-.31zm-10.6 31.89l2.14.88zm2.08.85l2.11.86zm2.08.85l2-.15a1.59 1.59 0 0 1-2 .15zM196 307.16l.37.69-.53-.53zM305.62 312l-.39.6.27-.69zm74.27 41.48l.07 1-1 .08zM389 169.33zm-1-.92l1.08.92-1.07-.93zm-1.12-.93l1.08.93-1.08-.93zm-254.71-.86l1.08.9-.06.07-1-.93zm247.2-58.72l1-1.13zm2.84-2.22l1-1.14zm8.38-8.68l1-1.13zm8.31-9.64l1-1.11zm-245.05 7.5l-.18.12.08-.2.1.08zm166.81 364.36a4.63 4.63 0 0 0-.06 5.14c5.52 10.51 9.2 21.69 12.05 33.19 1.43 5.77 5.69 10.09 8.52 15.14.35.62 1.47 1.19.42 2-.19.14-1.16-.49-1.57-.94-1.65-1.83-3.21-3.73-4.81-5.61-1.33 2.65.76 5.07.54 7.59-.42 4.92.95 10.05-1.7 14.71-2.17 3.83-6.45 4-8.84.4a5.06 5.06 0 0 1-.42-1.32 4 4 0 0 1 1.33 0c2 .72 4.26 3.29 5.94 0 1.49-2.93 2.72-6.35.36-9.4-2.51-3.25-1.93-9.3-8.22-9.3-.54 0-.26-1.18.17-1.71a2.19 2.19 0 0 1 2.66-.77c1.86.72 2.62 2.47 3.68 3.95.55.78 1 2.14 2.11 1.68s.28-1.72.2-2.65c-.8-8.49-4.29-16-8.38-23.3-3.58-6.41-5.83-13.41-8.08-20.38-1.35-4.2-.6-7.22 4.13-8.34zm-1.39 8.17a1.83 1.83 0 0 0-.11-.36 1 1 0 0 0-.22-.21l.36.54c1 6.64 4 12.55 6.7 18.57.19.42.68 1.13.82 1.09 1-.32.35-1 .18-1.52-2.18-6.2-3.83-12.63-7.73-18.11zm23.51-6.39c.43-1.56-1.21-3.87 1.08-4.32 1.4-.27 2.16 1.94 2.52 3.31 2.27 8.63 4.43 17.29 6.53 26 .17.69-.15 2.09-.55 2.22-1.41.46-1.45-1-1.64-1.8-1.89-7.72-3.69-15.45-5.55-23.18a10.27 10.27 0 0 0-.75-1.71l-.42 1.78c-.09.41-.35 1.29-.5 1a13.08 13.08 0 0 1-.72-3.3zm4.02 65.45a30.36 30.36 0 0 0-.49 7.94c.09 1 .91 2.18-.37 3a15.84 15.84 0 0 1-1.24-3.16c-.48-2.88-.22-5.65 2.13-7.79zm-38.44-56.17l-.7.26c0-.13-.11-.36-.08-.38a5.5 5.5 0 0 1 .69-.28zm14.27-12.17l.33-.33-.36.3zm-1.94 1.14l1.94-1.14-1.94 1.14zm-8.52 6.67l1.93-1.14-1.92 1.14zm34.66 60.55zm-32.73-61.69zM155.72 319.26c.55 1.1 2.26 2 1.09 3.42-.92 1.12-2.16 0-3.21-.26-5.58-1.56-11.58-1.33-16.87-4a44.14 44.14 0 0 1-5.62-3.18c-1.21-.86-3.64-1.73-2.45-3.58 1-1.55 2.57.5 3.91.86 1.05.28 2.31 1.58 3.12.41s-.82-1.93-1.44-2.82c-1.59-2.32-3.26-4.59-4.83-6.93-.46-.68-.79-1.66 0-2.26s1.6.09 2.16.65q5.09 5.1 10.09 10.29a13.8 13.8 0 0 0 5.6 4c1.37.45 3.1 1.72 2.27-1.39-.06-.21.26-.76.43-.77 2.35-.15 3.82 1.71 5.68 2.65 1.5.76 1.76 1.95 0 3zm-10-1.47c-1.17-.82-2.4-1.59-4-1.25-.53.11-.84.71-.31 1a19.63 19.63 0 0 0 3.62 1.16c.54.07 1.06-.16.74-.9zm58.69-84.62c.38 8.74-5.24 16.81-14.32 18-7.08 1-15.23-7.18-15.87-15.18-.68-8.54 5.71-16.61 13.79-17.4 6.99-.66 15.8 7.15 16.4 14.58zm-14.15 12.31c7.48-.57 11.5-5.43 10.82-13.07-.5-5.57-6.33-9.78-12.68-9.16-4.93.48-11.09 7.51-10.71 12.21.59 7.28 4.76 10.61 12.57 10.02zm12.23-24zm135.21 15.74c.45 7.57-7.42 16.59-15.56 16.29-9.59-.35-14.31-2.52-15-12-.68-8.69 6.2-15.7 15.82-16.24 8.58-.43 14.28 4.16 14.74 11.95zm-5.37 1c-.23-3.79-4.27-10-6.71-9.65-3.74.49-7.64 1-10.69 3.58-4.3 3.66-4.89 11.95-1.14 15.27.75.67 1.8 1.5 2.63.83 1.23-1-.15-1.58-.76-2.26-2.61-2.91-2.26-9 .83-11.43a6.22 6.22 0 0 1 7-.81c2.72 1.41 5.3 3.11 5.34 6.59 0 2.93-2 4.43-4.59 5.12a5.09 5.09 0 0 0-3.54 2.47c-.37.69-1.48 1.31-.88 2.08.36.47 1.49.47 2.28.46 6.16-.06 10.63-5.47 10.23-12.21zM301.39 255l2.15 1.15a4.12 4.12 0 0 1-.47.5c-.66-.44-1.28-.93-1.92-1.4zm37.3-8.71zm137.5 466.9l.06.05zm11.55 6.2l-1.05.09zm1.08.92l-1 .08-.07-1zM382.69 98.62zm-1.09-.96l1-.07v1z"/><path class="cls-2" d="M192 241.52c-6.43.67-10.68-1.25-11-4.94s3.75-8.65 7.65-9.13 8.5 2.76 8.84 6.32c.24 3.15-2.82 7.47-5.49 7.75z"/></g></g></svg>