<svg xmlns="http://www.w3.org/2000/svg" viewBox="0 0 414.5 426.28"><defs><style>.cls-1{fill:#ffc700}</style></defs><title>cat-404</title><g id="Слой_2" data-name="Слой 2"><g id="Слой_1-2" data-name="Слой 1"><path class="cls-1" d="M314.42 41.59c6.38 1.83 12.24 5.47 20.31 5.58-6.27-3.89-12.17-6.47-16.13-11.67 6.67 1.2 12.55 4.65 20.58 6L325.17 31l.78-1.4c4.52 2.18 8.89 4.77 14.28 5.32l-9.42-7.8c5.6.16 10.12 3.67 16 2.65-2.42-4.82-7.75-6.8-10.39-11.79 3.58.15 5.06 3.34 7.92 3.71 1.22-1.71-2-2.61-.61-4.6 3.86 1 6.41 4.93 10.95 5.64-.3-3.85-4.46-5.29-4.66-9a28.93 28.93 0 0 1 7.45 9.52c.94 1.84-1 1.83-2 1.56-2-.54-4-1.4-6.13-2.19.52 2.72 4 3 4.37 5.79-2.53.9-3.72-2-6-2-.53 1.91 3.06 2.73 1.65 4.46s-3.72.71-5.65.55c-1.59-.13-3.13-1-5.08-.31 2.71 3.25 6.65 4.79 10.42 8-5.38.65-8.79-2.3-13.3-2.77 2.93 3.49 7.19 4.53 11 8.45-8-.71-14.08-3.78-21.64-5.74 4.7 4.32 9.88 5.55 14.48 9.16-4.29 1.41-7.77.42-11.49-.25 1.08 2.88 4.35 2.69 6.54 6.13a28.33 28.33 0 0 1-20.22-12.5zm-122.11.73c-1.94-.28-3.54 3.28-5.1 1.21s1.31-4.52 1.26-7.43c-3.1.23-4.61 3.76-8.23 3.73 1.19-3.48 1.66-7 5.21-8.93 1.1 2.4-1.82 3.15-1.63 5.35 2.63-.33 4.06-3.32 6.79-3.28 1.36 3.11-2 5.27-1.41 8.35 3-.6 4.41-3.95 7.8-4.59.65 3.11-2.33 4.71-2.68 7.41 2.64-.18 3.28-3.5 6.21-3.29.15 3.35-3.16 5.16-3.86 8.9 3.1-2.6 5.63-4.8 8.25-6.88 1-.78 2.27-2 3.48-.64.91 1-.16 2.2-.74 3.12-2.5 4-5.1 8-7.31 12.25 4.77-2.54 7.38-7.85 12.82-9.53 1.16 2.73-1.76 3.95-1.71 6.08 1.4.35 2-1.78 4.28-.63-4 3.34-4.28 10.19-11.85 9.41.61-4 4-6.23 4.83-10.13-2.49 2.36-4.93 4.77-7.48 7.06-1 .91-2.14 2.73-3.7 1.44-1.29-1.06.05-2.52.66-3.57 2.42-4.16 5-8.22 8.18-13.42-4.38 2-6.35 5.15-9 7.34-1.3 1.06-2.58 3.72-4.27 2.33s.86-3.12 1.39-4.75a18.38 18.38 0 0 1 .82-1.8 4.49 4.49 0 0 0-1.05.09c-1.7.65-2.79 4-4.77 2.13-1.31-1.24 1.29-3 1.93-4.65.3-.87 1.33-1.49.88-2.68zm111.1 58.15c-5.77 3.61-7.71-1.56-10.22-5.46a3.88 3.88 0 0 1 2.57-6.11c3-.15 4.71-1.8 6.93-3 3.42-1.89 7.06 0 8.8 2 2.08 2.35 1.63 6.77-.77 9.14-1.64 1.6-2.91 5.42-7.31 3.43zm-69.65-6.58c-.37-3.08 0-4.5 4-3.58 5.11 1.19 10.46 1.36 15.72 1.86 1 .09 2-.28 2.34 1.07.4 1.52-4.43 9.79-6.09 10.4-2.88 1.06-10-1.22-12.15-3.83-.89-1.08-3.08-.43-3.3-2.47-.16-1.16-.36-2.34-.52-3.45z"/><path d="M13.92 90.87c3.93-6.24 9.69-10.82 14.7-16.08 2.15-2.26 4.83-4.09 5.44-7.52a2.19 2.19 0 0 1 2.62-1.76c1.24.19 1.1 1.44 1.37 2.37a27.44 27.44 0 0 1 1 9.52 77.79 77.79 0 0 0 .48 17.41c.54 3.31-.92 6.68-.39 9.87s-.53 4.46-3.24 5.51c-1.47-2-.6-4.87-2.15-6.88-.29-.37.2-1-.43-1.34-.09.49-.19 1-.27 1.46s-.28 1-.83.91-1-.57-1-.93c-.36-3.62-1.2-7.2-.85-10.89.25-2.64.35-5.29.52-8.07-1.69.2-2.32 1.4-3.11 2.32-3.66 4.3-7.35 8.58-10.88 13-1.21 1.51-2.59 2.9-3 5-.65 3.29-3.91 4.17-6.56 2.07-1.71-1.35-2.56-3.54-4.54-4.59-.9-.47-.24-1-.2-1.55.46-5.45 1-10.9 1.36-16.36.08-1 .54-2.26-.89-3.39-1.82 2.97-1.19 6.15-1.33 9.15s0 5.93 0 9.3c-1.58-2.58.5-5.55-1.74-7.55v-5c1.19-.81.83-2.07.92-3.19s-.06-2.3.81-2.78C5 79.11 5.07 76 4.66 73.16c-.48-3.35 2.1-4.24 3.31-6.29 1.71 1.26.59 3 1.5 4.13.31-.6.49-1.56.9-1.67.94-.26 1.47.72 1.55 1.41q.59 4.95.9 9.93c.16 2.49.12 5 .2 7.49 0 1-.13 2 1 2.62l.17.27zm-9 7.91c1.67-3.58.6-7.3.59-11A57.05 57.05 0 0 0 5 98.87a.91.91 0 0 0-.71 1c0 .4.34.5.43.23a7.06 7.06 0 0 0 .22-1.32zM335 20.85a43.63 43.63 0 0 0-10.55 8.76c-6.41 6.88-13 13.56-17.69 21.84-.12.22-.56.26-.85.38l.07.06a15.72 15.72 0 0 1 2.82-7.32 72.64 72.64 0 0 1 12.5-14.81c2.93-2.67 5.54-5.66 8.62-8.2a6.13 6.13 0 0 0 2.73-4c-7.59 2.26-14.07 6.3-21.18 8.72a106.14 106.14 0 0 0-20.76 10c.88-2.72.91-2.68 2.83-3.85a32.49 32.49 0 0 0 4.46-3.26c-5.25.73-10.56.31-15.75 1.12a29.79 29.79 0 0 1-10.35 0c-5-1-9.89.65-14.82 1.09-6.11.54-12 2.75-18.48 2.58.28 3.55 3.44 3.58 5.36 4.92l-.1-.1c3.08 2.64 1.79 5.33.08 8l.1.1c0-1.32 0-2.65-.08-4-.23-2.64-.81-3.29-3.7-3.33a7.24 7.24 0 0 1-3.69-1.18 94.53 94.53 0 0 0-8.9-4.29 39.45 39.45 0 0 0-14.39-3.24c-6.63-.34-13.07-2-19.66-2.53-.27 0-.5-.39-.75-.59.39-.2 1.26.46 1.12-.55 0-.16-.79.22-1 .66a4 4 0 0 0-2.7.51c2.2 1.26 4.29 2.42 6.34 3.66 1.24.76 2.82 1.16 3.29 2.84l.12-.12a1.13 1.13 0 0 0-1 1.12c-.58-.11-1.44-.19-1.47.4s.9.52 1.49.49l-.11 1.1.06-.08c-1.38.23-2.9-.14-4.07 1l.12.12c.07-1.34 0-2.48-1.37-3.4-4.69-3.09-9.91-4.73-16-6.8 2 3.12 4 5.23 4.69 7.72 1.05 3.92 3.66 6.94 5.08 10.58 1.07 2.74 1.75.25 2.6-.12l-.13-.1c0 1.55-.38 3.33 2.14 3.14l-.1-.11c-.47 1.07-1.76.79-2.47 1.5a4.48 4.48 0 0 0 1.46 3c3.86 4.72 5.22 10.59 7.3 16.11.51 1.36 1.06.76 1.77.48l-.11-.11c.1 1.12-.21 2.36 1.11 3.09.2.11 1.56.53.54.67-3.84.54-2.25 2.78-1.84 4.74.13.63.19 1.27.33 2.23-1.38-.27-2.94-.13-3.51-.82s.81-2.06 0-3.44c-3.69 2.61-4.11 6.82-5.35 10.58-.1.3.08.71 0 1-2.87 6.54-.57 13.36-1.15 20l.11-.09c-1.58 1.56-.86 3.29-.43 5.05.69 2.82 1.26 5.66 1.87 8.47-1.94.54-1.26-1.36-2.42-1.76.11 7.06 1.65 13.26 7.93 17.37l-.09-.09c3.14 1.56 4.85 4.54 7 7l.08-.08c-2.34.53-4.17-.82-6-1.8-4.36-2.33-8.42-2.48-12.19 1.11-2 1.87-5 2.3-6.39 5a1 1 0 0 1-.82.49c-4.78-.84-7.69 3-11.37 4.74-4.73 2.24-9.13 5.16-14.21 6.69-.43.13-.75.59-1.12.9l.1-.1c-.78.21-1.61.32-2.09 1.1l.08-.09c-.77.24-1.69.19-2.11 1.09l.1-.1c-1.57.3-3.25.38-4.09 2.09l.1-.11a2.92 2.92 0 0 0-4.11 1.15l.1-.12c-1.59-.35-3.41 0-4.17 1.08-1.69 2.37-4 2-6.23 2.15a11.79 11.79 0 0 0-7.48 3.38q-13.39 12.65-27.07 25a35.87 35.87 0 0 0-8.62 11.47 22.12 22.12 0 0 0-2.36 10.59c.15 3-.11 6-2.11 8.44a1.35 1.35 0 0 0-.09-.37c0-.06-.16-.07-.24-.11l.44.37c-.18 5.26.42 10.5-.66 15.8-.76 3.73.84 7.47 2.11 11.05.61 1.71 1.59 3.29 1.45 5.2l.11-.09a1.55 1.55 0 0 0-.87 1.63c1.43 5-.62 9.69-1.1 14.52-.22 2.26-2.4-.16-2.62 1.77-.17 1.52-1.41 2.91-2.11 4.39s-2 2.06-3.38 2.7l.09.12c-.35-1.09-.75-.3-1.14 0l.09-.09c-.32.39-.92.78 0 1.14l-.11-.09-2 2 .1-.09-1.11 1.11.12-.1H69l.07.07c.35-1.71 1.73-2.79 2.67-4.12a75.06 75.06 0 0 0 10-20.17c.93-2.84 1.11-5.72-1.34-8.27C79 256 79 254 79 252.11a73.69 73.69 0 0 0-1.15-10.87 6.91 6.91 0 0 0-1.73-4.3c-5.76 7.8-11.72 15.14-14.18 24.81-2 7.82-4.92 15.41-7.68 23-.93 2.55-1.76 5.36-4.29 7l.09.08c-.37-1.3.49-2.23 1.06-3.2a25 25 0 0 0 3.44-9.24c-2.11 2.51-2.86 6.28-5 8.17-2.56 2.2-3.78 5.26-6.56 7.44-.58-1.55.24-2.43.78-3.31 3.68-6.06 6.8-12.48 11.11-18.14a24.38 24.38 0 0 0 4.1-9.46c1.34-5.57 2.18-11.33 5.18-16.36 1-1.72.54-3.56 1-5.29 2.55 1.62 2.6-1.18 3.55-2.14a25.11 25.11 0 0 0 2.87-4.05c1-1.53 1.92-3.1 2.88-4.65s2.11-3.36 3.26-5.19c-1.16-1.21-2.59-1.29-4-1.54-1.71-.29-3.63-.24-4.7-2l-.07.08c2.52-.33 4.68 1.5 7.21 1.18.93-.12 2.18.26 2.48-1 .34-1.39-1.07-1.54-1.89-1.69a90.17 90.17 0 0 1-18.55-5.62l.74 2.09.07-.08a3.13 3.13 0 0 1-3.12-2 3.17 3.17 0 0 0 .4-.15.85.85 0 0 0 .19-.19l-.48.45c-3.16-.85-5-3.77-7.85-5.08-.46-.21-.79-.62-.47-1.17a1.37 1.37 0 0 1 1.69-.7 22.93 22.93 0 0 1 2.63 1.4c4.5 2.5 9.06 4.38 14.44 4.59 4.54.18 9 1.71 13.48 2.62 1-1.64-1-2.44-.74-3.75.13-.6.08-1.26.92-1.58 4-1.53 4.2-2.78 1.22-5.78 2.71-3.2 2.71-3.2 9.19-6.21a1.22 1.22 0 0 0 .41-.29c4.67-5.43 11.17-8.8 15.85-14.26 4-4.65 8.16-9.16 12.55-13.43 5.89-5.72 12.94-9.21 21.3-9.53a16.85 16.85 0 0 0 6.2-1.66c8.09-3.55 15.32-8.67 23.09-12.79.53-.28 1.34-.48 1.33-1.27 0-3.9 3.08-3.76 5.57-4.17 4-.65 7-3.54 7-7.56-.21-11.85 2-23.46 3.08-35.18.53-5.64.93-11.22 2.82-16.6a31.22 31.22 0 0 1 1.87-4.61c3-5.45 2.22-10.71-.44-16-1-1.92-2-3.84-2.1-6.08l-.11.1c.8-.38.66-.77 0-1.15l.11.09c-.06-.85.05-1.8-1.09-2.09l.11.11c0-.87.12-1.83-1.1-2.07l.11.12c-4.5-6.77-6.36-15-11.56-21.36-2.3-2.84-4.54-5.73-6.87-8.67-.36-1.26 1.22-2 1.56-2.08 1.55-.26 3.42-.55 4.75.08 5.77 2.73 12.39 2.41 18.09 5.18 4.44 2.16 9.15 2.64 13.95 2.84l-.08-.1a5.56 5.56 0 0 0 6.15 0l-.07.09c4.59-.25 8.72 1.72 13.06 2.69 2.91.66 6 2.86 8.32-1.11.46-.78 1.53-.37 2.33-.21a29.72 29.72 0 0 0 13.29-.25 3.25 3.25 0 0 1 1-.09c8.82.56 17.55-1.66 26.38-.94a24.57 24.57 0 0 0 11.22-1.82 18.11 18.11 0 0 1 7.31-1.38c4.52.14 9-.64 13.4-1.17A24.29 24.29 0 0 0 321.88 18a36.42 36.42 0 0 1 7.86-5.21c7.34-3.35 13.92-8.58 22.39-9.21 2-.15 3.68-1.47 5.32-2.6 1.15-.79 2.43-1.54 3.58-.3a3.28 3.28 0 0 1 .29 3.94c-3.51 4.36-2.47 9.87-3.83 14.74-.74 2.66-1.67 5.46-2.47 8.08a103.71 103.71 0 0 0-3 12.87 24.52 24.52 0 0 1-2.49 7c-1.56 3.05-1.65 6.39-2.54 9.55-1.37 4.9.32 9.25 1.5 13.72a38.33 38.33 0 0 0 6.5 12.8 38.77 38.77 0 0 1 4.28 7.19c.74 1.65 2.42 3.41.15 5.2.76 3.1.56 6.27.57 9.41 0 6.64.62 13.32-.75 19.91-.13.65-.17 1.32-.35 2a29.43 29.43 0 0 0-.06 9.54c.6 2.23 1.46 4.35.65 6.8-.44 1.33 1.93 1.27 2 3.13.15 4.12 1.63 8.13 1.55 12.33-1.48 1.28-.9 2.76-.11 4.24v-4.33c1.94 2.49.52 5.44 1.12 8.11-.83.67-1.08 1.42-.11 2.67v-2.76c1.53 4.23 1.67 8.67 1.9 13.07.38 7.29-.34 14.65 1.24 21.86 1 4.65 1.73 9.4 3.64 13.82a139.33 139.33 0 0 1 8.74 27.38 24.43 24.43 0 0 1-.52 11.83c-1.24 4.3-2.42 8.61-3.6 12.93-.94 3.47.14 5.45 3.79 6 2.84.44 5.58.72 7.52 3.17.19.25.61.57.82.51 3.57-1 6.77.93 10.16 1.23.62.05 1.52-.59 1.86-.33 4.07 3 8.67 1 13 1.5a2.61 2.61 0 0 1 2.06.73 30.49 30.49 0 0 1-10.29 1c-1.42-.12-2.66-.22-3.3 1.37l.1-.07c-2.13-2.15-4.46-2.77-7.12-.94l.13-.07h-2.12l.12.08c-.79-1.09-2-1-3.13-1.09l.14.11c-.28-1.2-1.31-.86-2.09-1-.35-1-1.22-.86-2-1a1.8 1.8 0 0 0-.2-.4c0-.06-.18 0-.28-.06l.58.34c.2 1.28 1.15 1 2 1l-.13 1.13.08-.1c-4.63-.39-8.06-3.53-12.1-5.28-.43-.18-.88-.3-1.79-.61.07 5.7-.26 11.13-2.05 16.35-.4 1.17.39 2.05 1.07 3.08 1.92 2.87 2.82 6 .83 9.33a4.1 4.1 0 0 0-.64 2.36c.5 9.74 3.44 18.92 6.76 27.95.65 1.77 2.2 3.35 2.65 5.39.36 1.64.71 3.28-1.21 5.07-2.43-8-5.8-15.46-7.6-23.42-1-4.37-2-8.72-3.15-13.05a12.64 12.64 0 0 1-.19-6.67c.33-1.25 1.24-3-1.11-3.86-.86-.32 0-1.49.36-2.15A7.71 7.71 0 0 0 370 290c-1.62-8.14.64-15.82 3-23.38 2.44-7.84 4.29-15.66 4-23.94a26.16 26.16 0 0 0-1.81-8.7c-1.05-2.77-1.75-5.67-2.66-8.73-1.67 2.82.88 5.32 0 8a16 16 0 0 1-1.67-6.74c-.13-5.94-2.12-11.33-5-16.49-2.17-3.89-4.46-7.9-2.12-12.63a3.68 3.68 0 0 0 .15-1.48c.32-13.73-1.9-27.12-5-40.73-1.89 2-2.07 4.39-3 6.42-.36.82-.8 1.51-1.81 1.22s-1.65-1.12-2.77-.51a2.77 2.77 0 0 1-3.15.15c2-1.94 4.3-3.46 6.17-5.41 2.48-2.59 2.69-5.58 2.76-8.76s.31-6.38-2.78-8.54c-.23-.16-.28-.58-.41-.88.11-.1.33-.23.31-.3a2.81 2.81 0 0 0-.29-.62c-.25-.09.09-1-.63-.44l.74.32v1.15c-4.62-.23-7.14 2.54-8.86 6.32-1.25 2.75-3.48 4.24-6.13 5.33-1 .42-1.52-.13-2-.81l-.1.12c.9-.35.51-.72 0-1.1l.06.07c3.83-2.22 6.64-5.66 9.92-8.52 2-1.71 2.62-4.56 2.93-7.13a22.41 22.41 0 0 1 4.5-10.79c.69-.93 1.55-1.73 1.7-3 .69-5.66 2.05-11.24 1-17-.85-4.52-2-9-2.11-13.65l1.7 1.25c.6-1.1-.31-1.82-.65-2.66-.1-.24-.14-1.13-.81-.37l-.18 1.87c-3.42-8.89-9-16.85-11.05-26.79-1.49.9-1.19 3-2.91 3.29-1.28.19-2.52.82-3.76-.25.1-2 2-2.8 2.75-4.35l-.13.11c1.5.09 1.95-.88 2.12-2.11l-.09.13a2.13 2.13 0 0 0 .77-1.81q.26-.28.51-.56l.24-.24-.48-.46a57 57 0 0 0 5.13-14.28c.77-4.16 2.43-8.18 3.81-12.21 1.9-5.53 2-11.35 3-17.05.15-.95.33-2.09-.64-2.74-1.29-.87-2.06.4-3 .94-1.82 1.07-3 3.11-5.32 3.43v-1.17l.27-.14-.15.25-1 1c-.42.36-.21.07-.1-.1h1.11l-.13 2.07.11-.11c-2.33.6-4.54 1.34-5.1 4.12l.08-.08c-2.31-1.1-4 1.24-6.09 1.13v-1.2c.71.05 1.12-.19 1-1 .78.1 1.17-.18 1-1q.61.22.68-.3c-.1 0-.24-.05-.29 0a2.13 2.13 0 0 0-.27.41 1.22 1.22 0 0 0-1 1 1.1 1.1 0 0 0-1 1 3.54 3.54 0 0 0-.33.36c-.25.26-.13.48.26.65zM127.94 167.76a1.67 1.67 0 0 0 .43-.09c.08 0 .1-.17.15-.26l-.48.46-.28.32zm213-152a3.47 3.47 0 0 0 .2.35.83.83 0 0 0 .19.14l-.5-.38-.34-.29zM175 144.92a1.63 1.63 0 0 0-1.7.32s.16.3.28.33a.92.92 0 0 0 1.32-.76l1.4-.3c-.13-.15-.26-.42-.4-.42a.79.79 0 0 0-.9.83zm14-119.1a1.27 1.27 0 0 0 1.44 1c.29 0 .82-.18.83-.32.08-.63-.52-.55-.89-.6a9.91 9.91 0 0 0-1.46 0 7.41 7.41 0 0 0-5.73-1.85 7 7 0 0 0 5.81 1.77zM343.36 9.57c-4.91 1.73-10.27 2.53-13.91 6.94a6.92 6.92 0 0 0 7.39-1.71c2.04-1.89 4.34-3.5 6.52-5.23zM181.43 23.25a7.46 7.46 0 0 0-1.43-.15c-.49.05-.54.3-.14.44a2.06 2.06 0 0 0 .86.15c.19-.01.37-.22.71-.44zm34.89 6a2.46 2.46 0 0 0-.8-.26 2.59 2.59 0 0 0-.8.3 2.49 2.49 0 0 0 .81.26 2.44 2.44 0 0 0 .79-.31zm77.91-2.68c-.05.14-.18.31-.14.43.14.5.38.51.59 0a.55.55 0 0 0-.1-.44c-.04-.03-.23.01-.35 0zm-1.84.81c-.09-.08-.16-.2-.25-.22a.59.59 0 0 0-.41 0c-.27.18-.17.32.26.33a1.17 1.17 0 0 0 .4-.12zm-43 3.9c-.15 0-.34-.15-.44-.09-.33.17-.22.32.29.34-.01-.01.05-.17.1-.26zm-54.08 3.21c0-.11 0-.27-.08-.31a.52.52 0 0 0-.41-.07c-.39.19-.35.39.1.49.08.02.2-.08.34-.12zm197.42 243.85c-.1-.11-.2-.32-.28-.32a4.73 4.73 0 0 0-.81.2c.1.11.2.31.3.3a4.4 4.4 0 0 0 .79-.18zM131.59 167.06c0-.13.14-.3.09-.38-.2-.32-.42-.28-.52.1a.45.45 0 0 0 .13.35s.2-.04.3-.07z"/><path d="M100 323.89c4.76-2.18 6.84-6 5.86-11.07-.25-1.29-1.05-2.5.62-3.72 1.83 1.71 1.51 4.55 3.13 6.33a15.08 15.08 0 0 0 10-4.74c2.83-2.76 4-6 2.4-9.87a13.47 13.47 0 0 1-1-3.32c-.3-2.21-1-4.11-3-5.32-1.25-.74-1-2.4-1.92-3.4l-.11.12c2.67 0 4.61 1.65 6.7 2.92.76.46 1.65 1.13.29 2.22-1 .81.29 1.35.72 1.86 1.38 1.62 2.64 3.29 2.79 5.49 1.74-.17 2.11-1.37 2.54-2.39 1.65-4 3.25-8 4.84-11.95.24-.61.64-1.36.48-1.91-1.15-4 1.51-6.86 2.78-10.13 1.38-3.55 2.59-7.17 4.17-10.63 2.57-5.62 2.39-11.21.57-17-.88-2.79-2.26-5.52-1.79-8.61l-.08.08c.67-.37.49-.75 0-1.13l.1.1c-.39-.6-.77-1-1.14 0l.1-.12c-.87-.39-.95-1.16-1-2l-.1.1 1.11-1.1-.09.09 1-.09a2.06 2.06 0 0 0 .24.38c.06.06.18 0 .28.06l-.63-.34c.61-.7 1.33-1.19 1.77 0 .87 2.47 1.62 5 2.39 7.5.38 1.25.7 2.52 1.23 4.42 2.28-3.07 4.24-5.73 6.24-8.36.35-.46.48-1.36 1.41-1 1.12.41.58 1.25.56 2 0 1.8-1 3.49-.55 5.33l.1-.09c-1.12 3.2-2.36 6.37-3.33 9.62-1.69 5.6-.8 7.3 4.69 9.77.24.11.34.5.5.77l.09-.11-4.81-.38c1 2 2.74 2.26 4.32 2.7a17.83 17.83 0 0 0 3.91.64c3.33.15 6.61-.54 9.89-.77 3-.21 6 1.72 9.17.1a2.55 2.55 0 0 1 1.89.3c3.25 1.63 6.73 1.66 10.21 1.41 2.6-.19 4.94.83 7.18 1.71a27.89 27.89 0 0 0 11.1 2.36c.82 0 1.68.06 2.07 1l.07-.09c-4.51.28-8.85-.06-13.09-2.08a21.16 21.16 0 0 0-13.63-1.43 67.14 67.14 0 0 1-23.24.86c-3.6-.5-7.29-.26-10.94-.47-1.93-.11-2.94.68-3.77 2.43-1 2-1.51 4.35-3.43 5.84v-3.18a1.25 1.25 0 0 0 .44-.06c.08 0 .08-.21.12-.32l-.45.49c-1.22 1-1 2 0 3-.81 2.28-1 2.34-3.06 1 .69-.69 1.24-1.41.3-2.57l-.19 2.66c-1.45 3.5-1.59 7.39-3.27 10.81a8.17 8.17 0 0 1-.86 1.18l-.27-.36.37.27a2.87 2.87 0 0 1-1.09 2.09l-.3-.33.4.24c-1.19 3.2-2.19 6.49-4.26 9.27-1.94 2.61-1.82 5.86-2.86 8.75l.1-.08c-.47.39-1.14.79 0 1.16l-.12-.08a12.71 12.71 0 0 1-8 3l.09.1-.11-1.1c2.65.16 2.38-1.83 3-3.58-2.56.4-1.65 2.78-2.9 3.68-.86 0-1.71 0-2.1 1l.11-.09c-.39.37-1.22 0-1.32.72a7.91 7.91 0 0 0 1.32.38l-.09-.09c-.6 1.4-1.89 1-3 1.1l-.24-.24.34.14a76.67 76.67 0 0 0-21.46 23.88c-1.89 3.31-4.12 6.64-8.37 7.69-.82.2-1.44 1.32-2.11 2.07-1.21 1.35-2.23 2.93-4.17 3.37l.07.06a3.22 3.22 0 0 0-2.11-1.09l.1.1c1-1.46 2.68-1.8 4-2.72 5-3.49 7.7-8.58 9.56-14.08 1.6-4.72 1.34-4.81 3.41-7.18l-.09-.1c.13.44.2 1.25.39 1.28 1.72.26 3.14-2.11 2.64-4.31l.1.1c.34-1 1.22-1.38 1.94-1.95l-.09-.12c.38 1.08.77.69 1.16 0l-.12.12a1.31 1.31 0 0 0 1.12-1.12zm79.29-54.55A26.44 26.44 0 0 0 164 270.7c5.31.12 9.77.38 15.28-1.36zm-29 .13c-.21-.3-.26-.48-.39-.56-.75-.49-1.43-1.34-2.46-.65a.84.84 0 0 0-.1.81c.51.76 1.33.67 2.1.62a7.09 7.09 0 0 0 .88-.22zm-6.5 2.53l-.26-.84c-.1.07-.28.14-.29.22a1.93 1.93 0 0 0 0 .86c.18.29.42.19.58-.24zm192.1 111.8a5.19 5.19 0 0 0 4.11 4.1l-.12-.13a1.38 1.38 0 0 0 1.12 1.12l-.12-.11 1.11 1.11-.1-.09 10 10.37c-1.58.89-2.34-.31-3-1-4.39-4.22-9.75-7.29-14-11.69a1.9 1.9 0 0 0-.79-.59c-4.23-1-5-4.62-6.26-8-1.61-4.49-2.91-9.11-5.59-13.26.12 8.8-1 17.48-1.32 26.2l.1-.08c-1.84-2.75-.88-5.75-.54-8.6.44-3.64 1-7.23-.26-10.81a3.69 3.69 0 0 1 .06-2.44c1.37-4.16.7-8.23-.71-12.2-2.65-7.46-6-14.64-7.38-22.57-.61-3.44-3.36-6.47-6.55-8.55a68.22 68.22 0 0 1-9.39-7.43c-2.48-2.32-5.62-3.52-8.43-5.27a3.65 3.65 0 0 0-2.87-.52c-3.82 1-8.06-.4-11.62 2.09a1.87 1.87 0 0 1-1.44.23c-5.94-1.91-12.29 0-18.2-2-.23-.08-.37-.43-.57-.67a1.58 1.58 0 0 1 2.33-1c2.87 1.87 4.65.1 6.53-1.61.72-.66 1.06-1.74 2.24-2 1.6.8-.91 2.82 1.11 3.66 2.18.91 4.57 2.26 6.68 1.39 4-1.66 8.15-1.36 12.25-1.65 2.09-.15.53-1.3.61-2a4.18 4.18 0 0 0 .45 0l1.3-.3c-.09-.11-.17-.29-.29-.33-.71-.19-1.07.24-1.35.8a7.91 7.91 0 0 1-1.48-.11c-.65-.17-1.37-.5-1.24-1.29s1-.67 1.58-.76 1-.18 2-.38c-4.81-2.62-9-5.35-11.84-9.55l-.08.08a4.62 4.62 0 0 1 2.93.18c1.16.58 2.11 2.18 3.53.11.49-.71 1.37.38 1.9 1 1.62 1.89 2.83 4.07 4.53 5.93 3.74 4.1 8.65 6.48 13.22 9.32 2.9 1.8 5.41 3.92 6.85 6.93a19 19 0 0 0 8.17 9 15.62 15.62 0 0 1 2.63 2.28l.5.46c1 1.73 1.85 3.38 1.66 5.58a24.63 24.63 0 0 0 1.15 8.75q2.2 7.66 4.37 15.34c1.38 4.89 4.71 8.7 7.16 13a17.77 17.77 0 0 1 2.34 6l.11-.09c-.93.36-.33.76 0 1.14l-.09-.1 1.11 1.11zm-3.34-.71l-1-.92c-.09.23-.31.5-.25.68a1.07 1.07 0 0 0 .59.58c.11.05.39-.19.66-.34zM94 99.83c-3-1.49-3-4.62-3.49-7.19-2-10.34 3.41-21.83 15.79-22.91 1.34-.12 2.52-.31 3.73.52a2.07 2.07 0 0 0 3.06-.5l-.1.12c2 1.19 3.45 3.08 5.05 4.75 6.49 6.72 4.94 22.28-1.64 28.41a5.33 5.33 0 0 1-3.9 1.76c-3.32 0-6.64.12-10 .14-1 0-2-.1-2.61 1l.08-.08a9.8 9.8 0 0 1-4-4c.1-.09.29-.17.29-.26a2 2 0 0 0-.14-.56 3.06 3.06 0 0 0-.39-.37 3 3 0 0 0-.63-.65l-.29-.29c-.4-.51-.62-.05-.88.16zm22.05-25.07a1.68 1.68 0 0 0 .09.46c0 .08.19.11.29.16l-.5-.52a3 3 0 0 0-2.62-1.7c.96 1.09 1.69 1.66 2.74 1.6zM98 89.9a2.36 2.36 0 0 0-.18-.37c0-.06-.15-.08-.22-.12l.51.39c-.17 4 2 6.41 5.25 8.15.86.46 1.83.85 2.66-.15 3.12.8 5.14-.88 6.59-3.26a17 17 0 0 0 2.6-7.95 7 7 0 0 0-6.58-7.76 13 13 0 0 0-7.26 1.23c-3.71 1.81-4.55 4.58-2.67 8.41a7.39 7.39 0 0 1 .3 1.44zm18.61 1.1l-.07-.41a1.17 1.17 0 0 0-.19.35 1.3 1.3 0 0 0 .07.41z"/><path class="cls-1" d="M145.95 76.83c-.06 2-2.06 3-2.29 4.89-2.59.15 1 3.86-2.18 3.82-.47 0-.18 1.21.3 1.69 2 2 2.62 4.83 4.25 7-1.16 1-2 .53-2.86-.06a20.36 20.36 0 0 0-2.36-1.81c-.88-.45-1.15 2.31-1.81.92-.9-1.92-2.73-2.21-3.94-3.43-.48-.48-.91-1.12-1.62-.84-1.08.43-1.6.09-1.49-1 .29-2.59-.73-5.37 1.12-7.73a1.88 1.88 0 0 0 0-2.31c-1.42-2.32.08-2.89 1.95-3.23v1.09c-.31.25-.37.24-.1-.1s1.26.25 1.29-.66a10.73 10.73 0 0 0-1.33-.2 24.41 24.41 0 0 1 5-5.84c3-2.81 4.28-7 5.91-10.81.39-.91.6-1.89.91-2.84.14-.44.15-.42-1.17-1.34a1.29 1.29 0 0 1-.5-.68c-.8-3.31-3.71-3.43-6.22-4.08a10.3 10.3 0 0 0-8.14 1.2A4.83 4.83 0 0 0 128 55c.2 2.53-.39 4.49-2.46 6.07-1 .73 0 2.79-2.05 3.17-1.09-3.07.83-6.65-1.57-9.43l.09.08c.77-1.2 1.55-2.4 2.3-3.61.56-.91.75-1.79-.38-2.45l.08.08c5.88-5.84 12.66-8.53 21-6.2 3.54 1 6 3.32 8 6.16-.24.35-.49.7-.7 1.07 0 .05.21.32.21.31.6-.37.19-1 .37-1.49a2.2 2.2 0 0 1 1.57 2.7c-1.2 5.28-2.46 10.54-3.77 15.81-.06.23-.49.36-.74.54l.1.08c-.37-.81-.75-.54-1.12 0l.1-.1c-1.93 1.66-1.94 4.61-4.08 6.14-.34-.4.17-1.17-.6-1.38l-.25 1.39c-.7-.06-.95.38-1.09 1a2.44 2.44 0 0 0-1 2 2.05 2.05 0 0 0-.33.21c-.05 0-.05.14-.07.22l.29-.53c1.25-.2 1-1.16 1-2 .73.1.92-.42 1.09-1h1.08c-.14.6-.25 1.22-.44 1.81s-.89 1.18-.25 1.65c.3.22 1.09-.23 1.65-.38zm-1.89-28.74c-.5.17-.59.41-.3.71.75.78 1.32 1.84 2.95 1.68-.61-1.31-1.26-2.25-2.65-2.39zm-1.48-1.45l.88-.2a3.08 3.08 0 0 0-.83-.29 3.27 3.27 0 0 0-.88.19zm-1.24 1.62l-.81.05a1.19 1.19 0 0 0 .35.24.78.78 0 0 0 .42-.06s.03-.14.04-.22z"/><path d="M59 94.86a2.23 2.23 0 0 1-1.85-2.09c-.11-6.78-1.26-13.6.56-20.32.33-1.2.07-2.84 2.11-2.72s2.85 1 3.31 3c1 4.12.77 8.26.86 12.41.01 2.86.44 3.07 3.18 1.86.55-.24.86-.83 1.69-.64 3.67.83 6.66.23 7.93-3.95.05-.17 1.21-.4 1-1.18-.69-3.23 1.8-6.26.22-9.7-.85-1.86 1.8-3.25 2.65-5l.49 3.93c1.1-.46 2.19-2.41 3 .16S86 75.95 86 78.85c.05 2.32.52 4.63.64 6.95.19 3.78.82 7.53-.55 11.33-.77 2.13-.29 4.61.43 6.84a8.27 8.27 0 0 1 0 5.59c-3.12 0-3.86-3.37-6.22-4.4l-1 2.18c-1.27-.17-1.07-1.27-.88-1.88.9-2.87.07-5.62-.45-8.37-.48-2.53-1.94-3.3-3.69-1.59-1.35 1.32-2.6 1.61-3.94 1a16.31 16.31 0 0 0-9.23-.91 2.14 2.14 0 0 1-2.19-.86 16.77 16.77 0 0 0 1.9.19 1.28 1.28 0 0 0 .78-.38.91.91 0 0 0-1-.66 1.89 1.89 0 0 0-1.6.98zm1.27-2.36c.38-.18.5-.49.26-.82s-.49-.55-.72-.53c-.68.06-.57.6-.34 1 .11.19.53.23.78.35zm13.17-4c.61 0 1 .1 1.45.1.13 0 .25-.14.38-.21a4.69 4.69 0 0 0-1-.35c-.27.02-.47.26-.86.5zm-7.94 3.71c0 .11.05.27.13.31a.63.63 0 0 0 .45 0c.41-.17.36-.36-.14-.45-.17.04-.33.13-.47.17zm8.24.16l-.28-.16v.22zM65.93 295.8a58.44 58.44 0 0 1-11.07 11.34c-6 4.93-7.11 11.3-6.38 19 4.57-1.9 7.71-4.74 10.75-7.68 1.06-1 1.79-2.39 3.13-3.17.59-.34 1.13-.73 1.72-.09s.34 1.21.17 1.87c-.27 1.09-1.24 1.47-2 2.14a53.76 53.76 0 0 0-5.25 5.86c-1.65 2.09.2 2.08 1 2.83l-.1-.1c-3.67 2-7.32 4-11 6a2.46 2.46 0 0 0-1.42 1.37c.31 2 3.11 1.71 3.45 3.7-.09.12-.27.24-.26.34a3 3 0 0 0 .23.67l1.06 1.06-.14-.12a6.56 6.56 0 0 0 2.9 3.05c1.36.94.89-.59 1.22-1l-.07.07c1.87.42 1.87 2.69 3.66 3.59 3.31-3.7 8.07-5.39 12.46-7.46 3.54-1.67 5.11-4.5 6.54-7.54.55-1.17.68-2.47 2-3.28a4.36 4.36 0 0 1-.31 4.64c-2.79 3.94-5.81 7.72-9.83 10.44a11 11 0 0 0-4.02 4.67 4.32 4.32 0 0 1-1.27 2.08c-2.81 2-2.83 2.26-.64 5l.61.76c-.47.24-1.26-.21-1.41.61 0 .17.4.63.59.61.85-.07.32-1 .7-1.35 3 .59 6 1.74 9 .09l-.06-.08c-.06.55-.35 1.44-.13 1.59.83.57 1.39-.15 1.86-.77a4.27 4.27 0 0 0 .39-.83l-.13.11c.91 0 1.89.17 2.13-1.11l-.14.12H78l-.07-.06a18.88 18.88 0 0 1-10.77 6.47 7.54 7.54 0 0 1-7.32-2c-2.39-2.31-4.81-4.69-4.79-8.41a3.07 3.07 0 0 0-2.08-3c-4.29-2-6.77-5.82-9-9.65-1.83-3.1-.66-6.47.8-9.48.43-.88 1.09-1.45.77-2.6-1.54-5.52.87-10.42 2.6-15.4a3.75 3.75 0 0 1 1.52-1.9c5.56-3.71 10.66-7.92 14.49-13.49.16-.23.57-.28.86-.42l-.1-.1A1.49 1.49 0 0 0 66 295.9zM263 109.86a20.87 20.87 0 0 0 0-2.49c-.32-3.38-.26-3.08-3.53-2-3 1-6.3 2.64-9.49.32-1.33-1-3.34-.3-4.43-1.82.24-1.36 1.24-.93 1.91-1a8.65 8.65 0 0 0 7.24-6.27c.43-1.7-.06-3-1.76-3.58-1.51-.51-3.1-.56-3.72 1.3-1 3.12-3.8 5-5.39 7.67-1.12 1.9-2.29 2-4.06.86-5.14-3.24-8.72-8-12.63-12.47a5.91 5.91 0 0 1-1.14-5.62l-.11.11A19 19 0 0 0 236 87.06a64.77 64.77 0 0 1 8.86.69c3.54.31 6.81 1.07 9.38 3.78 1 1 1.68.7 1.8-.72l-.1.1c3.31 1.83 5.24 5.22 6.75 8.18s2.83 7.09.19 10.67zm-7.09-10.1h1.14a3.28 3.28 0 0 1-1.26 2.49c1.28.55 2.52-.06 4.09.07-.85-1.3-.15-3.86-2.94-2.44-.3-.43-.6-.65-.93 0l-.28.27zm-21.7-5.3a6.39 6.39 0 0 0 3.42 4.7c.73.37 1.45 1 2.24.33a1.37 1.37 0 0 0 .06-2.16c-1-1.05-.91-2.44-1.34-3.66s.34-3.95-2.19-3.7c-2.32.23-.87 2.85-2.17 4.49zm7.53 6.63l-.32-.87c-.1.13-.31.27-.29.38a5 5 0 0 0 .3.87zm59.26 1.79c-1.57-1.34-2.57-.91-3.11 1l.11-.1c-1.68.37-3.57 0-4.71 2a3.38 3.38 0 0 1-3.45 1.4c-1.35-.21-.79 1.16-1.33 1.62-1.21-1.27.93-4-1.94-4.61a3.06 3.06 0 0 1 0-1.37c.51-2.76 1-5.53 1.63-8.25a4.44 4.44 0 0 1 1.57-2.45 43.48 43.48 0 0 1 17.52-7.51c3.85-.64 7.69-.14 11.49 0 2.85.08 5.91-.58 9.19.76-2.71 2.23-6.34 2.54-8.06 5.47l.11.1c-.07-.81.16-1.68-.58-2.43-1.85 2.49-4.41 4.43-5.55 7.44l.13-.11c-.53.22-1.06.44-1.12 1.13l.12-.09c-1.56-2-1.33-4.59-2-6.89a8.34 8.34 0 0 0-1.5-3.55c-.25-.27-.9-.28-1.35-.24s-.76.33-.67 1a22.53 22.53 0 0 1-1.51 11c-.49 1.36 1 1.38 1.87 1.59l.19.24c-2 1.91-4.19 3.35-7.16 2.8zm-5-3.94l-.1-.1c.16.64.28 1.42 1.05 1.53a16 16 0 0 0 6.3 0c-2.33-3.21-3.89-6.57-6.41-9.23-4.84 2.99-4.03 4.75-.84 7.8zm-4.57-.73a2.59 2.59 0 0 0-.25.54c-.09.59-.44 1.34.27 1.66a2.2 2.2 0 0 0 1.74.06c.47-.27-.15-.69-.4-1-.39-.4-.86-.81-1.34-1.26zm25.84-11.51c0-.65-.46-.82-.9-.79a4.18 4.18 0 0 0-1.21.5c.21.38.33 1 .64 1.1.69.28 1.2-.18 1.47-.81zm-55.34 27.14c1.21 2.12 1.35 4.6 2.34 6.85.76 1.72 1.3 2.57 3 2 4-1.39 7.85-2.34 12.06-.92 1.18.4 2.63-.13 3.94 0a2.54 2.54 0 0 0 3.06-1.83 6.08 6.08 0 0 1 1.2-2.14c1.93-2.06 3.78-1.51 4.88 1.17.74 1.79 1.29 3.79.05 5.14-.7.76-1.5 3.59-3.75 1.57-.47-.43-1 0-1.27.31-3.17 3.42-8 4.46-11.1 8.12-1.48 1.77-3.11 1.41-4.44-.61-1.2-1.82-2.22-3.28-4.79-3.76-2.32-.43-4.26-2.45-5.65-4.6-.54-.84-.64-2.43-2.09-.72-.2.24-.92-.47-.79-1 .89-3.25 1.08-6.77 3.45-9.49zm14 15.91c.47-.28 1.27-.42.46-1.19l-.34 1.3c-.45.35-1.35.55-.43 1.34zm3.07-4.51c-.17-.53 0-1.37-1-1.19a.91.91 0 0 0-.74 1c0 .62 0 1.34.79 1.45.95.14.69-.78.95-1.27zm.51 3.9l-.13-.72c-.11.09-.26.16-.33.28a5 5 0 0 0-.28.65zm12.36-6.14l-.29-.77c-.1.1-.29.2-.29.31a4.32 4.32 0 0 0 .08.79zm-10.48 1.22a4.94 4.94 0 0 0-.26.84c0 .11.16.24.25.36.14-.21.36-.41.38-.63s-.22-.37-.37-.57zm-7.89 1.2a1.28 1.28 0 0 0-.19.38 1.44 1.44 0 0 0 .08.44 1.26 1.26 0 0 0 .2-.38 1.37 1.37 0 0 0-.09-.45zm2-.21c-.09.11-.27.23-.26.34a5 5 0 0 0 .19.82c.08-.12.24-.24.23-.36a4.76 4.76 0 0 0-.15-.81zm-94.55 257.58c-.05 1.38-1.82 1.68-1.92 3l-.24.26.14-.36c1.44.1 2.57-1.22 4.07-.86l-.09-.1c-4.8 3.36-8.5 8-13.42 11.26-2.36 1.55-3.16 4.24-4.19 6.65-.71 1.66-.93 3.53-1.53 5.25-.31.9-.49 2.68-2.14.83-.58-.65-.61.39-.68.69a31.37 31.37 0 0 0-.83 3.89 21.3 21.3 0 0 0 .55 6.89c-3.1 1.16-1.21 4.08-2 6.05-3.1-1.62-3.47-3.07-2-6.28a9.77 9.77 0 0 0 .56-3.4c.8-11.81 7.14-20.82 14.68-29.23 3.74-1.43 4.75-5.72 8-7.63l.13.16a1.23 1.23 0 0 1 0 .94 2.4 2.4 0 0 0-.32.31c-.19.27-.08.48.3.6l1 1.12z"/><path d="M179.91 379.74c2-2.07 4.6-2.9 7.25-3.43a17.83 17.83 0 0 0 7.88-3.54l-.09.09 2-.11a2.84 2.84 0 0 0 .2.32.7.7 0 0 0 .19.12l-.49-.33c.29-1.15 1.18-1.15 2.1-1.11l.29.31-.39-.2c1.07-1.83 3.12-2.29 4.8-3.14a37.51 37.51 0 0 0 11.78-8.72 21.86 21.86 0 0 1 2.6-2.22l-.09.09c.51-.39 1-.77 0-1.14l.12.09c2.87-3 3-7.44 5-10.84 2.13.39 1.4 2.52 2.39 3.43 2-.48 2.25-3.84 5.09-2.76.52.2 1.09-1.08 1.53-1.79.76-1.25.9-2.87 2.53-4.14a6.76 6.76 0 0 1-1.9 5.91 13.68 13.68 0 0 0-3.23 6.24 3.9 3.9 0 0 1-4.09 3.31 3.52 3.52 0 0 0-2.52 1c-9.26 8.19-19.36 15.09-30.82 19.86-1.36.57-2.46 1.76-4.09 1.67l.07.08c-.71-.84-1.42-1.4-2.12 0l.13-.1c-1.74 0-3.37.19-4.13 2.1l.15-.11-1.13.12-.88-1zm43-28a2.68 2.68 0 0 0 .65-3.41c-1.2 1.1-.21 2.4-.53 3.52-.65.32-.95.64 0 1-.38 1.15-2 1.73-1.54 3.37a4.21 4.21 0 0 0 2.73-2.47c.3-.86-.76-.67-1.3-.79zm69.97-204.97c2.17 1.89 4.61 1.09 7 .59 2.06-.44 4-1.45 6.14-1.47l-.09-.11c.13.58.85 1.58.23 1.68-3.93.63-7.66 2.05-11.65 2.48a31.87 31.87 0 0 1-14.63-2 7.41 7.41 0 0 0-6.57.26c-2.32 1.22-5 1.72-7.46 2.71-2.68 1.09-4.95-1.13-7.6-.51.2-.52.28-1 .42-1 3-.44 6.1-.62 8.5-2.43 2.22-1.68 5-2.65 6.52-5.43.6-1.13 2.43-.26 3.5.26a19.45 19.45 0 0 1 3.67 2.54c2.26 1.84 4.64 2.91 7.69 2.37a18.92 18.92 0 0 1 4.46.25z"/><path class="cls-1" d="M142 115.83a1.41 1.41 0 0 1-1.73 1.27c-2.42-1.45-5.18-2.73-6.91-4.82-1.38-1.66-.5-4.16 1.41-5.71 1-.78 1.19-2 1.79-2.94 1.12-1.83 2.56-3.08 4.88-2.55s4.1 1.52 4.46 4c.34 2.34 1.38 4.84-.94 6.83-.3-.33.39-1.28-.56-1.07-.23 0 .27.74.69 1-.52 1.11-.77 2.42-2.07 3-.37-.51-.74-.63-1.09 0l.11-.09c-.47 0-.94 0-1.4.1s-.93 0-.82.59c0 .14.53.22.82.27.46.07.93.08 1.39.12zm-1.79-2.15l.41-.21c-.12-.1-.23-.26-.36-.27-.43 0-.63.12-.47.36s.21.08.38.12zm.27-10.54l-.17.22h.3z"/><path d="M232.88 55.79c-.35.3-.66.77-1.07.89-3.94 1.17-3.95 1.15-4.69 6.36-1.22-2.45-2.84-3.91-3.61-6-2.88-8-9.14-12.28-16.72-15.2-2.71-1-5.7-1.66-7.8-4l-.06.08 3.11-1-.13-.09a13.1 13.1 0 0 0 5.72 3.64c6.5 2.41 12.21 6 16 11.76 1.31 2 1.91-2 2.55.24a6 6 0 0 0 1.91 3.14c1.39 1 3.21.2 4.84.3zM157 192.78c1.75 0 2.6 1.13 3.28 2.77-3.55-1-7.25.38-10.84-2.24-2.79-2-6.8-2.39-10.27-3.46a26.74 26.74 0 0 1-4.91-1.8c4.5-.44 8.49 1.59 12.89 2.48.21-1.52-1.94-1.49-1.86-2.79a.53.53 0 0 1 .51-.7c.82-.05 2-.41 2.41 0 2.17 2.23 5.23 2.15 7.77 3.34a2.13 2.13 0 0 1 1.14 2.53c-.15 0-.31 0-.46.05l-1.29.27c.09.12.16.31.28.35.71.25 1.03-.25 1.35-.8zm-4.06-.85c-.09-.28.2-1-.56-.53l.68.42a2.35 2.35 0 0 0 .21.32s.13.06.2.08zm9.48 15.36c-1.35 3.41-1.28 7.19-4 10.24-1.76 2-1.9 5.21-2.2 8a13.87 13.87 0 0 1-2 6.59c.75-8.17 2.68-16.2 2.56-24.69 2.81 2.24 2.81 2.24 5.64-.14zm238.49 75.59c4.31 1.68 9 1.64 13.47 2.95-2.41 1.45-5 1.1-7.52.88a61.73 61.73 0 0 1-16.86-4c-.4-.16-.68-.63-1-1l-.09.09H392l-.12-.08c.71 1.22 1.41.63 2.12 0l-.13.07c1.58-.11 2.75.92 4.09 1.5 1.16.5 2.21.63 3-.56zm-143.97 42.87c1.12 0 2.26 0 2.94 1.13l.1-.11c-2.16.75-1.95 2.43-1.49 4.09.37 1.34 1.85 2.22 2 4-2.26-.48-2.85-2.21-3.48-3.55-1.57-3.33-4.32-4.36-7.63-4.48a48.11 48.11 0 0 1-12.1-2.26c5.31-.24 10.51 1.25 15.8 1.13a1.55 1.55 0 0 0 .07.37c0 .07.13.11.2.16l-.38-.42c1.14-1.91 1.72-1.91 4.12 0l-.3.27zm105.99-71.88a18.79 18.79 0 0 1 11 4.9c-2.25-.46-2.9 2.29-5 2l.09.09a10.92 10.92 0 0 0-7.43-2.14c-4 .12-7.91 0-11.87 0v-1c3.41 0 6.82.06 10.22 0 1.41 0 3 .59 4.12-.94l-.13.1c1.21.17 2.29 1.37 4.13.24-1.63-1.35-3.12-2.32-5.15-2.35l.12.12v-1.11zM214.94 126.88a2.82 2.82 0 0 1 .48-.14c2.29-.25 2.66 3.51 5.73 2.41 1.83-.66 3.87 1.31 7.22 2.38-4.16-.3-4.36 2-4.86 4.28-3.51-2.69-8.69-3.27-8.51-9zm140.93 160.9c-1.39 1.9-3.66 2.27-5.62 2.54-3.92.53-6.54 2.2-7.89 6-.29.83-1.25 2.24-2.46.51a7.86 7.86 0 0 0 1.1-.83c.32-.33.5-.76-.2-.93a.51.51 0 0 0-.69.47c-.06.47-.08.94-.12 1.4l-2.12-1.16.09.09c.36-3.28 1.92-5.78 4.85-5.72 4.6.09 8.73-1.73 13.13-2.24zm-168.36-35.22c.06-1.59-.9-3.55.38-4.42s2.43 1.23 3.78 1.67c1.65.53 2.89 2.07 5 1.68.9-.17 1.69.88 2.36 1.66.16.29 0 .53-.44.55-1.62.07-2.82 1.65-4 1.73-1.35.08-2.76-1.5-4.22-2.18a13.92 13.92 0 0 0-2.86-.69zM323.9 396.77c-.6 3.35-1.56 6.72.88 9.83.14.18-.21.94-.52 1.24-.61.6-1.14.27-1.55-.37-1.67-2.61-3.36-5.22-5.06-7.85.77-1.6 1.53.56 2.64-.21-1.11-2.56 1.07-4.94.74-7.67l-.1.08c1.73 1.74.52 4.1 1.33 6.11.92.3.94-1.07 1.73-1.06zm-60.98-14a201.74 201.74 0 0 0-20.1 11.06c-.79-1.72.24-1.93.87-2.29q9.14-5.36 18.31-10.68l-.08-.08c-.47 1.12-.85 2.2 1.07 2.08zM211 340.84c1.19.16 1.58-2.39 2.66-1.19.94 1 3 1.63 2.42 3.78-.18.63-.11 1.32-.25 2-.72 3.43-1.77 4-5.16 2.59-.45-.18-.89-.41-1.41-.66 1-2.12 2-4.21 1.84-6.59zm3 3a4.55 4.55 0 0 0-.44.19c-1.46.81-2.15 1.9-1.2 3.5a.88.88 0 0 0 .85.13c1-.79.35-2 .7-3a2.66 2.66 0 0 0 0-1c.19-.17 1 .16.5-.58zM359 241.8c-2.82.48-5.43 2-8.43 1.89a2.62 2.62 0 0 1 1.27-2.22c1.21-.93 1-1.74.08-2.86-1.27-1.61-3.57-2.2-4.62-4.72 5 1.56 8.06 5.19 11.62 8zM119 364.87c2.16-1.69 4.7-2 7.32-2.07s5-.14 7.42 0c6.11.32 12.15-.5 18.22-.93l-.08-.09c-2.52 1.72-5.45 1.75-8.3 1.91-3.13.17-6.28.09-9.42.1-5.1 0-10.21 0-15.24 1zm230.74-118.2c-3.19-1-5.74.63-7.6-2.2-.75-1.15-2.45-.74-3.77-.75h-10.36c10.47-2.64 15.83-1.99 21.73 2.95zm-183.8 48.17c2.59-4.84 2.32-9.88 1.05-15l-.1.09c.16 0 .43 0 .48.09 2.76 5.08 2.29 15.28-1.58 21.12.94-2.83-1.88-4.44.27-6.41.25.39-.48 1.2.49 1.21a1.45 1.45 0 0 0-.61-1.1zm12.12 61.88c-1.57 1-1.05 3.08-2.43 4.16-.91-1.34.33-2.55.35-3.85.07-3.61.64-7.24-1.55-10.52a2.22 2.22 0 0 1-.06-2.57 4.76 4.76 0 0 1 2.77 3.54 29 29 0 0 1 .82 9.33zM332 286.79c-.6.6-.88 2.64-2.08.5-.39-.7-.5-1.56-1.33-2-1 .45-.84 2.11-2.28 2.26-.09-.43-.38-.94-.26-1.32a38.72 38.72 0 0 1 1.59-4.09c.74-1.62 2.41-1.95 3.07-.47s2.83 3 1.2 5.21a1.37 1.37 0 0 0-.1-.4c0-.06-.18-.07-.28-.1zm-122 27.98c-4.41-.69-8.83-1.31-13.33-.64-.72 1 .42 1.81.24 2.75l.11-.08c-.64-.5-1.25-1-1.92-1.49a2.06 2.06 0 0 0-2.71 0c-1 1 .51 1.68.54 2.6l.06-.09c-1.44 0-2.77-.45-2.77-2.14 0-1.11 1.07-1.63 2.07-1.83 6-1.16 12-2.64 17.63 1zm-1-67.9a74.12 74.12 0 0 1 22.47 4.87c1.08.39 2.17.82 2.5 2.12l.08-.08a118.27 118.27 0 0 0-23.86-6.18c-.41-.06-.75-.55-1.12-.84zm118.89 6.89c-.31.33-.68 1-.93.93-2.48-.44-3.86 1.12-5.39 2.62-1.19 1.16-2 2.86-4.47 3.37 1.08-2.51 1.94-4.5 3.91-5.79l-.11-.11c.38 1 .76 1 1.13 0l-.13.12a1.15 1.15 0 0 0 1.13-1.12l-.11.13c.42-.2 1-.28 1.22-.61 1.67-2.25 2.74-.91 3.82.56zm-158.72-81.11c2.47.79 3.66 3.14 5.57 4.62.59.45 1.4 1.07.63 2a1.41 1.41 0 0 1-1.79.3c-1.24-1.12-4.48 0-3.73-3.42.24-1.09-1.23-1.92-1-3.17zM109 391.84c3.62-2.62 8.05-2.07 12.09-3 2.64-.63 5.53-.28 7.9-2l-.06.06c.86.11 1.14.65.69 1.32s-1.45.63-2.24.75l-18.46 2.84zm143-127.06c-2.09-1.31-4.43-1-6.71-1h-9.42c-.95 0-2.24.29-2.64-.8-.53-1.46.52-2.37 1.75-3l-.09-.07-.27 3h11.64a38.41 38.41 0 0 1 4.4.23c1 .12 1.25.92 1.23 1.82zm77.91 43.04c.75 4.68-1.68 8.29-4 11.94l.09.07a2 2 0 0 1-.34-2.19c1-2.08 2.17-4.08 1.7-6.65-.32-1.72 1.44-2.32 2.67-3.06zm19.01-93.95c1.52.33 2.43 1.56 3.61 2.43.13-.34.27-.65.37-1 .19-.59.15-1.41 1.08-1.37s1 .84.94 1.45c-.09 1.56-1.13 2.67-1.84 3.94-2-.08-2.18-3.93-4.91-2-.54.38-.27-.56 0-.77a3.47 3.47 0 0 0 .87-2.76zM281 353.77c-5.17-1.7-10.38-1.49-15.62-.36a31.12 31.12 0 0 1-3.44.37l.09.11c5.49-3 11.32-2.81 17.21-1.72a2.19 2.19 0 0 1 1.67 1.68zM338.93 40.9c.5.38 1.19.67 1.46 1.17.92 1.71.56 2.5-1.17 2.68-1.43.15-2.88.14-4.33.2a1.54 1.54 0 0 0-.08-.42c0-.08-.17-.11-.26-.16l.45.47-.08 1 .08-.08c-2.53-.15-3.83-2.25-6.45-3.68 4.29-.65 7.23 2.47 10.69 1.54.63-1.09-.61-1.89-.24-2.86zm-79.69 111.69c-2.82.21-4.47.21-6.07.49-1.29.23-2.33.25-2.56-1.29-.17-1.16 1.88-3.18 2.74-2.6s3.89-.51 2.51 2.43zm57.67 101.24c-2.77 3.64-4.92 7.68-7.42 11.52a30.5 30.5 0 0 1 6.51-12.46l-.09-.11 1.12 1.12zm-99.97-101.9a6 6 0 0 0 2 .11c2.51-.73 3.29 1.19 3.82 2.78.43 1.27-1.16 1.81-2.06 2.85-1.89-1.71-2-4.26-3.62-5.86zm66.49-55.53c1.68 2 .86 4.19 1 6.16a1.31 1.31 0 0 1-2.23.84c-1.32-1-2.76-2.11-.39-3.81.66-.5.54-2.14 1.62-3.19zm7.51 134.49c1.58 1.16 2.57 2.75 4 5.26-4.19-1.85-6.46-4.86-9.83-6.24 2-1 3.19.94 4.83.92.38.43.75.69 1.07-.06zm44.94-35.99c.09-.86.36-1.85 1.35-1.68 1.31.22 1.63 1.44 1.65 2.64 0 .84-.11 1.74-1.18 1.8a8.19 8.19 0 0 1-2.92-.2 15.92 15.92 0 0 0-4.85-.7l.1.12c1.71-1.51 4.21-.78 6-2.12.22.63-.33 1.72 1 1.69a.8.8 0 0 0 .57-.54c-.02-1.22-1.02-.91-1.72-1.01zM265.95 93.75c1.83 2.16 2 4.2 2.82 5.94a2 2 0 0 1-.14 2.29c-.49.54-.68 1.63-1.78 1.21a1.25 1.25 0 0 1-.89-1.53c.92-2.35-.11-4.72-.01-7.91zm-3.01 313.03c-2.59 2.38-6 3.17-9.44 5.78 1.75-3.43 2.47-4 7.48-6.71l-.07-.07 2.12 1.09zM209 246.77c-1.75 0-3.6.41-5.39-1.28 3.13-2 6-3.76 9.36-4.62l-.08-.08c-1.38 2.64-4.63 2.55-6.52 4.46.49 1.12 2.2.32 2.56 1.63zm140.7 81.83c-.85-2.49-2.72-5.08.34-7.83a7.2 7.2 0 0 1-.34 7.83zM295 417.76c-5.72-.29-11.38.48-17.05 1l.07.09c5.2-2.85 10.77-2.27 16.33-1.75.21 0 .38.48.57.74zm51.95-389.91c-1.91 1.49-4 .82-6 .41-1.46-.3-2.88-.84-4 .64l.08-.08c-1.37-.37-2.11-1.36-2.74-3 4.4.69 8.45 2.19 12.72 2zM337 149.79c-.54.35-1.11.66-1.63 1-1.2.89-2.22 1.16-3.26-.33a21.19 21.19 0 0 0-2.8-2.66c2.88.6 5.37-.33 7.67 1l-.06-.07v1.1zM30.88 309.72A24 24 0 0 1 41 301.86v-.06c-2.53 3.6-6.36 5.65-9.77 8.2zM214 125.81c-3.16-1.08-5.17-3.69-7.6-5.75 3.28.92 6.86 1.45 7.53 5.82zM294.89 49c2.48.27 4.66 1.5 7 2.18-3.76 2.63-4.28 2.46-6.9-2.28z"/><path d="M362 254.76l-8.63-5.11a21.14 21.14 0 0 1 9.59 4.22l.07-.1-1.12 1.11zM204.94 54.83c.18.74.17 2.34.88 1.93 2.8-1.59 4.09 2 6.49 1.3-2.66 2-5.33-.8-7.94.34-1.61-1.51-.65-2.54.66-3.5zm135.98-18c-.78 1.38-2.42.5-3.41 1.23-.28 1.37 1.51 1.62 1.41 2.84l.08-.09c-2.81-.62-4.24-3.19-6.55-4.65 2.92 0 5.69 1 8.57.76zm-5 10.07c1 .33 1.33 1.07.48 1.69s-2.25.43-3.37.29c-2.92-.34-5.76-1-8-3.09l-.08.09c2.06-.24 3.74 1 5.63 1.44s3.77 1.31 5.43-.51zM267 404.86c3.12-2.63 7.07-2.91 10.81-3.77a1 1 0 0 1 1.1.76l.07-.07-12.07 3zM69 222.79a16 16 0 0 1-10-5l-.07.08a33.93 33.93 0 0 1 10 5zm194 160.07a13.26 13.26 0 0 1 12.94-1l.09-.09c-4.42-.35-8.73.71-13.11 1zm-100-90.03v10.29a10.06 10.06 0 0 1-.63 2c-.79-4.58-.91-8.4.63-12.29zm54-54.97a45.5 45.5 0 0 1 7-7l-.08-.07a10.6 10.6 0 0 1-7 7zm34.95 26.98c1.51 1.21.17 2.45-.16 3.5-.63 2-.89 4.2-2.58 6.38.16-3.88 1.71-6.86 2.84-9.95zM324 313.86c0-2.73-2-5.22-1-8.07l-.09.08c.45.13 1.26.18 1.31.4.56 2.51 1.8 5.09-.31 7.5zm-155 62.93c-2.19-2.09.07-4.17-.41-6.22 1.52-.21 1.7.84 2.25 1.36.89.85 1 1.53-.48 2-1.31.44-1.17 1.87-1.46 3zm123.65-211.43c-1.56 0-2.29 2.36-3.88 1.48-1-.54-1.06-1.9-.46-3.22a10.13 10.13 0 0 1 4.34 1.74zm23.23 125.56c2.71 2 3.62 4.82 4 7.93l.09-.08c-2.06-2.29-3-5.13-4-7.94zM340 118.86c.26-.41.49-.83.78-1.21s.66-.75 1.23-.58a1 1 0 0 1 .75 1.09 14.34 14.34 0 0 1-.68 2.83c-.24.65-1 1.1-1.53.63-.4-.34-.38-1.18-.54-1.8l-.12.11c.91-.38.61-.77 0-1.16zM137 234.78a19.31 19.31 0 0 1-3.48-5c2.93.78 4.24 1.82 4.42 4.07l.08-.08-1.11 1.12zm130.91 186.98c-1.31 1.43-3 1.6-5.35 1.6 1.36-2 2.45-3.31 4.44-3.51l-.07-.07c-.54 1.15-.69 2.11 1.06 2.08zM178 367.83v-11.11l-.11.09a14.19 14.19 0 0 1 0 10.92zm40-167.94c2.24-2.11 5.08-2.62 8-3l-.08-.1a12.78 12.78 0 0 1-8 3zm-8 14.97c2.63.8 5.3 1.53 7 4l.08-.09c-2.71-.67-5.25-1.63-7-4zm66.93 168c2.77 3.06 2.77 4.11 0 7.9l.09.08c.59-2.69 1-5.37 0-8.06zM125.88 329.2h8.21v.19h-8.21zm84.01-29.27c2.49.76 3.2 1.72 2.45 3.5a1.56 1.56 0 0 1-1.13.74 1 1 0 0 1-.95-1c-.1-1.13.51-2.3-.24-3.39zm96.34-9.72c-2.33-1.63-3.46-3-4.1-5.37 2.78.77 3.31 2.57 4.1 5.37z"/><path d="M323 305.8a10.8 10.8 0 0 1-3-7l-.09.08c2.07 1.88 2.74 4.36 3 7zm-54 112.05a13.85 13.85 0 0 1 5-5l-.08-.09a6.57 6.57 0 0 1-5 5zm-58.07-101.98c2.74 2.69 2.74 3-.35 5.71 1.49-1.9 1.13-3.84.42-5.78zm-3.05-212.1c.31 2-.59 2.48-2.11 1.38a2.61 2.61 0 0 1-1-3c1.55-.21 1.67 2 3.17 1.78zm114.04 224.02c-.3 2.42-2.17 3.73-3.71 5.27l-.5-.46a7.89 7.89 0 0 1 4.3-4.73zm-9.01-229.98a6.92 6.92 0 0 1-4.85 2.17l-.19-.24c1.27-1.85 2.87-2.77 5.13-1.83zM323 251.87c.06-3.43-2.09-.67-3.1-1.1l.11.11a4.75 4.75 0 0 1 3.45-2.39 2.23 2.23 0 0 1-.57 3.27zm-10-84.75c-2 1.88-3.31 2.05-4.89 1.35 1.15-1.73 2.74-1.47 4.89-1.35zM343.93 22.9a9.39 9.39 0 0 1 3.74 3.67c.42.6.17 1.22-.72 1.29-.53-2-3-2.74-3-5zM238.92 190.79a6.64 6.64 0 0 1-6 3l.07.08a11.33 11.33 0 0 1 6-3zm42.01 163.06c2.5 2.66 2.63 3.53 1 6.92l.09.08a26.23 26.23 0 0 0-1-7.08zm-49.25-216.17a3.82 3.82 0 0 1-2.71-3.3c1.13-.2 2.33-.46 2.95.51a2.87 2.87 0 0 1-.24 2.79zM266 377.86a7.12 7.12 0 0 1 5-4l-.08-.07a7.61 7.61 0 0 1-5 4z"/><path class="cls-1" d="M148.93 70.82c0 2.5-.64 4.67-3 6l.07.06a13.78 13.78 0 0 1 3-6z"/><path d="M241 121.57c-3.23 1-4.1-.17-4.19-2.72zm2.9 215.02c.3 1.68.52 2.84.71 4a.81.81 0 0 1-.76 1c-.74.12-.78-.53-.8-.94-.05-1.22-.48-2.53.85-4.06zM338 60.87a9.9 9.9 0 0 1 4-4l-.06-.08v2.14l.09-.13a2.11 2.11 0 0 0-2.12 2.11l.13-.11h-2.14zM220.71 181.4a10.51 10.51 0 0 1-5.59-.13 11.68 11.68 0 0 1 5.59.13zM341 36.92c.52-1.87-.82-3.37-1-5.1l-.07.07c1.45.45 1.94 1.72 2.4 3s-.24 1.81-1.4 2zM362.44 191c.28 1.72 1 3.5 0 5.36-1.32-1.87-.22-3.63 0-5.36zm-198.12-5.71c1.86-.93 2.92.32 4.23.72-.3 1.13-1 .79-1.51.75a3.28 3.28 0 0 1-2.72-1.47zM31.2 310c-.58 1.7-1.73 2.83-4 4a7.17 7.17 0 0 1 3.66-4.28zM203 210.8c-1.82 0-2.77-1.22-3.6-2.53a.87.87 0 0 1 .61-1.39l-.08-.09c.38 1.82 2.59 2.29 3 4.09zm120.91 102.98a1.62 1.62 0 0 1-.5 1.71c-.65.49-1.29 1.82-2.2.7a1.53 1.53 0 0 1 .78-2.32l-.09-.09c.37.67.75.51 1.13 0l-.09.08H324zM205 54.91c-.3-.73-.29-1.61-1.08-2.08l.07.09c.17-.72.76-1 1.35-1.2a7 7 0 0 1 1.26-.21c0 .45.26 1 .1 1.33-.38.83-.66 1.83-1.81 2zM46.94 295.78a4.5 4.5 0 0 1-4 4l.08.08c.73-1.92 2.35-3 4-4z"/><path d="M200.95 49.85c-.29 2.34.68 3.41 3.08 3.06l-.07-.09a2.11 2.11 0 0 1-3.49.57 2.06 2.06 0 0 1 .58-3.46zM224 224.77a9.73 9.73 0 0 1-4-4l-.07.08a4.47 4.47 0 0 1 4 4zm27.9-2.83c.91.38.9 1.2.87 2a5.81 5.81 0 0 0 1.11 4l.11-.12c-1.12-.17-1.81-.69-1.81-1.94s-.11-2.66-.17-4zM235 259.89a18.08 18.08 0 0 0-1-6.1l-.08.08c2.47 2.11 2.63 3 1 6zm27 120.97a4.76 4.76 0 0 1 4-3l-.08-.09a4.87 4.87 0 0 1-4 3zm-51.94-177.94a5.87 5.87 0 0 1 4.92-2.06l-.08-.1a5.92 5.92 0 0 1-4.92 2.06zM194.9 336.16h3.86v.22h-3.86zm133.1-82.3c1.41-1.55 3.2-.84 5-.22l-5 .12zm-87-105.07c-1.45.12-3 .49-3.7-1.36 0-.08.11-.29.22-.33 1.89-.83 2.56.63 3.37 1.81zm84-28.72a4.08 4.08 0 0 1 1.35 0c.89.32 1.07 1.14 1.07 2a.49.49 0 0 1-.28.36c-1.22.44-1.15-.72-1.57-1.28-.26-.3-.88-.37-.57-1.08zm-197 265.7a4.88 4.88 0 0 1-4-3l-.07.07c1.77.41 3.34 1.1 4 3zm98-188.89a6 6 0 0 1 5-2l-.08-.09a6.08 6.08 0 0 1-5 2zm38.95 97.99a5.06 5.06 0 0 1 4 3l.08-.08a4.59 4.59 0 0 1-4-3zM100.94 106.9c1.68-.17 3.1.5 4.88 1.46-2.21.46-3.68 0-4.79-1.54zm213.98 34.91a3.15 3.15 0 0 1 0-1c.17-.54 0-1.46 1-1.31a1.94 1.94 0 0 1 1.27.63c.47.77-.36 1.09-.81 1.39a4.2 4.2 0 0 1-1.37.34zM167 170.8c-1.82.07-2.58-1.23-4.08-2.9 2.54.35 3.6 1.25 4 3zm-51 206.05c1.75.45 3.37 1.06 4 3l.07-.08a5.06 5.06 0 0 1-4-3zm107.95-152.01c1.45 2.69 1.45 3.34 0 6l.08.07v-6.12zM207 27.92c2-1.46 4-1.23 6 0l.07-.09h-6.17zm61.93 371.86c-.94 1.52-2 2.87-4 3l.08.08a4.49 4.49 0 0 1 4-3zm-59.01-125.9c2.05-.3 3.94-.19 5 2l.08-.08c-1.78-.38-3.64-.58-5-2zM325 45.81h-5.1l.08.07c1.65-1.93 3.3-1.47 4.94 0zm-66 166.94c-1.64 0-3.33 0-3.94-2l-.1.12a7 7 0 0 1 3.94 2zm68-32.86c-.23-.49-.19-1.08.25-1.25.91-.35 1.4.37 1.85 1 .09.13.16.28.27.49-1 .81-1.65-.21-2.45-.35zM201.06 43.94c.5-1.5 1.37-1.36 1.77-.12.31 1 .52 2.34-.91 3l.1.08c-.22-1.06.49-2.43-1-3zm-6.89 254.52H191c1-.79 2.12-.16 3.17 0zm-.65 62.39c-.28-1.33-.38-1.76-.46-2.19s-.14-.85-.21-1.28c.26 0 .71 0 .76.06a4.49 4.49 0 0 1 .3 1.35 13.7 13.7 0 0 1-.39 2.06zm-40.46-1.09a7.24 7.24 0 0 1-4-2l-.11.11c1.69-.07 3.18.27 4 1.95zm-40.13 9.01v5.08l.09-.08c-1.72-1.63-1.52-3.27 0-4.92zm167 34.08c1.31 1.73.22 2.84-1 3.91l.09.08a7 7 0 0 1 1-4.07zm-40.01-215.94c1.67 2.11 1.5 2.77-1 3.88l.08.09c.61-1.29 1.52-2.5 1-4.06z"/><path d="M236 184.88c1.63.07 3.25.16 4 2l.09-.09c-1.47-.38-3-.74-3.94-2.05zm-36 22c.75-1.82 2.23-2.2 4-2l-.07-.09c-.85 1.63-2.44 1.78-4 2zm145.39-85.36a2.41 2.41 0 0 1-1.79 2c-.11 0-.53-.34-.52-.52a1.85 1.85 0 0 1 1.6-2c.2 0 .46.35.71.52zm-25.47-75.7a6.48 6.48 0 0 1-2 4l.11.12c0-1.68.09-3.27 1.95-4zM228 182.81l-4.23-.21c1.47-.69 2.92-1.11 4.13.33zm-19.95 115.88l-3.6-.25c1.12-.44 1.85-.44 3.6.25zM322 327.87l.06-2.12-.11.11c.89.1 1.13-1.22 2.09-.94l-.11-.09c-.23 1.29-.51 2.55-2 3zm-66-98.99a3.15 3.15 0 0 1 2.68 1.58 2.18 2.18 0 0 1-2.58-1.69zm-23.62 94.21c-.21.11-.46.36-.64.31-.56-.14-1.11-.38-1.21-1.06 0-.05.24-.21.37-.21a1.59 1.59 0 0 1 1.48.96zm90.53-71.33v2.14l.11-.13c-.77 0-1 .51-1.13 1.12l.13-.12h-1.13l.11.11a3.18 3.18 0 0 1 2-3zm-44.96 167.02c-1 1.57-2.58 1-4 1l.08.09c1-1.6 2.57-1 4-1zM65 294.88a3 3 0 0 1 2-3l-.08-.1v2.1l.11-.13c-.69.06-1 .51-1.12 1.12l.13-.11h-1.11zm131.93 22.92c-1.32 1.6-2.63 1.47-3.93 0l-.06.09H197zM49.95 291.78a2.89 2.89 0 0 1-2 3l.08.08a2.66 2.66 0 0 1 2-3zm228.97 114.99a3 3 0 0 1-2 3l.08.09c-.25-1.6.64-2.46 2-3zm-17.92-.92a2.87 2.87 0 0 1 3-2l-.09-.08-1 2.06.09-.09h-2.1zm-152-10.08c-1.25-.66-2.84-1.2-1-2.91l-.08-.08c.27 1 1.28 1.85 1 3.07zm166-1.91a3.14 3.14 0 0 1 2-3l-.09-.08a2.74 2.74 0 0 1-2 3zm4-28a2.8 2.8 0 0 1 2-3l-.09-.08a2.86 2.86 0 0 1-2 3zm-31-159c1.27.26 2.45.64 2.89 2.06l.1-.11c-1.27-.25-2.47-.6-2.89-2.06zM191.92 43.84a3.11 3.11 0 0 1-2 2.95l.13.1a3.21 3.21 0 0 1 2-3zm-7.99 336.93a3.18 3.18 0 0 1-3 2l.07.07-.1-1.09a1.32 1.32 0 0 0 1.13-1l-.15.11H184zm-63.99-.91a3.27 3.27 0 0 1 3 2l.08-.08a2.69 2.69 0 0 1-3-2zM305.92 51.82a2.79 2.79 0 0 1-2 3l.09.1c-.2-1.56.27-2.7 2-3zm-110.87-3.9a2.83 2.83 0 0 1 3-2l-.1-.1a3.37 3.37 0 0 1-3 2zM213 240.88a3 3 0 0 1 3-2l-.07-.07a2.92 2.92 0 0 1-3 2zm-23.07-132.02c1.15.88.86 2 .35 3.8l-.24-3.89zM192 49.93c.44-1.52 1.63-1.91 3-2l-.09-.1a3.34 3.34 0 0 1-3 2zm24.92 168.95c1.44 0 2.58.47 3 2l.07-.08a3.15 3.15 0 0 1-3-2zM262 113.92c.18-1.39-.66-3 1-4.06l-.13-.1c-.15 1.4.54 3-1 4.08zM49 338.83a3.18 3.18 0 0 1 3 2l.08-.07h-2.15l.14.12-1.07-1.05v-1zM315.91 95.82a3.31 3.31 0 0 1-3 2l.1.09v-1.09l-.12.09a1.38 1.38 0 0 0 1.11-1.13l-.13.11H316zm22.97.11c1.6.79 1 2 .61 3.24-.65-1.09-.45-2.23-.51-3.32zM206 212.82a3.19 3.19 0 0 1-3-2l-.07.08a2.67 2.67 0 0 1 3 2z"/><path d="M227.86 182.93h3.42a2.23 2.23 0 0 1-3.32-.12zm-54.64 81.51h-3a3.84 3.84 0 0 1 3 0zm-49.17 69.28c-1.35-.92-1-2.08-.36-3.83l.24 3.94zm82.7-153.29a3.52 3.52 0 0 1 2.56-.1 3.11 3.11 0 0 1-2.56.1zM336 90.82c-1.16-.7-2-1.58-1.91-3.07l-.1.12a3 3 0 0 1 1.92 3.05zm-6 172c.56-.76 1-1.64 2.27-1.42a2.35 2.35 0 0 1-2.38 1.32zm4 38.06a3.24 3.24 0 0 1 1.93-3l-.1-.11a3.09 3.09 0 0 1-1.93 3zm12.12-41.6a2.48 2.48 0 0 1-2.16.21c.65-.79 1.41-.41 2.16-.21zM201 49.92c-.05-1.14-.43-2.38 1-3l-.1-.08c.06 1.14.3 2.34-1 3.06zm124.9 269.84c0 1.09.21 2.29-1 3l.11.1c-.16-1.16-.44-2.36 1-3zm10.01 11.06a4.76 4.76 0 0 1-2 2l.11.11c0-1.29.59-2 2-2zM262 353.78c-.66 1.42-1.92 1-3 1l.1.11c.71-1.25 1.87-1.07 3-1zm-30.61-232.12l-.8-.36a2.7 2.7 0 0 1 .87-.24 2.58 2.58 0 0 1 .82.36zm106.48 236.13c-.24.79-.68 1.7-1.47 1.63-.56 0-.37-1.06-.33-1.67l-.1.11h2zM152 361.85l1.06-2.09-.11.08c.57 0 .91.36.84.9-.15 1.13-1.07 1-1.87 1zm141 5.91l-2.35-.29c1-.63 1.7-.61 2.23.4zm-116 3.07c0-1.1-.16-2.28 1-3l-.12-.1c-.15 1.06.62 2.43-1 3zm-64.05 3.02c1.19.15 1.62 1.05 2 2l.07-.07c-1.3 0-2.11-.56-2-2zM297 419.77c-1.22-.12-1.72-1-2-2l-.08.09c1.26.07 2.11.55 2 2zm-26 1.11c.59-1.51 1.89-1 3-1l-.08-.09c-.62 1.45-1.89 1-3 1zm39.88-277.1c-.66 1.33-1.9.93-3 1l.13.12c.7-1.18 1.88-.94 3-1zm-170.99 23.14h2.68c-1.26 1-2 .75-2.59-.12zM326 179.8l-2.59-.33c1.12-.68 2-.8 2.49.46zM40.54 105.07a2.33 2.33 0 0 1-.39-.73c0-.27.06-.77.19-.8.64-.16.49.43.51.73a2.22 2.22 0 0 1-.31.8zm195.52 79.7l-2.69-.15c1.23-1 2-.61 2.6.27zm93.87 12.01c-.63 1.42-1.95.82-3 1l.1.11c.71-1.18 1.92-.89 3-1zM215 200.86c.72-1.27 1.91-1 3.05-1l-.07-.09c-.67 1.44-1.91 1-3.06 1zm-8 3.03c.63-1.5 1.9-1 3-1l-.08-.1c-.72 1.23-1.9 1-3 1z"/><path d="M207 203.8c-.64 1.46-1.88 1.1-3 1l.07.09c.65-1.43 1.89-1.07 3-1zm54 10.07c.92 0 1.88-.27 2.71.46-1.09.72-2 .77-2.62-.57zm7 207.99c.64-1.5 1.94-.94 3-1l-.08-.09c-.72 1.27-1.94 1-3.05 1zM154.89 264.91l2.58.25c-1.24.63-1.93.41-2.49-.36zm85.05.97l2.7.14c-1.23 1.06-1.95.57-2.6-.25z"/><path class="cls-1" d="M149.94 67.81c0 1.1.49 2.4-1 3l.1.07v-3.09l-.1.1H150z"/><path d="M173 221.79l-1.39-.33c.76-.8 1-.08 1.29.45zm88-8.02c-.83 0-1.78.19-2-1l-.1.11c.8.1 1.65.07 2 1zm-9 8.07a2.79 2.79 0 0 1-1-2l-.11.11a2.71 2.71 0 0 1 .95 2zm86.88-102.04c-.41.79-1.19.86-1.95 1l.11.12c.39-.84 1.18-.89 1.95-1zm-4.81-32.06a2 2 0 0 1-2.07-.9l-.12.11c.82 0 1.65 0 2.08.91zM224.39 121.4a1.32 1.32 0 0 1-.44.11 1.2 1.2 0 0 1-.39-.2 1.38 1.38 0 0 1 .44-.1 1.21 1.21 0 0 1 .39.19z"/><path d="M336.93 120.79c-.16.5-.91.89-.94.75-.21-1 .72-.35 1.06-.63zm-3.55 1.61a1.29 1.29 0 0 1-.39.05 1.17 1.17 0 0 1-.33-.18 1.42 1.42 0 0 1 .39 0 1.2 1.2 0 0 1 .33.13zm-85.46 95.54a2.65 2.65 0 0 1 2 .91l.11-.11a2.52 2.52 0 0 1-2-.91zM199.91 34.91a2 2 0 0 1 2 1l.13-.1-2.12.12.11-1.13zM319.9 90.79c.08.87 0 1.63-1 2l.09.1c-.09-.88-.08-1.71 1-2zM194.92 38.78a2.23 2.23 0 0 1-1 2l.1.12c.1-.78-.18-1.76 1-2zM338 93.79c-1.06-.3-1.08-1.12-1-2l-.09.09c1 .34 1.07 1.12 1 2zM192.89 41.8a2.07 2.07 0 0 1-1 2l.11.07c.08-.79.09-1.62 1-2zM261 292.81l-1.28-.35c.15-.13.3-.39.44-.38a.69.69 0 0 1 .73.84zM201 43.84a1.81 1.81 0 0 1-2.06.95l.11.1c.38-1 1.18-1 2-1zm68 248.9l-1.21-.39c.13 0 .32-.18.39-.13a7 7 0 0 1 .71.62zm-22-75.98c-.72-.17-1.53-.18-1.92-1l-.1.12c.7.2 1.47.29 1.92 1zm92-120.91c-.91-.41-1-1.22-1-2.05l-.1.09c1.13.3 1 1.19 1 2.05zm-45-48.03a2.49 2.49 0 0 1-.91-2l-.11.11c.88.41.91 1.2.91 2zm-54 165.99l-1.36-.33c.74-.76.94 0 1.26.45zm-30 .96c-.89.12-1.78.24-2-1l-.07.08c.88-.1 1.69 0 2 1zM242.87 47.8a1.91 1.91 0 0 1-.92 2l.11.11a2 2 0 0 1 .93-2zm13.19 180.97c-.79-.13-1.65-.1-2.07-1l-.11.12c.79.12 1.64.13 2.08 1z"/><path d="M260.86 292.93c.81.05 1.85-.37 2 1l.09-.11a2.21 2.21 0 0 1-2-1zm-75.49 6.44a1.4 1.4 0 0 1-.43.08 1.28 1.28 0 0 1-.38-.19 1.5 1.5 0 0 1 .44-.07 1.31 1.31 0 0 1 .37.18zM356 287.89c.18-.47.95-.81 1-.72.12.89-.73.31-1.07.6zM190.54 98.09a1.26 1.26 0 0 1-.29.08.68.68 0 0 1-.12-.39c.1-.45.29-.49.46-.1.06.1-.02.27-.05.41zM116 288.79l-1.3-.29c.14-.15.28-.42.42-.41a.7.7 0 0 1 .77.83zm172-61.05c-.78-.06-1.58-.07-2-.93l-.1.1a2.69 2.69 0 0 1 2 .93zm-31 63.74l-.39-.19a1.41 1.41 0 0 1 .44-.09 1.31 1.31 0 0 1 .39.19zm-91.06-13.58c1 .35.93 1.22.94 2l.1-.09a2.3 2.3 0 0 1-.94-2.06zm79.14-62.14a7.94 7.94 0 0 0-.93-.14c-.51 0-.63-.16-.3-.43a.48.48 0 0 1 .44 0 7.34 7.34 0 0 1 .69.63zM233 55.9c.35-.24.69-.49 1.05-.7.05 0 .21.13.32.19l-1.47.39zm71-.11l-1.38-.36c.24-.84.94-.39 1.43-.51l-.09-.1-.06 1.07zm-18.79 161.52s-.09.14-.13.14a2.16 2.16 0 0 1-.37-.07c0-.05.09-.14.14-.14a2 2 0 0 1 .36.07zM85 260.85c1 .33.88 1.21 1 2l.11-.1c-1.07-.29-1.1-1.1-1-2zm154.85-46.93l1.63.37c-.11.08-.28.27-.33.24-.41-.22-.8-.48-1.2-.72zM209.89 100.8a2.06 2.06 0 0 1-.94 2l.11.11c.08-.78.13-1.57.94-2zM205 66.87c.42-.8 1.26-.72 2-.93l-.09-.1a2.86 2.86 0 0 1-2 .92z"/><path d="M87 264.78c-1-.37-.89-1.24-1-2l-.11.1c.93.4 1 1.21 1 2zM191.6 104l-.21.12a1.76 1.76 0 0 1-.07-.4l.21-.12zm138.26 158.72l-.24 1.44c-1-.74.09-.93.35-1.34zm-156.97-40.81c.82 0 1.62.07 2 .94l.11-.11c-.88.09-1.7.08-2.06-1zm89.98 72c.86 0 1.71-.07 2.08 1l.09-.11a1.92 1.92 0 0 1-2.08-1zM113.09 69.75a1.62 1.62 0 0 1-2-.91l-.1.1c.82 0 1.61.07 2 .93zM389 281.79c-.82 0-1.79.22-2-1l-.08.1H389l-.14-.11v1.11zm-73 9.04a2 2 0 0 1-.94-2.05l-.11.11c.94.39 1 1.2.94 2zm-76-25.06a6.91 6.91 0 0 1-1.43-.22c-.24-.09-.07-.45.36-.49a.8.8 0 0 1 1 .82zm-34.1-52.85c.91-.17 1.78-.24 2 1l.07-.08c-.9.13-1.67 0-2-1zm-29.49 88.44a3.42 3.42 0 0 1-.55.08s-.08-.11-.12-.18zM253 209.88a2.26 2.26 0 0 1 2 1l.1-.12c-.82 0-1.78.25-2-1zm79 93.96a2 2 0 0 1 1-2l-.11-.11c0 .81.13 1.7-1 2z"/><path d="M331.89 303.74c-.09.79-.16 1.58-1 2l.12.1c.13-.77.06-1.63 1-2z"/><path d="M330.9 305.73a3.09 3.09 0 0 1-1 2.09l.12.11c.2-.76.11-1.65 1-2.09zm-80.03-96.81c.84 0 1.66.05 2.08 1l.1-.11c-.83 0-1.65-.08-2.09-1zM161 310.84l.39-1.22c0 .14.17.33.12.41a6.48 6.48 0 0 1-.63.71zm161 3.03a2.17 2.17 0 0 1 .46-1.78l.48 1.77.09-.08h-1.13zm-203.06 1.9c-.12 1.4-1.16 1-2 1l.09.09v-1.1l-.11.09H119zm129.14-109.02l-1.26-.23c.65-.78.78.2 1.16.34zm-12.85 116.79c-.14 0-.29.14-.41.12-.46-.1-.5-.3-.1-.48a.58.58 0 0 1 .42.07c.07.03.06.19.09.29zm88.82 1.38c0-.86-.24-1.8 1-2l-.11-.1a2.31 2.31 0 0 1-1 2.06zm17.95.92l1.06-.64c-.12.8-.85.22-1.18.52zm-24-122.98a1.89 1.89 0 0 1 2-.93l-.12-.11a1.89 1.89 0 0 1-2 .93zm-58.12 124.02l1.22.4c-.14 0-.33.17-.4.11a6.69 6.69 0 0 1-.71-.63zm81.01-.09a2.43 2.43 0 0 1-2 .94l.11.11c.43-.81 1.24-.81 2-.94zM322.91 199.8a2.06 2.06 0 0 1-2 1l.1.1c.3-1.07 1.2-.91 2-1z"/><path d="M324.9 198.8a2.08 2.08 0 0 1-2 1l.11.11c.12-1.43 1.21-.9 2-1zM123.93 333.83a2.35 2.35 0 0 1 1 2l.11-.11c-.95-.38-.78-1.28-1-2zM331 336.88a1.7 1.7 0 0 1 .95-2l-.09-.1c.16.9.07 1.68-.95 2zm30.75-137.77l-.31.34a4.47 4.47 0 0 1-.28-.8c0-.1.17-.24.27-.36z"/><path d="M325 198.92c.25-1.19 1.23-.92 2-1l-.1-.11c-.33 1.05-1.26.87-2 1zM203.33 337.37a1.08 1.08 0 0 1-.37.14c-.44 0-.53-.15-.26-.32a.59.59 0 0 1 .4 0c.08-.01.15.1.23.18zm3.67 1.38l-1.39-.25c.71-.85.9.07 1.28.37zm24-143.87c.23-1.22 1.15-1.05 2-1l-.07-.08c-.2 1.28-1.16 1-2 1zm-22 144.88c-.77-.13-1.67 0-2-1l-.11.12c.78.11 1.62.12 2 1zm-81 .11a2.25 2.25 0 0 1 .92 2l.11-.11a2.54 2.54 0 0 1-.91-2zm80.9.01a2.21 2.21 0 0 1 2.08 1l.1-.11c-.85 0-1.77.18-2.07-1zm-69.99 12.05a2 2 0 0 1 2 .92l.11-.11a2.51 2.51 0 0 1-2-.91zm-64.86 2.95c.22-1.19 1.18-1 2-1l-.1-.1v1.12l.14-.12h-2.15zm67.85-.96c.8 0 1.63 0 2 .93l.11-.11a2.07 2.07 0 0 1-2-.93zM72 355.85c.34-1 1.18-1 2-1l-.11-.11v1.11l.13-.11h-2.07zm186.92-1.11c-.23 1.21-1.21.89-2 1l.11.11a2.19 2.19 0 0 1 2-1zm99.98-112.85a6.56 6.56 0 0 1 1.33.23c.23.09.09.42-.31.45a.82.82 0 0 1-.94-.77zM176 372.86a1.87 1.87 0 0 1 1-2l-.11-.1c0 .82.18 1.74-1 2zm-31.1-16.93c.77.1 1.8-.32 2 1l.1-.12a2.7 2.7 0 0 1-2-1z"/><path d="M149 357.78a2.22 2.22 0 0 1-2.05-1l-.1.12c.82 0 1.88-.42 2.05 1zm105 .04a2.48 2.48 0 0 1 2-.91l-.11-.11c-.46.76-1.24.82-2 .91zm27.92 2.95c0 .84.14 1.74-1 2l.09.08c0-.86-.14-1.75 1-2zm-162.92 4c-.27 1.09-1.15 1-2 1l.08.09c.18-1.27 1.17-1 2-1zm-4 2.09c.34-1 1.16-1 2-1l-.08-.09c-.36 1-1.17 1.05-2 1zm177.89 1c1.32.59.9 1.23.06 1.88l.11.11v-2.1zM171 376.88c.29-1 1.12-1 2-1l-.1-.1c-.21 1.19-1.14 1-1.95 1z"/><path d="M171 376.78c-.65 1.16-1.31 1-2 0l-.1.12h2.16zm17 2c-.26 1.15-1.11 1.12-2 1l.06.07v-1.09l-.13.1H188zm52.88-229.87l1.4.28c-.72.81-.93 0-1.29-.4zM186 379.79c-.28 1.15-1.15 1.06-2 1l.08.09c.24-1.2 1.15-1 2-1zm20.94-232.86l1.31.23c-.66.81-.81-.18-1.2-.34zm100.96-1.02l1.33.27c-.68.76-.9 0-1.22-.38zM186 382.84a2.22 2.22 0 0 1 2-.94l-.1-.1c-.36 1-1.22.84-2 .93zm107-235.96a.94.94 0 0 1 1.07-.73c.42.06.52.42.23.5a6.61 6.61 0 0 1-1.39.12zM184.92 383.79a2.35 2.35 0 0 1-2 1l.09.1c.36-1 1.23-.91 2-1zM306 145.88c.35-1 1.27-.85 2-1l-.13-.12v1.13l.11-.11h-2.12zm18 250.99l.28-1.34c.15.13.44.27.44.4a.74.74 0 0 1-.82.84zm-11.11-254.09c-.24 1.19-1.2.94-2 1l.1.11c.32-1 1.17-1 2-1zm.11.1c.34-.92 1.12-1 2-1.07l.08.09c-.34 1.16-1.26 1-2.11.88zm-48 262.99c.21-1.25 1.16-1 2-1l-.08-.09c-.2 1.26-1.16 1-2 1z"/><path d="M264.94 405.78c-.26 1.14-1.13 1.07-2 1l.08.08v-1.1l-.09.09H265zm-27.73-271.47s-.08.14-.13.14a2.14 2.14 0 0 1-.37-.06c0-.05.09-.14.13-.14a2 2 0 0 1 .37.06zm59.71 285.53a.77.77 0 0 1 .79.91c0 .13-.3.25-.47.37l-.24-1.35zM337 91.79c-.78.14-1-.33-1-1l-.09.1c.79-.16 1 .33 1 1zm-18.07 1.01a1.07 1.07 0 0 1-1 1l.09.11c0-.63.3-1 1-1z"/><path d="M317.92 93.79a1 1 0 0 1-1 1l.09.1a1 1 0 0 1 1-1z"/><path d="M316.91 94.8c0 .69-.34 1-1 1l.1.09c-.07-.73.33-1 1-1zM95 100.85c-.69 0-.94-.4-1-1l-.06.06.42-.18h.46l.29.29a1.06 1.06 0 0 1-.14.84zm115 .06l.42-.51c0 .09-.06.23-.13.27a1.62 1.62 0 0 1-.41.13zm-114 .94c-.67 0-1-.31-1-1a.88.88 0 0 1 .76-.19 3.06 3.06 0 0 1 .39.37 1.47 1.47 0 0 1-.15.82zm112 2.03c.16-.54.43-1 1.08-1l-.11-.11c-.11.6-.31 1.09-1.08 1zm92.91-1.1a2 2 0 0 1-.16.44c-.34 0-.25-.18.26-.34zm-3.01 1.08l.36.23-.26-.34zM101 106.82c-.68 0-1-.31-1-1l-.08.08c.71 0 1.08.26 1 1zm238 13.1l1-1.06-.11-.09v1.16l.12-.11h-1.15zm-124 6.91c-.59-.08-1-.36-1-1l-.07.07c.72-.05 1.06.27 1 1zm75 104l.1-1.07-.1.11a1.2 1.2 0 0 1 1 1l.09-.11-1.07.06zm.07-1.07a1 1 0 0 1-1-1l-.11.11 1 1zm-2.16-1.91l1 1.06.11-.11a1.08 1.08 0 0 1-1-1.05zm30 24.95l-1 1 .09.08v-1.13l-.08.11H318zm-116.25 1.57l-.3.06.04-.22.26.16zM363 255.74l-1-1-.09.12H363l-.12-.12v1.1zm-77-28.93l-.4-.21.29.31z"/><path d="M364 256.78l-1.05-1-.09.13 1 1zm-188.07-32.86l.4.16-.28-.28z"/><path d="M174.94 222.85a1.3 1.3 0 0 1 1 1.08l.11-.12c-.58-.12-1-.35-1-1.07zm193.99 37.93a2.37 2.37 0 0 1-.18.39c-.29-.08-.19-.2.27-.3zm-282.02 4.1l.69.33c-.72.55-.38-.3-.58-.44zM140 238.82c-.63-.06-.82-.56-1-1l-.1.12h1.14l-.1-.1v1.13zm109.91-19.97l1 1.06.11-.11a1.46 1.46 0 0 1-1-1.05zM161 272.74l-.48-.36c.08 0 .18.05.22.11a1.91 1.91 0 0 1 .16.35zm1 1.03l-1-1-.11.11 1 1zm-.12.12l.55.36a.69.69 0 0 1-.22-.12 2.65 2.65 0 0 1-.22-.35zm55.05-36.1c.19.84-.28 1-1 1l.07.07c-.13-.79.32-1 1-1zM165 276.77c-.47-.37-.11 0-.11.12zm49.92-.9q.65-.08.61.4h-.34a1.5 1.5 0 0 1-.18-.44zm-48.87 1.92a1.4 1.4 0 0 1-1-1l-.11.12c.66 0 .93.43 1.05 1zm80.84-60.92l1 1.07.11-.11-1-1.08zM75 285.76l-1 1.06.11.09v-1.14l-.09.09h1.14zm239 1.99l-.62-.41c.11 0 .28 0 .33.07a1.64 1.64 0 0 1 .18.44zm-.11.11l1 1 .11-.11a1.32 1.32 0 0 1-1-1zm-241.96.99a2.83 2.83 0 0 1 .33.6c0 .07-.18.21-.28.32l.08.13v-1.13zm-3.93 2c0-.67.35-1 1-1l-.07-.07c.08.75-.27 1.06-1 1z"/><path d="M72 289.76l-1 1 .1.13v-1.11l-.12.1h1.14zm-5 2.12a1.29 1.29 0 0 1 1-1l-.09-.08a1 1 0 0 1-1 1zm3.95-1.13a1.2 1.2 0 0 1-1 1l.09.13a1.2 1.2 0 0 1 1-1z"/><path d="M70 291.74l-1 1 .1.14 1-1zm277.92-77.95l-.37.44c0-.09 0-.22.1-.25a1.19 1.19 0 0 1 .36-.09zm-279 78.95a1.13 1.13 0 0 1-1 1l.09.13a1.27 1.27 0 0 1 1-1zm199.99.11a1.32 1.32 0 0 1 1 1l.11-.11a1 1 0 0 1-1-1z"/><path d="M68 293.75l-1 1 .1.13v-1.13l-.11.13H68zm203 1c-.69 0-.95-.39-1-1l-.11.11a1.14 1.14 0 0 1 1 1zm-223 .03c-.06.62-.31 1-1 1l.08.08c.09-.59.34-1 1-1zm18.95-.03l-1 1.05.11.09v-1.14l-.13.11H67zM272 295.77a1 1 0 0 1-1-1l-.1.09a1.26 1.26 0 0 1 1 1zm-116-53.93l.18-.29-.28.2zm117 54.94c-.77.1-1.07-.27-1-1l-.09.09c.69 0 1.05.27 1 1zm64.91-1.01a.9.9 0 0 1-1 1l.1.1a1 1 0 0 1 1-1zM274 297.79a1 1 0 0 1-1-1l-.08.08a1.08 1.08 0 0 1 1 1zm62 .08a1.35 1.35 0 0 1 1-1l-.1-.1c-.08.62-.38 1-1 1zm13-84.07h-1.07l.08.09c.07-.26.09-.71.23-.75.59-.16.75.22.7.74zm-79 84.99c-.62-.06-1-.3-1-1l-.08.08c.64 0 1.06.29 1 1zm-60 1.03l-.51-.5c.11 0 .29.06.33.15a1.34 1.34 0 0 1 .06.46z"/><path d="M269.92 298.87c.75-.08 1.14.19 1 1l.08-.08a.87.87 0 0 1-1-1zM43 299.78c0 .68-.37 1-1 1 0-.71.34-1 1-1zm262.89-89.99c.06.42-.06.62-.38.57v-.32a1.38 1.38 0 0 1 .43-.16z"/><path d="M270.91 299.87l.78.25c-.65.76-.51-.13-.7-.34zM42 300.81c0 .7-.31 1-1 1l.06.05c-.15-.81.22-1.11 1-1zm291 1.07a1.33 1.33 0 0 1 1.06-1l-.1-.1c-.15.55-.43 1-1.07 1zm-65 3.87l-.41-.18.31.28z"/><path d="M267.89 305.85c.49.43.16 0 .1-.1zm39-97.02c-.14.52-.35 1-1 1l.09.09c.07-.59.49-.82 1-1zM345.9 15.88l1 1 .1-.1c-.49-.18-.9-.43-1-1z"/><path d="M346.87 16.89c.36.29.33.2.1-.1zm-34 190.89l-.2.41.31-.29zm-5.87 1.14l.2-.28-.29.18zM160.94 310.73l-.19.4.3-.29zm-34.02 1.1a3.22 3.22 0 0 1 .33.67c0 .07-.22.21-.34.32l.12.08v-1.16z"/><path d="M313.88 206.8a1 1 0 0 1-1 1l.11.12a1.21 1.21 0 0 1 1-1zm-3.97.13l.36.13-.25-.24zm4.09-.02l1-1-.11-.11-1 1zM209.93 314.85c.62.06 1 .34 1 1l.08-.08c-.6-.09-1-.33-1-1zM340.91 19.9c.67 0 1 .38 1 1l.08-.08c-.67 0-1-.37-1-1zM310 206.82l-.49-.42c.09 0 .21.06.25.13a1.67 1.67 0 0 1 .12.4zM196.92 316.87l.69.43-.67.49.09.08v-1.08zm95.08.9l-.47-.47c.09 0 .21.07.25.14a1.81 1.81 0 0 1 .12.42zM341.92 20.9c.72-.06 1 .28 1 1l.08-.08c-.8.13-1.09-.24-1-1z"/><path d="M291.87 317.86l.27.17-.18-.26zM315 205.9a.88.88 0 0 1 1-1l-.1-.1c0 .69-.31 1-1 1zM99.06 323.85c.33-.54.63-.34.92 0l.08-.12h-1.13zM342.92 21.89a1.12 1.12 0 0 1 1 1l.08-.09c-.71 0-1-.35-1-1zM338 29.82c-.69 0-1-.37-1-1l-.08.08c.76-.1 1 .28 1 1zM62.05 324.84c.42-.52-.09-.06-.12-.11zm35.95.05l1.06-1-.13-.08v1.13l.12-.12h-1.14z"/><path d="M61.93 324.73a1.09 1.09 0 0 1-1 1l.1.11c.06-.6.49-.83 1-1zm260.14 1.03l-.44-.14.33.25zm-5.19-121.97l-1 1 .1.1 1-1zM337.91 29.9c.67 0 1 .37 1 1l.07-.07a1 1 0 0 1-1-1z"/><path d="M61 325.75l-.4.43a.82.82 0 0 1 .16-.17 3 3 0 0 1 .34-.15zM317 203.9a1.37 1.37 0 0 1 1-1l-.12-.11c0 .71-.38 1-1 1zm24.9 121.83a1.25 1.25 0 0 1-1 1.06l.12.12c0-.64.51-.87 1-1.06zM58.06 327.9l.34-.74c.65.76-.29.43-.44.64zm36.94-.03a1.4 1.4 0 0 1 1-1l-.1-.1a1 1 0 0 1-1 1zM338.92 30.89c.76-.09 1.05.28 1 1l.07-.07c-.8.14-1.07-.26-1-1z"/><path d="M94 328.85a.89.89 0 0 1 1-1l-.11-.09c.07.73-.26 1.06-1 1zm226.92-128.08l-1 1.05.12.11a1.19 1.19 0 0 1 1-1.06zm17.98 126.96a1.33 1.33 0 0 1-1 1l.11.11a1.37 1.37 0 0 1 1-1zM93 329.88a1.35 1.35 0 0 1 1-1l-.1-.08c-.07.61-.35 1-1 1zM201.91 35.9c.92.31.87.61 0 .92l.13.09V35.8z"/><path d="M337.05 329.88c0-.7.4-.93 1-1l-.11-.11a1.25 1.25 0 0 1-1 1zM244 38.89l.27-.36-.37.26z"/><path d="M336.95 329.77l-1 1 .11.11a1.14 1.14 0 0 1 1-1zM156 241.75l-.19.26.28-.17zm177.93 91.03a1 1 0 0 1-1 1l.09.09c0-.67.29-1.06 1-1zM193.94 40.79c-.18.52-.44.94-1 1l.13.1c.13-.54.37-1 1-1z"/><path d="M332 334.85c.09-.6.39-1 1.05-1l-.09-.09c-.08.62-.28 1.1-1.05 1zm-207.1 1l.43.24-.32-.35zM198 45.93c0-.68.41-.94 1-1l-.11-.1c0 .7-.41.93-1 1.05zm132.93 290.85l-.38.81c-.56-.71 0-.7.47-.72zM127 338.74l-.45-.38c.06 0 .15.08.19.14a2.39 2.39 0 0 1 .15.35zM293 45.81l-.49-.41c.07 0 .16.08.2.15a2.74 2.74 0 0 1 .18.37zm41.92.08a1 1 0 0 1 1 1l.08-.08c-.65 0-1-.32-1-1zM128.07 339.75c-.74.07-1-.38-1-1l-.12.12a1 1 0 0 1 1 1zM243 47.91c.21-.49.46-.94 1.07-1l-.1-.1a1.17 1.17 0 0 1-1.08 1zm50.85.02a1 1 0 0 1 1 1l.11-.1-1-1z"/><path class="cls-1" d="M123 49.89c-.1-.77.27-1.06 1-1l-.08-.07c.11.78-.24 1.08-1 1z"/><path class="cls-1" d="M123 49.82a1 1 0 0 1-1 1l.09.09a1 1 0 0 1 1-1z"/><path d="M52 340.85c.65 0 1 .31 1 1l.07-.06c-.67 0-1.09-.25-1-1z"/><path d="M53 341.85c.71 0 1 .31 1 1l.07-.07c-.75.08-1-.29-1-1zm75.88.04a1.22 1.22 0 0 1 1 1l.12-.12-1-1z"/><path d="M131 343.74c-.68 0-.93-.39-1-1l-.12.12c.68 0 1 .31 1 1zm1 1.01l-1-1-.1.1 1 1zM326.94 179.8c-.32.92-.65.42-1 0l-.11.13h1.16zm-129.43-1.67l.08.29-.24-.03.16-.26zm-65.59 166.73a1 1 0 0 1 1 1l.11-.11c-.67 0-1-.34-1-1z"/><path d="M132.92 345.84l1 1 .11-.11a1.13 1.13 0 0 1-1-1zm1 1.01l1 1 .12-.11a1.09 1.09 0 0 1-1-1z"/><path d="M134.93 347.84c.53.14.94.4 1 1l.1-.1a.9.9 0 0 1-1-1z"/><path d="M135.91 348.85l1 1 .11-.11-1-1zm2.09 1.93a1 1 0 0 1-.95-1l-.11.11c.63.05 1 .31 1 1z"/><path d="M137.89 350.88a1.15 1.15 0 0 1 1 1.05l.11-.1-1-1.05zm30.05-178.99a.94.94 0 0 1 1.23.76l-.32.31c-.61-.14-.95-.48-.84-1.15zM242 49.8l-.26.42.36-.32zM140.94 352.85c.65.06 1.1.3 1 1.07l.11-.11c-.62-.09-1.08-.32-1-1.07zm25.99-181.97a1 1 0 0 1 1 1l.08-.08a1 1 0 0 1-1-1zM317.94 49.81l-.45.49c0-.1.06-.25.13-.29a1.4 1.4 0 0 1 .43-.08z"/><path class="cls-1" d="M121.94 50.81l-.34.77c-.64-.74.1-.57.44-.67z"/><path d="M187 51.81l-.48.54c0-.12 0-.3.13-.34a1.34 1.34 0 0 1 .46-.08zM138 235.8c-.67 0-.92-.44-1-1l-.09.11H138l-.09-.09v1.1zm5.92 119.05c.53.18 1 .43 1 1.08l.11-.11-1-1.08zm44.03-301.07l-.2.4.3-.29z"/><path class="cls-1" d="M121.94 54.81l-.32.8c-.76-.75.09-.58.4-.72z"/><path d="M189 56.83c-.42-.11-.57-.34-.38-.65.08-.13.25-.21.38-.31l-.11-.09v1.15zm67 300.08l1-1.07-.11-.11-1 1.07zM143.9 165.88l.37.18-.27-.28zM218 357.8c-.93-.33-.59-.65 0-1l-.12-.09v1.14zm85.88-301.9l.37.16-.27-.27zm32.19 301.85l-.4-.11.29.22zm1.93.14c.53-.6-.14 0-.1-.1zm4-301.01c0-.68.27-1 1-1a.66.66 0 0 1 .24.7q-.25.29-.51.56a.89.89 0 0 1-.78-.33zm-88.1 300.84l-.3.55a.65.65 0 0 1 .1-.21 2.82 2.82 0 0 1 .32-.23zM152.94 244.85l.4.41c-.07 0-.17-.08-.21-.15a1.66 1.66 0 0 1-.1-.36zm-15-11a1.1 1.1 0 0 1 1 1l.09-.09h-1.11l.09.09v-1.11zm9.95-69.96l.43.17-.33-.27zM337.88 60.77q.12.63-.37.61v-.31a1.78 1.78 0 0 1 .43-.2zm-58.95 305.01c0 .62-.3 1-1 1l.08.08c0-.67.25-1.09 1-1zM114 367.86c-.08-.74.32-1 1-1l-.09-.08c.11.77-.31 1-1 1zm163-.01a1 1 0 0 1 1-1l-.08-.08c0 .65-.29 1.05-1 1z"/><path d="M114 367.77c0 .64-.3 1.06-1 1l.08.09c0-.64.34-1 1-1zm162.92 0c.11.77-.2 1.13-1 1l.08.08a.87.87 0 0 1 1-1zM207 65.94l.2-.27-.3.18z"/><path d="M275.92 368.77c0 .69-.31 1-1 1l.09.08a1.13 1.13 0 0 1 1-1zm-126-205.88l.58.4c-.11 0-.27 0-.32-.06a1.49 1.49 0 0 1-.17-.42zm125 206.88c.11.78-.2 1.13-1 1l.08.08a.9.9 0 0 1 1-1zm17.08 1.05l1-1-.11-.11-1 1z"/><path d="M273.92 370.77c.07.74-.31 1-1 1l.09.08c0-.64.41-.92 1-1zm17.98-.06a1.19 1.19 0 0 1-1 1l.11.11 1-1zm-96.85 2.06l-.4-.13.31.22zm77.87-1c.06.72-.31 1-1 1l.06.06a.91.91 0 0 1 1-1zm17.97-.06a1.16 1.16 0 0 1-1 1l.12.11 1-1zM175 373.84a1.16 1.16 0 0 1 1-1l-.1-.1c-.1.58-.37 1-1 1zm96 .02c-.1-.75.3-1 1-1l-.06-.06c.06.73-.32 1-1 1zm18-.04l1-1-.12-.11a1.1 1.1 0 0 1-1 1z"/><path d="M174 374.83a1.1 1.1 0 0 1 1-1l-.11-.11c0 .71-.28 1.06-1 1zm114.9-1.11l-.33.56c0-.08 0-.18.1-.22a2.51 2.51 0 0 1 .35-.22z"/><path d="M173.91 374.73c0 .66-.42.94-1 1l.1.1a1.41 1.41 0 0 1 1-1zM115 375.85c.7 0 1.1.23 1 1l.06-.06c-.73.06-1.15-.2-1-1zm36.91-213.97c.15.06.44.14.44.18 0 .31-.17.22-.34-.28zm53.03-95.11l-1 1 .1.1 1-1zM217 151.82l-.47-.36a.75.75 0 0 1 .18.14 3 3 0 0 1 .18.33zM111.05 68.84c-.47-.4-.15 0-.1.1z"/><path d="M204 67.78c-.5.56.1 0 .1.1zm-3 2.1l.45-.49c0 .09-.07.22-.14.26a1.75 1.75 0 0 1-.42.12zM188 381.9c.41-.47 0-.17-.1-.1z"/><path d="M200.93 69.77a1.25 1.25 0 0 1-1 1l.11.11 1-1zM124 382.78c-.73.06-1.18-.16-1-1l-.08.08c.68 0 1.09.25 1 1zm153 0c-.61-.08-1.08-.29-1-1l-.09.09c.61.08 1 .36 1 1zm42-130.89a1.09 1.09 0 0 1 1-1l-.11-.11a1.18 1.18 0 0 1-1 1zm15.9 129.94l1 1 .13-.09h-1.12l.09.1v-1.14zm-148.98.89a1.32 1.32 0 0 1-1 1.07l.12.11c0-.66.49-.87 1-1.07zm21.13-235.9l-.42-.23.31.33zm128.84 236.03c.63.32.81.63 0 1l.11.09v-1.13zM129 386.79a.9.9 0 0 1-1-1l-.08.08c.61.06 1 .31 1 1zm211-.08l-.4-.15.28.26zm-.09.11l1 1 .13-.09h-1.13l.12.13v-1.18z"/><path d="M340.88 387.85l1 1 .13-.08h-1.13l.12.11v-1.13z"/><path d="M341.89 388.84a5.55 5.55 0 0 1 .38.7s-.24.17-.37.26l.1.09v-1.12zM203.94 144.85l.38.24-.3-.32zm-95 246.91c0 .71-.35 1-1 1l.08.08c0-.71.37-1 1-1zM226.05 84.81l-.52-.34c.08 0 .18 0 .23.1a2 2 0 0 1 .18.35zM274 394.85c-.05-.72.23-1.1 1-1l-.08-.08c0 .69-.24 1.09-1 1z"/><path d="M273 395.85a1 1 0 0 1 1-1l-.08-.08a.93.93 0 0 1-1 1zm59-309l-.43-.44c.08.05.2.09.23.16a1.6 1.6 0 0 1 .08.39zm-223.06 309c.63.06 1 .36 1 1l.1-.1a1 1 0 0 1-1-1z"/><path d="M272.92 395.77c.1.76-.21 1.12-1 1l.07.07c0-.71.28-1.05 1-1zm-163.01 1.11l.76.24c-.64.7-.48-.16-.67-.34z"/><path d="M271.93 396.77a.88.88 0 0 1-1 1l.08.08c0-.65.39-.94 1-1zM253 87.77l-.53-.39c.1 0 .23 0 .28.09a1.59 1.59 0 0 1 .15.4z"/><path d="M270.93 397.77c0 .7-.34 1-1 1l.08.08c-.06-.72.32-1 1-1zm-1.93 2.1c-.13-.79.27-1.06 1-1l-.08-.08a.9.9 0 0 1-1 1zm-15-311.1l-1-1-.11.1 1 1zm26 314c-.76.09-1.08-.25-1-1l-.07.07q1.08-.08 1 1zm-16 1.1c-.06-.72.37-1 1-1l-.08-.08c0 .66-.41.94-1 1zM197 137.9c.44-.51 0-.07-.09-.09zm58-48.13a1.07 1.07 0 0 1-1-1l-.11.11a1.19 1.19 0 0 1 1 1zm1 1.03a1.14 1.14 0 0 1-1-1l-.11.1a1.43 1.43 0 0 1 1 1zm20 320.05c0-.64.28-1.06 1-1l-.08-.09c-.09.58-.37 1-1 1z"/><path d="M275 411.84c0-.64.3-1 1-1l-.08-.08c0 .69-.23 1.11-1 1zm-.08-.07c.08.75-.26 1.09-1 1l.08.09a.94.94 0 0 1 1-1zm-6.92 7.07a.93.93 0 0 1 1-1l-.08-.08c.05.71-.34 1-1 1zm48-165.95c.32-.49.64-.91 1 0l.08-.11h-1.14z"/><path d="M267.94 418.78c.06.73-.3 1-1 1l.07.07c-.1-.76.28-1 1-1zm50.99-167a1 1 0 0 1-1 1l.11.11c-.05-.73.33-1 1-1zm-120-215.97H200a1.22 1.22 0 0 1-1.12 1.12zM102 93.93a3.65 3.65 0 0 1-2.1-3.15 4 4 0 0 1 2.1 3.15z"/><path d="M103 94.92a1.62 1.62 0 0 1-1.13-1.12c.77.02 1.13.46 1.13 1.12z"/><path d="M104.05 95.92l-1.14-1.13a1.39 1.39 0 0 1 1.14 1.13z"/><path d="M105 96.91a1.11 1.11 0 0 1-1.13-1.12 1.05 1.05 0 0 1 1.13 1.12z"/><path d="M106.06 97.92c-.68-.08-.94-.58-1.14-1.13a1.64 1.64 0 0 1 1.14 1.13zm-6.01-7.01c-.7 0-1-.53-1.13-1.12a1.32 1.32 0 0 1 1.13 1.12zM296 98.94c.06-.15.13-.43.18-.43.3 0 .21.15-.29.33zM181 380.77v1.11h-1.11v-1.12z"/></g></g></svg>