<svg xmlns="http://www.w3.org/2000/svg" viewBox="0 0 543.01 7.53"><defs><style>.cls-1{fill:#fff}</style></defs><title>form-field</title><g id="Слой_2" data-name="Слой 2"><path class="cls-1" d="M60.89 6.13C45.88 6.58 31 5.07 16 3.91c-4.83-.38-9.4 1.57-14.19 1.43-.66 0-1.78.48-1.81-.9 0-.18 1.14-.44 1.76-.58 9.76-1.6 19.49-1 29.31-.48 25.85 1.25 51.74 2.49 77.57-.86a64.23 64.23 0 0 1 7.75-.52c11-.09 22.06.21 33-.24 9.91-.38 19.89 1.06 29.8.67 11.27-.39 22.6-.41 33.91-.07 28.89.72 57.76 2.73 86.66 2.2 20.64-.38 41.44.69 62.07-.57C394 2 426.54 1.22 459.11 1.73c3.9 0 7.81-1.05 11.72-1.58 5.81-.82 11.31 1.86 17 1.92 16.76.1 33.46 1.56 50.22 2.23 1 0 1.92 0 2.87.12s2.43.31 2 1.94-1.33 1.15-2.57.94a81.89 81.89 0 0 0-9.73-1c-11.49-.62-23.06-1.6-34.62-1.4-8.4.13-16.48-3.28-24.75-2.16-22.3 3-44.64.15-66.92 1.23-19.43.97-38.89 3.18-58.33 2.12-18.17-1-36.22 1.69-54.31.92-33.48-1.44-67-2.8-100.51-3-25.2-.13-50.4-.36-75.58 0-10.89.1-21.74 1.73-32.6 2.26-7.35.34-14.72-.07-22.08-.14z" id="Слой_1-2" data-name="Слой 1"/></g></svg>