<svg viewBox="0 0 750.21 162.26" xmlns="http://www.w3.org/2000/svg"><path d="M.11 76V7C.08 1 .92-.56 4.8 1.66 10.93 5.17 17.15 4 23.3 3.31c14-1.59 28-4.06 42-2.29a153.68 153.68 0 0 0 30.5.62 226 226 0 0 1 42 .61c12.46 1.42 24.95-.87 37.42-.57 39.41 1 78.82.2 118.23.35s78.8-1 118.2-1.36c22.82-.19 45.67 2.85 68.56 2 25.28-1 50.56-2 75.84-2.57 21.56-.5 43.08 1.72 64.61 2.75 24.93 1.19 49.92 3 74.84.08 13.95-1.63 27.77.34 41.64 1.15a81.84 81.84 0 0 0 10.48-.55c1.58-.11 3.42-.3 1.83 3.58a7.75 7.75 0 0 0-.14 2.46c-.21 33.65-.87 67.32-.4 101 .19 13.72 1.54 27.47 1.34 41.31-.11 7.32 0 7.3-4.66 7.28a98.28 98.28 0 0 0-18.35 1.68c-15.33 2.84-30.57 1.2-45.85-1.13-11.21-1.71-22.45-3.32-33.7-4-26.45-1.54-53-3-79.39-1.18-17.59 1.23-35.2 4-52.78 3-17.74-1.08-35.5-2-53.16-.25-24.1 2.44-48.14-.36-72.21-.2-13.15.09-26.4-1.5-39.61-2-14.66-.51-29.33-.05-44 .32-28.89.73-57.78 2-86.67 2.42-13.78.19-27.56-1.13-41.34-1.76-17.85-.81-35.66.73-53.49 1.93-21.65 1.46-43.33 2.55-65 .83a332.26 332.26 0 0 0-46.93-.1c-3.6.22-7.13 1.92-10.78 1.11-1.51-.34-2.5-.66-2.24-3.94 1.62-20.76.59-41.58.37-62.38C.35 87.63.4 81.8.4 76zm270.57 77c11.93 0 23.86.05 35.79 0 14.78-.08 29.55-.63 44.33-.31 15.4.33 30.78 1.74 46.18 2.15 9.74.26 19.47 0 29.22.66 8.52.55 17.1 1 25.6.18a339.68 339.68 0 0 1 57.42-.91 172.27 172.27 0 0 0 19.36.31c14-.5 28-2.8 41.94-3.16q29-.75 58.06.54a530.29 530.29 0 0 1 60.23 6c19.21 3.08 38.25-.73 57.36-2.11 1.47-.11 2.24-.84 2.2-3.23-.16-10.32.86-20.72-.38-30.93-1-8.14-.84-16.22-.76-24.38.31-29.32.51-58.64.81-88 0-3.36-.8-4.35-2.93-4.06a72.23 72.23 0 0 1-21.95-.74 67 67 0 0 0-18.36-.55 366 366 0 0 1-45.94 1.74c-24.18-.52-48.32-2-72.48-3.69-27-1.91-54.07.5-81.1 1.18-23.32.58-46.66 2.42-69.93.52-15.53-1.27-31-2.82-46.55-1.49-27 2.31-54.07.88-81.09.82-39.84-.08-79.69 1.08-119.54-.3-16.08-.56-32.2 1.53-48.26.55a394.26 394.26 0 0 0-49.22-.44C83.47 3.9 76.22 4.2 69 3c-11.93-2-23.81-.68-35.72.53-9.73 1-19.53 4.53-29.23-.87-1.85-1-3.21.11-3 3.77.24 3.48.44 7 .46 10.47q.49 64.47.9 128.94a49.63 49.63 0 0 1-.21 5c-.7 7.41-.42 8 4.34 6.92 15.47-3.4 31.07-2.95 46.55-1.79 28.49 2.13 56.9.86 85.32-1.37 17.07-1.34 34.14-1.13 51.2-.44 15 .6 30 2.51 45 1.37 12.01-.95 24.03-1.21 36.07-2.53z" fill="#fff"/></svg>