<svg viewBox="0 0 232.05 11.48" xmlns="http://www.w3.org/2000/svg"><path d="M26 11.33c-6.41.64-12.8-.89-19.18-2.06-2.07-.38-4 1.88-6.06 1.79-.28 0-.76.56-.78-1 0-.21.48-.57.75-.69 4.16-1.93 8.32-1.3 12.52-.86 11.05 1.15 22.12 2.29 33.14-1.8a10.85 10.85 0 0 1 3.31-.63c4.71-.22 9.43 0 14.14-.62 4.23-.54 8.5 1 12.74.45a84.89 84.89 0 0 1 14.52-.44C103.44 6 115.79 8 128.12 7c8.84-.65 17.71.35 26.52-1.31a199.54 199.54 0 0 1 41.52-3.59c1.67 0 3.33-1.28 5-1.92 2.48-1 4.84 2 7.27 2 7.16-.06 14.31 1.42 21.46 2a5.92 5.92 0 0 1 1.22.11c.47.13 1 .33.91 2.19s-.57 1.32-1.09 1.1a14.2 14.2 0 0 0-4.17-1C221.83 6 216.88 5 211.95 5.35c-3.59.24-7.05-3.56-10.59-2.2-9.51 3.67-19.07.64-28.59 2.11-8.31 1.28-16.61 4-24.93 3-7.77-.93-15.46 2.31-23.2 1.62C110.32 8.62 96 7.41 81.68 7.56c-10.76.11-21.53.12-32.29.74-4.65.27-9.28 2.24-13.93 2.95-3.14.47-6.29.08-9.46.08z" fill="#fff"/></svg>