<svg viewBox="0 0 292.91 192.38" xmlns="http://www.w3.org/2000/svg"><path d="M292.91 117.38c-2.78 4.14-2.54 9-2.53 13.53 0 19-1.44 37.95.36 56.9.14 1.5.38 3.17-2.16 2.57-5.25-1.24-10.5-.73-15.79-.06-6.14.78-12.29-.82-18.41-.55-36.61 1.6-73.23.58-109.85.78-23.25.13-46.47 1.2-69.71 1.15q-27.91-.06-55.82 0c-4 0-7.94.57-11.92.65-3.51.07-5.19-1.35-5.31-5.39-.4-13.94.73-27.86 0-41.81-.37-6.3-1.93-12.54-1.77-18.8.58-20.93 1.73-41.84 2.5-62.76a389.05 389.05 0 0 0-1.21-42.86C.91 15.59 1 10.42 1 5.27 1 2.21 2.52 1 5.73 1.07c19.81.19 39.68 1.22 59.41 0 20-1.29 39.9.08 59.81.47 31.61.61 63.18-2.73 94.74-1C241.83 1.75 263.9-.7 286 .53c3.36.19 4.87-.28 3.35 4.13-1.12 3.25-.39 7.27 0 10.88 1.33 11.29.32 22.55.09 33.84-.24 12.11-1 24.21.18 36.4.84 8.91 2.65 17.75 2.56 26.75 0 1.32-.18 2.68.67 3.86zm-39.84 70.48c10.42.74 20.41 0 30.4.28 4.29.12 5.54-1.28 5.12-5.39-2-19.78-1-39.68.81-59.29 1.23-13.54-1.05-26.42-1.95-39.57a139.71 139.71 0 0 1-.45-15.42c.83-19.75 1.71-39.51.44-59.27-.43-6.74-.71-6.85-7.5-6.72-43.29.82-86.59-1.27-129.87 1-17.82.94-35.59-.89-53.4-.81-10.64 0-21.25.1-31.9.56-15.06.65-30.18-.31-45.28-.45-4 0-8 1.07-11.89.5C3.32 2.63 3 4.3 2.93 7.74c-.35 11 1.33 21.91 1.37 32.9.07 20.79-.38 41.56-1.94 62.36-1.4 18.63 1.15 37.2 1.73 55.8.16 5.15-.26 10.28-.56 15.42s-.83 10.95 1.41 15c1.74 3.15 7.74.59 11.84.83 17.11 1 34.21-.53 51.34-.28 12.37.18 24.85-.09 37.27-.47 13.08-.4 26.2-.76 39.34-.42 19.45.51 38.94-.35 58.41-.5 4.81 0 9.68 1 14.42.56 11.98-1.25 23.97-.1 35.5-1.08z" fill="#fff"/></svg>