<svg xmlns="http://www.w3.org/2000/svg" viewBox="0 0 164.94 63.79"><defs><style>.cls-1{fill:#ffc700}</style></defs><title>fomdih-logo-black</title><g id="Слой_2" data-name="Слой 2"><g id="Слой_1-2" data-name="Слой 1"><g id="Слой_2-2" data-name="Слой 2"><g id="Слой_1-2-2" data-name="Слой 1-2"><path class="cls-1" d="M90.43 43.6c-.2-.3-.1-.5.3-.8.2-.1.6 0 .4-.4s-.4-.3-.7-.3a2.66 2.66 0 0 0-1.2.3 4.19 4.19 0 0 1-1.5.4c-.9.2-.9.2-.8 1.1v.9c0 .3 0 .6-.4.6s-.4-.2-.5-.4a1 1 0 0 0-.1-.3c-.2 0-.1.2-.1.3s-.3.3-.4.1c-.2-.5-.5-.3-.8-.3a5.44 5.44 0 0 1-1.8 0c-.2 0-.5-.1-.5-.3s.2-.4.3-.5.3-.1.3-.3-.2-.1-.4-.1a.55.55 0 0 1-.6-.4.47.47 0 0 1 .5-.5c.3 0 .5-.2.5-.6a54.13 54.13 0 0 0-.2-9V32c0-.1 0-.2-.1-.2s-.1.2-.1.3-.1.5-.1.7c0-.2-.1-.5-.1-.8.1-1.8-.1-3.7-.1-5.5 0-.7.4-1.3.3-2 0-.1.1-.4-.1-.4s-.1.2-.2.3a.37.37 0 0 1-.1.3v-.4c0-2.2.1-4.4.1-6.5V17c0-.3 0-.5-.4-.5-.1 0-.3 0-.3-.2s.2-.2.4-.3v.2c0 .1.1 0 .1-.1s-.1-.1-.2-.1c.2-.8.2-.7 1.1-1a2.93 2.93 0 0 0 1.6-1.3 4.78 4.78 0 0 1 1.8-.6c.3.1.3.4.4.6.2.5.2 1.2 1 1.3.2 0 .1.2 0 .2-.4.2-.3.5-.2.9.2 1 .5 2 .8 3A34.76 34.76 0 0 1 90 25.2a4.88 4.88 0 0 1 .3.7 15.87 15.87 0 0 1 .7 2h.1v.1l.2-.1.1.2c-.4.4 0 .8.1 1.2a.1.1 0 0 0 .1.1h.1a.31.31 0 0 1 .1-.2 39.38 39.38 0 0 0 1-4.7c.9-4.4 1.9-8.7 3.1-13 .1-.3.1-.8.4-.7s.1.5.1.8c-.1.5-.3 1-.4 1.5 0 .2-.1.4.1.6a1.72 1.72 0 0 0 1.7 0c0 .2.1.3.3.2s.1-.3.1-.5c.2.1.3.1.4-.2s0-.6.3-.6.2.4.3.6l.1.2c-.2.1-.3.2-.3.4s.1.1.2.1c.3-.1 0-.3.1-.5.5.2 1 .7 1.6.6.3 0 .4.3.3.6 0 .1-.1.2-.2.3a2.19 2.19 0 0 0-.3 2.2 3.4 3.4 0 0 1 0 2 5.27 5.27 0 0 0 0 2.5s-.1.2.1.1v-.2a.37.37 0 0 1 .1-.3c.2.1.1.2.1.3a88.33 88.33 0 0 0-.4 8.9c0 1.7.1 3.5.1 5.2a1.42 1.42 0 0 1-.2-.6.37.37 0 0 0-.1-.3v.3c0 1.3 0 2.6.1 3.9-.4.7-.1 1.4-.2 2.1 0 .3-.2.7.1 1l-.1.2c0 .1-.1.2 0 .3h.1v-.3c0-.1-.1-.1-.1-.2a4.68 4.68 0 0 0 .2-1.7c0-.2 0-.2.1-.2.5.3.3-.2.3-.3-.1-1-.1-2.1-.2-3.1a7.14 7.14 0 0 0 .2-2v-.2c.1 0 .1.1.1.2 0 1.4 0 2.8.1 4.3a8.17 8.17 0 0 1-.1 2.7.37.37 0 0 0 .1.3c0-.1.1-.2.1-.3s-.1-.4.1-.6v.7a.75.75 0 0 1-.1.5c-.3.3-.2.4.1.5s.4.5 0 .8a.61.61 0 0 0-.3.7c0 .1.1.4-.1.4s-.2-.3-.2-.4.2-.1.1-.2h-.1v.3a.45.45 0 0 0-.5 0v.1c-.5.8-1.3.7-2 .5l-1.4-.4a.22.22 0 0 1-.2-.2c0-.1.1-.1.2-.1s.4-.2.6-.3.2-.2 0-.2c-.5-.1-.4-.5-.4-.8a22.75 22.75 0 0 1-.2-2.6c0-5.4.2-10.8.7-16.3v-.3c0-.1.1-.3-.1-.3a.35.35 0 0 0-.1.2 15.94 15.94 0 0 0-.6 3 59.07 59.07 0 0 1-1.3 9.4c-.5 2-.5 4.1-1 6.1-.1.5.4.3.5.6-.6-.3-.6.2-.7.6-.5.1-1.1-.1-1.6.2a7.94 7.94 0 0 0-2.2-.1v-.2.1c.1 0 .1.1 0 .2zm6.8-23.3zm-10-3l.1.4a3.58 3.58 0 0 0 .4 1.1c0 .2 0 .3.1.4 0-.2 0-.3-.1-.4a1.5 1.5 0 0 0-.4-1.1c.1-.1 0-.3-.1-.4zm-1.1-.5c0 .1-.1.2.1.2l-.1-.2s0-.2-.1-.1zm4.7 18.5a.75.75 0 0 0-.1-.5v-.1.1c-.1.1 0 .3.1.5zm.9 4.2v.2c.1 0 0-.1 0-.2v-.6a.6.6 0 0 0 .1-.4c0-.2 0-.6-.2-.5s-.1.3 0 .5.1.3.1.4q-.15.45 0 .6zm2.4 0a.48.48 0 0 0 0 .7v1a.35.35 0 0 0 .1.2.37.37 0 0 0 .1-.3c.1-1 .3-2 .4-2.9V38l-.2.2a6.47 6.47 0 0 1-.4 1.3zm-.4-5.2a.82.82 0 0 0-.1.7l.1-.7zm.6 4.1a.91.91 0 0 0 .3-.7h-.1c-.3.2-.2.4-.2.7l-.1.2h.1zm-.9-7.4c-.4.1-.3.4-.4.6s0 .2.1.2.1-.1.2-.2.1-.4.1-.6zm4-15.5c-.2.2-.2.5-.3.7s0 .3.2.2.6-.9.5-1.1c-.1 0-.4-.1-.4.2zm-1.6 4a.86.86 0 0 0-.3.6c-.5 1.6-.9 3.3-1.4 4.9-.1.2.1.7-.4.6.7-2.4 1.4-4.8 2.1-7.1.1-.2.2-.3.3-.5a.6.6 0 0 0 .1-.4l-.1-.1a.74.74 0 0 1 .4-.8c.1-.1.1-.2.1-.4-.1-.5 0-1.1-.5-1.5 0 0 .1-.4-.2-.4s-.2.3-.2.5c-1 4.6-2 9.2-2.9 13.9v.2c0 .1-.1.3 0 .4v-.6H93v.2h.1l-.1-.2c0-.3-.1-.5.2-.7 0 .2 0 .3.1.4v.3c.1.1.1-.1.1-.1l.6-1.8a19.75 19.75 0 0 1 .8-2.6v.7s-.1 0 0 .1V25a2 2 0 0 0 .4-.8 23.3 23.3 0 0 0 1.3-5.2 2.16 2.16 0 0 0 .1-1.1c-.3.3-.2.7-.4.9-.2.3-.2.5-.4.7v-.2c-.07 0 .03.2.03.2zm-7.9 8c-.4-.3 0-.8-.3-1V26a.3.3 0 0 0 0-.4 13.1 13.1 0 0 0-.6-2.7c0-.1-.1-.3-.2-.3s-.1.2-.1.4a2.44 2.44 0 0 1 0 1.2c-.2.2-.1.5-.1.8a28.05 28.05 0 0 0 0 2.9c-.1 3.2-.2 6.4-.1 9.6v.4a.37.37 0 0 0 .1-.3.37.37 0 0 1 .1-.3c.1.1.1.2.1.4 0 1.4.1 2.7.1 4.1 0 .9 0 .8.9.8s1.7-.5 2.6-.5c.5 0 .4-.4.3-.6-.8-2.5-.9-5.1-1.8-7.5.3-.4-.1-.9 0-1.3a5 5 0 0 1 .4 1.3c.2.6.3 1.2.5 1.8a.22.22 0 0 0 .2.2v-.2a16.81 16.81 0 0 0-.9-3.2s0-.2-.1 0v.2l-.9-4c-.3-.7 0-1.1-.2-1.3zm11.9 2.2c-.1-1 0-2.1 0-3.1a6.8 6.8 0 0 0-.2-2c0-.1-.1-.3-.2-.3s-.1.2-.1.4v2.4c0 2.2.2 4.5.3 6.7a.9.9 0 0 0 .1.5.75.75 0 0 0 .1-.5v-4.1zm-12.4-8.1a.6.6 0 0 0 .1.4c.7 2.5 1.5 5.1 2.2 7.6a.4.4 0 0 0 .2.4v-.4c-.5-2.5-1.3-5-2-7.5-.1-.2-.1-.4-.2-.6a.22.22 0 0 0-.2-.2 1 1 0 0 0-.1.3zM97.63 40c0 .9.1 1.8.1 2.7 0 .2 0 .4.3.4s.2-.3.1-.5c-.1-.9-.2-1.7-.3-2.6 0-.3.1-.5-.1-.8a1.18 1.18 0 0 0-.1.8zm-14.4-22.4v-.5c0-.2.2-.6-.2-.6s-.2.4-.2.7v.6a1.73 1.73 0 0 0 .1 1c.4-.3.2-.7.2-1.1.1 0 .1 0 .1-.1zm15.1 6a5.7 5.7 0 0 1 .1 1.3c0 .1 0 .2.1.2s.1-.1.1-.2a20.08 20.08 0 0 0 .1-2.5.12.12 0 1 0-.2 0c-.1.4-.1.8-.2 1.2zm1.3-2.6a3.75 3.75 0 0 0-.1-1.1c0-.1 0-.2-.1-.2v2.1c0 .1 0 .4.1.4s.1-.2.1-.3V21zm-17 1.3c.1.2-.2.6.1.7s.2-.5.2-.7a1.7 1.7 0 0 0 0-1c-.2.3-.1.6-.1.9 0 .1 0 .1-.1.2 0-.1 0-.1-.1-.2s.1-.5-.1-.7zm3.8-8.3c-.1-.2.1-.5-.2-.5s-.4.1-.4.3v.1a.37.37 0 0 0 .4.4c.1.1.2-.1.2-.3zm-3.1 12.3v-.1c0-.1.1-.3-.1-.4 0 .1-.1.2-.1.3a8.13 8.13 0 0 0-.1 2.2v.3a.35.35 0 0 1 .1-.2 14.92 14.92 0 0 0 .2-2.1zm1.8-5c-.1-.2 0-.6-.2-.7s-.1.3-.1.5-.1.5.2.6.1-.3.1-.4zm5.1 15.3c-.2 0-.1.1-.1.2.1.4.2.9.3 1.3 0 .1.1.1.1.2V38l-.3-1.2v-.2zm-7.5-9.2c0 .4-.1.8.1 1.1a4.1 4.1 0 0 0 .1-1.1v-1zm10.4 5.4c0-.1 0-.3-.1-.3s-.1.2-.2.3a1.13 1.13 0 0 0-.1.8h.1a4.12 4.12 0 0 0 .3-.8zm-7.9-13.6c0-.2 0-.5-.1-.5s-.1.3-.2.5-.1.4.1.4.1-.3.2-.4zm-1.8 5.2c0-.2.1-.6-.1-.6s-.1.3-.1.5-.1.5.1.6zm17.7 17.9c0-.2 0-.5-.2-.5s-.1.2-.1.4-.1.4.1.5.2-.2.2-.4zm-17.9-20.4zm3.9-2.1a.1.1 0 0 0-.1.1c0 .2 0 .4.2.5s.2 0 .1-.1a.76.76 0 0 0-.2-.5zm6.4 10.3c.2-.2.2-.4.3-.6v-.2a1.42 1.42 0 0 0-.2.6c-.1 0-.2.1-.1.2zm-1.1 12.2c0-.1-.1-.2-.3-.2a.22.22 0 0 0-.2.2c0 .1.1.1.2.1s.3 0 .3-.1zm6.3-22.2c-.1-.1.1-.3-.1-.3s-.1.1-.1.2 0 .3.1.3.1-.1.1-.2zm-15.6 10.8l.1.5a.75.75 0 0 1 .1-.5v-.3zM94 43.2c-.1-.1-.3-.1-.4-.2s-.2 0-.2.1a.22.22 0 0 0 .2.2 1 1 0 0 1 .4-.1zM83 20c0-.2.1-.4-.1-.4s-.1.3-.1.4-.1.4.1.5c.2-.1.1-.3.1-.5zm2.9 1l-.1-.3a.31.31 0 0 0-.1.2c0 .1-.1.3.1.4s.1-.2.1-.3zM85 40.7zm.9-21.3a.19.19 0 0 0 0 .3c0 .1.1.1.1.2v-.3c0-.2 0-.2-.1-.2zm.5-4.4c.1 0 .1 0 .1-.1a.1.1 0 0 0-.1-.1c-.1 0-.1 0-.1.1s0 .1.1.1zm7.2 27.3c0-.1 0-.2-.1-.1l-.1.1c0 .1 0 .1.1.1s.1 0 .1-.1zM97 15.4l-.1-.1v.2zm-4.5 14.8c-.1 0 0 .1 0 .1zm-.3 11.6h-.1v.1c0 .1.1.1.1-.1zm.4 1.4h-.2a.1.1 0 0 0-.1.1c.1 0 .1 0 .2.1a.35.35 0 0 1 .1-.2zm5.9-15.3zm-5.3 9zm-2.1 6l-.1-.1c-.1 0-.1.1 0 .1zm-7.9-13.1zm8.7 10.7zm7.5-22.8zm-7 17a.1.1 0 0 0-.1.1zm-7.7-19.8c-.1 0 0 .1 0 0zm2.6 6zm-1.5-2zm5.2 8.6zm-.1-.4zm5.9-12.3zm-12.1 2.1zM94 42.3h-.2v.1a.35.35 0 0 0 .2-.1zm3.1-24.5zM83 19.2z"/><path d="M33.43 16.2a1.14 1.14 0 0 0-.3-.8 7.64 7.64 0 0 0-.9-.9c-.4-.3-.9-.6-.6-1.3a.22.22 0 0 0-.3-.3 3.08 3.08 0 0 1-1.9-.6 23.33 23.33 0 0 0-5.2-2 5.46 5.46 0 0 0-2.8-.6c-1.4.2-2.7.1-4.1.2-2.4.2-4.8.2-7.1 1.2-.1.1-.4.1-.6.2a8.76 8.76 0 0 0-3.2 1.6 20 20 0 0 1-2.2 1.9A7.7 7.7 0 0 0 1 19.9l-.3 1.2a14.68 14.68 0 0 0-.1 8.8c0 .1.1.2.1.3a8.26 8.26 0 0 1 .8 2.2 5.7 5.7 0 0 0 1.1 2.2 22 22 0 0 1 1.7 2.5 3.51 3.51 0 0 0 .8.5 1.84 1.84 0 0 1 1.3 1.6c0 .2.1.3.3.4a11.77 11.77 0 0 1 2.8 3.1 2.52 2.52 0 0 1 .6 2.2 1.39 1.39 0 0 0 .2 1.1c.6 1 .3 2 .2 3a.9.9 0 0 1-.1.5c0 .2 0 .3.1.4s.2-.1.3-.2.1-.3.2-.2a.19.19 0 0 1 0 .3 6.6 6.6 0 0 0-.1 1.4c.1.5-.2.7-.6.7-.8 0-1.5.1-2.3.1-.1 0-.3 0-.3.1s.2.1.3.1a19.42 19.42 0 0 1 2.4-.2.91.91 0 0 1 .8.4 1.92 1.92 0 0 0 2.6.5.1.1 0 0 0 .1-.1c.2-.7.6-.5.9-.5.6-.1 1.2.3 1.7-.1.8-.6.9.5 1.4.5h.9c0 .1-.1.2-.2.1a.9.9 0 0 1-.5-.1c-.4-.1-.6.1-.5.5 0 .1.1.1 0 .2a3.85 3.85 0 0 1-2.6.8 1.72 1.72 0 0 0-2.1.7c-.2.2-.2.4.1.6s.5.6.1.9c0 0-.2.1-.1.2h.2c.2 0 .2-.2.3-.4a1 1 0 0 1 1.5-.4c.5.3 1.1 1.1 2 .6.4-.2 1 0 1.5-.2.2 0 .4 0 .4.1.2.5.6.4.9.4a1.27 1.27 0 0 1 .6.1c.1 0 .1.1.2.1-.1 0-.1.1-.2.1a15 15 0 0 1-2.9.6 2.66 2.66 0 0 0-1.2.3.52.52 0 0 0-.2.4c0 .1.2.1.3.1h.3c.1 0 .2 0 .2.1s-.1.1-.2.2c-.3.1-.6.1-.7.4a.83.83 0 0 1-1.2.2c-.5-.3-.8 0-1.1.2s-.1.6 0 .9a4.05 4.05 0 0 0 .5.9c.6.6 1.1 1.4 1.9 1.5a12.86 12.86 0 0 1 1.9.4h.3c.1-.2.2-.3.4-.3a7.07 7.07 0 0 0 3.7-1.2c.3-.2.7-.2.7-.6s-.6-.2-.8-.4a.37.37 0 0 1-.3-.1c-.5-.4-1-.2-1.5-.1a6.24 6.24 0 0 1-3.3-.3c-.2-.1-.5-.1-.5-.4s.4-.2.6-.3.7 0 1-.3c.7-.8 1.8-.8 2.7-1.2h.1c.2.6.6.2.9.1a8 8 0 0 1 1.5-.3c.2 0 .6-.1.5-.3-.1-.6.4-.6.7-.7s.8-.2.8-.7-.4-.6-.8-.6a9.26 9.26 0 0 0-3.7-.2c-.1 0-.3.1-.4 0a2.46 2.46 0 0 0-1.5-.5c-.2 0-.5 0-.5-.3s.1-.7.5-.7c.8-.1 1.4-.6 2.3-.5a.91.91 0 0 0 .7-.3.25.25 0 0 1 .4-.1h.1c.2.1.1.3 0 .4s-.2.2-.1.4a.3.3 0 0 0 .4 0 2.35 2.35 0 0 1 .8-.2c.2 0 .5-.1.5-.2 0-.7.7-1.1.7-1.8a2.66 2.66 0 0 1 .3-1.2c.2-.4.4-.8-.1-1.2-.1 0 0-.3 0-.3.4-.5.3-1.2.5-1.7 0-.1 0-.3.2-.3s.1.2.1.3v.4c0 .2-.1.4.1.4s.1-.3.1-.4c.1-2.1.4-4.2 2.3-5.6.2-.1.3-.4.1-.5-.3-.3-.1-.4.1-.6a6 6 0 0 1 2.2-1.6 1.56 1.56 0 0 0 .8-.8.28.28 0 1 0-.4-.4c-.8.7-1.9.8-2.6 1.5a3.18 3.18 0 0 1-2 .8c-.3 0-.6-.2-1-.1s-.5-.1-.5-.4a1.7 1.7 0 0 1 .1-.7 11.61 11.61 0 0 1 2.9-5.6c.2-.2.4-.3.3-.6s-.4-.3-.6-.3c0-.2.4-.1.3-.4s-.3-.1-.5-.1h-.4a1 1 0 0 1-1.2-.9c0-.1-.1-.3-.1-.4-.8-1.5-1.4-3.1-.8-4.8a1.1 1.1 0 0 0 0-.8.44.44 0 0 1 .1-.5 36.17 36.17 0 0 1 2.2-3.2c.9-1 .3-1.5-.6-1.7a4.55 4.55 0 0 1-1.9-.8 5.32 5.32 0 0 0-3.4-1.5c-.3 0-.3-.1-.1-.4a17.41 17.41 0 0 0 1.2-1.4c.3-.3.5-.9 1.1-.4h.2a1.26 1.26 0 0 1 1.6.7v.1a7.46 7.46 0 0 0 .7 1.2c.6.9.7.9 1.7.4a.37.37 0 0 1 .3-.1c1.7.1 3.6-.3 4.8 1.5 0 .1.1.1.2.1s.1-.1.1-.2a20.25 20.25 0 0 0 .13-2.8zM3.53 16l.6-.6a.1.1 0 0 1 .1-.1s.1.1 0 .1l-.7.6v.1c-.1 0 0 0 0-.1zm-1.6 2.9q.15.3 0 .3h-.1a.37.37 0 0 1 .1-.3zm-.5 3.9c.1 0 .1.1.2.2s0 .2-.1.2-.1-.1-.1-.2-.1-.2 0-.2zM12.63 48l-.2-.2c-.4-.5-.3-1-.4-1.6V46c.1.1.1.1.1.2a4.19 4.19 0 0 1 .4 1.5.37.37 0 0 1 .1.3zm2.7 1.4c-.2.1-.5.2-.5.4-.1.5-.4.4-.7.3s-.3-.1-.2-.4.2-.6.6-.6h.8a.37.37 0 0 1 .3.1c-.1.2-.2.2-.3.2zm1.3 1.1c-.1 0-.3 0-.3-.1s.3-.1.5-.2.2 0 .2.1-.2.2-.4.2zm-.8-3.6c0-.1 0-.2.1-.2H16a1.83 1.83 0 0 1 1 .7v.1a.31.31 0 0 1-.2.1 1 1 0 0 1-.97-.7zm3.9 1.8H20a.37.37 0 0 1 .3.1l-.2.1zm.4 1.2c0-.5.6-.2.9-.2a.55.55 0 0 0 .5-.3.48.48 0 0 1 .7 0c.1.1.2.2.1.4s-.3.3-.6.3h-.8c-.2-.2-.8.2-.8-.2zm4.7.6a.35.35 0 0 0-.5.3c0 .7-.5 1.1-.7 1.7-.1.3-.5 0-.8.1-.1 0-.3.1-.4-.1s.2-.2.3-.3c.7-.6.6-1.2-.3-1.5l-1.2-.3-.2-.1h.3c.5 0 1.1-.4 1.5.3.4-.2.9 0 1.3-.3a1 1 0 0 1 .9-.1.37.37 0 0 1 .1.3c-.1.2-.2.1-.3 0zm-2-.9c0-.2.1-.5.3-.5a.37.37 0 0 1 .4.4c0 .3 0 .4-.3.4s-.4-.1-.4-.3zm9.3-31.7h-.3c-.1-.1-.3-.2-.4-.3s-.3-.3-.6-.1a.78.78 0 0 1-.8.2 3.63 3.63 0 0 0-2.7.2.25.25 0 0 1-.4-.1 4.13 4.13 0 0 1-.7-1.1c-.2-1-1-1.4-1.8-1.8s-1.1-.3-1.7.3a19.1 19.1 0 0 0-2.4 3.2c-.3.4-.1.6.2.7 1.8.5 3.3 1.9 5.4 1.8a.6.6 0 0 1 .4.1c.6.1.7.5.3.9l-2 2.3a2.36 2.36 0 0 0-.7 1.6c0 .8-.3 1.6-.3 2.4 0 .6 0 1.1.6 1.5a2.5 2.5 0 0 1 .8 1.8 2.14 2.14 0 0 0 .8 1.7.71.71 0 0 1 .2 1.1.1.1 0 0 1-.1.1c-.8 1.3-1.4 2.7-2.2 4a1.27 1.27 0 0 0 0 1.2 4.06 4.06 0 0 1 .4 1.9c0 .2-.2.5 0 .7a.74.74 0 0 0 .9-.1 4.42 4.42 0 0 1 1.6-.6h.1c.3 0 .6-.1.7.1s-.2.4-.3.6a8.85 8.85 0 0 0-1.8 2.5 2.66 2.66 0 0 0-.3 1.2c.2.1.3.3.1.4-.7.5-.4 1.3-.4 1.9v.2c0 .4 0 .9-.5 1.1s-.8-.4-1.2-.6c-.1 0-.2-.2 0-.3s.2 0 .3 0 .1.4.4.3.1-.4.1-.6-.2-.3-.4-.4c-.4-.1-.7 0-1.1-.4s-.6-.5-.5-1c0-.2-.1-.3-.2-.1l-.3.3c.2 0 .3 0 .4.2.4 1.3.1 1.7-1.3 1.5-.4 0-.7-.1-1.1-.1h-.1a2.85 2.85 0 0 1-1.3 0 2.34 2.34 0 0 1-1.2-1l-.1-.1a2.65 2.65 0 0 0-.6-.5c-.3-.2-.6-.3-.9 0s-.1.6.1.9c.1.1.4.2.3.4s-.4.1-.6.1c-.6-.1-1.1.4-1.7.5-.3 0-.5 0-.6-.3a.76.76 0 0 1-.2-.5c-.2-1.1-.8-2.1-1-3.2a11.4 11.4 0 0 0-1.5-3.4 1.21 1.21 0 0 0-.7-.7c.3-.2.1-.4-.1-.6-.7-1.5-2.1-2.5-3-3.9a10.7 10.7 0 0 0-1.4-1.6 6.61 6.61 0 0 1-1.6-3.1 11.29 11.29 0 0 1 0-2.6c0-.1.1-.2 0-.2s-.1.1-.1.2a6.11 6.11 0 0 1-.3 1.3v.4c-.4-.4-.4-1.1-.7-1.5H2c.4 0 .2-.3.1-.3-.8-.5-.7-1.2-.5-2v-1.1a2.2 2.2 0 0 1 .4-1.3 2.45 2.45 0 0 0 .4-1.2 6.44 6.44 0 0 1 .5-2.4A2.48 2.48 0 0 1 4.13 19a1 1 0 0 0 .4-.5 4.44 4.44 0 0 1 .8-1.1 2.6 2.6 0 0 0 .9-1.6c.1-.6.6-.9 1-1.2s.6-.3.8-.7a.35.35 0 0 1 .2-.1c0-.1-.1 0-.1.2a2.55 2.55 0 0 1-.7 1 .31.31 0 0 0-.1.2c.1.1.2 0 .3 0a1.89 1.89 0 0 0 1-1.3 1.06 1.06 0 0 1 .8-.9c1.1-.5 1.1-.6 2.1.3 1.2 1 2.5 2 3.8 2.9.3.2.6.5 1 .3s.3-.7.2-1.1a6.71 6.71 0 0 0-1-2.3c.1.3.3.7.4 1a2.77 2.77 0 0 1 .3 1.3c0 .3.1.6-.2.8s-.5-.1-.7-.3a33.92 33.92 0 0 1-4.2-3.3c-.4-.3-.3-.5.1-.7l.6-.3c.9-.4.9-.4 1.5.3.1.1.3.2.4.3s.5.1.5-.2-.2-.1-.4-.1-.5-.3-.6-.6.3-.3.5-.3c1.3 0 2.5-.4 3.8-.3 1.6.1 3.1-.1 4.7 0a7.45 7.45 0 0 1 3.6 1.3c.9.7 2.1.9 3 1.6s1.7.8 2.3 1.6a8.18 8.18 0 0 1 1 2.4c.1.1.1.3 0 .3z"/><path class="cls-1" d="M14.93 26.2a2.35 2.35 0 0 0-.8-.2c-.4 0-.6.1-.4.5a1.56 1.56 0 0 1-.9 1.8A27 27 0 0 0 9 30.2c-.5.2-.5.1-.4-.3l4-8.3c-.2.2-4.4 8.7-4.2 8.9s.4 0 .6-.1c1-.5 1.9-1 2.9-1.4a3.58 3.58 0 0 1 1.1-.4c1.1-.5 1.7.3 1.9 1.2l.3 1.8a3.1 3.1 0 0 0 .9 1.8 1 1 0 0 1 .2 1.3 2.23 2.23 0 0 0-.2 2.1 9.36 9.36 0 0 1 .4 1.6c.3 2.3.6 4.6.8 6.9a10 10 0 0 0 .2 1.6 1.3 1.3 0 0 0 .9 1 2.54 2.54 0 0 0 1.2-.2.35.35 0 0 0 .2-.1c.2-.1.6-.1.6-.4s-.3-.5-.5-.6c-.9-.4-1.2-.9-.7-1.8a4.69 4.69 0 0 0 .3-3.3 8.77 8.77 0 0 0-1.7-4.1 1.75 1.75 0 0 1-.3-1.7 6.9 6.9 0 0 0 .4-2.5.75.75 0 0 1 .6-.7 15.39 15.39 0 0 1 1.9-.8 1 1 0 0 0 .7-.8 3.25 3.25 0 0 0-.6-2.7 1.5 1.5 0 0 0-1.1-.4c-1.47-.5-2.97-1-4.47-1.6zm2.6 12.5c.2 0 .2.1.3.2a8 8 0 0 1 1.1 4 12.82 12.82 0 0 0-.5 2.7c0 .1 0 .2-.1.2a.31.31 0 0 1-.1-.2l-.6-4.8c-.1-.6-.1-1.2-.2-1.8a.22.22 0 0 1 .1-.3zm1.6-7.7a4 4 0 0 0-2.1.7c-.4.3-.8.5-.5 1.1.1.1 0 .3-.1.4-.2.1-.2-.1-.3-.2a3.39 3.39 0 0 1-.6-1.5l-.3-1.8c-.1-.3 0-.4.4-.4 1 0 2-.1 3-.1.6 0 .8.4.9 1.2.4.5 0 .5-.4.6z"/><path d="M149.73 45.4a2.2 2.2 0 0 1 .1-.8c0-.1 0-.3-.1-.3s-.3 0-.4.2-.1.4-.1.6-.1.5-.2 0l-.1-.1v.1c0 .1 0 .4-.2.3s-.2-.4-.5-.5.1-.1.2-.1a.44.44 0 0 0 .1-.5 3.07 3.07 0 0 0-1.5-1h-1c-.2 0-.4 0-.4-.2s.3-.2.4-.3h.9c.5 0 .7-.2.7-.7 0-2.1.1-4.2.1-6.3a10.87 10.87 0 0 0 .1-1.8c-.2-2.2.5-4.4.4-6.5 0-.4-.1-.8-.1-1.3.3-.6 0-1.1-.1-1.7a5.85 5.85 0 0 1-.2-1.3 7.08 7.08 0 0 0 0-2.9c0-.4-.6-.1-.6-.4s.5-.1.5-.5.2-1.1-.5-1.4c-.2-.1-.4-.4-.3-.5.2-.4-.1-.5-.2-.7s-.3-.5 0-.8c0 .2-.1.4.1.5s.2-.2.3-.3a.35.35 0 0 0 .2-.1c.2-.2.8-.1.7-.4s-.6-.1-.9-.1a1.67 1.67 0 0 1 1.2-.1c.5 0 .6-.1.6-.6a26.2 26.2 0 0 1-.1-2.8c0-.2-.1-.6.2-.6s.2.4.3.6c.1.9.3 1.8.4 2.7 0 .3.1.5.4.4s.8.1.9-.5c.1-.3-.2-.9.3-1s.2.6.3.9.4.3.6.3l3.1-.2h.4c-.1 0-.2.1-.3.1-1 .2-2.1.3-3.1.5-.5.1-.3.1-.3.5-.1.7.6.7.7 1.1s-.2.3-.3.4c-.3.1-.6 0-.6.5s.4.4.7.4.8-.2.8.2-.5.3-.8.3-.3.1-.5.2l-.1.2h.1v-.3c.2.1.3.3.2.4-.4.3-.2.7-.2 1a.66.66 0 0 0-.1.6c0 1 0 2.1.1 3.1v.3a.37.37 0 0 0 .1-.3 19.27 19.27 0 0 1 .1-2.4v-.3a.19.19 0 0 1 0 .3c0 1.4-.1 2.8-.2 4.2-.1.4.1.5.5.4a17 17 0 0 1 4.5 0c.6.1.4-.3.4-.6-.1-2.6-.1-5.2 0-7.7a1.7 1.7 0 0 1 .1-.7c.1-.2.1-.4.4-.4s.3.1.3-.2 0-.4-.2-.4-.6-.1-.5-.4.4-.3.5-.5c.4-.3.9-.2 1.1-.8.1-.2.3-.2.5-.2.6.1.7-.2.7-.8a1.06 1.06 0 0 1 .1-.8c.3.3.1.6.1.8v.5c0 .2.2.2.3.3s.1-.1.2-.3 0-.3.1-.3.2.2.2.3a2.49 2.49 0 0 1 .1.8c0 .6 0 1 .8 1l.1.1c-.1 0-.1.1-.2.1a.9.9 0 0 0-.5.1v.1l.1.3a.67.67 0 0 0 .1 1 .45.45 0 0 0 .5 0c.2-.2 0-.3-.1-.4s-.4-.3-.5-.5a.52.52 0 0 1 .4.2c.1.1.2.2.3.1s0-.2-.1-.3a.35.35 0 0 1-.1-.2h.4a.22.22 0 0 1 .2-.2c.1.5.5.6.8.9.1.1.3.3.1.4-.5.2-.4.6-.3 1a5.7 5.7 0 0 1-.1 1.3l-.3 18.7a1.7 1.7 0 0 1-.1.7c-.2-.2-.1-.5-.1-.7l.3-18.1v-.9c-.2.1-.1.3-.1.5-.5 5.3-.5 10.6-.5 15.9 0 1.6.1 3.3.2 4.9 0 .8.8.9 1.3 1.3.3.3 1 .2.9.8s-.7.5-1.1.5c-.1 0-.3.1-.3.2-.3-.1-.6-.4-.6.2 0 .1 0 .1-.3-.1 0-.1.1-.1 0-.2s-.1 0-.1 0l.1.2a1.3 1.3 0 0 0-.9 1c0 .2-.1.4-.3.4s-.1-.3-.2-.4.1-.5-.1-.6c-.1.2 0 .4-.1.6s.1.5-.3.5-.6 0-.6-.4c0-.1-.1-.3-.1-.4a.37.37 0 0 1-.1.3c0 .1 0 .3-.1.3s-.1-.2-.1-.3c0-.4.1-.8-.5-.7-.4 0-.5.2-.5.5a.9.9 0 0 1-.1.5v-.4c0-.3 0-.5-.4-.5s-.2-.5-.4-.6c-.5-.2-.1-.3 0-.5a.9.9 0 0 0 .1-.5c-.2-3.6.1-7.3-.1-10.9 0-.7-.1-1.3-.1-2 0-.5-.2-.6-.6-.6a17.57 17.57 0 0 1-4.6.2c-.5-.1-.4.3-.5.6-.1 2.9-.1 5.8-.2 8.6a8.52 8.52 0 0 1-.3 2.3c-.2.7 0 .8.6.7h.1c.4 0 .8-.3 1 .2s-.3.7-.6 1c-.1.1-.4.1-.3.3a.4.4 0 0 0 .4.2l1.2.3c.2 0 .5 0 .5.2s-.3.1-.5.1a8.33 8.33 0 0 1-2.2-.3c-.2 0-.4-.2-.5 0s.3.1.4.1.5.1.7.2c-.3.1-.6 0-.8.2a4.73 4.73 0 0 0-1.7-.1c-.2 0-.2.2-.3.3-.1.3 0 .6-.3.8zm10.2-2zm1.1-28zm-10 2.3c-.1.1-.3 0-.3.2 0 0 .1.1.1 0 .4 0 .2-.1.2-.2zm9.1 24.7c.1-.3 0-.7.1-1.1.1-.2-.3-.3-.3-.5l-.1.1a1 1 0 0 0 .3 1.4c-.1 0-.1.1 0 .1zm1.6-21.5v-1.8a5.44 5.44 0 0 0 0 1.8c0 1.7.1 3.5.1 5.2v.3c0-.1.1-.2.1-.3 0-1.6-.1-3.3-.1-4.9a.37.37 0 0 0-.1-.3zm-.9-2.7c-.1-.1-.1-.3-.2-.4a.6.6 0 0 0-.1-.4v.4c0 2 0 4 .2 6 0 .2-.1.5.1.7v-.7a52.29 52.29 0 0 0 0-5.6.82.82 0 0 0 .1-.7 1.48 1.48 0 0 0-.1.7zm-9.6 2.6v-.1a.3.3 0 0 0 0-.4h-.1a.3.3 0 0 0-.4 0c-.2.1-.1.3-.1.5s.1.3.2.3a1.85 1.85 0 0 0-.2.7c.1 1.2.2 2.4.2 3.6 0 .1-.1.3.1.3a.27.27 0 0 0 .3-.3V25c-.1-1.1-.1-2.3-.1-3.4.3-.4.3-.6.1-.8zm11.4.7c0-1 0-2 .1-3.1 0-.2.1-.6-.3-.6s-.3.3-.3.6v.1c0 2 0 4.1.1 6.1s.1 4 .1 6a.6.6 0 0 0 .1.4v-.4c.1-1.5 0-2.9 0-4.4s.2-3.1.2-4.7zm-11.7 13a12.22 12.22 0 0 0 .2 3.3.37.37 0 0 0 .1.3v-.3a22.6 22.6 0 0 1 .1-2.6 10 10 0 0 0-.8-4.5c0-.1-.1-.1-.1-.2v.2a24.1 24.1 0 0 0 0 3.8c0 .1-.1.3.1.3l.1-.2c0-.6.1-1.3.1-1.9a.37.37 0 0 1 .1-.3.37.37 0 0 0 .1.3 5.43 5.43 0 0 1 0 1.8zm9.2.8c-.1 1.2-.1 2.4-.1 3.6 0 .1 0 .2.1.2s.1-.1.1-.2a7.14 7.14 0 0 0 .2-2 17.44 17.44 0 0 0-.1-5.1.37.37 0 0 0-.1-.3v.3c-.1 1.2-.1 2.4-.1 3.5zm.3 5.5a4.1 4.1 0 0 1 .1 1.1c0 .2-.1.4.1.5s.3-.2.4-.3c.3-.3-.2-.3-.2-.5s-.3-.3-.1-.5.2.1.3.1c.3 0 .3-.2.3-.5 0-.5-.3-1-.3-1.4a21.05 21.05 0 0 0-.2-2.5.37.37 0 0 0-.1-.3c0 .1-.1.2-.1.3-.1 1.3-.2 2.7-.2 4zm2.7-23a.48.48 0 0 0-.2.6c-.1 2-.1 3.9-.1 5.9v.4a.37.37 0 0 1 .1-.3c.3-1.8 0-3.7.7-5.6 0-.4-.5-.5-.5-1zm-13.8-4.7c0 .6.1 1.2.1 1.9 0 .1 0 .3.2.3s.2-.2.2-.3c-.1-.7-.2-1.3-.3-2a2.35 2.35 0 0 0-.2-.8v.9zm12.9 21.6a7.41 7.41 0 0 0-.1-2.1v-.2c0 .1 0 .1-.1.2a4.08 4.08 0 0 0-.1 1.9 3.6 3.6 0 0 0 .2 1.1zm-.1 4.9v.6c0 .2 0 .4.2.4s.2-.2.2-.3a6.6 6.6 0 0 0-.1-1.4c0-.1-.1-.2-.1-.3a.37.37 0 0 0-.1.3 1.48 1.48 0 0 1-.1.7zm-11-21c-.4 0-.4.2-.4.4s-.2.6.2.6a.55.55 0 0 0 .5-.3v-.1c0-.3 0-.6-.3-.6zm.2 21.2a6.75 6.75 0 0 0-.2-1.4.35.35 0 0 0-.1-.2.35.35 0 0 1-.1.2 6.6 6.6 0 0 0 .1 1.4c0 .2 0 .5.2.4s0-.3.1-.4zm.1-9.1v-.9c0-.1.1-.3-.1-.3s-.2.2-.2.3c0 .7.1 1.4.1 2 0 .1 0 .1.1.2a.35.35 0 0 1 .1-.2v-1.1zm8.2-14v-.1c0-.2.1-.5-.1-.5s-.2.3-.2.5a9.7 9.7 0 0 0 .1 1.7v.3a.37.37 0 0 0 .1-.3c0-.6.1-1.1.1-1.6zm2.5 21.3a7.72 7.72 0 0 0-.2-1.5c0-.1 0-.1-.1-.2 0 .1 0 .2-.1.2 0 .5.1 1 .1 1.6 0 .1-.1.4.1.4.4-.1.2-.4.2-.5zm-13.5-19c.1.2-.1.6.1.6s.2-.4.2-.6.2-.7-.2-.7c-.2 0 0 .5-.1.7zm9.8.4a4.48 4.48 0 0 0 .1-1.1 4.48 4.48 0 0 0-.1 1.1zm-9 20.1v1.3c0-.1 0-.1.1-.2a4.1 4.1 0 0 1-.1-1.1zm10.1-17v-1.1a2 2 0 0 0 0 1.1 5.7 5.7 0 0 0-.1 1.3 2.88 2.88 0 0 0 .1-1.3zm1.9-3.4v-1.3c0 .1-.1.2-.1.3a3.75 3.75 0 0 1 .1 1 4.48 4.48 0 0 0-.1 1.2zm2.1-1.7c0-.3-.3-.2-.4-.3s-.1.1-.1.2c0 .3.2.3.4.3s.1-.1.1-.2zm-1.6 12.4v-.7c0 .1-.1.2-.1.3v.3a.75.75 0 0 0 .1.5zm-10.4-3.6c0-.1 0-.2-.2-.2a.22.22 0 0 0-.2.2c0 .1 0 .2.2.2s.2-.1.2-.2zm10.2-.8l-.1-.5c0 .2-.1.5-.1.7v.4c.2-.2.1-.4.2-.6zm.1 2.4c0-.2.1-.4-.1-.5a.9.9 0 0 1-.1.5v.5c.2-.2.1-.4.2-.5zm1.6 15.2c.1 0 .3.1.4-.1a1 1 0 0 0-.3-.1c-.1 0-.3 0-.3.1s.2.1.2.1zm-2.6-.3c-.1 0-.3-.1-.3.1s.1.1.3.2.3 0 .3-.2-.2-.1-.3-.1zm1.4.9c-.1 0-.2 0-.2.1 0 .2.1.2.3.2s.3.1.3-.1a.52.52 0 0 0-.4-.2zm-11.8-7.8c.1.1-.1.3.1.4V36c0-.1-.1-.3-.1-.4zm10.9-9.3a.37.37 0 0 0-.1.3zm-11.9 9.1zm3.3-17.4c-.1.1-.4-.1-.4.1s.2.1.3.1a1.49 1.49 0 0 0 .6-.1zm-1.6-2.7c-.1 0-.2 0-.2.1s.1.1.2.1a.1.1 0 0 0 .1-.1c.1-.1 0-.1-.1-.1zm11.5 25.6c0-.1 0-.2-.1-.2s-.2.1-.1.2a.1.1 0 0 0 .1.1c0 .1.1 0 .1-.1zm-1.1-24.2l-.1-.3c0 .1-.1.2-.1.3v.2c.2 0 .2 0 .2-.2zm-11.7 4.9zm-1-1.5c0-.1 0-.2-.1-.2s-.1.1-.1.2 0 .2.1.2.1 0 .1-.2zm14 22.5l.1-.1a.35.35 0 0 0-.2-.1c-.1 0-.1 0-.1.1-.1.1 0 .1.2.1zm-12.1-16.2c0-.1.1-.2.1-.3a.37.37 0 0 0-.1-.3c0 .1 0 .1-.1.2.1.1.1.2.1.4zM162 44.2c-.1 0-.1.1-.1.2v.1l.2-.2c.13 0 .03-.1-.1-.1zm-1-27.4l-.1-.3-.1.1a.37.37 0 0 0 .1.3zm-12.2 4.3V21a.1.1 0 0 0-.1.1s0 .1.1 0zm1-.4v.1-.1zm11 23.5c0 .1-.1.2-.1.3s0 .1.1.2c0-.1.1-.1.1-.2a.37.37 0 0 0-.07-.3zm1.6-6.9l-.1-.2c.1 0 0 0 .1.2a.1.1 0 0 0-.1.1zm-13 6.6a.1.1 0 0 1-.1-.1h-.1v.1zm-.3.6v-.2c-.1 0-.1.1 0 .2-.1 0-.1.1 0 .1zm3.4-27.4l-.1-.1h-.1c-.1 0 0 .1 0 .1zM150.83 30v.2l.1-.1a.1.1 0 0 1-.1-.1zm10.6 3.2zm-1.8-18.4c-.1.1-.1.2 0 .2s.1-.1 0-.2zm-8.9 10.4v.1h.1a.1.1 0 0 0-.1-.1zm-2-3.7zm12.4 20.1zm.3-26.4zm-10.3 28.7zm-.3-14.3zm9.3 10.1zm3.7-22.3zm-.3.5zm-12.6.4c.1.1.1 0 0 0zm-35.7 25.4c-.2 0-.3-.5-.6-.1l-.1-.1c-.1-.3-.3-.4-.5-.3s-.5.3-.4.6c.2.8-.4 1.2-.7 1.6s-.5 0-.6-.2a11.93 11.93 0 0 1-.5-2.6c-.1-.4.3-1.1-.5-1.2v-.1c.7-.1.3-.5.3-.9.2-2 .2-4 .2-6 0-3.2-.1-6.4-.2-9.5a16.2 16.2 0 0 1 .1-2.2 17.7 17.7 0 0 0-.1-2.3v-3.8a1.27 1.27 0 0 0-.1-.6.61.61 0 0 0 0-.8 1.38 1.38 0 0 1 .3-1.7c.2-.3.3-.3.5-.1.1 0 0 .2.1.1a.35.35 0 0 0 .1-.2h-.2l.1-.3c.3-.1.5.2.7.3-.1 0-.3-.1-.3.1s0 .1.1.1h.1c.2-.1.1-.2.1-.3.4 0 .8.3 1.3.3s.6-.2.6-.6v-.2c0 .1.1.1.1.2-.1 1 .7.9 1.3 1h.2a4.92 4.92 0 0 0 1.7.6 1.43 1.43 0 0 1 1.2.6 2.66 2.66 0 0 0 2 .9 1.25 1.25 0 0 1 1.1.6 19.41 19.41 0 0 1 2.1 2.9 10.67 10.67 0 0 1 .7 2.7v.1c-.8.6-.4 1.4-.4 2.2a32.47 32.47 0 0 0 .1 5.4c.1 1.3.4 2.5.4 3.8v.3c0 .2.1.4-.2.5-.1 0 0-.3-.1-.4a8.31 8.31 0 0 1-.3-2.7.12.12 0 1 0-.2 0c0 1.8 0 3.6-.1 5.4a.37.37 0 0 0 .1.3 11.7 11.7 0 0 0-.5 2 1.05 1.05 0 0 1-.5.9 3 3 0 0 1-.4.8 2.85 2.85 0 0 0-.8 1.4h-.1c-.1 0-.1 0-.1-.1-.4-.1-.6.1-.9.2a2.1 2.1 0 0 1-1.1.4c-.3-.3-.6-.1-.8 0s-.1-.1-.3 0 0 0 0 .1h.3c.1.2.4.1.5.2-.4.8-1.3.7-1.9 1 0-.1.1-.3-.1-.3a5.29 5.29 0 0 0-2.8 0zm3.2-4.3c0-.1.1-.1 0 0zm.8-19.7l.1.2c.1.1.2.3.4.2l.2.2.1.1a.19.19 0 0 0 .3.1.1.1 0 0 0 .1.1v.7h-.3a2.34 2.34 0 0 1-.7-.7v-.1l-.1-.1c-.1-.4-.6-.5-.7-.9h-.1c-.4-.1-.7-.6-1.2-.6l-.4-.1v.2c-.5-.2-.7.4-1.1.3-.7-.2-.5.2-.5.6v1.4a11.26 11.26 0 0 0 .2 3.2c-.3.7 0 1.4-.1 2.2s.4 1.4 0 2.2v-.2c0 2.3.2 4.6 0 7V37a.37.37 0 0 1 .1-.3v-.2a.37.37 0 0 1 .1-.3v3c0 .2-.1.5.2.5s.4-.3.4-.5v-.5c0 .2-.1.5.1.7s.4-.1.6-.3a33.28 33.28 0 0 0 3.9-3.6.73.73 0 0 0 .2-.6c0-1-.1-2-.1-3.1 0-2.3-.4-4.5-.1-6.8a4.19 4.19 0 0 0 .1-1.6v-.2c-.1 0-.1.1-.1.2V25l-.3.4V25a7.58 7.58 0 0 0-.1-2.6c.2-.4.1-.6-.3-.7v-.1l.2-.2c.1 0 .2.1.2 0s-.2-.3-.2-.4l.1-.1a.22.22 0 0 0-.2-.2.1.1 0 0 0-.1-.1c0-.1-.2-.1-.3-.1l-.1-.1v-.1c0-.1-.2-.1-.1-.3h-.3zM114 42.8zm6.7-24zm.6 22zm1.1-1.8c-.1 0-.1 0 0 .1V39zm-2.3-.8zm-.4-.1a.27.27 0 0 0 .3-.3c-.2.1-.3.1-.3.3-.1.1 0 .1 0 0zm-1 5h.3V43l-.3.1zM114.83 16c-.1 0-.2 0-.2.2s0 .1.1.1h.1q.15-.3 0-.3zm4.9 22.9c.1 0 .3.1.4-.1v-.1a.52.52 0 0 0-.4.2v.2a4.71 4.71 0 0 0-1.5 1.3.31.31 0 0 0-.1.2c0 .1.2 0 .3 0h.3c0 .1-.1.3.2.2s.5-.2.6-.5v-.2c.2-.3.5-.4.6-.8s0-.4-.3-.3zm-5 .2v.4c0 .1.1.1.1 0s0-.3-.1-.4v-.2a.37.37 0 0 0-.1-.3v.3c0 .1.1.1.1.2zm5.2-20.3v.1c-.2 0-.5-.3-.7 0-.4 0-.7-.4-1.2-.4a3.29 3.29 0 0 0 1.3.7c0 .1.1.1.1 0 .2.1.4.3.6.4h.3c.1-.1-.1-.2-.1-.4.1 0 .2-.1.1-.2.1-.1-.2-.2-.4-.2zm-.4 19.8c-.1-.1-.2 0-.3 0s-.2.1-.2.2.2 0 .3-.1a.35.35 0 0 1 .2-.1zm-4.4-23.2v.2c0 .1 0 .3.2.3h.1a.6.6 0 0 0-.1-.4c0-.1-.1-.1-.2-.1s-.3-.2-.4 0v.2c.2.1.3-.2.4-.2zm3.1 1.3c.2 0 .4.2.5 0s-.3-.2-.4-.2a.37.37 0 0 0-.3.1c-.2 0-.3-.2-.4 0s.2.2.3.3c.1-.1.3-.1.3-.2zm-2.6-1.7a.62.62 0 0 0 .7.2v-.1c-.3-.1-.5-.2-.7-.1zm-1.7 1c-.2 0-.5-.1-.6.1s.3 0 .4.2c.1 0 .2.1.3 0s-.2-.2-.1-.3a.21.21 0 0 0 0-.4h-.3c-.1.3.2.2.3.4zm3.8 24.1h-.2c-.1.1-.3.1-.3.2s0 .1.1.1.3 0 .4-.2v-.1zm1.9 2c-.1.1-.3-.1-.4 0v.1l.4-.1a2.58 2.58 0 0 0 2.1-.7v-.3c-.1-.1-.2 0-.3 0a7.68 7.68 0 0 0-1.8 1zm2.3-10.1a4.08 4.08 0 0 1-.1-1.9c0-.4.1-.8.1-1.2v-.2c0 .1 0 .1-.1.2a32.47 32.47 0 0 0-.1 5.4c0 .1 0 .2.1.2s.1-.1.1-.2a8.84 8.84 0 0 1 0-2.3 1.48 1.48 0 0 0 .1-.7zm2-3.5c-.1-1.8-.1-3.4-.2-5.1 0-.1.1-.4-.1-.4s-.1.3-.1.4a18.48 18.48 0 0 1 .1 2.3 24.37 24.37 0 0 0 .1 2.7 1.85 1.85 0 0 0 .2.7c.1-.3-.1-.5 0-.6zm-10.5-8.2v-1.8c0-.1-.1-.3-.2-.3s-.2.2-.2.3c0 1.2.1 2.4.1 3.6 0 .1 0 .2.1.2s.1-.1.1-.2a12.13 12.13 0 0 0 .1-1.8zm-.9 22.8a9.85 9.85 0 0 0-.2-1.7c0-.1.1-.2-.1-.2v.2a7.41 7.41 0 0 0 .1 2.1c0 .1 0 .3.1.3s.1-.2.1-.3zm1.8-10.3v.9a.37.37 0 0 0 .1.3c0-.1.1-.2.1-.3 0-1.5 0-2.9-.1-4.4 0-.1 0-.2-.1-.2a.37.37 0 0 1-.1.3c-.1 1.2.2 2.3.1 3.4zm9.6 2.5a10.87 10.87 0 0 0-.1-1.8.17.17 0 1 0-.2 0v2a4.25 4.25 0 0 0 .2 1.1 4.87 4.87 0 0 0 .1-1.2zm.5-10a5.7 5.7 0 0 0-.1-1.3c0-.1-.1-.1-.1-.2 0 .1-.1.1-.1.2a6.15 6.15 0 0 0 .1 1.3c0 .3.1.5.1.8zm-12.8-.9a3.08 3.08 0 0 0-.1 1 1.73 1.73 0 0 0 .1-1zm1.2-8.3a.77.77 0 0 0-.1.3c0 .3.3.3.5.4s.2 0 .2-.1c-.1-.3-.6-.1-.6-.6zm11.9 6.1c0-.2 0-.4-.2-.4s-.1.2-.1.3-.1.3.1.4.2-.2.2-.3zm-10.2 3.3V25a1.27 1.27 0 0 0-.1.6v.3c.2-.1.1-.2.1-.4zm7.1 1.1zm1.8 3.4v.3a.19.19 0 0 0 0-.3c.1 0 .1-.2 0-.3zm-9.8-13c.1 0 .1 0 .2-.1s0-.2-.1-.2-.1 0-.1.1zm3.4-1.7c-.1-.1-.1-.1-.2-.1h-.2a.1.1 0 0 0 .1.1c.1.1.2 0 .27 0zm1.5 27.5h-.2a.1.1 0 0 0-.1.1.35.35 0 0 0 .2.1c.1 0 .2-.1.1-.2zm2-26.2a.22.22 0 0 0-.2.2c0 .1.2.1.2.1s.2 0 .1-.1c.1-.2 0-.2-.1-.2zm-6 10.4l-.1-.2a.35.35 0 0 0-.1.2v.2zm8.4 13.2c0-.1 0-.1-.1-.1a.1.1 0 0 0-.1.1v.1zm-.4 0c0-.1 0-.1-.1-.1s-.1.1-.1.2 0 .1.1.1.1 0 .1-.2zm-7-23.4l-.1.1.1.1h.1zm-1.8.4c-.1 0-.2.1-.1.1l.1.1c.1 0 .1 0 .1-.1s0 0-.1-.1zm8.8 20.3a.1.1 0 0 1 .1-.1v-.2l-.1.1v.2zm-1.8-19.7h-.1c0 .1.1.1.2.2h.1c0-.1-.1-.1-.2-.2zm-6.5 24.1l-.1-.1v.1s-.1.1.1 0zm9.3-19.8zm-2.3-.5v.2a.1.1 0 0 0 .1.1c.1 0 .1-.1.1-.2a.31.31 0 0 0-.2-.1zm-6.8 13.3zm-1.1-20.6zm1.4 23.4zm7.8.9v-.1a.1.1 0 0 0-.1.1zm.9.5v.1c-.1 0 0-.1 0-.1zM122 40.9v.2c0 .1.1.1.1 0a.31.31 0 0 0-.1-.2c.1.1 0 .1 0 0zm-3.9 2.3zm4.9-22.3zm-1.8 1.8v-.1h-.1a.1.1 0 0 1 .1.1zm1.8-2.6c0-.1-.1 0 0 0l-.1.1zm-2.2-.9v.2h.1c0-.1 0-.2-.1-.2zm-8.6-4.8zm9 6.6c.1 0 .1-.1 0 0zm-5-4.2zm.1.3zm-1.2-2zm7.3 25.7z"/><path class="cls-1" d="M74.63 17.3c-.6.2-.2.5-.1.8v.1c0 .1.1.1.2.2l.2.2v.1c-.3-.1-.6-.2-.7-.6v-.2l-.2-.1v-.2c.4 0 .4-.2.3-.4s-.2-.3-.3-.2-.1.3-.1.5 0 .1.1.2.1.1 0 .2l.2.1v.2c-.3 0-.3.2-.3.4V22a.37.37 0 0 0 .1.3c0-.1.1-.2.1-.3a6.6 6.6 0 0 1 .1-1.4.37.37 0 0 1 .1-.3v.4c0 4.2-.1 8.4-.2 12.7.1-3.2.1-6.3.2-9.5 0-.3.1-.5-.1-.8-.2.2-.1.5-.1.8A75 75 0 0 0 74 34.5c0 .2.1.4.1.6s.1.5.1.7c0-.2.1-.4.1-.6a.1.1 0 0 1 .1-.1v.2c0 1.1.1 2.1.1 3.2a4.94 4.94 0 0 0 .5 2.4c.1.1-.5 1.1-.6 1-.5-.2-.5.3-.7.5-.4.4-.5 1-1 1.3v-.3a.37.37 0 0 0-.1.3h-.5a.37.37 0 0 0-.1.3c.1-.1.2-.2.1-.3.1 0 .2 0 .2-.1h.2a2.34 2.34 0 0 1-.7 1.7c-.2.2-.3.3-.6.1a1.88 1.88 0 0 0-1.9-.2 4.43 4.43 0 0 1-2 .3H64a1.7 1.7 0 0 1-.7-.1c.3 0 .8.1.8-.1s-.4-.4-.6-.5a2.18 2.18 0 0 1-.9-.7 7.64 7.64 0 0 0-.9-.9 2.25 2.25 0 0 1-1.2-2.1c0-.5.1-1.1.1-1.6.1-5.5.3-11 .3-16.5 0-1 .2-1.9.2-2.8 0-.2.1-.4-.2-.4l-.1-.1c.2-.4.6-.8-.1-1.1a3.92 3.92 0 0 0 .9-2.6 1 1 0 0 1 .1-.3c.1 0 .1.2.2.3s.2.4.5.3.2-.3.2-.5c.1-.4.3-.5.7-.5s.4-.1.1-.3c-.1-.2.7-.6-.1-.8a.1.1 0 0 1-.1-.1h.1c.2 0 .4-.1.5.1.2.4.7.4 1.1.5a8.76 8.76 0 0 0 2.8 0c.7 0 1.3-.4 2-.3.1 0 .2-.1.3-.2.1-.4.3-.4.6-.1a.57.57 0 0 0 .7.2c.4-.2.8 0 1.1 0 .1 0 .2.1.3.2.1.5.2.5.7.5s.4-.4.5-.6a8.6 8.6 0 0 0 .1-1.6v-.2c.1 0 .1.1.1.2 0 .6.1 1.1.1 1.7a.67.67 0 0 0 .5.7c.2.1.3.3.1.3-.9.1-.4.6-.3 1-.2.1-.3.2-.1.4s.1.2.2.1-.1-.3-.1-.5a.43.43 0 0 1 .4.4c-.8.1-.3.2-.3.4zm-10.9 26.8zm8.2-23.6l.1.2.1-.1-.2-.1-.1-.4h-.1a.52.52 0 0 0 .2.4zm-.2-6.1h-.1c-.2 0-.4-.1-.6.1.2 0 .5.2.7-.1l.2-.1zM61.33 42c-.3.2-.1.4 0 .5a.26.26 0 1 0 .1-.4c-.1 0-.1 0-.1-.1a.25.25 0 0 0-.1-.4h-.1c-.13.2.2.3.2.4zm11.9-3.2c.3.5 0 1 0 1.4.1-.3.7-.3.6-.9-.2-1.1-.3-2.2-.4-3.3 0-.1 0-.3-.1-.3s-.1.2-.1.3a13.1 13.1 0 0 1 0 2.8zm-1.4-12a7.63 7.63 0 0 0-.2 2.6 50.55 50.55 0 0 0 .2 5.5c0 .1 0 .3.2.3s.1-.2.1-.3v-2.4c.1-1.6-.3-3.1 0-4.7v-.2A52.33 52.33 0 0 0 72 22c0-.2.1-.5-.2-.5s-.2.4-.2.6a37 37 0 0 1 .2 4.7zm-1.1 1.3c0-1.6.1-4.3.1-7 0-1-.8-1.6-1.3-2.3-.1-.1-.3 0-.5 0-1 .2-2 .3-3 .4a1.75 1.75 0 0 0-1.2.4 1.34 1.34 0 0 0-.8 1.3v2.8c0 4.5.2 9 .4 13.5 0 1.3.1 2.5.1 3.8 0 .3 0 .6.4.6a17.13 17.13 0 0 0 3.2.1c.5-.1.8-.2.9-.8a4.05 4.05 0 0 1 .5-.9 4.36 4.36 0 0 0 1.1-2.9c.1-2.7.2-5.3.1-9zm-9.4 6.7c0-1-.1-2-.1-3v3.1c0 .7.1 1.4.1 2.1 0 .1 0 .2.2.3V37c-.1-.7-.1-1.4-.2-2.2zm-.5 4.6A8.75 8.75 0 0 0 61 41c0 .1.1.3.2.2s.1-.2.1-.3c0-.5-.1-1-.1-1.5 0-.3 0-.6-.3-.6-.07 0 .03.4-.07.6zm10 5.6c.4 0 .4-.3.4-.6A.52.52 0 0 0 71 44a6.07 6.07 0 0 0-1 .7 6.89 6.89 0 0 1 .8.3zm-2.1-30.1c.4-.2.8.2 1.2-.2-.4-.3-.9-.1-1.3-.1a3.59 3.59 0 0 0-1.1.2 4.87 4.87 0 0 0 1.2.1zm-.6 2.6c-.2.1-.5-.1-.8.1.2.2.5.1.8.1h.3c.2 0 .5.1.4-.2s-.3-.1-.5-.1zm-.6 25.5c.3-.1.5.1.8-.1-.2-.3-.5-.1-.8-.1s-.6-.1-.8.1c.3.1.6 0 .8.1zm-6.4-5.1l-.2-1.6h-.1v1.6c0 .1 0 .3.1.3s.2-.2.2-.3zm7.1-22.8c.4-.1.7.1 1-.1-.3 0-.7-.1-1-.1a3.4 3.4 0 0 0-1 .1zm2.7 27.6a.63.63 0 0 0 .6-.5c0-.1 0-.2-.1-.1s-.5.2-.6.5c-.1.1 0 .1.1.1zm-4.5-25.8c-.2 0-.4 0-.4.2s.1.2.2.1.4-.1.4-.2-.1-.1-.2-.1zm5.1 1.2a.22.22 0 0 0-.2.2.51.51 0 0 0 .4.5c.1 0 .2 0 .2-.1s-.2-.4-.4-.6zm1.7-1.6c-.1 0-.2 0-.2.1s.2.3.4.4.1 0 .1-.1c0-.3-.2-.3-.3-.4zm-8.9 1.8c-.1.1-.1.3-.2.4v.1h.1c.1 0 .2-.2.2-.3s-.1 0-.1-.2zm9-2.5c-.1 0-.2 0-.1.1l.2.2c.1.1.1 0 .1-.1s-.2-.1-.2-.2zm.5 24.8c0-.1.1-.2-.1-.2s-.1.1-.1.2-.1.2.1.2a.31.31 0 0 0 .1-.2zm-10.7 3.3c-.1 0-.2 0-.1.1s.1.2.2.2.2 0 .1-.1l-.2-.2zm9.2-27.9c0-.1 0-.1-.1-.1H72a.1.1 0 0 0 .1.1zM74 41.3v-.1h-.1a.1.1 0 0 1 .1.1zm-9.3 1.1l-.1-.1s-.1.1 0 .1a.1.1 0 0 1 .1.1zm3.5 2.1zm-6.8-6.6c-.1 0-.1.1 0 .1h.1zm10.7-23a.1.1 0 0 1-.1-.1h-.1l.1.1zM65 17.4a.1.1 0 0 0-.1-.1v.1zm6.4 27.8v-.1h-.1l.1.1zM73 18.4zm-1.1-2.8zm-20.27 2.5c.3.2.4.8 1 .7v.1c-.3 0-.8.3-.8.2-.7-.6-1.6-.4-2.3-.5a12.19 12.19 0 0 0-2.7 0 6.92 6.92 0 0 0-2.5-.1c-.1 0-.2 0-.3.2a.22.22 0 0 0 .2.2c.1 0 .1 0 .2.1h-.6c-.9 0-.9 0-.9.9 0 1.9-.1 3.8-.1 5.6 0 .4.1.7.5.4a.45.45 0 0 1 .5 0 5 5 0 0 0 3.2.4 20.45 20.45 0 0 1 3.5 0c.4.1.4-.2.5-.4s0-.5.3-.7.4-.2.6.2a5.22 5.22 0 0 1 .4 2.1v.1a.35.35 0 0 1 .1-.2c.1-.5.1-1 .2-1.5a.35.35 0 0 1 .1-.2c.1.1.1.1.1.2.1.5.1 1 .2 1.5a20.9 20.9 0 0 0 .1 2.5v.4c-.1.3 0 .7-.3.8s-.3-.4-.4-.7-.1-.5-.4-.4-.3.3-.3.5 0 .4-.2.5-.2-.2-.3-.3 0-.3-.3-.3-.1.2-.1.4v.1s0 .3-.1.4c0-.1-.1-.2-.1-.3 0-.5-.2-.7-.7-.6.1-.1.3-.1.4-.3a.85.85 0 0 0-.7 0 .22.22 0 0 0-.2.2.9.9 0 0 0 .5.1 4.42 4.42 0 0 1-2 .2h-3.4a.37.37 0 0 0-.3.1.37.37 0 0 1 .3.1h2a2.77 2.77 0 0 1 .9.1c-.3 0-.6.1-.9.1h-2c-.6-.1-.7.2-.7.7v-.3c0-.2.1-.5-.2-.5s-.2.3-.2.5c-.1 3.1-.1 6.3-.1 9.4a11.3 11.3 0 0 0 0 2.6c.1.4.1.6.5.7a.32.32 0 0 1 .3.3c0 .2-.2.1-.4.1h-.2c-.3 0-.7 0-.5.5 0 .1.1.4-.1.4s-.1-.2-.1-.4a.6.6 0 0 0-.1-.4c-.1-.3-.3-.3-.6-.3s-.2.3-.2.4c0 .4 0 .8-.5.4a.35.35 0 0 1-.2-.1c-.8.7-.5-.3-.8-.5v-.1c-.4-.4-1.1-.9 0-1.4.1 0 .1-.3-.1-.4s-.2-.1-.4-.1c-.6.2-.8 0-.8-.7 0-.2.1-.5.1-.7s0-.7.4-.2c.1.1.2.1.2-.1s0-.1.1-.2a18.48 18.48 0 0 0 0-4.7c0-.1 0-.2-.1-.2v.2a2.77 2.77 0 0 0 .1.9v.3c0-.1-.1-.2-.1-.3a10.87 10.87 0 0 1-.4-2.6c-.1-2-.1-4 0-6.1a41.73 41.73 0 0 0 .1-5 .51.51 0 0 1 .1-.5v.4a6.6 6.6 0 0 0 .1 1.4 6.6 6.6 0 0 1 .1-1.4 16.2 16.2 0 0 0-.1-2.2c0-.1.1-.2-.1-.3 0 .1-.1.2-.1.3.1-1.3 0-2.5 0-3.8s.2-2.4.1-3.6c0-.2-.1-.4.1-.6a1.27 1.27 0 0 1 .1.6v1.9c0 .1-.1.2.1.2v-1.7c0-.3.2-.1.2-.1.6-.4 1 .4 1.6.3a5.44 5.44 0 0 1 1.8 0c.4.1.7 0 .7-.5 0-.1 0-.1.1-.2v.2c-.1.6.3.5.7.5a30.88 30.88 0 0 1 4.3-.1 6.46 6.46 0 0 0 2.4 0c.4-.1.6.2.5.7a11 11 0 0 0-.1 1.6c0 .2-.1.5.2.5s.2-.3.2-.4v-1.4c0-.2-.1-.5.1-.5s.1.3.2.4a9.85 9.85 0 0 0-.2 1.7v.2c0-.1.1-.1.1-.2a4.85 4.85 0 0 0 0-1.7c.1-.1.2.5.3 0s.1-.8.2-1.3c0-.1 0-.2.1-.2s.1.2.1.3a15.68 15.68 0 0 0-.4 4.3.35.35 0 0 1-.1.2l-.1-.1s0-.3-.1-.3-.1.2-.1.4-.1.4-.3.4a.22.22 0 0 1-.2-.2.59.59 0 0 0 .1-.7l-.1-.1c-.2.2 0 .4 0 .7v.1l-.3-.3c-.1-.1-.1-.3-.2-.2s.1.2 0 .3a16.35 16.35 0 0 0-2.2.2l-.1.1h.2a8.6 8.6 0 0 1 1.6.1c.5.3.6 0 .5-.4zm-4 9.2a12.1 12.1 0 0 0 1.9-.1c.1 0 .3 0 .3-.2a.37.37 0 0 1-.3-.1h-4.6a.37.37 0 0 0-.3.1c0 .2.2.1.3.1a12.29 12.29 0 0 0 2.7.2zm-.9-9.8a8.55 8.55 0 0 0-1.6 0c-.1 0-.4 0-.4.2s.2.1.3.1a18.29 18.29 0 0 0 3.3-.2c.1 0 .2 0 .2-.1s-.1-.1-.2-.1a8.6 8.6 0 0 1-1.6.1zm-4.5 16.6h-.1v-3c0-.1.1-.3-.1-.3s-.1.2-.1.3v6c0 .1 0 .3.1.3s.2-.2.2-.3zm.8-.6c0-.7.1-1.4.1-2.1 0-.2.1-.5-.1-.5s-.2.3-.2.4c0 1.4.1 2.9.1 4.3a13.42 13.42 0 0 0 .1-2.1zM41.53 21a14.77 14.77 0 0 0 .1-2.1c0-.1 0-.2-.1-.2s-.1.1-.1.2c.1 1.4-.2 2.8 0 4.2a.37.37 0 0 0 .1.3V21zm10.7 8.2c0-.5-.1-1.1-.1-1.6 0-.1 0-.1-.1-.2v.2c0 .5-.1 1-.1 1.6a.6.6 0 0 1-.1.4c-.2.4.1.4.3.3s-.13-.5.1-.7zm.3-.7v1c0 .1-.1.4.1.4s.1-.2.1-.4v-1.8c0-.2 0-.5-.1-.4s-.1.3-.1.5zm-7.3-12.7c.2 0 .6.2.7-.1s-.4-.1-.6-.2a1.42 1.42 0 0 0-.6-.2c-.2 0-.3 0-.4.2s.2.3.4.3zm-3 8.9v-1.5c0 1-.1 1.9-.1 2.9 0 .1 0 .2.1.2a.35.35 0 0 1 .1-.2 7.08 7.08 0 0 1-.1-1.4zm-2.5-5.7v.2c0 .1-.1.2.1.3 0-.1.1-.2.1-.3V19a1.39 1.39 0 0 0 0-.9 1.08 1.08 0 0 0-.2.9zM45 30.3c-.3 0-.6-.1-.8 0a1.1 1.1 0 0 0 .8 0 2 2 0 0 0 .8.1zm5.4-.7c0-.2 0-.3-.2-.3s-.2.1-.2.3 0 .3.2.3.2-.1.2-.3zm.3-13.6c-.1 0-.3 0-.3.1s.3.2.4.2.3.1.3-.1-.17-.2-.37-.2zm-.4-1.2l.3-.1a1.45 1.45 0 0 0-.7-.2h-.3a1.08 1.08 0 0 0 .7.3zm-6.8 3.9c-.2 0-.4-.1-.4.1s.1.2.2.2.4 0 .5-.1-.2-.1-.3-.2zm-1.8-1.6a.22.22 0 0 0-.2-.2c-.1 0-.1.1-.1.2s0 .2.1.2.23 0 .23-.2zm.5 10.9l-.1-.2c0 .1-.1.3-.1.4s0 .2.1.2a.76.76 0 0 1 .1-.4zm.8-.1c-.1 0-.2 0-.2.1a.35.35 0 0 0 .1.2h.1v-.3zm1-12.5c0-.1-.2-.1-.3-.1s-.1 0-.1.1.2.2.3.1c0 .1.1 0 .1-.1zm-1.3 27.7a.22.22 0 0 0 .2-.2.37.37 0 0 0-.1-.3l-.2.2a.37.37 0 0 0 .1.3zm-.2-27.4a.1.1 0 0 0 .1-.1.22.22 0 0 0-.2-.2c-.1 0-.2 0-.2.1s.2.2.3.2zm.9 2.2l.3-.1c-.1 0-.2-.1-.3-.1s-.2 0-.2.1.2 0 .2.1zm1-.2c0-.1 0-.2-.1-.2a.1.1 0 0 0-.1.1v.2c.13 0 .13 0 .23-.1zm8.3 12.5l-.1.1v.3a.1.1 0 0 0 .1-.1v-.3zm-2.6-13.7h.1c0-.1-.1-.1-.1 0 0-.1-.1-.1-.1 0zm-10.1.4c0 .1-.1.1-.1.2a.1.1 0 0 0 .1.1.35.35 0 0 0 .1-.2c.03.1-.1 0-.1-.1zm11.4 10.7zM40.13 14.8zm0 1.2zm11.6.5zm.6.6zm-9 .1c.1 0 .1-.1 0 0zm9.6.1zm-11.3 25.9z"/><path d="M133 17.1c.1-.2.6-.2.3-.7-.2-.2.3-.4.4-.4.4.1.6-.2.9-.4 0-.1.1-.2 0-.3s-.6-.3-.4-.6.7-.6 1-.5a16.28 16.28 0 0 0 3.1.3c.4.1.6.1.7.6.2.8.1 1.5.3 2.3l.1.3.1-.3a.32.32 0 0 1 .3-.3c.2 0 .2.2.2.3 0 .4.1.7.1 1.1 0 .2 0 .4.2.5s.5.1.4.3-.3 0-.5 0-.2.3-.2.4a7.49 7.49 0 0 1-.2 2.1c0 .1-.1.3-.2.3a1 1 0 0 1-.1-.3 3.75 3.75 0 0 1-.1-1.1.37.37 0 0 0-.1-.3.37.37 0 0 1-.1.3v1.1c.2.8-.5 1.4-.5 2.2l-.1.1v-1.9c0-.2-.1-.6-.2-.6-.3 0-.2.4-.2.6a20.2 20.2 0 0 0 .3 4.9 12.25 12.25 0 0 0 .2 1.9 8.84 8.84 0 0 1 0 2.3c-.1.1-.1.3-.2.5a31 31 0 0 0 .2 4.3l.1.1V36c0-1-.2-2-.1-3a14 14 0 0 1 .2 3.5 1.7 1.7 0 0 0-.1.7c0 .1.1.1.1 0v-.7a19.67 19.67 0 0 1 .3 2.4c.2 1.3.3 2.6.4 3.9 0 .2 0 .5.2.5s.1-.4.1-.6v-.1c.5.8.1 1.6 0 2.4 0 .1 0 .1-.1.2 0-.1-.1-.1-.1-.2a2 2 0 0 0-1.5-1 2.2 2.2 0 0 0-.8.1c-.3.1-.6.3-.9 0-.2-.1-.5-.2-.5.3 0 .1.1.3-.1.3s-.1-.2-.1-.3 0-.2-.1-.2-.1.2-.1.3v.9c0 .1-.1.3-.2.3s-.3-.1-.3-.2c0-.3-.1-.6-.1-.9 0-.5-.3-.6-.7-.8a9.85 9.85 0 0 0-1.7-.2c-.2 0-.4 0-.4-.2s.2-.3.3-.4.2-.1.3-.1c.4 0 .6-.2.4-.7-.1-.3-.1-.6.4-.7.3 0 .3-.3.4-.5a14.89 14.89 0 0 0 .3-4.2c-.1-1.1 0-2.2-.1-3.3-.1-2.2-.1-4.4-.2-6.6 0-.4-.1-.8-.1-1.1a5.28 5.28 0 0 0 .1-1.3c0-.1 0-.1-.1-.2 0 .1 0 .1-.1.2v1.3c-.3.5-.1 1-.2 1.5a.37.37 0 0 1-.1.3v-.3c0-1.4.1-2.8.1-4.3v.1c0 .1-.1.3.1.4v-.4c-.2-1.6.1-3.2-.1-4.8 0-.1-.1-.2 0-.2.7-1 .1-.7-.5-.6a.22.22 0 0 1-.2-.2zm5.2 11.2a6.08 6.08 0 0 0-.1-1.9c0-.1 0-.2-.1-.2v.1c.1.7-.3 1.4.2 2a21.64 21.64 0 0 0 0 3.6.37.37 0 0 0 .1.3c0-.1.1-.1.1-.2 0-1.3-.1-2.5-.2-3.7zm-.9-6.2c.1-1 .1-2.1.1-3.1a1.42 1.42 0 0 0-.2-.6.22.22 0 0 0-.2-.2c-.1 0-.1.1-.1.2a9.19 9.19 0 0 0 .4 3.7 2.77 2.77 0 0 0 0 1.8c0 .1 0 .1.1.2v-.2c0-.6-.1-1.2-.1-1.8zm.7 12.3c0 2.7.6 5.5.7 8.3 0 .3.2.3.4.3s.1-.2.1-.3c-.1-.8-.2-1.6-.3-2.3l-.9-7.2a.37.37 0 0 0-.1-.3v.4a3.42 3.42 0 0 1 .1 1.1zm-3.4-1.7h.1c.1 1.5.1 2.9.2 4.4a2.92 2.92 0 0 0 .2.9 2.77 2.77 0 0 0 .1-.9c-.1-3-.1-5.9-.4-8.9v.1a32.4 32.4 0 0 0-.2 4.4zm3.3-17.8a1.7 1.7 0 0 0-.7.1c-.2.1-.4 0-.4.3s.3.3.4.4c.3.2.1-.2.2-.2s.1-.1.2-.1a.31.31 0 0 1 .1.2c0 .3.1.5.4.5s.5-.2.5-.6c.1-.7-.2-.7-.7-.6zm1 5.1v-1.2a.45.45 0 0 0-.3-.3.19.19 0 0 0-.1.3c.1.7.1 1.4.2 2 0 .1.1.1.1.2 0-.1.1-.1.1-.2a2.13 2.13 0 0 1 0-.8zm-4.3 21.9c0-.3-.1-.5-.1-.8a.6.6 0 0 0-.1-.4c-.2.1-.1.3-.1.4l-.3.6c-.1.1-.4.2-.2.5s.4.2.6.2a.55.55 0 0 0 .23-.5zm5.1-21.6v-1.1a.22.22 0 0 0-.2-.2c-.2 0-.1.2-.1.3a3.4 3.4 0 0 0 .1 1c.1.3-.1.7.1 1 .33-.3.03-.7.13-1zm.1-2a1.85 1.85 0 0 0-.2-.7 1.88 1.88 0 0 0-.2.8c0 .1 0 .3.2.3s.1-.2.2-.4zm-1-.6c0-.1.1-.3-.1-.3s-.2.1-.2.3.1.3.2.3 0-.2.1-.3zm-4.9 1.3v.3q.15-.3 0-.3a.19.19 0 0 0 0-.3zm5.1 3.2v-.4a.37.37 0 0 1-.1.3v.4zm.1-4.3l-.1-.3a.37.37 0 0 1-.1.3v.3zm-2.9 23.6c0 .1-.1.2-.1.3a.37.37 0 0 0 .1.3c0-.1.1-.1.1-.2a.6.6 0 0 1-.1-.4zm1.6.7v.4a.35.35 0 0 0 .1.2c.2 0 .1-.2.1-.3a.77.77 0 0 1-.2-.3zm.1-25.6a.35.35 0 0 0-.1.2.1.1 0 0 0 .2 0c0-.2 0-.3-.07-.2zm-3.2 1.4v-.1zm2.5-.3c0 .1 0 .2.1.2v-.1a.1.1 0 0 0-.1-.1zm1.2 3v-.1l-.1.1c0 .1 0 .1.1.1zm-1.6 15.4zm-1-21.1zm2.8 1.6c-.1 0-.1.1 0 0zm.2.2c.1 0 .1-.1 0 0zm.9 27v.1-.1zm-.97-36.7c.1.2.3.1.5.2s.4 0 .4.1-.3.1-.4.1H139l.2.2c.1.1.3.1.3.4s-.2.3-.4.3a2.31 2.31 0 0 0-1.1 2c.1.3.2.2.3.1s.4-.5.6-.7.3-.6.6-.5.2.5.2.8a1.39 1.39 0 0 0 0 .9.25.25 0 0 1-.1.4c-.2.1-.4 0-.4-.1-.2-.5-.4-.3-.7-.1-.6.5-1 .3-1.1-.5 0-.1 0-.3-.1-.3s-.1.1-.2.2l-.5.5c-.2.1-.5.3-.6.1-.3-.4-.8-.5-1.1-.9a.56.56 0 0 0-.9 0c-.2.2-.4.4-.6.2a.73.73 0 0 1-.2-.6 5.66 5.66 0 0 1 .3-1.8c.2-.6 0-1-.6-1.1-.1-.5.4-.5.7-.7.1.2.2.1.3.1a.37.37 0 0 0 .1-.3V6a5 5 0 0 0 .5-1.3c0-.2.1-.5.4-.5s.3.3.3.5c0 .4.3.3.5.2a7 7 0 0 1 2-.8v.1c-.3.2-.8.2-.7.5s.4-.2.7-.2a1.44 1.44 0 0 0-.2.3 3.08 3.08 0 0 1 0 1.9c0 .1 0 .3.1.2.3-.4.7.3 1.1.2zM135 5.4l.1-.1-.1.1zm.2 5a.27.27 0 0 0 .3-.3.27.27 0 0 0-.3.3zm2.1-1.2c0-.2-.1-.3-.3-.2a3.81 3.81 0 0 0-.9 1.3c0 .2.1.3.2.2a3.05 3.05 0 0 0 1-1.3zm1.2-1.5a.6.6 0 0 0-.4.1c0 .2.2.2.3.2.3 0 .5.2.8.1-.1-.3-.5-.3-.7-.4zm-2.6.3c-.1.1-.1.1-.1.2s.1.1.2.1a.1.1 0 0 0 .1-.1zm-2.4-1.2l-.1-.1-.1.1.1.1a.1.1 0 0 0 .1-.1zm1.1 0zm1.1 1.7zM43 53.6c.5.3.1.3-.1.4s-.3-.2-.3.1 0 .3-.4.2c-.2 0-.3-.1-.5-.1-.6-.1-1.2-.2-1.6.3a1.68 1.68 0 0 0-.3 1.9c.1.1.1.3.2.4v.2c.1.1.1.2.2 0a1.86 1.86 0 0 0 1.9-.1c.2-.1.5-.3.3.2v.1c.4.4.4.4-.1.8a1.82 1.82 0 0 1-2 .1c-1.8-1.4-1.6-3 0-4.5l.2.3.3-.5c.6-.3 1.3.1 1.9.1-.1.1.1.3.3.1zm-2.1-.1zm7.73.5c.1-.3.3-.6.5-.6a5.92 5.92 0 0 1 1.9-.1 1.62 1.62 0 0 1 1.1 1.6v.3c-.8.6-.3 1.2.1 1.7.1.1 0 .2-.1.2l-.2-.1c-.1 0-.1 0 0-.1.1 0 .1.1.2.1a.75.75 0 0 1-.1.5c-.2.1-.3-.2-.4-.3a10.63 10.63 0 0 1-.9-1.1c-.2-.4-.7-.3-1.1-.3s-.1.4-.2.6a2.49 2.49 0 0 0-.1.8.32.32 0 0 1-.3.3c-.1.1-.2-.1-.2-.2 0-1-.5-2-.3-3.1-.1-.1 0-.2.1-.2a2.44 2.44 0 0 0 0 1.2 2.44 2.44 0 0 0 0-1.2zm3 1.3c-.1-.1-.2 0-.3.1v.1l.3-.2c-.1-.1-.1-.2 0-.2.2-.9.1-1.1-.8-1.3l-.4-.1c-1-.2-1-.1-1 .9v.2c-.1.5.2.6.6.5l1.6-.3zm-.3-1.6a.37.37 0 0 0-.3-.1v.1zm7.9 2a1.27 1.27 0 0 1-.6-.1c-.3-.1-.6-.2-.6.3 0 .3 0 .7.5.6h1.6c.2 0 .5-.1.4.1s-.2.5-.4.5h-1.5c-.2 0-.5 0-.6.1-.6.6-.5 0-.6-.3-.4-1 0-2.1 0-3.1 0-.2.2-.4.6-.4h2a.37.37 0 0 1 .4.4c0 .2-.2.2-.4.2a9.15 9.15 0 0 1-1.6-.1c-.4 0-.5.1-.5.4s-.1.7.4.6a8.6 8.6 0 0 0 1.6-.1c.1 0 .2 0 .2.1s-.1.1-.2.1-.2 0-.2.1c-.1.3-.1.3-.4.4.1.2 0 .2-.1.2zm75.1 1.6c-.6 0-.7-.5-.7-.9-.1-.8 0-1.6-.1-2.3 0-.3.1-.6.6-.5a6 6 0 0 0 2.3-.1c.1 0 .3-.1.3.1s-.1.1-.2.2a3.13 3.13 0 0 1-1.9.4c-.3 0-.6 0-.6.4s.3.4.6.3a7.57 7.57 0 0 0 1.5-.1c.2-.1.2 0 .1.2-.3.6-.8.6-1.4.5-.8-.1-.8-.1-.8.7a.37.37 0 0 0 .4.4h1.4a.43.43 0 0 1 .4.4c0 .2-.3.1-.4.1a5.85 5.85 0 0 0-1.3.2c-.1-.1-.2-.2-.2 0zm-57.1-4.2h.5c.1 0 .3 0 .3.2s-.1.2-.3.2c-.4 0-.2.1-.1.3s-.2.4-.4.4c-.4.1-.5.1-.4.6a12.25 12.25 0 0 1 .2 1.9c0 .1 0 .3-.1.3s-.2-.1-.3-.3a1.49 1.49 0 0 0-.1-.6c0-.2.1-.4-.1-.5v1.1c0 .2.1.5-.2.5a.55.55 0 0 1-.4-.6V55c.1-.7-.1-1-.9-.9-.2 0-.7.1-.6-.4.1-.3.3-.2.4-.2a11.78 11.78 0 0 1 2.5-.4zm-.8 1.5c0-.1.1-.2-.1-.3a.37.37 0 0 1-.1.3.17.17 0 1 0 .2 0zm38.8.4c.1-.4.3-.8.4-1.3 0-.1.1-.3.2-.3s.1.2.1.3.1.2.4 0 .2 0 .3.1a16.18 16.18 0 0 1 1 1.8l.1.3.1.1v-.1h-.1c0-.1 0-.3-.1-.3v-.1c.4 0 .3.3.4.5s.3.5-.1.6h.1v.3c0 .1.2.3 0 .4s-.3-.1-.3-.2a2.09 2.09 0 0 1-.4-.6.78.78 0 0 0-.9-.6c-.1 0-.2 0-.2.1a.17.17 0 1 0 0 .2l.3.1c-.1 0-.2.1-.3.1-.6-.1-.8.3-.9.8 0 .1 0 .3-.2.3s-.2-.2-.2-.3a.82.82 0 0 1 .1-.7c-.1-.7.2-1.1.2-1.5zm1.6.1a.76.76 0 0 0-.2-.5c-.1-.2-.2 0-.2.1-.1-.2-.2-.4-.3-.4s-.1.3-.2.5-.1.1-.1.2-.2.3 0 .4a1.27 1.27 0 0 0 .6.1c.3-.1 0-.3.1-.4zm27 .9c-.3-.3-.5-.6-.8-.9-.1-.1-.2-.4-.4-.3s-.1.4 0 .5a10.87 10.87 0 0 1 .1 1.8c0 .3-.1.2-.3.1s-.3-.5-.4-.8a8.78 8.78 0 0 1 .1-2.8c.5.1.5.7.9.9l.1.1a.1.1 0 0 0 .1.1l.1.1.1-.1 1.1 1.1c.1.1.2.2.3.1s.1-.2.1-.4c0-.4-.1-.9-.1-1.3 0-.2-.1-.3.1-.5.5-.3.6-.3.6.3v2.4c0 .2-.1.5-.2.5s-.3-.3-.3-.5c0-.4-.2-.6-.6-.3h-.1l-.2-.2c0 .1 0-.2-.3.1zm-53.4-2.1a1 1 0 0 1 .1-.3.22.22 0 0 1 .2.2 12.81 12.81 0 0 0 1.1 2c.2.3.3.3.5-.1s.3-.8.5-1.2a2.09 2.09 0 0 1 .4-.6 5.58 5.58 0 0 1 .8-.5c.1.3-.2.6-.2.9v.2a10.29 10.29 0 0 1-1.5 2.7c-.2.2-.3.2-.5 0-.4-.5-.8-1.1-1.2-1.6v-.2l-.1-.3-.2-.2c0-.2-.1-.3-.3-.4.1-.4-.4-.8.4-.6zm-21.2 2.9c-.2.4-.4.1-.5 0a1.45 1.45 0 0 0-2.1-.1c-.1.1-.3.3-.3.4s-.1.4-.3.3-.1-.3-.1-.5a17.72 17.72 0 0 1 1.5-3.1c.3-.4.6-.4.9.1s.3 1.3 1 1.5c-.1.6.3 1 .3 1.6 0 .1 0 .2-.1.1-.2.1-.2-.1-.3-.3s-.1-.3-.3-.4l-.2-.1.2.1c-.1.2 0 .4.3.4zm-1.5-2.2c0-.1-.1-.1 0 0 0 .2 0 .4-.3.2l-.1.3c-.4.5-.4.6-.3.5.4-.1.8.3 1.1-.3.1-.2.2 0 .3 0-.2-.2-.1-.8-.7-.7zm-.2 1.4l-.2.1h.2c.1 0 .1 0 .2-.1zm57.2.3c.3.6.9.4 1.4.4-.2.3-.2.3-.1.3a1 1 0 0 0 .9-.2l.1.1c0 .1.2.2.1.2-.5.1-.8.6-1.3.6 0 0-.1-.1-.1 0h.1c-.7.4-1.1 0-1.6-.4a.1.1 0 0 0-.1-.1c0-.1-.1-.1-.2-.2v-.2c.3-.2.1-.5 0-.7 0 0-.1-.2-.1 0a1.27 1.27 0 0 0 .1.6v.1h-.4a.37.37 0 0 1-.1-.3 1.7 1.7 0 0 0 .1-.7v.8c-.5-.9 0-1.6.5-2.3h.1l.1-.1v-.1a3.63 3.63 0 0 1 1.7-.7.9.9 0 0 1 .5.1.66.66 0 0 1 .4.5c0 .2-.3.1-.5 0-1.3-.2-1.8.2-1.8 1.5a1.34 1.34 0 0 1 .2.8h-.2v-.7a.6.6 0 0 0-.1.4.37.37 0 0 0 .1.3zm-.3-1.3l.2-.3v.1c-.2-.1-.2.1-.2.2l-.1.1zm.9 2.4c0-.1.3 0 .1-.2a4.23 4.23 0 0 0-.7-.5c-.1 0-.1-.1-.2 0v.2l.2.2c.3.2.5.1.6.3zm-24.7-.2a.52.52 0 0 0 .4.2c-.1.2-.3.1-.4.1-1 0-1.1 0-1-1 .1-.8.1-1.7.2-2.5a.6.6 0 0 1 .1-.4 6.15 6.15 0 0 1 1.9-.2.1.1 0 0 1 .1.1.35.35 0 0 1-.2.1 3.4 3.4 0 0 1-1 .1c-.7 0-.5.5-.5.8-.1.5.3.4.6.4s.6-.1.8-.1.4-.1.4.2-.2.2-.4.3a3.75 3.75 0 0 1-1.1.1c-.5 0-.4.3-.4.6s0 .6.5.5h1.6c.1 0 .2.1.3.2-.1 0-.2.1-.3.1a1.8 1.8 0 0 1-1.6.4 1 1 0 0 0-.7-.2v.1c.2.3.4.1.7.1zm51.5-.8a1.55 1.55 0 0 1-.1-2.1l.2-.2c.2-.5.7-.4 1-.7h.9c.4 0 .5.2.5.5s-.3.2-.5.2a4.87 4.87 0 0 0-1.2.1.76.76 0 0 0-.6.8 1.1 1.1 0 0 0 .6 1 .45.45 0 0 0 .5 0 .91.91 0 0 1 1.1-.1c.3.3.5 0 .7 0a2.09 2.09 0 0 1-2.4.9.6.6 0 0 0 .4-.1l-.4-.1c0-.2-.2-.1-.3-.2 0-.1-.1-.1-.2-.2l-.2-.2s-.1-.1-.1 0c.2.3.1.3.1.4zm.3-.3zm-.3-1.5c-.2.1-.1.3-.1.5s-.1.1-.1.2v.1l.1-.3.1-.5zm1.7 1.9a.37.37 0 0 0-.3.1h.2c.1 0 .2 0 .2-.1zm-.1-2.5c.1-.1 0-.1 0 0zm6.7-.3a2.67 2.67 0 0 1 1.4.7c.8.7.8.7 1.3-.1 0-.1.1-.1.1-.2.3-.2.5-.6.8-.4s-.1.5-.3.7a2.39 2.39 0 0 0-.6 2.4.48.48 0 0 1-.2.6c-.2.1-.4-.1-.5-.4s-.1-.3.1-.6a.66.66 0 0 0 .1-.6c-.1-.2-.2.1-.3 0s-.1 0-.2-.1a12.88 12.88 0 0 1-1.6-1.7c-.2-.2-.3-.3-.1-.3zM84.13 57c-.3 0-.3-.1-.3-.4v-2.9c0-.1 0-.4.1-.3s.7-.3.8.3a12.21 12.21 0 0 1 .1 2.7c0 .4-.1.9-.7.6v-.2a.1.1 0 0 0-.1-.1l.1.1zM35 27v.6c0 .4-.2.6-.6.2-.2-.2-.3-.3-.6-.2s.1.3.1.4 0 .2-.1.2-.5.1-.7-.2-.1-.4.1-.5a1.14 1.14 0 0 1 .8-.3c.5 0 .5-.2.4-.6a4.54 4.54 0 0 0-.2-.8c0-.1 0-.2.1-.2s.2 0 .2.1c.23.4.73.7.5 1.3z"/><path class="cls-1" d="M43.83 22.8v2.3c0 .1 0 .3-.1.3s-.1-.2-.1-.3c.1-1.6.1-3.2.2-4.8 0-.1 0-.1.1-.2s.1.1.1.2c-.1.9-.1 1.7-.2 2.5z"/><path d="M127.33 55.8c-.1-.5-.6-.2-.9-.3s-.6.1-.6-.1.4-.3.5-.3.5-.3.8-.1c.1.1.2.1.3.2.5.5.5.5-.1.6zM21.83 63a2.68 2.68 0 0 1-2.7.7 1.42 1.42 0 0 1-.6-.2 5.28 5.28 0 0 0 3.3-.5zm12.1-30.5c-.2 0-.3-.1-.5.1s-.4.2-.5-.1a.3.3 0 0 1 0-.4.6.6 0 0 1 .4-.1c.2.1.4.1.5.2s.4 0 .4.2-.3 0-.3.1z"/><path class="cls-1" d="M94.63 43.4a4.46 4.46 0 0 1-4.2.1l.1-.1a3.36 3.36 0 0 0 2.2.2 2.06 2.06 0 0 0 1.5-.3l.4.1zm6.5-11.7v-1.4c0-.1 0-.2.1-.2v.3a4.89 4.89 0 0 0-.1 1.3zm-57.3 7.8V41c0-1 0-2 .1-3a7.57 7.57 0 0 0-.1 1.5z"/><path d="M32 34.1c.2-.3 0-.5 0-.8 0-.5.2-.5.6-.3 0 .5-.1.9-.6 1.1zm101.53 23.3c-.6-.5-.3-1.2-.4-1.8V55a1.27 1.27 0 0 0 .1.6 11.27 11.27 0 0 1 .3 1.8zM32.43 36.6c0 .1-.1.4-.3.3s-.5 0-.5-.3a.46.46 0 0 1 .5-.4c.2 0 .3.2.3.4z"/><path class="cls-1" d="M101 26.9v-1a.37.37 0 0 1 .1-.3v.3a3.4 3.4 0 0 0-.1 1zm-40.17-7.4l-.7 1c-.1.1-.2.3-.3.2s0-.2.1-.3c.2-.4.5-.7.7-1.1l.2.2z"/><path d="M136.43 1.7a3.84 3.84 0 0 1-1.1 1.1c.1-.6.6-.9.9-1.2l.2.1zm1.4-1.6c.3.1.3.3.1.5a2.65 2.65 0 0 0-.5.6l-.1-.1.2-.4h-.3a.22.22 0 0 0 .2-.2.43.43 0 0 0 .4-.4z"/><path class="cls-1" d="M82.83 34.6a4.1 4.1 0 0 1-.1 1.1 3.75 3.75 0 0 1-.1-1.1 4.1 4.1 0 0 1 .1-1.1c.1.4 0 .8.1 1.1zm-43.6-18.9v-.4a.64.64 0 0 1 0-.6c.2.1.1.4.2.6v.4c0 .1-.1.4-.1.6-.33-.3-.1-.5-.1-.6z"/><path d="M40.83 53a1.68 1.68 0 0 1 2 .4h-.4c-.4-.6-1-.4-1.6-.4zM137 1.7c-.2 0-.3-.2-.4-.3l-.2-.2c.1-.2.1-.4.4-.4l.2.1c0 .1-.2.2-.1.4a1 1 0 0 1 .3-.1l.1.1c.1.2-.1.3-.3.4zm-12 35a.76.76 0 0 0 .2-.4c0-.1-.1-.3.1-.4v.8a.73.73 0 0 1-.2.6c-.1-.2 0-.4-.1-.6z"/><path class="cls-1" d="M74.53 13.6v.6a2.92 2.92 0 0 0-.2-.9l.1-.2c.3.1 0 .4.1.5z"/><path d="M125 36.7a5.7 5.7 0 0 1-.1-1.3c0-.1 0-.2.1-.2s.1.1.1.2c0 .4-.1.9-.1 1.3z"/><path class="cls-1" d="M65 14.2h-.5c-.1 0-.2 0-.2-.1s.1 0 .2-.1h.4c.3 0 .6-.1.9.1zm17.93 23c-.1.2.1.5-.1.7a1.27 1.27 0 0 0-.1-.6c0-.2-.1-.4.1-.6zm-7.7-18.5c.1.1.2.1.3.2s.4.3.3.5-.4 0-.5-.2v-.1l-.2-.2a.31.31 0 0 0 .1-.2z"/><path d="M138.53 31.3a3.34 3.34 0 0 1 .1 1.7 10.29 10.29 0 0 1-.1-1.7zM143 54.4c0-.1-.1-.2-.1-.3s-.2-.2 0-.3.1.1.2.1l.4.6-.1.1-.1-.1a.1.1 0 0 0-.1-.1h-.2zM136.93.8a1.21 1.21 0 0 1 .7-.7c-.1.1-.3.2-.3.4a.35.35 0 0 0-.2.1.1.1 0 0 0-.1.1l-.1.1z"/><path class="cls-1" d="M67.53 14.1l.3.1a.37.37 0 0 0-.3.1h-.3c0-.2.2-.1.3-.2z"/><path d="M124.53 37.1a1.73 1.73 0 0 1 .1 1c0 .1-.1.1-.1 0v-1z"/><path class="cls-1" d="M75.83 17.8a1.21 1.21 0 0 1 .5.5c-.3.1-.5-.2-.6-.4l.1-.1zM83 39c0 .1 0 .3-.1.3a.37.37 0 0 0-.1-.3.37.37 0 0 1 .1-.3zm17.83-3.3a2.46 2.46 0 0 1 .1 1.2 1.67 1.67 0 0 1-.1-1.2z"/><path d="M152 44.4v.8c0 .1-.1.1-.1 0a2 2 0 0 1 .1-.8z"/><path class="cls-1" d="M70.33 13.4a.85.85 0 0 1-.6-.2.1.1 0 0 1 .1-.1c.2-.1.4.1.5.3zm4.2 4.7a2.09 2.09 0 0 1 .6.4h-.3l-.2-.2h-.1c-.1-.1-.1-.1 0-.2zm-14.4.7a.68.68 0 0 1 .4-.6.92.92 0 0 1-.4.6zm34.8 24c.3.4 0 .5-.3.6v-.1a.62.62 0 0 0 .3-.5zm-19.6-23.7a.68.68 0 0 1-.6-.4H75l.2.2.2.2h-.1z"/><path d="M127.13 56.6a1.76 1.76 0 0 1 .4-.5l.1.1c-.1.3-.2.4-.5.4z"/><path class="cls-1" d="M39.33 17.5v-.3s0-.2.1-.1 0 .2 0 .3-.1 0-.1.1z"/><path d="M153.33 53.2c.1 0 .1-.1.2-.1l-.2.1zm-94.1 2.5h.4c-.1.1-.2 0-.3 0h-.1zm74.3 1.7h.8c-.3.3-.5.2-.8 0z"/><path class="cls-1" d="M45.73 18.9h-.2l-.1-.1a.37.37 0 0 0 .3.1z"/><path d="M40.33 53.3a.71.71 0 0 1 .6-.3l-.3.3h-.3z"/><path class="cls-1" d="M46.83 18.7c-.1.1-.2.2-.4.1v-.1zm13.1.3c0 .2-.1.4-.3.4 0-.2.1-.4.3-.4zm14.6-2.3c.2 0 .4.1.4.3a.54.54 0 0 1-.4-.3z"/><path d="M144.43 56.3c.1.1.2.2.1.3s-.2 0-.2-.1l.1-.2z"/><path class="cls-1" d="M75.13 17.6c-.2 0-.3-.1-.4-.3v-.1c.1.1.3.2.4.4zm.4.3c-.2 0-.3-.1-.4-.3h.3c0 .1.1.1.2.2-.1 0-.1 0-.1.1z"/><path d="M124.33 57.3a.27.27 0 0 1-.3-.3l.1-.1h.1l.2.2-.1.2zm13.1-53.2c.2.1.1.2 0 .3v-.3zm1.4 2.7l.1-.2v.1l-.1.1zm-4.8 28.6v-.1.1zm19.3 17.8v.2c-.1 0-.1-.1 0-.2zm-63.5 1.1l-.1-.1c.2-.1.1 0 .1.1zm49-47.5l-.1.4zm-12.2 49.6c.1-.1.2-.2.3-.1a.37.37 0 0 1-.3.1zm-.5.3c0-.2.2-.2.3-.1 0 .1-.1.1-.3.1zm26.8.3a.37.37 0 0 1-.3-.1h.3v.1zm-18.3.3c0 .2-.2.1-.3.1v-.2l.3.1zm-120.5 1.8V59v.1zM162 16.3a.37.37 0 0 1 .3.1h-.3v-.1z"/><path d="M162.23 16.4a.37.37 0 0 1 .3.1c-.1.1-.2.1-.3-.1zm-29.23.7zm-13.07 25.4c0 .2-.2.1-.3.1a.37.37 0 0 1 .3-.1zm-88-8.4l-.1.3zm105.8-34l.1-.1v.1h-.1zm-1.3 1.3c0-.1 0-.1.1-.1v.2l-.1-.1zm-.2.1l.1-.1v.1h-.1zm.4-.1l-.1.1v-.1h.1zm-.1.1a.1.1 0 0 1-.1.1v-.1h.1zm.47.2zM133.33 6zm.4.1l.1-.2-.1.2zm-.1.2l.2-.1-.2.1zm-21.5 6.8h-.1.1z"/><path class="cls-1" d="M98.23 13.4c0-.1.1-.1.1 0h-.1zm-27.9 0l.1.2-.1-.2zm27.67.2a.1.1 0 0 1 .1-.1c.1 0 0 .1-.1.1zm-.07.1l.2-.1-.2.1zm-27.1.1l.1.1z"/><path d="M116 14.1zm-4.77 1.1zm36.1.6l.1-.1-.1.1zm-.2.2l.1-.1zm-.13.1l.2-.2-.2.2z"/><path class="cls-1" d="M74.93 17l.1.1zm.2.1c.1 0 .1 0 .1.1-.1.1-.1 0-.1-.1zm.1.2l.1.1zm.2.1c.1 0 .1 0 .1.1h-.2l.1-.1zm.1.2c.1 0 .1 0 .1.1h-.2l.1-.1zm.1.1c.1 0 .1 0 .2.1h-.2v-.1zm0 .3l-.2-.1h.2v.1zm-.5.5l.2.1-.1.1h-.1c-.1 0-.1-.1 0-.2zm-15.2.5c0-.1 0-.1.1-.1s0 .1-.1.1z"/><path d="M124.33 37l.1.1a.1.1 0 0 1-.1-.1zm39.4 6.8l.1.1h-.1v-.1zm-123.6 9.6a.1.1 0 0 1 .1-.1c.1.1 0 .1-.1.1zm2.7 0a.1.1 0 0 1 .1.1c0 .1-.1 0-.1-.1zm81.5.9c0-.1 0-.1.1-.1v.1l-.1.1v-.1zm-34.5 0l.1.2zm4 0v.2-.2zm-3.7.1zm.1.5zm0 0h.2v.1l-.2-.1zm.4.1zm.1.4v-.1.1zm36.4.6a.1.1 0 0 1 .1-.1l-.1.1zm-.13.1c0-.1 0-.1.1-.1 0 .1 0 .1-.1.1zm17 0l-.1-.1.1.1zm-17.07.2c0-.1 0-.1.1-.1l-.1.1zm17.3 0l-.1-.1h.1v.1zm.1.1l-.1-.2h.2l-.1.2zm-17.7 0a.1.1 0 0 1-.1.1c-.1-.1 0-.1.1-.1zm25.7.1a.1.1 0 0 1-.1-.1h.2l-.1.1zm.1.2a.1.1 0 0 1-.1-.1h.2l-.1.1zM40 56.7a.1.1 0 0 1 .1.1H40v-.1zm87.23 0l-.1.2-.1-.1.2-.1zm25.4.1c-.1 0-.1 0-.1-.1h.2l-.1.1zm-28.7.2l-.1-.2h.2c0 .1 0 .1-.1.2z"/><path class="cls-1" d="M87.73 25.5v.4c-.2-.1-.1-.3-.2-.4h.2zm.3 5.7v-.1h.1l-.1.1zm-.4-4.7zm1.2 6.8c.1 0 .2.1.1.3l-.1-.3zm4.4-4.7c0-.2 0-.3-.1-.4l.1-.4.3.2c-.2.1-.1.4-.3.6zm.3-1.5a1.48 1.48 0 0 1-.1.7c0-.3-.3-.7 0-1 0 .1 0 .3.1.3z"/><path class="cls-1" d="M93.33 26.8c.1-.1 0-.4.1-.4.3.1.2.4 0 .6.1 0 0-.1-.1-.2zm.3-1.2c0 .2.2.4.1.6h-.1c-.2-.2-.1-.4 0-.6zm1.3-1.9a.73.73 0 0 1-.2.6c0-.3-.1-.5.2-.6zm0 0v-.4H95l-.1.4zm.2-1.3v.4H95c0-.2.1-.3.1-.4zm.1 0c-.1-.2 0-.4.2-.6-.1.2-.1.4-.2.6zm.5-2.9h.2c0 .2 0 .4-.2.5zm0 .6c0 .2.1.4-.2.6l.2-.6z"/><path class="cls-1" d="M95.43 21.2l.2-.6c0 .3.1.5-.2.6zm0 0a.66.66 0 0 1-.1.6 1.27 1.27 0 0 1 .1-.6zm.7-3.7v.5c-.3-.2-.13-.3 0-.5zm4.5 21.5c0 .1.1.2.1.3s.1.3-.1.4 0-.2 0-.4V39zm-6.5.5h.2a.84.84 0 0 1-.2.7zm-1.5 4a.22.22 0 0 1 .2.2.22.22 0 0 1-.2-.2zm4.8-28l.1.1h-.1v-.1z"/><path d="M15.33 13l-.3-.6c.2.1.2.4.3.6zm6.4-2l-.3.1.3-.1zm-.1 35.6l-.3.1zm140.8-22.8v.5a.37.37 0 0 1-.1.3.37.37 0 0 0-.1-.3v-.4a2.2 2.2 0 0 1 .1-.8 1 1 0 0 1 .1.7zm-.2-2.2a.6.6 0 0 1 .1-.4v.4a.6.6 0 0 1-.1.4c-.1 0 0-.2 0-.4zm-11.3-.6c0-.2.2-.2.3-.2-.1.2-.23.2-.3.2zM117 18.8zm2.33 1.6h.2v.2zm1 .9v.2l-.2-.2zm.3 1l.2.2z"/><path d="M120.43 21.4v.2l-.2-.2zm-1 18.9v.2l-.4.1c-.03-.2.2-.3.4-.3zm-.43.2c-.1.1-.2.2-.3.2s.13-.2.3-.2zm.93-21.5c.2 0 .4.1.4.3-.2 0-.33-.1-.4-.3zm-.6.1l-.1-.1zm.2.2h-.2v-.1zm-1.3-2.6l-.3-.1zm2.2 4.3v-.2c.1 0 .2 0 .2.2zm.2.4h-.2v-.1z"/><path class="cls-1" d="M71.83 26.8a1.27 1.27 0 0 1 .1.6h-.1a.64.64 0 0 1 0-.6z"/><path d="M116.43 54.7c.2 0 .1.2.2.3-.2-.1-.2-.2-.2-.3zm-49.2.4h.1-.1zM137.13 1V.8h.2c-.1.1-.1.2-.2.2z"/></g></g></g></g></svg>