<svg viewBox="0 0 1920 39.8" xmlns="http://www.w3.org/2000/svg"><path d="M1919.8 3.8c-2.2 1.2-4.5.8-6.8.2-3.3-.7-3.5-.6-4.7 2.6l-1.5 4.2c-.4 1.1-1 2.3-2.3 2.5-5.1.8-9.8 3.3-15.1 3.2-5.8-.1-11.7 0-17.5 0-2.9.1-5.7-.6-8.1-2.1-3.1-2.1-6.4-2.3-10-2.6-5.4-.4-10.5 1.5-15.8 1.6-9.1.2-9.4 0-11.3-8.8-1-4.7-3.1-5.8-7.3-3.6-2.6 1.4-5 3.3-7.1 5.4-6.1 6.1-13.1 9.5-22 8.5-2.5-.2-5-.2-7.5 0-1.7 0-3.5-.3-4.6-1.6-2.2-2.7-5-2.9-8.1-2.9-3.5 0-7 .3-10.4 1-6.8 1.6-13.8 2.2-20.8 2-5.2-.2-10.4-.7-15.4.3-4.4.9-8.9 1.2-13.4 1.1-13.6-.3-27.2-2.2-40.9-1.5-3.7.2-7.3 0-11 0-2 .1-4-.2-5.9-.7-3.8-1.2-7.9-1.4-11.9-.5-6.8 1.5-13.6 1-20.4 1.3-4.1.1-7.6-.5-9.9-4.4-.9-1.6-2.3-1.8-3.9-1.1s-3.4 1.1-4.4 2.2c-3.5 4-8.2 4.9-12.9 5.7-6.8 1.2-13.3.9-17.8-5.7-2.3-3.4-4-3.3-7.6-.9-2.9 2-5.7 4-8.7 5.9-1.8 1.1-3.3 1.2-5.2-.7-2.8-2.7-6.3-5.2-10.3-5.6-5-.4-10.1-.8-14.9.2-7 1.3-13.9 1.2-20.9 1.2-4.4 0-8.7-.1-12.6 2.3-1.3.8-2.9.7-4.4.7-2.2-.1-4.3.2-6.4.9-10.4 3.7-21.2 3.8-32.1 3.6-3.3.1-6.7-.5-9.7-1.8-4.6-1.9-9.6-2.9-14.6-2.7-12.5.1-25 0-37.5 0-6.8 0-13.7-1-20.2-3-5.4-1.6-11.2-2-16.8-1.1-9.4 1.3-18.9 1.8-28.3-.1-3.8-.7-7.7-.6-11.4.2-3.6.6-7.2 1.3-10.8 1.8-4.3.6-8.7 1.3-12.9 0-3-.9-6.3-.9-9.3 0-6.6 1.8-12.9 4.5-19.9 3.9-.3 0-.7.1-1 .2-7.3 1.4-14.8 2.2-22.3 2.4-14.8.3-29.7.1-44.5.1-4.5 0-9 .3-13.4.9-5.9.9-12 1.4-17.9-.1-3.6-.9-6.8-2.3-10.6-.9-1.3.3-2.7.2-3.9-.4-3-1.2-6.3-1.2-9.3-.1-1.8.5-3.6.8-5.4.7-6.5 0-13 .1-19.5 0-5.2-.1-10-2.3-14.7-4.1-3.4-1.4-6.5-3.3-9.4-5.5-3.7-2.6-8.1-4-12.6-4-10.8-.4-21.2 1.4-31.6 3.8-16.3 3.9-32.8 4.9-49.4 5.6-8.6.4-17.2 1.6-25.8 1.4-.8 0-1.7.2-2.5.4-2.9.8-5.9 1.2-8.9 1-15.2 0-30.3-.2-45.5.1-9.4.1-18.6-1.4-27.9-2.2-9.8-.8-19.5-1.8-29.3-2.4-4-.2-8-.3-11.8-1.6-3.8-1.2-7.8-1.7-11.8-1.5-1.3.1-3 .3-3.9-.6-4.1-4.2-8.4-3.1-12.8-.9-.3.1-.7.1-1 .1-8.5 2.3-17.4 2.8-26 4.5-3.6.7-7.2 1.1-10.8 1.6-4.9.7-10 .6-14.8 1.8-5.7 1.4-11.3 1.1-16.9.9-3.1-.2-7.2-.6-8.7-3.9-2.2-4.9-6.4-6.5-10.9-7.9-9.6-2.9-19.5-1.9-29.3-1.2-8.3.6-16.5 2-24.8-.3-1-.2-2-.2-3-.1-5.5 0-11 .1-16.5 0-3.7-.2-7.3 1.2-9.8 4-1.1 1.4-2.7 2.5-4.5 3.1-9.9 2.7-20.1 4.3-30.3 4.8-12.4.8-24.6.4-36.7.4-2.3 0-4.6.3-6.9.9-6.1 1.6-12.3 3.1-18.7 1.6-3.2-.7-6.6-1.1-9.9-1h-77c-2.7 0-5.4.3-7.9-.6-6.7-2.5-13.7-2.6-20.7-2.4-1.7 0-3.5.1-4.9-.9-4.6-3.2-9.8-4-15.2-3.6-4 .2-7.6-.7-10.2-4.2-.8-1.4-2.5-1.9-4-1.4-2.5.9-5.3.8-7.8 1.6-8.1 2.3-15.9 5.5-24.5 6.2-3.6.3-7.3.3-10.9 1.3-4.4 1.3-8.9 1.5-13.3 2.2-5.1.8-10.4.8-15.3-1.3-2.9-1.2-5.4-1.7-8.6-.3-3.1 1.5-6.8.7-8.9-2.1-4.6-6.7-11.2-7.3-17.1-1.5-.8.8-1.7 1.6-2.5 2.5-2.6 3-6 3.6-9.5 2.5-2.5-.9-5.2-1.2-7.9-1-8.3.7-16.2-1.3-24-3.8-1-.3-1.9-.6-2.9-.9C233 6.9 227 5.9 221 5.9c-7 .1-13.9.8-20.9 1.4-12.6.9-25.3-.5-37.9 1.6-2.8.5-5.6.2-8.1 1.9-1.3 1.1-3.1 1.4-4.8.9-6.1-2.5-12.9-3.8-17.3-9.4-1.4-2-3.9-2.8-6.2-2-3.4.8-6.8 1.9-10 3.2-6 2.5-12.3 4.2-18.7 5.2-5 .9-9.9.3-14.9 2.9-6.1 3.2-13.3 2.5-20 .1-4.3-1.5-8.9-1.6-13.2-.3-3.2.9-6.6 1.3-9.6-.9-5.5-4-6-4-11.6 0-2.7 1.9-5.6 2.3-7.1.1-3-4.2-8.5-2.4-11.8-5.6-1-1-3.1.6-4.5 1.5-2 1.3-2.9 3.6-4.5 5.3v28h1920z"/></svg>