<svg viewBox="0 0 1919.96 103.98" xmlns="http://www.w3.org/2000/svg"><path d="M536 0h18c1.1 1 2.49.93 3.79.89 7.41-.27 14.5 1.22 21.58 3.28 8.71 2.53 17.83 2.27 26.76 2.64 7.88.33 7.93-.36 11 7.07 1.75 4.26 4.44 6.85 9.49 6.31 3-.32 6.14-.69 8.94 0a8.12 8.12 0 0 0 7.72-1.69c4.45-3.41 9.14-3.74 13.77-.21 3.28 2.5 6.68 2.57 10.29.77a21.58 21.58 0 0 1 16.5-1.61 40.8 40.8 0 0 0 12.25 1.62c5.16.08 10.31.44 15.47.61 11.65.38 23.27 1 34.92-.51 7.12-.91 13.81-4.31 21-4 13.36.5 26.61-1.09 40-.46 31.27 1.48 62.57 2.38 93.82 4.46a76.87 76.87 0 0 0 12.89.26c14-1.38 28.19-2.73 42.17.87a24.32 24.32 0 0 0 12.85.26c5.57-1.62 11.14-1.64 16.81-1.59 4.3 0 8.75 1.07 12.87-.62 7.38-3 15.07-3.2 22.63-2 39.56 6.31 79.39 5.43 119.15 4.06 28-1 55.9-2.22 83.89-2.31a37.72 37.72 0 0 1 6.95.61 521.56 521.56 0 0 0 66.29 8.37c17.76 1 35.64.56 53.44 0 23.29-.79 46.56-2.39 69.84-3.58 12.27-.63 24.21-3.6 36.65-4 10.52-.31 21.2-1 31.79-1.58a75.86 75.86 0 0 0 9.88-1.41c8.53-1.65 17.16-2.88 25.81-2.17 24.62 2 49.23 1.83 73.87.81 3.71-.15 6.79-1 9.23-3.94 1.6-2 3.87-3 6.21-1.5 3.54 2.21 6.12 1 8.88-1.49a29.93 29.93 0 0 1 10.44-5.73c2.57-.88 5.77-1.82 7.71-.09 4.15 3.68 8.28 2.21 12.63 1.27 9.85-2.12 18.89-1.26 25.92 7.09 1.88 2.23 4.53 4 7.3 4 9.2-.08 17.56 3.51 26.29 5.41 11.22 2.45 22.7 1.27 34.14 4.6 11.89 3.46 25.07 2.41 37.68 3.5a10.39 10.39 0 0 0 7.35-2c8.2-5.64 17.62-8.53 27.15-10.88 2.78-.69 6.49-1.27 7.71 2.52 1.27 4 3.75 3.57 6.62 2.77a55.63 55.63 0 0 0 7.59-2.41c3.87-1.7 7.42-2.62 11.12.52 1.51 1.28 3.68 1.16 5.76.87 9.23-1.27 18.51-2.17 27.71-3.63 11.14-1.77 22.54-2.15 33.31-6 0 43.33.1 94 .1 94L0 103.48S.1 53.83.1 11c4.71 1 9.41 2.05 14.13 3a5.89 5.89 0 0 0 5.91-1.82c2.25-2.58 3.59-1.72 5.22.9 3.6 5.79 10.19 5.92 14.26.39 2-2.68 3.53-2.57 5.27.1.79 1.22 1.53 3.62 2.81 3.12 3.67-1.43 5.95 1.28 8.79 2.19 5.71 1.83 10.82.46 15.63-2.71 2.88-1.97 5.7-4.17 8.76-5.79 5.4-2.9 11.34-4.92 17.25-2.49 8.86 3.64 17.92 4.69 27.32 4.21 1.06-.05 2.9-.45 3 .94.42 5 4.19 3.77 7 3.88s5.83-.28 7.52 1.83c3.16 3.94 7.11 3.6 11.26 3.26 7.47-.63 14.93-1.31 22.4-1.88a7.45 7.45 0 0 0 4.49-1.88c7.61-6.57 17.26-8.28 26.5-10.82 4.14-1.14 14 .95 18.38 2.21 5.58 1.6 11.47 2.17 17 4 16.9 5.57 34.37 5 51.76 5.17 6.81.06 13.64-.72 20.44.24 14.39 2 28-.33 41.48-5.75A75.69 75.69 0 0 1 387 8c16.16.39 32.27-1.7 48.45-.68a42.68 42.68 0 0 0 17.18-2.61c2.78-1 7-.34 7.3.89.73 2.93 3 2.83 4.44 3.15 5.81 1.3 11.65.08 18 .19-1.88-3.68-4.73-4.35-7.71-5.73 4.23-.74 6.95 1.26 9.29 3.52.77.74 1.28 1.28 2.27 1.28 4.81 0 9.63.46 14.28-1.51 3.84-1.63 8-2.15 12.12-2.65 7.83-.94 15.86-.97 23.38-3.85z" fill="#ffc700"/></svg>