<svg viewBox="0 0 125.25 8.17" xmlns="http://www.w3.org/2000/svg"><path d="M31.16 4.55A9.74 9.74 0 0 0 28 4.08c-2.89-.09-5.79 0-8.68.06-5.65.15-11.31.36-17 .55a4.29 4.29 0 0 1-1.64-.22c-.9-.32-.91-.85 0-1.22A4.16 4.16 0 0 1 2.27 3c4.45 0 8.9-.19 13.34-.28 7.69-.15 15.39-.56 23.06-.66l20.09-.28c7.3-.09 14.6-.18 21.9-.41C85.44 1.21 90.2.74 95 .6c8.76-.24 17.51-.6 26.29-.6 1.16 0 1.82.26 1.82.71s-.64.7-1.83.7c-4.8 0-9.6.11-14.38.36a34.39 34.39 0 0 0-6.49.76 16.32 16.32 0 0 1-3.41.33c-.73 0-1.47.06-2.19.12-.33 0-.8 0-.86.29s.45.4.78.5a6.23 6.23 0 0 0 3.63 0 15.85 15.85 0 0 1 4.79-.59 127.28 127.28 0 0 1 14 .66c1.88.18 3.78.25 5.68.37a7.46 7.46 0 0 1 1.86.36c.47.15.75.41.63.79a.91.91 0 0 1-.93.52 11 11 0 0 1-1.3 0c-4.29-.29-8.62-.16-12.93-.34s-8.46-.22-12.69-.33a9.37 9.37 0 0 0-2.77.39 9 9 0 0 1-2.54.28c-8.43-.12-16.86-.25-25.28 0a12 12 0 0 0-3.28.45 4.44 4.44 0 0 1-1.76.22 76 76 0 0 0-9.32-.06c-4.84.11-9.65.48-14.48.64-2.33.08-4.61.46-6.94.61-1.42.09-2.85.15-4.27.15-5.05 0-10.12-.06-15.14.28A12.85 12.85 0 0 1 9 8.07c-.5-.07-.92-.2-1-.59s.26-.67.79-.81a9.1 9.1 0 0 1 1.63-.29c2-.14 3.95-.33 5.93-.39a30.24 30.24 0 0 0 5.23-.59A45.35 45.35 0 0 1 29 4.81a5.81 5.81 0 0 0 2.16-.26zM22.5 6.4a9.71 9.71 0 0 0 3.34.48c2.59 0 5.19-.09 7.78-.18a8 8 0 0 0 2.16-.28 14.91 14.91 0 0 1 4.29-.58c1.82 0 3.63-.09 5.45-.15.38 0 .87.08 1.12-.3a2.67 2.67 0 0 0-1.24-.28A84.66 84.66 0 0 0 36.06 5a5 5 0 0 0-1.25.22 14.53 14.53 0 0 1-3.29.45L23.76 6a1.6 1.6 0 0 0-1.26.4z" fill="#ffc809"/></svg>