<svg viewBox="0 0 85.87 6.07" xmlns="http://www.w3.org/2000/svg"><path d="M66 2.52a21.65 21.65 0 0 1 5.13.4 14.58 14.58 0 0 0 3.61.45c1.37 0 2.72.15 4.08.23a4.52 4.52 0 0 1 1.13.24.72.72 0 0 1 .58.79c0 .39-.32.55-.65.62a6.08 6.08 0 0 1-1.78.12c-3.46-.21-6.93 0-10.4.11h-2.94C63.15 5.36 61.57 5 60 5c-3.32 0-6.64-.28-10-.26a35.87 35.87 0 0 0-6.39.3 2.17 2.17 0 0 1-1.22-.17 5.84 5.84 0 0 0-2.27-.36c-5.78 0-11.56.35-17.34.7A4.33 4.33 0 0 1 21 5a4.59 4.59 0 0 0-1.92-.31c-2.9.22-5.8.38-8.69.67s-5.88.28-8.81.64a5.2 5.2 0 0 1-.89 0A.64.64 0 0 1 0 5.56a.66.66 0 0 1 .4-.8 3.74 3.74 0 0 1 1.26-.4c1.34-.17 2.62-.3 3.91-.52a60.27 60.27 0 0 1 9.55-1 7.71 7.71 0 0 1 3.31.46 3 3 0 0 0 2.49-.07c.22-.1.58-.18.51-.52s-.38-.25-.6-.27c-.5 0-1-.07-1.51-.07a7.84 7.84 0 0 1-2.38-.24 16.62 16.62 0 0 0-4.48-.59c-3.29-.12-6.58-.09-9.88 0-.81 0-1.26-.2-1.28-.65S1.72.17 2.52.14c6-.21 12-.11 18.06-.09 3.3 0 6.58.36 9.87.39 5 0 10-.06 15-.16L59.28 0c5.28-.1 10.56.1 15.84.06 3.05 0 6.11 0 9.16-.07a2.06 2.06 0 0 1 1.12.2c.61.34.63.87 0 1.22a2.1 2.1 0 0 1-1.11.26c-3.89 0-7.77-.1-11.66-.1-2 0-4 0-6 .17a4.78 4.78 0 0 0-2.18.55 2.83 2.83 0 0 0 1.55.23zm3.65 1.08l-5.34-.15A7.09 7.09 0 0 1 62 3.09a2.48 2.48 0 0 0-.86-.18 39.94 39.94 0 0 0-6.4.35 1.38 1.38 0 0 0-.84.31c.18.37.51.27.78.27h3.74a7.28 7.28 0 0 1 3 .47 3.89 3.89 0 0 0 1.49.22c1.78 0 3.57.08 5.35 0a4.77 4.77 0 0 0 2.27-.57c-.28-.42-.59-.34-.88-.36z" fill="#ffc809"/></svg>