<svg viewBox="0 0 85.5 8.2" xmlns="http://www.w3.org/2000/svg"><path d="M21.4 4.5c-.8-.4-1.5-.4-2.2-.5-2-.1-4 0-6 .1-3.8.2-7.7.4-11.6.6-.4 0-.8 0-1.1-.2-.6-.3-.6-.9 0-1.2.3-.2.7-.3 1.1-.3 3.1 0 6.1-.2 9.2-.3 5.2-.1 10.5-.5 15.8-.6l13.8-.3c5-.1 10-.2 15-.4 3.3-.2 6.6-.6 9.8-.8 6-.2 12-.6 18.1-.6.8 0 1.2.3 1.2.7s-.4.7-1.3.7c-3.3 0-6.6.1-9.9.4-1.5.1-3 .2-4.5.8-.8.3-1.6.3-2.4.3-.5 0-1 .1-1.5.1-.2 0-.6 0-.6.3s.3.4.5.5c.8.4 1.7.3 2.5 0 1.1-.5 2.2-.6 3.3-.6 3.2-.1 6.4.2 9.6.7 1.5.1 2.8.2 4.1.3.4 0 .9.2 1.3.4.3.2.5.4.4.8-.1.3-.3.5-.6.5h-.9c-2.9-.3-5.9-.2-8.9-.3-2.9-.2-5.8-.2-8.7-.3-.7 0-1.3.1-1.9.4-.6.2-1.1.3-1.7.3-5.8-.1-11.6-.3-17.4 0-.8 0-1.5.1-2.3.4-.4.2-.8.3-1.2.2-2.1-.3-4.3-.1-6.4-.1-3.3.1-6.6.5-9.9.6-1.6.1-3.2.5-4.8.6-1 .1-2 .1-2.9.2-3.5 0-6.9-.1-10.4.3-.6.1-1.2.1-1.8 0-.4-.2-.6-.3-.7-.7s.2-.7.5-.8c.4-.1.7-.2 1.1-.3 1.4-.2 2.8-.3 4.1-.4 1.2 0 2.4-.2 3.6-.6 1.7-.5 3.4-.5 5.1-.6.5 0 .9.1 1.5-.3zm-5.9 1.9c.8.4 1.5.5 2.3.5 1.8 0 3.6-.1 5.3-.2.5 0 1-.1 1.5-.3.9-.4 1.9-.5 2.9-.6 1.2 0 2.5-.1 3.7-.1.3 0 .6.1.8-.3-.3-.2-.6-.2-.8-.3-2.2-.3-4.3-.1-6.4-.1-.3 0-.6.1-.9.2-.7.3-1.5.4-2.3.5-1.8.1-3.6.2-5.3.4-.3 0-.6-.1-.8.3z" fill="#ffc809"/></svg>