<svg viewBox="0 0 58.71 91.03" xmlns="http://www.w3.org/2000/svg"><g fill="#ffcd00"><path d="M46.6 39.27c.45 0 .92 0 1.09.52s-.15.76-.45 1c-2.79 2.55-3.95 5.94-4.89 9.44a5.76 5.76 0 0 0-.1 1.19c0 .61.18.93.85.72s1.07.16 1.64.14A5.13 5.13 0 0 0 48.19 51c1.26-1.13 3.07-1.35 4.38-2.45a.44.44 0 0 1 .64 0 .57.57 0 0 1 .07.67 2.68 2.68 0 0 1-1.36 1.29 13.17 13.17 0 0 0-3.62 2.73c-.28.28-.62.51-.11 1 .34.3.09.69-.21.92-3.2 2.39-3.64 5.88-3.83 9.48 0 .25.14.71-.18.71s-.15-.45-.19-.7 0-.4 0-.6 0-.44-.24-.47-.21.25-.29.42c-.43.93-.26 2-.86 2.91-.09.14-.12.49 0 .56.79.62.36 1.34.1 2a6.14 6.14 0 0 0-.5 1.94c-.09 1.13-1.26 1.81-1.21 3 0 .26-.48.4-.8.41a3.2 3.2 0 0 0-1.39.29.58.58 0 0 1-.68-.05c-.26-.24 0-.43.12-.61s.29-.54 0-.75a.53.53 0 0 0-.83.16 1.24 1.24 0 0 1-1.19.45c-1.38-.15-2.51.7-3.79.91-.61.1-.77.65-.77 1.2s.54.51.87.55a3.51 3.51 0 0 1 2.44.77c.17.18.44.12.68 0 2.12-.63 4.19-.07 6.25.29.57.1 1.26.33 1.3 1.06s-.61 1-1.25 1.2-1.29.17-1.15 1.16c.06.45-.52.6-.91.58a8.61 8.61 0 0 0-2.56.43c-.5.13-1.17.74-1.54-.24 0 0-.16-.08-.22-.06-1.57.56-3.38.57-4.59 1.95-.47.54-1.11.33-1.64.53-.35.13-.92 0-.94.53s.49.47.81.6a11.51 11.51 0 0 0 5.55.51c.89-.1 1.7-.36 2.5.25.11.09.34 0 .46.1.45.28 1.28-.17 1.42.59s-.67.78-1.11 1.06a11.61 11.61 0 0 1-6.15 2 .68.68 0 0 0-.74.46 1.43 1.43 0 0 1-.48 0 14.43 14.43 0 0 0-3.11-.74c-1.39-.2-2.22-1.56-3.16-2.56a6.27 6.27 0 0 1-.89-1.56c-.24-.49-.64-1.14 0-1.5s1-.84 1.83-.36a1.48 1.48 0 0 0 2.07-.39c.28-.42.83-.45 1.25-.67.14-.08.34-.12.31-.31s-.26-.09-.4-.1a3.31 3.31 0 0 0-.48 0c-.19 0-.44.09-.52-.14a.49.49 0 0 1 .29-.6 5 5 0 0 1 2-.42c1.69 0 3.22-.74 4.85-1 .1 0 .18-.14.27-.21a1.25 1.25 0 0 0-.3-.16 8.59 8.59 0 0 0-.94-.15c-.61-.06-1.3.15-1.59-.7-.09-.27-.48-.33-.75-.25-.86.26-1.85-.07-2.59.3-1.53.76-2.35-.38-3.33-1s-2.28-.33-2.6.6c-.09.27-.08.56-.43.62-.12 0-.28.1-.35.05-.24-.18 0-.26.11-.34.62-.62.44-1.11-.2-1.57-.41-.29-.36-.62-.1-1a2.83 2.83 0 0 1 3.48-1.25c.74.24 3.92-.81 4.33-1.41.12-.18-.06-.27-.07-.4-.06-.67.21-1 .92-.81a3.88 3.88 0 0 0 .82.1.36.36 0 0 0 .37-.24 2.42 2.42 0 0 0-.41-.08h-1.2c-.88 0-1-2-2.36-.9-.88.68-1.95 0-2.92.15-.44.07-1.16-.26-1 .7 0 .06-.12.17-.21.23A3.21 3.21 0 0 1 19 71.8a1.55 1.55 0 0 0-1.4-.68 25.31 25.31 0 0 0-4.06.29c-.18 0-.47.07-.49-.17s.28-.22.46-.23c1.28-.09 2.55-.21 3.83-.22.81 0 1.19-.24 1.07-1.12a5.24 5.24 0 0 1 .08-2.38c.06-.18.11-.47-.08-.53s-.28.23-.39.38-.26.35-.47.3-.25-.37-.25-.6.06-.55.09-.83c.2-1.67.66-3.35-.33-5a2.82 2.82 0 0 1-.31-1.87 4.62 4.62 0 0 0-1.09-3.67c-1.43-1.87-2.64-3.92-4.73-5.19a.89.89 0 0 1-.44-.68A3.08 3.08 0 0 0 8.31 47a1.87 1.87 0 0 1-.91-.91 43.21 43.21 0 0 0-2.88-4.13 9.29 9.29 0 0 1-1.9-3.69 17.22 17.22 0 0 0-1.35-3.71 2.66 2.66 0 0 1-.21-.56c-1.15-5-1.71-9.9.12-14.84a13.85 13.85 0 0 0 .47-2c.73-3.48 2.2-6.62 5.26-8.53a27.07 27.07 0 0 0 3.67-3.18A15.13 15.13 0 0 1 16 2.76c.37-.13.81-.1 1.16-.26C20.93.8 25 .75 29 .41c2.26-.19 4.54 0 6.81-.35 1.66-.28 3.22.47 4.75 1 2.92 1.06 6 1.74 8.67 3.42a4.49 4.49 0 0 0 3.2 1.05c.39-.06.68.13.53.55-.4 1.1.41 1.63 1 2.18a11 11 0 0 1 1.47 1.56 2.13 2.13 0 0 1 .57 1.34c0 1.88 0 3.75-.07 5.63 0 .14 0 .37-.17.37a.55.55 0 0 1-.36-.25c-2-3-5.12-2.4-8-2.58a1.31 1.31 0 0 0-.56.2c-1.66.77-1.8.72-2.85-.71a16.14 16.14 0 0 1-1.21-2.06A2.15 2.15 0 0 0 40 10.41c-.11 0-.28.07-.34 0-1-.91-1.34 0-1.82.61-.64.76-1.27 1.54-2 2.27-.37.4-.36.62.19.65a9 9 0 0 1 5.64 2.59 7.55 7.55 0 0 0 3.2 1.28c1.47.39 2.42 1.22.95 2.92a54.36 54.36 0 0 0-3.66 5.33.93.93 0 0 0-.16.94 2 2 0 0 1-.05 1.3c-1 3 .09 5.54 1.42 8.08a2.3 2.3 0 0 1 .19.67 1.74 1.74 0 0 0 2 1.47l.72-.06c.31 0 .71-.19.86.19s-.49.33-.53.66h-.05zM2.9 16.21a.36.36 0 0 0 .37-.46s-.13-.12-.16-.11c-.28.12-.22.36-.19.59h-.06zm39.39 44.42a3.37 3.37 0 0 1 .5-2 15.5 15.5 0 0 1 3.07-4.24c.26-.25.76-.62.53-1s-.81-.11-1.24-.11a.68.68 0 0 0-.23.05c-.88.32-1.87.29-2.63 1a1.39 1.39 0 0 1-1.59.15c-.44-.25 0-.73 0-1.11a5.6 5.6 0 0 0-.6-3.12 1.81 1.81 0 0 1 0-2c1.44-2.12 2.4-4.52 3.73-6.7a1.3 1.3 0 0 0-.29-1.94 3.4 3.4 0 0 1-1.39-2.87 3.91 3.91 0 0 0-1.36-3.09c-1-.77-1-1.6-1-2.57-.05-1.37.42-2.7.47-4a4.05 4.05 0 0 1 1.15-2.62c1.1-1.3 2.23-2.57 3.36-3.84.66-.74.5-1.27-.49-1.51a2.5 2.5 0 0 0-.71-.12c-3.4.16-5.94-2.19-9-3.08-.5-.15-.76-.53-.34-1.2a37.45 37.45 0 0 1 4.1-5.3c.89-1 1.62-1.24 2.8-.56s2.6 1.38 2.95 3a5.61 5.61 0 0 0 1.14 1.82.51.51 0 0 0 .74.16c1.47-.86 3-.55 4.54-.29a1.33 1.33 0 0 0 1.34-.29c.4-.46.65-.24.94.12a3.2 3.2 0 0 0 .6.58.52.52 0 0 0 .44.07c.15-.07.14-.27.09-.42-.49-1.38-.7-2.89-1.68-4.07s-2.64-1.73-3.92-2.65c-1.56-1.13-3.5-1.56-5-2.7a11.73 11.73 0 0 0-6.1-2.24c-2.63-.23-5.27.1-7.9-.06-2.15-.13-4.25.48-6.39.51-.31 0-1-.14-.86.51a1.2 1.2 0 0 0 1 1c.2.05.64-.4.59.15s-.49.5-.86.3a2.58 2.58 0 0 1-.79-.58c-1.13-1.19-1.13-1.19-2.6-.44l-1.06.56c-.56.31-.78.6-.13 1.13 2.32 1.9 4.67 3.76 7.13 5.48.35.25.75.68 1.17.47s.29-.85.26-1.32a7.22 7.22 0 0 0-.64-2.18c-.23-.59-.46-1.19-.68-1.79a9.64 9.64 0 0 1 1.77 3.89c.12.66.32 1.44-.36 1.87s-1.14-.18-1.61-.5a71.85 71.85 0 0 1-6.35-4.92c-1.61-1.39-1.6-1.36-3.48-.46a1.88 1.88 0 0 0-1.26 1.56 3.2 3.2 0 0 1-1.71 2.21c-.15.09-.34.3-.5.06 0-.06.09-.29.19-.4a4.37 4.37 0 0 0 1.24-1.69c.05-.19.1-.41-.13-.51-.06 0-.24.08-.27.16-.24.64-.85.83-1.32 1.22-.68.56-1.64 1-1.76 2a4.11 4.11 0 0 1-1.49 2.73 9.19 9.19 0 0 0-1.33 1.84 2.1 2.1 0 0 1-.68.82 4.77 4.77 0 0 0-2 2.75 11.3 11.3 0 0 0-.91 4.11 3.32 3.32 0 0 1-.61 2 3.48 3.48 0 0 0-.61 2.12 16.64 16.64 0 0 1-.06 1.91c-.18 1.25-.39 2.46.92 3.3.15.1.56.6-.19.56.5.83.47 1.9 1.22 2.61v-.7a7.8 7.8 0 0 0 .56-2.17c0-.14 0-.4.15-.39s.06.25.06.38a20.9 20.9 0 0 0 0 4.41 12.28 12.28 0 0 0 2.75 5.25A27.66 27.66 0 0 1 10 44.39c1.44 2.36 3.86 3.94 5 6.49a2.23 2.23 0 0 0 1 1 2.28 2.28 0 0 1 1.1 1.2 25.22 25.22 0 0 1 2.47 5.67c.38 1.81 1.37 3.48 1.75 5.33a2.78 2.78 0 0 0 .35.76c.23.4.46.51 1 .47 1-.08 1.76-.92 2.81-.79.33 0 .82.13 1-.21s-.34-.47-.52-.71c-.36-.48-.63-1-.18-1.51s1-.26 1.44 0a10.93 10.93 0 0 1 1.09.92c.26.22.44.72.84.53s.17-.71.12-1.08c-.11-.87-.32-1.73-.38-2.61-.28-3.86-.83-7.69-1.37-11.52a9.32 9.32 0 0 0-.52-2.74 4.3 4.3 0 0 1 .41-3.48A1.67 1.67 0 0 0 27 40a5.11 5.11 0 0 1-1.46-3 30.11 30.11 0 0 0-.5-3.07c-.44-1.52-1.42-2.87-3.23-2-.58.26-1.2.45-1.77.73-1.62.79-3.21 1.63-4.83 2.42-.33.16-.78.54-1.08.13s0-.82.36-1.14c-.17.75 0 1 .76.58a50.11 50.11 0 0 1 6.32-3.17A2.75 2.75 0 0 0 23 28.32c-.35-.79-.09-.93.62-.88a4.06 4.06 0 0 1 1.36.37 34.66 34.66 0 0 0 7.47 2.47 3.07 3.07 0 0 1 1.86.7 5.13 5.13 0 0 1 1.07 4.53 1.8 1.8 0 0 1-1.2 1.36c-1.07.42-2.13.9-3.18 1.37-.52.23-1 .51-.94 1.23a12.21 12.21 0 0 1-.74 4.23 2.83 2.83 0 0 0 .49 2.69 16.37 16.37 0 0 1 2.87 6.9 8.47 8.47 0 0 1-.53 5.59c-.79 1.5-.37 2.3 1.17 3 .47.22.9.57.91 1s-.61.41-.95.61c-.14.08-.3.12-.43.2s-.48.33-.41.66.31.37.54.4c.59.09 1.19.14 1.78.22 2.3.32 2.85-.36 2.1-2.57-.14-.42-.4-.44-.74-.37l.49-.53c.26-.27.44-.19.39.16-.13.81.45 1.11.89 1.63s1.14.56 1.78.66c.37.05.73.18.73.64s.09.82-.21 1-.42-.34-.66-.5a.48.48 0 0 0-.55-.06c-.25.17-.08.41 0 .49.64.39 1.06 1.31 1.94 1.09s.86-1 .84-1.77v-.36c.08-1.12-.44-2.35.74-3.25.33-.15.18-.42-.21-.6zM32.76 35c-.18-1.48-.62-2.09-1.58-2.09-1.67 0-3.35.09-5 .12-.53 0-.69.2-.6.73.17 1 .26 2 .44 3a6.69 6.69 0 0 0 .95 2.44c.12.19.23.49.52.37a.45.45 0 0 0 .19-.62c-.47-1 .21-1.39.82-1.85a7 7 0 0 1 3.48-1.16c.65-.08 1.22-.09.78-.94zm-1.11 21.12a13.7 13.7 0 0 0-1.93-6.77c-.12-.19-.25-.49-.52-.41s-.15.41-.13.62q.14 1.49.32 3 .46 4 .94 8c0 .14.07.36.17.4s.24-.14.25-.28a26.53 26.53 0 0 1 .9-4.56zm9.86 12.71c.1 0 .26.27.35.05a.54.54 0 0 0-.24-.48 1.72 1.72 0 0 0-1.59.14c-.66.49-1.53.1-2.23.47-.63-1.13-1.61-.47-2.45-.47a2.79 2.79 0 0 0-.47.08l.41.09c.69.19 1.39.34 2.06.58 1.42.5 1.58 1.48.45 2.48-.17.15-.53.21-.44.49s.43.18.63.13c.48-.11 1.19.43 1.4-.09.38-1 1.26-1.74 1.23-2.91-.01-.39.38-.72.89-.56zm-6.41-1c.53 0 1 0 1.4-.07s.85 0 .93-.53a.6.6 0 0 0-.22-.64 1 1 0 0 0-1.18.25 1.45 1.45 0 0 1-.87.52c-.55.12-1.55-.41-1.55.4-.01.56 1.02-.02 1.49.12zm-10.32-1.22a4.11 4.11 0 0 1-.72 0c-.72-.08-.82.42-1 .93s0 .52.35.59c.52.1 1 .23 1.21-.52.1-.43.55-.54.92-.7.13-.06.26-.14.39-.21a2.83 2.83 0 0 0-.44-.1c-.23 0-.49.01-.71.01zm3.54-2.79v-.22a2.72 2.72 0 0 0-1.66-1.24.27.27 0 0 0-.32.37A2 2 0 0 0 27.91 64a.33.33 0 0 0 .41-.18zm-8.23-2.61c0 .15-.08.25-.06.33.22.87.1 1.83.69 2.61.09.12.2.24.3.36a2 2 0 0 0 0-.44 11.69 11.69 0 0 0-.75-2.49 2.34 2.34 0 0 0-.18-.37zm19.24 5.85c0-.43-.23-.73-.64-.68s-.49.48-.49.83.28.54.64.52.52-.31.49-.67zM6.9 9.73c.12 0 .11-.13 0-.13s-.14.06-.19.12l-1.06 1.1a.61.61 0 0 0-.08.2.63.63 0 0 0 .17-.09zm20.78 59c.29 0 .6 0 .69-.3s-.19-.19-.31-.16c-.28.07-.7-.08-.81.27s.28.16.43.21zm-25.56-46c.23-.07.24-.23.24-.38s-.07-.34-.26-.26-.12.26-.12.4.09.23.14.3zm31.3 43.21l.3-.12c-.1-.17-.27-.13-.42-.13a3.22 3.22 0 0 0-.45.08zm-6.15 1.52s0 .06.05.06h.2v-.06zm1-1.64a.26.26 0 0 0 .09 0v-.07a.25.25 0 0 0-.09 0s-.02.05-.03.07zm12.22 1.81v-.14h-.07a.46.46 0 0 0 .04.14zM58.62 29.2v1c-.07.72-.36 1-1 .41-.28-.26-.58-.51-.94-.26s.13.43.18.65 0 .36-.22.28c-.4-.15-.91.11-1.22-.32a.59.59 0 0 1 .14-.85 2.07 2.07 0 0 1 1.31-.52c.85.07.82-.4.7-1s-.24-.93-.36-1.39a.33.33 0 0 1 .15-.41c.18-.09.32 0 .39.18.41.75 1.25 1.33.87 2.23z"/><path d="M36.49 89.66c-1.22 1.43-2.84 1.49-4.52 1.27a7.55 7.55 0 0 1-1-.28 8.93 8.93 0 0 0 5.58-1zm20.22-51.2c-.33 0-.52-.15-.76.1-.45.48-.6.41-.85-.21-.09-.23-.18-.46 0-.67s.44-.16.66-.09a4.44 4.44 0 0 1 .88.35c.23.13.7.06.66.36s-.46.08-.59.16zm-3.2 2.68c.35-.43 0-.9.05-1.36.08-.84.37-.91 1-.46 0 .79-.11 1.54-1 1.81zm.68 4.25c-.08.23-.1.68-.44.52s-.91 0-.88-.57c0-.41.36-.6.76-.59s.56.25.56.64zm-33.4 29.24h-.16a.54.54 0 0 1 0-.09h.16zM52.13 31v.09a.11.11 0 0 1-.08 0c-.05-.09 0-.09.08-.09zM23.56 83.11l-.09-.04.1-.03zM53.5 41.12l-.19.53z"/><path d="M36.51 89.69l.02-.05-.04.02zM15.65 31.86A7.1 7.1 0 0 1 14.43 34a4.17 4.17 0 0 1 1.21-2.15zm2.12-4.14a6.24 6.24 0 0 1 1-1.84 3.09 3.09 0 0 1-1 1.84zM19 25.31c.15-.4.3-.79.47-1.18 0-.08.15 0 .12.06A2.31 2.31 0 0 1 19 25.3zm-1.94 3.86l.71-1.45a1.69 1.69 0 0 1-.77 1.43zm6.03 16.33a1.68 1.68 0 0 1 .24-.25c.18-.12.35-.3.6-.23-.08.27-.37.22-.54.34a1.23 1.23 0 0 1-.32.12zm-6.48-15.32c-.19.42-.32.89-.78 1.11.19-.42.3-.89.78-1.11zM25.46 5.7a2.59 2.59 0 0 1-.45-1c.38.22.4.62.46 1zM6 34.23c0 .18 0 .39-.15.51 0 0-.16 0-.16-.09 0-.24.19-.29.32-.41zm30.28-31.9l-.43.13.43-.12zm-14.42 44.4l-.5.42a.55.55 0 0 1 .5-.42zm14.21 15.36l-.53.19zM4.1 34.25l-.1-.16c.17 0 .07.11.09.17zm12.72-4.61l.25-.47-.24.47zm4.54 17.51l-.05.18v-.08a.45.45 0 0 1 .07-.08zm-5.7-15.27l.19-.56zm1.14-2.26l-.19.56zM19 25.3l-.19.56zM36.28 2.35l.01-.05-.01.03zM23.07 45.48l-.23.25zm-.44.52l.23-.24zm-.25.23l.25-.23zm-.02-.02l-.23.25zm-.48.54l.27-.27z"/></g></svg>