<svg xmlns="http://www.w3.org/2000/svg" width="105.938" height="176.188" viewBox="0 0 105.938 176.188"><defs><style>.cls-1{fill:#ffcd00;fill-rule:evenodd}</style></defs><path id="_" data-name="?" class="cls-1" d="M855.828 576.961l15.646-6.669c-4.36-3.334-6.925-8.464-6.925-12.568 0-25.135 49.758-28.469 49.758-67.2 0-22.058-18.98-39.755-50.271-39.755-24.366 0-43.346 10.259-55.657 26.161l12.824 13.85c9.49-12.568 21.545-21.032 40.781-21.032 20.262 0 30.265 11.029 30.265 23.853 0 27.188-46.424 30.009-46.424 62.582 0 7.697 3.075 14.879 10.003 20.778zm5.386 50.014a14.107 14.107 0 1 0-14.106-14.107 14.232 14.232 0 0 0 14.106 14.107z" transform="translate(-808.375 -450.781)"/></svg>