<svg viewBox="0 0 524.88 45.66" xmlns="http://www.w3.org/2000/svg"><path d="M215.42 1c68.31-1 136.63-1.89 204.93.46 23 .79 45.77 4 68.62 6.32 10.26 1 20.59 1.5 30.87 2.35 1.8.15 5-.93 5 1.58s-3.18 1.53-5 1.55a425.4 425.4 0 0 1-52.83-3.18c-35.82-4.09-71.77-4.8-107.77-5C266 4.54 172.71 6.95 79.4 7.55c-10.66.07-21.32.64-32 1a22.39 22.39 0 0 0-2.66.4 14.18 14.18 0 0 0 2.8.81c11.79.92 23.58 2 35.38 2.63 44.46 2.52 88.93 1.79 133.41.15 68-2.51 135.93-2.57 203.92-1.12a152.46 152.46 0 0 1 22.4 1.86c2.54.43 5.93.43 5.87 4.07s-3.48 3.63-6 3.88c-21.41 2.16-42.91 2.4-64.41 2.55-43.66.31-87.32.32-130.83 4.67-24 2.4-48 5.49-71.9 9a6.19 6.19 0 0 0-1 .15c-1.23.4-2.45.82-3.68 1.24 1.29.08 2.57.28 3.86.24q40.74-1.27 81.28-5.42c15.91-1.63 31.84-2.76 47.76-4 3.35-.26 8.68-1.8 9 3.24s-5.11 3.49-8.21 3.72C265.24 39.55 226 42.39 186.83 45a342.64 342.64 0 0 1-48.95-.42c-2.65-.2-5.92 0-5.9-3.74 0-3.3 3-3.35 5.54-3.78C215 23.5 293.06 16.41 371.8 17.65c10.49.16 21-.32 31.49-.51.66 0 1.32-.15 2-.22a13.16 13.16 0 0 0-2.09-.35c-50.32-.52-100.64-1-151 .39-48.63 1.31-97.25 3.6-145.92 1.91q-48.72-1.7-97.13-7.62c-2.31-.28-4.63-.58-6.91-1A2.66 2.66 0 0 1 0 7.31a2.77 2.77 0 0 1 2.54-2.65A15.69 15.69 0 0 1 5 4.52C73 2.22 140.95 1.47 208.93 1z" fill="#ffcc17"/></svg>