<svg id="Слой_1" xmlns="http://www.w3.org/2000/svg" viewBox="0 0 1919.8 90.1"><style>.st0{fill:#fff}</style><title>small header background</title><path class="st0" d="M0 0v83.4c2.2.1 4.3-.1 6.4-.7 1.4-.5 3-.5 4.4.2 5.3 2.8 11.6 3 17.2.7 4.2.8 8.2 1.5 12.1 0 1.3-.5 2.7-.5 3.9 0 2.9 1.2 5.9 1 8.9 1l21-.3c4.5 0 9-.4 13.4-1.3 12.7-2.5 25.5-1.9 38.3-.6 2.5.3 4.9 1 7.4 1 7.8 0 15.6.8 23.4 1.2 3.8.2 7.7 0 11.5.3 8.6.8 17.3.5 26 .5.8 0 1.7-.1 2.5-.4 3.4-1.4 7-2.1 10.7-2 1.8 0 3.6-.7 4.9-2 .8-.8 1.3-2 3-1.9 1.4 1.7 3.9 2 5.8 2.9 2.4 3.1 3.4 7.4 8.2 6.8 3.2-1.3 2.7-4.7 4.7-7 3.3 2.8 7.3 4 11.3 5.5 5.2 2 10.4 1.9 15.7 1.7 6.9-.3 13.4-2.6 20.2-3.3 3.8-.4 7.6-1.2 11.2-2.3 8.3-2.5 16.8-4.3 25.4-5.4 6-.8 12-.8 17.9-.1 10.6 1.5 21.2 2.1 31.9 2.5 9.6.3 19.3-.1 28.9 1.2 7.6.8 15.3 1.2 22.9 1.2.8 0 1.7.1 2.5.2 21.8 1.6 43.5 3 65.4 2.4 1.7 0 3.3-.3 5-.4 9.1-.8 18.2-1.7 27.4-2.4 10.3-.8 20.6-1.1 31-.9 1.3.1 2.7 0 4-.3 3.1-.9 6.2-.8 9.4-.8 5.6 0 11.2.3 16.8 1 4.2 3.6 9 2.8 13.9.3 4.3 1.8 9 2.4 13.6 1.9 5-.4 10-.5 15-.2 8 .4 16 .1 23.7-2.5 3.2-1 6.5-1.5 9.8-1.5 15.8-.3 31.6.2 47.3 1.6 8.1.7 16.3 1.4 24.4 1.6 22.1.3 44.3-.2 66.4 1.8 10.1 1.1 20.3.8 30.4-.8 6.7-1.2 13.6-.4 20.5-.4 5 0 10-.1 14.3-2.4 1.7.7 3.1 1.7 4.5 1.7 4.7.2 8.8 4.3 13.9 2.2.2-.1.6.2.9.3 3.5 1.2 7.4.8 10.6-.9 2.7-1.4 5.8-1.9 8.8-1.3 5.8 1 11.6.7 17.5.7 5.8-.2 11.7 0 17.5.4 9.5.9 19 1 28.5.4 14.8-.8 29.6-2 44.4-2.5 24.3-.7 48.6-1.3 73-1.1 2.2 0 4.3.2 6.5.5 15.6 2.4 31.4 3.6 47.2 3.5 8.7-.1 17.3-1.4 25.9-1.5 11.2 0 22.3-.8 33.1-4 3.7-1.1 7.6-1.1 11.3.1 3.5 1.2 7.3 1.4 10.8.4 1.4-.5 3-.4 4.4.3 4.6 2.1 9.4 2 14.2.9 3.1-.7 6.3-.7 9.4.1 8.2 2.1 16.7 3 25.3 2.6 5-.2 10 .4 14.8 1.7 3.1.8 6.2 1.2 9.4 1.1 7.2 0 14.4-.3 21.5.3 7.4.6 14.6.8 21.7-1.3 1.1-.3 2.3-.3 3.4-.1 4.1.8 8.3.4 12.3-1 2.7 1.1 5.4 2 8.3 1.8 9.8-.7 19.7-.3 29.5-.5 1.5 0 3-.2 4.4-.6 5.3-1.3 10.9-1.9 16.3-1.6 2.3.1 4.7.1 7-.1 14.2-1.9 28.3-.1 42.3 1 7 .6 13.9 1 20.9-.3 3.8-.8 7.7-.8 11.4-.1 4.6.9 9.3 1 13.9.4 3.3-.4 6.6-.4 9.9 0 4.5.7 8.9.7 13.2-1.5 2.1-1.2 4.5-1.5 6.8-1 4.9 1.5 10.2.9 14.6-1.8 5 2 9.8 1.3 14.5-.9 1.5-.7 3.3-.9 4.9-.5 4.9 1.4 9.5.7 14.2-1 4.1-1.5 8.6-1.6 12.8-.4 5.5 1.4 11.1 2.1 16.8 2 5-.1 10 .2 15 .6 5.3.5 10.6 1.1 15.9 1.4 5.1.4 10.3.1 15.4-.8 10.6-2.2 21.5-2.9 32.3-2 7.8.7 15.6 1.7 23.3 2.4 8 .7 16 1.2 23.9.2 4.9-.6 9.6-.8 14.3.5 4.4 1.2 8.9.6 13.3 1.6 1.5.2 3-.1 4.3-1 1.1-.8 2.4-1.3 3.7-1.6h.4c.7.1 1.3.3 1.9.5 6.1 2.6 11.3 1.3 15.9-3.4 1-1 1.8-2.4 3.8-2.4 1.2 1.7 2.3 3.5 3.7 5.2 2.6 3.4 4.4 3.7 8.2 1.8.6-.3 1.2-.7 1.7-1 3.7-2.1 7.5-3.3 11.9-2 2.5.7 5.3.4 8 .5 6.8.2 13.6-.6 19.7 1.1 1.8-.3 1.5-1.9 2.8-2.1 5.3 1.2 10.7 1.7 15.8-.8 1.4 1.3 2 3.2 4.3 3.3 1.4 0 2.5-1.7 4.6-2 3.3.6 6.7.6 10 .2 2.8-.4 5.7.1 8.1 1.7 2.7 1.7 5.8 2.5 9 2.5l16-.1V0H0z"/><path d="M1919.8 83.4l-16 .1h-.1c-3.1 0-6.2-.8-8.9-2.5-1.9-1.2-4-1.8-6.2-1.8-.6 0-1.3 0-1.9.1-1.4.2-2.9.3-4.4.3-1.9 0-3.8-.2-5.7-.5-2.1.3-3.2 2-4.6 2-2.3-.2-2.7-2-4.1-3.3-2.6 1.2-5.6 1.9-8.4 1.8-2.6-.1-5.1-.4-7.6-1-1.2.2-1 1.8-2.8 2.1-3.4-.9-7-1.2-10.5-1.1-2.2 0-4.4.1-6.6.1h-6.2c-1.5 0-2.9-.1-4.4-.5-1.2-.3-2.4-.5-3.6-.5-2.9.1-5.8 1-8.3 2.6-.6.3-1.1.7-1.7 1-1.1.7-2.3.9-3.7 1-1.6 0-2.7-1-4.3-3.1-1.3-1.7-2.5-3.5-3.7-5.2-2 0-3.1 1.6-4.1 2.6-3 3.1-6.3 4.7-10 4.7-2 0-4.1-.5-5.9-1.3-.6-.2-1.3-.4-1.9-.5h-.4c-1.3.3-2.6.8-3.7 1.6-1 .7-2.2 1-3.4 1.1-.3 0-.6 0-.9-.1-4.4-1-9-.4-13.3-1.6-2.6-.7-5.2-1-7.8-1-2.2 0-4.3.2-6.5.4-3.3.4-6.5.6-9.8.6-4.7 0-9.4-.3-14.1-.8-7.8-.7-15.6-1.8-23.3-2.4-3-.3-6.1-.4-9.1-.4-7.8 0-15.5.8-23.2 2.3-3.4.7-6.9 1-10.3.9-1.7 0-3.4-.1-5.1-.2-5.3-.3-10.6-.9-15.9-1.4-4.5-.4-9.1-.6-13.7-.6h-2c-5.5 0-10.9-.6-16.2-2-2-.5-4-.8-6-.8-2.3 0-4.6.4-6.8 1.2-2.8 1.1-5.9 1.7-8.9 1.8-1.8 0-3.7-.3-5.4-.8-.6-.2-1.2-.2-1.8-.2-1.1 0-2.1.3-3.1.7-2.7 1.3-5.5 1.8-8.4 1.9-2.1 0-4.1-.6-6-1.4-2.7 1.7-5.8 2.7-9 2.7-1.9 0-3.8-.2-5.6-.7-.7-.2-1.4-.3-2.1-.3-1.7 0-3.3.6-4.8 1.4-2.6 1.3-5.4 2-8.3 1.9-1.6 0-3.3-.2-4.9-.4-1.6-.2-3.1-.3-4.7-.3-1.7 0-3.5.1-5.2.3-2.1.2-4.2.4-6.2.4-2.6 0-5.1-.2-7.7-.8-1.7-.4-3.5-.5-5.2-.5-2.1 0-4.2.2-6.2.6-3.3.6-6.7.9-10.1.9-3.6 0-7.2-.3-10.8-.5-9.6-.8-19.2-1.8-28.9-1.8-4.5 0-9 .3-13.5.8-1.1.1-2.3.2-3.4.2-1.2 0-2.4 0-3.6-.1h-2.1c-4.8-.1-9.6.5-14.2 1.7-1.5.4-2.9.6-4.4.6-2.9.1-5.9.1-8.8.1h-3.2c-5.8 0-11.7 0-17.5.4h-.8c-2.6-.1-5.1-.8-7.5-1.8-2.5 1-5.1 1.4-7.7 1.4-1.5 0-3.1-.1-4.6-.3-.6-.1-1.2-.1-1.7-.1-.6 0-1.2.1-1.7.2-4.3 1.2-8.8 1.8-13.3 1.7-2.8 0-5.6-.2-8.4-.4-3.5-.3-7-.4-10.5-.4-3.7 0-7.3.1-11 .1h-.1c-3.1.1-6.3-.3-9.3-1.1-4.1-1.2-8.4-1.8-12.7-1.8h-2.1c-1.3.1-2.6.1-3.9.1-7.2 0-14.4-1.1-21.4-2.9-1.5-.4-3.1-.6-4.7-.6s-3.1.2-4.7.5c-2.1.5-4.2.7-6.3.8-2.7 0-5.4-.5-7.9-1.7-.8-.4-1.6-.6-2.5-.6-.6 0-1.3.1-1.9.3-1.4.4-2.9.7-4.4.7-2.2 0-4.1-.4-6.2-1.1-1.9-.6-4-1-6-1-1.9 0-3.7.3-5.5.8-10.8 3.1-21.9 3.9-33.1 4-8.7 0-17.2 1.3-25.9 1.5h-3.1c-14.8-.1-29.6-1.5-44.2-3.7-2.1-.3-4.4-.4-6.6-.4h-9.6c-21.1 0-42.2.7-63.2 1.3-14.8.4-29.6 1.8-44.4 2.7-4.1.2-8.2.2-12.3.2-5.4 0-10.8-.3-16.2-.9-3.4-.3-6.9-.3-10.3-.2-2.3 0-7.3-.1-7.3-.1h-7.4c-3.3.1-6.7-.3-10-.8-.8-.1-1.6-.2-2.5-.2-2.2 0-4.3.6-6.2 1.6-2 1-4 1.4-6.3 1.4-1.5 0-2.4 0-3.8-.5-.3-.1-.8-.4-1.1-.5h-.1c-1 .4-2.3.8-3.3.8-3.8 0-6.8-2.7-11-2.9-1.4-.1-2.5-.9-4.2-1.6-4 2.2-8.7 2.4-13.4 2.4h-.9c-3.8 0-7.7-.2-11.5-.2-3 0-6.1.2-9.1.7-5.8 1-11.6 1.4-17.5 1.4-4.3 0-8.6-.2-12.9-.6-22.1-2-44.3-1.3-66.4-1.6-8.2-.1-16.3-.8-24.4-1.6-13-1.1-26-1.5-39-1.5-2.8 0-5.6 0-8.4.1-3.3 0-6.7.5-9.8 1.5-5.9 1.9-12 2.8-18.2 2.6-1.8 0-3.7-.1-5.5-.2-2.3-.1-4.6-.2-6.9-.2-2.7 0-5.4.1-8.1.3-1.2.1-2.3.2-3.4.2-3.5.1-7-.6-10.2-2-2.3 1.3-4.9 2-7.5 2.1-2.4 0-4.6-.9-6.4-2.5-5.4-.7-10.9-1-16.4-1h-2.1c-2.6-.1-5.1.2-7.6.8-1 .3-2 .4-3.1.3h-.9c-1.9 0-3.9-.1-5.8-.1-8.4 0-16.8.3-25.2 1-9.1.7-18.2 1.6-27.4 2.4-1.7.2-3.3.4-5 .4-3.4.1-6.8.1-10.2.1-18.4 0-36.8-1.2-55.2-2.6-.8-.1-1.7-.1-2.5-.2-7.7 0-15.3-.4-22.9-1.2-9.6-1.2-19.3-.8-28.9-1.2-10.6-.4-21.3-1-31.9-2.5-2.6-.3-5.3-.5-7.9-.5-3.3 0-6.7.2-10 .6-8.6 1.1-17.1 2.9-25.4 5.3-3.7 1.1-7.4 1.9-11.2 2.3-6.8.7-13.3 2.9-20.2 3.3-1.5.1-3 .1-4.4.1-3.8.1-7.7-.6-11.3-1.9-4-1.5-8.1-2.7-11.3-5.6-2 2.4-1.5 5.7-4.7 7-.3 0-.6.1-.9.1-4 0-5.1-4-7.3-6.9-1.9-.9-4.3-1.2-5.8-2.9-1.7 0-2.2 1.2-3 1.9-1.2 1.3-2.9 2.1-4.7 2.1h-1c-3.4 0-6.7.7-9.9 2-.8.3-1.6.4-2.4.4h-11.4c-4.9 0-9.7-.1-14.6-.6-3.8-.4-7.6-.2-11.5-.3-7.8-.3-15.6-1.1-23.4-1.2-2.5 0-4.9-.8-7.4-1-6.4-.6-12.7-1.1-19.1-1.1s-12.9.5-19.2 1.7c-4.4.8-8.9 1.3-13.4 1.3l-21 .3h-2c-2.3.1-4.6-.2-6.8-1-1.3-.5-2.7-.5-3.9 0-1.6.8-3.3 1.1-5.1 1.1-2.4-.1-4.7-.4-7-.9-2.5 1-5.2 1.6-7.9 1.6-3.2 0-6.4-.8-9.3-2.3-.7-.4-1.5-.5-2.3-.5-.7 0-1.4.1-2.1.4-2.1.6-4.3.8-6.4.6v1h.8c2 .1 4-.1 5.9-.7.6-.2 1.2-.3 1.8-.3.6 0 1.3.1 1.9.4 3 1.5 6.4 2.3 9.8 2.4 2.7 0 5.5-.5 8-1.5 2.2.5 4.5.8 6.8.8 1.9 0 3.8-.3 5.5-1 1-.4 2.2-.4 3.2 0 2.3.8 4.8 1.2 7.2 1.1h2l10.9-.1 10.1-.1c4.6 0 9.1-.4 13.6-1.3 6.3-1.2 12.6-1.8 19-1.7 6.3 0 12.7.4 19 1.1 1 .1 1.9.3 3 .5 1.5.3 3 .5 4.5.6 4.7 0 9.5.3 14.1.6 3.1.2 6.2.4 9.3.5 1.4.1 2.9.1 4.3.1 2.3 0 4.7 0 7.1.3 5.2.5 10.3.6 14.6.6H194c.9 0 1.8-.2 2.7-.5 3-1.2 6.3-1.9 9.5-1.9h1c2-.1 4-.9 5.4-2.4.2-.2.4-.4.6-.7.5-.6.8-.9 1.4-1 1.1.9 2.5 1.6 3.9 2 .6.2 1.1.4 1.6.6.5.7.9 1.4 1.4 2.1 1.4 2.3 3.1 5 6.6 5 .3 0 .7 0 1-.1h.1l.1-.1c2.3-1 3.1-2.9 3.7-4.6.2-.7.5-1.3.8-1.9 2.8 2 5.9 3.5 9.1 4.5l1.7.6c3.7 1.3 7.7 2 11.6 1.9 1.6 0 3.2-.1 4.5-.1 3.8-.3 7.5-.9 11.2-1.7 3-.7 6-1.2 9-1.5 3.9-.4 7.7-1.2 11.4-2.4 8.2-2.5 16.7-4.3 25.2-5.3 3.3-.4 6.6-.6 9.9-.6 2.6 0 5.2.2 7.8.5 10.6 1.4 21.3 2.2 32 2.5 3 .1 6.1.1 9.1.2 6.6 0 13.2.3 19.7 1 7.1.8 14.2 1.2 21.4 1.2h1.7c.6 0 1.3.1 1.9.1h.5c16.6 1.2 35.9 2.6 55.3 2.6 3.5 0 6.9 0 10.2-.1 1.2 0 2.5-.2 3.7-.3l1.4-.1 8.6-.8c6.1-.6 12.5-1.2 18.7-1.6 8.3-.7 16.8-1 25.1-1 1.9 0 3.8 0 5.8.1h.9c1.1 0 2.3-.1 3.4-.4 2.4-.6 4.9-.9 7.3-.8h2.2c5.3 0 10.7.3 16 1 1.9 1.6 4.3 2.5 6.8 2.5 2.6-.1 5.2-.8 7.5-2 3.2 1.3 6.7 2 10.2 1.9 1.1 0 2.3-.1 3.5-.2 2.5-.2 5.2-.3 8-.3 2.1 0 4.4.1 6.8.2 2 .1 3.8.2 5.6.2 6.3.1 12.5-.8 18.5-2.7 3.1-1 6.3-1.5 9.5-1.5 2.8-.1 5.6-.1 8.4-.1 12.5 0 25.6.6 38.9 1.7l1.3.1c7.6.7 15.5 1.3 23.2 1.4 5.4.1 10.8.1 16.1.1 16.5.1 33.5.2 50.2 1.6 4.6.4 8.9.6 13 .6 5.9 0 11.8-.5 17.7-1.5 2.9-.5 5.8-.7 8.8-.7 2 0 4 .1 5.9.1s3.7.1 5.6.1h.9c4.7 0 9.3-.2 13.5-2.3.4.2.8.3 1.1.5 1 .6 2.1 1 3.3 1.1 1.7.2 3.4.6 5 1.3 1.9.9 3.9 1.4 6 1.5 1.1 0 2.1-.2 3.1-.6.2.1.3.1.5.2 1.5.5 3 .7 4.6.7 2.4 0 4.7-.6 6.8-1.7 1.8-.9 3.8-1.4 5.8-1.4.8 0 1.5.1 2.3.2 3.4.5 6.8.8 10.2.7h14.7c3.4 0 6.8.1 10.2.4 5.4.5 10.8.8 16.3.8 3.9 0 8-.1 12.3-.4 4.8-.3 9.7-.6 14.4-.9 9.8-.6 20-1.3 29.9-1.6 20.1-.6 41.7-1.1 63.2-1.1h9.7c2.1 0 4.2.2 6.3.5 14.7 2.2 29.5 3.4 44.4 3.5h3.1c4.2-.1 8.4-.4 12.5-.7 4.4-.4 8.9-.7 13.4-.7 13.6 0 23.9-1.3 33.4-4 1.7-.5 3.5-.8 5.2-.8 1.9 0 3.7.3 5.5.8 2.2.7 4.4 1.1 6.7 1.1 1.6 0 3.2-.2 4.7-.7.5-.2 1-.2 1.6-.3.7 0 1.4.2 2.1.5 2.6 1.2 5.4 1.8 8.3 1.8 2.2 0 4.4-.3 6.5-.8 1.5-.3 3-.5 4.5-.5s3 .2 4.5.6c7.1 1.8 14.3 2.8 21.6 2.8 1.3 0 2.6 0 3.9-.1h2.1c4.2 0 8.4.6 12.4 1.8 3.1.8 6.3 1.2 9.6 1.1h11.1c4.2 0 7.4.1 10.4.4 3.3.3 6 .4 8.5.4 4.6.1 9.2-.5 13.6-1.8.5-.1 1-.2 1.4-.2.5 0 1.1 0 1.6.1 1.6.2 3.1.4 4.7.4 2.6 0 5.2-.4 7.7-1.3 2.4 1.1 4.9 1.7 7.5 1.8h.9c5.8-.4 11.5-.4 17.4-.4h3.2c2.7 0 5.8 0 8.8-.1 1.6 0 3.1-.3 4.7-.7 4.6-1.1 9.3-1.7 14-1.6h5.7c1.2 0 2.4-.1 3.5-.2 4.4-.6 8.9-.8 13.4-.8 7.5 0 15.2.7 22.6 1.3l6.2.5c3.5.3 7.2.5 10.8.5 3.5 0 6.9-.3 10.3-.9 2-.4 4-.6 6-.6 1.7 0 3.4.2 5 .5 2.6.5 5.2.8 7.9.8 2.1 0 4.2-.1 6.3-.4 1.7-.2 3.4-.3 5.1-.3 1.5 0 3.1.1 4.6.3 1.7.3 3.3.4 5 .4 3 .1 6.1-.6 8.8-2.1 1.3-.7 2.8-1.1 4.3-1.2.6 0 1.2.1 1.8.2 1.9.5 3.9.8 5.8.8 3.2 0 6.3-.8 9.1-2.4 1.9.7 3.9 1 5.9 1.1 3.1 0 6.2-.8 9-2.1.8-.4 1.8-.6 2.7-.6.5 0 1 .1 1.5.2 1.8.5 3.7.8 5.6.8 3.2-.1 6.3-.7 9.3-1.8 2.1-.8 4.2-1.1 6.4-1.1 1.9 0 3.9.3 5.7.8 5.4 1.4 10.9 2.1 16.4 2.1h2c4.7 0 9.2.2 13.6.6l3.7.4c4 .4 8.2.8 12.3 1.1 1.8.1 3.5.2 5.1.2 3.5 0 7.1-.3 10.5-1 7.6-1.5 15.3-2.3 23-2.3 3 0 6.1.1 9 .4 4.2.3 8.5.8 12.7 1.3 3.5.4 7.1.8 10.7 1.1 3.9.4 9 .8 14.2.8 3.3 0 6.6-.2 9.9-.6 2.1-.3 4.2-.4 6.4-.4 2.6 0 5.1.3 7.6.9 2.4.6 4.8.9 7.3.9 2.1.1 4.1.3 6.1.7.4.1.7.1 1.1.1 1.4-.1 2.7-.5 3.9-1.2l.7-.4c.8-.5 1.7-.9 2.6-1.1h.1l.5.1 1.2.3c2 .9 4.1 1.4 6.3 1.4 3.8 0 7.4-1.7 10.7-5 .2-.2.3-.4.5-.6.5-.7 1.2-1.3 2.1-1.5l.8 1.1c.8 1.2 1.7 2.4 2.6 3.6 1.4 1.7 2.9 3.3 5.2 3.3 1.5-.1 2.9-.5 4.2-1.3.4-.2.8-.4 1.1-.6l.7-.4c2.3-1.5 5-2.3 7.8-2.4 1.1 0 2.2.2 3.3.5 1.5.4 3.1.6 4.7.5h12.8c3.5-.1 6.9.3 10.3 1.1l.2.1h.2c1-.2 1.8-.8 2.3-1.7.1-.2.2-.3.3-.4 2.5.6 5 .9 7.6.9 2.8 0 5.5-.5 8-1.6.2.2.3.4.5.6.9 1.4 2.3 2.3 3.9 2.5h.1c.9-.1 1.8-.4 2.6-1 .6-.5 1.3-.8 2.1-1 1.9.3 3.8.5 5.6.5 1.5 0 3-.1 4.5-.3.6-.1 1.2-.1 1.7-.1 2 0 4 .6 5.7 1.7 2.8 1.7 6.1 2.7 9.4 2.6h.1l15.9-.1-.1-.7z"/></svg>