<svg viewBox="0 0 154.59 140.59" xmlns="http://www.w3.org/2000/svg"><path d="M77.56 0c9.48 1.55 19 2.76 28.27 5.52 8.95 2.67 17.76 5.63 25 11.81 2.77 2.35 4.86 5.14 5.08 8.94.06.95-.07 2.14-1.11 2.46-1.34.43-1.44-.88-1.73-1.72a15.3 15.3 0 0 0-8-8.6C100 5.94 73.62.85 46.29 8.31 22.55 14.79 6.73 38.45 5.18 63.78c-2 32.36 20.6 60.42 51.14 68 14.63 3.64 29.57 5.66 44.25 1.62 21.53-5.93 37.91-18.83 46.1-40.12 4.75-12.34 4.24-25.21-.5-37.68-4.09-10.72-12.17-17.55-22.5-21.78a108.75 108.75 0 0 0-26.06-6.55c-3.84-.55-7.43 1.33-11.69 1.05 2.12-4.61 5.84-6.38 9.85-6 16.19 1.4 31.76 5 44.49 16a38.29 38.29 0 0 1 11.55 18c.94 3.06 1.86 6.13 2.79 9.2v19.22c-3.55 17.32-13.2 30.57-27.07 41.15-10.31 7.86-22 12.23-34.56 14.71h-18.3c-6-1.15-12-2.14-17.89-3.48C22.39 129.31-4.12 97.55.53 59.78 3.18 38.29 12.92 20.86 31.59 9.12 40 3.82 49.64 1.85 59.26 0z" fill="#ffc800"/></svg>