<svg viewBox="0 0 105.29 60.07" xmlns="http://www.w3.org/2000/svg"><path d="M34.94 4.14a1.94 1.94 0 0 1 .74-1.38A7.22 7.22 0 0 1 40 .64 63.28 63.28 0 0 1 56.09.39a12.58 12.58 0 0 1 2 .35c2.6.69 3.07 1.62 3.58 4.25a23.14 23.14 0 0 1 .08 5.08c-.13 4.29-.28 8.57-.27 12.86a11.24 11.24 0 0 0 .66 4.41 4 4 0 0 0 .41.75c1 1.39 2.19 1.51 3.51.44 3-2.42 4.94-5.65 7-8.83a86.62 86.62 0 0 0 7.11-14.3c.75-1.86 1.52-2.56 3.93-2.54 5.64 0 11.28-.09 16.92-.17a7.06 7.06 0 0 1 2.54.39A2.25 2.25 0 0 1 105.22 6a19.8 19.8 0 0 1-2.88 6.6 154.56 154.56 0 0 1-9.33 13 53.13 53.13 0 0 0-4.13 5.84 4.42 4.42 0 0 0 .7 5.75c2.41 2.64 5.13 5 7.63 7.51a48.92 48.92 0 0 1 6.79 8.24 7.26 7.26 0 0 1 1.16 3.12 2.78 2.78 0 0 1-2.16 3.35 9.84 9.84 0 0 1-3.07.38c-4.17.08-8.35 0-12.51.25S80 58.66 77.15 55.9c-2.29-2.2-4.24-4.7-6.42-7A14.58 14.58 0 0 0 68 46.64a2.77 2.77 0 0 0-4 .44 8.78 8.78 0 0 0-2.13 4.62 40.23 40.23 0 0 0-.41 4.72 3.28 3.28 0 0 1-3 3.26 3.91 3.91 0 0 1-.69.08c-2.88 0-5.76.1-8.63 0a27.93 27.93 0 0 1-12.56-3.63 43.56 43.56 0 0 1-12.78-10 129.28 129.28 0 0 1-8.8-11.9A182.24 182.24 0 0 1 1 8a14.92 14.92 0 0 1-.87-2.11 2.13 2.13 0 0 1 1.75-2.94 9.79 9.79 0 0 1 2.06-.19l13.72-.09a4.61 4.61 0 0 1 4.75 3.13 156.94 156.94 0 0 0 8.47 16.85 19.09 19.09 0 0 0 4.7 5.79 3.56 3.56 0 0 0 2.85.95 1.75 1.75 0 0 0 1.34-.93A11.81 11.81 0 0 0 41 24.11a47.94 47.94 0 0 0 .25-11.88 30 30 0 0 0-.65-3.65 5.34 5.34 0 0 0-4.3-4.06 4.77 4.77 0 0 1-1.36-.38z" fill="#fff"/></svg>