<svg viewBox="0 0 33.57 60.73" xmlns="http://www.w3.org/2000/svg"><path d="M33.24.18a28.73 28.73 0 0 1-.06 9c-2.13 1.24-4.25.67-6.28.74-4.38.15-5.37 1-5.37 5.4 0 1.7-.33 3.45.53 5.29 3.48 1.1 7.3-.22 11 .86a21.5 21.5 0 0 1 .15 8.53c-3.73 1.24-7.56-.16-11.46 1.09-.62 9.59.09 19.23-.41 29a29.32 29.32 0 0 1-10.81.12v-29c-3.48-1.39-6.81 0-10-1.18-.8-2.78-.39-5.56-.28-8.4 3.26-1.37 6.6 0 9.66-1.12.92-1.75.51-3.59.54-5.37a16.13 16.13 0 0 1 4.08-10.86A11.36 11.36 0 0 1 22.39.22 75.06 75.06 0 0 1 33.24.18z" fill="#fff"/></svg>