<svg viewBox="0 0 62.34 62.14" xmlns="http://www.w3.org/2000/svg"><g fill="#fff"><path d="M50.57 28.44c3-.95 8.62-.89 11 0 .86.88.74 2 .75 3.13 0 6.67.07 13.34 0 20-.09 7.09-3.57 10.51-10.71 10.53q-20.29.06-40.59 0C4.16 62.09.27 58.3.17 51.49S.13 38 .13 31.2a4.11 4.11 0 0 1 .81-3 28.83 28.83 0 0 1 10.76 0c.88 13.57 6.88 22.8 21.45 21.66 12.29-.93 17.37-9.57 17.42-21.42zm11.07-8.88a65.23 65.23 0 0 1-14.35 0c-.94-.12-1.51-1-2.17-1.67-8.21-8-20-7.93-28 .27-.58.6-1.1 1.4-2 1.48a77.48 77.48 0 0 1-14.87-.12C.32 14.17-1 9 1.92 4.23A8.81 8.81 0 0 1 9.69.06C24.06 0 38.42 0 52.79.08c5.63 0 9.29 3.9 9.48 9.54.09 2.68 0 5.37-.06 8.06a9.54 9.54 0 0 1-.57 1.88zM49.18 5.24a14.68 14.68 0 0 0 .07 7.85 9.46 9.46 0 0 0 8.09-.1c.64-2.74 1-5.31-.46-7.87a14.81 14.81 0 0 0-7.7.12z"/><path d="M42.65 31a11.3 11.3 0 1 1-22.59 0 11.3 11.3 0 0 1 22.59 0z"/></g></svg>