<svg viewBox="0 0 71.72 60.92" xmlns="http://www.w3.org/2000/svg"><path d="M1.42 22.64c2-.61 3.29.73 5.32.08-2.34-2.77-4.45-5.5-5.17-9A14 14 0 0 1 3 3.85C5 4 5.8 5.55 6.84 6.6a39.36 39.36 0 0 0 22.63 11.71 6.54 6.54 0 0 0 4.53-.45c.95-.89.81-2.08.89-3.21C35.67 3 47.52-3.73 57.65 2.19c3.68 2.15 6.59 2.43 10.09.57a2.19 2.19 0 0 1 2-.24c.28 2.91-2.75 4-3.83 6.27 2.09.76 3.71-1.1 5.81-.48-.59 2.21-2.32 3.46-3.83 4.74a6.81 6.81 0 0 0-2.56 5.38C64.45 43.18 44.8 61.61 20.14 60.9 12.45 60.67 4.6 58.3 0 54.56c3.8-.57 7.33-.3 10.66-1.38a28 28 0 0 0 9.67-5.3c-6.16-1.43-11-3.77-12.86-9.45 1-1.7 2.83-.53 4.06-2.08-5.75-2.75-9.65-6.93-10.11-13.71z" fill="#fff"/></svg>