<svg viewBox="0 0 355.57 252.1" xmlns="http://www.w3.org/2000/svg"><path d="M0 51.19a69 69 0 0 1 4.84-13.81C5.65 35.82 6.12 34 8 33.25v-.07c-1.88 5.47-4.92 10.52-5.36 16.5C2.3 54.24 2.24 58.78 4 63c5.22 12.75 12.34 24.32 23.23 33.14C34.45 102 42.74 104.4 52 102.8c2.7-.47 5.71-.75 5.52-4.92-.08-1.7 1.66-2.78 3.24-3.48.95-.42 2-.61 2.76.26s.06 1.75-.49 2.59c-3.24 5-7.88 7.43-13.77 7.71-10.81.51-19.93-3.53-27.59-10.78A76.94 76.94 0 0 1 0 57.19zm231 37.09l.89 3.29.73-.16 1.2-.23c1.37-.28 2.75-.51 4.13-.69q1.06-.17 2.13-.3h.13a.37.37 0 0 1 .17 0c.76-.72 2.44-1.13 5.43-2.06 8.86-2.74 18-2.27 27-3.42 11.56-1.48 22.76-5.12 34.52-5.29a5.79 5.79 0 0 1 3.44.75 26.55 26.55 0 0 1 4.73-.67.42.42 0 0 1 .25.08.44.44 0 0 1-.06-.11.43.43 0 0 1-.34-.34c-.6-2.41-.4-4.92-1-7.33a.48.48 0 0 1 .34-.59v-.09a2.58 2.58 0 0 1-.62-2.3c.55-3.71-1.1-7.27 0-11.22a9.28 9.28 0 0 0-3.64-9.81c-2.29-1.53-3.3-2.81-3.24-5.36 0-1.72-.29-3.73-2.43-3.7-2.62 0-2.47 2.39-2.27 4.15.55 4.62 1.13 9.26 2.05 13.81 1.11 5.45.24 7.52-5.11 9.11a76.19 76.19 0 0 1-15.74 2.63c-17.1 1.36-34.18 2.94-51.28 4.35-3.42.28-4.75 1.12-4 5.17.72 3.51 1.69 6.89 2.59 10.33zm3.49-.77c-1.75.05-1.88-1.55-2-2.78s.62-1.8 1.77-1.75c1.51.06 1.67 1.25 1.83 2-.09 1.47-.49 2.49-1.57 2.53zm34.81-14.08c11.87-1 23.46-3.85 35.31-5.17 5.13-.57 5 1.24 5.64 4.39.48 2.29-.2 3.42-2.55 3.78-9.82 1.5-19.64 3.07-30.7 4.81-1.57.64-4.29-.82-7.12-.65s-2-3.29-2.85-5c-1.03-2.12 1.27-2.07 2.3-2.16zm-7.3 4.86c.2 1.33 1.42 3.17-.9 3.66-7.11 1.49-14.26 2.79-21.39 4.17-1.2.09-2.35.11-2.64-1.48a2.32 2.32 0 0 1 1.62-2.73 163.51 163.51 0 0 1 20.8-6.42c2.21-.49 2.32 1.34 2.51 2.8zM232.24 75c3.15-.14 6.3-.36 9.45-.55v-.15c3-.24 6-.49 9-.71a8.89 8.89 0 0 1 1.41.11 7.49 7.49 0 0 1-1.27.74c-5.8 2-11.61 4-17.43 6-2.36.79-2.79-1.12-3.34-2.68-.78-2.1.36-2.65 2.18-2.76z" fill="#fff"/><path d="M353.65 149.12c-9.84-18.54-19.34-37.23-27.26-56.71-2.48-6.11-4.86-12.35-8.73-17.75.09 1.56.1 3.11.1 4.68 0 .49-1 .54-1.4.53.45.12.58.85 0 1l-.35.07a.41.41 0 0 1-.32.27 12.69 12.69 0 0 1-1.78.34q-.9.16-1.81.25a10.18 10.18 0 0 1 .63 1.82c2.69 10.48 5.65 20.9 8.61 31.31 4.87 17.14 10.1 34.17 15.84 51 1.79 5.27.52 7.27-5 8.48-9.6 2.11-19.19 4.23-28.82 6.18a71.2 71.2 0 0 0-16.52 5.41 14.76 14.76 0 0 1-3.72 1.34c.39 1 .79 1.91 1.1 2.65a4.34 4.34 0 0 1 2.11-1.2 478.64 478.64 0 0 1 49.75-10.24c3.45-.5 4.34.37 4.9 3.3.33 1.74 1 4 3.44 3.37s1.82-2.93 1.42-4.7c-1-4.54-1.93-9.12-4-13.38-.61-1.28-1.83-3.6-.68-4.07 3.47-1.41 5.09-5.2 9-6.08 6.37-1.51 6.53-2.14 3.49-7.87zm-5.65 3.67c-3.27-.36-5.45.65-6.48 4a3.09 3.09 0 0 1-2.1 1.89c-1.11 0-1.13-1.41-1.42-2.31-7.76-24.26-15.15-48.62-21.35-73.33-.19-.76-.68-1.57 0-2.35a11.58 11.58 0 0 1 1.39 1.94c7.69 17.34 14.55 35 23.54 51.8 2.44 4.54 4.75 9.16 7.13 13.74l1.31 2.52c.46 1.92-.85 2.23-2.02 2.1z" fill="#ffc700"/><path d="M284.11 197a37.55 37.55 0 0 1-1.66-3.5c-.69-1.61-1.35-3.23-1.91-4.89-.36-.92-1.77-5.33-2.14-6.89-1.21-5.15-4.19-9-8.26-12.28-16.49-13.28-34.63-24.27-51.37-37.22-9.84-7.61-19.21-15.94-30.42-21.78-3.06-1.6-6.44-.86-9.27-3-14.8-11-30.91-20.48-41.48-36.37-2.47-3.72-6.38-3.84-9.68-.76a25.7 25.7 0 0 0-3.85 4.57c-1.84 2.79-3.29 2.84-6.17.78C106.36 67.4 96 57.76 85 48.88c-5.95-4.8-11.51-8.12-19.06-2.6-3 2.18-3.57 3.57-1.38 6.14a36.07 36.07 0 0 0 4.32 4.11c6.77 5.69 13.48 11.47 20.41 16.9 3.23 2.54 2.44 3.93-.53 5.76A21.08 21.08 0 0 1 72 81.74c-7.18-1.78-13-5.92-18.17-11C39 56.25 42.7 36.66 61.6 28.16c10.25-4.61 20.68-3.81 31.25-2a11.06 11.06 0 0 0-6.1-3c-15.17-3-28.14 1.27-38.38 12.68-6.86 7.64-7.57 19-2.59 28 5.81 10.59 14.92 16.91 26.41 19.82 5.29 1.34 11.15 1.77 15.38-1.88 5.34-4.61 9.2-3.31 13.4 1a17.67 17.67 0 0 0 3.17 2.43c2.52 1.6 2.21 2.87.23 5C93.38 101.92 86 115.83 81 131c-1 3-.61 6.8-2.36 9.07-2.47 3.2-.81 4.25 1.26 5.86 8.81 6.84 17.71 13.58 26.39 20.59 27.74 22.41 55.63 44.6 86.93 62 4.44 2.47 9.68 4.86 12.22 9.19 2.39 4.08 6 6.32 9.43 8.22 13 7.3 27 7.66 41.1 3.1 3.61-1.17 7.37-2.34 10-5.41 6.15-7.23 11.94-14.79 18.46-21.66 4.37-4.6 5.56-9.56 4.64-15.44-.61-3.66-3.07-6.52-4.96-9.52zM115.77 80c.78.51 1.82.93 1.66 2.15 0 .18-.67.49-.73.43a16.15 16.15 0 0 1-1.57-1.71c-.38-.48-.7-1-1-1.51a7.33 7.33 0 0 1 1.64.64zM73.41 55.14a28.14 28.14 0 0 1-2.27-1.94c-.61-.58-1.2-1.28-.61-2.15a1.89 1.89 0 0 1 2.2-.75 8.23 8.23 0 0 1 2.25 1 384.25 384.25 0 0 1 38.16 30.36c.59.53 1.62 1.16.79 1.92a8.56 8.56 0 0 1-2.74 1.24 5.91 5.91 0 0 1-3.78-2c-10.92-9.74-22.35-18.82-34-27.68zM86.81 146a1.47 1.47 0 0 1-.59-.58c0-.07.26-.32.45-.54a4.21 4.21 0 0 1 .59.71s-.38.41-.45.41zm193.87 69.23c-3.68 9.05-9.68 15.7-15.68 22.59-9 10.36-35.89 12.75-46.57 4.1-6.23-5.05-13.15-9-19.64-13.55-8.15-5.77-16.55-11.21-25.1-16.36-16.34-9.83-31-21.74-45.57-34-9.49-8-19.81-15.07-30-22.18-3.27-2.27-4.05-5.84-6.27-8.6a2.23 2.23 0 0 1-.16-1.89c1.44-3.5 1.48-3.5-2.37-4.83-1.37-.48-2.78-.86-4.17-1.29 1.56-9.36 4.76-17.6 14.19-22 2.08-1 5.79-2.54 4.22-5-1.84-2.93-5-.24-7.4 1a21.88 21.88 0 0 0-1.93 1.57c-1.12.75-1.37 2.69-3.25 2.4a39 39 0 0 1 1.66-4.07 118.26 118.26 0 0 1 11.67-17.4 15.23 15.23 0 0 1 7.81-5.21c4-1.3 7.56-3.75 12.1-4.4 2.69-.38 2.8-4.52 4.68-6.77 3.42-4.09 5.13-2.7 7.87-.17a373.59 373.59 0 0 0 39 31.17c7.65 5.38 16.56 8.25 24.14 13.81 9.14 6.72 17.57 14.28 26.76 20.9 14.72 10.61 29.9 20.55 44.26 31.67 4.12 3.19 5.17 7.3 4.25 12.17-.7 3.72 1.45 6.58 3.51 9 4.64 5.46 4.94 10.11 2 17.34z" fill="#fff"/><path d="M232.4 93.31c4.52 16.65 9.13 33.27 15 49.51.9 2.5 2 4.94 3.1 7.36.28.61.38 1.74 1.51 1.42a4.7 4.7 0 0 0-.14-1.83c-.86-3.48-2.63-6.72-2.87-10.37a50.86 50.86 0 0 0 3.2 4.78c1 1.19 1.37 3.79 3.09 3.2 1.13-.39 0-2.76-.36-4.13-4.54-15.68-9.07-31.36-13.81-47a22.88 22.88 0 0 1-1.17-4.67l-1.14.18-2 .53c2.07 9.91 5.7 19.44 7.18 29.5-4.41-9.24-6.12-19.35-9.19-29-.49.1-1 .18-1.47.24zm11.68 29l.89 3.52a6.27 6.27 0 0 1-.89-3.52zm3 11l.87 2.57a3.86 3.86 0 0 1-.87-2.52zm1.81 5.78a4 4 0 0 1-.82-2.93 4.6 4.6 0 0 1 .82 2.98zm-2-6.3l-.5-.86c.74.07.55.54.55.91zm-1.71-5.79v-.51l.22.85a1.22 1.22 0 0 1-.22-.34z" fill="#ffc700"/><g fill="#fff"><path d="M311.54 141.44c-10.15-1.7-19.09 2.18-28.31 4-4.9 1-9.77 2.13-14.79 2.31-1.07 0-2.81.77-3.09-.54-.37-1.72 1.72-1.56 2.77-2.19a1.67 1.67 0 0 1 .48-.15c12.16-2.83 24.22-6.17 36.6-8a45.08 45.08 0 0 1 6-.4c1.79 0 4.18-.3 4.11 2.33-.08 2.37-2.31 2.52-3.77 2.64zm-21.09-46.15c1.86.16 3.92.21 4.91 2.44a2.75 2.75 0 0 1-.63 3.22c-1.72 1.66-3.66 1.44-5.43.12-2.46-1.84-4.8-.51-7.1.19-7.13 2.18-14 5.28-21.63 5.56-1.36.05-3.49.91-3.77-1.14-.26-1.88 1.89-2.09 3.29-2.31 7.12-1.12 13.72-3.88 20.46-6.21a39.71 39.71 0 0 1 9.9-1.87zM296 86.3a187.09 187.09 0 0 0-34.73 7.86q-4.48 1.52-9 2.85c-.56.16-1.71 0-1.8-.24-.37-1 .63-1.34 1.35-1.6 5-1.83 9.9-4 15-5.36 9.62-2.58 19.37-4.71 29.06-7 1.3-.31 2.69-.77 3.62.61a2.08 2.08 0 0 1 0 1.8 2.59 2.59 0 0 1-3.5 1.08zM76.45.11c9.3-.18 17.91 1.3 25.88 5.58 1.08.58 3.12 1.07 2.47 2.51-.56 1.24-2-.21-3-.64C89 1.93 75.68 1.77 62.14 3.5c-1.5.19-3.91 1.49-4.32-.08C57.51 2.22 60.44 2 62 1.58A43 43 0 0 1 76.45.11zM298 150.77c2.07.07 3.88-.27 4.27 1.68s-1.14 2.44-2.72 2.8c-6 1.35-11.94 2.79-17.92 4.12-1.22.27-2.94 1-3.49-.66s1.24-2.12 2.37-2.66c5.72-2.77 11.85-4.18 17.49-5.28zM141.81 25.59c2.39.45 2.86 2.29 3.08 4.12.15 1.33-.7 2.42-2.1 2.07-1.81-.46-3.47-1.47-3.41-3.72a2.31 2.31 0 0 1 2.43-2.47zm181.91 134.53a2.64 2.64 0 0 1-3.26 2.27 3 3 0 0 1-2.77-3.42c0-1.45.73-2.77 2.4-2.27s3.43 1.3 3.63 3.42zM8 33.25c1.86-5.64 5.86-9.32 11-12l-.06-.06-11 12zm291 75.93a1.53 1.53 0 0 1-1.39 1.54 1.47 1.47 0 0 1-1.79-1.27 1.57 1.57 0 0 1 1.57-2c.88-.05 1.53.55 1.61 1.73zM86.91 12.24l-1.86-1-.06.06 1.86 1.06z"/><path d="M86.84 12.31l.67.16a.88.88 0 0 1-.27 0 2.62 2.62 0 0 1-.33-.21zm-8.27 76.33l-.31-.12c0-.11.06-.26.15-.32s.2.06.31.1zm14.36-62.43l.06-.05zM85 11.19l-.06.06zM19 21.25l-.06-.06zm155.34 107.34c.42 3.38-1.92 5.77-3.9 7.59-9.4 8.63-15.3 19.57-20.83 30.72-1.63 3.29-5.54 6.78-1.71 11.26.69.81-.51 2.11-1.57 1.76-2-.66-4.23.35-6.07-1.48-3.47-3.45-8.26-4.84-12.4-7.25a122.62 122.62 0 0 1-22.94-17.53c-3-2.85-2.79-5.44-1-8.82 9.07-17.1 19-33.58 32-48.09 1.62-1.82 4.19-3.87.7-6.46a1.61 1.61 0 0 1-.3-2.26 2 2 0 0 1 2.69-.5 40.86 40.86 0 0 1 6 3.54 342.13 342.13 0 0 0 33.75 23.12 36.37 36.37 0 0 1 4 2.94c1.25 1 3.11 2 2 4s-2.83.77-4.36.24c-3.25-1.18-6.4 2.56-6.06 7.22zM130 110.28l-1 .89-1.1 1.06-.83 2-1.07 1 1.05-1 .83-2 1.11-1.06 1-.89 1.1-1.06a5.32 5.32 0 0 0 1.86-3l1.08-1 1-1c1.18-.4 2.29-2.29 3.46-1.11 1.5 1.5-.43 2.66-1.27 3.73-3.18 4.06-6.59 7.92-10.1 11.72-7.17 7.74-15 15.1-17.28 26.13-.26 1.27-1.35 1.19-2.2 1.65-2.62 1.41-4.25 3-.25 4.86a26.54 26.54 0 0 1 3.4 2.08c9.11 6.08 19.5 10.27 27.32 18.25 3.51 3.58 5.24 3.39 6.94-1.35 2.88-8.05 7.37-15.28 11.67-22.57 5.07-8.6 10.62-16.92 16.06-25.29 1.84-2.83 2-4.67-1.28-6.84-7.21-4.77-14.14-10-21.09-15.14-7.43-5.5-11.17-4.59-15.33 3.94l-1 1-1.08 1a4.42 4.42 0 0 0-1.85 3zm40 45.86c1.76-1.07 3.74-2.33 4.93.43 1 2.28.08 4.74-2.27 5.23s-3.79 2.89-6.83 2.09c-2.2-.58-2 2.91-3.27 4.26-1.74 1.84-2.71 6.57-4.76 5.4-3-1.71.24-5 1.41-7.17 4-7.63 8-15.32 13.27-22.21 1.19-1.55 2.7-4.39 5-2 1.86 1.89-.38 3.37-1.83 4.8a20.28 20.28 0 0 0-5.62 9.23l-1.16.95-.1.14.14-.17zm28.1 13.37c-.14 6-2.75 9.62-7 9.69-4.47.06-8-4.47-8-10.17 0-4 4-7.91 8.08-8 4.21-.03 7.04 3.43 6.92 8.48zm-7.15-.12c2.24 1.15-3.94 4 .44 4.57 2.47.34 2.31-2.67 2.38-4.61 0-1.35 0-2.91-1.8-3-2.33-.06-1.55 1.48-.97 3.04z"/></g><path d="M229.85 232.57c0-3 8.76-14.66 11.68-15.66a3.83 3.83 0 0 1 4.13.92 3.5 3.5 0 0 1 1.11 4.06A30.12 30.12 0 0 1 235.35 236c-3.11 2-5.55.32-5.5-3.43z" fill="#ffc700"/><path d="M212.74 150.88c0 5.23-3 9.07-7 9.15s-8.91-4.55-8.81-8.11c.08-2.68 7.22-8.68 10.73-8.46 4.78.3 4.56 4.41 5.08 7.42zm-4.79 1c-.16-.67.17-2.09-1-1.74-1.31.41-2.89 1.19-3 2.92-.07.89.82 1.49 1.69 1.52 1.8.11 2.18-1.16 2.31-2.66zm30.98 28.38a11.65 11.65 0 0 1 2.46-7c1.85-2.29 3.56-5.28 7.15-4.39 2.92.73 4 3.42 4.4 6.12.47 3.6-1.65 6-4.59 7.61-2.07 1.12-4.78 1-5.5 4.21-.36 1.63-1.85.89-2.47-.35a12.57 12.57 0 0 1-1.45-6.2zm8.68-5.54c-1 0-1.38.77-1.51 1.58-.07.41.17 1.22.41 1.27 1 .22 1.48-.5 1.81-1.28a1.12 1.12 0 0 0-.7-1.57zm-52.14 36.39c-4-.56-6.89-2.8-8-6.54s1.86-4.8 4.73-5.61a3.91 3.91 0 0 0 1.29-.73c2.24-1.77 4.47-4 7.38-1.29 2.58 2.42 3 5.57 1.84 8.76s-3.79 4.94-7.24 5.41zm4.1-8.13c-.15-1.09-.48-2.45-1.69-1.82-1.83 1-3.87 2.15-4.3 4.38-.18.92 1.24 1.47 2.27 1.34a4.09 4.09 0 0 0 3.72-3.88zm25.93 15.47a7.88 7.88 0 0 1-8.23 7.58c-4.19-.14-7.76-4.32-7.64-8.93.1-3.9 4.19-7.06 9.24-7.13 3.58-.06 6.69 3.93 6.63 8.48zm-7.6 3.57c2.32-.47 4-1.63 3.89-4.24-.05-1.7-.5-3.62-2.68-3.32-2.33.33-4.54 1.53-4.72 4.25-.15 2.18 1.39 3.16 3.5 3.29zm20.24-25.08a7.47 7.47 0 0 1-6.87 7.76c-3.5.15-7.25-3.44-7.23-6.91 0-3.07 5.13-8.21 8.32-8.36 3.01-.14 5.64 3.33 5.78 7.51zm-5.35-1.73c-1.21.48-2.43 1-2.77 2.49-.27 1.17.31 2.15 1.44 2.13a2.46 2.46 0 0 0 2.42-2.66c.03-.81.12-1.72-1.09-1.96zM178.77 181c3.47.3 5.49 2.49 5.65 6.41.2 4.95-4.61 10.73-9.05 11-2.72.14-7.38-3.93-7.35-6.42.05-4.16 6.34-10.87 10.75-10.99zm2.53 6.57a2.21 2.21 0 0 0-2.71-2.42c-4 .64-4.8 4-5.58 7.26-.41 1.71.51 2.48 2 2.65 2.48.26 6.12-3.7 6.29-7.51zm51.18-21.73a7 7 0 0 1-7.63 7.28c-3.59-.21-6.58-1.62-7.09-5.61-.38-3 5.93-9.7 8.83-9.68 3.15.02 5.92 3.78 5.89 8.01zm-3.94-.66c-.61-.79-.47-2.81-2.33-2.26a5.15 5.15 0 0 0-3.48 3.89c-.33 1.76 1.42 2 2.74 1.86 1.92-.14 2.93-1.3 3.07-3.49zM209.61 192c-3.42-.27-5-2.52-5-6.21.07-4.38 3.07-7.28 7.69-7.27 4 0 4.8 2.91 4.84 6.07a7.47 7.47 0 0 1-7.53 7.41zm3.12-7c0-.68-.16-1.55-1-1.17a5 5 0 0 0-2.06 2c-.41.71.3 1.22 1 1.11a2.39 2.39 0 0 0 2.06-1.94z" fill="#fff"/><path d="M257.59 201.09c-1.82-.44-2.56-1.57-2.24-3 1.14-5 4.21-8.86 8-12.12a2.12 2.12 0 0 1 2.76-.07 2.25 2.25 0 0 1 .89 3.1c-2.53 3.84-5.2 7.59-7.88 11.32-.38.41-1.12.56-1.53.77z" fill="#ffc700"/><path d="M252.94 205.08a3.68 3.68 0 0 1 3.83 3.83c.1 2.38-1.08 4.24-3.59 4.55s-3.81-1.33-4-3.45c-.25-2.62 1.46-4.16 3.76-4.93zm34.91-130.67a2.73 2.73 0 0 1-2.49 2.66 2.12 2.12 0 0 1-2.61-2.22 2.49 2.49 0 0 1 2.4-2.64c1.57-.21 2.4.79 2.7 2.2z" fill="#fff"/></svg>